<svg xmlns="http://www.w3.org/2000/svg" xmlns:xlink="http://www.w3.org/1999/xlink" version="1.1" class="marks" width="516" height="314" viewBox="0 0 516 314"><rect width="516" height="314" fill="white"/><g fill="none" stroke-miterlimit="10" transform="translate(39,27)"><g class="mark-group role-frame root" role="graphics-object" aria-roledescription="group mark container"><g transform="translate(0,0)"><path class="background" aria-hidden="true" d="M0.5,0.5h400v250h-400Z" stroke="#ddd"/><g><g class="mark-group role-axis" aria-hidden="true"><g transform="translate(0.5,250.5)"><path class="background" aria-hidden="true" d="M0,0h0v0h0Z" pointer-events="none"/><g><g class="mark-rule role-axis-grid" pointer-events="none"><line transform="translate(0,-250)" x2="0" y2="250" stroke="#ddd" stroke-width="1" opacity="1"/><line transform="translate(36,-250)" x2="0" y2="250" stroke="#ddd" stroke-width="1" opacity="1"/><line transform="translate(73,-250)" x2="0" y2="250" stroke="#ddd" stroke-width="1" opacity="1"/><line transform="translate(109,-250)" x2="0" y2="250" stroke="#ddd" stroke-width="1" opacity="1"/><line transform="translate(145,-250)" x2="0" y2="250" stroke="#ddd" stroke-width="1" opacity="1"/><line transform="translate(182,-250)" x2="0" y2="250" stroke="#ddd" stroke-width="1" opacity="1"/><line transform="translate(218,-250)" x2="0" y2="250" stroke="#ddd" stroke-width="1" opacity="1"/><line transform="translate(255,-250)" x2="0" y2="250" stroke="#ddd" stroke-width="1" opacity="1"/><line transform="translate(291,-250)" x2="0" y2="250" stroke="#ddd" stroke-width="1" opacity="1"/><line transform="translate(327,-250)" x2="0" y2="250" stroke="#ddd" stroke-width="1" opacity="1"/><line transform="translate(364,-250)" x2="0" y2="250" stroke="#ddd" stroke-width="1" opacity="1"/><line transform="translate(400,-250)" x2="0" y2="250" stroke="#ddd" stroke-width="1" opacity="1"/></g></g><path class="foreground" aria-hidden="true" d="" pointer-events="none" display="none"/></g></g><g class="mark-group role-axis" aria-hidden="true"><g transform="translate(0.5,0.5)"><path class="background" aria-hidden="true" d="M0,0h0v0h0Z" pointer-events="none"/><g><g class="mark-rule role-axis-grid" pointer-events="none"><line transform="translate(0,250)" x2="400" y2="0" stroke="#ddd" stroke-width="1" opacity="1"/><line transform="translate(0,214)" x2="400" y2="0" stroke="#ddd" stroke-width="1" opacity="1"/><line transform="translate(0,179)" x2="400" y2="0" stroke="#ddd" stroke-width="1" opacity="1"/><line transform="translate(0,143)" x2="400" y2="0" stroke="#ddd" stroke-width="1" opacity="1"/><line transform="translate(0,107)" x2="400" y2="0" stroke="#ddd" stroke-width="1" opacity="1"/><line transform="translate(0,71)" x2="400" y2="0" stroke="#ddd" stroke-width="1" opacity="1"/><line transform="translate(0,36)" x2="400" y2="0" stroke="#ddd" stroke-width="1" opacity="1"/><line transform="translate(0,0)" x2="400" y2="0" stroke="#ddd" stroke-width="1" opacity="1"/></g></g><path class="foreground" aria-hidden="true" d="" pointer-events="none" display="none"/></g></g><g class="mark-group role-axis" role="graphics-symbol" aria-roledescription="axis" aria-label="X-axis titled 'Time' for a linear scale with values from 0 to 55"><g transform="translate(0.5,250.5)"><path class="background" aria-hidden="true" d="M0,0h0v0h0Z" pointer-events="none"/><g><g class="mark-rule role-axis-tick" pointer-events="none"><line transform="translate(0,0)" x2="0" y2="5" stroke="#888" stroke-width="1" opacity="1"/><line transform="translate(36,0)" x2="0" y2="5" stroke="#888" stroke-width="1" opacity="1"/><line transform="translate(73,0)" x2="0" y2="5" stroke="#888" stroke-width="1" opacity="1"/><line transform="translate(109,0)" x2="0" y2="5" stroke="#888" stroke-width="1" opacity="1"/><line transform="translate(145,0)" x2="0" y2="5" stroke="#888" stroke-width="1" opacity="1"/><line transform="translate(182,0)" x2="0" y2="5" stroke="#888" stroke-width="1" opacity="1"/><line transform="translate(218,0)" x2="0" y2="5" stroke="#888" stroke-width="1" opacity="1"/><line transform="translate(255,0)" x2="0" y2="5" stroke="#888" stroke-width="1" opacity="1"/><line transform="translate(291,0)" x2="0" y2="5" stroke="#888" stroke-width="1" opacity="1"/><line transform="translate(327,0)" x2="0" y2="5" stroke="#888" stroke-width="1" opacity="1"/><line transform="translate(364,0)" x2="0" y2="5" stroke="#888" stroke-width="1" opacity="1"/><line transform="translate(400,0)" x2="0" y2="5" stroke="#888" stroke-width="1" opacity="1"/></g><g class="mark-text role-axis-label" pointer-events="none"><text text-anchor="start" transform="translate(0,15)" font-family="sans-serif" font-size="10px" fill="#000" opacity="1">0</text><text text-anchor="middle" transform="translate(36.36363636363637,15)" font-family="sans-serif" font-size="10px" fill="#000" opacity="1">5</text><text text-anchor="middle" transform="translate(72.72727272727273,15)" font-family="sans-serif" font-size="10px" fill="#000" opacity="1">10</text><text text-anchor="middle" transform="translate(109.09090909090908,15)" font-family="sans-serif" font-size="10px" fill="#000" opacity="1">15</text><text text-anchor="middle" transform="translate(145.45454545454547,15)" font-family="sans-serif" font-size="10px" fill="#000" opacity="1">20</text><text text-anchor="middle" transform="translate(181.8181818181818,15)" font-family="sans-serif" font-size="10px" fill="#000" opacity="1">25</text><text text-anchor="middle" transform="translate(218.18181818181816,15)" font-family="sans-serif" font-size="10px" fill="#000" opacity="1">30</text><text text-anchor="middle" transform="translate(254.54545454545453,15)" font-family="sans-serif" font-size="10px" fill="#000" opacity="1">35</text><text text-anchor="middle" transform="translate(290.90909090909093,15)" font-family="sans-serif" font-size="10px" fill="#000" opacity="1">40</text><text text-anchor="middle" transform="translate(327.2727272727273,15)" font-family="sans-serif" font-size="10px" fill="#000" opacity="1">45</text><text text-anchor="middle" transform="translate(363.6363636363636,15)" font-family="sans-serif" font-size="10px" fill="#000" opacity="1">50</text><text text-anchor="end" transform="translate(400,15)" font-family="sans-serif" font-size="10px" fill="#000" opacity="1">55</text></g><g class="mark-rule role-axis-domain" pointer-events="none"><line transform="translate(0,0)" x2="400" y2="0" stroke="#888" stroke-width="1" opacity="1"/></g><g class="mark-text role-axis-title" pointer-events="none"><text text-anchor="middle" transform="translate(200,30)" font-family="sans-serif" font-size="11px" font-weight="bold" fill="#000" opacity="1">Time</text></g></g><path class="foreground" aria-hidden="true" d="" pointer-events="none" display="none"/></g></g><g class="mark-group role-axis" role="graphics-symbol" aria-roledescription="axis" aria-label="Y-axis titled 'Population' for a linear scale with values from 0 to 35"><g transform="translate(0.5,0.5)"><path class="background" aria-hidden="true" d="M0,0h0v0h0Z" pointer-events="none"/><g><g class="mark-rule role-axis-tick" pointer-events="none"><line transform="translate(0,250)" x2="-5" y2="0" stroke="#888" stroke-width="1" opacity="1"/><line transform="translate(0,214)" x2="-5" y2="0" stroke="#888" stroke-width="1" opacity="1"/><line transform="translate(0,179)" x2="-5" y2="0" stroke="#888" stroke-width="1" opacity="1"/><line transform="translate(0,143)" x2="-5" y2="0" stroke="#888" stroke-width="1" opacity="1"/><line transform="translate(0,107)" x2="-5" y2="0" stroke="#888" stroke-width="1" opacity="1"/><line transform="translate(0,71)" x2="-5" y2="0" stroke="#888" stroke-width="1" opacity="1"/><line transform="translate(0,36)" x2="-5" y2="0" stroke="#888" stroke-width="1" opacity="1"/><line transform="translate(0,0)" x2="-5" y2="0" stroke="#888" stroke-width="1" opacity="1"/></g><g class="mark-text role-axis-label" pointer-events="none"><text text-anchor="end" transform="translate(-7,253)" font-family="sans-serif" font-size="10px" fill="#000" opacity="1">0</text><text text-anchor="end" transform="translate(-7,217.2857142857143)" font-family="sans-serif" font-size="10px" fill="#000" opacity="1">5</text><text text-anchor="end" transform="translate(-7,181.57142857142858)" font-family="sans-serif" font-size="10px" fill="#000" opacity="1">10</text><text text-anchor="end" transform="translate(-7,145.85714285714286)" font-family="sans-serif" font-size="10px" fill="#000" opacity="1">15</text><text text-anchor="end" transform="translate(-7,110.14285714285715)" font-family="sans-serif" font-size="10px" fill="#000" opacity="1">20</text><text text-anchor="end" transform="translate(-7,74.42857142857143)" font-family="sans-serif" font-size="10px" fill="#000" opacity="1">25</text><text text-anchor="end" transform="translate(-7,38.71428571428573)" font-family="sans-serif" font-size="10px" fill="#000" opacity="1">30</text><text text-anchor="end" transform="translate(-7,3)" font-family="sans-serif" font-size="10px" fill="#000" opacity="1">35</text></g><g class="mark-rule role-axis-domain" pointer-events="none"><line transform="translate(0,250)" x2="0" y2="-250" stroke="#888" stroke-width="1" opacity="1"/></g><g class="mark-text role-axis-title" pointer-events="none"><text text-anchor="middle" transform="translate(-22.123046875,125) rotate(-90) translate(0,-2)" font-family="sans-serif" font-size="11px" font-weight="bold" fill="#000" opacity="1">Population</text></g></g><path class="foreground" aria-hidden="true" d="" pointer-events="none" display="none"/></g></g><g class="mark-group role-scope pathgroup" role="graphics-object" aria-roledescription="group mark container"><g transform="translate(0,0)"><path class="background" aria-hidden="true" d="M0,0h400v250h-400Z"/><g><g class="mark-line role-mark marks" role="graphics-object" aria-roledescription="line mark container"><path aria-label="Time: 0; Population: 25; Species: prey" role="graphics-symbol" aria-roledescription="line mark" d="M0,71.429L0.364,66.953L0.727,62.466L1.091,57.987L1.455,53.537L1.818,49.138L2.182,44.818L2.545,40.606L2.909,36.532L3.273,32.631L3.636,28.941L4,25.5L4.364,22.35L4.727,19.535L5.091,17.098L5.455,15.085L5.818,13.539L6.182,12.504L6.545,12.017L6.909,12.114L7.273,12.823L7.636,14.165L8,16.151L8.364,18.782L8.727,22.047L9.091,25.925L9.455,30.379L9.818,35.364L10.182,40.822L10.545,46.687L10.909,52.887L11.273,59.344L11.636,65.979L12,72.714L12.364,79.474L12.727,86.19L13.091,92.798L13.455,99.243L13.818,105.48L14.182,111.47L14.545,117.184L14.909,122.6L15.273,127.706L15.636,132.492L16,136.957L16.364,141.102L16.727,144.934L17.091,148.46L17.455,151.69L17.818,154.636L18.182,157.311L18.545,159.727L18.909,161.897L19.273,163.833L19.636,165.549L20,167.055L20.364,168.362L20.727,169.481L21.091,170.422L21.455,171.193L21.818,171.802L22.182,172.256L22.545,172.563L22.909,172.728L23.273,172.757L23.636,172.654L24,172.423L24.364,172.068L24.727,171.592L25.091,170.998L25.455,170.288L25.818,169.464L26.182,168.527L26.545,167.479L26.909,166.32L27.273,165.052L27.636,163.674L28,162.186L28.364,160.589L28.727,158.883L29.091,157.066L29.455,155.139L29.818,153.101L30.182,150.952L30.545,148.69L30.909,146.315L31.273,143.827L31.636,141.224L32,138.507L32.364,135.674L32.727,132.726L33.091,129.663L33.455,126.485L33.818,123.192L34.182,119.785L34.545,116.266L34.909,112.636L35.273,108.899L35.636,105.057L36,101.114L36.364,97.075L36.727,92.946L37.091,88.733L37.455,84.446L37.818,80.093L38.182,75.685L38.545,71.236L38.909,66.759L39.273,62.272L39.636,57.794L40,53.345L40.364,48.95L40.727,44.634L41.091,40.427L41.455,36.36L41.818,32.467L42.182,28.787L42.545,25.357L42.909,22.221L43.273,19.421L43.636,17.002L44,15.008L44.364,13.484L44.727,12.471L45.091,12.009L45.455,12.132L45.818,12.868L46.182,14.238L46.545,16.251L46.909,18.91L47.273,22.203L47.636,26.106L48,30.584L48.364,35.59L48.727,41.067L49.091,46.948L49.455,53.161L49.818,59.627L50.182,66.268L50.545,73.006L50.909,79.766L51.273,86.478L51.636,93.08L52,99.517L52.364,105.744L52.727,111.722L53.091,117.424L53.455,122.827L53.818,127.919L54.182,132.692L54.545,137.143L54.909,141.274L55.273,145.093L55.636,148.605L56,151.823L56.364,154.757L56.727,157.421L57.091,159.826L57.455,161.985L57.818,163.912L58.182,165.618L58.545,167.115L58.909,168.414L59.273,169.526L59.636,170.459L60,171.222L60.364,171.824L60.727,172.273L61.091,172.573L61.455,172.732L61.818,172.755L62.182,172.646L62.545,172.41L62.909,172.05L63.273,171.569L63.636,170.97L64,170.255L64.364,169.426L64.727,168.484L65.091,167.431L65.455,166.268L65.818,164.994L66.182,163.612L66.545,162.119L66.909,160.518L67.273,158.806L67.636,156.985L68,155.054L68.364,153.011L68.727,150.857L69.091,148.59L69.455,146.21L69.818,143.717L70.182,141.109L70.545,138.387L70.909,135.549L71.273,132.596L71.636,129.528L72,126.345L72.364,123.047L72.727,119.635L73.091,116.111L73.455,112.477L73.818,108.735L74.182,104.889L74.545,100.941L74.909,96.898L75.273,92.765L75.636,88.55L76,84.259L76.364,79.903L76.727,75.493L77.091,71.043L77.455,66.565L77.818,62.079L78.182,57.601L78.545,53.154L78.909,48.762L79.273,44.45L79.636,40.248L80,36.188L80.364,32.303L80.727,28.633L81.091,25.215L81.455,22.093L81.818,19.308L82.182,16.907L82.545,14.932L82.909,13.429L83.273,12.44L83.636,12.002L84,12.151L84.364,12.914L84.727,14.311L85.091,16.353L85.455,19.039L85.818,22.359L86.182,26.287L86.545,30.79L86.909,35.818L87.273,41.313L87.636,47.211L88,53.436L88.364,59.911L88.727,66.558L89.091,73.298L89.455,80.057L89.818,86.766L90.182,93.362L90.545,99.791L90.909,106.008L91.273,111.975L91.636,117.664L92,123.054L92.364,128.132L92.727,132.891L93.091,137.328L93.455,141.446L93.818,145.251L94.182,148.75L94.545,151.956L94.909,154.878L95.273,157.53L95.636,159.924L96,162.073L96.364,163.99L96.727,165.687L97.091,167.175L97.455,168.466L97.818,169.569L98.182,170.495L98.545,171.252L98.909,171.847L99.273,172.289L99.636,172.583L100,172.736L100.364,172.753L100.727,172.639L101.091,172.397L101.455,172.031L101.818,171.545L102.182,170.941L102.545,170.221L102.909,169.387L103.273,168.441L103.636,167.383L104,166.215L104.364,164.937L104.727,163.549L105.091,162.052L105.455,160.446L105.818,158.73L106.182,156.904L106.545,154.968L106.909,152.92L107.273,150.761L107.636,148.489L108,146.105L108.364,143.607L108.727,140.994L109.091,138.267L109.455,135.424L109.818,132.466L110.182,129.393L110.545,126.205L110.909,122.902L111.273,119.485L111.636,115.956L112,112.318L112.364,108.571L112.727,104.72L113.091,100.769L113.455,96.722L113.818,92.585L114.182,88.366L114.545,84.072L114.909,79.714L115.273,75.302L115.636,70.85L116,66.372L116.364,61.885L116.727,57.408L117.091,52.963L117.455,48.573L117.818,44.266L118.182,40.069L118.545,36.016L118.909,32.14L119.273,28.48L119.636,25.074L120,21.965L120.364,19.196L120.727,16.812L121.091,14.857L121.455,13.376L121.818,12.409L122.182,11.996L122.545,12.171L122.909,12.961L123.273,14.386L123.636,16.456L124,19.17L124.364,22.516L124.727,26.47L125.091,30.996L125.455,36.046L125.818,41.561L126.182,47.473L126.545,53.711L126.909,60.195L127.273,66.848L127.636,73.59L128,80.349L128.364,87.054L128.727,93.644L129.091,100.064L129.455,106.271L129.818,112.227L130.182,117.903L130.545,123.28L130.909,128.344L131.273,133.089L131.636,137.512L132,141.617L132.364,145.408L132.727,148.895L133.091,152.088L133.455,154.998L133.818,157.639L134.182,160.022L134.545,162.161L134.909,164.068L135.273,165.756L135.636,167.235L136,168.518L136.364,169.613L136.727,170.531L137.091,171.281L137.455,171.869L137.818,172.304L138.182,172.592L138.545,172.74L138.909,172.751L139.273,172.631L139.636,172.384L140,172.013L140.364,171.522L140.727,170.912L141.091,170.187L141.455,169.349L141.818,168.397L142.182,167.335L142.545,166.162L142.909,164.879L143.273,163.487L143.636,161.985L144,160.374L144.364,158.653L144.727,156.823L145.091,154.881L145.455,152.829L145.818,150.665L146.182,148.389L146.545,145.999L146.909,143.496L147.273,140.879L147.636,138.146L148,135.299L148.364,132.336L148.727,129.258L149.091,126.064L149.455,122.756L149.818,119.335L150.182,115.802L150.545,112.158L150.909,108.407L151.273,104.551L151.636,100.596L152,96.545L152.364,92.404L152.727,88.182L153.091,83.885L153.455,79.524L153.818,75.11L154.182,70.657L154.545,66.178L154.909,61.691L155.273,57.215L155.636,52.772L156,48.385L156.364,44.082L156.727,39.891L157.091,35.844L157.455,31.977L157.818,28.327L158.182,24.933L158.545,21.838L158.909,19.085L159.273,16.718L159.636,14.783L160,13.323L160.364,12.38L160.727,11.992L161.091,12.192L161.455,13.01L161.818,14.462L162.182,16.56L162.545,19.301L162.909,22.675L163.273,26.655L163.636,31.204L164,36.275L164.364,41.808L164.727,47.737L165.091,53.986L165.455,60.48L165.818,67.138L166.182,73.882L166.545,80.64L166.909,87.341L167.273,93.925L167.636,100.337L168,106.534L168.364,112.478L168.727,118.142L169.091,123.505L169.455,128.556L169.818,133.287L170.182,137.696L170.545,141.787L170.909,145.565L171.273,149.039L171.636,152.219L172,155.118L172.364,157.747L172.727,160.119L173.091,162.248L173.455,164.145L173.818,165.824L174.182,167.295L174.545,168.569L174.909,169.656L175.273,170.567L175.636,171.309L176,171.891L176.364,172.32L176.727,172.602L177.091,172.743L177.455,172.748L177.818,172.623L178.182,172.37L178.545,171.994L178.909,171.498L179.273,170.883L179.636,170.154L180,169.31L180.364,168.354L180.727,167.286L181.091,166.109L181.455,164.821L181.818,163.424L182.182,161.918L182.545,160.302L182.909,158.577L183.273,156.741L183.636,154.795L184,152.738L184.364,150.569L184.727,148.288L185.091,145.893L185.455,143.385L185.818,140.763L186.182,138.026L186.545,135.173L186.909,132.205L187.273,129.122L187.636,125.924L188,122.611L188.364,119.185L188.727,115.646L189.091,111.998L189.455,108.242L189.818,104.383L190.182,100.423L190.545,96.368L190.909,92.224L191.273,87.997L191.636,83.698L192,79.334L192.364,74.919L192.727,70.463L193.091,65.984L193.455,61.497L193.818,57.022L194.182,52.581L194.545,48.197L194.909,43.898L195.273,39.713L195.636,35.673L196,31.815L196.364,28.175L196.727,24.793L197.091,21.712L197.455,18.974L197.818,16.626L198.182,14.71L198.545,13.271L198.909,12.351L199.273,11.988L199.636,12.215L200,13.059L200.364,14.539L200.727,16.665L201.091,19.434L201.455,22.834L201.818,26.84L202.182,31.413L202.545,36.505L202.909,42.057L203.273,48.001L203.636,54.263L204,60.765L204.364,67.428L204.727,74.175L205.091,80.931L205.455,87.629L205.818,94.206L206.182,100.61L206.545,106.796L206.909,112.728L207.273,118.38L207.636,123.73L208,128.767L208.364,133.484L208.727,137.88L209.091,141.957L209.455,145.721L209.818,149.182L210.182,152.35L210.545,155.237L210.909,157.855L211.273,160.216L211.636,162.335L212,164.222L212.364,165.892L212.727,167.354L213.091,168.619L213.455,169.699L213.818,170.602L214.182,171.338L214.545,171.913L214.909,172.335L215.273,172.611L215.636,172.746L216,172.745L216.364,172.614L216.727,172.356L217.091,171.975L217.455,171.473L217.818,170.854L218.182,170.119L218.545,169.271L218.909,168.31L219.273,167.238L219.636,166.055L220,164.763L220.364,163.361L220.727,161.85L221.091,160.23L221.455,158.5L221.818,156.659L222.182,154.708L222.545,152.647L222.909,150.473L223.273,148.187L223.636,145.787L224,143.274L224.364,140.647L224.727,137.905L225.091,135.047L225.455,132.074L225.818,128.986L226.182,125.783L226.545,122.465L226.909,119.034L227.273,115.491L227.636,111.838L228,108.078L228.364,104.213L228.727,100.249L229.091,96.19L229.455,92.043L229.818,87.813L230.182,83.51L230.545,79.145L230.909,74.727L231.273,70.27L231.636,65.79L232,61.303L232.364,56.83L232.727,52.39L233.091,48.01L233.455,43.715L233.818,39.535L234.182,35.503L234.545,31.653L234.909,28.023L235.273,24.653L235.636,21.586L236,18.865L236.364,16.534L236.727,14.638L237.091,13.22L237.455,12.324L237.818,11.985L238.182,12.238L238.545,13.11L238.909,14.618L239.273,16.771L239.636,19.568L240,22.995L240.364,27.026L240.727,31.623L241.091,36.736L241.455,42.306L241.818,48.265L242.182,54.539L242.545,61.05L242.909,67.718L243.273,74.467L243.636,81.222L244,87.916L244.364,94.487L244.727,100.882L245.091,107.058L245.455,112.979L245.818,118.617L246.182,123.954L246.545,128.978L246.909,133.681L247.273,138.062L247.636,142.126L248,145.877L248.364,149.325L248.727,152.481L249.091,155.355L249.455,157.962L249.818,160.313L250.182,162.421L250.545,164.299L250.909,165.959L251.273,167.412L251.636,168.67L252,169.742L252.364,170.638L252.727,171.366L253.091,171.934L253.455,172.35L253.818,172.619L254.182,172.749L254.545,172.743L254.909,172.606L255.273,172.342L255.636,171.956L256,171.449L256.364,170.825L256.727,170.085L257.091,169.232L257.455,168.266L257.818,167.189L258.182,166.002L258.545,164.705L258.909,163.298L259.273,161.783L259.636,160.157L260,158.422L260.364,156.577L260.727,154.622L261.091,152.555L261.455,150.376L261.818,148.085L262.182,145.681L262.545,143.163L262.909,140.531L263.273,137.784L263.636,134.921L264,131.943L264.364,128.85L264.727,125.642L265.091,122.319L265.455,118.883L265.818,115.335L266.182,111.678L266.545,107.913L266.909,104.044L267.273,100.076L267.636,96.013L268,91.861L268.364,87.629L268.727,83.323L269.091,78.955L269.455,74.535L269.818,70.077L270.182,65.596L270.545,61.11L270.909,56.637L271.273,52.2L271.636,47.822L272,43.532L272.364,39.357L272.727,35.332L273.091,31.491L273.455,27.872L273.818,24.514L274.182,21.461L274.545,18.756L274.909,16.442L275.273,14.566L275.636,13.171L276,12.297L276.364,11.984L276.727,12.263L277.091,13.162L277.455,14.698L277.818,16.879L278.182,19.704L278.545,23.157L278.909,27.213L279.273,31.833L279.636,36.968L280,42.556L280.364,48.53L280.727,54.816L281.091,61.335L281.455,68.009L281.818,74.759L282.182,81.513L282.545,88.203L282.909,94.767L283.273,101.154L283.636,107.319L284,113.228L284.364,118.854L284.727,124.178L285.091,129.187L285.455,133.877L285.818,138.244L286.182,142.294L286.545,146.032L286.909,149.467L287.273,152.611L287.636,155.473L288,158.069L288.364,160.409L288.727,162.507L289.091,164.375L289.455,166.026L289.818,167.471L290.182,168.72L290.545,169.784L290.909,170.672L291.273,171.394L291.636,171.955L292,172.364L292.364,172.628L292.727,172.751L293.091,172.739L293.455,172.597L293.818,172.328L294.182,171.936L294.545,171.425L294.909,170.795L295.273,170.051L295.636,169.192L296,168.222L296.364,167.14L296.727,165.948L297.091,164.646L297.455,163.235L297.818,161.715L298.182,160.085L298.545,158.345L298.909,156.495L299.273,154.535L299.636,152.463L300,150.28L300.364,147.984L300.727,145.575L301.091,143.052L301.455,140.415L301.818,137.662L302.182,134.795L302.545,131.812L302.909,128.714L303.273,125.501L303.636,122.173L304,118.732L304.364,115.18L304.727,111.517L305.091,107.748L305.455,103.875L305.818,99.902L306.182,95.835L306.545,91.68L306.909,87.444L307.273,83.136L307.636,78.765L308,74.343L308.364,69.884L308.727,65.402L309.091,60.916L309.455,56.444L309.818,52.009L310.182,47.635L310.545,43.349L310.909,39.18L311.273,35.162L311.636,31.33L312,27.721L312.364,24.376L312.727,21.337L313.091,18.647L313.455,16.352L313.818,14.496L314.182,13.122L314.545,12.272L314.909,11.983L315.273,12.289L315.636,13.215L316,14.778L316.364,16.988L316.727,19.84L317.091,23.32L317.455,27.401L317.818,32.045L318.182,37.2L318.545,42.807L318.909,48.796L319.273,55.094L319.636,61.621L320,68.299L320.364,75.052L320.727,81.804L321.091,88.489L321.455,95.047L321.818,101.425L322.182,107.58L322.545,113.477L322.909,119.091L323.273,124.401L323.636,129.397L324,134.072L324.364,138.426L324.727,142.462L325.091,146.187L325.455,149.609L325.818,152.74L326.182,155.591L326.545,158.175L326.909,160.504L327.273,162.592L327.636,164.451L328,166.092L328.364,167.529L328.727,168.77L329.091,169.826L329.455,170.707L329.818,171.421L330.182,171.976L330.545,172.379L330.909,172.636L331.273,172.753L331.636,172.736L332,172.588L332.364,172.314L332.727,171.917L333.091,171.4L333.455,170.765L333.818,170.016L334.182,169.153L334.545,168.177L334.909,167.091L335.273,165.894L335.636,164.588L336,163.172L336.364,161.646L336.727,160.012L337.091,158.267L337.455,156.413L337.818,154.447L338.182,152.371L338.545,150.183L338.909,147.882L339.273,145.468L339.636,142.94L340,140.298L340.364,137.541L340.727,134.668L341.091,131.681L341.455,128.577L341.818,125.359L342.182,122.027L342.545,118.581L342.909,115.024L343.273,111.357L343.636,107.583L344,103.705L344.364,99.728L344.727,95.658L345.091,91.499L345.455,87.259L345.818,82.948L346.182,78.575L346.545,74.151L346.909,69.691L347.273,65.209L347.636,60.722L348,56.252L348.364,51.819L348.727,47.448L349.091,43.166L349.455,39.003L349.818,34.992L350.182,31.169L350.545,27.571L350.909,24.238L351.273,21.213L351.636,18.539L352,16.262L352.364,14.426L352.727,13.074L353.091,12.247L353.455,11.984L353.818,12.316L354.182,13.269L354.545,14.861L354.909,17.098L355.273,19.977L355.636,23.484L356,27.591L356.364,32.257L356.727,37.433L357.091,43.058L357.455,49.062L357.818,55.371L358.182,61.907L358.545,68.59L358.909,75.344L359.273,82.095L359.636,88.776L360,95.326L360.364,101.696L360.727,107.84L361.091,113.726L361.455,119.326L361.818,124.623L362.182,129.605L362.545,134.267L362.909,138.607L363.273,142.629L363.636,146.341L364,149.75L364.364,152.869L364.727,155.708L365.091,158.281L365.455,160.599L365.818,162.677L366.182,164.526L366.545,166.159L366.909,167.586L367.273,168.819L367.636,169.868L368,170.741L368.364,171.448L368.727,171.996L369.091,172.393L369.455,172.644L369.818,172.755L370.182,172.732L370.545,172.579L370.909,172.299L371.273,171.897L371.636,171.375L372,170.735L372.364,169.981L372.727,169.113L373.091,168.133L373.455,167.041L373.818,165.84L374.182,164.529L374.545,163.108L374.909,161.578L375.273,159.939L375.636,158.189L376,156.33L376.364,154.36L376.727,152.279L377.091,150.086L377.455,147.78L377.818,145.361L378.182,142.828L378.545,140.181L378.909,137.419L379.273,134.542L379.636,131.549L380,128.441L380.364,125.218L380.727,121.88L381.091,118.43L381.455,114.867L381.818,111.196L382.182,107.417L382.545,103.535L382.909,99.554L383.273,95.48L383.636,91.317L384,87.074L384.364,82.76L384.727,78.384L385.091,73.959L385.455,69.497" stroke="#f58518" stroke-width="2"/></g></g><path class="foreground" aria-hidden="true" d="" display="none"/></g><g transform="translate(0,0)"><path class="background" aria-hidden="true" d="M0,0h400v250h-400Z"/><g><g class="mark-line role-mark marks" role="graphics-object" aria-roledescription="line mark container"><path aria-label="Time: 0; Population: 5; Species: predator" role="graphics-symbol" aria-roledescription="line mark" d="M0,214.286L0.364,213.567L0.727,212.746L1.091,211.817L1.455,210.773L1.818,209.607L2.182,208.31L2.545,206.876L2.909,205.295L3.273,203.558L3.636,201.658L4,199.586L4.364,197.334L4.727,194.895L5.091,192.264L5.455,189.435L5.818,186.409L6.182,183.187L6.545,179.772L6.909,176.176L7.273,172.412L7.636,168.5L8,164.465L8.364,160.339L8.727,156.159L9.091,151.969L9.455,147.816L9.818,143.751L10.182,139.826L10.545,136.096L10.909,132.613L11.273,129.424L11.636,126.574L12,124.1L12.364,122.031L12.727,120.388L13.091,119.182L13.455,118.417L13.818,118.088L14.182,118.182L14.545,118.68L14.909,119.557L15.273,120.787L15.636,122.336L16,124.174L16.364,126.264L16.727,128.574L17.091,131.072L17.455,133.724L17.818,136.501L18.182,139.375L18.545,142.32L18.909,145.313L19.273,148.332L19.636,151.358L20,154.376L20.364,157.369L20.727,160.326L21.091,163.236L21.455,166.088L21.818,168.877L22.182,171.594L22.545,174.236L22.909,176.797L23.273,179.276L23.636,181.669L24,183.976L24.364,186.194L24.727,188.325L25.091,190.368L25.455,192.324L25.818,194.193L26.182,195.976L26.545,197.675L26.909,199.291L27.273,200.826L27.636,202.282L28,203.659L28.364,204.961L28.727,206.188L29.091,207.341L29.455,208.424L29.818,209.437L30.182,210.382L30.545,211.26L30.909,212.072L31.273,212.82L31.636,213.505L32,214.127L32.364,214.686L32.727,215.185L33.091,215.622L33.455,215.998L33.818,216.312L34.182,216.565L34.545,216.756L34.909,216.883L35.273,216.946L35.636,216.944L36,216.873L36.364,216.733L36.727,216.521L37.091,216.233L37.455,215.867L37.818,215.418L38.182,214.883L38.545,214.257L38.909,213.534L39.273,212.708L39.636,211.775L40,210.725L40.364,209.554L40.727,208.251L41.091,206.811L41.455,205.223L41.818,203.48L42.182,201.573L42.545,199.493L42.909,197.233L43.273,194.786L43.636,192.145L44,189.309L44.364,186.274L44.727,183.043L45.091,179.621L45.455,176.017L45.818,172.246L46.182,168.328L46.545,164.288L46.909,160.159L47.273,155.978L47.636,151.789L48,147.638L48.364,143.578L48.727,139.661L49.091,135.94L49.455,132.468L49.818,129.294L50.182,126.46L50.545,124.003L50.909,121.952L51.273,120.327L51.636,119.14L52,118.394L52.364,118.083L52.727,118.195L53.091,118.71L53.455,119.603L53.818,120.847L54.182,122.41L54.545,124.259L54.909,126.36L55.273,128.679L55.636,131.183L56,133.841L56.364,136.623L56.727,139.501L57.091,142.448L57.455,145.443L57.818,148.462L58.182,151.489L58.545,154.506L58.909,157.498L59.273,160.453L59.636,163.36L60,166.21L60.364,168.995L60.727,171.71L61.091,174.348L61.455,176.906L61.818,179.381L62.182,181.771L62.545,184.073L62.909,186.288L63.273,188.415L63.636,190.454L64,192.406L64.364,194.271L64.727,196.051L65.091,197.747L65.455,199.359L65.818,200.891L66.182,202.343L66.545,203.717L66.909,205.015L67.273,206.239L67.636,207.39L68,208.469L68.364,209.479L68.727,210.421L69.091,211.297L69.455,212.106L69.818,212.851L70.182,213.533L70.545,214.152L70.909,214.709L71.273,215.205L71.636,215.639L72,216.013L72.364,216.324L72.727,216.575L73.091,216.763L73.455,216.887L73.818,216.948L74.182,216.942L74.545,216.869L74.909,216.726L75.273,216.51L75.636,216.219L76,215.849L76.364,215.397L76.727,214.858L77.091,214.227L77.455,213.5L77.818,212.67L78.182,211.732L78.545,210.677L78.909,209.5L79.273,208.192L79.636,206.745L80,205.151L80.364,203.401L80.727,201.486L81.091,199.399L81.455,197.131L81.818,194.675L82.182,192.027L82.545,189.182L82.909,186.138L83.273,182.899L83.636,179.469L84,175.857L84.364,172.079L84.727,168.155L85.091,164.111L85.455,159.979L85.818,155.797L86.182,151.608L86.545,147.46L86.909,143.405L87.273,139.495L87.636,135.785L88,132.325L88.364,129.164L88.727,126.345L89.091,123.905L89.455,121.872L89.818,120.267L90.182,119.099L90.545,118.372L90.909,118.08L91.273,118.209L91.636,118.741L92,119.65L92.364,120.908L92.727,122.484L93.091,124.345L93.455,126.456L93.818,128.783L94.182,131.295L94.545,133.959L94.909,136.746L95.273,139.627L95.636,142.577L96,145.573L96.364,148.593L96.727,151.62L97.091,154.636L97.455,157.626L97.818,160.58L98.182,163.485L98.545,166.332L98.909,169.114L99.273,171.825L99.636,174.46L100,177.015L100.364,179.486L100.727,181.872L101.091,184.171L101.455,186.382L101.818,188.505L102.182,190.541L102.545,192.489L102.909,194.35L103.273,196.126L103.636,197.818L104,199.427L104.364,200.955L104.727,202.404L105.091,203.775L105.455,205.07L105.818,206.29L106.182,207.438L106.545,208.514L106.909,209.522L107.273,210.461L107.636,211.333L108,212.14L108.364,212.882L108.727,213.561L109.091,214.177L109.455,214.732L109.818,215.225L110.182,215.657L110.545,216.027L110.909,216.337L111.273,216.584L111.636,216.769L112,216.891L112.364,216.949L112.727,216.94L113.091,216.864L113.455,216.718L113.818,216.499L114.182,216.205L114.545,215.831L114.909,215.376L115.273,214.833L115.636,214.198L116,213.466L116.364,212.632L116.727,211.689L117.091,210.629L117.455,209.446L117.818,208.132L118.182,206.679L118.545,205.079L118.909,203.322L119.273,201.4L119.636,199.305L120,197.029L120.364,194.565L120.727,191.908L121.091,189.054L121.455,186.003L121.818,182.755L122.182,179.316L122.545,175.697L122.909,171.913L123.273,167.983L123.636,163.934L124,159.799L124.364,155.616L124.727,151.428L125.091,147.283L125.455,143.233L125.818,139.33L126.182,135.63L126.545,132.182L126.909,129.035L127.273,126.232L127.636,123.809L128,121.794L128.364,120.207L128.727,119.058L129.091,118.35L129.455,118.077L129.818,118.224L130.182,118.773L130.545,119.698L130.909,120.97L131.273,122.559L131.636,124.431L132,126.552L132.364,128.888L132.727,131.407L133.091,134.077L133.455,136.868L133.818,139.753L134.182,142.706L134.545,145.703L134.909,148.724L135.273,151.75L135.636,154.766L136,157.755L136.364,160.706L136.727,163.609L137.091,166.454L137.455,169.233L137.818,171.941L138.182,174.572L138.545,177.123L138.909,179.591L139.273,181.973L139.636,184.268L140,186.476L140.364,188.595L140.727,190.627L141.091,192.571L141.455,194.429L141.818,196.201L142.182,197.889L142.545,199.495L142.909,201.02L143.273,202.465L143.636,203.832L144,205.124L144.364,206.341L144.727,207.486L145.091,208.559L145.455,209.564L145.818,210.5L146.182,211.369L146.545,212.173L146.909,212.913L147.273,213.589L147.636,214.203L148,214.755L148.364,215.245L148.727,215.674L149.091,216.042L149.455,216.349L149.818,216.593L150.182,216.776L150.545,216.895L150.909,216.95L151.273,216.938L151.636,216.859L152,216.71L152.364,216.488L152.727,216.19L153.091,215.813L153.455,215.354L153.818,214.807L154.182,214.169L154.545,213.433L154.909,212.594L155.273,211.645L155.636,210.581L156,209.392L156.364,208.073L156.727,206.613L157.091,205.006L157.455,203.242L157.818,201.313L158.182,199.21L158.545,196.926L158.909,194.454L159.273,191.789L159.636,188.927L160,185.866L160.364,182.61L160.727,179.163L161.091,175.537L161.455,171.746L161.818,167.81L162.182,163.757L162.545,159.619L162.909,155.435L163.273,151.247L163.636,147.106L164,143.061L164.364,139.166L164.727,135.475L165.091,132.039L165.455,128.906L165.818,126.119L166.182,123.713L166.545,121.717L166.909,120.148L167.273,119.019L167.636,118.33L168,118.074L168.364,118.239L168.727,118.805L169.091,119.746L169.455,121.033L169.818,122.634L170.182,124.518L170.545,126.649L170.909,128.994L171.273,131.52L171.636,134.195L172,136.991L172.364,139.879L172.727,142.834L173.091,145.833L173.455,148.855L173.818,151.881L174.182,154.895L174.545,157.883L174.909,160.833L175.273,163.733L175.636,166.575L176,169.351L176.364,172.056L176.727,174.684L177.091,177.232L177.455,179.696L177.818,182.074L178.182,184.365L178.545,186.569L178.909,188.685L179.273,190.712L179.636,192.653L180,194.507L180.364,196.276L180.727,197.96L181.091,199.562L181.455,201.084L181.818,202.525L182.182,203.89L182.545,205.178L182.909,206.392L183.273,207.534L183.636,208.604L184,209.605L184.364,210.539L184.727,211.405L185.091,212.206L185.455,212.943L185.818,213.617L186.182,214.228L186.545,214.777L186.909,215.265L187.273,215.691L187.636,216.056L188,216.36L188.364,216.603L188.727,216.782L189.091,216.899L189.455,216.951L189.818,216.936L190.182,216.854L190.545,216.702L190.909,216.476L191.273,216.175L191.636,215.795L192,215.332L192.364,214.782L192.727,214.139L193.091,213.399L193.455,212.555L193.818,211.602L194.182,210.532L194.545,209.338L194.909,208.012L195.273,206.547L195.636,204.933L196,203.162L196.364,201.226L196.727,199.115L197.091,196.823L197.455,194.343L197.818,191.669L198.182,188.798L198.545,185.73L198.909,182.465L199.273,179.01L199.636,175.376L200,171.578L200.364,167.637L200.727,163.58L201.091,159.439L201.455,155.254L201.818,151.067L202.182,146.928L202.545,142.889L202.909,139.002L203.273,135.321L203.636,131.897L204,128.778L204.364,126.007L204.727,123.618L205.091,121.64L205.455,120.09L205.818,118.98L206.182,118.31L206.545,118.073L206.909,118.256L207.273,118.838L207.636,119.794L208,121.096L208.364,122.71L208.727,124.605L209.091,126.746L209.455,129.099L209.818,131.632L210.182,134.314L210.545,137.114L210.909,140.006L211.273,142.963L211.636,145.963L212,148.986L212.364,152.012L212.727,155.025L213.091,158.012L213.455,160.959L213.818,163.857L214.182,166.696L214.545,169.47L214.909,172.171L215.273,174.796L215.636,177.34L216,179.8L216.364,182.175L216.727,184.462L217.091,186.662L217.455,188.774L217.818,190.798L218.182,192.735L218.545,194.585L218.909,196.35L219.273,198.031L219.636,199.63L220,201.148L220.364,202.586L220.727,203.947L221.091,205.232L221.455,206.443L221.818,207.581L222.182,208.649L222.545,209.647L222.909,210.577L223.273,211.441L223.636,212.24L224,212.974L224.364,213.645L224.727,214.253L225.091,214.799L225.455,215.284L225.818,215.708L226.182,216.071L226.545,216.372L226.909,216.612L227.273,216.789L227.636,216.902L228,216.951L228.364,216.934L228.727,216.849L229.091,216.694L229.455,216.465L229.818,216.161L230.182,215.777L230.545,215.31L230.909,214.756L231.273,214.109L231.636,213.364L232,212.516L232.364,211.558L232.727,210.483L233.091,209.284L233.455,207.952L233.818,206.48L234.182,204.86L234.545,203.082L234.909,201.138L235.273,199.02L235.636,196.72L236,194.232L236.364,191.549L236.727,188.67L237.091,185.593L237.455,182.319L237.818,178.857L238.182,175.216L238.545,171.411L238.909,167.464L239.273,163.402L239.636,159.259L240,155.072L240.364,150.887L240.727,146.751L241.091,142.717L241.455,138.838L241.818,135.167L242.182,131.756L242.545,128.651L242.909,125.896L243.273,123.524L243.636,121.564L244,120.033L244.364,118.942L244.727,118.291L245.091,118.072L245.455,118.273L245.818,118.872L246.182,119.844L246.545,121.159L246.909,122.786L247.273,124.693L247.636,126.843L248,129.205L248.364,131.745L248.727,134.433L249.091,137.237L249.455,140.132L249.818,143.092L250.182,146.094L250.545,149.116L250.909,152.142L251.273,155.155L251.636,158.14L252,161.085L252.364,163.981L252.727,166.818L253.091,169.588L253.455,172.286L253.818,174.908L254.182,177.448L254.545,179.905L254.909,182.275L255.273,184.559L255.636,186.755L256,188.863L256.364,190.884L256.727,192.816L257.091,194.663L257.455,196.424L257.818,198.102L258.182,199.697L258.545,201.211L258.909,202.646L259.273,204.004L259.636,205.286L260,206.494L260.364,207.629L260.727,208.693L261.091,209.689L261.455,210.616L261.818,211.477L262.182,212.273L262.545,213.004L262.909,213.672L263.273,214.278L263.636,214.822L264,215.304L264.364,215.725L264.727,216.085L265.091,216.384L265.455,216.621L265.818,216.795L266.182,216.906L266.545,216.952L266.909,216.932L267.273,216.844L267.636,216.685L268,216.454L268.364,216.146L268.727,215.759L269.091,215.288L269.455,214.73L269.818,214.079L270.182,213.33L270.545,212.477L270.909,211.514L271.273,210.434L271.636,209.229L272,207.891L272.364,206.413L272.727,204.786L273.091,203.001L273.455,201.05L273.818,198.924L274.182,196.616L274.545,194.12L274.909,191.429L275.273,188.541L275.636,185.455L276,182.174L276.364,178.703L276.727,175.054L277.091,171.243L277.455,167.291L277.818,163.225L278.182,159.079L278.545,154.891L278.909,150.707L279.273,146.575L279.636,142.546L280,138.675L280.364,135.014L280.727,131.615L281.091,128.525L281.455,125.785L281.818,123.431L282.182,121.489L282.545,119.977L282.909,118.905L283.273,118.272L283.636,118.072L284,118.291L284.364,118.906L284.727,119.894L285.091,121.223L285.455,122.863L285.818,124.781L286.182,126.941L286.545,129.312L286.909,131.859L287.273,134.552L287.636,137.361L288,140.259L288.364,143.221L288.727,146.224L289.091,149.247L289.455,152.273L289.818,155.284L290.182,158.268L290.545,161.212L290.909,164.105L291.273,166.939L291.636,169.706L292,172.401L292.364,175.019L292.727,177.556L293.091,180.009L293.455,182.376L293.818,184.656L294.182,186.848L294.545,188.952L294.909,190.969L295.273,192.898L295.636,194.741L296,196.499L296.364,198.173L296.727,199.764L297.091,201.275L297.455,202.707L297.818,204.061L298.182,205.34L298.545,206.544L298.909,207.676L299.273,208.738L299.636,209.73L300,210.655L300.364,211.513L300.727,212.305L301.091,213.034L301.455,213.7L301.818,214.303L302.182,214.844L302.545,215.323L302.909,215.742L303.273,216.099L303.636,216.395L304,216.629L304.364,216.801L304.727,216.909L305.091,216.953L305.455,216.93L305.818,216.838L306.182,216.677L306.545,216.442L306.909,216.131L307.273,215.74L307.636,215.266L308,214.704L308.364,214.048L308.727,213.295L309.091,212.438L309.455,211.47L309.818,210.384L310.182,209.174L310.545,207.831L310.909,206.346L311.273,204.713L311.636,202.921L312,200.962L312.364,198.829L312.727,196.513L313.091,194.008L313.455,191.308L313.818,188.412L314.182,185.317L314.545,182.028L314.909,178.549L315.273,174.893L315.636,171.075L316,167.117L316.364,163.047L316.727,158.898L317.091,154.71L317.455,150.527L317.818,146.398L318.182,142.375L318.545,138.512L318.909,134.861L319.273,131.475L319.636,128.399L320,125.675L320.364,123.338L320.727,121.414L321.091,119.922L321.455,118.868L321.818,118.255L322.182,118.073L322.545,118.309L322.909,118.941L323.273,119.944L323.636,121.288L324,122.941L324.364,124.869L324.727,127.04L325.091,129.418L325.455,131.972L325.818,134.671L326.182,137.484L326.545,140.386L326.909,143.35L327.273,146.354L327.636,149.378L328,152.403L328.364,155.414L328.727,158.396L329.091,161.338L329.455,164.229L329.818,167.06L330.182,169.824L330.545,172.516L330.909,175.13L331.273,177.664L331.636,180.113L332,182.476L332.364,184.753L332.727,186.941L333.091,189.041L333.455,191.054L333.818,192.979L334.182,194.819L334.545,196.573L334.909,198.243L335.273,199.831L335.636,201.338L336,202.767L336.364,204.118L336.727,205.393L337.091,206.595L337.455,207.724L337.818,208.782L338.182,209.771L338.545,210.693L338.909,211.548L339.273,212.338L339.636,213.064L340,213.727L340.364,214.327L340.727,214.866L341.091,215.343L341.455,215.759L341.818,216.113L342.182,216.407L342.545,216.638L342.909,216.807L343.273,216.912L343.636,216.953L344,216.927L344.364,216.833L344.727,216.668L345.091,216.43L345.455,216.116L345.818,215.721L346.182,215.243L346.545,214.677L346.909,214.018L347.273,213.26L347.636,212.398L348,211.425L348.364,210.335L348.727,209.119L349.091,207.769L349.455,206.279L349.818,204.638L350.182,202.839L350.545,200.874L350.909,198.732L351.273,196.408L351.636,193.895L352,191.187L352.364,188.282L352.727,185.179L353.091,181.881L353.455,178.395L353.818,174.731L354.182,170.907L354.545,166.943L354.909,162.869L355.273,158.718L355.636,154.529L356,150.347L356.364,146.222L356.727,142.205L357.091,138.35L357.455,134.709L357.818,131.335L358.182,128.273L358.545,125.566L358.909,123.246L359.273,121.341L359.636,119.867L360,118.833L360.364,118.238L360.727,118.075L361.091,118.329L361.455,118.977L361.818,119.995L362.182,121.353L362.545,123.019L362.909,124.958L363.273,127.138L363.636,129.525L364,132.086L364.364,134.79L364.727,137.608L365.091,140.513L365.455,143.479L365.818,146.485L366.182,149.509L366.545,152.534L366.909,155.544L367.273,158.524L367.636,161.464L368,164.352L368.364,167.181L368.727,169.942L369.091,172.631L369.455,175.241L369.818,177.771L370.182,180.217L370.545,182.576L370.909,184.849L371.273,187.034L371.636,189.13L372,191.139L372.364,193.061L372.727,194.896L373.091,196.647L373.455,198.313L373.818,199.898L374.182,201.402L374.545,202.827L374.909,204.174L375.273,205.447L375.636,206.645L376,207.771L376.364,208.826L376.727,209.813L377.091,210.731L377.455,211.584L377.818,212.371L378.182,213.094L378.545,213.754L378.909,214.352L379.273,214.888L379.636,215.362L380,215.775L380.364,216.127L380.727,216.418L381.091,216.647L381.455,216.813L381.818,216.916L382.182,216.953L382.545,216.924L382.909,216.827L383.273,216.659L383.636,216.418L384,216.1L384.364,215.702L384.727,215.221L385.091,214.651L385.455,213.987" stroke="#4c78a8" stroke-width="2"/></g></g><path class="foreground" aria-hidden="true" d="" display="none"/></g></g><g class="mark-group role-legend" role="graphics-symbol" aria-roledescription="legend" aria-label="Symbol legend titled 'Species' for stroke color with 2 values: predator, prey"><g transform="translate(418,0)"><path class="background" aria-hidden="true" d="M0,0h54v40h-54Z" pointer-events="none"/><g><g class="mark-group role-legend-entry"><g transform="translate(0,16)"><path class="background" aria-hidden="true" d="M0,0h0v0h0Z" pointer-events="none"/><g><g class="mark-group role-scope" role="graphics-object" aria-roledescription="group mark container"><g transform="translate(0,0)"><path class="background" aria-hidden="true" d="M0,0h53.24609375v11h-53.24609375Z" pointer-events="none" opacity="1"/><g><g class="mark-symbol role-legend-symbol" pointer-events="none"><path transform="translate(6,6)" d="M-5,0L5,0" stroke="#4c78a8" stroke-width="1.5" opacity="1"/></g><g class="mark-text role-legend-label" pointer-events="none"><text text-anchor="start" transform="translate(16,9)" font-family="sans-serif" font-size="10px" fill="#000" opacity="1">predator</text></g></g><path class="foreground" aria-hidden="true" d="" pointer-events="none" display="none"/></g><g transform="translate(0,13)"><path class="background" aria-hidden="true" d="M0,0h53.24609375v11h-53.24609375Z" pointer-events="none" opacity="1"/><g><g class="mark-symbol role-legend-symbol" pointer-events="none"><path transform="translate(6,6)" d="M-5,0L5,0" stroke="#f58518" stroke-width="1.5" opacity="1"/></g><g class="mark-text role-legend-label" pointer-events="none"><text text-anchor="start" transform="translate(16,9)" font-family="sans-serif" font-size="10px" fill="#000" opacity="1">prey</text></g></g><path class="foreground" aria-hidden="true" d="" pointer-events="none" display="none"/></g></g></g><path class="foreground" aria-hidden="true" d="" pointer-events="none" display="none"/></g></g><g class="mark-text role-legend-title" pointer-events="none"><text text-anchor="start" transform="translate(0,9)" font-family="sans-serif" font-size="11px" font-weight="bold" fill="#000" opacity="1">Species</text></g></g><path class="foreground" aria-hidden="true" d="" pointer-events="none" display="none"/></g></g><g class="mark-group role-title"><g transform="translate(200,-22)"><path class="background" aria-hidden="true" d="M0,0h0v0h0Z" pointer-events="none"/><g><g class="mark-text role-title-text" role="graphics-symbol" aria-roledescription="title" aria-label="Title text 'Population over time'" pointer-events="none"><text text-anchor="middle" transform="translate(0,10)" font-family="sans-serif" font-size="13px" font-weight="bold" fill="#000" opacity="1">Population over time</text></g></g><path class="foreground" aria-hidden="true" d="" pointer-events="none" display="none"/></g></g></g><path class="foreground" aria-hidden="true" d="" display="none"/></g></g></g></svg>