<svg xmlns="http://www.w3.org/2000/svg" xmlns:xlink="http://www.w3.org/1999/xlink" version="1.1" class="marks" width="408" height="424" viewBox="0 0 408 424"><rect width="408" height="424" fill="white"/><g fill="none" stroke-miterlimit="10" transform="translate(41,27)"><g class="mark-group role-frame root" role="graphics-object" aria-roledescription="group mark container"><g transform="translate(0,0)"><path class="background" aria-hidden="true" d="M0.5,0.5h360v360h-360Z" stroke="#ddd"/><g><g class="mark-group role-axis" aria-hidden="true"><g transform="translate(0.5,360.5)"><path class="background" aria-hidden="true" d="M0,0h0v0h0Z" pointer-events="none"/><g><g class="mark-rule role-axis-grid" pointer-events="none"><line transform="translate(0,-360)" x2="0" y2="360" stroke="#ddd" stroke-width="1" opacity="1"/><line transform="translate(36,-360)" x2="0" y2="360" stroke="#ddd" stroke-width="1" opacity="1"/><line transform="translate(72,-360)" x2="0" y2="360" stroke="#ddd" stroke-width="1" opacity="1"/><line transform="translate(108,-360)" x2="0" y2="360" stroke="#ddd" stroke-width="1" opacity="1"/><line transform="translate(144,-360)" x2="0" y2="360" stroke="#ddd" stroke-width="1" opacity="1"/><line transform="translate(180,-360)" x2="0" y2="360" stroke="#ddd" stroke-width="1" opacity="1"/><line transform="translate(216,-360)" x2="0" y2="360" stroke="#ddd" stroke-width="1" opacity="1"/><line transform="translate(252,-360)" x2="0" y2="360" stroke="#ddd" stroke-width="1" opacity="1"/><line transform="translate(288,-360)" x2="0" y2="360" stroke="#ddd" stroke-width="1" opacity="1"/><line transform="translate(324,-360)" x2="0" y2="360" stroke="#ddd" stroke-width="1" opacity="1"/><line transform="translate(360,-360)" x2="0" y2="360" stroke="#ddd" stroke-width="1" opacity="1"/></g></g><path class="foreground" aria-hidden="true" d="" pointer-events="none" display="none"/></g></g><g class="mark-group role-axis" aria-hidden="true"><g transform="translate(0.5,0.5)"><path class="background" aria-hidden="true" d="M0,0h0v0h0Z" pointer-events="none"/><g><g class="mark-rule role-axis-grid" pointer-events="none"><line transform="translate(0,360)" x2="360" y2="0" stroke="#ddd" stroke-width="1" opacity="1"/><line transform="translate(0,324)" x2="360" y2="0" stroke="#ddd" stroke-width="1" opacity="1"/><line transform="translate(0,288)" x2="360" y2="0" stroke="#ddd" stroke-width="1" opacity="1"/><line transform="translate(0,252)" x2="360" y2="0" stroke="#ddd" stroke-width="1" opacity="1"/><line transform="translate(0,216)" x2="360" y2="0" stroke="#ddd" stroke-width="1" opacity="1"/><line transform="translate(0,180)" x2="360" y2="0" stroke="#ddd" stroke-width="1" opacity="1"/><line transform="translate(0,144)" x2="360" y2="0" stroke="#ddd" stroke-width="1" opacity="1"/><line transform="translate(0,108)" x2="360" y2="0" stroke="#ddd" stroke-width="1" opacity="1"/><line transform="translate(0,72)" x2="360" y2="0" stroke="#ddd" stroke-width="1" opacity="1"/><line transform="translate(0,36)" x2="360" y2="0" stroke="#ddd" stroke-width="1" opacity="1"/><line transform="translate(0,0)" x2="360" y2="0" stroke="#ddd" stroke-width="1" opacity="1"/></g></g><path class="foreground" aria-hidden="true" d="" pointer-events="none" display="none"/></g></g><g class="mark-group role-axis" role="graphics-symbol" aria-roledescription="axis" aria-label="X-axis titled 'False alarm rate' for a linear scale with values from 0.0 to 1.0"><g transform="translate(0.5,360.5)"><path class="background" aria-hidden="true" d="M0,0h0v0h0Z" pointer-events="none"/><g><g class="mark-rule role-axis-tick" pointer-events="none"><line transform="translate(0,0)" x2="0" y2="5" stroke="#888" stroke-width="1" opacity="1"/><line transform="translate(36,0)" x2="0" y2="5" stroke="#888" stroke-width="1" opacity="1"/><line transform="translate(72,0)" x2="0" y2="5" stroke="#888" stroke-width="1" opacity="1"/><line transform="translate(108,0)" x2="0" y2="5" stroke="#888" stroke-width="1" opacity="1"/><line transform="translate(144,0)" x2="0" y2="5" stroke="#888" stroke-width="1" opacity="1"/><line transform="translate(180,0)" x2="0" y2="5" stroke="#888" stroke-width="1" opacity="1"/><line transform="translate(216,0)" x2="0" y2="5" stroke="#888" stroke-width="1" opacity="1"/><line transform="translate(252,0)" x2="0" y2="5" stroke="#888" stroke-width="1" opacity="1"/><line transform="translate(288,0)" x2="0" y2="5" stroke="#888" stroke-width="1" opacity="1"/><line transform="translate(324,0)" x2="0" y2="5" stroke="#888" stroke-width="1" opacity="1"/><line transform="translate(360,0)" x2="0" y2="5" stroke="#888" stroke-width="1" opacity="1"/></g><g class="mark-text role-axis-label" pointer-events="none"><text text-anchor="start" transform="translate(0,15)" font-family="sans-serif" font-size="10px" fill="#000" opacity="1">0.0</text><text text-anchor="middle" transform="translate(36,15)" font-family="sans-serif" font-size="10px" fill="#000" opacity="1">0.1</text><text text-anchor="middle" transform="translate(72,15)" font-family="sans-serif" font-size="10px" fill="#000" opacity="1">0.2</text><text text-anchor="middle" transform="translate(108,15)" font-family="sans-serif" font-size="10px" fill="#000" opacity="1">0.3</text><text text-anchor="middle" transform="translate(144,15)" font-family="sans-serif" font-size="10px" fill="#000" opacity="1">0.4</text><text text-anchor="middle" transform="translate(180,15)" font-family="sans-serif" font-size="10px" fill="#000" opacity="1">0.5</text><text text-anchor="middle" transform="translate(216,15)" font-family="sans-serif" font-size="10px" fill="#000" opacity="1">0.6</text><text text-anchor="middle" transform="translate(251.99999999999997,15)" font-family="sans-serif" font-size="10px" fill="#000" opacity="1">0.7</text><text text-anchor="middle" transform="translate(288,15)" font-family="sans-serif" font-size="10px" fill="#000" opacity="1">0.8</text><text text-anchor="middle" transform="translate(324,15)" font-family="sans-serif" font-size="10px" fill="#000" opacity="1">0.9</text><text text-anchor="end" transform="translate(360,15)" font-family="sans-serif" font-size="10px" fill="#000" opacity="1">1.0</text></g><g class="mark-rule role-axis-domain" pointer-events="none"><line transform="translate(0,0)" x2="360" y2="0" stroke="#888" stroke-width="1" opacity="1"/></g><g class="mark-text role-axis-title" pointer-events="none"><text text-anchor="middle" transform="translate(180,30)" font-family="sans-serif" font-size="11px" font-weight="bold" fill="#000" opacity="1">False alarm rate</text></g></g><path class="foreground" aria-hidden="true" d="" pointer-events="none" display="none"/></g></g><g class="mark-group role-axis" role="graphics-symbol" aria-roledescription="axis" aria-label="Y-axis titled 'Hit rate' for a linear scale with values from 0.0 to 1.0"><g transform="translate(0.5,0.5)"><path class="background" aria-hidden="true" d="M0,0h0v0h0Z" pointer-events="none"/><g><g class="mark-rule role-axis-tick" pointer-events="none"><line transform="translate(0,360)" x2="-5" y2="0" stroke="#888" stroke-width="1" opacity="1"/><line transform="translate(0,324)" x2="-5" y2="0" stroke="#888" stroke-width="1" opacity="1"/><line transform="translate(0,288)" x2="-5" y2="0" stroke="#888" stroke-width="1" opacity="1"/><line transform="translate(0,252)" x2="-5" y2="0" stroke="#888" stroke-width="1" opacity="1"/><line transform="translate(0,216)" x2="-5" y2="0" stroke="#888" stroke-width="1" opacity="1"/><line transform="translate(0,180)" x2="-5" y2="0" stroke="#888" stroke-width="1" opacity="1"/><line transform="translate(0,144)" x2="-5" y2="0" stroke="#888" stroke-width="1" opacity="1"/><line transform="translate(0,108)" x2="-5" y2="0" stroke="#888" stroke-width="1" opacity="1"/><line transform="translate(0,72)" x2="-5" y2="0" stroke="#888" stroke-width="1" opacity="1"/><line transform="translate(0,36)" x2="-5" y2="0" stroke="#888" stroke-width="1" opacity="1"/><line transform="translate(0,0)" x2="-5" y2="0" stroke="#888" stroke-width="1" opacity="1"/></g><g class="mark-text role-axis-label" pointer-events="none"><text text-anchor="end" transform="translate(-7,363)" font-family="sans-serif" font-size="10px" fill="#000" opacity="1">0.0</text><text text-anchor="end" transform="translate(-7,327)" font-family="sans-serif" font-size="10px" fill="#000" opacity="1">0.1</text><text text-anchor="end" transform="translate(-7,291)" font-family="sans-serif" font-size="10px" fill="#000" opacity="1">0.2</text><text text-anchor="end" transform="translate(-7,254.99999999999997)" font-family="sans-serif" font-size="10px" fill="#000" opacity="1">0.3</text><text text-anchor="end" transform="translate(-7,219)" font-family="sans-serif" font-size="10px" fill="#000" opacity="1">0.4</text><text text-anchor="end" transform="translate(-7,183)" font-family="sans-serif" font-size="10px" fill="#000" opacity="1">0.5</text><text text-anchor="end" transform="translate(-7,147)" font-family="sans-serif" font-size="10px" fill="#000" opacity="1">0.6</text><text text-anchor="end" transform="translate(-7,111.00000000000001)" font-family="sans-serif" font-size="10px" fill="#000" opacity="1">0.7</text><text text-anchor="end" transform="translate(-7,74.99999999999999)" font-family="sans-serif" font-size="10px" fill="#000" opacity="1">0.8</text><text text-anchor="end" transform="translate(-7,38.99999999999999)" font-family="sans-serif" font-size="10px" fill="#000" opacity="1">0.9</text><text text-anchor="end" transform="translate(-7,3)" font-family="sans-serif" font-size="10px" fill="#000" opacity="1">1.0</text></g><g class="mark-rule role-axis-domain" pointer-events="none"><line transform="translate(0,360)" x2="0" y2="-360" stroke="#888" stroke-width="1" opacity="1"/></g><g class="mark-text role-axis-title" pointer-events="none"><text text-anchor="middle" transform="translate(-24.9013671875,180) rotate(-90) translate(0,-2)" font-family="sans-serif" font-size="11px" font-weight="bold" fill="#000" opacity="1">Hit rate</text></g></g><path class="foreground" aria-hidden="true" d="" pointer-events="none" display="none"/></g></g><g class="mark-line role-mark layer_0_marks" role="graphics-object" aria-roledescription="line mark container"><path aria-label="False alarm rate: 0.0000316712418331; Hit rate: 0.0040124485276" role="graphics-symbol" aria-roledescription="line mark" d="M0.011,358.556L0.014,358.374L0.016,358.173L0.019,357.949L0.022,357.702L0.026,357.429L0.031,357.127L0.036,356.795L0.042,356.429L0.049,356.028L0.058,355.588L0.067,355.106L0.078,354.58L0.091,354.005L0.106,353.38L0.123,352.699L0.142,351.96L0.164,351.16L0.189,350.293L0.218,349.356L0.251,348.346L0.288,347.257L0.33,346.087L0.378,344.83L0.433,343.484L0.494,342.042L0.563,340.503L0.641,338.86L0.729,337.111L0.827,335.251L0.937,333.277L1.06,331.185L1.198,328.971L1.352,326.633L1.523,324.166L1.713,321.569L1.924,318.839L2.157,315.973L2.416,312.97L2.702,309.829L3.017,306.548L3.363,303.126L3.744,299.563L4.163,295.86L4.621,292.017L5.122,288.036L5.669,283.917L6.266,279.663L6.915,275.278L7.621,270.763L8.387,266.122L9.217,261.361L10.114,256.483L11.083,251.495L12.128,246.4L13.252,241.207L14.46,235.921L15.756,230.549L17.145,225.099L18.629,219.578L20.214,213.995L21.903,208.359L23.701,202.677L25.611,196.959L27.637,191.213L29.783,185.45L32.052,179.677L34.447,173.906L36.971,168.144L39.627,162.401L42.417,156.686L45.343,151.009L48.408,145.378L51.611,139.802L54.955,134.289L58.439,128.847L62.064,123.484L65.829,118.208L69.734,113.025L73.777,107.943L77.956,102.966L82.268,98.101L86.712,93.353L91.283,88.727L95.978,84.226L100.791,79.855L105.719,75.616L110.755,71.513L115.894,67.546L121.13,63.719L126.455,60.032L131.863,56.485L137.345,53.079L142.894,49.813L148.502,46.687L154.16,43.7L159.859,40.849L165.59,38.134L171.345,35.552L177.113,33.1L182.887,30.775L188.655,28.575L194.41,26.497L200.141,24.535L205.84,22.688L211.498,20.951L217.106,19.32L222.655,17.792L228.137,16.361L233.545,15.025L238.87,13.778L244.106,12.617L249.245,11.538L254.281,10.536L259.209,9.607L264.022,8.748L268.717,7.954L273.288,7.222L277.732,6.548L282.044,5.928L286.223,5.359L290.266,4.838L294.171,4.361L297.936,3.925L301.561,3.528L305.045,3.166L308.389,2.838L311.592,2.539L314.657,2.269L317.583,2.025L320.373,1.804L323.029,1.605L325.553,1.425L327.948,1.264L330.217,1.12L332.363,0.99L334.389,0.874L336.299,0.771L338.097,0.679L339.786,0.597L341.371,0.524L342.855,0.459L344.244,0.402L345.54,0.351L346.748,0.306L347.872,0.267L348.917,0.232L349.886,0.202L350.783,0.175L351.613,0.151L352.379,0.131L353.085,0.113L353.734,0.097L354.331,0.084L354.878,0.072L355.379,0.062L355.837,0.053L356.256,0.045L356.637,0.039L356.983,0.033L357.298,0.028L357.584,0.024L357.843,0.02L358.076,0.017L358.287,0.015L358.477,0.012L358.648,0.01L358.802,0.009L358.94,0.007L359.063,0.006L359.173,0.005L359.271,0.004L359.359,0.004L359.437,0.003L359.506,0.003L359.567,0.002L359.622,0.002L359.67,0.001L359.712,0.001L359.749,0.001L359.782,0.001L359.811,0.001L359.836,0.001L359.858,0L359.877,0L359.894,0L359.909,0L359.922,0L359.933,0L359.942,0L359.951,0L359.958,0L359.964,0L359.969,0L359.974,0L359.978,0L359.981,0L359.984,0L359.986,0L359.989,0" stroke="steelblue" stroke-width="2"/></g><g class="mark-line role-mark layer_1_marks" role="graphics-object" aria-roledescription="line mark container"><path aria-label="False alarm rate: 0; Hit rate: 0" role="graphics-symbol" aria-roledescription="line mark" d="M0,360L360,0" stroke="gray" stroke-width="2" stroke-dasharray="4,4"/></g><g class="mark-symbol role-mark layer_2_marks" role="graphics-object" aria-roledescription="symbol mark container"><path aria-label="False alarm rate: 0.25; Hit rate: 0.75" role="graphics-symbol" aria-roledescription="point" transform="translate(90,90)" d="M5.477,0A5.477,5.477,0,1,1,-5.477,0A5.477,5.477,0,1,1,5.477,0" fill="firebrick" stroke-width="2" opacity="0.7"/></g><g class="mark-group role-title"><g transform="translate(180,-22)"><path class="background" aria-hidden="true" d="M0,0h0v0h0Z" pointer-events="none"/><g><g class="mark-text role-title-text" role="graphics-symbol" aria-roledescription="title" aria-label="Title text 'ROC curve  (d' = 1.35)'" pointer-events="none"><text text-anchor="middle" transform="translate(0,10)" font-family="sans-serif" font-size="13px" font-weight="bold" fill="#000" opacity="1">ROC curve  (d' = 1.35)</text></g></g><path class="foreground" aria-hidden="true" d="" pointer-events="none" display="none"/></g></g></g><path class="foreground" aria-hidden="true" d="" display="none"/></g></g></g></svg>