<svg class="main-svg" xmlns="http://www.w3.org/2000/svg" xmlns:xlink="http://www.w3.org/1999/xlink" width="700" height="500" style="" viewBox="0 0 700 500"><rect x="0" y="0" width="700" height="500" style="fill: rgb(255, 255, 255); fill-opacity: 1;"/><defs id="defs-667cdf"><g class="clips"><clipPath id="clip667cdfxyplot" class="plotclip"><rect width="529" height="360"/></clipPath><clipPath class="axesclip" id="clip667cdfx"><rect x="80" y="0" width="529" height="500"/></clipPath><clipPath class="axesclip" id="clip667cdfy"><rect x="0" y="60" width="700" height="360"/></clipPath><clipPath class="axesclip" id="clip667cdfxy"><rect x="80" y="60" width="529" height="360"/></clipPath></g><g class="gradients"/><g class="patterns"/></defs><g class="bglayer"><rect class="bg" x="80" y="60" width="529" height="360" style="fill: rgb(229, 236, 246); fill-opacity: 1; stroke-width: 0;"/></g><g class="layer-below"><g class="imagelayer"/><g class="shapelayer"/></g><g class="cartesianlayer"><g class="subplot xy"><g class="layer-subplot"><g class="shapelayer"/><g class="imagelayer"/></g><g class="minor-gridlayer"><g class="x"/><g class="y"/></g><g class="gridlayer"><g class="x"><path class="xgrid crisp" transform="translate(185.53,0)" d="M0,60v360" style="stroke: rgb(255, 255, 255); stroke-opacity: 1; stroke-width: 1px;"/><path class="xgrid crisp" transform="translate(291.64,0)" d="M0,60v360" style="stroke: rgb(255, 255, 255); stroke-opacity: 1; stroke-width: 1px;"/><path class="xgrid crisp" transform="translate(397.75,0)" d="M0,60v360" style="stroke: rgb(255, 255, 255); stroke-opacity: 1; stroke-width: 1px;"/><path class="xgrid crisp" transform="translate(503.85,0)" d="M0,60v360" style="stroke: rgb(255, 255, 255); stroke-opacity: 1; stroke-width: 1px;"/></g><g class="y"><path class="ygrid crisp" transform="translate(0,348)" d="M80,0h529" style="stroke: rgb(255, 255, 255); stroke-opacity: 1; stroke-width: 1px;"/><path class="ygrid crisp" transform="translate(0,294)" d="M80,0h529" style="stroke: rgb(255, 255, 255); stroke-opacity: 1; stroke-width: 1px;"/><path class="ygrid crisp" transform="translate(0,240)" d="M80,0h529" style="stroke: rgb(255, 255, 255); stroke-opacity: 1; stroke-width: 1px;"/><path class="ygrid crisp" transform="translate(0,186)" d="M80,0h529" style="stroke: rgb(255, 255, 255); stroke-opacity: 1; stroke-width: 1px;"/><path class="ygrid crisp" transform="translate(0,132)" d="M80,0h529" style="stroke: rgb(255, 255, 255); stroke-opacity: 1; stroke-width: 1px;"/><path class="ygrid crisp" transform="translate(0,78)" d="M80,0h529" style="stroke: rgb(255, 255, 255); stroke-opacity: 1; stroke-width: 1px;"/></g></g><g class="zerolinelayer"><path class="yzl zl crisp" transform="translate(0,402)" d="M80,0h529" style="stroke: rgb(255, 255, 255); stroke-opacity: 1; stroke-width: 2px;"/></g><g class="layer-between"><g class="shapelayer"/><g class="imagelayer"/></g><path class="xlines-below"/><path class="ylines-below"/><g class="overlines-below"/><g class="xaxislayer-below"/><g class="yaxislayer-below"/><g class="overaxes-below"/><g class="overplot"><g class="xy" transform="translate(80,60)" clip-path="url(#clip667cdfxyplot)"><g class="scatterlayer mlayer"><g class="trace scatter trace666297" style="stroke-miterlimit: 2; opacity: 1;"><g class="fills"/><g class="errorbars"/><g class="lines"><path class="js-line" d="M0,342L2.82,342L3.57,339.3L4.23,333.9L5.68,333.9L7.85,336.6L7.96,333.9L9.66,331.2L11.41,333.9L11.88,328.5L15.26,331.2L19.6,333.9L19.88,331.2L20.38,325.8L22.03,328.5L23.24,325.8L23.31,323.1L24.3,323.1L24.54,320.4L25.41,323.1L29.04,325.8L29.4,325.8L29.4,323.1L29.73,317.7L31.38,315L32.1,309.6L33.31,306.9L33.88,306.9L33.95,304.2L34.98,304.2L37.37,301.5L38.18,304.2L39.88,301.5L41.41,301.5L42.72,304.2L43.95,304.2L44.28,301.5L44.61,298.8L47.3,301.5L50.18,301.5L50.4,298.8L50.86,296.1L52.85,298.8L54.47,298.8L54.56,296.1L56.96,285.3L59.02,288L60.66,288L61.46,285.3L61.65,282.6L62.8,282.6L65.28,285.3L66.99,285.3L67.55,279.9L68.28,279.9L68.54,277.2L69.49,277.2L74.44,288L75.3,285.3L75.5,279.9L77.05,279.9L77.38,279.9L77.65,277.2L78.81,277.2L80.93,279.9L81.45,274.5L82.03,274.5L82.41,271.8L83.8,271.8L85.74,266.4L85.77,263.7L87.03,266.4L87.06,263.7L87.93,261L89.61,261L89.62,258.3L91.26,258.3L92.25,258.3L92.5,255.6L93.05,252.9L94.81,250.2L95.55,250.2L99.32,266.4L99.5,263.7L100.9,263.7L101.41,258.3L102.83,258.3L104.31,255.6L104.49,252.9L105.42,247.5L106.39,247.5L107.42,244.8L109.86,247.5L111.53,242.1L112.49,242.1L112.6,239.4L113.9,239.4L115.51,239.4L116.65,236.7L117.59,234L120.76,236.7L121.77,236.7L121.88,234L122.95,228.6L123,225.9L126.43,225.9L126.94,223.2L130.94,225.9L132.37,223.2L132.83,223.2L133.08,220.5L133.16,217.8L134.02,217.8L134.2,212.4L135.17,215.1L137,209.7L139.7,215.1L141.42,215.1L142.36,212.4L145.66,215.1L145.79,212.4L149.38,212.4L150.25,209.7L150.94,207L151.94,207L152.52,201.6L155.11,207L156.79,207L157.04,204.3L158.91,209.7L162.02,209.7L163.9,212.4L163.91,209.7L164.98,209.7L165.09,207L166.28,201.6L167.06,201.6L167.23,198.9L170.13,201.6L170.58,198.9L172.41,198.9L173.04,196.2L174.15,198.9L174.18,196.2L176.61,193.5L177.05,190.8L177.61,190.8L180.48,190.8L180.49,188.1L181.33,188.1L182.1,185.4L182.15,182.7L185.15,185.4L186.54,177.3L187.25,177.3L187.35,174.6L188.97,180L190.66,177.3L191.91,177.3L193.98,182.7L195.38,182.7L196.61,182.7L197.02,180L197.12,177.3L198.35,177.3L202,180L202.16,177.3L202.39,174.6L207.7,185.4L211.65,185.4L213.94,188.1L214.87,185.4L216.29,185.4L217.59,185.4L217.75,182.7L218.75,180L218.91,177.3L221.62,161.1L223.1,163.8L224.87,163.8L226.57,161.1L227.06,161.1L227.13,158.4L233.02,171.9L233.06,169.2L235.67,158.4L237.82,161.1L240.31,166.5L242.72,163.8L243.19,163.8L244.51,161.1L251.66,169.2L252.23,169.2L256.06,169.2L261.17,174.6L261.32,171.9L263.98,174.6L265.63,174.6L274.66,193.5L275.54,190.8L277.62,190.8L280.03,193.5L280.26,190.8L282.31,193.5L283.28,196.2L284.43,193.5L285.78,193.5L286.2,193.5L286.43,190.8L288.59,177.3L289.2,174.6L289.28,169.2L291.4,174.6L291.5,171.9L294.11,177.3L294.12,174.6L296.29,174.6L297.28,174.6L299.39,171.9L299.72,171.9L300.24,169.2L302.19,169.2L302.24,166.5L303.7,169.2L303.7,166.5L304.8,166.5L304.88,163.8L307.4,166.5L308.08,163.8L308.83,161.1L310.93,158.4L312.3,158.4L316.51,166.5L318.53,163.8L318.87,161.1L320.14,161.1L320.46,158.4L322.11,158.4L322.52,155.7L323.47,153L325.48,155.7L325.78,153L327.43,150.3L327.9,153L327.93,150.3L328.63,147.6L329.85,139.5L332.76,144.9L338.27,144.9L339.24,142.2L339.41,136.8L341.4,136.8L343.27,139.5L345.7,136.8L345.76,134.1L348.88,136.8L349.49,136.8L351.28,139.5L351.68,139.5L351.92,136.8L353.03,136.8L353.1,134.1L354.77,136.8L357.39,136.8L365.22,147.6L367.64,147.6L368.99,147.6L370.11,144.9L370.47,142.2L374.52,150.3L375.51,144.9L379.96,150.3L380.48,147.6L381.21,147.6L381.41,144.9L383.03,144.9L383.65,142.2L385.05,142.2L386,144.9L386.62,142.2L387.54,136.8L388.68,136.8L389.84,134.1L389.88,131.4L394.62,131.4L397.62,136.8L397.7,131.4L398.74,128.7L398.96,126L401.11,131.4L401.17,128.7L403.28,128.7L405.4,123.3L405.85,123.3L409.95,128.7L410.14,126L411.18,120.6L411.68,117.9L414.35,117.9L414.69,115.2L415.81,115.2L416.8,112.5L417.67,109.8L420.43,115.2L420.68,112.5L424.22,120.6L427.08,120.6L427.25,117.9L428.81,115.2L431.59,117.9L435.74,123.3L436.22,120.6L437.77,120.6L438.25,117.9L438.66,115.2L440.28,117.9L440.41,115.2L442.4,112.5L443.05,107.1L443.8,104.4L444.11,101.7L445.46,101.7L445.55,99L447.21,99L448.23,93.6L448.58,90.9L449.07,90.9L449.67,88.2L449.93,85.5L454.04,90.9L455.42,85.5L456.16,88.2L456.79,88.2L458.03,85.5L459.31,85.5L460.11,88.2L461.62,82.8L462.18,82.8L463.47,82.8L463.78,80.1L464.23,74.7L467.04,77.4L469.54,74.7L470.22,72L474.28,85.5L474.58,82.8L476.67,80.1L479.12,82.8L479.2,80.1L480.27,80.1L481.68,82.8L484.22,85.5L485.12,82.8L485.89,82.8L487.46,80.1L487.59,77.4L488.34,74.7L489.6,72L492.56,72L494.38,74.7L494.46,72L496.51,72L496.98,66.6L498.31,66.6L499.73,53.1L499.94,50.4L501.27,47.7L502.89,47.7L504.48,45L505.04,42.3L505.47,39.6L507.43,42.3L508.74,36.9L511.42,39.6L512.25,39.6L512.62,36.9L514.27,34.2L515.68,34.2L518.8,36.9L519.8,34.2L520.42,34.2L524.33,39.6L525.56,39.6L525.71,36.9L526.29,26.1L527.42,26.1L528.01,20.7L528.42,18L529,18" style="vector-effect: none; fill: none; stroke: rgb(99, 110, 250); stroke-opacity: 1; stroke-width: 2px; opacity: 1;"/></g><g class="points"/><g class="text"/></g><g class="trace scatter traced95dab" style="stroke-miterlimit: 2; opacity: 1;"><g class="fills"/><g class="errorbars"/><g class="lines"><path class="js-line" d="M0.58,342L18.95,342L20.59,339.3L20.75,336.6L24.1,339.3L24.82,342L24.95,339.3L28.82,339.3L29.33,336.6L34.1,342L37.62,342L41.07,339.3L41.91,336.6L43.25,333.9L45.01,333.9L46.68,336.6L47.95,336.6L51.77,342L52.68,339.3L58.02,339.3L58.41,336.6L59.52,339.3L60.52,336.6L63.36,342L64.21,339.3L64.91,342L65.29,339.3L67.36,342L68.03,339.3L69.34,339.3L70.01,342L72.44,342L73.33,339.3L74.06,339.3L76.62,342L79.21,342L80.73,339.3L81.53,336.6L82.5,339.3L86.17,342L89.51,342L96.73,342L96.74,339.3L98.9,336.6L100.59,339.3L102.4,342L105.53,342L108.83,342L109.56,339.3L112.04,333.9L113.51,336.6L118.4,336.6L120.15,339.3L121.21,333.9L124.08,336.6L129.37,336.6L130.86,339.3L132.67,336.6L133.29,333.9L137.61,333.9L139.11,331.2L140.02,331.2L142.73,333.9L143.28,331.2L145.83,336.6L147.16,333.9L148.37,336.6L150.87,333.9L151.65,331.2L153.27,333.9L153.28,331.2L154.54,328.5L156.56,328.5L157.28,323.1L158.46,323.1L159.77,323.1L162.28,325.8L162.87,323.1L164.1,328.5L166.98,331.2L168.06,328.5L171.72,333.9L172.84,331.2L173.38,328.5L176.93,328.5L177.56,328.5L178.57,333.9L181.16,331.2L182.36,333.9L182.37,331.2L186.97,336.6L187.37,333.9L188.57,333.9L188.61,331.2L191.86,333.9L192.99,325.8L194.46,325.8L198.96,325.8L199.11,323.1L204.12,333.9L205.61,333.9L205.75,331.2L207.16,331.2L209.2,333.9L211.5,331.2L213.16,336.6L213.26,333.9L215.83,336.6L217.54,336.6L219.57,336.6L221.85,339.3L221.88,336.6L224.56,336.6L226.67,339.3L227.36,336.6L228.26,333.9L229.62,333.9L230.78,331.2L231.8,333.9L232.67,331.2L234.62,331.2L237.32,331.2L238.06,328.5L239.98,331.2L243.01,331.2L244.58,331.2L246.81,333.9L246.97,331.2L249.26,336.6L250.76,333.9L251.93,333.9L253.94,328.5L255.03,328.5L257.28,333.9L257.43,331.2L258.69,328.5L262.29,339.3L262.9,336.6L265.5,339.3L265.95,339.3L266.82,336.6L269.18,336.6L269.32,333.9L270.23,336.6L272.33,336.6L274.14,336.6L274.25,333.9L276.32,339.3L278.08,339.3L278.47,339.3L280.81,336.6L281.74,339.3L282.49,336.6L285.77,336.6L286.19,333.9L289.47,342L289.51,339.3L290.13,336.6L292.18,336.6L295.31,328.5L296.5,331.2L301.63,339.3L302.44,339.3L303.56,336.6L303.7,333.9L306.17,331.2L307.35,331.2L308.73,331.2L310.95,328.5L313.1,331.2L313.92,333.9L315.72,331.2L316.34,328.5L320.01,333.9L320.46,331.2L323.83,336.6L323.93,333.9L327.71,333.9L327.83,331.2L330.92,333.9L331.19,331.2L332.68,328.5L335.22,328.5L338.19,328.5L340.26,325.8L341.87,328.5L343.26,328.5L346.81,331.2L347.28,328.5L349.4,328.5L349.97,331.2L351.61,325.8L352.4,325.8L353.17,323.1L354.38,320.4L355.31,317.7L357.89,315L360.05,317.7L360.42,315L361.73,312.3L363.24,312.3L364.69,317.7L367.26,320.4L368.34,320.4L371.79,325.8L372.1,323.1L374.42,328.5L374.49,325.8L378.47,328.5L379.42,328.5L379.54,325.8L380.57,320.4L382.67,323.1L383.69,320.4L385.16,320.4L385.69,317.7L388.31,320.4L389.99,317.7L392.68,320.4L395.28,328.5L396.22,325.8L396.72,325.8L399.65,331.2L401.02,325.8L401.95,323.1L404.21,323.1L405.76,328.5L406.39,325.8L408.37,325.8L409.14,323.1L412.82,328.5L414.83,328.5L418.42,333.9L419.38,333.9L419.75,331.2L420.94,328.5L421.12,325.8L424.6,325.8L425.23,323.1L425.93,320.4L429.25,325.8L431.9,331.2L433.28,331.2L434.57,333.9L435.65,331.2L439.11,331.2L440,328.5L442.82,331.2L444.4,331.2L446.57,333.9L448.02,331.2L451.9,331.2L453.43,328.5L455.65,328.5L455.9,325.8L456.47,325.8L458.98,328.5L459.72,323.1L462.06,323.1L462.69,323.1L465.19,325.8L466.24,323.1L470.35,333.9L471.36,328.5L471.62,328.5L472.56,328.5L473.41,325.8L476.89,325.8L477.42,323.1L480.05,323.1L480.6,320.4L481.24,317.7L483.08,317.7L483.21,320.4L484.86,323.1L485.59,320.4L488.31,323.1L490.09,323.1L491.54,320.4L492.64,323.1L493.56,320.4L495,320.4L496.78,323.1L497.36,325.8L501.25,328.5L502.04,325.8L505.56,333.9L506.43,333.9L509.77,336.6L510.43,336.6L511.81,333.9L515.4,336.6L515.74,333.9L517.33,331.2L519.82,331.2L521.4,331.2L521.77,328.5L523.81,331.2L524.65,328.5L526.92,328.5L528.88,331.2" style="vector-effect: none; fill: none; stroke: rgb(239, 85, 59); stroke-opacity: 1; stroke-width: 2px; opacity: 1;"/></g><g class="points"/><g class="text"/></g></g></g></g><g class="zerolinelayer-above"/><path class="xlines-above crisp" d="M0,0" style="fill: none;"/><path class="ylines-above crisp" d="M0,0" style="fill: none;"/><g class="overlines-above"/><g class="xaxislayer-above"><g class="xtick"><text text-anchor="middle" x="0" y="433" transform="translate(185.53,0)" style="font-family: 'Open Sans', verdana, arial, sans-serif; font-size: 12px; fill: rgb(42, 63, 95); fill-opacity: 1; white-space: pre;">200</text></g><g class="xtick"><text text-anchor="middle" x="0" y="433" style="font-family: 'Open Sans', verdana, arial, sans-serif; font-size: 12px; fill: rgb(42, 63, 95); fill-opacity: 1; white-space: pre;" transform="translate(291.64,0)">400</text></g><g class="xtick"><text text-anchor="middle" x="0" y="433" style="font-family: 'Open Sans', verdana, arial, sans-serif; font-size: 12px; fill: rgb(42, 63, 95); fill-opacity: 1; white-space: pre;" transform="translate(397.75,0)">600</text></g><g class="xtick"><text text-anchor="middle" x="0" y="433" style="font-family: 'Open Sans', verdana, arial, sans-serif; font-size: 12px; fill: rgb(42, 63, 95); fill-opacity: 1; white-space: pre;" transform="translate(503.85,0)">800</text></g></g><g class="yaxislayer-above"><g class="ytick"><text text-anchor="end" x="79" y="4.199999999999999" transform="translate(0,402)" style="font-family: 'Open Sans', verdana, arial, sans-serif; font-size: 12px; fill: rgb(42, 63, 95); fill-opacity: 1; white-space: pre;">0</text></g><g class="ytick"><text text-anchor="end" x="79" y="4.199999999999999" style="font-family: 'Open Sans', verdana, arial, sans-serif; font-size: 12px; fill: rgb(42, 63, 95); fill-opacity: 1; white-space: pre;" transform="translate(0,348)">20</text></g><g class="ytick"><text text-anchor="end" x="79" y="4.199999999999999" style="font-family: 'Open Sans', verdana, arial, sans-serif; font-size: 12px; fill: rgb(42, 63, 95); fill-opacity: 1; white-space: pre;" transform="translate(0,294)">40</text></g><g class="ytick"><text text-anchor="end" x="79" y="4.199999999999999" style="font-family: 'Open Sans', verdana, arial, sans-serif; font-size: 12px; fill: rgb(42, 63, 95); fill-opacity: 1; white-space: pre;" transform="translate(0,240)">60</text></g><g class="ytick"><text text-anchor="end" x="79" y="4.199999999999999" style="font-family: 'Open Sans', verdana, arial, sans-serif; font-size: 12px; fill: rgb(42, 63, 95); fill-opacity: 1; white-space: pre;" transform="translate(0,186)">80</text></g><g class="ytick"><text text-anchor="end" x="79" y="4.199999999999999" style="font-family: 'Open Sans', verdana, arial, sans-serif; font-size: 12px; fill: rgb(42, 63, 95); fill-opacity: 1; white-space: pre;" transform="translate(0,132)">100</text></g><g class="ytick"><text text-anchor="end" x="79" y="4.199999999999999" style="font-family: 'Open Sans', verdana, arial, sans-serif; font-size: 12px; fill: rgb(42, 63, 95); fill-opacity: 1; white-space: pre;" transform="translate(0,78)">120</text></g></g><g class="overaxes-above"/></g></g><g class="polarlayer"/><g class="smithlayer"/><g class="ternarylayer"/><g class="geolayer"/><g class="funnelarealayer"/><g class="pielayer"/><g class="iciclelayer"/><g class="treemaplayer"/><g class="sunburstlayer"/><g class="glimages"/><defs id="topdefs-667cdf"><g class="clips"/><clipPath id="legend667cdf"><rect width="68" height="67" x="0" y="0"/></clipPath></defs><g class="layer-above"><g class="imagelayer"/><g class="shapelayer"/></g><g class="infolayer"><g class="legend" pointer-events="all" transform="translate(619.58,60)"><rect class="bg" shape-rendering="crispEdges" style="stroke: rgb(68, 68, 68); stroke-opacity: 1; fill: rgb(255, 255, 255); fill-opacity: 1; stroke-width: 0px;" width="68" height="67" x="0" y="0"/><g class="scrollbox" transform="" clip-path="url(#legend667cdf)"><text class="legendtitletext" text-anchor="start" x="2" y="18.2" style="font-family: 'Open Sans', verdana, arial, sans-serif; font-size: 14px; fill: rgb(42, 63, 95); fill-opacity: 1; white-space: pre;">kind</text><g class="groups" transform=""><g class="traces" transform="translate(0,32.7)" style="opacity: 1;"><text class="legendtext" text-anchor="start" x="40" y="4.680000000000001" style="font-family: 'Open Sans', verdana, arial, sans-serif; font-size: 12px; fill: rgb(42, 63, 95); fill-opacity: 1; white-space: pre;">dev</text><g class="layers" style="opacity: 1;"><g class="legendfill"/><g class="legendlines"><path class="js-line" d="M5,0h30" style="fill: none; stroke: rgb(99, 110, 250); stroke-opacity: 1; stroke-width: 2px;"/></g><g class="legendsymbols"><g class="legendpoints"/></g></g><rect class="legendtoggle" x="0" y="-9.5" width="62.859375" height="19" style="fill: rgb(0, 0, 0); fill-opacity: 0;"/></g></g><g class="groups" transform=""><g class="traces" transform="translate(0,51.7)" style="opacity: 1;"><text class="legendtext" text-anchor="start" x="40" y="4.680000000000001" style="font-family: 'Open Sans', verdana, arial, sans-serif; font-size: 12px; fill: rgb(42, 63, 95); fill-opacity: 1; white-space: pre;">test</text><g class="layers" style="opacity: 1;"><g class="legendfill"/><g class="legendlines"><path class="js-line" d="M5,0h30" style="fill: none; stroke: rgb(239, 85, 59); stroke-opacity: 1; stroke-width: 2px;"/></g><g class="legendsymbols"><g class="legendpoints"/></g></g><rect class="legendtoggle" x="0" y="-9.5" width="62.859375" height="19" style="fill: rgb(0, 0, 0); fill-opacity: 0;"/></g></g></g><rect class="scrollbar" rx="20" ry="3" width="0" height="0" style="fill: rgb(128, 139, 164); fill-opacity: 1;" x="0" y="0"/></g><g class="g-gtitle"/><g class="g-xtitle"><text class="xtitle" x="344.5" y="459.8" text-anchor="middle" style="opacity: 1; font-family: 'Open Sans', verdana, arial, sans-serif; font-size: 14px; fill: rgb(42, 63, 95); fill-opacity: 1; white-space: pre;">time</text></g><g class="g-ytitle"><text class="ytitle" transform="rotate(-90,36.709375,240)" x="36.709375" y="240" text-anchor="middle" style="opacity: 1; font-family: 'Open Sans', verdana, arial, sans-serif; font-size: 14px; fill: rgb(42, 63, 95); fill-opacity: 1; white-space: pre;">count</text></g></g></svg>