<svg class="main-svg" xmlns="http://www.w3.org/2000/svg" xmlns:xlink="http://www.w3.org/1999/xlink" width="700" height="500" style="" viewBox="0 0 700 500"><rect x="0" y="0" width="700" height="500" style="fill: rgb(255, 255, 255); fill-opacity: 1;"/><defs id="defs-463eb0"><g class="clips"><clipPath id="clip463eb0xyplot" class="plotclip"><rect width="485" height="360"/></clipPath><clipPath class="axesclip" id="clip463eb0x"><rect x="80" y="0" width="485" height="500"/></clipPath><clipPath class="axesclip" id="clip463eb0y"><rect x="0" y="60" width="700" height="360"/></clipPath><clipPath class="axesclip" id="clip463eb0xy"><rect x="80" y="60" width="485" height="360"/></clipPath></g><g class="gradients"/><g class="patterns"/></defs><g class="bglayer"><rect class="bg" x="80" y="60" width="485" height="360" style="fill: rgb(229, 236, 246); fill-opacity: 1; stroke-width: 0;"/></g><g class="layer-below"><g class="imagelayer"/><g class="shapelayer"/></g><g class="cartesianlayer"><g class="subplot xy"><g class="layer-subplot"><g class="shapelayer"/><g class="imagelayer"/></g><g class="minor-gridlayer"><g class="x"/><g class="y"/></g><g class="gridlayer"><g class="x"><path class="xgrid crisp" transform="translate(176.76,0)" d="M0,60v360" style="stroke: rgb(255, 255, 255); stroke-opacity: 1; stroke-width: 1px;"/><path class="xgrid crisp" transform="translate(274.03999999999996,0)" d="M0,60v360" style="stroke: rgb(255, 255, 255); stroke-opacity: 1; stroke-width: 1px;"/><path class="xgrid crisp" transform="translate(371.32,0)" d="M0,60v360" style="stroke: rgb(255, 255, 255); stroke-opacity: 1; stroke-width: 1px;"/><path class="xgrid crisp" transform="translate(468.6,0)" d="M0,60v360" style="stroke: rgb(255, 255, 255); stroke-opacity: 1; stroke-width: 1px;"/></g><g class="y"><path class="ygrid crisp" transform="translate(0,348)" d="M80,0h485" style="stroke: rgb(255, 255, 255); stroke-opacity: 1; stroke-width: 1px;"/><path class="ygrid crisp" transform="translate(0,294)" d="M80,0h485" style="stroke: rgb(255, 255, 255); stroke-opacity: 1; stroke-width: 1px;"/><path class="ygrid crisp" transform="translate(0,240)" d="M80,0h485" style="stroke: rgb(255, 255, 255); stroke-opacity: 1; stroke-width: 1px;"/><path class="ygrid crisp" transform="translate(0,186)" d="M80,0h485" style="stroke: rgb(255, 255, 255); stroke-opacity: 1; stroke-width: 1px;"/><path class="ygrid crisp" transform="translate(0,132)" d="M80,0h485" style="stroke: rgb(255, 255, 255); stroke-opacity: 1; stroke-width: 1px;"/><path class="ygrid crisp" transform="translate(0,78)" d="M80,0h485" style="stroke: rgb(255, 255, 255); stroke-opacity: 1; stroke-width: 1px;"/></g></g><g class="zerolinelayer"><path class="yzl zl crisp" transform="translate(0,402)" d="M80,0h485" style="stroke: rgb(255, 255, 255); stroke-opacity: 1; stroke-width: 2px;"/></g><g class="layer-between"><g class="shapelayer"/><g class="imagelayer"/></g><path class="xlines-below"/><path class="ylines-below"/><g class="overlines-below"/><g class="xaxislayer-below"/><g class="yaxislayer-below"/><g class="overaxes-below"/><g class="overplot"><g class="xy" transform="translate(80,60)" clip-path="url(#clip463eb0xyplot)"><g class="scatterlayer mlayer"><g class="trace scatter tracefe3b87" style="stroke-miterlimit: 2; opacity: 1;"><g class="fills"/><g class="errorbars"/><g class="lines"><path class="js-line" d="M0,342L2.58,342L3.27,339.3L3.88,333.9L5.2,333.9L7.19,336.6L7.3,333.9L8.86,331.2L10.46,333.9L10.9,328.5L13.99,331.2L17.97,333.9L18.23,331.2L18.69,325.8L20.2,328.5L21.3,325.8L21.37,323.1L22.28,323.1L22.5,320.4L23.29,323.1L26.62,325.8L26.95,325.8L26.95,323.1L27.25,317.7L28.77,315L29.43,309.6L30.54,306.9L31.06,306.9L31.13,304.2L32.07,304.2L34.26,301.5L35.01,304.2L36.56,301.5L37.97,301.5L39.17,304.2L40.3,304.2L40.6,301.5L40.9,298.8L43.36,301.5L46,301.5L46.21,298.8L46.63,296.1L48.45,298.8L49.94,298.8L50.02,296.1L52.23,285.3L54.11,288L55.61,288L56.35,285.3L56.52,282.6L57.58,282.6L59.85,285.3L61.41,285.3L61.93,279.9L62.6,279.9L62.84,277.2L63.71,277.2L68.25,288L69.04,285.3L69.22,279.9L70.64,279.9L70.94,279.9L71.19,277.2L72.25,277.2L74.2,279.9L74.67,274.5L75.21,274.5L75.56,271.8L76.83,271.8L78.61,266.4L78.64,263.7L79.79,266.4L79.81,263.7L80.62,261L82.15,261L82.17,258.3L83.67,258.3L84.58,258.3L84.81,255.6L85.31,252.9L86.93,250.2L87.61,250.2L91.06,266.4L91.23,263.7L92.51,263.7L92.97,258.3L94.28,258.3L95.63,255.6L95.8,252.9L96.65,247.5L97.54,247.5L98.48,244.8L100.72,247.5L102.25,242.1L103.13,242.1L103.23,239.4L104.43,239.4L105.91,239.4L106.95,236.7L107.81,234L110.72,236.7L111.64,236.7L111.75,234L112.72,228.6L112.77,225.9L115.92,225.9L116.38,223.2L120.04,225.9L121.36,223.2L121.79,223.2L122.01,220.5L122.09,217.8L122.87,217.8L123.04,212.4L123.93,215.1L125.6,209.7L128.08,215.1L129.66,215.1L130.52,212.4L133.54,215.1L133.66,212.4L136.95,212.4L137.75,209.7L138.38,207L139.31,207L139.83,201.6L142.21,207L143.75,207L143.98,204.3L145.69,209.7L148.54,209.7L150.27,212.4L150.28,209.7L151.26,209.7L151.36,207L152.45,201.6L153.17,201.6L153.32,198.9L155.98,201.6L156.39,198.9L158.07,198.9L158.65,196.2L159.67,198.9L159.69,196.2L161.92,193.5L162.33,190.8L162.84,190.8L165.47,190.8L165.48,188.1L166.25,188.1L166.95,185.4L167,182.7L169.75,185.4L171.02,177.3L171.67,177.3L171.76,174.6L173.25,180L174.8,177.3L175.95,177.3L177.84,182.7L179.13,182.7L180.26,182.7L180.63,180L180.73,177.3L181.85,177.3L185.2,180L185.35,177.3L185.56,174.6L190.42,185.4L194.05,185.4L196.15,188.1L197,185.4L198.3,185.4L199.49,185.4L199.64,182.7L200.7,177.3L201.09,174.6L201.48,174.6L201.96,171.9L202.51,163.8L203.19,161.1L204.54,163.8L206.16,163.8L208.17,161.1L208.24,158.4L213.64,171.9L213.67,169.2L216.07,158.4L218.04,161.1L220.32,166.5L222.53,163.8L222.96,163.8L224.17,161.1L230.73,169.2L231.25,169.2L234.76,169.2L239.45,174.6L239.59,171.9L242.02,174.6L243.54,174.6L251.81,193.5L252.62,190.8L254.53,190.8L256.73,193.5L256.95,190.8L258.83,193.5L259.72,196.2L260.78,193.5L262.01,193.5L262.4,193.5L262.61,190.8L264.59,177.3L265.15,174.6L265.22,169.2L267.16,174.6L267.26,171.9L269.65,177.3L269.66,174.6L271.65,174.6L272.55,174.6L274.49,171.9L274.79,171.9L275.27,169.2L277.05,169.2L277.11,166.5L278.44,169.2L278.44,166.5L279.44,166.5L279.52,163.8L281.83,166.5L282.45,163.8L283.15,161.1L285.07,158.4L286.33,158.4L290.18,166.5L292.03,163.8L292.34,161.1L293.51,161.1L293.8,158.4L295.32,158.4L295.69,155.7L296.56,153L298.41,155.7L298.68,153L300.2,150.3L300.63,153L300.65,150.3L301.3,147.6L302.41,139.5L305.08,144.9L310.14,144.9L311.02,142.2L311.18,136.8L313,136.8L314.72,139.5L316.94,136.8L317,134.1L319.87,136.8L320.42,136.8L322.06,139.5L322.43,139.5L322.65,136.8L323.66,136.8L323.73,134.1L325.26,136.8L327.67,136.8L334.84,147.6L337.06,147.6L338.3,147.6L339.32,144.9L339.65,142.2L343.37,150.3L344.27,144.9L348.36,150.3L348.83,147.6L349.5,147.6L349.69,144.9L351.18,144.9L351.74,142.2L353.02,142.2L353.89,144.9L354.46,142.2L355.3,136.8L356.35,136.8L357.41,134.1L357.45,131.4L361.8,131.4L364.55,136.8L364.62,131.4L365.57,128.7L365.77,126L367.75,131.4L367.8,128.7L369.74,128.7L372.09,123.3L375.86,128.7L376.98,120.6L377.44,117.9L379.89,117.9L380.2,115.2L381.22,115.2L382.13,112.5L382.93,109.8L385.46,115.2L385.69,112.5L388.93,120.6L391.56,120.6L391.71,117.9L393.14,115.2L395.69,117.9L399.5,123.3L399.93,120.6L401.36,120.6L401.8,117.9L402.17,115.2L403.66,117.9L403.78,115.2L405.6,112.5L406.2,107.1L406.89,104.4L407.18,101.7L408.41,101.7L408.49,99L410.02,99L410.95,93.6L411.27,90.9L411.72,90.9L412.27,88.2L412.51,85.5L416.28,90.9L417.54,85.5L418.22,88.2L418.8,88.2L419.93,85.5L421.11,85.5L421.84,88.2L423.74,82.8L424.92,82.8L425.62,74.7L428.2,77.4L430.49,74.7L431.11,72L434.83,85.5L435.1,82.8L437.03,80.1L439.27,82.8L439.35,80.1L440.32,80.1L441.61,82.8L443.94,85.5L444.77,82.8L445.48,82.8L446.91,80.1L447.03,77.4L448.88,72L450.51,72L451.59,72L453.26,74.7L453.33,72L455.21,72L455.65,66.6L456.87,66.6L458.97,47.7L459.58,47.7L461.06,47.7L462.52,45L463.42,39.6L465.23,42.3L466.42,36.9L468.88,39.6L469.64,39.6L469.98,36.9L471.49,34.2L472.79,34.2L475.65,36.9L476.56,34.2L477.13,34.2L480.72,39.6L481.84,39.6L481.98,36.9L482.52,26.1L483.56,26.1L484.1,20.7L484.46,18L485,18" style="vector-effect: none; fill: none; stroke: rgb(99, 110, 250); stroke-opacity: 1; stroke-width: 2px; opacity: 1;"/></g><g class="points"/><g class="text"/></g><g class="trace scatter traceccd492" style="stroke-miterlimit: 2; opacity: 1;"><g class="fills"/><g class="errorbars"/><g class="lines"><path class="js-line" d="M0.53,342L39.16,342L39.66,339.3L41.27,339.3L42.8,342L59.51,342L59.86,339.3L61.76,342L62.37,339.3L64.19,339.3L65.82,342L67.23,336.6L67.9,336.6L70.8,342L71.96,342L88.68,342L88.7,339.3L89.93,342L90.13,339.3L90.68,336.6L92.22,336.6L93.88,339.3L96.75,342L101.96,342L102.72,339.3L105.67,339.3L108.56,342L123.21,342L123.79,339.3L126.16,342L127.54,342L138.32,342L139.04,339.3L140.52,342L140.53,339.3L141.69,342L143.53,342L144.19,342L145.28,339.3L146.48,339.3L148.79,342L149.32,342L150.45,339.3L154.08,342L155.38,342L158.87,342L158.96,339.3L162.8,342L163.71,342L172.88,342L172.92,339.3L176.85,342L176.94,339.3L178.28,336.6L179.48,339.3L181.42,336.6L182.41,339.3L182.55,336.6L185.88,342L209.27,342L210.52,339.3L211.59,342L212.52,339.3L213.31,336.6L215.11,339.3L217.58,339.3L218.26,336.6L220.02,336.6L222.8,342L232.51,342L232.82,339.3L233.82,339.3L235.88,342L259,342L259.59,339.3L262.38,342L265.4,342L266,339.3L267.87,339.3L269.25,339.3L270.74,336.6L271.84,339.3L274.54,342L277.29,342L278.31,339.3L278.44,336.6L280.7,339.3L281.78,336.6L283.05,342L289.46,342L290.02,339.3L293.8,342L296.89,342L320.34,342L320.86,339.3L322.37,339.3L323.09,336.6L323.61,336.6L323.8,333.9L325.76,333.9L328.12,336.6L330.1,336.6L330.44,339.3L331.65,339.3L333.03,342L348.76,342L348.91,339.3L350.84,342L351.78,342L367.66,342L368.52,339.3L370.59,342L372.01,342L385.92,342L386.09,339.3L386.96,339.3L387.53,336.6L389.28,339.3L389.86,336.6L390.51,336.6L393.55,342L432.15,342L432.4,339.3L434.03,336.6L434.75,336.6L437.71,336.6L440.12,339.3L441.21,333.9L442.9,336.6L443.02,333.9L444.53,333.9L445.2,333.9L447.7,336.6L450.66,342L451.12,339.3L452.51,339.3L453.83,336.6L455.46,342L455.99,339.3L460.28,342L463.51,342L484.89,342" style="vector-effect: none; fill: none; stroke: rgb(239, 85, 59); stroke-opacity: 1; stroke-width: 2px; opacity: 1;"/></g><g class="points"/><g class="text"/></g></g></g></g><g class="zerolinelayer-above"/><path class="xlines-above crisp" d="M0,0" style="fill: none;"/><path class="ylines-above crisp" d="M0,0" style="fill: none;"/><g class="overlines-above"/><g class="xaxislayer-above"><g class="xtick"><text text-anchor="middle" x="0" y="433" transform="translate(176.76,0)" style="font-family: 'Open Sans', verdana, arial, sans-serif; font-size: 12px; fill: rgb(42, 63, 95); fill-opacity: 1; white-space: pre;">200</text></g><g class="xtick"><text text-anchor="middle" x="0" y="433" style="font-family: 'Open Sans', verdana, arial, sans-serif; font-size: 12px; fill: rgb(42, 63, 95); fill-opacity: 1; white-space: pre;" transform="translate(274.03999999999996,0)">400</text></g><g class="xtick"><text text-anchor="middle" x="0" y="433" style="font-family: 'Open Sans', verdana, arial, sans-serif; font-size: 12px; fill: rgb(42, 63, 95); fill-opacity: 1; white-space: pre;" transform="translate(371.32,0)">600</text></g><g class="xtick"><text text-anchor="middle" x="0" y="433" style="font-family: 'Open Sans', verdana, arial, sans-serif; font-size: 12px; fill: rgb(42, 63, 95); fill-opacity: 1; white-space: pre;" transform="translate(468.6,0)">800</text></g></g><g class="yaxislayer-above"><g class="ytick"><text text-anchor="end" x="79" y="4.199999999999999" transform="translate(0,402)" style="font-family: 'Open Sans', verdana, arial, sans-serif; font-size: 12px; fill: rgb(42, 63, 95); fill-opacity: 1; white-space: pre;">0</text></g><g class="ytick"><text text-anchor="end" x="79" y="4.199999999999999" style="font-family: 'Open Sans', verdana, arial, sans-serif; font-size: 12px; fill: rgb(42, 63, 95); fill-opacity: 1; white-space: pre;" transform="translate(0,348)">20</text></g><g class="ytick"><text text-anchor="end" x="79" y="4.199999999999999" style="font-family: 'Open Sans', verdana, arial, sans-serif; font-size: 12px; fill: rgb(42, 63, 95); fill-opacity: 1; white-space: pre;" transform="translate(0,294)">40</text></g><g class="ytick"><text text-anchor="end" x="79" y="4.199999999999999" style="font-family: 'Open Sans', verdana, arial, sans-serif; font-size: 12px; fill: rgb(42, 63, 95); fill-opacity: 1; white-space: pre;" transform="translate(0,240)">60</text></g><g class="ytick"><text text-anchor="end" x="79" y="4.199999999999999" style="font-family: 'Open Sans', verdana, arial, sans-serif; font-size: 12px; fill: rgb(42, 63, 95); fill-opacity: 1; white-space: pre;" transform="translate(0,186)">80</text></g><g class="ytick"><text text-anchor="end" x="79" y="4.199999999999999" style="font-family: 'Open Sans', verdana, arial, sans-serif; font-size: 12px; fill: rgb(42, 63, 95); fill-opacity: 1; white-space: pre;" transform="translate(0,132)">100</text></g><g class="ytick"><text text-anchor="end" x="79" y="4.199999999999999" style="font-family: 'Open Sans', verdana, arial, sans-serif; font-size: 12px; fill: rgb(42, 63, 95); fill-opacity: 1; white-space: pre;" transform="translate(0,78)">120</text></g></g><g class="overaxes-above"/></g></g><g class="polarlayer"/><g class="smithlayer"/><g class="ternarylayer"/><g class="geolayer"/><g class="funnelarealayer"/><g class="pielayer"/><g class="iciclelayer"/><g class="treemaplayer"/><g class="sunburstlayer"/><g class="glimages"/><defs id="topdefs-463eb0"><g class="clips"/><clipPath id="legend463eb0"><rect width="113" height="67" x="0" y="0"/></clipPath></defs><g class="layer-above"><g class="imagelayer"/><g class="shapelayer"/></g><g class="infolayer"><g class="legend" pointer-events="all" transform="translate(574.7,60)"><rect class="bg" shape-rendering="crispEdges" style="stroke: rgb(68, 68, 68); stroke-opacity: 1; fill: rgb(255, 255, 255); fill-opacity: 1; stroke-width: 0px;" width="113" height="67" x="0" y="0"/><g class="scrollbox" transform="" clip-path="url(#legend463eb0)"><text class="legendtitletext" text-anchor="start" x="2" y="18.2" style="font-family: 'Open Sans', verdana, arial, sans-serif; font-size: 14px; fill: rgb(42, 63, 95); fill-opacity: 1; white-space: pre;">kind</text><g class="groups" transform=""><g class="traces" transform="translate(0,32.7)" style="opacity: 1;"><text class="legendtext" text-anchor="start" x="40" y="4.680000000000001" style="font-family: 'Open Sans', verdana, arial, sans-serif; font-size: 12px; fill: rgb(42, 63, 95); fill-opacity: 1; white-space: pre;">dev_queue</text><g class="layers" style="opacity: 1;"><g class="legendfill"/><g class="legendlines"><path class="js-line" d="M5,0h30" style="fill: none; stroke: rgb(99, 110, 250); stroke-opacity: 1; stroke-width: 2px;"/></g><g class="legendsymbols"><g class="legendpoints"/></g></g><rect class="legendtoggle" x="0" y="-9.5" width="107.453125" height="19" style="fill: rgb(0, 0, 0); fill-opacity: 0;"/></g></g><g class="groups" transform=""><g class="traces" transform="translate(0,51.7)" style="opacity: 1;"><text class="legendtext" text-anchor="start" x="40" y="4.680000000000001" style="font-family: 'Open Sans', verdana, arial, sans-serif; font-size: 12px; fill: rgb(42, 63, 95); fill-opacity: 1; white-space: pre;">test_queue</text><g class="layers" style="opacity: 1;"><g class="legendfill"/><g class="legendlines"><path class="js-line" d="M5,0h30" style="fill: none; stroke: rgb(239, 85, 59); stroke-opacity: 1; stroke-width: 2px;"/></g><g class="legendsymbols"><g class="legendpoints"/></g></g><rect class="legendtoggle" x="0" y="-9.5" width="107.453125" height="19" style="fill: rgb(0, 0, 0); fill-opacity: 0;"/></g></g></g><rect class="scrollbar" rx="20" ry="3" width="0" height="0" style="fill: rgb(128, 139, 164); fill-opacity: 1;" x="0" y="0"/></g><g class="g-gtitle"/><g class="g-xtitle"><text class="xtitle" x="322.5" y="459.8" text-anchor="middle" style="opacity: 1; font-family: 'Open Sans', verdana, arial, sans-serif; font-size: 14px; fill: rgb(42, 63, 95); fill-opacity: 1; white-space: pre;">time</text></g><g class="g-ytitle"><text class="ytitle" transform="rotate(-90,36.709375,240)" x="36.709375" y="240" text-anchor="middle" style="opacity: 1; font-family: 'Open Sans', verdana, arial, sans-serif; font-size: 14px; fill: rgb(42, 63, 95); fill-opacity: 1; white-space: pre;">count</text></g></g></svg>