<svg class="main-svg" xmlns="http://www.w3.org/2000/svg" xmlns:xlink="http://www.w3.org/1999/xlink" width="800" height="800" style="" viewBox="0 0 800 800"><rect x="0" y="0" width="800" height="800" style="fill: rgb(255, 255, 255); fill-opacity: 1;"/><defs id="defs-b0ecbe"><g class="clips"><clipPath id="clipb0ecbexyplot" class="plotclip"><rect width="518.42" height="116.16000000000001"/></clipPath><clipPath id="clipb0ecbex2y2plot" class="plotclip"><rect width="518.42" height="116.16"/></clipPath><clipPath id="clipb0ecbex3y3plot" class="plotclip"><rect width="518.42" height="116.16000000000003"/></clipPath><clipPath id="clipb0ecbex4y4plot" class="plotclip"><rect width="518.42" height="116.16000000000003"/></clipPath><clipPath id="clipb0ecbex5y5plot" class="plotclip"><rect width="518.42" height="116.15999999999995"/></clipPath><clipPath class="axesclip" id="clipb0ecbex"><rect x="80" y="0" width="518.42" height="800"/></clipPath><clipPath class="axesclip" id="clipb0ecbey"><rect x="0" y="603.8399999999999" width="800" height="116.16000000000001"/></clipPath><clipPath class="axesclip" id="clipb0ecbexy"><rect x="80" y="603.8399999999999" width="518.42" height="116.16000000000001"/></clipPath><clipPath class="axesclip" id="clipb0ecbey2"><rect x="0" y="467.88" width="800" height="116.16"/></clipPath><clipPath class="axesclip" id="clipb0ecbexy2"><rect x="80" y="467.88" width="518.42" height="116.16"/></clipPath><clipPath class="axesclip" id="clipb0ecbey3"><rect x="0" y="331.91999999999996" width="800" height="116.16000000000003"/></clipPath><clipPath class="axesclip" id="clipb0ecbexy3"><rect x="80" y="331.91999999999996" width="518.42" height="116.16000000000003"/></clipPath><clipPath class="axesclip" id="clipb0ecbey4"><rect x="0" y="195.95999999999998" width="800" height="116.16000000000003"/></clipPath><clipPath class="axesclip" id="clipb0ecbexy4"><rect x="80" y="195.95999999999998" width="518.42" height="116.16000000000003"/></clipPath><clipPath class="axesclip" id="clipb0ecbey5"><rect x="0" y="60" width="800" height="116.15999999999995"/></clipPath><clipPath class="axesclip" id="clipb0ecbexy5"><rect x="80" y="60" width="518.42" height="116.15999999999995"/></clipPath><clipPath class="axesclip" id="clipb0ecbex2"><rect x="80" y="0" width="518.42" height="800"/></clipPath><clipPath class="axesclip" id="clipb0ecbex2y"><rect x="80" y="603.8399999999999" width="518.42" height="116.16000000000001"/></clipPath><clipPath class="axesclip" id="clipb0ecbex2y2"><rect x="80" y="467.88" width="518.42" height="116.16"/></clipPath><clipPath class="axesclip" id="clipb0ecbex2y3"><rect x="80" y="331.91999999999996" width="518.42" height="116.16000000000003"/></clipPath><clipPath class="axesclip" id="clipb0ecbex2y4"><rect x="80" y="195.95999999999998" width="518.42" height="116.16000000000003"/></clipPath><clipPath class="axesclip" id="clipb0ecbex2y5"><rect x="80" y="60" width="518.42" height="116.15999999999995"/></clipPath><clipPath class="axesclip" id="clipb0ecbex3"><rect x="80" y="0" width="518.42" height="800"/></clipPath><clipPath class="axesclip" id="clipb0ecbex3y"><rect x="80" y="603.8399999999999" width="518.42" height="116.16000000000001"/></clipPath><clipPath class="axesclip" id="clipb0ecbex3y2"><rect x="80" y="467.88" width="518.42" height="116.16"/></clipPath><clipPath class="axesclip" id="clipb0ecbex3y3"><rect x="80" y="331.91999999999996" width="518.42" height="116.16000000000003"/></clipPath><clipPath class="axesclip" id="clipb0ecbex3y4"><rect x="80" y="195.95999999999998" width="518.42" height="116.16000000000003"/></clipPath><clipPath class="axesclip" id="clipb0ecbex3y5"><rect x="80" y="60" width="518.42" height="116.15999999999995"/></clipPath><clipPath class="axesclip" id="clipb0ecbex4"><rect x="80" y="0" width="518.42" height="800"/></clipPath><clipPath class="axesclip" id="clipb0ecbex4y"><rect x="80" y="603.8399999999999" width="518.42" height="116.16000000000001"/></clipPath><clipPath class="axesclip" id="clipb0ecbex4y2"><rect x="80" y="467.88" width="518.42" height="116.16"/></clipPath><clipPath class="axesclip" id="clipb0ecbex4y3"><rect x="80" y="331.91999999999996" width="518.42" height="116.16000000000003"/></clipPath><clipPath class="axesclip" id="clipb0ecbex4y4"><rect x="80" y="195.95999999999998" width="518.42" height="116.16000000000003"/></clipPath><clipPath class="axesclip" id="clipb0ecbex4y5"><rect x="80" y="60" width="518.42" height="116.15999999999995"/></clipPath><clipPath class="axesclip" id="clipb0ecbex5"><rect x="80" y="0" width="518.42" height="800"/></clipPath><clipPath class="axesclip" id="clipb0ecbex5y"><rect x="80" y="603.8399999999999" width="518.42" height="116.16000000000001"/></clipPath><clipPath class="axesclip" id="clipb0ecbex5y2"><rect x="80" y="467.88" width="518.42" height="116.16"/></clipPath><clipPath class="axesclip" id="clipb0ecbex5y3"><rect x="80" y="331.91999999999996" width="518.42" height="116.16000000000003"/></clipPath><clipPath class="axesclip" id="clipb0ecbex5y4"><rect x="80" y="195.95999999999998" width="518.42" height="116.16000000000003"/></clipPath><clipPath class="axesclip" id="clipb0ecbex5y5"><rect x="80" y="60" width="518.42" height="116.15999999999995"/></clipPath></g><g class="gradients"/><g class="patterns"/></defs><g class="bglayer"><rect class="bg" x="80" y="603.8399999999999" width="518.42" height="116.16000000000001" style="fill: rgb(229, 236, 246); fill-opacity: 1; stroke-width: 0;"/><rect class="bg" x="80" y="467.88" width="518.42" height="116.16" style="fill: rgb(229, 236, 246); fill-opacity: 1; stroke-width: 0;"/><rect class="bg" x="80" y="331.91999999999996" width="518.42" height="116.16000000000003" style="fill: rgb(229, 236, 246); fill-opacity: 1; stroke-width: 0;"/><rect class="bg" x="80" y="195.95999999999998" width="518.42" height="116.16000000000003" style="fill: rgb(229, 236, 246); fill-opacity: 1; stroke-width: 0;"/><rect class="bg" x="80" y="60" width="518.42" height="116.15999999999995" style="fill: rgb(229, 236, 246); fill-opacity: 1; stroke-width: 0;"/></g><g class="layer-below"><g class="imagelayer"/><g class="shapelayer"/></g><g class="cartesianlayer"><g class="subplot xy"><g class="layer-subplot"><g class="shapelayer"/><g class="imagelayer"/></g><g class="minor-gridlayer"><g class="x"/><g class="y"/></g><g class="gridlayer"><g class="x"><path class="xgrid crisp" transform="translate(199.47,0)" d="M0,603.8399999999999v116.16000000000001" style="stroke: rgb(255, 255, 255); stroke-opacity: 1; stroke-width: 1px;"/><path class="xgrid crisp" transform="translate(329.61,0)" d="M0,603.8399999999999v116.16000000000001" style="stroke: rgb(255, 255, 255); stroke-opacity: 1; stroke-width: 1px;"/><path class="xgrid crisp" transform="translate(457.61,0)" d="M0,603.8399999999999v116.16000000000001" style="stroke: rgb(255, 255, 255); stroke-opacity: 1; stroke-width: 1px;"/><path class="xgrid crisp" transform="translate(587.75,0)" d="M0,603.8399999999999v116.16000000000001" style="stroke: rgb(255, 255, 255); stroke-opacity: 1; stroke-width: 1px;"/></g><g class="y"><path class="ygrid crisp" transform="translate(0,679.56)" d="M80,0h518.42" style="stroke: rgb(255, 255, 255); stroke-opacity: 1; stroke-width: 1px;"/></g></g><g class="zerolinelayer"><path class="yzl zl crisp" transform="translate(0,638.3999999999999)" d="M80,0h518.42" style="stroke: rgb(255, 255, 255); stroke-opacity: 1; stroke-width: 2px;"/></g><path class="xlines-below"/><path class="ylines-below"/><g class="overlines-below"/><g class="xaxislayer-below"/><g class="yaxislayer-below"/><g class="overaxes-below"/><g class="plot" transform="translate(80,603.8399999999999)" clip-path="url(#clipb0ecbexyplot)"><g class="scatterlayer mlayer"><g class="trace scatter traced69720" style="stroke-miterlimit: 2; opacity: 1;"><g class="fills"/><g class="errorbars"/><g class="lines"><path class="js-line" d="M2.13,34.65H4.27V44.1H6.4V31.12H8.53V31.02H10.67V34.56H12.8V34.56H14.93V34.56H17.07V25.98H19.2V34.56H21.33V31.61H23.47V33.48H25.6V34.56H27.73V34.56H29.87V34.56H32V34.56H34.13V34.56H36.27V33.44H38.4V33.43H40.53V34.56H42.67V34.56H44.8V34.56H46.94V34.56H49.07V34.56H51.2V34.56H53.34V34.56H55.47V34.56H57.6V34.56H59.74V34.56H61.87V34.56H64V34.56H66.14V34.56H68.27V34.56H70.4V34.56H72.54V34.56H74.67V33.54H76.8V33.52H78.94V34.56H81.07V33.42H83.2V33.46H85.34V34.56H87.47V34.56H89.6V34.56H91.74V34.56H93.87V34.56H96V33.6H98.14V33.3H100.27V34.56H102.4V34.56H104.54V34.56H106.67V34.56H108.8V34.56H110.94V34.56H113.07V33.53H115.2V33.5H117.34V34.56H119.47V34.56H121.6V34.56H123.74V34.56H125.87V34.56H128V36.01H130.14V34.56H132.27V34.56H134.41V33.42H136.54V34.56H138.67V34.56H140.81V33.42H142.94V32.53H145.07V34.56H147.21V34.56H149.34V34.56H151.47V34.56H153.61V34.56H155.74V33.43H157.87V34.56H160.01V34.56H162.14V34.56H164.27V33.54H166.41V34.56H168.54V34.56H170.67V34.56H172.81V32.46H174.94V34.56H177.07V34.56H179.21V34.56H181.34V34.56H183.47V34.56H185.61V33.27H187.74V34.56H189.87V34.56H192.01V34.56H194.14V32.8H196.27V33.45H198.41V34.56H200.54V34.56H202.67V33.46H204.81V33.49H206.94V34.56H209.07V34.56H211.21V34.56H213.34V34.56H215.47V33.49H217.61V32.2H219.74V34.56H221.88V33.52H224.01V33.03H226.14V34.56H228.28V33.58H230.41V33.03H232.54V32.21H234.68V33.47H236.81V33.52H238.94V30.55H241.08V33.5H243.21V32.14H245.34V32.72H247.48V33.21H249.61V32.43H251.74V32.42H253.88V34.56H256.01V33.48H258.14V34.16H260.28V32.89H262.41V33.5H264.54V34.56H266.68V33.46H268.81V34.56H270.94V33.62H273.08V34.56H275.21V33.47H277.34V33.51H279.48V33.53H281.61V34.56H283.74V32.75H285.88V34.56H288.01V28.21H290.14V31.75H292.28V29.74H294.41V34.48H296.54V31.78H298.68V34.56H300.81V31.18H302.95V31.72H305.08V31.5H307.21V30.13H309.35V43.64H311.48V34.33H313.61V48.13H315.75V32.9H317.88V34.42H320.01V31.19H322.15V33.32H324.28V33H326.41V33.82H328.55V57.24H330.68V34.43H332.81V33.99H334.95V31.7H337.08V31.49H339.21V30.34H341.35V36.7H343.48V33.07H345.61V110.35H347.75V27.23H349.88V13.25H352.01V32.15H354.15V19.49H356.28V5.81H358.41V29.52H360.55V27.92H362.68V34.56H364.81V28.11H366.95V34.25H369.08V32.84H371.21V34.56H373.35V32.76H375.48V33.39H377.61V32.5H379.75V32.17H381.88V30.82H384.01V33.56H386.15V33.61H388.28V33.39H390.42V34.56H392.55V41.07H394.68V33.46H396.82V31.57H398.95V32.21H401.08V33.38H403.22V32.83H405.35V32.81H407.48V30.84H409.62V33.22H411.75V33.49H413.88V33.45H416.02V34.56H418.15V30.01H420.28V34H422.42V32.32H424.55V32.48H426.68V32.18H428.82V34.56H430.95V34.56H433.08V33.52H435.22V33.53H437.35V33.51H439.48V33.52H441.62V33.61H443.75V34.56H445.88V33.43H448.02V34.56H450.15V34.56H452.28V20.07H454.42V32.26H456.55V34.56H458.68V30.18H460.82V32.34H462.95V32.38H465.08V32.29H467.22V32.05H469.35V32.4H471.48V32.2H473.62V29.75H475.75V32.44H477.89V33.39H480.02V29.8H482.15V30.8H484.29V32H486.42V32.29H488.55V31.1H490.69V32.99H492.82V34.5H494.95V31.73H497.09V34.56H499.22V34.56H501.35V34.56H503.49V34.56H505.62V34.56H507.75V34.56H509.89V34.56H512.02V34.56H514.15V34.85H516.29V35.18" style="vector-effect: none; fill: none; stroke: rgb(254, 203, 82); stroke-opacity: 1; stroke-width: 2px; opacity: 1;"/></g><g class="points"/><g class="text"/></g></g></g><g class="overplot"/><path class="xlines-above crisp" style="fill: none;" d="M0,0"/><path class="ylines-above crisp" style="fill: none;" d="M0,0"/><g class="overlines-above"/><g class="xaxislayer-above"><g class="xtick"><text text-anchor="middle" x="0" y="732.9999999999999" transform="translate(199.47,0)" style="font-family: 'Open Sans', verdana, arial, sans-serif; font-size: 12px; fill: rgb(42, 63, 95); fill-opacity: 1; white-space: pre; opacity: 1;">Nov 2023</text></g><g class="xtick"><text text-anchor="middle" x="0" y="732.9999999999999" style="font-family: 'Open Sans', verdana, arial, sans-serif; font-size: 12px; fill: rgb(42, 63, 95); fill-opacity: 1; white-space: pre; opacity: 1;" transform="translate(329.61,0)">Jan 2024</text></g><g class="xtick"><text text-anchor="middle" x="0" y="732.9999999999999" style="font-family: 'Open Sans', verdana, arial, sans-serif; font-size: 12px; fill: rgb(42, 63, 95); fill-opacity: 1; white-space: pre; opacity: 1;" transform="translate(457.61,0)">Mar 2024</text></g><g class="xtick"><text text-anchor="middle" x="0" y="732.9999999999999" style="font-family: 'Open Sans', verdana, arial, sans-serif; font-size: 12px; fill: rgb(42, 63, 95); fill-opacity: 1; white-space: pre; opacity: 1;" transform="translate(587.75,0)">May 2024</text></g></g><g class="yaxislayer-above"><g class="ytick"><text text-anchor="end" x="79" y="4.199999999999999" transform="translate(0,679.56)" style="font-family: 'Open Sans', verdana, arial, sans-serif; font-size: 12px; fill: rgb(42, 63, 95); fill-opacity: 1; white-space: pre; opacity: 1;">−20k</text></g><g class="ytick"><text text-anchor="end" x="79" y="4.199999999999999" style="font-family: 'Open Sans', verdana, arial, sans-serif; font-size: 12px; fill: rgb(42, 63, 95); fill-opacity: 1; white-space: pre; opacity: 1;" transform="translate(0,638.3999999999999)">0</text></g></g><g class="overaxes-above"/></g><g class="subplot x2y2"><g class="layer-subplot"><g class="shapelayer"/><g class="imagelayer"/></g><g class="minor-gridlayer"><g class="x2"/><g class="y2"/></g><g class="gridlayer"><g class="x2"><path class="x2grid crisp" transform="translate(199.47,0)" d="M0,467.88v116.16" style="stroke: rgb(255, 255, 255); stroke-opacity: 1; stroke-width: 1px;"/><path class="x2grid crisp" transform="translate(329.61,0)" d="M0,467.88v116.16" style="stroke: rgb(255, 255, 255); stroke-opacity: 1; stroke-width: 1px;"/><path class="x2grid crisp" transform="translate(457.61,0)" d="M0,467.88v116.16" style="stroke: rgb(255, 255, 255); stroke-opacity: 1; stroke-width: 1px;"/><path class="x2grid crisp" transform="translate(587.75,0)" d="M0,467.88v116.16" style="stroke: rgb(255, 255, 255); stroke-opacity: 1; stroke-width: 1px;"/></g><g class="y2"><path class="y2grid crisp" transform="translate(0,535.72)" d="M80,0h518.42" style="stroke: rgb(255, 255, 255); stroke-opacity: 1; stroke-width: 1px;"/><path class="y2grid crisp" transform="translate(0,492.65999999999997)" d="M80,0h518.42" style="stroke: rgb(255, 255, 255); stroke-opacity: 1; stroke-width: 1px;"/></g></g><g class="zerolinelayer"><path class="y2zl zl crisp" transform="translate(0,578.77)" d="M80,0h518.42" style="stroke: rgb(255, 255, 255); stroke-opacity: 1; stroke-width: 2px;"/></g><path class="xlines-below"/><path class="ylines-below"/><g class="overlines-below"/><g class="xaxislayer-below"/><g class="yaxislayer-below"/><g class="overaxes-below"/><g class="plot" transform="translate(80,467.88)" clip-path="url(#clipb0ecbex2y2plot)"><g class="scatterlayer mlayer"><g class="trace scatter trace433317" style="stroke-miterlimit: 2; opacity: 1;"><g class="fills"/><g class="errorbars"/><g class="lines"><path class="js-line" d="M258.14,110.35H258.14V109.53H300.81V108.53H324.28V106.79H326.41V105.77H334.95V102.78H337.08V100.95H337.08V101.58H343.48V98.46H347.75V97.21H349.88V95.15H354.15V93.34H356.28V87.7H373.35V86.63H377.61V82.33H381.88V77.31H396.82V75.16H405.35V73.86H407.48V72.14H422.42V69.99H452.28V5.81" style="vector-effect: none; fill: none; stroke: rgb(255, 102, 146); stroke-opacity: 1; stroke-width: 2px; opacity: 1;"/></g><g class="points"/><g class="text"/></g></g></g><g class="overplot"/><path class="xlines-above crisp" style="fill: none;" d="M0,0"/><path class="ylines-above crisp" style="fill: none;" d="M0,0"/><g class="overlines-above"/><g class="xaxislayer-above"/><g class="yaxislayer-above"><g class="y2tick"><text text-anchor="end" x="79" y="4.199999999999999" transform="translate(0,578.77)" style="font-family: 'Open Sans', verdana, arial, sans-serif; font-size: 12px; fill: rgb(42, 63, 95); fill-opacity: 1; white-space: pre; opacity: 1;">0</text></g><g class="y2tick"><text text-anchor="end" x="79" y="4.199999999999999" style="font-family: 'Open Sans', verdana, arial, sans-serif; font-size: 12px; fill: rgb(42, 63, 95); fill-opacity: 1; white-space: pre; opacity: 1;" transform="translate(0,535.72)">10k</text></g><g class="y2tick"><text text-anchor="end" x="79" y="4.199999999999999" style="font-family: 'Open Sans', verdana, arial, sans-serif; font-size: 12px; fill: rgb(42, 63, 95); fill-opacity: 1; white-space: pre; opacity: 1;" transform="translate(0,492.65999999999997)">20k</text></g></g><g class="overaxes-above"/></g><g class="subplot x3y3"><g class="layer-subplot"><g class="shapelayer"/><g class="imagelayer"/></g><g class="minor-gridlayer"><g class="x3"/><g class="y3"/></g><g class="gridlayer"><g class="x3"><path class="x3grid crisp" transform="translate(199.47,0)" d="M0,331.91999999999996v116.16000000000003" style="stroke: rgb(255, 255, 255); stroke-opacity: 1; stroke-width: 1px;"/><path class="x3grid crisp" transform="translate(329.61,0)" d="M0,331.91999999999996v116.16000000000003" style="stroke: rgb(255, 255, 255); stroke-opacity: 1; stroke-width: 1px;"/><path class="x3grid crisp" transform="translate(457.61,0)" d="M0,331.91999999999996v116.16000000000003" style="stroke: rgb(255, 255, 255); stroke-opacity: 1; stroke-width: 1px;"/><path class="x3grid crisp" transform="translate(587.75,0)" d="M0,331.91999999999996v116.16000000000003" style="stroke: rgb(255, 255, 255); stroke-opacity: 1; stroke-width: 1px;"/></g><g class="y3"><path class="y3grid crisp" transform="translate(0,411.90999999999997)" d="M80,0h518.42" style="stroke: rgb(255, 255, 255); stroke-opacity: 1; stroke-width: 1px;"/><path class="y3grid crisp" transform="translate(0,374.19999999999993)" d="M80,0h518.42" style="stroke: rgb(255, 255, 255); stroke-opacity: 1; stroke-width: 1px;"/><path class="y3grid crisp" transform="translate(0,336.47999999999996)" d="M80,0h518.42" style="stroke: rgb(255, 255, 255); stroke-opacity: 1; stroke-width: 1px;"/></g></g><g class="zerolinelayer"/><path class="xlines-below"/><path class="ylines-below"/><g class="overlines-below"/><g class="xaxislayer-below"/><g class="yaxislayer-below"/><g class="overaxes-below"/><g class="plot" transform="translate(80,331.91999999999996)" clip-path="url(#clipb0ecbex3y3plot)"><g class="scatterlayer mlayer"><g class="trace scatter tracee6575b" style="stroke-miterlimit: 2; opacity: 1;"><g class="fills"/><g class="errorbars"/><g class="lines"><path class="js-line" d="M279.48,110.35H281.61V110.35H283.74V107.73H285.88V107.73H288.01V84.46H290.14V77.07H292.28V63.68H294.41V63.39H296.54V55.74H298.68V55.74H300.81V45.1H302.95V39.19H305.08V35.06H307.21V22.56H309.35V18.88H311.48V18.04H313.61V67.79H315.75V61.73H317.88V61.21H320.01V48.88H322.15V44.34H324.28V41.69H326.41V40.78H328.55V38.21H330.68V37.75H332.81V35.65H334.95V30.41H337.08V21.28H339.21V5.81H341.35V13.67H343.48V13.67H345.61V12.7H347.75V10.76H349.88V11.15H352.01V11.1H358.41V11.06H358.41V11.06H452.28V44.71" style="vector-effect: none; fill: none; stroke: rgb(25, 211, 243); stroke-opacity: 1; stroke-width: 2px; opacity: 1;"/></g><g class="points"/><g class="text"/></g><g class="trace scatter tracea8d43e" style="stroke-miterlimit: 2; opacity: 1;"><g class="fills"/><g class="errorbars"/><g class="lines"><path class="js-line" d="M343.48,93H345.61V86.91H347.75V84.43H349.88V77.74H352.01V77.47H354.15V73.58H358.41V70.84H364.81V64.27H369.08V57.97H379.75V49.23H381.88V48.11H386.15V44.64H392.55V72.74H407.48V66.28H418.15V51.34H452.28V80.05" style="vector-effect: none; fill: none; stroke: rgb(182, 232, 128); stroke-opacity: 1; stroke-width: 2px; opacity: 1;"/></g><g class="points"/><g class="text"/></g></g></g><g class="overplot"/><path class="xlines-above crisp" style="fill: none;" d="M0,0"/><path class="ylines-above crisp" style="fill: none;" d="M0,0"/><g class="overlines-above"/><g class="xaxislayer-above"/><g class="yaxislayer-above"><g class="y3tick"><text text-anchor="end" x="79" y="4.199999999999999" transform="translate(0,411.90999999999997)" style="font-family: 'Open Sans', verdana, arial, sans-serif; font-size: 12px; fill: rgb(42, 63, 95); fill-opacity: 1; white-space: pre; opacity: 1;">5k</text></g><g class="y3tick"><text text-anchor="end" x="79" y="4.199999999999999" style="font-family: 'Open Sans', verdana, arial, sans-serif; font-size: 12px; fill: rgb(42, 63, 95); fill-opacity: 1; white-space: pre; opacity: 1;" transform="translate(0,374.19999999999993)">10k</text></g><g class="y3tick"><text text-anchor="end" x="79" y="4.199999999999999" style="font-family: 'Open Sans', verdana, arial, sans-serif; font-size: 12px; fill: rgb(42, 63, 95); fill-opacity: 1; white-space: pre; opacity: 1;" transform="translate(0,336.47999999999996)">15k</text></g></g><g class="overaxes-above"/></g><g class="subplot x4y4"><g class="layer-subplot"><g class="shapelayer"/><g class="imagelayer"/></g><g class="minor-gridlayer"><g class="x4"/><g class="y4"/></g><g class="gridlayer"><g class="x4"><path class="x4grid crisp" transform="translate(199.47,0)" d="M0,195.95999999999998v116.16000000000003" style="stroke: rgb(255, 255, 255); stroke-opacity: 1; stroke-width: 1px;"/><path class="x4grid crisp" transform="translate(329.61,0)" d="M0,195.95999999999998v116.16000000000003" style="stroke: rgb(255, 255, 255); stroke-opacity: 1; stroke-width: 1px;"/><path class="x4grid crisp" transform="translate(457.61,0)" d="M0,195.95999999999998v116.16000000000003" style="stroke: rgb(255, 255, 255); stroke-opacity: 1; stroke-width: 1px;"/><path class="x4grid crisp" transform="translate(587.75,0)" d="M0,195.95999999999998v116.16000000000003" style="stroke: rgb(255, 255, 255); stroke-opacity: 1; stroke-width: 1px;"/></g><g class="y4"><path class="y4grid crisp" transform="translate(0,306.11)" d="M80,0h518.42" style="stroke: rgb(255, 255, 255); stroke-opacity: 1; stroke-width: 1px;"/><path class="y4grid crisp" transform="translate(0,280.66999999999996)" d="M80,0h518.42" style="stroke: rgb(255, 255, 255); stroke-opacity: 1; stroke-width: 1px;"/><path class="y4grid crisp" transform="translate(0,255.23999999999998)" d="M80,0h518.42" style="stroke: rgb(255, 255, 255); stroke-opacity: 1; stroke-width: 1px;"/><path class="y4grid crisp" transform="translate(0,229.79999999999998)" d="M80,0h518.42" style="stroke: rgb(255, 255, 255); stroke-opacity: 1; stroke-width: 1px;"/><path class="y4grid crisp" transform="translate(0,204.35999999999999)" d="M80,0h518.42" style="stroke: rgb(255, 255, 255); stroke-opacity: 1; stroke-width: 1px;"/></g></g><g class="zerolinelayer"/><path class="xlines-below"/><path class="ylines-below"/><g class="overlines-below"/><g class="xaxislayer-below"/><g class="yaxislayer-below"/><g class="overaxes-below"/><g class="plot" transform="translate(80,195.95999999999998)" clip-path="url(#clipb0ecbex4y4plot)"><g class="scatterlayer mlayer"><g class="trace scatter tracef5f97d" style="stroke-miterlimit: 2; opacity: 1;"><g class="fills"/><g class="errorbars"/><g class="lines"><path class="js-line" d="M236.81,105.37H238.94V76.72H241.08V50.68H245.34V31.24H251.74V5.81" style="vector-effect: none; fill: none; stroke: rgb(171, 99, 250); stroke-opacity: 1; stroke-width: 2px; opacity: 1;"/></g><g class="points"/><g class="text"/></g><g class="trace scatter trace83ef0c" style="stroke-miterlimit: 2; opacity: 1;"><g class="fills"/><g class="errorbars"/><g class="lines"><path class="js-line" d="M125.87,74.38H128V110.35" style="vector-effect: none; fill: none; stroke: rgb(255, 151, 255); stroke-opacity: 1; stroke-width: 2px; opacity: 1;"/></g><g class="points"/><g class="text"/></g></g></g><g class="overplot"/><path class="xlines-above crisp" style="fill: none;" d="M0,0"/><path class="ylines-above crisp" style="fill: none;" d="M0,0"/><g class="overlines-above"/><g class="xaxislayer-above"/><g class="yaxislayer-above"><g class="y4tick"><text text-anchor="end" x="79" y="4.199999999999999" transform="translate(0,306.11)" style="font-family: 'Open Sans', verdana, arial, sans-serif; font-size: 12px; fill: rgb(42, 63, 95); fill-opacity: 1; white-space: pre; opacity: 1;">1000</text></g><g class="y4tick"><text text-anchor="end" x="79" y="4.199999999999999" style="font-family: 'Open Sans', verdana, arial, sans-serif; font-size: 12px; fill: rgb(42, 63, 95); fill-opacity: 1; white-space: pre; opacity: 1;" transform="translate(0,280.66999999999996)">1500</text></g><g class="y4tick"><text text-anchor="end" x="79" y="4.199999999999999" style="font-family: 'Open Sans', verdana, arial, sans-serif; font-size: 12px; fill: rgb(42, 63, 95); fill-opacity: 1; white-space: pre; opacity: 1;" transform="translate(0,255.23999999999998)">2000</text></g><g class="y4tick"><text text-anchor="end" x="79" y="4.199999999999999" style="font-family: 'Open Sans', verdana, arial, sans-serif; font-size: 12px; fill: rgb(42, 63, 95); fill-opacity: 1; white-space: pre; opacity: 1;" transform="translate(0,229.79999999999998)">2500</text></g><g class="y4tick"><text text-anchor="end" x="79" y="4.199999999999999" style="font-family: 'Open Sans', verdana, arial, sans-serif; font-size: 12px; fill: rgb(42, 63, 95); fill-opacity: 1; white-space: pre; opacity: 1;" transform="translate(0,204.35999999999999)">3000</text></g></g><g class="overaxes-above"/></g><g class="subplot x5y5"><g class="layer-subplot"><g class="shapelayer"/><g class="imagelayer"/></g><g class="minor-gridlayer"><g class="x5"/><g class="y5"/></g><g class="gridlayer"><g class="x5"><path class="x5grid crisp" transform="translate(199.47,0)" d="M0,60v116.15999999999995" style="stroke: rgb(255, 255, 255); stroke-opacity: 1; stroke-width: 1px;"/><path class="x5grid crisp" transform="translate(329.61,0)" d="M0,60v116.15999999999995" style="stroke: rgb(255, 255, 255); stroke-opacity: 1; stroke-width: 1px;"/><path class="x5grid crisp" transform="translate(457.61,0)" d="M0,60v116.15999999999995" style="stroke: rgb(255, 255, 255); stroke-opacity: 1; stroke-width: 1px;"/><path class="x5grid crisp" transform="translate(587.75,0)" d="M0,60v116.15999999999995" style="stroke: rgb(255, 255, 255); stroke-opacity: 1; stroke-width: 1px;"/></g><g class="y5"><path class="y5grid crisp" transform="translate(0,145.65)" d="M80,0h518.42" style="stroke: rgb(255, 255, 255); stroke-opacity: 1; stroke-width: 1px;"/><path class="y5grid crisp" transform="translate(0,119.72)" d="M80,0h518.42" style="stroke: rgb(255, 255, 255); stroke-opacity: 1; stroke-width: 1px;"/><path class="y5grid crisp" transform="translate(0,93.78999999999999)" d="M80,0h518.42" style="stroke: rgb(255, 255, 255); stroke-opacity: 1; stroke-width: 1px;"/><path class="y5grid crisp" transform="translate(0,67.86)" d="M80,0h518.42" style="stroke: rgb(255, 255, 255); stroke-opacity: 1; stroke-width: 1px;"/></g></g><g class="zerolinelayer"><path class="y5zl zl crisp" transform="translate(0,171.57999999999998)" d="M80,0h518.42" style="stroke: rgb(255, 255, 255); stroke-opacity: 1; stroke-width: 2px;"/></g><path class="xlines-below"/><path class="ylines-below"/><g class="overlines-below"/><g class="xaxislayer-below"/><g class="yaxislayer-below"/><g class="overaxes-below"/><g class="plot" transform="translate(80,60)" clip-path="url(#clipb0ecbex5y5plot)"><g class="scatterlayer mlayer"><g class="trace scatter trace858b38" style="stroke-miterlimit: 2; opacity: 1;"><g class="fills"/><g class="errorbars"/><g class="lines"><path class="js-line" d="M19.2,100.33H21.33V100.18H23.47V99.5H36.27V98.8H38.4V98.09H74.67V97.45H76.8V96.79H81.07V96.08H83.2V95.38H96V94.78H98.14V93.99H113.07V93.34H115.2V92.67H134.41V91.95H140.81V91.24H142.94V89.96H155.74V89.25H164.27V88.6H172.81V87.28H185.61V86.47H194.14V85.36H196.27V84.67H202.67V83.98H204.81V83.3H215.47V82.63H217.61V81.14H221.88V80.49H224.01V79.52H228.28V78.91H230.41V77.94H236.81V77.29H238.94V76.38H243.21V75.54" style="vector-effect: none; fill: none; stroke: rgb(99, 110, 250); stroke-opacity: 1; stroke-width: 2px; opacity: 1;"/></g><g class="points"/><g class="text"/></g><g class="trace scatter trace1e4e49" style="stroke-miterlimit: 2; opacity: 1;"><g class="fills"/><g class="errorbars"/><g class="lines"><path class="js-line" d="M0,66.82H2.13V66.88H4.27V72.89H6.4V70.73H8.53V68.5H17.07V63.09H21.33V61.39H345.61V110.35H347.75V106.87H349.88V95.15H352.01V93.69H354.15V85.41H356.28V69H358.41V66.3H360.55V62.12H364.81V59.18H366.95V58.98H373.35V58.17H375.48V57.43H381.88V56.78H384.01V56.15H388.28V55.42H392.55V54.69H394.68V53.99H396.82V52.76H398.95V51.28H401.08V50.53H403.22V49.45H405.35V48.73H407.48V48.01H409.62V47.17H411.75V46.5H413.88V45.8H418.15V45.51H420.28V45.15H422.42V44.39H424.55V43.08H426.68V41.59H433.08V40.93H435.22V40.28H437.35V39.62H439.48V38.97H441.62V38.37H445.88V37.66H452.28V37.13H454.42V35.68H458.68V32.93H460.82V31.53H462.95V30.86H462.95V30.16H465.08V28.73H467.22V27.14H469.35V25.79H471.48V24.3H473.62V21.28H475.75V19.94H477.89V19.2H480.02V16.2H482.15V13.84H484.29V12.22H486.42V10.8H488.55V8.62H490.69V7.63H492.82V7.59H494.95V5.81" style="vector-effect: none; fill: none; stroke: rgb(239, 85, 59); stroke-opacity: 1; stroke-width: 2px; opacity: 1;"/></g><g class="points"/><g class="text"/></g><g class="trace scatter trace102287" style="stroke-miterlimit: 2; opacity: 1;"><g class="fills"/><g class="errorbars"/><g class="lines"><path class="js-line" d="M230.41,105.12H232.54V103.64H234.68V102.95H238.94V102.06H243.21V101.38H245.34V100.72H247.48V99.87H249.61V98.53H251.74V97.83H256.01V97.14H260.28V96.1H262.41V95.43H266.68V94.74H270.94V94.14H275.21V93.46H277.34V92.8H279.48V92.15H283.74V91.46H290.14V90.96H292.28V90.22H296.54V89.79H302.95V89.02H305.08V87.8H307.21V87.15H309.35V93.51H328.55V108.24" style="vector-effect: none; fill: none; stroke: rgb(0, 204, 150); stroke-opacity: 1; stroke-width: 2px; opacity: 1;"/></g><g class="points"/><g class="text"/></g><g class="trace scatter trace37af1c" style="stroke-miterlimit: 2; opacity: 1;"><g class="fills"/><g class="errorbars"/><g class="lines"><path class="js-line" d="M507.75,70.47H514.15V70.65H516.29V71.04" style="vector-effect: none; fill: none; stroke: rgb(255, 161, 90); stroke-opacity: 1; stroke-width: 2px; opacity: 1;"/></g><g class="points"/><g class="text"/></g></g></g><g class="overplot"/><path class="xlines-above crisp" style="fill: none;" d="M0,0"/><path class="ylines-above crisp" style="fill: none;" d="M0,0"/><g class="overlines-above"/><g class="xaxislayer-above"/><g class="yaxislayer-above"><g class="y5tick"><text text-anchor="end" x="79" y="4.199999999999999" transform="translate(0,171.57999999999998)" style="font-family: 'Open Sans', verdana, arial, sans-serif; font-size: 12px; fill: rgb(42, 63, 95); fill-opacity: 1; white-space: pre; opacity: 1;">0</text></g><g class="y5tick"><text text-anchor="end" x="79" y="4.199999999999999" style="font-family: 'Open Sans', verdana, arial, sans-serif; font-size: 12px; fill: rgb(42, 63, 95); fill-opacity: 1; white-space: pre; opacity: 1;" transform="translate(0,145.65)">20k</text></g><g class="y5tick"><text text-anchor="end" x="79" y="4.199999999999999" style="font-family: 'Open Sans', verdana, arial, sans-serif; font-size: 12px; fill: rgb(42, 63, 95); fill-opacity: 1; white-space: pre; opacity: 1;" transform="translate(0,119.72)">40k</text></g><g class="y5tick"><text text-anchor="end" x="79" y="4.199999999999999" style="font-family: 'Open Sans', verdana, arial, sans-serif; font-size: 12px; fill: rgb(42, 63, 95); fill-opacity: 1; white-space: pre; opacity: 1;" transform="translate(0,93.78999999999999)">60k</text></g><g class="y5tick"><text text-anchor="end" x="79" y="4.199999999999999" style="font-family: 'Open Sans', verdana, arial, sans-serif; font-size: 12px; fill: rgb(42, 63, 95); fill-opacity: 1; white-space: pre; opacity: 1;" transform="translate(0,67.86)">80k</text></g></g><g class="overaxes-above"/></g></g><g class="polarlayer"/><g class="smithlayer"/><g class="ternarylayer"/><g class="geolayer"/><g class="funnelarealayer"/><g class="pielayer"/><g class="iciclelayer"/><g class="treemaplayer"/><g class="sunburstlayer"/><g class="glimages"/><defs id="topdefs-b0ecbe"><g class="clips"/><clipPath id="legendb0ecbe"><rect width="168" height="219" x="0" y="0"/></clipPath></defs><g class="layer-above"><g class="imagelayer"/><g class="shapelayer"/></g><g class="infolayer"><g class="legend" pointer-events="all" transform="translate(619.58,60)"><rect class="bg" shape-rendering="crispEdges" style="stroke: rgb(68, 68, 68); stroke-opacity: 1; fill: rgb(255, 255, 255); fill-opacity: 1; stroke-width: 0px;" width="168" height="219" x="0" y="0"/><g class="scrollbox" transform="" clip-path="url(#legendb0ecbe)"><text class="legendtitletext" text-anchor="start" x="2" y="18.2" style="font-family: 'Open Sans', verdana, arial, sans-serif; font-size: 14px; fill: rgb(42, 63, 95); fill-opacity: 1; white-space: pre;">title</text><g class="groups" transform=""><g class="traces" transform="translate(0,32.7)" style="opacity: 1;"><text class="legendtext" text-anchor="start" x="40" y="4.680000000000001" style="font-family: 'Open Sans', verdana, arial, sans-serif; font-size: 12px; fill: rgb(42, 63, 95); fill-opacity: 1; white-space: pre;">All the Other Santas</text><g class="layers" style="opacity: 1;"><g class="legendfill"/><g class="legendlines"><path class="js-line" d="M5,0h30" style="fill: none; stroke: rgb(99, 110, 250); stroke-opacity: 1; stroke-width: 2px;"/></g><g class="legendsymbols"><g class="legendpoints"/></g></g><rect class="legendtoggle" x="0" y="-9.5" width="162.15625" height="19" style="fill: rgb(0, 0, 0); fill-opacity: 0;"/></g></g><g class="groups" transform=""><g class="traces" transform="translate(0,51.7)" style="opacity: 1;"><text class="legendtext" text-anchor="start" x="40" y="4.680000000000001" style="font-family: 'Open Sans', verdana, arial, sans-serif; font-size: 12px; fill: rgb(42, 63, 95); fill-opacity: 1; white-space: pre;">Iffy</text><g class="layers" style="opacity: 1;"><g class="legendfill"/><g class="legendlines"><path class="js-line" d="M5,0h30" style="fill: none; stroke: rgb(239, 85, 59); stroke-opacity: 1; stroke-width: 2px;"/></g><g class="legendsymbols"><g class="legendpoints"/></g></g><rect class="legendtoggle" x="0" y="-9.5" width="162.15625" height="19" style="fill: rgb(0, 0, 0); fill-opacity: 0;"/></g></g><g class="groups" transform=""><g class="traces" transform="translate(0,70.7)" style="opacity: 1;"><text class="legendtext" text-anchor="start" x="40" y="4.680000000000001" style="font-family: 'Open Sans', verdana, arial, sans-serif; font-size: 12px; fill: rgb(42, 63, 95); fill-opacity: 1; white-space: pre;">In Heck</text><g class="layers" style="opacity: 1;"><g class="legendfill"/><g class="legendlines"><path class="js-line" d="M5,0h30" style="fill: none; stroke: rgb(0, 204, 150); stroke-opacity: 1; stroke-width: 2px;"/></g><g class="legendsymbols"><g class="legendpoints"/></g></g><rect class="legendtoggle" x="0" y="-9.5" width="162.15625" height="19" style="fill: rgb(0, 0, 0); fill-opacity: 0;"/></g></g><g class="groups" transform=""><g class="traces" transform="translate(0,89.7)" style="opacity: 1;"><text class="legendtext" text-anchor="start" x="40" y="4.680000000000001" style="font-family: 'Open Sans', verdana, arial, sans-serif; font-size: 12px; fill: rgb(42, 63, 95); fill-opacity: 1; white-space: pre;">Leaderboard</text><g class="layers" style="opacity: 1;"><g class="legendfill"/><g class="legendlines"><path class="js-line" d="M5,0h30" style="fill: none; stroke: rgb(171, 99, 250); stroke-opacity: 1; stroke-width: 2px;"/></g><g class="legendsymbols"><g class="legendpoints"/></g></g><rect class="legendtoggle" x="0" y="-9.5" width="162.15625" height="19" style="fill: rgb(0, 0, 0); fill-opacity: 0;"/></g></g><g class="groups" transform=""><g class="traces" transform="translate(0,108.7)" style="opacity: 1;"><text class="legendtext" text-anchor="start" x="40" y="4.680000000000001" style="font-family: 'Open Sans', verdana, arial, sans-serif; font-size: 12px; fill: rgb(42, 63, 95); fill-opacity: 1; white-space: pre;">Maddy Roo</text><g class="layers" style="opacity: 1;"><g class="legendfill"/><g class="legendlines"><path class="js-line" d="M5,0h30" style="fill: none; stroke: rgb(255, 161, 90); stroke-opacity: 1; stroke-width: 2px;"/></g><g class="legendsymbols"><g class="legendpoints"/></g></g><rect class="legendtoggle" x="0" y="-9.5" width="162.15625" height="19" style="fill: rgb(0, 0, 0); fill-opacity: 0;"/></g></g><g class="groups" transform=""><g class="traces" transform="translate(0,127.7)" style="opacity: 1;"><text class="legendtext" text-anchor="start" x="40" y="4.680000000000001" style="font-family: 'Open Sans', verdana, arial, sans-serif; font-size: 12px; fill: rgb(42, 63, 95); fill-opacity: 1; white-space: pre;">SQL Tutorial</text><g class="layers" style="opacity: 1;"><g class="legendfill"/><g class="legendlines"><path class="js-line" d="M5,0h30" style="fill: none; stroke: rgb(25, 211, 243); stroke-opacity: 1; stroke-width: 2px;"/></g><g class="legendsymbols"><g class="legendpoints"/></g></g><rect class="legendtoggle" x="0" y="-9.5" width="162.15625" height="19" style="fill: rgb(0, 0, 0); fill-opacity: 0;"/></g></g><g class="groups" transform=""><g class="traces" transform="translate(0,146.7)" style="opacity: 1;"><text class="legendtext" text-anchor="start" x="40" y="4.680000000000001" style="font-family: 'Open Sans', verdana, arial, sans-serif; font-size: 12px; fill: rgb(42, 63, 95); fill-opacity: 1; white-space: pre;">Scribophile</text><g class="layers" style="opacity: 1;"><g class="legendfill"/><g class="legendlines"><path class="js-line" d="M5,0h30" style="fill: none; stroke: rgb(255, 102, 146); stroke-opacity: 1; stroke-width: 2px;"/></g><g class="legendsymbols"><g class="legendpoints"/></g></g><rect class="legendtoggle" x="0" y="-9.5" width="162.15625" height="19" style="fill: rgb(0, 0, 0); fill-opacity: 0;"/></g></g><g class="groups" transform=""><g class="traces" transform="translate(0,165.7)" style="opacity: 1;"><text class="legendtext" text-anchor="start" x="40" y="4.680000000000001" style="font-family: 'Open Sans', verdana, arial, sans-serif; font-size: 12px; fill: rgb(42, 63, 95); fill-opacity: 1; white-space: pre;">System Tutorial</text><g class="layers" style="opacity: 1;"><g class="legendfill"/><g class="legendlines"><path class="js-line" d="M5,0h30" style="fill: none; stroke: rgb(182, 232, 128); stroke-opacity: 1; stroke-width: 2px;"/></g><g class="legendsymbols"><g class="legendpoints"/></g></g><rect class="legendtoggle" x="0" y="-9.5" width="162.15625" height="19" style="fill: rgb(0, 0, 0); fill-opacity: 0;"/></g></g><g class="groups" transform=""><g class="traces" transform="translate(0,184.7)" style="opacity: 1;"><text class="legendtext" text-anchor="start" x="40" y="4.680000000000001" style="font-family: 'Open Sans', verdana, arial, sans-serif; font-size: 12px; fill: rgb(42, 63, 95); fill-opacity: 1; white-space: pre;">Tuppence a Bag</text><g class="layers" style="opacity: 1;"><g class="legendfill"/><g class="legendlines"><path class="js-line" d="M5,0h30" style="fill: none; stroke: rgb(255, 151, 255); stroke-opacity: 1; stroke-width: 2px;"/></g><g class="legendsymbols"><g class="legendpoints"/></g></g><rect class="legendtoggle" x="0" y="-9.5" width="162.15625" height="19" style="fill: rgb(0, 0, 0); fill-opacity: 0;"/></g></g><g class="groups" transform=""><g class="traces" transform="translate(0,203.7)" style="opacity: 1;"><text class="legendtext" text-anchor="start" x="40" y="4.680000000000001" style="font-family: 'Open Sans', verdana, arial, sans-serif; font-size: 12px; fill: rgb(42, 63, 95); fill-opacity: 1; white-space: pre;">change</text><g class="layers" style="opacity: 1;"><g class="legendfill"/><g class="legendlines"><path class="js-line" d="M5,0h30" style="fill: none; stroke: rgb(254, 203, 82); stroke-opacity: 1; stroke-width: 2px;"/></g><g class="legendsymbols"><g class="legendpoints"/></g></g><rect class="legendtoggle" x="0" y="-9.5" width="162.15625" height="19" style="fill: rgb(0, 0, 0); fill-opacity: 0;"/></g></g></g><rect class="scrollbar" rx="20" ry="3" width="0" height="0" style="fill: rgb(128, 139, 164); fill-opacity: 1;" x="0" y="0"/></g><g class="g-gtitle"/><g class="g-xtitle"><text class="xtitle" x="339.21" y="759.8" text-anchor="middle" style="font-family: 'Open Sans', verdana, arial, sans-serif; font-size: 14px; fill: rgb(42, 63, 95); opacity: 1; font-weight: normal; white-space: pre;">date</text></g><g class="g-x2title"/><g class="g-x3title"/><g class="g-x4title"/><g class="g-x5title"/><g class="g-ytitle"><text class="ytitle" transform="rotate(-90,22.512500000000003,661.92)" x="22.512500000000003" y="661.92" text-anchor="middle" style="font-family: 'Open Sans', verdana, arial, sans-serif; font-size: 14px; fill: rgb(42, 63, 95); opacity: 1; font-weight: normal; white-space: pre;">words</text></g><g class="g-y2title"><text class="y2title" transform="rotate(-90,32.340625,525.96)" x="32.340625" y="525.96" text-anchor="middle" style="font-family: 'Open Sans', verdana, arial, sans-serif; font-size: 14px; fill: rgb(42, 63, 95); opacity: 1; font-weight: normal; white-space: pre;">words</text></g><g class="g-y3title"><text class="y3title" transform="rotate(-90,32.340625,390)" x="32.340625" y="390" text-anchor="middle" style="font-family: 'Open Sans', verdana, arial, sans-serif; font-size: 14px; fill: rgb(42, 63, 95); opacity: 1; font-weight: normal; white-space: pre;">words</text></g><g class="g-y4title"><text class="y4title" transform="rotate(-90,24.184375000000003,254.04)" x="24.184375000000003" y="254.04" text-anchor="middle" style="font-family: 'Open Sans', verdana, arial, sans-serif; font-size: 14px; fill: rgb(42, 63, 95); opacity: 1; font-weight: normal; white-space: pre;">words</text></g><g class="g-y5title"><text class="y5title" transform="rotate(-90,32.340625,118.07999999999998)" x="32.340625" y="118.07999999999998" text-anchor="middle" style="font-family: 'Open Sans', verdana, arial, sans-serif; font-size: 14px; fill: rgb(42, 63, 95); opacity: 1; font-weight: normal; white-space: pre;">words</text></g><g class="annotation" data-index="0" style="opacity: 1;"><g class="annotation-text-g" transform="rotate(90,607.92,661.9200000000001)"><g class="cursor-pointer" transform="translate(591,652)"><rect class="bg" x="0.5" y="0.5" width="33" height="18" style="stroke-width: 1px; stroke: rgb(0, 0, 0); stroke-opacity: 0; fill: rgb(0, 0, 0); fill-opacity: 0;"/><text class="annotation-text" text-anchor="middle" x="16.9375" y="14" style="font-family: 'Open Sans', verdana, arial, sans-serif; font-size: 12px; fill: rgb(42, 63, 95); fill-opacity: 1; white-space: pre;">delta</text></g></g></g><g class="annotation" data-index="1" style="opacity: 1;"><g class="annotation-text-g" transform="rotate(90,607.92,525.96)"><g class="cursor-pointer" transform="translate(586,516)"><rect class="bg" x="0.5" y="0.5" width="43" height="18" style="stroke-width: 1px; stroke: rgb(0, 0, 0); stroke-opacity: 0; fill: rgb(0, 0, 0); fill-opacity: 0;"/><text class="annotation-text" text-anchor="middle" x="21.828125" y="14" style="font-family: 'Open Sans', verdana, arial, sans-serif; font-size: 12px; fill: rgb(42, 63, 95); fill-opacity: 1; white-space: pre;">review</text></g></g></g><g class="annotation" data-index="2" style="opacity: 1;"><g class="annotation-text-g" transform="rotate(90,607.92,390)"><g class="cursor-pointer" transform="translate(600,381)"><rect class="bg" x="0.5" y="0.5" width="15" height="18" style="stroke-width: 1px; stroke: rgb(0, 0, 0); stroke-opacity: 0; fill: rgb(0, 0, 0); fill-opacity: 0;"/><text class="annotation-text" text-anchor="middle" x="7.90625" y="14" style="font-family: 'Open Sans', verdana, arial, sans-serif; font-size: 12px; fill: rgb(42, 63, 95); fill-opacity: 1; white-space: pre;">nf</text></g></g></g><g class="annotation" data-index="3" style="opacity: 1;"><g class="annotation-text-g" transform="rotate(90,607.92,254.04000000000002)"><g class="cursor-pointer" transform="translate(590,245)"><rect class="bg" x="0.5" y="0.5" width="34" height="18" style="stroke-width: 1px; stroke: rgb(0, 0, 0); stroke-opacity: 0; fill: rgb(0, 0, 0); fill-opacity: 0;"/><text class="annotation-text" text-anchor="middle" x="17.5" y="14" style="font-family: 'Open Sans', verdana, arial, sans-serif; font-size: 12px; fill: rgb(42, 63, 95); fill-opacity: 1; white-space: pre;">short</text></g></g></g><g class="annotation" data-index="4" style="opacity: 1;"><g class="annotation-text-g" transform="rotate(90,607.92,118.07999999999998)"><g class="cursor-pointer" transform="translate(599,109)"><rect class="bg" x="0.5" y="0.5" width="17" height="18" style="stroke-width: 1px; stroke: rgb(0, 0, 0); stroke-opacity: 0; fill: rgb(0, 0, 0); fill-opacity: 0;"/><text class="annotation-text" text-anchor="middle" x="9.15625" y="14" style="font-family: 'Open Sans', verdana, arial, sans-serif; font-size: 12px; fill: rgb(42, 63, 95); fill-opacity: 1; white-space: pre;">ya</text></g></g></g></g></svg>