<svg class="main-svg" xmlns="http://www.w3.org/2000/svg" xmlns:xlink="http://www.w3.org/1999/xlink" width="800" height="800" style="" viewBox="0 0 800 800"><rect x="0" y="0" width="800" height="800" style="fill: rgb(255, 255, 255); fill-opacity: 1;"/><defs id="defs-fa5fa7"><g class="clips"><clipPath id="clipfa5fa7xyplot" class="plotclip"><rect width="518.42" height="116.16000000000001"/></clipPath><clipPath id="clipfa5fa7x2y2plot" class="plotclip"><rect width="518.42" height="116.16"/></clipPath><clipPath id="clipfa5fa7x3y3plot" class="plotclip"><rect width="518.42" height="116.16000000000003"/></clipPath><clipPath id="clipfa5fa7x4y4plot" class="plotclip"><rect width="518.42" height="116.16000000000003"/></clipPath><clipPath id="clipfa5fa7x5y5plot" class="plotclip"><rect width="518.42" height="116.15999999999995"/></clipPath><clipPath class="axesclip" id="clipfa5fa7x"><rect x="80" y="0" width="518.42" height="800"/></clipPath><clipPath class="axesclip" id="clipfa5fa7y"><rect x="0" y="603.8399999999999" width="800" height="116.16000000000001"/></clipPath><clipPath class="axesclip" id="clipfa5fa7xy"><rect x="80" y="603.8399999999999" width="518.42" height="116.16000000000001"/></clipPath><clipPath class="axesclip" id="clipfa5fa7y2"><rect x="0" y="467.88" width="800" height="116.16"/></clipPath><clipPath class="axesclip" id="clipfa5fa7xy2"><rect x="80" y="467.88" width="518.42" height="116.16"/></clipPath><clipPath class="axesclip" id="clipfa5fa7y3"><rect x="0" y="331.91999999999996" width="800" height="116.16000000000003"/></clipPath><clipPath class="axesclip" id="clipfa5fa7xy3"><rect x="80" y="331.91999999999996" width="518.42" height="116.16000000000003"/></clipPath><clipPath class="axesclip" id="clipfa5fa7y4"><rect x="0" y="195.95999999999998" width="800" height="116.16000000000003"/></clipPath><clipPath class="axesclip" id="clipfa5fa7xy4"><rect x="80" y="195.95999999999998" width="518.42" height="116.16000000000003"/></clipPath><clipPath class="axesclip" id="clipfa5fa7y5"><rect x="0" y="60" width="800" height="116.15999999999995"/></clipPath><clipPath class="axesclip" id="clipfa5fa7xy5"><rect x="80" y="60" width="518.42" height="116.15999999999995"/></clipPath><clipPath class="axesclip" id="clipfa5fa7x2"><rect x="80" y="0" width="518.42" height="800"/></clipPath><clipPath class="axesclip" id="clipfa5fa7x2y"><rect x="80" y="603.8399999999999" width="518.42" height="116.16000000000001"/></clipPath><clipPath class="axesclip" id="clipfa5fa7x2y2"><rect x="80" y="467.88" width="518.42" height="116.16"/></clipPath><clipPath class="axesclip" id="clipfa5fa7x2y3"><rect x="80" y="331.91999999999996" width="518.42" height="116.16000000000003"/></clipPath><clipPath class="axesclip" id="clipfa5fa7x2y4"><rect x="80" y="195.95999999999998" width="518.42" height="116.16000000000003"/></clipPath><clipPath class="axesclip" id="clipfa5fa7x2y5"><rect x="80" y="60" width="518.42" height="116.15999999999995"/></clipPath><clipPath class="axesclip" id="clipfa5fa7x3"><rect x="80" y="0" width="518.42" height="800"/></clipPath><clipPath class="axesclip" id="clipfa5fa7x3y"><rect x="80" y="603.8399999999999" width="518.42" height="116.16000000000001"/></clipPath><clipPath class="axesclip" id="clipfa5fa7x3y2"><rect x="80" y="467.88" width="518.42" height="116.16"/></clipPath><clipPath class="axesclip" id="clipfa5fa7x3y3"><rect x="80" y="331.91999999999996" width="518.42" height="116.16000000000003"/></clipPath><clipPath class="axesclip" id="clipfa5fa7x3y4"><rect x="80" y="195.95999999999998" width="518.42" height="116.16000000000003"/></clipPath><clipPath class="axesclip" id="clipfa5fa7x3y5"><rect x="80" y="60" width="518.42" height="116.15999999999995"/></clipPath><clipPath class="axesclip" id="clipfa5fa7x4"><rect x="80" y="0" width="518.42" height="800"/></clipPath><clipPath class="axesclip" id="clipfa5fa7x4y"><rect x="80" y="603.8399999999999" width="518.42" height="116.16000000000001"/></clipPath><clipPath class="axesclip" id="clipfa5fa7x4y2"><rect x="80" y="467.88" width="518.42" height="116.16"/></clipPath><clipPath class="axesclip" id="clipfa5fa7x4y3"><rect x="80" y="331.91999999999996" width="518.42" height="116.16000000000003"/></clipPath><clipPath class="axesclip" id="clipfa5fa7x4y4"><rect x="80" y="195.95999999999998" width="518.42" height="116.16000000000003"/></clipPath><clipPath class="axesclip" id="clipfa5fa7x4y5"><rect x="80" y="60" width="518.42" height="116.15999999999995"/></clipPath><clipPath class="axesclip" id="clipfa5fa7x5"><rect x="80" y="0" width="518.42" height="800"/></clipPath><clipPath class="axesclip" id="clipfa5fa7x5y"><rect x="80" y="603.8399999999999" width="518.42" height="116.16000000000001"/></clipPath><clipPath class="axesclip" id="clipfa5fa7x5y2"><rect x="80" y="467.88" width="518.42" height="116.16"/></clipPath><clipPath class="axesclip" id="clipfa5fa7x5y3"><rect x="80" y="331.91999999999996" width="518.42" height="116.16000000000003"/></clipPath><clipPath class="axesclip" id="clipfa5fa7x5y4"><rect x="80" y="195.95999999999998" width="518.42" height="116.16000000000003"/></clipPath><clipPath class="axesclip" id="clipfa5fa7x5y5"><rect x="80" y="60" width="518.42" height="116.15999999999995"/></clipPath></g><g class="gradients"/><g class="patterns"/></defs><g class="bglayer"><rect class="bg" x="80" y="603.8399999999999" width="518.42" height="116.16000000000001" style="fill: rgb(229, 236, 246); fill-opacity: 1; stroke-width: 0;"/><rect class="bg" x="80" y="467.88" width="518.42" height="116.16" style="fill: rgb(229, 236, 246); fill-opacity: 1; stroke-width: 0;"/><rect class="bg" x="80" y="331.91999999999996" width="518.42" height="116.16000000000003" style="fill: rgb(229, 236, 246); fill-opacity: 1; stroke-width: 0;"/><rect class="bg" x="80" y="195.95999999999998" width="518.42" height="116.16000000000003" style="fill: rgb(229, 236, 246); fill-opacity: 1; stroke-width: 0;"/><rect class="bg" x="80" y="60" width="518.42" height="116.15999999999995" style="fill: rgb(229, 236, 246); fill-opacity: 1; stroke-width: 0;"/></g><g class="layer-below"><g class="imagelayer"/><g class="shapelayer"/></g><g class="cartesianlayer"><g class="subplot xy"><g class="layer-subplot"><g class="shapelayer"/><g class="imagelayer"/></g><g class="minor-gridlayer"><g class="x"/><g class="y"/></g><g class="gridlayer"><g class="x"><path class="xgrid crisp" transform="translate(138.38,0)" d="M0,603.8399999999999v116.16000000000001" style="stroke: rgb(255, 255, 255); stroke-opacity: 1; stroke-width: 1px;"/><path class="xgrid crisp" transform="translate(210.77,0)" d="M0,603.8399999999999v116.16000000000001" style="stroke: rgb(255, 255, 255); stroke-opacity: 1; stroke-width: 1px;"/><path class="xgrid crisp" transform="translate(280.83000000000004,0)" d="M0,603.8399999999999v116.16000000000001" style="stroke: rgb(255, 255, 255); stroke-opacity: 1; stroke-width: 1px;"/><path class="xgrid crisp" transform="translate(353.22,0)" d="M0,603.8399999999999v116.16000000000001" style="stroke: rgb(255, 255, 255); stroke-opacity: 1; stroke-width: 1px;"/><path class="xgrid crisp" transform="translate(425.61,0)" d="M0,603.8399999999999v116.16000000000001" style="stroke: rgb(255, 255, 255); stroke-opacity: 1; stroke-width: 1px;"/><path class="xgrid crisp" transform="translate(493.33,0)" d="M0,603.8399999999999v116.16000000000001" style="stroke: rgb(255, 255, 255); stroke-opacity: 1; stroke-width: 1px;"/><path class="xgrid crisp" transform="translate(565.73,0)" d="M0,603.8399999999999v116.16000000000001" style="stroke: rgb(255, 255, 255); stroke-opacity: 1; stroke-width: 1px;"/></g><g class="y"><path class="ygrid crisp" transform="translate(0,679.56)" d="M80,0h518.42" style="stroke: rgb(255, 255, 255); stroke-opacity: 1; stroke-width: 1px;"/></g></g><g class="zerolinelayer"><path class="yzl zl crisp" transform="translate(0,638.3999999999999)" d="M80,0h518.42" style="stroke: rgb(255, 255, 255); stroke-opacity: 1; stroke-width: 2px;"/></g><path class="xlines-below"/><path class="ylines-below"/><g class="overlines-below"/><g class="xaxislayer-below"/><g class="yaxislayer-below"/><g class="overaxes-below"/><g class="plot" transform="translate(80,603.8399999999999)" clip-path="url(#clipfa5fa7xyplot)"><g class="scatterlayer mlayer"><g class="trace scatter tracea9427b" style="stroke-miterlimit: 2; opacity: 1;"><g class="fills"/><g class="errorbars"/><g class="lines"><path class="js-line" d="M2.34,34.65H4.67V44.1H7.01V31.12H9.34V31.02H11.68V34.56H14.01V34.56H16.35V34.56H18.68V25.98H21.02V34.56H23.35V31.61H25.69V33.48H28.02V34.56H30.36V34.56H32.69V34.56H35.03V34.56H37.36V34.56H39.7V33.44H42.03V33.43H44.37V34.56H46.7V34.56H49.04V34.56H51.37V34.56H53.71V34.56H56.05V34.56H58.38V34.56H60.72V34.56H63.05V34.56H65.39V34.56H67.72V34.56H70.06V34.56H72.39V34.56H74.73V34.56H77.06V34.56H79.4V34.56H81.73V33.54H84.07V33.52H86.4V34.56H88.74V33.42H91.07V33.46H93.41V34.56H95.74V34.56H98.08V34.56H100.41V34.56H102.75V34.56H105.09V33.6H107.42V33.3H109.76V34.56H112.09V34.56H114.43V34.56H116.76V34.56H119.1V34.56H121.43V34.56H123.77V33.53H126.1V33.5H128.44V34.56H130.77V34.56H133.11V34.56H135.44V34.56H137.78V34.56H140.11V36.01H142.45V34.56H144.78V34.56H147.12V33.42H149.45V34.56H151.79V34.56H154.12V33.42H156.46V32.53H158.8V34.56H161.13V34.56H163.47V34.56H165.8V34.56H168.14V34.56H170.47V33.43H172.81V34.56H175.14V34.56H177.48V34.56H179.81V33.54H182.15V34.56H184.48V34.56H186.82V34.56H189.15V32.46H191.49V34.56H193.82V34.56H196.16V34.56H198.49V34.56H200.83V34.56H203.16V33.27H205.5V34.56H207.84V34.56H210.17V34.56H212.51V32.8H214.84V33.45H217.18V34.56H219.51V34.56H221.85V33.46H224.18V33.49H226.52V34.56H228.85V34.56H231.19V34.56H233.52V34.56H235.86V33.49H238.19V32.2H240.53V34.56H242.86V33.52H245.2V33.03H247.53V34.56H249.87V33.58H252.2V33.03H254.54V32.21H256.87V33.47H259.21V33.52H261.55V30.55H263.88V33.5H266.22V32.14H268.55V32.72H270.89V33.21H273.22V32.43H275.56V32.42H277.89V34.56H280.23V33.48H282.56V34.95H284.9V32.89H287.23V33.5H289.57V34.56H291.9V33.46H294.24V34.56H296.57V33.62H298.91V34.56H301.24V33.47H303.58V33.51H305.91V33.53H308.25V34.56H310.58V32.75H312.92V34.56H315.26V28.21H317.59V31.75H319.93V29.74H322.26V34.48H324.6V31.78H326.93V34.56H329.27V30.79H331.6V31.72H333.94V31.5H336.27V30.13H338.61V43.64H340.94V34.33H343.28V48.13H345.61V32.9H347.95V34.42H350.28V31.19H352.62V33.32H354.95V33H357.29V33.82H359.62V57.24H361.96V34.43H364.3V33.99H366.63V31.7H368.97V31.19H371.3V30.34H373.64V36.7H375.97V33.37H378.31V110.35H380.64V27.23H382.98V13.25H385.31V32.15H387.65V19.49H389.98V5.81H392.32V29.52H394.65V27.92H396.99V34.56H399.32V28.11H401.66V34.25H403.99V32.84H406.33V34.56H408.66V32.76H411V33.39H413.33V32.5H415.67V32.17H418.01V30.82H420.34V33.56H422.68V33.61H425.01V33.39H427.35V34.56H429.68V41.07H432.02V33.46H434.35V31.57H436.69V32.21H439.02V33.38H441.36V32.83H443.69V32.81H446.03V30.84H448.36V33.22H450.7V33.49H453.03V33.45H455.37V34.56H457.7V30.01H460.04V34H462.37V32.32H464.71V32.48H467.05V32.18H469.38V34.56H471.72V34.56H474.05V33.52H476.39V33.53H478.72V33.51H481.06V33.52H483.39V33.61H485.73V34.56H488.06V33.43H490.4V34.56H492.73V34.56H495.07V20.07H497.4V32.26H499.74V34.56H502.07V30.18H504.41V32.34H506.74V33.5H509.08V31.17H511.41V32.05H513.75V32.4H516.08V32.2" style="vector-effect: none; fill: none; stroke: rgb(255, 151, 255); stroke-opacity: 1; stroke-width: 2px; opacity: 1;"/></g><g class="points"/><g class="text"/></g></g></g><g class="overplot"/><path class="xlines-above crisp" style="fill: none;" d="M0,0"/><path class="ylines-above crisp" style="fill: none;" d="M0,0"/><g class="overlines-above"/><g class="xaxislayer-above"><g class="xtick"><text text-anchor="middle" x="0" y="732.9999999999999" transform="translate(138.38,0)" style="font-family: 'Open Sans', verdana, arial, sans-serif; font-size: 12px; fill: rgb(42, 63, 95); fill-opacity: 1; white-space: pre; opacity: 1;">Oct 2023</text></g><g class="xtick"><text text-anchor="middle" x="0" y="732.9999999999999" style="font-family: 'Open Sans', verdana, arial, sans-serif; font-size: 12px; fill: rgb(42, 63, 95); fill-opacity: 1; white-space: pre; opacity: 1;" transform="translate(210.77,0)">Nov 2023</text></g><g class="xtick"><text text-anchor="middle" x="0" y="732.9999999999999" style="font-family: 'Open Sans', verdana, arial, sans-serif; font-size: 12px; fill: rgb(42, 63, 95); fill-opacity: 1; white-space: pre; opacity: 1;" transform="translate(280.83000000000004,0)">Dec 2023</text></g><g class="xtick"><text text-anchor="middle" x="0" y="732.9999999999999" style="font-family: 'Open Sans', verdana, arial, sans-serif; font-size: 12px; fill: rgb(42, 63, 95); fill-opacity: 1; white-space: pre; opacity: 1;" transform="translate(353.22,0)">Jan 2024</text></g><g class="xtick"><text text-anchor="middle" x="0" y="732.9999999999999" style="font-family: 'Open Sans', verdana, arial, sans-serif; font-size: 12px; fill: rgb(42, 63, 95); fill-opacity: 1; white-space: pre; opacity: 1;" transform="translate(425.61,0)">Feb 2024</text></g><g class="xtick"><text text-anchor="middle" x="0" y="732.9999999999999" style="font-family: 'Open Sans', verdana, arial, sans-serif; font-size: 12px; fill: rgb(42, 63, 95); fill-opacity: 1; white-space: pre; opacity: 1;" transform="translate(493.33,0)">Mar 2024</text></g><g class="xtick"><text text-anchor="middle" x="0" y="732.9999999999999" style="font-family: 'Open Sans', verdana, arial, sans-serif; font-size: 12px; fill: rgb(42, 63, 95); fill-opacity: 1; white-space: pre; opacity: 1;" transform="translate(565.73,0)">Apr 2024</text></g></g><g class="yaxislayer-above"><g class="ytick"><text text-anchor="end" x="79" y="4.199999999999999" transform="translate(0,679.56)" style="font-family: 'Open Sans', verdana, arial, sans-serif; font-size: 12px; fill: rgb(42, 63, 95); fill-opacity: 1; white-space: pre; opacity: 1;">−20k</text></g><g class="ytick"><text text-anchor="end" x="79" y="4.199999999999999" style="font-family: 'Open Sans', verdana, arial, sans-serif; font-size: 12px; fill: rgb(42, 63, 95); fill-opacity: 1; white-space: pre; opacity: 1;" transform="translate(0,638.3999999999999)">0</text></g></g><g class="overaxes-above"/></g><g class="subplot x2y2"><g class="layer-subplot"><g class="shapelayer"/><g class="imagelayer"/></g><g class="minor-gridlayer"><g class="x2"/><g class="y2"/></g><g class="gridlayer"><g class="x2"><path class="x2grid crisp" transform="translate(138.38,0)" d="M0,467.88v116.16" style="stroke: rgb(255, 255, 255); stroke-opacity: 1; stroke-width: 1px;"/><path class="x2grid crisp" transform="translate(210.77,0)" d="M0,467.88v116.16" style="stroke: rgb(255, 255, 255); stroke-opacity: 1; stroke-width: 1px;"/><path class="x2grid crisp" transform="translate(280.83000000000004,0)" d="M0,467.88v116.16" style="stroke: rgb(255, 255, 255); stroke-opacity: 1; stroke-width: 1px;"/><path class="x2grid crisp" transform="translate(353.22,0)" d="M0,467.88v116.16" style="stroke: rgb(255, 255, 255); stroke-opacity: 1; stroke-width: 1px;"/><path class="x2grid crisp" transform="translate(425.61,0)" d="M0,467.88v116.16" style="stroke: rgb(255, 255, 255); stroke-opacity: 1; stroke-width: 1px;"/><path class="x2grid crisp" transform="translate(493.33,0)" d="M0,467.88v116.16" style="stroke: rgb(255, 255, 255); stroke-opacity: 1; stroke-width: 1px;"/><path class="x2grid crisp" transform="translate(565.73,0)" d="M0,467.88v116.16" style="stroke: rgb(255, 255, 255); stroke-opacity: 1; stroke-width: 1px;"/></g><g class="y2"><path class="y2grid crisp" transform="translate(0,535.72)" d="M80,0h518.42" style="stroke: rgb(255, 255, 255); stroke-opacity: 1; stroke-width: 1px;"/><path class="y2grid crisp" transform="translate(0,492.65999999999997)" d="M80,0h518.42" style="stroke: rgb(255, 255, 255); stroke-opacity: 1; stroke-width: 1px;"/></g></g><g class="zerolinelayer"><path class="y2zl zl crisp" transform="translate(0,578.77)" d="M80,0h518.42" style="stroke: rgb(255, 255, 255); stroke-opacity: 1; stroke-width: 2px;"/></g><path class="xlines-below"/><path class="ylines-below"/><g class="overlines-below"/><g class="xaxislayer-below"/><g class="yaxislayer-below"/><g class="overaxes-below"/><g class="plot" transform="translate(80,467.88)" clip-path="url(#clipfa5fa7x2y2plot)"><g class="scatterlayer mlayer"><g class="trace scatter trace9fe8b3" style="stroke-miterlimit: 2; opacity: 1;"><g class="fills"/><g class="errorbars"/><g class="lines"><path class="js-line" d="M282.56,109.53H282.56V110.35H329.27V108.53H354.95V106.79H357.29V105.77H366.63V102.78H368.97V101.58H368.97V100.95H375.97V98.46H380.64V97.21H382.98V95.15H387.65V93.34H389.98V87.7H408.66V86.63H413.33V82.33H418.01V77.31H434.35V75.16H443.69V73.86H446.03V72.14H462.37V69.99H495.07V5.81" style="vector-effect: none; fill: none; stroke: rgb(25, 211, 243); stroke-opacity: 1; stroke-width: 2px; opacity: 1;"/></g><g class="points"/><g class="text"/></g></g></g><g class="overplot"/><path class="xlines-above crisp" style="fill: none;" d="M0,0"/><path class="ylines-above crisp" style="fill: none;" d="M0,0"/><g class="overlines-above"/><g class="xaxislayer-above"/><g class="yaxislayer-above"><g class="y2tick"><text text-anchor="end" x="79" y="4.199999999999999" transform="translate(0,578.77)" style="font-family: 'Open Sans', verdana, arial, sans-serif; font-size: 12px; fill: rgb(42, 63, 95); fill-opacity: 1; white-space: pre; opacity: 1;">0</text></g><g class="y2tick"><text text-anchor="end" x="79" y="4.199999999999999" style="font-family: 'Open Sans', verdana, arial, sans-serif; font-size: 12px; fill: rgb(42, 63, 95); fill-opacity: 1; white-space: pre; opacity: 1;" transform="translate(0,535.72)">10k</text></g><g class="y2tick"><text text-anchor="end" x="79" y="4.199999999999999" style="font-family: 'Open Sans', verdana, arial, sans-serif; font-size: 12px; fill: rgb(42, 63, 95); fill-opacity: 1; white-space: pre; opacity: 1;" transform="translate(0,492.65999999999997)">20k</text></g></g><g class="overaxes-above"/></g><g class="subplot x3y3"><g class="layer-subplot"><g class="shapelayer"/><g class="imagelayer"/></g><g class="minor-gridlayer"><g class="x3"/><g class="y3"/></g><g class="gridlayer"><g class="x3"><path class="x3grid crisp" transform="translate(138.38,0)" d="M0,331.91999999999996v116.16000000000003" style="stroke: rgb(255, 255, 255); stroke-opacity: 1; stroke-width: 1px;"/><path class="x3grid crisp" transform="translate(210.77,0)" d="M0,331.91999999999996v116.16000000000003" style="stroke: rgb(255, 255, 255); stroke-opacity: 1; stroke-width: 1px;"/><path class="x3grid crisp" transform="translate(280.83000000000004,0)" d="M0,331.91999999999996v116.16000000000003" style="stroke: rgb(255, 255, 255); stroke-opacity: 1; stroke-width: 1px;"/><path class="x3grid crisp" transform="translate(353.22,0)" d="M0,331.91999999999996v116.16000000000003" style="stroke: rgb(255, 255, 255); stroke-opacity: 1; stroke-width: 1px;"/><path class="x3grid crisp" transform="translate(425.61,0)" d="M0,331.91999999999996v116.16000000000003" style="stroke: rgb(255, 255, 255); stroke-opacity: 1; stroke-width: 1px;"/><path class="x3grid crisp" transform="translate(493.33,0)" d="M0,331.91999999999996v116.16000000000003" style="stroke: rgb(255, 255, 255); stroke-opacity: 1; stroke-width: 1px;"/><path class="x3grid crisp" transform="translate(565.73,0)" d="M0,331.91999999999996v116.16000000000003" style="stroke: rgb(255, 255, 255); stroke-opacity: 1; stroke-width: 1px;"/></g><g class="y3"><path class="y3grid crisp" transform="translate(0,411.90999999999997)" d="M80,0h518.42" style="stroke: rgb(255, 255, 255); stroke-opacity: 1; stroke-width: 1px;"/><path class="y3grid crisp" transform="translate(0,374.19999999999993)" d="M80,0h518.42" style="stroke: rgb(255, 255, 255); stroke-opacity: 1; stroke-width: 1px;"/><path class="y3grid crisp" transform="translate(0,336.47999999999996)" d="M80,0h518.42" style="stroke: rgb(255, 255, 255); stroke-opacity: 1; stroke-width: 1px;"/></g></g><g class="zerolinelayer"/><path class="xlines-below"/><path class="ylines-below"/><g class="overlines-below"/><g class="xaxislayer-below"/><g class="yaxislayer-below"/><g class="overaxes-below"/><g class="plot" transform="translate(80,331.91999999999996)" clip-path="url(#clipfa5fa7x3y3plot)"><g class="scatterlayer mlayer"><g class="trace scatter tracecb1dc9" style="stroke-miterlimit: 2; opacity: 1;"><g class="fills"/><g class="errorbars"/><g class="lines"><path class="js-line" d="M305.91,110.35H308.25V110.35H310.58V107.73H312.92V107.73H315.26V84.46H317.59V77.07H319.93V63.68H322.26V63.39H324.6V55.74H326.93V55.74H329.27V45.1H331.6V39.19H333.94V35.06H336.27V22.56H338.61V18.88H340.94V18.04H343.28V67.79H345.61V61.73H347.95V61.21H350.28V48.88H352.62V44.34H354.95V41.69H357.29V40.78H359.62V38.21H361.96V37.75H364.3V35.65H366.63V30.41H368.97V21.28H371.3V5.81H373.64V13.67H375.97V13.67H378.31V12.7H380.64V10.76H382.98V11.15H385.31V11.1H392.32V11.06H392.32V11.06H495.07V44.71" style="vector-effect: none; fill: none; stroke: rgb(255, 161, 90); stroke-opacity: 1; stroke-width: 2px; opacity: 1;"/></g><g class="points"/><g class="text"/></g><g class="trace scatter tracef3d978" style="stroke-miterlimit: 2; opacity: 1;"><g class="fills"/><g class="errorbars"/><g class="lines"><path class="js-line" d="M375.97,93H378.31V86.91H380.64V84.43H382.98V77.74H385.31V77.47H387.65V73.58H392.32V70.84H399.32V64.27H403.99V57.97H415.67V49.23H418.01V48.11H422.68V44.64H429.68V72.74H446.03V66.28H457.7V51.34H495.07V80.05" style="vector-effect: none; fill: none; stroke: rgb(255, 102, 146); stroke-opacity: 1; stroke-width: 2px; opacity: 1;"/></g><g class="points"/><g class="text"/></g></g></g><g class="overplot"/><path class="xlines-above crisp" style="fill: none;" d="M0,0"/><path class="ylines-above crisp" style="fill: none;" d="M0,0"/><g class="overlines-above"/><g class="xaxislayer-above"/><g class="yaxislayer-above"><g class="y3tick"><text text-anchor="end" x="79" y="4.199999999999999" transform="translate(0,411.90999999999997)" style="font-family: 'Open Sans', verdana, arial, sans-serif; font-size: 12px; fill: rgb(42, 63, 95); fill-opacity: 1; white-space: pre; opacity: 1;">5k</text></g><g class="y3tick"><text text-anchor="end" x="79" y="4.199999999999999" style="font-family: 'Open Sans', verdana, arial, sans-serif; font-size: 12px; fill: rgb(42, 63, 95); fill-opacity: 1; white-space: pre; opacity: 1;" transform="translate(0,374.19999999999993)">10k</text></g><g class="y3tick"><text text-anchor="end" x="79" y="4.199999999999999" style="font-family: 'Open Sans', verdana, arial, sans-serif; font-size: 12px; fill: rgb(42, 63, 95); fill-opacity: 1; white-space: pre; opacity: 1;" transform="translate(0,336.47999999999996)">15k</text></g></g><g class="overaxes-above"/></g><g class="subplot x4y4"><g class="layer-subplot"><g class="shapelayer"/><g class="imagelayer"/></g><g class="minor-gridlayer"><g class="x4"/><g class="y4"/></g><g class="gridlayer"><g class="x4"><path class="x4grid crisp" transform="translate(138.38,0)" d="M0,195.95999999999998v116.16000000000003" style="stroke: rgb(255, 255, 255); stroke-opacity: 1; stroke-width: 1px;"/><path class="x4grid crisp" transform="translate(210.77,0)" d="M0,195.95999999999998v116.16000000000003" style="stroke: rgb(255, 255, 255); stroke-opacity: 1; stroke-width: 1px;"/><path class="x4grid crisp" transform="translate(280.83000000000004,0)" d="M0,195.95999999999998v116.16000000000003" style="stroke: rgb(255, 255, 255); stroke-opacity: 1; stroke-width: 1px;"/><path class="x4grid crisp" transform="translate(353.22,0)" d="M0,195.95999999999998v116.16000000000003" style="stroke: rgb(255, 255, 255); stroke-opacity: 1; stroke-width: 1px;"/><path class="x4grid crisp" transform="translate(425.61,0)" d="M0,195.95999999999998v116.16000000000003" style="stroke: rgb(255, 255, 255); stroke-opacity: 1; stroke-width: 1px;"/><path class="x4grid crisp" transform="translate(493.33,0)" d="M0,195.95999999999998v116.16000000000003" style="stroke: rgb(255, 255, 255); stroke-opacity: 1; stroke-width: 1px;"/><path class="x4grid crisp" transform="translate(565.73,0)" d="M0,195.95999999999998v116.16000000000003" style="stroke: rgb(255, 255, 255); stroke-opacity: 1; stroke-width: 1px;"/></g><g class="y4"><path class="y4grid crisp" transform="translate(0,306.11)" d="M80,0h518.42" style="stroke: rgb(255, 255, 255); stroke-opacity: 1; stroke-width: 1px;"/><path class="y4grid crisp" transform="translate(0,280.66999999999996)" d="M80,0h518.42" style="stroke: rgb(255, 255, 255); stroke-opacity: 1; stroke-width: 1px;"/><path class="y4grid crisp" transform="translate(0,255.23999999999998)" d="M80,0h518.42" style="stroke: rgb(255, 255, 255); stroke-opacity: 1; stroke-width: 1px;"/><path class="y4grid crisp" transform="translate(0,229.79999999999998)" d="M80,0h518.42" style="stroke: rgb(255, 255, 255); stroke-opacity: 1; stroke-width: 1px;"/><path class="y4grid crisp" transform="translate(0,204.35999999999999)" d="M80,0h518.42" style="stroke: rgb(255, 255, 255); stroke-opacity: 1; stroke-width: 1px;"/></g></g><g class="zerolinelayer"/><path class="xlines-below"/><path class="ylines-below"/><g class="overlines-below"/><g class="xaxislayer-below"/><g class="yaxislayer-below"/><g class="overaxes-below"/><g class="plot" transform="translate(80,195.95999999999998)" clip-path="url(#clipfa5fa7x4y4plot)"><g class="scatterlayer mlayer"><g class="trace scatter traceb107d7" style="stroke-miterlimit: 2; opacity: 1;"><g class="fills"/><g class="errorbars"/><g class="lines"><path class="js-line" d="M259.21,105.37H261.55V76.72H263.88V50.68H268.55V31.24H275.56V5.81" style="vector-effect: none; fill: none; stroke: rgb(171, 99, 250); stroke-opacity: 1; stroke-width: 2px; opacity: 1;"/></g><g class="points"/><g class="text"/></g><g class="trace scatter trace7bf90a" style="stroke-miterlimit: 2; opacity: 1;"><g class="fills"/><g class="errorbars"/><g class="lines"><path class="js-line" d="M137.78,74.38H140.11V110.35" style="vector-effect: none; fill: none; stroke: rgb(182, 232, 128); stroke-opacity: 1; stroke-width: 2px; opacity: 1;"/></g><g class="points"/><g class="text"/></g></g></g><g class="overplot"/><path class="xlines-above crisp" style="fill: none;" d="M0,0"/><path class="ylines-above crisp" style="fill: none;" d="M0,0"/><g class="overlines-above"/><g class="xaxislayer-above"/><g class="yaxislayer-above"><g class="y4tick"><text text-anchor="end" x="79" y="4.199999999999999" transform="translate(0,306.11)" style="font-family: 'Open Sans', verdana, arial, sans-serif; font-size: 12px; fill: rgb(42, 63, 95); fill-opacity: 1; white-space: pre; opacity: 1;">1000</text></g><g class="y4tick"><text text-anchor="end" x="79" y="4.199999999999999" style="font-family: 'Open Sans', verdana, arial, sans-serif; font-size: 12px; fill: rgb(42, 63, 95); fill-opacity: 1; white-space: pre; opacity: 1;" transform="translate(0,280.66999999999996)">1500</text></g><g class="y4tick"><text text-anchor="end" x="79" y="4.199999999999999" style="font-family: 'Open Sans', verdana, arial, sans-serif; font-size: 12px; fill: rgb(42, 63, 95); fill-opacity: 1; white-space: pre; opacity: 1;" transform="translate(0,255.23999999999998)">2000</text></g><g class="y4tick"><text text-anchor="end" x="79" y="4.199999999999999" style="font-family: 'Open Sans', verdana, arial, sans-serif; font-size: 12px; fill: rgb(42, 63, 95); fill-opacity: 1; white-space: pre; opacity: 1;" transform="translate(0,229.79999999999998)">2500</text></g><g class="y4tick"><text text-anchor="end" x="79" y="4.199999999999999" style="font-family: 'Open Sans', verdana, arial, sans-serif; font-size: 12px; fill: rgb(42, 63, 95); fill-opacity: 1; white-space: pre; opacity: 1;" transform="translate(0,204.35999999999999)">3000</text></g></g><g class="overaxes-above"/></g><g class="subplot x5y5"><g class="layer-subplot"><g class="shapelayer"/><g class="imagelayer"/></g><g class="minor-gridlayer"><g class="x5"/><g class="y5"/></g><g class="gridlayer"><g class="x5"><path class="x5grid crisp" transform="translate(138.38,0)" d="M0,60v116.15999999999995" style="stroke: rgb(255, 255, 255); stroke-opacity: 1; stroke-width: 1px;"/><path class="x5grid crisp" transform="translate(210.77,0)" d="M0,60v116.15999999999995" style="stroke: rgb(255, 255, 255); stroke-opacity: 1; stroke-width: 1px;"/><path class="x5grid crisp" transform="translate(280.83000000000004,0)" d="M0,60v116.15999999999995" style="stroke: rgb(255, 255, 255); stroke-opacity: 1; stroke-width: 1px;"/><path class="x5grid crisp" transform="translate(353.22,0)" d="M0,60v116.15999999999995" style="stroke: rgb(255, 255, 255); stroke-opacity: 1; stroke-width: 1px;"/><path class="x5grid crisp" transform="translate(425.61,0)" d="M0,60v116.15999999999995" style="stroke: rgb(255, 255, 255); stroke-opacity: 1; stroke-width: 1px;"/><path class="x5grid crisp" transform="translate(493.33,0)" d="M0,60v116.15999999999995" style="stroke: rgb(255, 255, 255); stroke-opacity: 1; stroke-width: 1px;"/><path class="x5grid crisp" transform="translate(565.73,0)" d="M0,60v116.15999999999995" style="stroke: rgb(255, 255, 255); stroke-opacity: 1; stroke-width: 1px;"/></g><g class="y5"><path class="y5grid crisp" transform="translate(0,140.34)" d="M80,0h518.42" style="stroke: rgb(255, 255, 255); stroke-opacity: 1; stroke-width: 1px;"/><path class="y5grid crisp" transform="translate(0,108.84)" d="M80,0h518.42" style="stroke: rgb(255, 255, 255); stroke-opacity: 1; stroke-width: 1px;"/><path class="y5grid crisp" transform="translate(0,77.33)" d="M80,0h518.42" style="stroke: rgb(255, 255, 255); stroke-opacity: 1; stroke-width: 1px;"/></g></g><g class="zerolinelayer"><path class="y5zl zl crisp" transform="translate(0,171.84)" d="M80,0h518.42" style="stroke: rgb(255, 255, 255); stroke-opacity: 1; stroke-width: 2px;"/></g><path class="xlines-below"/><path class="ylines-below"/><g class="overlines-below"/><g class="xaxislayer-below"/><g class="yaxislayer-below"/><g class="overaxes-below"/><g class="plot" transform="translate(80,60)" clip-path="url(#clipfa5fa7x5y5plot)"><g class="scatterlayer mlayer"><g class="trace scatter tracea8d376" style="stroke-miterlimit: 2; opacity: 1;"><g class="fills"/><g class="errorbars"/><g class="lines"><path class="js-line" d="M21.02,98.18H23.35V97.99H25.69V97.17H39.7V96.32H42.03V95.46H81.73V94.68H84.07V93.88H88.74V93.01H91.07V92.17H105.09V91.43H107.42V90.47H123.77V89.68H126.1V88.87H147.12V88H154.12V87.13H156.46V85.57H170.47V84.71H179.81V83.93H189.15V82.32H203.16V81.34H212.51V79.99H214.84V79.15H221.85V78.31H224.18V77.49H235.86V76.67H238.19V74.87H242.86V74.07H245.2V72.9H249.87V72.15H252.2V70.98H259.21V70.19H261.55V69.08H266.22V68.06" style="vector-effect: none; fill: none; stroke: rgb(99, 110, 250); stroke-opacity: 1; stroke-width: 2px; opacity: 1;"/></g><g class="points"/><g class="text"/></g><g class="trace scatter trace1f0206" style="stroke-miterlimit: 2; opacity: 1;"><g class="fills"/><g class="errorbars"/><g class="lines"><path class="js-line" d="M0,57.46H2.34V57.53H4.67V64.84H7.01V62.21H9.34V59.5H18.68V52.93H23.35V50.86H378.31V110.35H380.64V106.12H382.98V91.89H385.31V90.11H387.65V80.05H389.98V60.11H392.32V56.83H394.65V51.75H399.32V48.18H401.66V47.94H408.66V46.95H411V46.06H418.01V45.26H420.34V44.5H425.01V43.61H429.68V42.73H432.02V41.88H434.35V40.38H436.69V38.58H439.02V37.68H441.36V36.36H443.69V35.49H446.03V34.62H448.36V33.59H450.7V32.78H453.03V31.93H457.7V31.57H460.04V31.14H462.37V30.22H464.71V28.63H467.05V26.81H474.05V26.01H476.39V25.22H478.72V24.42H481.06V23.63H483.39V22.9H488.06V22.03H495.07V21.4H497.4V19.63H502.07V16.28H504.41V14.59H506.74V12.92H506.74V13.78H509.08V11.18H511.41V9.26H513.75V7.61H516.08V5.81" style="vector-effect: none; fill: none; stroke: rgb(239, 85, 59); stroke-opacity: 1; stroke-width: 2px; opacity: 1;"/></g><g class="points"/><g class="text"/></g><g class="trace scatter tracedb190d" style="stroke-miterlimit: 2; opacity: 1;"><g class="fills"/><g class="errorbars"/><g class="lines"><path class="js-line" d="M252.2,104H254.54V102.2H256.87V101.36H261.55V100.28H266.22V99.45H268.55V98.65H270.89V97.62H273.22V95.99H275.56V95.13H280.23V94.31H284.9V93.03H287.23V92.22H291.9V91.38H296.57V90.66H301.24V89.83H303.58V89.03H305.91V88.24H310.58V87.4H317.59V86.79H319.93V85.9H324.6V85.37H331.6V84.43H333.94V82.95H336.27V82.17H338.61V89.89H359.62V107.78" style="vector-effect: none; fill: none; stroke: rgb(0, 204, 150); stroke-opacity: 1; stroke-width: 2px; opacity: 1;"/></g><g class="points"/><g class="text"/></g></g></g><g class="overplot"/><path class="xlines-above crisp" style="fill: none;" d="M0,0"/><path class="ylines-above crisp" style="fill: none;" d="M0,0"/><g class="overlines-above"/><g class="xaxislayer-above"/><g class="yaxislayer-above"><g class="y5tick"><text text-anchor="end" x="79" y="4.199999999999999" transform="translate(0,171.84)" style="font-family: 'Open Sans', verdana, arial, sans-serif; font-size: 12px; fill: rgb(42, 63, 95); fill-opacity: 1; white-space: pre; opacity: 1;">0</text></g><g class="y5tick"><text text-anchor="end" x="79" y="4.199999999999999" style="font-family: 'Open Sans', verdana, arial, sans-serif; font-size: 12px; fill: rgb(42, 63, 95); fill-opacity: 1; white-space: pre; opacity: 1;" transform="translate(0,140.34)">20k</text></g><g class="y5tick"><text text-anchor="end" x="79" y="4.199999999999999" style="font-family: 'Open Sans', verdana, arial, sans-serif; font-size: 12px; fill: rgb(42, 63, 95); fill-opacity: 1; white-space: pre; opacity: 1;" transform="translate(0,108.84)">40k</text></g><g class="y5tick"><text text-anchor="end" x="79" y="4.199999999999999" style="font-family: 'Open Sans', verdana, arial, sans-serif; font-size: 12px; fill: rgb(42, 63, 95); fill-opacity: 1; white-space: pre; opacity: 1;" transform="translate(0,77.33)">60k</text></g></g><g class="overaxes-above"/></g></g><g class="polarlayer"/><g class="smithlayer"/><g class="ternarylayer"/><g class="geolayer"/><g class="funnelarealayer"/><g class="pielayer"/><g class="iciclelayer"/><g class="treemaplayer"/><g class="sunburstlayer"/><g class="glimages"/><defs id="topdefs-fa5fa7"><g class="clips"/><clipPath id="legendfa5fa7"><rect width="168" height="200" x="0" y="0"/></clipPath></defs><g class="layer-above"><g class="imagelayer"/><g class="shapelayer"/></g><g class="infolayer"><g class="legend" pointer-events="all" transform="translate(619.58,60)"><rect class="bg" shape-rendering="crispEdges" style="stroke: rgb(68, 68, 68); stroke-opacity: 1; fill: rgb(255, 255, 255); fill-opacity: 1; stroke-width: 0px;" width="168" height="200" x="0" y="0"/><g class="scrollbox" transform="" clip-path="url(#legendfa5fa7)"><text class="legendtitletext" text-anchor="start" x="2" y="18.2" style="font-family: 'Open Sans', verdana, arial, sans-serif; font-size: 14px; fill: rgb(42, 63, 95); fill-opacity: 1; white-space: pre;">title</text><g class="groups" transform=""><g class="traces" transform="translate(0,32.7)" style="opacity: 1;"><text class="legendtext" text-anchor="start" x="40" y="4.680000000000001" style="font-family: 'Open Sans', verdana, arial, sans-serif; font-size: 12px; fill: rgb(42, 63, 95); fill-opacity: 1; white-space: pre;">All the Other Santas</text><g class="layers" style="opacity: 1;"><g class="legendfill"/><g class="legendlines"><path class="js-line" d="M5,0h30" style="fill: none; stroke: rgb(99, 110, 250); stroke-opacity: 1; stroke-width: 2px;"/></g><g class="legendsymbols"><g class="legendpoints"/></g></g><rect class="legendtoggle" x="0" y="-9.5" width="162.15625" height="19" style="fill: rgb(0, 0, 0); fill-opacity: 0;"/></g></g><g class="groups" transform=""><g class="traces" transform="translate(0,51.7)" style="opacity: 1;"><text class="legendtext" text-anchor="start" x="40" y="4.680000000000001" style="font-family: 'Open Sans', verdana, arial, sans-serif; font-size: 12px; fill: rgb(42, 63, 95); fill-opacity: 1; white-space: pre;">Iffy</text><g class="layers" style="opacity: 1;"><g class="legendfill"/><g class="legendlines"><path class="js-line" d="M5,0h30" style="fill: none; stroke: rgb(239, 85, 59); stroke-opacity: 1; stroke-width: 2px;"/></g><g class="legendsymbols"><g class="legendpoints"/></g></g><rect class="legendtoggle" x="0" y="-9.5" width="162.15625" height="19" style="fill: rgb(0, 0, 0); fill-opacity: 0;"/></g></g><g class="groups" transform=""><g class="traces" transform="translate(0,70.7)" style="opacity: 1;"><text class="legendtext" text-anchor="start" x="40" y="4.680000000000001" style="font-family: 'Open Sans', verdana, arial, sans-serif; font-size: 12px; fill: rgb(42, 63, 95); fill-opacity: 1; white-space: pre;">In Heck</text><g class="layers" style="opacity: 1;"><g class="legendfill"/><g class="legendlines"><path class="js-line" d="M5,0h30" style="fill: none; stroke: rgb(0, 204, 150); stroke-opacity: 1; stroke-width: 2px;"/></g><g class="legendsymbols"><g class="legendpoints"/></g></g><rect class="legendtoggle" x="0" y="-9.5" width="162.15625" height="19" style="fill: rgb(0, 0, 0); fill-opacity: 0;"/></g></g><g class="groups" transform=""><g class="traces" transform="translate(0,89.7)" style="opacity: 1;"><text class="legendtext" text-anchor="start" x="40" y="4.680000000000001" style="font-family: 'Open Sans', verdana, arial, sans-serif; font-size: 12px; fill: rgb(42, 63, 95); fill-opacity: 1; white-space: pre;">Leaderboard</text><g class="layers" style="opacity: 1;"><g class="legendfill"/><g class="legendlines"><path class="js-line" d="M5,0h30" style="fill: none; stroke: rgb(171, 99, 250); stroke-opacity: 1; stroke-width: 2px;"/></g><g class="legendsymbols"><g class="legendpoints"/></g></g><rect class="legendtoggle" x="0" y="-9.5" width="162.15625" height="19" style="fill: rgb(0, 0, 0); fill-opacity: 0;"/></g></g><g class="groups" transform=""><g class="traces" transform="translate(0,108.7)" style="opacity: 1;"><text class="legendtext" text-anchor="start" x="40" y="4.680000000000001" style="font-family: 'Open Sans', verdana, arial, sans-serif; font-size: 12px; fill: rgb(42, 63, 95); fill-opacity: 1; white-space: pre;">SQL Tutorial</text><g class="layers" style="opacity: 1;"><g class="legendfill"/><g class="legendlines"><path class="js-line" d="M5,0h30" style="fill: none; stroke: rgb(255, 161, 90); stroke-opacity: 1; stroke-width: 2px;"/></g><g class="legendsymbols"><g class="legendpoints"/></g></g><rect class="legendtoggle" x="0" y="-9.5" width="162.15625" height="19" style="fill: rgb(0, 0, 0); fill-opacity: 0;"/></g></g><g class="groups" transform=""><g class="traces" transform="translate(0,127.7)" style="opacity: 1;"><text class="legendtext" text-anchor="start" x="40" y="4.680000000000001" style="font-family: 'Open Sans', verdana, arial, sans-serif; font-size: 12px; fill: rgb(42, 63, 95); fill-opacity: 1; white-space: pre;">Scribophile</text><g class="layers" style="opacity: 1;"><g class="legendfill"/><g class="legendlines"><path class="js-line" d="M5,0h30" style="fill: none; stroke: rgb(25, 211, 243); stroke-opacity: 1; stroke-width: 2px;"/></g><g class="legendsymbols"><g class="legendpoints"/></g></g><rect class="legendtoggle" x="0" y="-9.5" width="162.15625" height="19" style="fill: rgb(0, 0, 0); fill-opacity: 0;"/></g></g><g class="groups" transform=""><g class="traces" transform="translate(0,146.7)" style="opacity: 1;"><text class="legendtext" text-anchor="start" x="40" y="4.680000000000001" style="font-family: 'Open Sans', verdana, arial, sans-serif; font-size: 12px; fill: rgb(42, 63, 95); fill-opacity: 1; white-space: pre;">System Tutorial</text><g class="layers" style="opacity: 1;"><g class="legendfill"/><g class="legendlines"><path class="js-line" d="M5,0h30" style="fill: none; stroke: rgb(255, 102, 146); stroke-opacity: 1; stroke-width: 2px;"/></g><g class="legendsymbols"><g class="legendpoints"/></g></g><rect class="legendtoggle" x="0" y="-9.5" width="162.15625" height="19" style="fill: rgb(0, 0, 0); fill-opacity: 0;"/></g></g><g class="groups" transform=""><g class="traces" transform="translate(0,165.7)" style="opacity: 1;"><text class="legendtext" text-anchor="start" x="40" y="4.680000000000001" style="font-family: 'Open Sans', verdana, arial, sans-serif; font-size: 12px; fill: rgb(42, 63, 95); fill-opacity: 1; white-space: pre;">Tuppence a Bag</text><g class="layers" style="opacity: 1;"><g class="legendfill"/><g class="legendlines"><path class="js-line" d="M5,0h30" style="fill: none; stroke: rgb(182, 232, 128); stroke-opacity: 1; stroke-width: 2px;"/></g><g class="legendsymbols"><g class="legendpoints"/></g></g><rect class="legendtoggle" x="0" y="-9.5" width="162.15625" height="19" style="fill: rgb(0, 0, 0); fill-opacity: 0;"/></g></g><g class="groups" transform=""><g class="traces" transform="translate(0,184.7)" style="opacity: 1;"><text class="legendtext" text-anchor="start" x="40" y="4.680000000000001" style="font-family: 'Open Sans', verdana, arial, sans-serif; font-size: 12px; fill: rgb(42, 63, 95); fill-opacity: 1; white-space: pre;">change</text><g class="layers" style="opacity: 1;"><g class="legendfill"/><g class="legendlines"><path class="js-line" d="M5,0h30" style="fill: none; stroke: rgb(255, 151, 255); stroke-opacity: 1; stroke-width: 2px;"/></g><g class="legendsymbols"><g class="legendpoints"/></g></g><rect class="legendtoggle" x="0" y="-9.5" width="162.15625" height="19" style="fill: rgb(0, 0, 0); fill-opacity: 0;"/></g></g></g><rect class="scrollbar" rx="20" ry="3" width="0" height="0" style="fill: rgb(128, 139, 164); fill-opacity: 1;" x="0" y="0"/></g><g class="g-gtitle"/><g class="g-xtitle"><text class="xtitle" x="339.21" y="759.8" text-anchor="middle" style="font-family: 'Open Sans', verdana, arial, sans-serif; font-size: 14px; fill: rgb(42, 63, 95); opacity: 1; font-weight: normal; white-space: pre;">date</text></g><g class="g-x2title"/><g class="g-x3title"/><g class="g-x4title"/><g class="g-x5title"/><g class="g-ytitle"><text class="ytitle" transform="rotate(-90,22.512500000000003,661.92)" x="22.512500000000003" y="661.92" text-anchor="middle" style="font-family: 'Open Sans', verdana, arial, sans-serif; font-size: 14px; fill: rgb(42, 63, 95); opacity: 1; font-weight: normal; white-space: pre;">words</text></g><g class="g-y2title"><text class="y2title" transform="rotate(-90,32.340625,525.96)" x="32.340625" y="525.96" text-anchor="middle" style="font-family: 'Open Sans', verdana, arial, sans-serif; font-size: 14px; fill: rgb(42, 63, 95); opacity: 1; font-weight: normal; white-space: pre;">words</text></g><g class="g-y3title"><text class="y3title" transform="rotate(-90,32.340625,390)" x="32.340625" y="390" text-anchor="middle" style="font-family: 'Open Sans', verdana, arial, sans-serif; font-size: 14px; fill: rgb(42, 63, 95); opacity: 1; font-weight: normal; white-space: pre;">words</text></g><g class="g-y4title"><text class="y4title" transform="rotate(-90,24.184375000000003,254.04)" x="24.184375000000003" y="254.04" text-anchor="middle" style="font-family: 'Open Sans', verdana, arial, sans-serif; font-size: 14px; fill: rgb(42, 63, 95); opacity: 1; font-weight: normal; white-space: pre;">words</text></g><g class="g-y5title"><text class="y5title" transform="rotate(-90,32.340625,118.07999999999998)" x="32.340625" y="118.07999999999998" text-anchor="middle" style="font-family: 'Open Sans', verdana, arial, sans-serif; font-size: 14px; fill: rgb(42, 63, 95); opacity: 1; font-weight: normal; white-space: pre;">words</text></g><g class="annotation" data-index="0" style="opacity: 1;"><g class="annotation-text-g" transform="rotate(90,607.92,661.9200000000001)"><g class="cursor-pointer" transform="translate(591,652)"><rect class="bg" x="0.5" y="0.5" width="33" height="18" style="stroke-width: 1px; stroke: rgb(0, 0, 0); stroke-opacity: 0; fill: rgb(0, 0, 0); fill-opacity: 0;"/><text class="annotation-text" text-anchor="middle" x="16.9375" y="14" style="font-family: 'Open Sans', verdana, arial, sans-serif; font-size: 12px; fill: rgb(42, 63, 95); fill-opacity: 1; white-space: pre;">delta</text></g></g></g><g class="annotation" data-index="1" style="opacity: 1;"><g class="annotation-text-g" transform="rotate(90,607.92,525.96)"><g class="cursor-pointer" transform="translate(586,516)"><rect class="bg" x="0.5" y="0.5" width="43" height="18" style="stroke-width: 1px; stroke: rgb(0, 0, 0); stroke-opacity: 0; fill: rgb(0, 0, 0); fill-opacity: 0;"/><text class="annotation-text" text-anchor="middle" x="21.828125" y="14" style="font-family: 'Open Sans', verdana, arial, sans-serif; font-size: 12px; fill: rgb(42, 63, 95); fill-opacity: 1; white-space: pre;">review</text></g></g></g><g class="annotation" data-index="2" style="opacity: 1;"><g class="annotation-text-g" transform="rotate(90,607.92,390)"><g class="cursor-pointer" transform="translate(600,381)"><rect class="bg" x="0.5" y="0.5" width="15" height="18" style="stroke-width: 1px; stroke: rgb(0, 0, 0); stroke-opacity: 0; fill: rgb(0, 0, 0); fill-opacity: 0;"/><text class="annotation-text" text-anchor="middle" x="7.90625" y="14" style="font-family: 'Open Sans', verdana, arial, sans-serif; font-size: 12px; fill: rgb(42, 63, 95); fill-opacity: 1; white-space: pre;">nf</text></g></g></g><g class="annotation" data-index="3" style="opacity: 1;"><g class="annotation-text-g" transform="rotate(90,607.92,254.04000000000002)"><g class="cursor-pointer" transform="translate(590,245)"><rect class="bg" x="0.5" y="0.5" width="34" height="18" style="stroke-width: 1px; stroke: rgb(0, 0, 0); stroke-opacity: 0; fill: rgb(0, 0, 0); fill-opacity: 0;"/><text class="annotation-text" text-anchor="middle" x="17.5" y="14" style="font-family: 'Open Sans', verdana, arial, sans-serif; font-size: 12px; fill: rgb(42, 63, 95); fill-opacity: 1; white-space: pre;">short</text></g></g></g><g class="annotation" data-index="4" style="opacity: 1;"><g class="annotation-text-g" transform="rotate(90,607.92,118.07999999999998)"><g class="cursor-pointer" transform="translate(599,109)"><rect class="bg" x="0.5" y="0.5" width="17" height="18" style="stroke-width: 1px; stroke: rgb(0, 0, 0); stroke-opacity: 0; fill: rgb(0, 0, 0); fill-opacity: 0;"/><text class="annotation-text" text-anchor="middle" x="9.15625" y="14" style="font-family: 'Open Sans', verdana, arial, sans-serif; font-size: 12px; fill: rgb(42, 63, 95); fill-opacity: 1; white-space: pre;">ya</text></g></g></g></g></svg>