<svg class="main-svg" xmlns="http://www.w3.org/2000/svg" xmlns:xlink="http://www.w3.org/1999/xlink" width="800" height="800" style="" viewBox="0 0 800 800"><rect x="0" y="0" width="800" height="800" style="fill: rgb(255, 255, 255); fill-opacity: 1;"/><defs id="defs-c1c66e"><g class="clips"><clipPath id="clipc1c66exyplot" class="plotclip"><rect width="518.42" height="150.15"/></clipPath><clipPath id="clipc1c66ex2y2plot" class="plotclip"><rect width="518.42" height="150.14999999999998"/></clipPath><clipPath id="clipc1c66ex3y3plot" class="plotclip"><rect width="518.42" height="150.15000000000003"/></clipPath><clipPath id="clipc1c66ex4y4plot" class="plotclip"><rect width="518.42" height="150.15000000000003"/></clipPath><clipPath class="axesclip" id="clipc1c66ex"><rect x="80" y="0" width="518.42" height="800"/></clipPath><clipPath class="axesclip" id="clipc1c66ey"><rect x="0" y="569.8499999999999" width="800" height="150.15"/></clipPath><clipPath class="axesclip" id="clipc1c66exy"><rect x="80" y="569.8499999999999" width="518.42" height="150.15"/></clipPath><clipPath class="axesclip" id="clipc1c66ey2"><rect x="0" y="399.90000000000003" width="800" height="150.14999999999998"/></clipPath><clipPath class="axesclip" id="clipc1c66exy2"><rect x="80" y="399.90000000000003" width="518.42" height="150.14999999999998"/></clipPath><clipPath class="axesclip" id="clipc1c66ey3"><rect x="0" y="229.94999999999996" width="800" height="150.15000000000003"/></clipPath><clipPath class="axesclip" id="clipc1c66exy3"><rect x="80" y="229.94999999999996" width="518.42" height="150.15000000000003"/></clipPath><clipPath class="axesclip" id="clipc1c66ey4"><rect x="0" y="60" width="800" height="150.15000000000003"/></clipPath><clipPath class="axesclip" id="clipc1c66exy4"><rect x="80" y="60" width="518.42" height="150.15000000000003"/></clipPath><clipPath class="axesclip" id="clipc1c66ex2"><rect x="80" y="0" width="518.42" height="800"/></clipPath><clipPath class="axesclip" id="clipc1c66ex2y"><rect x="80" y="569.8499999999999" width="518.42" height="150.15"/></clipPath><clipPath class="axesclip" id="clipc1c66ex2y2"><rect x="80" y="399.90000000000003" width="518.42" height="150.14999999999998"/></clipPath><clipPath class="axesclip" id="clipc1c66ex2y3"><rect x="80" y="229.94999999999996" width="518.42" height="150.15000000000003"/></clipPath><clipPath class="axesclip" id="clipc1c66ex2y4"><rect x="80" y="60" width="518.42" height="150.15000000000003"/></clipPath><clipPath class="axesclip" id="clipc1c66ex3"><rect x="80" y="0" width="518.42" height="800"/></clipPath><clipPath class="axesclip" id="clipc1c66ex3y"><rect x="80" y="569.8499999999999" width="518.42" height="150.15"/></clipPath><clipPath class="axesclip" id="clipc1c66ex3y2"><rect x="80" y="399.90000000000003" width="518.42" height="150.14999999999998"/></clipPath><clipPath class="axesclip" id="clipc1c66ex3y3"><rect x="80" y="229.94999999999996" width="518.42" height="150.15000000000003"/></clipPath><clipPath class="axesclip" id="clipc1c66ex3y4"><rect x="80" y="60" width="518.42" height="150.15000000000003"/></clipPath><clipPath class="axesclip" id="clipc1c66ex4"><rect x="80" y="0" width="518.42" height="800"/></clipPath><clipPath class="axesclip" id="clipc1c66ex4y"><rect x="80" y="569.8499999999999" width="518.42" height="150.15"/></clipPath><clipPath class="axesclip" id="clipc1c66ex4y2"><rect x="80" y="399.90000000000003" width="518.42" height="150.14999999999998"/></clipPath><clipPath class="axesclip" id="clipc1c66ex4y3"><rect x="80" y="229.94999999999996" width="518.42" height="150.15000000000003"/></clipPath><clipPath class="axesclip" id="clipc1c66ex4y4"><rect x="80" y="60" width="518.42" height="150.15000000000003"/></clipPath></g><g class="gradients"/><g class="patterns"/></defs><g class="bglayer"><rect class="bg" x="80" y="569.8499999999999" width="518.42" height="150.15" style="fill: rgb(229, 236, 246); fill-opacity: 1; stroke-width: 0;"/><rect class="bg" x="80" y="399.90000000000003" width="518.42" height="150.14999999999998" style="fill: rgb(229, 236, 246); fill-opacity: 1; stroke-width: 0;"/><rect class="bg" x="80" y="229.94999999999996" width="518.42" height="150.15000000000003" style="fill: rgb(229, 236, 246); fill-opacity: 1; stroke-width: 0;"/><rect class="bg" x="80" y="60" width="518.42" height="150.15000000000003" style="fill: rgb(229, 236, 246); fill-opacity: 1; stroke-width: 0;"/></g><g class="layer-below"><g class="imagelayer"/><g class="shapelayer"/></g><g class="cartesianlayer"><g class="subplot xy"><g class="layer-subplot"><g class="shapelayer"/><g class="imagelayer"/></g><g class="minor-gridlayer"><g class="x"/><g class="y"/></g><g class="gridlayer"><g class="x"><path class="xgrid crisp" transform="translate(193.85,0)" d="M0,569.8499999999999v150.15" style="stroke: rgb(255, 255, 255); stroke-opacity: 1; stroke-width: 1px;"/><path class="xgrid crisp" transform="translate(317.86,0)" d="M0,569.8499999999999v150.15" style="stroke: rgb(255, 255, 255); stroke-opacity: 1; stroke-width: 1px;"/><path class="xgrid crisp" transform="translate(439.84,0)" d="M0,569.8499999999999v150.15" style="stroke: rgb(255, 255, 255); stroke-opacity: 1; stroke-width: 1px;"/><path class="xgrid crisp" transform="translate(563.86,0)" d="M0,569.8499999999999v150.15" style="stroke: rgb(255, 255, 255); stroke-opacity: 1; stroke-width: 1px;"/></g><g class="y"><path class="ygrid crisp" transform="translate(0,666.54)" d="M80,0h518.42" style="stroke: rgb(255, 255, 255); stroke-opacity: 1; stroke-width: 1px;"/></g></g><g class="zerolinelayer"><path class="yzl zl crisp" transform="translate(0,611.93)" d="M80,0h518.42" style="stroke: rgb(255, 255, 255); stroke-opacity: 1; stroke-width: 2px;"/></g><path class="xlines-below"/><path class="ylines-below"/><g class="overlines-below"/><g class="xaxislayer-below"/><g class="yaxislayer-below"/><g class="overaxes-below"/><g class="plot" transform="translate(80,569.8499999999999)" clip-path="url(#clipc1c66exyplot)"><g class="scatterlayer mlayer"><g class="trace scatter trace258c00" style="stroke-miterlimit: 2; opacity: 1;"><g class="fills"/><g class="errorbars"/><g class="lines"><path class="js-line" d="M2.03,42.2H4.07V54.74H6.1V37.52H8.13V37.38H10.17V42.08H12.2V42.08H14.23V42.08H16.26V30.69H18.3V42.08H20.33V38.17H22.36V40.65H24.4V42.08H26.43V42.08H28.46V42.08H30.5V42.08H32.53V42.08H34.56V40.59H36.59V40.59H38.63V42.08H40.66V42.08H42.69V42.08H44.73V42.08H46.76V42.08H48.79V42.08H50.83V42.08H52.86V42.08H54.89V42.08H56.92V42.08H58.96V42.08H60.99V42.08H63.02V42.08H65.06V42.08H67.09V42.08H69.12V42.08H71.16V40.73H73.19V40.7H75.22V42.08H77.25V40.57H79.29V40.61H81.32V42.08H83.35V42.08H85.39V42.08H87.42V42.08H89.45V42.08H91.49V40.81H93.52V40.41H95.55V42.08H97.58V42.08H99.62V42.08H101.65V42.08H103.68V42.08H105.72V42.08H107.75V40.71H109.78V40.67H111.82V42.08H113.85V42.08H115.88V42.08H117.92V42.08H119.95V42.08H121.98V44.01H124.01V42.08H126.05V42.08H128.08V40.56H130.11V42.08H132.15V42.08H134.18V40.56H136.21V39.38H138.25V42.08H140.28V42.08H142.31V42.08H144.34V42.08H146.38V42.08H148.41V40.58H150.44V42.08H152.48V42.08H154.51V42.08H156.54V40.72H158.58V42.08H160.61V42.08H162.64V42.08H164.67V39.3H166.71V42.08H168.74V42.08H170.77V42.08H172.81V42.08H174.84V42.08H176.87V40.37H178.91V42.08H180.94V42.08H182.97V42.08H185V39.74H187.04V40.61H189.07V42.08H191.1V42.08H193.14V40.63H195.17V40.66H197.2V42.08H199.24V42.08H201.27V42.08H203.3V42.08H205.33V40.66H207.37V38.94H209.4V42.08H211.43V40.69H213.47V40.05H215.5V42.08H217.53V40.78H219.57V40.05H221.6V38.96H223.63V40.63H225.67V40.7H227.7V36.75H229.73V40.68H231.76V38.87H233.8V39.64H235.83V40.29H237.86V39.25H239.9V39.24H241.93V42.08H243.96V40.64H246V42.08H248.03V39.87H250.06V40.67H252.09V42.08H254.13V40.62H256.16V42.08H258.19V40.83H260.23V42.08H262.26V40.63H264.29V40.69H266.33V40.71H268.36V42.08H270.39V39.67H272.42V42.08H274.46V33.65H276.49V38.35H278.52V35.68H280.56V41.97H282.59V38.39H284.62V42.08H286.66V38.22H288.69V38.31H290.72V38.02H292.75V36.2H294.79V54.12H296.82V41.77H298.85V60.09H300.89V39.88H302.92V41.89H304.95V37.61H306.99V40.43H309.02V41.12H311.05V41.75H313.09V72.17H315.12V41.91H317.15V41.32H319.18V40.18H321.22V38.77H323.25V36.48H325.28V44.92H327.32V42.08H329.35V142.64H331.38V33.15H333.42V15.11H335.45V38.88H337.48V23.24H339.51V7.51H341.55V35.39H343.58V33.27H345.61V42.08H347.65V33.51H349.68V41.66H351.71V39.8H353.75V42.08H355.78V40.36H357.81V40.52H359.84V42.08H361.88V38.91H363.91V40.3H365.94V40.76H367.98V40.82H370.01V40.53H372.04V42.08H374.08V50.72H376.11V40.61H378.14V39.48H380.17V38.96H382.21V40.51H384.24V39.79H386.27V40.57H388.31V38.23H390.34V40.3H392.37V40.66H394.41V40.6H396.44V42.08H398.47V36.05H400.5V41.34H402.54V40.48H404.57V39.32H406.6V38.92H408.64V42.08H410.67V42.08H412.7V40.7H414.74V40.71H416.77V40.69H418.8V40.7H420.84V40.82H422.87V42.08H424.9V40.58H426.93V42.08H428.97V42.08H431V40.97H433.03V39.02H435.07V42.08H437.1V36.27H439.13V39.13H441.17V40.68H443.2V37.58H445.23V38.75H447.26V39.22H449.3V38.95H451.33V35.7H453.36V39.27H455.4V40.52H457.43V35.76H459.46V37.1H461.5V38.68H463.53V39.07H465.56V37.48H467.59V40H469.63V42H471.66V38.33H473.69V42.08H475.73V42.08H477.76V42.08H479.79V42.08H481.83V42.08H483.86V42.08H485.89V42.08H487.92V42.08H489.96V42.46H491.99V42.9H494.02V42.03H496.06V41.91H498.09V42.08H500.12V42.08H502.16V42.08H504.19V41.83H506.22V36.1H508.25V42.08H510.29V40.61H512.32V42.08H514.35V40.87H516.39V40.16" style="vector-effect: none; fill: none; stroke: rgb(255, 151, 255); stroke-opacity: 1; stroke-width: 2px; opacity: 1;"/></g><g class="points"/><g class="text"/></g></g></g><g class="overplot"/><path class="xlines-above crisp" style="fill: none;" d="M0,0"/><path class="ylines-above crisp" style="fill: none;" d="M0,0"/><g class="overlines-above"/><g class="xaxislayer-above"><g class="xtick"><text text-anchor="middle" x="0" y="732.9999999999999" transform="translate(193.85,0)" style="font-family: 'Open Sans', verdana, arial, sans-serif; font-size: 12px; fill: rgb(42, 63, 95); fill-opacity: 1; white-space: pre; opacity: 1;">Nov 2023</text></g><g class="xtick"><text text-anchor="middle" x="0" y="732.9999999999999" style="font-family: 'Open Sans', verdana, arial, sans-serif; font-size: 12px; fill: rgb(42, 63, 95); fill-opacity: 1; white-space: pre; opacity: 1;" transform="translate(317.86,0)">Jan 2024</text></g><g class="xtick"><text text-anchor="middle" x="0" y="732.9999999999999" style="font-family: 'Open Sans', verdana, arial, sans-serif; font-size: 12px; fill: rgb(42, 63, 95); fill-opacity: 1; white-space: pre; opacity: 1;" transform="translate(439.84,0)">Mar 2024</text></g><g class="xtick"><text text-anchor="middle" x="0" y="732.9999999999999" style="font-family: 'Open Sans', verdana, arial, sans-serif; font-size: 12px; fill: rgb(42, 63, 95); fill-opacity: 1; white-space: pre; opacity: 1;" transform="translate(563.86,0)">May 2024</text></g></g><g class="yaxislayer-above"><g class="ytick"><text text-anchor="end" x="79" y="4.199999999999999" transform="translate(0,666.54)" style="font-family: 'Open Sans', verdana, arial, sans-serif; font-size: 12px; fill: rgb(42, 63, 95); fill-opacity: 1; white-space: pre; opacity: 1;">−20k</text></g><g class="ytick"><text text-anchor="end" x="79" y="4.199999999999999" style="font-family: 'Open Sans', verdana, arial, sans-serif; font-size: 12px; fill: rgb(42, 63, 95); fill-opacity: 1; white-space: pre; opacity: 1;" transform="translate(0,611.93)">0</text></g></g><g class="overaxes-above"/></g><g class="subplot x2y2"><g class="layer-subplot"><g class="shapelayer"/><g class="imagelayer"/></g><g class="minor-gridlayer"><g class="x2"/><g class="y2"/></g><g class="gridlayer"><g class="x2"><path class="x2grid crisp" transform="translate(193.85,0)" d="M0,399.90000000000003v150.14999999999998" style="stroke: rgb(255, 255, 255); stroke-opacity: 1; stroke-width: 1px;"/><path class="x2grid crisp" transform="translate(317.86,0)" d="M0,399.90000000000003v150.14999999999998" style="stroke: rgb(255, 255, 255); stroke-opacity: 1; stroke-width: 1px;"/><path class="x2grid crisp" transform="translate(439.84,0)" d="M0,399.90000000000003v150.14999999999998" style="stroke: rgb(255, 255, 255); stroke-opacity: 1; stroke-width: 1px;"/><path class="x2grid crisp" transform="translate(563.86,0)" d="M0,399.90000000000003v150.14999999999998" style="stroke: rgb(255, 255, 255); stroke-opacity: 1; stroke-width: 1px;"/></g><g class="y2"><path class="y2grid crisp" transform="translate(0,503.29)" d="M80,0h518.42" style="stroke: rgb(255, 255, 255); stroke-opacity: 1; stroke-width: 1px;"/><path class="y2grid crisp" transform="translate(0,454.55)" d="M80,0h518.42" style="stroke: rgb(255, 255, 255); stroke-opacity: 1; stroke-width: 1px;"/><path class="y2grid crisp" transform="translate(0,405.8)" d="M80,0h518.42" style="stroke: rgb(255, 255, 255); stroke-opacity: 1; stroke-width: 1px;"/></g></g><g class="zerolinelayer"/><path class="xlines-below"/><path class="ylines-below"/><g class="overlines-below"/><g class="xaxislayer-below"/><g class="yaxislayer-below"/><g class="overaxes-below"/><g class="plot" transform="translate(80,399.90000000000003)" clip-path="url(#clipc1c66ex2y2plot)"><g class="scatterlayer mlayer"><g class="trace scatter trace3b5e31" style="stroke-miterlimit: 2; opacity: 1;"><g class="fills"/><g class="errorbars"/><g class="lines"><path class="js-line" d="M266.33,142.64H268.36V142.64H270.39V139.25H272.42V139.25H274.46V109.17H276.49V99.62H278.52V82.31H280.56V81.94H282.59V72.05H284.62V72.05H286.66V58.29H288.69V50.66H290.72V45.32H292.75V29.16H294.79V24.4H296.82V23.32H298.85V87.63H300.89V79.79H302.92V79.13H304.95V63.19H306.99V57.32H309.02V53.88H311.05V52.71H313.09V49.39H315.12V48.8H317.15V46.09H319.18V39.31H321.22V27.5H323.25V7.51H325.28V17.67H327.32V17.67H329.35V16.42H331.38V13.91H333.42V14.41H335.45V14.34H341.55V14.29H341.55V14.29" style="vector-effect: none; fill: none; stroke: rgb(25, 211, 243); stroke-opacity: 1; stroke-width: 2px; opacity: 1;"/></g><g class="points"/><g class="text"/></g><g class="trace scatter trace1ff25f" style="stroke-miterlimit: 2; opacity: 1;"><g class="fills"/><g class="errorbars"/><g class="lines"><path class="js-line" d="M327.32,120.22H329.35V112.34H331.38V109.13H333.42V100.49H335.45V100.14H337.48V95.11H341.55V91.57H347.65V83.07H351.71V74.93H361.88V63.63H363.91V62.18H367.98V57.71H374.08V94.02H388.31V85.68H398.47V66.36" style="vector-effect: none; fill: none; stroke: rgb(255, 102, 146); stroke-opacity: 1; stroke-width: 2px; opacity: 1;"/></g><g class="points"/><g class="text"/></g></g></g><g class="overplot"/><path class="xlines-above crisp" style="fill: none;" d="M0,0"/><path class="ylines-above crisp" style="fill: none;" d="M0,0"/><g class="overlines-above"/><g class="xaxislayer-above"/><g class="yaxislayer-above"><g class="y2tick"><text text-anchor="end" x="79" y="4.199999999999999" transform="translate(0,503.29)" style="font-family: 'Open Sans', verdana, arial, sans-serif; font-size: 12px; fill: rgb(42, 63, 95); fill-opacity: 1; white-space: pre; opacity: 1;">5k</text></g><g class="y2tick"><text text-anchor="end" x="79" y="4.199999999999999" style="font-family: 'Open Sans', verdana, arial, sans-serif; font-size: 12px; fill: rgb(42, 63, 95); fill-opacity: 1; white-space: pre; opacity: 1;" transform="translate(0,454.55)">10k</text></g><g class="y2tick"><text text-anchor="end" x="79" y="4.199999999999999" style="font-family: 'Open Sans', verdana, arial, sans-serif; font-size: 12px; fill: rgb(42, 63, 95); fill-opacity: 1; white-space: pre; opacity: 1;" transform="translate(0,405.8)">15k</text></g></g><g class="overaxes-above"/></g><g class="subplot x3y3"><g class="layer-subplot"><g class="shapelayer"/><g class="imagelayer"/></g><g class="minor-gridlayer"><g class="x3"/><g class="y3"/></g><g class="gridlayer"><g class="x3"><path class="x3grid crisp" transform="translate(193.85,0)" d="M0,229.94999999999996v150.15000000000003" style="stroke: rgb(255, 255, 255); stroke-opacity: 1; stroke-width: 1px;"/><path class="x3grid crisp" transform="translate(317.86,0)" d="M0,229.94999999999996v150.15000000000003" style="stroke: rgb(255, 255, 255); stroke-opacity: 1; stroke-width: 1px;"/><path class="x3grid crisp" transform="translate(439.84,0)" d="M0,229.94999999999996v150.15000000000003" style="stroke: rgb(255, 255, 255); stroke-opacity: 1; stroke-width: 1px;"/><path class="x3grid crisp" transform="translate(563.86,0)" d="M0,229.94999999999996v150.15000000000003" style="stroke: rgb(255, 255, 255); stroke-opacity: 1; stroke-width: 1px;"/></g><g class="y3"><path class="y3grid crisp" transform="translate(0,372.3299999999999)" d="M80,0h518.42" style="stroke: rgb(255, 255, 255); stroke-opacity: 1; stroke-width: 1px;"/><path class="y3grid crisp" transform="translate(0,339.44999999999993)" d="M80,0h518.42" style="stroke: rgb(255, 255, 255); stroke-opacity: 1; stroke-width: 1px;"/><path class="y3grid crisp" transform="translate(0,306.56999999999994)" d="M80,0h518.42" style="stroke: rgb(255, 255, 255); stroke-opacity: 1; stroke-width: 1px;"/><path class="y3grid crisp" transform="translate(0,273.68999999999994)" d="M80,0h518.42" style="stroke: rgb(255, 255, 255); stroke-opacity: 1; stroke-width: 1px;"/><path class="y3grid crisp" transform="translate(0,240.80999999999995)" d="M80,0h518.42" style="stroke: rgb(255, 255, 255); stroke-opacity: 1; stroke-width: 1px;"/></g></g><g class="zerolinelayer"/><path class="xlines-below"/><path class="ylines-below"/><g class="overlines-below"/><g class="xaxislayer-below"/><g class="yaxislayer-below"/><g class="overaxes-below"/><g class="plot" transform="translate(80,229.94999999999996)" clip-path="url(#clipc1c66ex3y3plot)"><g class="scatterlayer mlayer"><g class="trace scatter tracec24cc3" style="stroke-miterlimit: 2; opacity: 1;"><g class="fills"/><g class="errorbars"/><g class="lines"><path class="js-line" d="M225.67,136.2H227.7V99.18H229.73V65.51H233.8V40.39H239.9V7.51" style="vector-effect: none; fill: none; stroke: rgb(171, 99, 250); stroke-opacity: 1; stroke-width: 2px; opacity: 1;"/></g><g class="points"/><g class="text"/></g><g class="trace scatter traceacac2c" style="stroke-miterlimit: 2; opacity: 1;"><g class="fills"/><g class="errorbars"/><g class="lines"><path class="js-line" d="M119.95,96.15H121.98V142.64" style="vector-effect: none; fill: none; stroke: rgb(182, 232, 128); stroke-opacity: 1; stroke-width: 2px; opacity: 1;"/></g><g class="points"/><g class="text"/></g></g></g><g class="overplot"/><path class="xlines-above crisp" style="fill: none;" d="M0,0"/><path class="ylines-above crisp" style="fill: none;" d="M0,0"/><g class="overlines-above"/><g class="xaxislayer-above"/><g class="yaxislayer-above"><g class="y3tick"><text text-anchor="end" x="79" y="4.199999999999999" transform="translate(0,372.3299999999999)" style="font-family: 'Open Sans', verdana, arial, sans-serif; font-size: 12px; fill: rgb(42, 63, 95); fill-opacity: 1; white-space: pre; opacity: 1;">1000</text></g><g class="y3tick"><text text-anchor="end" x="79" y="4.199999999999999" style="font-family: 'Open Sans', verdana, arial, sans-serif; font-size: 12px; fill: rgb(42, 63, 95); fill-opacity: 1; white-space: pre; opacity: 1;" transform="translate(0,339.44999999999993)">1500</text></g><g class="y3tick"><text text-anchor="end" x="79" y="4.199999999999999" style="font-family: 'Open Sans', verdana, arial, sans-serif; font-size: 12px; fill: rgb(42, 63, 95); fill-opacity: 1; white-space: pre; opacity: 1;" transform="translate(0,306.56999999999994)">2000</text></g><g class="y3tick"><text text-anchor="end" x="79" y="4.199999999999999" style="font-family: 'Open Sans', verdana, arial, sans-serif; font-size: 12px; fill: rgb(42, 63, 95); fill-opacity: 1; white-space: pre; opacity: 1;" transform="translate(0,273.68999999999994)">2500</text></g><g class="y3tick"><text text-anchor="end" x="79" y="4.199999999999999" style="font-family: 'Open Sans', verdana, arial, sans-serif; font-size: 12px; fill: rgb(42, 63, 95); fill-opacity: 1; white-space: pre; opacity: 1;" transform="translate(0,240.80999999999995)">3000</text></g></g><g class="overaxes-above"/></g><g class="subplot x4y4"><g class="layer-subplot"><g class="shapelayer"/><g class="imagelayer"/></g><g class="minor-gridlayer"><g class="x4"/><g class="y4"/></g><g class="gridlayer"><g class="x4"><path class="x4grid crisp" transform="translate(193.85,0)" d="M0,60v150.15000000000003" style="stroke: rgb(255, 255, 255); stroke-opacity: 1; stroke-width: 1px;"/><path class="x4grid crisp" transform="translate(317.86,0)" d="M0,60v150.15000000000003" style="stroke: rgb(255, 255, 255); stroke-opacity: 1; stroke-width: 1px;"/><path class="x4grid crisp" transform="translate(439.84,0)" d="M0,60v150.15000000000003" style="stroke: rgb(255, 255, 255); stroke-opacity: 1; stroke-width: 1px;"/><path class="x4grid crisp" transform="translate(563.86,0)" d="M0,60v150.15000000000003" style="stroke: rgb(255, 255, 255); stroke-opacity: 1; stroke-width: 1px;"/></g><g class="y4"><path class="y4grid crisp" transform="translate(0,170.70999999999998)" d="M80,0h518.42" style="stroke: rgb(255, 255, 255); stroke-opacity: 1; stroke-width: 1px;"/><path class="y4grid crisp" transform="translate(0,137.19)" d="M80,0h518.42" style="stroke: rgb(255, 255, 255); stroke-opacity: 1; stroke-width: 1px;"/><path class="y4grid crisp" transform="translate(0,103.67)" d="M80,0h518.42" style="stroke: rgb(255, 255, 255); stroke-opacity: 1; stroke-width: 1px;"/><path class="y4grid crisp" transform="translate(0,70.16)" d="M80,0h518.42" style="stroke: rgb(255, 255, 255); stroke-opacity: 1; stroke-width: 1px;"/></g></g><g class="zerolinelayer"><path class="y4zl zl crisp" transform="translate(0,204.23)" d="M80,0h518.42" style="stroke: rgb(255, 255, 255); stroke-opacity: 1; stroke-width: 2px;"/></g><path class="xlines-below"/><path class="ylines-below"/><g class="overlines-below"/><g class="xaxislayer-below"/><g class="yaxislayer-below"/><g class="overaxes-below"/><g class="plot" transform="translate(80,60)" clip-path="url(#clipc1c66ex4y4plot)"><g class="scatterlayer mlayer"><g class="trace scatter trace80a4eb" style="stroke-miterlimit: 2; opacity: 1;"><g class="fills"/><g class="errorbars"/><g class="lines"><path class="js-line" d="M18.3,129.69H20.33V129.5H22.36V128.62H34.56V127.71H36.59V126.79H71.16V125.97H73.19V125.12H77.25V124.19H79.29V123.29H91.49V122.52H93.52V121.49H107.75V120.65H109.78V119.79H128.08V118.86H134.18V117.93H136.21V116.28H148.41V115.36H156.54V114.53H164.67V112.82H176.87V111.78H185V110.34H187.04V109.44H193.14V108.55H195.17V107.68H205.33V106.81H207.37V104.89H211.43V104.04H213.47V102.79H217.53V101.99H219.57V100.75H225.67V99.91H227.7V98.73H231.76V97.65" style="vector-effect: none; fill: none; stroke: rgb(99, 110, 250); stroke-opacity: 1; stroke-width: 2px; opacity: 1;"/></g><g class="points"/><g class="text"/></g><g class="trace scatter traceb3bf3b" style="stroke-miterlimit: 2; opacity: 1;"><g class="fills"/><g class="errorbars"/><g class="lines"><path class="js-line" d="M0,86.37H2.03V86.45H4.07V94.22H6.1V91.42H8.13V88.54H16.26V81.55H20.33V79.35H329.35V142.64H331.38V138.14H333.42V123H335.45V121.1H337.48V110.4H339.51V89.19H341.55V85.7H343.58V80.29H347.65V76.5H349.68V76.24H355.78V75.19H357.81V74.24H363.91V73.39H365.94V72.58H370.01V71.63H374.08V70.69H376.11V69.79H378.14V68.2H380.17V66.28H382.21V65.32H384.24V63.92H386.27V62.99H388.31V62.06H390.34V60.97H392.37V60.11H394.41V59.2H398.47V58.82H400.5V58.37H402.54V57.39H404.57V55.69H406.6V53.75H412.7V52.91H414.74V52.07H416.77V51.21H418.8V50.37H420.84V49.6H424.9V48.68H431V48H433.03V46.12H437.1V42.56H439.13V40.75H441.17V38.98H441.17V39.9H443.2V37.13H445.23V35.09H447.26V33.33H449.3V31.41H451.33V27.5H453.36V25.77H455.4V24.82H457.43V20.94H459.46V17.88H461.5V15.8H463.53V13.96H465.56V11.14H467.59V9.86H469.63V9.81H471.66V7.51" style="vector-effect: none; fill: none; stroke: rgb(239, 85, 59); stroke-opacity: 1; stroke-width: 2px; opacity: 1;"/></g><g class="points"/><g class="text"/></g><g class="trace scatter trace2b6aa9" style="stroke-miterlimit: 2; opacity: 1;"><g class="fills"/><g class="errorbars"/><g class="lines"><path class="js-line" d="M219.57,135.88H221.6V133.97H223.63V133.08H227.7V131.93H231.76V131.05H233.8V130.19H235.83V129.09H237.86V127.36H239.9V126.45H243.96V125.57H248.03V124.21H250.06V123.35H254.13V122.46H258.19V121.69H262.26V120.81H264.29V119.95H266.33V119.11H270.39V118.22H276.49V117.57H278.52V116.62H282.59V116.06H288.69V115.06H290.72V113.49H292.75V112.66H294.79V120.87H313.09V139.91H504.19V139.75H506.22V136.09H510.29V135.19H514.35V134.45H516.39V133.27" style="vector-effect: none; fill: none; stroke: rgb(0, 204, 150); stroke-opacity: 1; stroke-width: 2px; opacity: 1;"/></g><g class="points"/><g class="text"/></g><g class="trace scatter trace897528" style="stroke-miterlimit: 2; opacity: 1;"><g class="fills"/><g class="errorbars"/><g class="lines"><path class="js-line" d="M483.86,91.09H489.96V91.32H491.99V91.82H494.02V91.8H496.06V91.7H498.09V91.7" style="vector-effect: none; fill: none; stroke: rgb(255, 161, 90); stroke-opacity: 1; stroke-width: 2px; opacity: 1;"/></g><g class="points"/><g class="text"/></g></g></g><g class="overplot"/><path class="xlines-above crisp" style="fill: none;" d="M0,0"/><path class="ylines-above crisp" style="fill: none;" d="M0,0"/><g class="overlines-above"/><g class="xaxislayer-above"/><g class="yaxislayer-above"><g class="y4tick"><text text-anchor="end" x="79" y="4.199999999999999" transform="translate(0,204.23)" style="font-family: 'Open Sans', verdana, arial, sans-serif; font-size: 12px; fill: rgb(42, 63, 95); fill-opacity: 1; white-space: pre; opacity: 1;">0</text></g><g class="y4tick"><text text-anchor="end" x="79" y="4.199999999999999" style="font-family: 'Open Sans', verdana, arial, sans-serif; font-size: 12px; fill: rgb(42, 63, 95); fill-opacity: 1; white-space: pre; opacity: 1;" transform="translate(0,170.70999999999998)">20k</text></g><g class="y4tick"><text text-anchor="end" x="79" y="4.199999999999999" style="font-family: 'Open Sans', verdana, arial, sans-serif; font-size: 12px; fill: rgb(42, 63, 95); fill-opacity: 1; white-space: pre; opacity: 1;" transform="translate(0,137.19)">40k</text></g><g class="y4tick"><text text-anchor="end" x="79" y="4.199999999999999" style="font-family: 'Open Sans', verdana, arial, sans-serif; font-size: 12px; fill: rgb(42, 63, 95); fill-opacity: 1; white-space: pre; opacity: 1;" transform="translate(0,103.67)">60k</text></g><g class="y4tick"><text text-anchor="end" x="79" y="4.199999999999999" style="font-family: 'Open Sans', verdana, arial, sans-serif; font-size: 12px; fill: rgb(42, 63, 95); fill-opacity: 1; white-space: pre; opacity: 1;" transform="translate(0,70.16)">80k</text></g></g><g class="overaxes-above"/></g></g><g class="polarlayer"/><g class="smithlayer"/><g class="ternarylayer"/><g class="geolayer"/><g class="funnelarealayer"/><g class="pielayer"/><g class="iciclelayer"/><g class="treemaplayer"/><g class="sunburstlayer"/><g class="glimages"/><defs id="topdefs-c1c66e"><g class="clips"/><clipPath id="legendc1c66e"><rect width="168" height="200" x="0" y="0"/></clipPath></defs><g class="layer-above"><g class="imagelayer"/><g class="shapelayer"/></g><g class="infolayer"><g class="legend" pointer-events="all" transform="translate(619.58,60)"><rect class="bg" shape-rendering="crispEdges" style="stroke: rgb(68, 68, 68); stroke-opacity: 1; fill: rgb(255, 255, 255); fill-opacity: 1; stroke-width: 0px;" width="168" height="200" x="0" y="0"/><g class="scrollbox" transform="" clip-path="url(#legendc1c66e)"><text class="legendtitletext" text-anchor="start" x="2" y="18.2" style="font-family: 'Open Sans', verdana, arial, sans-serif; font-size: 14px; fill: rgb(42, 63, 95); fill-opacity: 1; white-space: pre;">title</text><g class="groups" transform=""><g class="traces" transform="translate(0,32.7)" style="opacity: 1;"><text class="legendtext" text-anchor="start" x="40" y="4.680000000000001" style="font-family: 'Open Sans', verdana, arial, sans-serif; font-size: 12px; fill: rgb(42, 63, 95); fill-opacity: 1; white-space: pre;">All the Other Santas</text><g class="layers" style="opacity: 1;"><g class="legendfill"/><g class="legendlines"><path class="js-line" d="M5,0h30" style="fill: none; stroke: rgb(99, 110, 250); stroke-opacity: 1; stroke-width: 2px;"/></g><g class="legendsymbols"><g class="legendpoints"/></g></g><rect class="legendtoggle" x="0" y="-9.5" width="162.15625" height="19" style="fill: rgb(0, 0, 0); fill-opacity: 0;"/></g></g><g class="groups" transform=""><g class="traces" transform="translate(0,51.7)" style="opacity: 1;"><text class="legendtext" text-anchor="start" x="40" y="4.680000000000001" style="font-family: 'Open Sans', verdana, arial, sans-serif; font-size: 12px; fill: rgb(42, 63, 95); fill-opacity: 1; white-space: pre;">Iffy</text><g class="layers" style="opacity: 1;"><g class="legendfill"/><g class="legendlines"><path class="js-line" d="M5,0h30" style="fill: none; stroke: rgb(239, 85, 59); stroke-opacity: 1; stroke-width: 2px;"/></g><g class="legendsymbols"><g class="legendpoints"/></g></g><rect class="legendtoggle" x="0" y="-9.5" width="162.15625" height="19" style="fill: rgb(0, 0, 0); fill-opacity: 0;"/></g></g><g class="groups" transform=""><g class="traces" transform="translate(0,70.7)" style="opacity: 1;"><text class="legendtext" text-anchor="start" x="40" y="4.680000000000001" style="font-family: 'Open Sans', verdana, arial, sans-serif; font-size: 12px; fill: rgb(42, 63, 95); fill-opacity: 1; white-space: pre;">In Heck</text><g class="layers" style="opacity: 1;"><g class="legendfill"/><g class="legendlines"><path class="js-line" d="M5,0h30" style="fill: none; stroke: rgb(0, 204, 150); stroke-opacity: 1; stroke-width: 2px;"/></g><g class="legendsymbols"><g class="legendpoints"/></g></g><rect class="legendtoggle" x="0" y="-9.5" width="162.15625" height="19" style="fill: rgb(0, 0, 0); fill-opacity: 0;"/></g></g><g class="groups" transform=""><g class="traces" transform="translate(0,89.7)" style="opacity: 1;"><text class="legendtext" text-anchor="start" x="40" y="4.680000000000001" style="font-family: 'Open Sans', verdana, arial, sans-serif; font-size: 12px; fill: rgb(42, 63, 95); fill-opacity: 1; white-space: pre;">Leaderboard</text><g class="layers" style="opacity: 1;"><g class="legendfill"/><g class="legendlines"><path class="js-line" d="M5,0h30" style="fill: none; stroke: rgb(171, 99, 250); stroke-opacity: 1; stroke-width: 2px;"/></g><g class="legendsymbols"><g class="legendpoints"/></g></g><rect class="legendtoggle" x="0" y="-9.5" width="162.15625" height="19" style="fill: rgb(0, 0, 0); fill-opacity: 0;"/></g></g><g class="groups" transform=""><g class="traces" transform="translate(0,108.7)" style="opacity: 1;"><text class="legendtext" text-anchor="start" x="40" y="4.680000000000001" style="font-family: 'Open Sans', verdana, arial, sans-serif; font-size: 12px; fill: rgb(42, 63, 95); fill-opacity: 1; white-space: pre;">Maddy Roo</text><g class="layers" style="opacity: 1;"><g class="legendfill"/><g class="legendlines"><path class="js-line" d="M5,0h30" style="fill: none; stroke: rgb(255, 161, 90); stroke-opacity: 1; stroke-width: 2px;"/></g><g class="legendsymbols"><g class="legendpoints"/></g></g><rect class="legendtoggle" x="0" y="-9.5" width="162.15625" height="19" style="fill: rgb(0, 0, 0); fill-opacity: 0;"/></g></g><g class="groups" transform=""><g class="traces" transform="translate(0,127.7)" style="opacity: 1;"><text class="legendtext" text-anchor="start" x="40" y="4.680000000000001" style="font-family: 'Open Sans', verdana, arial, sans-serif; font-size: 12px; fill: rgb(42, 63, 95); fill-opacity: 1; white-space: pre;">SQL Tutorial</text><g class="layers" style="opacity: 1;"><g class="legendfill"/><g class="legendlines"><path class="js-line" d="M5,0h30" style="fill: none; stroke: rgb(25, 211, 243); stroke-opacity: 1; stroke-width: 2px;"/></g><g class="legendsymbols"><g class="legendpoints"/></g></g><rect class="legendtoggle" x="0" y="-9.5" width="162.15625" height="19" style="fill: rgb(0, 0, 0); fill-opacity: 0;"/></g></g><g class="groups" transform=""><g class="traces" transform="translate(0,146.7)" style="opacity: 1;"><text class="legendtext" text-anchor="start" x="40" y="4.680000000000001" style="font-family: 'Open Sans', verdana, arial, sans-serif; font-size: 12px; fill: rgb(42, 63, 95); fill-opacity: 1; white-space: pre;">System Tutorial</text><g class="layers" style="opacity: 1;"><g class="legendfill"/><g class="legendlines"><path class="js-line" d="M5,0h30" style="fill: none; stroke: rgb(255, 102, 146); stroke-opacity: 1; stroke-width: 2px;"/></g><g class="legendsymbols"><g class="legendpoints"/></g></g><rect class="legendtoggle" x="0" y="-9.5" width="162.15625" height="19" style="fill: rgb(0, 0, 0); fill-opacity: 0;"/></g></g><g class="groups" transform=""><g class="traces" transform="translate(0,165.7)" style="opacity: 1;"><text class="legendtext" text-anchor="start" x="40" y="4.680000000000001" style="font-family: 'Open Sans', verdana, arial, sans-serif; font-size: 12px; fill: rgb(42, 63, 95); fill-opacity: 1; white-space: pre;">Tuppence a Bag</text><g class="layers" style="opacity: 1;"><g class="legendfill"/><g class="legendlines"><path class="js-line" d="M5,0h30" style="fill: none; stroke: rgb(182, 232, 128); stroke-opacity: 1; stroke-width: 2px;"/></g><g class="legendsymbols"><g class="legendpoints"/></g></g><rect class="legendtoggle" x="0" y="-9.5" width="162.15625" height="19" style="fill: rgb(0, 0, 0); fill-opacity: 0;"/></g></g><g class="groups" transform=""><g class="traces" transform="translate(0,184.7)" style="opacity: 1;"><text class="legendtext" text-anchor="start" x="40" y="4.680000000000001" style="font-family: 'Open Sans', verdana, arial, sans-serif; font-size: 12px; fill: rgb(42, 63, 95); fill-opacity: 1; white-space: pre;">change</text><g class="layers" style="opacity: 1;"><g class="legendfill"/><g class="legendlines"><path class="js-line" d="M5,0h30" style="fill: none; stroke: rgb(255, 151, 255); stroke-opacity: 1; stroke-width: 2px;"/></g><g class="legendsymbols"><g class="legendpoints"/></g></g><rect class="legendtoggle" x="0" y="-9.5" width="162.15625" height="19" style="fill: rgb(0, 0, 0); fill-opacity: 0;"/></g></g></g><rect class="scrollbar" rx="20" ry="3" width="0" height="0" style="fill: rgb(128, 139, 164); fill-opacity: 1;" x="0" y="0"/></g><g class="g-gtitle"/><g class="g-xtitle"><text class="xtitle" x="339.21" y="759.8" text-anchor="middle" style="font-family: 'Open Sans', verdana, arial, sans-serif; font-size: 14px; fill: rgb(42, 63, 95); opacity: 1; font-weight: normal; white-space: pre;">date</text></g><g class="g-x2title"/><g class="g-x3title"/><g class="g-x4title"/><g class="g-ytitle"><text class="ytitle" transform="rotate(-90,22.512500000000003,644.925)" x="22.512500000000003" y="644.925" text-anchor="middle" style="font-family: 'Open Sans', verdana, arial, sans-serif; font-size: 14px; fill: rgb(42, 63, 95); opacity: 1; font-weight: normal; white-space: pre;">words</text></g><g class="g-y2title"><text class="y2title" transform="rotate(-90,32.340625,474.975)" x="32.340625" y="474.975" text-anchor="middle" style="font-family: 'Open Sans', verdana, arial, sans-serif; font-size: 14px; fill: rgb(42, 63, 95); opacity: 1; font-weight: normal; white-space: pre;">words</text></g><g class="g-y3title"><text class="y3title" transform="rotate(-90,24.184375000000003,305.025)" x="24.184375000000003" y="305.025" text-anchor="middle" style="font-family: 'Open Sans', verdana, arial, sans-serif; font-size: 14px; fill: rgb(42, 63, 95); opacity: 1; font-weight: normal; white-space: pre;">words</text></g><g class="g-y4title"><text class="y4title" transform="rotate(-90,32.340625,135.07500000000002)" x="32.340625" y="135.07500000000002" text-anchor="middle" style="font-family: 'Open Sans', verdana, arial, sans-serif; font-size: 14px; fill: rgb(42, 63, 95); opacity: 1; font-weight: normal; white-space: pre;">words</text></g><g class="annotation" data-index="0" style="opacity: 1;"><g class="annotation-text-g" transform="rotate(90,607.92,644.925)"><g class="cursor-pointer" transform="translate(591,635)"><rect class="bg" x="0.5" y="0.5" width="33" height="18" style="stroke-width: 1px; stroke: rgb(0, 0, 0); stroke-opacity: 0; fill: rgb(0, 0, 0); fill-opacity: 0;"/><text class="annotation-text" text-anchor="middle" x="16.9375" y="14" style="font-family: 'Open Sans', verdana, arial, sans-serif; font-size: 12px; fill: rgb(42, 63, 95); fill-opacity: 1; white-space: pre;">delta</text></g></g></g><g class="annotation" data-index="1" style="opacity: 1;"><g class="annotation-text-g" transform="rotate(90,607.92,474.975)"><g class="cursor-pointer" transform="translate(600,465)"><rect class="bg" x="0.5" y="0.5" width="15" height="18" style="stroke-width: 1px; stroke: rgb(0, 0, 0); stroke-opacity: 0; fill: rgb(0, 0, 0); fill-opacity: 0;"/><text class="annotation-text" text-anchor="middle" x="7.90625" y="14" style="font-family: 'Open Sans', verdana, arial, sans-serif; font-size: 12px; fill: rgb(42, 63, 95); fill-opacity: 1; white-space: pre;">nf</text></g></g></g><g class="annotation" data-index="2" style="opacity: 1;"><g class="annotation-text-g" transform="rotate(90,607.92,305.025)"><g class="cursor-pointer" transform="translate(590,296)"><rect class="bg" x="0.5" y="0.5" width="34" height="18" style="stroke-width: 1px; stroke: rgb(0, 0, 0); stroke-opacity: 0; fill: rgb(0, 0, 0); fill-opacity: 0;"/><text class="annotation-text" text-anchor="middle" x="17.5" y="14" style="font-family: 'Open Sans', verdana, arial, sans-serif; font-size: 12px; fill: rgb(42, 63, 95); fill-opacity: 1; white-space: pre;">short</text></g></g></g><g class="annotation" data-index="3" style="opacity: 1;"><g class="annotation-text-g" transform="rotate(90,607.92,135.07500000000002)"><g class="cursor-pointer" transform="translate(599,126)"><rect class="bg" x="0.5" y="0.5" width="17" height="18" style="stroke-width: 1px; stroke: rgb(0, 0, 0); stroke-opacity: 0; fill: rgb(0, 0, 0); fill-opacity: 0;"/><text class="annotation-text" text-anchor="middle" x="9.15625" y="14" style="font-family: 'Open Sans', verdana, arial, sans-serif; font-size: 12px; fill: rgb(42, 63, 95); fill-opacity: 1; white-space: pre;">ya</text></g></g></g></g></svg>