<svg class="main-svg" xmlns="http://www.w3.org/2000/svg" xmlns:xlink="http://www.w3.org/1999/xlink" width="800" height="800" style="" viewBox="0 0 800 800"><rect x="0" y="0" width="800" height="800" style="fill: rgb(255, 255, 255); fill-opacity: 1;"/><defs id="defs-5f17e9"><g class="clips"><clipPath id="clip5f17e9xyplot" class="plotclip"><rect width="518.42" height="116.16000000000001"/></clipPath><clipPath id="clip5f17e9x2y2plot" class="plotclip"><rect width="518.42" height="116.16"/></clipPath><clipPath id="clip5f17e9x3y3plot" class="plotclip"><rect width="518.42" height="116.16000000000003"/></clipPath><clipPath id="clip5f17e9x4y4plot" class="plotclip"><rect width="518.42" height="116.16000000000003"/></clipPath><clipPath id="clip5f17e9x5y5plot" class="plotclip"><rect width="518.42" height="116.15999999999995"/></clipPath><clipPath class="axesclip" id="clip5f17e9x"><rect x="80" y="0" width="518.42" height="800"/></clipPath><clipPath class="axesclip" id="clip5f17e9y"><rect x="0" y="603.8399999999999" width="800" height="116.16000000000001"/></clipPath><clipPath class="axesclip" id="clip5f17e9xy"><rect x="80" y="603.8399999999999" width="518.42" height="116.16000000000001"/></clipPath><clipPath class="axesclip" id="clip5f17e9y2"><rect x="0" y="467.88" width="800" height="116.16"/></clipPath><clipPath class="axesclip" id="clip5f17e9xy2"><rect x="80" y="467.88" width="518.42" height="116.16"/></clipPath><clipPath class="axesclip" id="clip5f17e9y3"><rect x="0" y="331.91999999999996" width="800" height="116.16000000000003"/></clipPath><clipPath class="axesclip" id="clip5f17e9xy3"><rect x="80" y="331.91999999999996" width="518.42" height="116.16000000000003"/></clipPath><clipPath class="axesclip" id="clip5f17e9y4"><rect x="0" y="195.95999999999998" width="800" height="116.16000000000003"/></clipPath><clipPath class="axesclip" id="clip5f17e9xy4"><rect x="80" y="195.95999999999998" width="518.42" height="116.16000000000003"/></clipPath><clipPath class="axesclip" id="clip5f17e9y5"><rect x="0" y="60" width="800" height="116.15999999999995"/></clipPath><clipPath class="axesclip" id="clip5f17e9xy5"><rect x="80" y="60" width="518.42" height="116.15999999999995"/></clipPath><clipPath class="axesclip" id="clip5f17e9x2"><rect x="80" y="0" width="518.42" height="800"/></clipPath><clipPath class="axesclip" id="clip5f17e9x2y"><rect x="80" y="603.8399999999999" width="518.42" height="116.16000000000001"/></clipPath><clipPath class="axesclip" id="clip5f17e9x2y2"><rect x="80" y="467.88" width="518.42" height="116.16"/></clipPath><clipPath class="axesclip" id="clip5f17e9x2y3"><rect x="80" y="331.91999999999996" width="518.42" height="116.16000000000003"/></clipPath><clipPath class="axesclip" id="clip5f17e9x2y4"><rect x="80" y="195.95999999999998" width="518.42" height="116.16000000000003"/></clipPath><clipPath class="axesclip" id="clip5f17e9x2y5"><rect x="80" y="60" width="518.42" height="116.15999999999995"/></clipPath><clipPath class="axesclip" id="clip5f17e9x3"><rect x="80" y="0" width="518.42" height="800"/></clipPath><clipPath class="axesclip" id="clip5f17e9x3y"><rect x="80" y="603.8399999999999" width="518.42" height="116.16000000000001"/></clipPath><clipPath class="axesclip" id="clip5f17e9x3y2"><rect x="80" y="467.88" width="518.42" height="116.16"/></clipPath><clipPath class="axesclip" id="clip5f17e9x3y3"><rect x="80" y="331.91999999999996" width="518.42" height="116.16000000000003"/></clipPath><clipPath class="axesclip" id="clip5f17e9x3y4"><rect x="80" y="195.95999999999998" width="518.42" height="116.16000000000003"/></clipPath><clipPath class="axesclip" id="clip5f17e9x3y5"><rect x="80" y="60" width="518.42" height="116.15999999999995"/></clipPath><clipPath class="axesclip" id="clip5f17e9x4"><rect x="80" y="0" width="518.42" height="800"/></clipPath><clipPath class="axesclip" id="clip5f17e9x4y"><rect x="80" y="603.8399999999999" width="518.42" height="116.16000000000001"/></clipPath><clipPath class="axesclip" id="clip5f17e9x4y2"><rect x="80" y="467.88" width="518.42" height="116.16"/></clipPath><clipPath class="axesclip" id="clip5f17e9x4y3"><rect x="80" y="331.91999999999996" width="518.42" height="116.16000000000003"/></clipPath><clipPath class="axesclip" id="clip5f17e9x4y4"><rect x="80" y="195.95999999999998" width="518.42" height="116.16000000000003"/></clipPath><clipPath class="axesclip" id="clip5f17e9x4y5"><rect x="80" y="60" width="518.42" height="116.15999999999995"/></clipPath><clipPath class="axesclip" id="clip5f17e9x5"><rect x="80" y="0" width="518.42" height="800"/></clipPath><clipPath class="axesclip" id="clip5f17e9x5y"><rect x="80" y="603.8399999999999" width="518.42" height="116.16000000000001"/></clipPath><clipPath class="axesclip" id="clip5f17e9x5y2"><rect x="80" y="467.88" width="518.42" height="116.16"/></clipPath><clipPath class="axesclip" id="clip5f17e9x5y3"><rect x="80" y="331.91999999999996" width="518.42" height="116.16000000000003"/></clipPath><clipPath class="axesclip" id="clip5f17e9x5y4"><rect x="80" y="195.95999999999998" width="518.42" height="116.16000000000003"/></clipPath><clipPath class="axesclip" id="clip5f17e9x5y5"><rect x="80" y="60" width="518.42" height="116.15999999999995"/></clipPath></g><g class="gradients"/><g class="patterns"/></defs><g class="bglayer"><rect class="bg" x="80" y="603.8399999999999" width="518.42" height="116.16000000000001" style="fill: rgb(229, 236, 246); fill-opacity: 1; stroke-width: 0;"/><rect class="bg" x="80" y="467.88" width="518.42" height="116.16" style="fill: rgb(229, 236, 246); fill-opacity: 1; stroke-width: 0;"/><rect class="bg" x="80" y="331.91999999999996" width="518.42" height="116.16000000000003" style="fill: rgb(229, 236, 246); fill-opacity: 1; stroke-width: 0;"/><rect class="bg" x="80" y="195.95999999999998" width="518.42" height="116.16000000000003" style="fill: rgb(229, 236, 246); fill-opacity: 1; stroke-width: 0;"/><rect class="bg" x="80" y="60" width="518.42" height="116.15999999999995" style="fill: rgb(229, 236, 246); fill-opacity: 1; stroke-width: 0;"/></g><g class="layer-below"><g class="imagelayer"/><g class="shapelayer"/></g><g class="cartesianlayer"><g class="subplot xy"><g class="layer-subplot"><g class="shapelayer"/><g class="imagelayer"/></g><g class="minor-gridlayer"><g class="x"/><g class="y"/></g><g class="gridlayer"><g class="x"><path class="xgrid crisp" transform="translate(138.91,0)" d="M0,603.8399999999999v116.16000000000001" style="stroke: rgb(255, 255, 255); stroke-opacity: 1; stroke-width: 1px;"/><path class="xgrid crisp" transform="translate(211.96,0)" d="M0,603.8399999999999v116.16000000000001" style="stroke: rgb(255, 255, 255); stroke-opacity: 1; stroke-width: 1px;"/><path class="xgrid crisp" transform="translate(282.65999999999997,0)" d="M0,603.8399999999999v116.16000000000001" style="stroke: rgb(255, 255, 255); stroke-opacity: 1; stroke-width: 1px;"/><path class="xgrid crisp" transform="translate(355.71,0)" d="M0,603.8399999999999v116.16000000000001" style="stroke: rgb(255, 255, 255); stroke-opacity: 1; stroke-width: 1px;"/><path class="xgrid crisp" transform="translate(428.76,0)" d="M0,603.8399999999999v116.16000000000001" style="stroke: rgb(255, 255, 255); stroke-opacity: 1; stroke-width: 1px;"/><path class="xgrid crisp" transform="translate(497.09,0)" d="M0,603.8399999999999v116.16000000000001" style="stroke: rgb(255, 255, 255); stroke-opacity: 1; stroke-width: 1px;"/><path class="xgrid crisp" transform="translate(570.14,0)" d="M0,603.8399999999999v116.16000000000001" style="stroke: rgb(255, 255, 255); stroke-opacity: 1; stroke-width: 1px;"/></g><g class="y"><path class="ygrid crisp" transform="translate(0,679.56)" d="M80,0h518.42" style="stroke: rgb(255, 255, 255); stroke-opacity: 1; stroke-width: 1px;"/></g></g><g class="zerolinelayer"><path class="yzl zl crisp" transform="translate(0,638.3999999999999)" d="M80,0h518.42" style="stroke: rgb(255, 255, 255); stroke-opacity: 1; stroke-width: 2px;"/></g><path class="xlines-below"/><path class="ylines-below"/><g class="overlines-below"/><g class="xaxislayer-below"/><g class="yaxislayer-below"/><g class="overaxes-below"/><g class="plot" transform="translate(80,603.8399999999999)" clip-path="url(#clip5f17e9xyplot)"><g class="scatterlayer mlayer"><g class="trace scatter trace9b9351" style="stroke-miterlimit: 2; opacity: 1;"><g class="fills"/><g class="errorbars"/><g class="lines"><path class="js-line" d="M2.36,34.65H4.71V44.1H7.07V31.12H9.43V31.02H11.78V34.56H14.14V34.56H16.5V34.56H18.85V25.98H21.21V34.56H23.56V31.61H25.92V33.48H28.28V34.56H30.63V34.56H32.99V34.56H35.35V34.56H37.7V34.56H40.06V33.44H42.42V33.43H44.77V34.56H47.13V34.56H49.49V34.56H51.84V34.56H54.2V34.56H56.55V34.56H58.91V34.56H61.27V34.56H63.62V34.56H65.98V34.56H68.34V34.56H70.69V34.56H73.05V34.56H75.41V34.56H77.76V34.56H80.12V34.56H82.48V33.54H84.83V33.52H87.19V34.56H89.55V33.42H91.9V33.46H94.26V34.56H96.61V34.56H98.97V34.56H101.33V34.56H103.68V34.56H106.04V33.6H108.4V33.3H110.75V34.56H113.11V34.56H115.47V34.56H117.82V34.56H120.18V34.56H122.54V34.56H124.89V33.53H127.25V33.5H129.61V34.56H131.96V34.56H134.32V34.56H136.67V34.56H139.03V34.56H141.39V36.01H143.74V34.56H146.1V34.56H148.46V33.42H150.81V34.56H153.17V34.56H155.53V33.42H157.88V32.53H160.24V34.56H162.6V34.56H164.95V34.56H167.31V34.56H169.66V34.56H172.02V33.43H174.38V34.56H176.73V34.56H179.09V34.56H181.45V33.54H183.8V34.56H186.16V34.56H188.52V34.56H190.87V32.46H193.23V34.56H195.59V34.56H197.94V34.56H200.3V34.56H202.66V34.56H205.01V33.27H207.37V34.56H209.72V34.56H212.08V34.56H214.44V32.8H216.79V33.45H219.15V34.56H221.51V34.56H223.86V33.46H226.22V33.49H228.58V34.56H230.93V34.56H233.29V34.56H235.65V34.56H238V33.49H240.36V32.2H242.71V34.56H245.07V33.52H247.43V33.03H249.78V34.56H252.14V33.58H254.5V33.03H256.85V32.21H259.21V33.47H261.57V33.52H263.92V30.55H266.28V33.5H268.64V32.14H270.99V32.72H273.35V33.21H275.71V32.43H278.06V32.42H280.42V34.56H282.77V33.48H285.13V34.95H287.49V32.89H289.84V33.5H292.2V34.56H294.56V33.46H296.91V34.56H299.27V33.62H301.63V34.56H303.98V33.47H306.34V33.51H308.7V33.53H311.05V34.56H313.41V32.75H315.76V34.56H318.12V28.21H320.48V31.75H322.83V29.74H325.19V34.48H327.55V31.78H329.9V34.56H332.26V30.79H334.62V31.72H336.97V31.5H339.33V30.13H341.69V43.64H344.04V34.33H346.4V48.13H348.76V32.9H351.11V34.42H353.47V31.19H355.82V33.32H358.18V33H360.54V33.82H362.89V57.24H365.25V34.43H367.61V33.99H369.96V31.7H372.32V31.49H374.68V30.34H377.03V36.7H379.39V33.07H381.75V110.35H384.1V27.23H386.46V13.25H388.82V32.15H391.17V19.49H393.53V5.81H395.88V29.52H398.24V27.92H400.6V34.56H402.95V28.11H405.31V34.25H407.67V32.84H410.02V34.56H412.38V32.76H414.74V33.39H417.09V32.5H419.45V32.17H421.81V30.82H424.16V33.56H426.52V33.61H428.87V33.39H431.23V34.56H433.59V41.07H435.94V33.46H438.3V31.57H440.66V32.21H443.01V33.38H445.37V32.83H447.73V32.81H450.08V30.84H452.44V33.22H454.8V33.49H457.15V33.45H459.51V34.56H461.87V30.01H464.22V34H466.58V32.32H468.93V32.48H471.29V32.18H473.65V34.56H476V34.56H478.36V33.52H480.72V33.53H483.07V33.51H485.43V33.52H487.79V33.61H490.14V34.56H492.5V33.43H494.86V34.56H497.21V34.56H499.57V20.07H501.92V32.26H504.28V34.56H506.64V30.18H508.99V32.34H511.35V33.5H513.71V31.17H516.06V32.05" style="vector-effect: none; fill: none; stroke: rgb(255, 151, 255); stroke-opacity: 1; stroke-width: 2px; opacity: 1;"/></g><g class="points"/><g class="text"/></g></g></g><g class="overplot"/><path class="xlines-above crisp" style="fill: none;" d="M0,0"/><path class="ylines-above crisp" style="fill: none;" d="M0,0"/><g class="overlines-above"/><g class="xaxislayer-above"><g class="xtick"><text text-anchor="middle" x="0" y="732.9999999999999" transform="translate(138.91,0)" style="font-family: 'Open Sans', verdana, arial, sans-serif; font-size: 12px; fill: rgb(42, 63, 95); fill-opacity: 1; white-space: pre; opacity: 1;">Oct 2023</text></g><g class="xtick"><text text-anchor="middle" x="0" y="732.9999999999999" style="font-family: 'Open Sans', verdana, arial, sans-serif; font-size: 12px; fill: rgb(42, 63, 95); fill-opacity: 1; white-space: pre; opacity: 1;" transform="translate(211.96,0)">Nov 2023</text></g><g class="xtick"><text text-anchor="middle" x="0" y="732.9999999999999" style="font-family: 'Open Sans', verdana, arial, sans-serif; font-size: 12px; fill: rgb(42, 63, 95); fill-opacity: 1; white-space: pre; opacity: 1;" transform="translate(282.65999999999997,0)">Dec 2023</text></g><g class="xtick"><text text-anchor="middle" x="0" y="732.9999999999999" style="font-family: 'Open Sans', verdana, arial, sans-serif; font-size: 12px; fill: rgb(42, 63, 95); fill-opacity: 1; white-space: pre; opacity: 1;" transform="translate(355.71,0)">Jan 2024</text></g><g class="xtick"><text text-anchor="middle" x="0" y="732.9999999999999" style="font-family: 'Open Sans', verdana, arial, sans-serif; font-size: 12px; fill: rgb(42, 63, 95); fill-opacity: 1; white-space: pre; opacity: 1;" transform="translate(428.76,0)">Feb 2024</text></g><g class="xtick"><text text-anchor="middle" x="0" y="732.9999999999999" style="font-family: 'Open Sans', verdana, arial, sans-serif; font-size: 12px; fill: rgb(42, 63, 95); fill-opacity: 1; white-space: pre; opacity: 1;" transform="translate(497.09,0)">Mar 2024</text></g><g class="xtick"><text text-anchor="middle" x="0" y="732.9999999999999" style="font-family: 'Open Sans', verdana, arial, sans-serif; font-size: 12px; fill: rgb(42, 63, 95); fill-opacity: 1; white-space: pre; opacity: 1;" transform="translate(570.14,0)">Apr 2024</text></g></g><g class="yaxislayer-above"><g class="ytick"><text text-anchor="end" x="79" y="4.199999999999999" transform="translate(0,679.56)" style="font-family: 'Open Sans', verdana, arial, sans-serif; font-size: 12px; fill: rgb(42, 63, 95); fill-opacity: 1; white-space: pre; opacity: 1;">−20k</text></g><g class="ytick"><text text-anchor="end" x="79" y="4.199999999999999" style="font-family: 'Open Sans', verdana, arial, sans-serif; font-size: 12px; fill: rgb(42, 63, 95); fill-opacity: 1; white-space: pre; opacity: 1;" transform="translate(0,638.3999999999999)">0</text></g></g><g class="overaxes-above"/></g><g class="subplot x2y2"><g class="layer-subplot"><g class="shapelayer"/><g class="imagelayer"/></g><g class="minor-gridlayer"><g class="x2"/><g class="y2"/></g><g class="gridlayer"><g class="x2"><path class="x2grid crisp" transform="translate(138.91,0)" d="M0,467.88v116.16" style="stroke: rgb(255, 255, 255); stroke-opacity: 1; stroke-width: 1px;"/><path class="x2grid crisp" transform="translate(211.96,0)" d="M0,467.88v116.16" style="stroke: rgb(255, 255, 255); stroke-opacity: 1; stroke-width: 1px;"/><path class="x2grid crisp" transform="translate(282.65999999999997,0)" d="M0,467.88v116.16" style="stroke: rgb(255, 255, 255); stroke-opacity: 1; stroke-width: 1px;"/><path class="x2grid crisp" transform="translate(355.71,0)" d="M0,467.88v116.16" style="stroke: rgb(255, 255, 255); stroke-opacity: 1; stroke-width: 1px;"/><path class="x2grid crisp" transform="translate(428.76,0)" d="M0,467.88v116.16" style="stroke: rgb(255, 255, 255); stroke-opacity: 1; stroke-width: 1px;"/><path class="x2grid crisp" transform="translate(497.09,0)" d="M0,467.88v116.16" style="stroke: rgb(255, 255, 255); stroke-opacity: 1; stroke-width: 1px;"/><path class="x2grid crisp" transform="translate(570.14,0)" d="M0,467.88v116.16" style="stroke: rgb(255, 255, 255); stroke-opacity: 1; stroke-width: 1px;"/></g><g class="y2"><path class="y2grid crisp" transform="translate(0,535.72)" d="M80,0h518.42" style="stroke: rgb(255, 255, 255); stroke-opacity: 1; stroke-width: 1px;"/><path class="y2grid crisp" transform="translate(0,492.65999999999997)" d="M80,0h518.42" style="stroke: rgb(255, 255, 255); stroke-opacity: 1; stroke-width: 1px;"/></g></g><g class="zerolinelayer"><path class="y2zl zl crisp" transform="translate(0,578.77)" d="M80,0h518.42" style="stroke: rgb(255, 255, 255); stroke-opacity: 1; stroke-width: 2px;"/></g><path class="xlines-below"/><path class="ylines-below"/><g class="overlines-below"/><g class="xaxislayer-below"/><g class="yaxislayer-below"/><g class="overaxes-below"/><g class="plot" transform="translate(80,467.88)" clip-path="url(#clip5f17e9x2y2plot)"><g class="scatterlayer mlayer"><g class="trace scatter tracee0a505" style="stroke-miterlimit: 2; opacity: 1;"><g class="fills"/><g class="errorbars"/><g class="lines"><path class="js-line" d="M285.13,109.53H285.13V110.35H332.26V108.53H358.18V106.79H360.54V105.77H369.96V102.78H372.32V100.95H372.32V101.58H379.39V98.46H384.1V97.21H386.46V95.15H391.17V93.34H393.53V87.7H412.38V86.63H417.09V82.33H421.81V77.31H438.3V75.16H447.73V73.86H450.08V72.14H466.58V69.99H499.57V5.81" style="vector-effect: none; fill: none; stroke: rgb(25, 211, 243); stroke-opacity: 1; stroke-width: 2px; opacity: 1;"/></g><g class="points"/><g class="text"/></g></g></g><g class="overplot"/><path class="xlines-above crisp" style="fill: none;" d="M0,0"/><path class="ylines-above crisp" style="fill: none;" d="M0,0"/><g class="overlines-above"/><g class="xaxislayer-above"/><g class="yaxislayer-above"><g class="y2tick"><text text-anchor="end" x="79" y="4.199999999999999" transform="translate(0,578.77)" style="font-family: 'Open Sans', verdana, arial, sans-serif; font-size: 12px; fill: rgb(42, 63, 95); fill-opacity: 1; white-space: pre; opacity: 1;">0</text></g><g class="y2tick"><text text-anchor="end" x="79" y="4.199999999999999" style="font-family: 'Open Sans', verdana, arial, sans-serif; font-size: 12px; fill: rgb(42, 63, 95); fill-opacity: 1; white-space: pre; opacity: 1;" transform="translate(0,535.72)">10k</text></g><g class="y2tick"><text text-anchor="end" x="79" y="4.199999999999999" style="font-family: 'Open Sans', verdana, arial, sans-serif; font-size: 12px; fill: rgb(42, 63, 95); fill-opacity: 1; white-space: pre; opacity: 1;" transform="translate(0,492.65999999999997)">20k</text></g></g><g class="overaxes-above"/></g><g class="subplot x3y3"><g class="layer-subplot"><g class="shapelayer"/><g class="imagelayer"/></g><g class="minor-gridlayer"><g class="x3"/><g class="y3"/></g><g class="gridlayer"><g class="x3"><path class="x3grid crisp" transform="translate(138.91,0)" d="M0,331.91999999999996v116.16000000000003" style="stroke: rgb(255, 255, 255); stroke-opacity: 1; stroke-width: 1px;"/><path class="x3grid crisp" transform="translate(211.96,0)" d="M0,331.91999999999996v116.16000000000003" style="stroke: rgb(255, 255, 255); stroke-opacity: 1; stroke-width: 1px;"/><path class="x3grid crisp" transform="translate(282.65999999999997,0)" d="M0,331.91999999999996v116.16000000000003" style="stroke: rgb(255, 255, 255); stroke-opacity: 1; stroke-width: 1px;"/><path class="x3grid crisp" transform="translate(355.71,0)" d="M0,331.91999999999996v116.16000000000003" style="stroke: rgb(255, 255, 255); stroke-opacity: 1; stroke-width: 1px;"/><path class="x3grid crisp" transform="translate(428.76,0)" d="M0,331.91999999999996v116.16000000000003" style="stroke: rgb(255, 255, 255); stroke-opacity: 1; stroke-width: 1px;"/><path class="x3grid crisp" transform="translate(497.09,0)" d="M0,331.91999999999996v116.16000000000003" style="stroke: rgb(255, 255, 255); stroke-opacity: 1; stroke-width: 1px;"/><path class="x3grid crisp" transform="translate(570.14,0)" d="M0,331.91999999999996v116.16000000000003" style="stroke: rgb(255, 255, 255); stroke-opacity: 1; stroke-width: 1px;"/></g><g class="y3"><path class="y3grid crisp" transform="translate(0,411.90999999999997)" d="M80,0h518.42" style="stroke: rgb(255, 255, 255); stroke-opacity: 1; stroke-width: 1px;"/><path class="y3grid crisp" transform="translate(0,374.19999999999993)" d="M80,0h518.42" style="stroke: rgb(255, 255, 255); stroke-opacity: 1; stroke-width: 1px;"/><path class="y3grid crisp" transform="translate(0,336.47999999999996)" d="M80,0h518.42" style="stroke: rgb(255, 255, 255); stroke-opacity: 1; stroke-width: 1px;"/></g></g><g class="zerolinelayer"/><path class="xlines-below"/><path class="ylines-below"/><g class="overlines-below"/><g class="xaxislayer-below"/><g class="yaxislayer-below"/><g class="overaxes-below"/><g class="plot" transform="translate(80,331.91999999999996)" clip-path="url(#clip5f17e9x3y3plot)"><g class="scatterlayer mlayer"><g class="trace scatter trace7a3dae" style="stroke-miterlimit: 2; opacity: 1;"><g class="fills"/><g class="errorbars"/><g class="lines"><path class="js-line" d="M308.7,110.35H311.05V110.35H313.41V107.73H315.76V107.73H318.12V84.46H320.48V77.07H322.83V63.68H325.19V63.39H327.55V55.74H329.9V55.74H332.26V45.1H334.62V39.19H336.97V35.06H339.33V22.56H341.69V18.88H344.04V18.04H346.4V67.79H348.76V61.73H351.11V61.21H353.47V48.88H355.82V44.34H358.18V41.69H360.54V40.78H362.89V38.21H365.25V37.75H367.61V35.65H369.96V30.41H372.32V21.28H374.68V5.81H377.03V13.67H379.39V13.67H381.75V12.7H384.1V10.76H386.46V11.15H388.82V11.1H395.88V11.06H395.88V11.06H499.57V44.71" style="vector-effect: none; fill: none; stroke: rgb(255, 161, 90); stroke-opacity: 1; stroke-width: 2px; opacity: 1;"/></g><g class="points"/><g class="text"/></g><g class="trace scatter traceae1d25" style="stroke-miterlimit: 2; opacity: 1;"><g class="fills"/><g class="errorbars"/><g class="lines"><path class="js-line" d="M379.39,93H381.75V86.91H384.1V84.43H386.46V77.74H388.82V77.47H391.17V73.58H395.88V70.84H402.95V64.27H407.67V57.97H419.45V49.23H421.81V48.11H426.52V44.64H433.59V72.74H450.08V66.28H461.87V51.34H499.57V80.05" style="vector-effect: none; fill: none; stroke: rgb(255, 102, 146); stroke-opacity: 1; stroke-width: 2px; opacity: 1;"/></g><g class="points"/><g class="text"/></g></g></g><g class="overplot"/><path class="xlines-above crisp" style="fill: none;" d="M0,0"/><path class="ylines-above crisp" style="fill: none;" d="M0,0"/><g class="overlines-above"/><g class="xaxislayer-above"/><g class="yaxislayer-above"><g class="y3tick"><text text-anchor="end" x="79" y="4.199999999999999" transform="translate(0,411.90999999999997)" style="font-family: 'Open Sans', verdana, arial, sans-serif; font-size: 12px; fill: rgb(42, 63, 95); fill-opacity: 1; white-space: pre; opacity: 1;">5k</text></g><g class="y3tick"><text text-anchor="end" x="79" y="4.199999999999999" style="font-family: 'Open Sans', verdana, arial, sans-serif; font-size: 12px; fill: rgb(42, 63, 95); fill-opacity: 1; white-space: pre; opacity: 1;" transform="translate(0,374.19999999999993)">10k</text></g><g class="y3tick"><text text-anchor="end" x="79" y="4.199999999999999" style="font-family: 'Open Sans', verdana, arial, sans-serif; font-size: 12px; fill: rgb(42, 63, 95); fill-opacity: 1; white-space: pre; opacity: 1;" transform="translate(0,336.47999999999996)">15k</text></g></g><g class="overaxes-above"/></g><g class="subplot x4y4"><g class="layer-subplot"><g class="shapelayer"/><g class="imagelayer"/></g><g class="minor-gridlayer"><g class="x4"/><g class="y4"/></g><g class="gridlayer"><g class="x4"><path class="x4grid crisp" transform="translate(138.91,0)" d="M0,195.95999999999998v116.16000000000003" style="stroke: rgb(255, 255, 255); stroke-opacity: 1; stroke-width: 1px;"/><path class="x4grid crisp" transform="translate(211.96,0)" d="M0,195.95999999999998v116.16000000000003" style="stroke: rgb(255, 255, 255); stroke-opacity: 1; stroke-width: 1px;"/><path class="x4grid crisp" transform="translate(282.65999999999997,0)" d="M0,195.95999999999998v116.16000000000003" style="stroke: rgb(255, 255, 255); stroke-opacity: 1; stroke-width: 1px;"/><path class="x4grid crisp" transform="translate(355.71,0)" d="M0,195.95999999999998v116.16000000000003" style="stroke: rgb(255, 255, 255); stroke-opacity: 1; stroke-width: 1px;"/><path class="x4grid crisp" transform="translate(428.76,0)" d="M0,195.95999999999998v116.16000000000003" style="stroke: rgb(255, 255, 255); stroke-opacity: 1; stroke-width: 1px;"/><path class="x4grid crisp" transform="translate(497.09,0)" d="M0,195.95999999999998v116.16000000000003" style="stroke: rgb(255, 255, 255); stroke-opacity: 1; stroke-width: 1px;"/><path class="x4grid crisp" transform="translate(570.14,0)" d="M0,195.95999999999998v116.16000000000003" style="stroke: rgb(255, 255, 255); stroke-opacity: 1; stroke-width: 1px;"/></g><g class="y4"><path class="y4grid crisp" transform="translate(0,306.11)" d="M80,0h518.42" style="stroke: rgb(255, 255, 255); stroke-opacity: 1; stroke-width: 1px;"/><path class="y4grid crisp" transform="translate(0,280.66999999999996)" d="M80,0h518.42" style="stroke: rgb(255, 255, 255); stroke-opacity: 1; stroke-width: 1px;"/><path class="y4grid crisp" transform="translate(0,255.23999999999998)" d="M80,0h518.42" style="stroke: rgb(255, 255, 255); stroke-opacity: 1; stroke-width: 1px;"/><path class="y4grid crisp" transform="translate(0,229.79999999999998)" d="M80,0h518.42" style="stroke: rgb(255, 255, 255); stroke-opacity: 1; stroke-width: 1px;"/><path class="y4grid crisp" transform="translate(0,204.35999999999999)" d="M80,0h518.42" style="stroke: rgb(255, 255, 255); stroke-opacity: 1; stroke-width: 1px;"/></g></g><g class="zerolinelayer"/><path class="xlines-below"/><path class="ylines-below"/><g class="overlines-below"/><g class="xaxislayer-below"/><g class="yaxislayer-below"/><g class="overaxes-below"/><g class="plot" transform="translate(80,195.95999999999998)" clip-path="url(#clip5f17e9x4y4plot)"><g class="scatterlayer mlayer"><g class="trace scatter trace4df603" style="stroke-miterlimit: 2; opacity: 1;"><g class="fills"/><g class="errorbars"/><g class="lines"><path class="js-line" d="M261.57,105.37H263.92V76.72H266.28V50.68H270.99V31.24H278.06V5.81" style="vector-effect: none; fill: none; stroke: rgb(171, 99, 250); stroke-opacity: 1; stroke-width: 2px; opacity: 1;"/></g><g class="points"/><g class="text"/></g><g class="trace scatter trace1676dc" style="stroke-miterlimit: 2; opacity: 1;"><g class="fills"/><g class="errorbars"/><g class="lines"><path class="js-line" d="M139.03,74.38H141.39V110.35" style="vector-effect: none; fill: none; stroke: rgb(182, 232, 128); stroke-opacity: 1; stroke-width: 2px; opacity: 1;"/></g><g class="points"/><g class="text"/></g></g></g><g class="overplot"/><path class="xlines-above crisp" style="fill: none;" d="M0,0"/><path class="ylines-above crisp" style="fill: none;" d="M0,0"/><g class="overlines-above"/><g class="xaxislayer-above"/><g class="yaxislayer-above"><g class="y4tick"><text text-anchor="end" x="79" y="4.199999999999999" transform="translate(0,306.11)" style="font-family: 'Open Sans', verdana, arial, sans-serif; font-size: 12px; fill: rgb(42, 63, 95); fill-opacity: 1; white-space: pre; opacity: 1;">1000</text></g><g class="y4tick"><text text-anchor="end" x="79" y="4.199999999999999" style="font-family: 'Open Sans', verdana, arial, sans-serif; font-size: 12px; fill: rgb(42, 63, 95); fill-opacity: 1; white-space: pre; opacity: 1;" transform="translate(0,280.66999999999996)">1500</text></g><g class="y4tick"><text text-anchor="end" x="79" y="4.199999999999999" style="font-family: 'Open Sans', verdana, arial, sans-serif; font-size: 12px; fill: rgb(42, 63, 95); fill-opacity: 1; white-space: pre; opacity: 1;" transform="translate(0,255.23999999999998)">2000</text></g><g class="y4tick"><text text-anchor="end" x="79" y="4.199999999999999" style="font-family: 'Open Sans', verdana, arial, sans-serif; font-size: 12px; fill: rgb(42, 63, 95); fill-opacity: 1; white-space: pre; opacity: 1;" transform="translate(0,229.79999999999998)">2500</text></g><g class="y4tick"><text text-anchor="end" x="79" y="4.199999999999999" style="font-family: 'Open Sans', verdana, arial, sans-serif; font-size: 12px; fill: rgb(42, 63, 95); fill-opacity: 1; white-space: pre; opacity: 1;" transform="translate(0,204.35999999999999)">3000</text></g></g><g class="overaxes-above"/></g><g class="subplot x5y5"><g class="layer-subplot"><g class="shapelayer"/><g class="imagelayer"/></g><g class="minor-gridlayer"><g class="x5"/><g class="y5"/></g><g class="gridlayer"><g class="x5"><path class="x5grid crisp" transform="translate(138.91,0)" d="M0,60v116.15999999999995" style="stroke: rgb(255, 255, 255); stroke-opacity: 1; stroke-width: 1px;"/><path class="x5grid crisp" transform="translate(211.96,0)" d="M0,60v116.15999999999995" style="stroke: rgb(255, 255, 255); stroke-opacity: 1; stroke-width: 1px;"/><path class="x5grid crisp" transform="translate(282.65999999999997,0)" d="M0,60v116.15999999999995" style="stroke: rgb(255, 255, 255); stroke-opacity: 1; stroke-width: 1px;"/><path class="x5grid crisp" transform="translate(355.71,0)" d="M0,60v116.15999999999995" style="stroke: rgb(255, 255, 255); stroke-opacity: 1; stroke-width: 1px;"/><path class="x5grid crisp" transform="translate(428.76,0)" d="M0,60v116.15999999999995" style="stroke: rgb(255, 255, 255); stroke-opacity: 1; stroke-width: 1px;"/><path class="x5grid crisp" transform="translate(497.09,0)" d="M0,60v116.15999999999995" style="stroke: rgb(255, 255, 255); stroke-opacity: 1; stroke-width: 1px;"/><path class="x5grid crisp" transform="translate(570.14,0)" d="M0,60v116.15999999999995" style="stroke: rgb(255, 255, 255); stroke-opacity: 1; stroke-width: 1px;"/></g><g class="y5"><path class="y5grid crisp" transform="translate(0,139.31)" d="M80,0h518.42" style="stroke: rgb(255, 255, 255); stroke-opacity: 1; stroke-width: 1px;"/><path class="y5grid crisp" transform="translate(0,106.72999999999999)" d="M80,0h518.42" style="stroke: rgb(255, 255, 255); stroke-opacity: 1; stroke-width: 1px;"/><path class="y5grid crisp" transform="translate(0,74.15)" d="M80,0h518.42" style="stroke: rgb(255, 255, 255); stroke-opacity: 1; stroke-width: 1px;"/></g></g><g class="zerolinelayer"><path class="y5zl zl crisp" transform="translate(0,171.89)" d="M80,0h518.42" style="stroke: rgb(255, 255, 255); stroke-opacity: 1; stroke-width: 2px;"/></g><path class="xlines-below"/><path class="ylines-below"/><g class="overlines-below"/><g class="xaxislayer-below"/><g class="yaxislayer-below"/><g class="overaxes-below"/><g class="plot" transform="translate(80,60)" clip-path="url(#clip5f17e9x5y5plot)"><g class="scatterlayer mlayer"><g class="trace scatter trace47e696" style="stroke-miterlimit: 2; opacity: 1;"><g class="fills"/><g class="errorbars"/><g class="lines"><path class="js-line" d="M21.21,97.76H23.56V97.57H25.92V96.72H40.06V95.84H42.42V94.95H82.48V94.14H84.83V93.32H89.55V92.42H91.9V91.54H106.04V90.79H108.4V89.79H124.89V88.98H127.25V88.14H148.46V87.24H155.53V86.33H157.88V84.73H172.02V83.84H181.45V83.03H190.87V81.37H205.01V80.35H214.44V78.96H216.79V78.08H223.86V77.22H226.22V76.37H238V75.52H240.36V73.65H245.07V72.83H247.43V71.62H252.14V70.84H254.5V69.63H261.57V68.81H263.92V67.67H268.64V66.62" style="vector-effect: none; fill: none; stroke: rgb(99, 110, 250); stroke-opacity: 1; stroke-width: 2px; opacity: 1;"/></g><g class="points"/><g class="text"/></g><g class="trace scatter traceb2233c" style="stroke-miterlimit: 2; opacity: 1;"><g class="fills"/><g class="errorbars"/><g class="lines"><path class="js-line" d="M0,55.65H2.36V55.73H4.71V63.28H7.07V60.56H9.43V57.76H18.85V50.97H23.56V48.83H381.75V110.35H384.1V105.98H386.46V91.26H388.82V89.42H391.17V79.02H393.53V58.39H395.88V55H398.24V49.75H402.95V46.06H405.31V45.81H412.38V44.79H414.74V43.86H421.81V43.04H424.16V42.25H428.87V41.33H433.59V40.42H435.94V39.54H438.3V37.99H440.66V36.13H443.01V35.19H445.37V33.83H447.73V32.93H450.08V32.03H452.44V30.97H454.8V30.13H457.15V29.25H461.87V28.88H464.22V28.44H466.58V27.48H468.93V25.83H471.29V23.95H478.36V23.13H480.72V22.31H483.07V21.48H485.43V20.66H487.79V19.91H492.5V19.02H499.57V18.36H501.92V16.53H506.64V13.07H508.99V11.32H511.35V9.59H511.35V10.48H513.71V7.8H516.06V5.81" style="vector-effect: none; fill: none; stroke: rgb(239, 85, 59); stroke-opacity: 1; stroke-width: 2px; opacity: 1;"/></g><g class="points"/><g class="text"/></g><g class="trace scatter trace5dab3b" style="stroke-miterlimit: 2; opacity: 1;"><g class="fills"/><g class="errorbars"/><g class="lines"><path class="js-line" d="M254.5,103.78H256.85V101.92H259.21V101.06H263.92V99.94H268.64V99.08H270.99V98.25H273.35V97.18H275.71V95.5H278.06V94.61H282.77V93.76H287.49V92.44H289.84V91.6H294.56V90.73H299.27V89.99H303.98V89.13H306.34V88.3H308.7V87.48H313.41V86.61H320.48V85.98H322.83V85.06H327.55V84.52H334.62V83.54H336.97V82.01H339.33V81.21H341.69V89.19H362.89V107.69" style="vector-effect: none; fill: none; stroke: rgb(0, 204, 150); stroke-opacity: 1; stroke-width: 2px; opacity: 1;"/></g><g class="points"/><g class="text"/></g></g></g><g class="overplot"/><path class="xlines-above crisp" style="fill: none;" d="M0,0"/><path class="ylines-above crisp" style="fill: none;" d="M0,0"/><g class="overlines-above"/><g class="xaxislayer-above"/><g class="yaxislayer-above"><g class="y5tick"><text text-anchor="end" x="79" y="4.199999999999999" transform="translate(0,171.89)" style="font-family: 'Open Sans', verdana, arial, sans-serif; font-size: 12px; fill: rgb(42, 63, 95); fill-opacity: 1; white-space: pre; opacity: 1;">0</text></g><g class="y5tick"><text text-anchor="end" x="79" y="4.199999999999999" style="font-family: 'Open Sans', verdana, arial, sans-serif; font-size: 12px; fill: rgb(42, 63, 95); fill-opacity: 1; white-space: pre; opacity: 1;" transform="translate(0,139.31)">20k</text></g><g class="y5tick"><text text-anchor="end" x="79" y="4.199999999999999" style="font-family: 'Open Sans', verdana, arial, sans-serif; font-size: 12px; fill: rgb(42, 63, 95); fill-opacity: 1; white-space: pre; opacity: 1;" transform="translate(0,106.72999999999999)">40k</text></g><g class="y5tick"><text text-anchor="end" x="79" y="4.199999999999999" style="font-family: 'Open Sans', verdana, arial, sans-serif; font-size: 12px; fill: rgb(42, 63, 95); fill-opacity: 1; white-space: pre; opacity: 1;" transform="translate(0,74.15)">60k</text></g></g><g class="overaxes-above"/></g></g><g class="polarlayer"/><g class="smithlayer"/><g class="ternarylayer"/><g class="geolayer"/><g class="funnelarealayer"/><g class="pielayer"/><g class="iciclelayer"/><g class="treemaplayer"/><g class="sunburstlayer"/><g class="glimages"/><defs id="topdefs-5f17e9"><g class="clips"/><clipPath id="legend5f17e9"><rect width="168" height="200" x="0" y="0"/></clipPath></defs><g class="layer-above"><g class="imagelayer"/><g class="shapelayer"/></g><g class="infolayer"><g class="legend" pointer-events="all" transform="translate(619.58,60)"><rect class="bg" shape-rendering="crispEdges" style="stroke: rgb(68, 68, 68); stroke-opacity: 1; fill: rgb(255, 255, 255); fill-opacity: 1; stroke-width: 0px;" width="168" height="200" x="0" y="0"/><g class="scrollbox" transform="" clip-path="url(#legend5f17e9)"><text class="legendtitletext" text-anchor="start" x="2" y="18.2" style="font-family: 'Open Sans', verdana, arial, sans-serif; font-size: 14px; fill: rgb(42, 63, 95); fill-opacity: 1; white-space: pre;">title</text><g class="groups" transform=""><g class="traces" transform="translate(0,32.7)" style="opacity: 1;"><text class="legendtext" text-anchor="start" x="40" y="4.680000000000001" style="font-family: 'Open Sans', verdana, arial, sans-serif; font-size: 12px; fill: rgb(42, 63, 95); fill-opacity: 1; white-space: pre;">All the Other Santas</text><g class="layers" style="opacity: 1;"><g class="legendfill"/><g class="legendlines"><path class="js-line" d="M5,0h30" style="fill: none; stroke: rgb(99, 110, 250); stroke-opacity: 1; stroke-width: 2px;"/></g><g class="legendsymbols"><g class="legendpoints"/></g></g><rect class="legendtoggle" x="0" y="-9.5" width="162.15625" height="19" style="fill: rgb(0, 0, 0); fill-opacity: 0;"/></g></g><g class="groups" transform=""><g class="traces" transform="translate(0,51.7)" style="opacity: 1;"><text class="legendtext" text-anchor="start" x="40" y="4.680000000000001" style="font-family: 'Open Sans', verdana, arial, sans-serif; font-size: 12px; fill: rgb(42, 63, 95); fill-opacity: 1; white-space: pre;">Iffy</text><g class="layers" style="opacity: 1;"><g class="legendfill"/><g class="legendlines"><path class="js-line" d="M5,0h30" style="fill: none; stroke: rgb(239, 85, 59); stroke-opacity: 1; stroke-width: 2px;"/></g><g class="legendsymbols"><g class="legendpoints"/></g></g><rect class="legendtoggle" x="0" y="-9.5" width="162.15625" height="19" style="fill: rgb(0, 0, 0); fill-opacity: 0;"/></g></g><g class="groups" transform=""><g class="traces" transform="translate(0,70.7)" style="opacity: 1;"><text class="legendtext" text-anchor="start" x="40" y="4.680000000000001" style="font-family: 'Open Sans', verdana, arial, sans-serif; font-size: 12px; fill: rgb(42, 63, 95); fill-opacity: 1; white-space: pre;">In Heck</text><g class="layers" style="opacity: 1;"><g class="legendfill"/><g class="legendlines"><path class="js-line" d="M5,0h30" style="fill: none; stroke: rgb(0, 204, 150); stroke-opacity: 1; stroke-width: 2px;"/></g><g class="legendsymbols"><g class="legendpoints"/></g></g><rect class="legendtoggle" x="0" y="-9.5" width="162.15625" height="19" style="fill: rgb(0, 0, 0); fill-opacity: 0;"/></g></g><g class="groups" transform=""><g class="traces" transform="translate(0,89.7)" style="opacity: 1;"><text class="legendtext" text-anchor="start" x="40" y="4.680000000000001" style="font-family: 'Open Sans', verdana, arial, sans-serif; font-size: 12px; fill: rgb(42, 63, 95); fill-opacity: 1; white-space: pre;">Leaderboard</text><g class="layers" style="opacity: 1;"><g class="legendfill"/><g class="legendlines"><path class="js-line" d="M5,0h30" style="fill: none; stroke: rgb(171, 99, 250); stroke-opacity: 1; stroke-width: 2px;"/></g><g class="legendsymbols"><g class="legendpoints"/></g></g><rect class="legendtoggle" x="0" y="-9.5" width="162.15625" height="19" style="fill: rgb(0, 0, 0); fill-opacity: 0;"/></g></g><g class="groups" transform=""><g class="traces" transform="translate(0,108.7)" style="opacity: 1;"><text class="legendtext" text-anchor="start" x="40" y="4.680000000000001" style="font-family: 'Open Sans', verdana, arial, sans-serif; font-size: 12px; fill: rgb(42, 63, 95); fill-opacity: 1; white-space: pre;">SQL Tutorial</text><g class="layers" style="opacity: 1;"><g class="legendfill"/><g class="legendlines"><path class="js-line" d="M5,0h30" style="fill: none; stroke: rgb(255, 161, 90); stroke-opacity: 1; stroke-width: 2px;"/></g><g class="legendsymbols"><g class="legendpoints"/></g></g><rect class="legendtoggle" x="0" y="-9.5" width="162.15625" height="19" style="fill: rgb(0, 0, 0); fill-opacity: 0;"/></g></g><g class="groups" transform=""><g class="traces" transform="translate(0,127.7)" style="opacity: 1;"><text class="legendtext" text-anchor="start" x="40" y="4.680000000000001" style="font-family: 'Open Sans', verdana, arial, sans-serif; font-size: 12px; fill: rgb(42, 63, 95); fill-opacity: 1; white-space: pre;">Scribophile</text><g class="layers" style="opacity: 1;"><g class="legendfill"/><g class="legendlines"><path class="js-line" d="M5,0h30" style="fill: none; stroke: rgb(25, 211, 243); stroke-opacity: 1; stroke-width: 2px;"/></g><g class="legendsymbols"><g class="legendpoints"/></g></g><rect class="legendtoggle" x="0" y="-9.5" width="162.15625" height="19" style="fill: rgb(0, 0, 0); fill-opacity: 0;"/></g></g><g class="groups" transform=""><g class="traces" transform="translate(0,146.7)" style="opacity: 1;"><text class="legendtext" text-anchor="start" x="40" y="4.680000000000001" style="font-family: 'Open Sans', verdana, arial, sans-serif; font-size: 12px; fill: rgb(42, 63, 95); fill-opacity: 1; white-space: pre;">System Tutorial</text><g class="layers" style="opacity: 1;"><g class="legendfill"/><g class="legendlines"><path class="js-line" d="M5,0h30" style="fill: none; stroke: rgb(255, 102, 146); stroke-opacity: 1; stroke-width: 2px;"/></g><g class="legendsymbols"><g class="legendpoints"/></g></g><rect class="legendtoggle" x="0" y="-9.5" width="162.15625" height="19" style="fill: rgb(0, 0, 0); fill-opacity: 0;"/></g></g><g class="groups" transform=""><g class="traces" transform="translate(0,165.7)" style="opacity: 1;"><text class="legendtext" text-anchor="start" x="40" y="4.680000000000001" style="font-family: 'Open Sans', verdana, arial, sans-serif; font-size: 12px; fill: rgb(42, 63, 95); fill-opacity: 1; white-space: pre;">Tuppence a Bag</text><g class="layers" style="opacity: 1;"><g class="legendfill"/><g class="legendlines"><path class="js-line" d="M5,0h30" style="fill: none; stroke: rgb(182, 232, 128); stroke-opacity: 1; stroke-width: 2px;"/></g><g class="legendsymbols"><g class="legendpoints"/></g></g><rect class="legendtoggle" x="0" y="-9.5" width="162.15625" height="19" style="fill: rgb(0, 0, 0); fill-opacity: 0;"/></g></g><g class="groups" transform=""><g class="traces" transform="translate(0,184.7)" style="opacity: 1;"><text class="legendtext" text-anchor="start" x="40" y="4.680000000000001" style="font-family: 'Open Sans', verdana, arial, sans-serif; font-size: 12px; fill: rgb(42, 63, 95); fill-opacity: 1; white-space: pre;">change</text><g class="layers" style="opacity: 1;"><g class="legendfill"/><g class="legendlines"><path class="js-line" d="M5,0h30" style="fill: none; stroke: rgb(255, 151, 255); stroke-opacity: 1; stroke-width: 2px;"/></g><g class="legendsymbols"><g class="legendpoints"/></g></g><rect class="legendtoggle" x="0" y="-9.5" width="162.15625" height="19" style="fill: rgb(0, 0, 0); fill-opacity: 0;"/></g></g></g><rect class="scrollbar" rx="20" ry="3" width="0" height="0" style="fill: rgb(128, 139, 164); fill-opacity: 1;" x="0" y="0"/></g><g class="g-gtitle"/><g class="g-xtitle"><text class="xtitle" x="339.21" y="759.8" text-anchor="middle" style="font-family: 'Open Sans', verdana, arial, sans-serif; font-size: 14px; fill: rgb(42, 63, 95); opacity: 1; font-weight: normal; white-space: pre;">date</text></g><g class="g-x2title"/><g class="g-x3title"/><g class="g-x4title"/><g class="g-x5title"/><g class="g-ytitle"><text class="ytitle" transform="rotate(-90,22.512500000000003,661.92)" x="22.512500000000003" y="661.92" text-anchor="middle" style="font-family: 'Open Sans', verdana, arial, sans-serif; font-size: 14px; fill: rgb(42, 63, 95); opacity: 1; font-weight: normal; white-space: pre;">words</text></g><g class="g-y2title"><text class="y2title" transform="rotate(-90,32.340625,525.96)" x="32.340625" y="525.96" text-anchor="middle" style="font-family: 'Open Sans', verdana, arial, sans-serif; font-size: 14px; fill: rgb(42, 63, 95); opacity: 1; font-weight: normal; white-space: pre;">words</text></g><g class="g-y3title"><text class="y3title" transform="rotate(-90,32.340625,390)" x="32.340625" y="390" text-anchor="middle" style="font-family: 'Open Sans', verdana, arial, sans-serif; font-size: 14px; fill: rgb(42, 63, 95); opacity: 1; font-weight: normal; white-space: pre;">words</text></g><g class="g-y4title"><text class="y4title" transform="rotate(-90,24.184375000000003,254.04)" x="24.184375000000003" y="254.04" text-anchor="middle" style="font-family: 'Open Sans', verdana, arial, sans-serif; font-size: 14px; fill: rgb(42, 63, 95); opacity: 1; font-weight: normal; white-space: pre;">words</text></g><g class="g-y5title"><text class="y5title" transform="rotate(-90,32.340625,118.07999999999998)" x="32.340625" y="118.07999999999998" text-anchor="middle" style="font-family: 'Open Sans', verdana, arial, sans-serif; font-size: 14px; fill: rgb(42, 63, 95); opacity: 1; font-weight: normal; white-space: pre;">words</text></g><g class="annotation" data-index="0" style="opacity: 1;"><g class="annotation-text-g" transform="rotate(90,607.92,661.9200000000001)"><g class="cursor-pointer" transform="translate(591,652)"><rect class="bg" x="0.5" y="0.5" width="33" height="18" style="stroke-width: 1px; stroke: rgb(0, 0, 0); stroke-opacity: 0; fill: rgb(0, 0, 0); fill-opacity: 0;"/><text class="annotation-text" text-anchor="middle" x="16.9375" y="14" style="font-family: 'Open Sans', verdana, arial, sans-serif; font-size: 12px; fill: rgb(42, 63, 95); fill-opacity: 1; white-space: pre;">delta</text></g></g></g><g class="annotation" data-index="1" style="opacity: 1;"><g class="annotation-text-g" transform="rotate(90,607.92,525.96)"><g class="cursor-pointer" transform="translate(586,516)"><rect class="bg" x="0.5" y="0.5" width="43" height="18" style="stroke-width: 1px; stroke: rgb(0, 0, 0); stroke-opacity: 0; fill: rgb(0, 0, 0); fill-opacity: 0;"/><text class="annotation-text" text-anchor="middle" x="21.828125" y="14" style="font-family: 'Open Sans', verdana, arial, sans-serif; font-size: 12px; fill: rgb(42, 63, 95); fill-opacity: 1; white-space: pre;">review</text></g></g></g><g class="annotation" data-index="2" style="opacity: 1;"><g class="annotation-text-g" transform="rotate(90,607.92,390)"><g class="cursor-pointer" transform="translate(600,381)"><rect class="bg" x="0.5" y="0.5" width="15" height="18" style="stroke-width: 1px; stroke: rgb(0, 0, 0); stroke-opacity: 0; fill: rgb(0, 0, 0); fill-opacity: 0;"/><text class="annotation-text" text-anchor="middle" x="7.90625" y="14" style="font-family: 'Open Sans', verdana, arial, sans-serif; font-size: 12px; fill: rgb(42, 63, 95); fill-opacity: 1; white-space: pre;">nf</text></g></g></g><g class="annotation" data-index="3" style="opacity: 1;"><g class="annotation-text-g" transform="rotate(90,607.92,254.04000000000002)"><g class="cursor-pointer" transform="translate(590,245)"><rect class="bg" x="0.5" y="0.5" width="34" height="18" style="stroke-width: 1px; stroke: rgb(0, 0, 0); stroke-opacity: 0; fill: rgb(0, 0, 0); fill-opacity: 0;"/><text class="annotation-text" text-anchor="middle" x="17.5" y="14" style="font-family: 'Open Sans', verdana, arial, sans-serif; font-size: 12px; fill: rgb(42, 63, 95); fill-opacity: 1; white-space: pre;">short</text></g></g></g><g class="annotation" data-index="4" style="opacity: 1;"><g class="annotation-text-g" transform="rotate(90,607.92,118.07999999999998)"><g class="cursor-pointer" transform="translate(599,109)"><rect class="bg" x="0.5" y="0.5" width="17" height="18" style="stroke-width: 1px; stroke: rgb(0, 0, 0); stroke-opacity: 0; fill: rgb(0, 0, 0); fill-opacity: 0;"/><text class="annotation-text" text-anchor="middle" x="9.15625" y="14" style="font-family: 'Open Sans', verdana, arial, sans-serif; font-size: 12px; fill: rgb(42, 63, 95); fill-opacity: 1; white-space: pre;">ya</text></g></g></g></g></svg>