<svg class="main-svg" xmlns="http://www.w3.org/2000/svg" xmlns:xlink="http://www.w3.org/1999/xlink" width="800" height="800" style="" viewBox="0 0 800 800"><rect x="0" y="0" width="800" height="800" style="fill: rgb(255, 255, 255); fill-opacity: 1;"/><defs id="defs-d3bd80"><g class="clips"><clipPath id="clipd3bd80xyplot" class="plotclip"><rect width="518.42" height="116.16000000000001"/></clipPath><clipPath id="clipd3bd80x2y2plot" class="plotclip"><rect width="518.42" height="116.16"/></clipPath><clipPath id="clipd3bd80x3y3plot" class="plotclip"><rect width="518.42" height="116.16000000000003"/></clipPath><clipPath id="clipd3bd80x4y4plot" class="plotclip"><rect width="518.42" height="116.16000000000003"/></clipPath><clipPath id="clipd3bd80x5y5plot" class="plotclip"><rect width="518.42" height="116.15999999999995"/></clipPath><clipPath class="axesclip" id="clipd3bd80x"><rect x="80" y="0" width="518.42" height="800"/></clipPath><clipPath class="axesclip" id="clipd3bd80y"><rect x="0" y="603.8399999999999" width="800" height="116.16000000000001"/></clipPath><clipPath class="axesclip" id="clipd3bd80xy"><rect x="80" y="603.8399999999999" width="518.42" height="116.16000000000001"/></clipPath><clipPath class="axesclip" id="clipd3bd80y2"><rect x="0" y="467.88" width="800" height="116.16"/></clipPath><clipPath class="axesclip" id="clipd3bd80xy2"><rect x="80" y="467.88" width="518.42" height="116.16"/></clipPath><clipPath class="axesclip" id="clipd3bd80y3"><rect x="0" y="331.91999999999996" width="800" height="116.16000000000003"/></clipPath><clipPath class="axesclip" id="clipd3bd80xy3"><rect x="80" y="331.91999999999996" width="518.42" height="116.16000000000003"/></clipPath><clipPath class="axesclip" id="clipd3bd80y4"><rect x="0" y="195.95999999999998" width="800" height="116.16000000000003"/></clipPath><clipPath class="axesclip" id="clipd3bd80xy4"><rect x="80" y="195.95999999999998" width="518.42" height="116.16000000000003"/></clipPath><clipPath class="axesclip" id="clipd3bd80y5"><rect x="0" y="60" width="800" height="116.15999999999995"/></clipPath><clipPath class="axesclip" id="clipd3bd80xy5"><rect x="80" y="60" width="518.42" height="116.15999999999995"/></clipPath><clipPath class="axesclip" id="clipd3bd80x2"><rect x="80" y="0" width="518.42" height="800"/></clipPath><clipPath class="axesclip" id="clipd3bd80x2y"><rect x="80" y="603.8399999999999" width="518.42" height="116.16000000000001"/></clipPath><clipPath class="axesclip" id="clipd3bd80x2y2"><rect x="80" y="467.88" width="518.42" height="116.16"/></clipPath><clipPath class="axesclip" id="clipd3bd80x2y3"><rect x="80" y="331.91999999999996" width="518.42" height="116.16000000000003"/></clipPath><clipPath class="axesclip" id="clipd3bd80x2y4"><rect x="80" y="195.95999999999998" width="518.42" height="116.16000000000003"/></clipPath><clipPath class="axesclip" id="clipd3bd80x2y5"><rect x="80" y="60" width="518.42" height="116.15999999999995"/></clipPath><clipPath class="axesclip" id="clipd3bd80x3"><rect x="80" y="0" width="518.42" height="800"/></clipPath><clipPath class="axesclip" id="clipd3bd80x3y"><rect x="80" y="603.8399999999999" width="518.42" height="116.16000000000001"/></clipPath><clipPath class="axesclip" id="clipd3bd80x3y2"><rect x="80" y="467.88" width="518.42" height="116.16"/></clipPath><clipPath class="axesclip" id="clipd3bd80x3y3"><rect x="80" y="331.91999999999996" width="518.42" height="116.16000000000003"/></clipPath><clipPath class="axesclip" id="clipd3bd80x3y4"><rect x="80" y="195.95999999999998" width="518.42" height="116.16000000000003"/></clipPath><clipPath class="axesclip" id="clipd3bd80x3y5"><rect x="80" y="60" width="518.42" height="116.15999999999995"/></clipPath><clipPath class="axesclip" id="clipd3bd80x4"><rect x="80" y="0" width="518.42" height="800"/></clipPath><clipPath class="axesclip" id="clipd3bd80x4y"><rect x="80" y="603.8399999999999" width="518.42" height="116.16000000000001"/></clipPath><clipPath class="axesclip" id="clipd3bd80x4y2"><rect x="80" y="467.88" width="518.42" height="116.16"/></clipPath><clipPath class="axesclip" id="clipd3bd80x4y3"><rect x="80" y="331.91999999999996" width="518.42" height="116.16000000000003"/></clipPath><clipPath class="axesclip" id="clipd3bd80x4y4"><rect x="80" y="195.95999999999998" width="518.42" height="116.16000000000003"/></clipPath><clipPath class="axesclip" id="clipd3bd80x4y5"><rect x="80" y="60" width="518.42" height="116.15999999999995"/></clipPath><clipPath class="axesclip" id="clipd3bd80x5"><rect x="80" y="0" width="518.42" height="800"/></clipPath><clipPath class="axesclip" id="clipd3bd80x5y"><rect x="80" y="603.8399999999999" width="518.42" height="116.16000000000001"/></clipPath><clipPath class="axesclip" id="clipd3bd80x5y2"><rect x="80" y="467.88" width="518.42" height="116.16"/></clipPath><clipPath class="axesclip" id="clipd3bd80x5y3"><rect x="80" y="331.91999999999996" width="518.42" height="116.16000000000003"/></clipPath><clipPath class="axesclip" id="clipd3bd80x5y4"><rect x="80" y="195.95999999999998" width="518.42" height="116.16000000000003"/></clipPath><clipPath class="axesclip" id="clipd3bd80x5y5"><rect x="80" y="60" width="518.42" height="116.15999999999995"/></clipPath></g><g class="gradients"/><g class="patterns"/></defs><g class="bglayer"><rect class="bg" x="80" y="603.8399999999999" width="518.42" height="116.16000000000001" style="fill: rgb(229, 236, 246); fill-opacity: 1; stroke-width: 0;"/><rect class="bg" x="80" y="467.88" width="518.42" height="116.16" style="fill: rgb(229, 236, 246); fill-opacity: 1; stroke-width: 0;"/><rect class="bg" x="80" y="331.91999999999996" width="518.42" height="116.16000000000003" style="fill: rgb(229, 236, 246); fill-opacity: 1; stroke-width: 0;"/><rect class="bg" x="80" y="195.95999999999998" width="518.42" height="116.16000000000003" style="fill: rgb(229, 236, 246); fill-opacity: 1; stroke-width: 0;"/><rect class="bg" x="80" y="60" width="518.42" height="116.15999999999995" style="fill: rgb(229, 236, 246); fill-opacity: 1; stroke-width: 0;"/></g><g class="layer-below"><g class="imagelayer"/><g class="shapelayer"/></g><g class="cartesianlayer"><g class="subplot xy"><g class="layer-subplot"><g class="shapelayer"/><g class="imagelayer"/></g><g class="minor-gridlayer"><g class="x"/><g class="y"/></g><g class="gridlayer"><g class="x"><path class="xgrid crisp" transform="translate(204.6,0)" d="M0,603.8399999999999v116.16000000000001" style="stroke: rgb(255, 255, 255); stroke-opacity: 1; stroke-width: 1px;"/><path class="xgrid crisp" transform="translate(340.32,0)" d="M0,603.8399999999999v116.16000000000001" style="stroke: rgb(255, 255, 255); stroke-opacity: 1; stroke-width: 1px;"/><path class="xgrid crisp" transform="translate(473.82,0)" d="M0,603.8399999999999v116.16000000000001" style="stroke: rgb(255, 255, 255); stroke-opacity: 1; stroke-width: 1px;"/></g><g class="y"><path class="ygrid crisp" transform="translate(0,679.56)" d="M80,0h518.42" style="stroke: rgb(255, 255, 255); stroke-opacity: 1; stroke-width: 1px;"/></g></g><g class="zerolinelayer"><path class="yzl zl crisp" transform="translate(0,638.3999999999999)" d="M80,0h518.42" style="stroke: rgb(255, 255, 255); stroke-opacity: 1; stroke-width: 2px;"/></g><path class="xlines-below"/><path class="ylines-below"/><g class="overlines-below"/><g class="xaxislayer-below"/><g class="yaxislayer-below"/><g class="overaxes-below"/><g class="plot" transform="translate(80,603.8399999999999)" clip-path="url(#clipd3bd80xyplot)"><g class="scatterlayer mlayer"><g class="trace scatter tracef41a38" style="stroke-miterlimit: 2; opacity: 1;"><g class="fills"/><g class="errorbars"/><g class="lines"><path class="js-line" d="M2.22,34.65H4.45V44.1H6.67V31.12H8.9V31.02H11.12V34.56H13.35V34.56H15.57V34.56H17.8V25.98H20.02V34.56H22.25V31.61H24.47V33.48H26.7V34.56H28.92V34.56H31.15V34.56H33.37V34.56H35.6V34.56H37.82V33.44H40.05V33.43H42.27V34.56H44.5V34.56H46.72V34.56H48.95V34.56H51.17V34.56H53.4V34.56H55.62V34.56H57.85V34.56H60.07V34.56H62.3V34.56H64.52V34.56H66.75V34.56H68.97V34.56H71.2V34.56H73.42V34.56H75.65V34.56H77.87V33.54H80.1V33.52H82.32V34.56H84.55V33.42H86.77V33.46H89V34.56H91.22V34.56H93.45V34.56H95.67V34.56H97.9V34.56H100.12V33.6H102.35V33.3H104.57V34.56H106.8V34.56H109.02V34.56H111.25V34.56H113.47V34.56H115.7V34.56H117.92V33.53H120.15V33.5H122.37V34.56H124.6V34.56H126.82V34.56H129.05V34.56H131.27V34.56H133.5V36.01H135.72V34.56H137.95V34.56H140.17V33.42H142.4V34.56H144.62V34.56H146.85V33.42H149.07V32.53H151.3V34.56H153.52V34.56H155.75V34.56H157.97V34.56H160.2V34.56H162.42V33.43H164.65V34.56H166.87V34.56H169.1V34.56H171.32V33.54H173.55V34.56H175.77V34.56H178V34.56H180.22V32.46H182.45V34.56H184.67V34.56H186.9V34.56H189.12V34.56H191.35V34.56H193.57V33.27H195.8V34.56H198.02V34.56H200.25V34.56H202.47V32.8H204.7V33.45H206.92V34.56H209.15V34.56H211.37V33.46H213.6V33.49H215.82V34.56H218.05V34.56H220.27V34.56H222.5V34.56H224.72V33.49H226.95V32.2H229.17V34.56H231.4V33.52H233.62V33.03H235.85V34.56H238.07V33.58H240.3V33.03H242.52V32.21H244.75V33.47H246.97V33.52H249.2V30.55H251.42V33.5H253.65V32.14H255.87V32.72H258.1V33.21H260.32V32.43H262.55V32.42H264.77V34.56H267V33.48H269.22V34.95H271.45V32.89H273.67V33.5H275.9V34.56H278.12V33.46H280.35V34.56H282.57V33.62H284.8V34.56H287.02V33.47H289.25V33.51H291.47V33.53H293.7V34.56H295.92V32.75H298.15V34.56H300.37V28.21H302.6V31.75H304.82V29.74H307.05V34.48H309.27V31.78H311.5V34.56H313.72V30.79H315.95V31.72H318.17V31.5H320.4V30.13H322.62V43.64H324.85V34.33H327.07V48.13H329.3V32.9H331.52V34.42H333.75V31.19H335.97V33.32H338.2V33H340.42V33.82H342.65V57.24H344.87V34.43H347.1V33.99H349.32V31.7H351.55V31.49H353.77V30.34H356V36.7H358.22V33.07H360.45V110.35H362.67V27.23H364.9V13.25H367.12V32.15H369.35V19.49H371.57V5.81H373.8V29.52H376.02V27.92H378.25V34.56H380.47V28.11H382.7V34.25H384.92V32.84H387.15V34.56H389.37V32.76H391.6V33.39H393.82V32.5H396.05V32.17H398.27V30.82H400.5V33.56H402.72V33.61H404.95V33.39H407.17V34.56H409.4V41.07H411.62V33.46H413.85V31.57H416.07V32.21H418.3V33.38H420.52V32.83H422.75V32.81H424.97V30.84H427.2V33.22H429.42V33.49H431.65V33.45H433.87V34.56H436.1V30.01H438.32V34H440.55V32.32H442.77V32.48H445V32.18H447.22V34.56H449.45V34.56H451.67V33.52H453.9V33.53H456.12V33.51H458.35V33.52H460.57V33.61H462.8V34.56H465.02V33.43H467.25V34.56H469.47V34.56H471.7V20.07H473.92V32.26H476.15V34.56H478.37V30.18H480.6V32.34H482.82V32.38H485.05V32.29H487.27V32.05H489.5V32.4H491.72V32.2H493.95V29.75H496.17V32.44H498.4V33.39H500.62V29.8H502.85V30.8H505.07V32H507.3V32.29H509.52V31.1H511.75V32.99H513.97V34.5H516.2V33.27" style="vector-effect: none; fill: none; stroke: rgb(255, 151, 255); stroke-opacity: 1; stroke-width: 2px; opacity: 1;"/></g><g class="points"/><g class="text"/></g></g></g><g class="overplot"/><path class="xlines-above crisp" style="fill: none;" d="M0,0"/><path class="ylines-above crisp" style="fill: none;" d="M0,0"/><g class="overlines-above"/><g class="xaxislayer-above"><g class="xtick"><text text-anchor="middle" x="0" y="732.9999999999999" transform="translate(204.6,0)" style="font-family: 'Open Sans', verdana, arial, sans-serif; font-size: 12px; fill: rgb(42, 63, 95); fill-opacity: 1; white-space: pre; opacity: 1;">Nov 2023</text></g><g class="xtick"><text text-anchor="middle" x="0" y="732.9999999999999" style="font-family: 'Open Sans', verdana, arial, sans-serif; font-size: 12px; fill: rgb(42, 63, 95); fill-opacity: 1; white-space: pre; opacity: 1;" transform="translate(340.32,0)">Jan 2024</text></g><g class="xtick"><text text-anchor="middle" x="0" y="732.9999999999999" style="font-family: 'Open Sans', verdana, arial, sans-serif; font-size: 12px; fill: rgb(42, 63, 95); fill-opacity: 1; white-space: pre; opacity: 1;" transform="translate(473.82,0)">Mar 2024</text></g></g><g class="yaxislayer-above"><g class="ytick"><text text-anchor="end" x="79" y="4.199999999999999" transform="translate(0,679.56)" style="font-family: 'Open Sans', verdana, arial, sans-serif; font-size: 12px; fill: rgb(42, 63, 95); fill-opacity: 1; white-space: pre; opacity: 1;">−20k</text></g><g class="ytick"><text text-anchor="end" x="79" y="4.199999999999999" style="font-family: 'Open Sans', verdana, arial, sans-serif; font-size: 12px; fill: rgb(42, 63, 95); fill-opacity: 1; white-space: pre; opacity: 1;" transform="translate(0,638.3999999999999)">0</text></g></g><g class="overaxes-above"/></g><g class="subplot x2y2"><g class="layer-subplot"><g class="shapelayer"/><g class="imagelayer"/></g><g class="minor-gridlayer"><g class="x2"/><g class="y2"/></g><g class="gridlayer"><g class="x2"><path class="x2grid crisp" transform="translate(204.6,0)" d="M0,467.88v116.16" style="stroke: rgb(255, 255, 255); stroke-opacity: 1; stroke-width: 1px;"/><path class="x2grid crisp" transform="translate(340.32,0)" d="M0,467.88v116.16" style="stroke: rgb(255, 255, 255); stroke-opacity: 1; stroke-width: 1px;"/><path class="x2grid crisp" transform="translate(473.82,0)" d="M0,467.88v116.16" style="stroke: rgb(255, 255, 255); stroke-opacity: 1; stroke-width: 1px;"/></g><g class="y2"><path class="y2grid crisp" transform="translate(0,535.72)" d="M80,0h518.42" style="stroke: rgb(255, 255, 255); stroke-opacity: 1; stroke-width: 1px;"/><path class="y2grid crisp" transform="translate(0,492.65999999999997)" d="M80,0h518.42" style="stroke: rgb(255, 255, 255); stroke-opacity: 1; stroke-width: 1px;"/></g></g><g class="zerolinelayer"><path class="y2zl zl crisp" transform="translate(0,578.77)" d="M80,0h518.42" style="stroke: rgb(255, 255, 255); stroke-opacity: 1; stroke-width: 2px;"/></g><path class="xlines-below"/><path class="ylines-below"/><g class="overlines-below"/><g class="xaxislayer-below"/><g class="yaxislayer-below"/><g class="overaxes-below"/><g class="plot" transform="translate(80,467.88)" clip-path="url(#clipd3bd80x2y2plot)"><g class="scatterlayer mlayer"><g class="trace scatter trace24aee4" style="stroke-miterlimit: 2; opacity: 1;"><g class="fills"/><g class="errorbars"/><g class="lines"><path class="js-line" d="M269.22,109.53H269.22V110.35H313.72V108.53H338.2V106.79H340.42V105.77H349.32V102.78H351.55V100.95H351.55V101.58H358.22V98.46H362.67V97.21H364.9V95.15H369.35V93.34H371.57V87.7H389.37V86.63H393.82V82.33H398.27V77.31H413.85V75.16H422.75V73.86H424.97V72.14H440.55V69.99H471.7V5.81" style="vector-effect: none; fill: none; stroke: rgb(25, 211, 243); stroke-opacity: 1; stroke-width: 2px; opacity: 1;"/></g><g class="points"/><g class="text"/></g></g></g><g class="overplot"/><path class="xlines-above crisp" style="fill: none;" d="M0,0"/><path class="ylines-above crisp" style="fill: none;" d="M0,0"/><g class="overlines-above"/><g class="xaxislayer-above"/><g class="yaxislayer-above"><g class="y2tick"><text text-anchor="end" x="79" y="4.199999999999999" transform="translate(0,578.77)" style="font-family: 'Open Sans', verdana, arial, sans-serif; font-size: 12px; fill: rgb(42, 63, 95); fill-opacity: 1; white-space: pre; opacity: 1;">0</text></g><g class="y2tick"><text text-anchor="end" x="79" y="4.199999999999999" style="font-family: 'Open Sans', verdana, arial, sans-serif; font-size: 12px; fill: rgb(42, 63, 95); fill-opacity: 1; white-space: pre; opacity: 1;" transform="translate(0,535.72)">10k</text></g><g class="y2tick"><text text-anchor="end" x="79" y="4.199999999999999" style="font-family: 'Open Sans', verdana, arial, sans-serif; font-size: 12px; fill: rgb(42, 63, 95); fill-opacity: 1; white-space: pre; opacity: 1;" transform="translate(0,492.65999999999997)">20k</text></g></g><g class="overaxes-above"/></g><g class="subplot x3y3"><g class="layer-subplot"><g class="shapelayer"/><g class="imagelayer"/></g><g class="minor-gridlayer"><g class="x3"/><g class="y3"/></g><g class="gridlayer"><g class="x3"><path class="x3grid crisp" transform="translate(204.6,0)" d="M0,331.91999999999996v116.16000000000003" style="stroke: rgb(255, 255, 255); stroke-opacity: 1; stroke-width: 1px;"/><path class="x3grid crisp" transform="translate(340.32,0)" d="M0,331.91999999999996v116.16000000000003" style="stroke: rgb(255, 255, 255); stroke-opacity: 1; stroke-width: 1px;"/><path class="x3grid crisp" transform="translate(473.82,0)" d="M0,331.91999999999996v116.16000000000003" style="stroke: rgb(255, 255, 255); stroke-opacity: 1; stroke-width: 1px;"/></g><g class="y3"><path class="y3grid crisp" transform="translate(0,411.90999999999997)" d="M80,0h518.42" style="stroke: rgb(255, 255, 255); stroke-opacity: 1; stroke-width: 1px;"/><path class="y3grid crisp" transform="translate(0,374.19999999999993)" d="M80,0h518.42" style="stroke: rgb(255, 255, 255); stroke-opacity: 1; stroke-width: 1px;"/><path class="y3grid crisp" transform="translate(0,336.47999999999996)" d="M80,0h518.42" style="stroke: rgb(255, 255, 255); stroke-opacity: 1; stroke-width: 1px;"/></g></g><g class="zerolinelayer"/><path class="xlines-below"/><path class="ylines-below"/><g class="overlines-below"/><g class="xaxislayer-below"/><g class="yaxislayer-below"/><g class="overaxes-below"/><g class="plot" transform="translate(80,331.91999999999996)" clip-path="url(#clipd3bd80x3y3plot)"><g class="scatterlayer mlayer"><g class="trace scatter trace73effa" style="stroke-miterlimit: 2; opacity: 1;"><g class="fills"/><g class="errorbars"/><g class="lines"><path class="js-line" d="M291.47,110.35H293.7V110.35H295.92V107.73H298.15V107.73H300.37V84.46H302.6V77.07H304.82V63.68H307.05V63.39H309.27V55.74H311.5V55.74H313.72V45.1H315.95V39.19H318.17V35.06H320.4V22.56H322.62V18.88H324.85V18.04H327.07V67.79H329.3V61.73H331.52V61.21H333.75V48.88H335.97V44.34H338.2V41.69H340.42V40.78H342.65V38.21H344.87V37.75H347.1V35.65H349.32V30.41H351.55V21.28H353.77V5.81H356V13.67H358.22V13.67H360.45V12.7H362.67V10.76H364.9V11.15H367.12V11.1H373.8V11.06H373.8V11.06H471.7V44.71" style="vector-effect: none; fill: none; stroke: rgb(255, 161, 90); stroke-opacity: 1; stroke-width: 2px; opacity: 1;"/></g><g class="points"/><g class="text"/></g><g class="trace scatter trace06b573" style="stroke-miterlimit: 2; opacity: 1;"><g class="fills"/><g class="errorbars"/><g class="lines"><path class="js-line" d="M358.22,93H360.45V86.91H362.67V84.43H364.9V77.74H367.12V77.47H369.35V73.58H373.8V70.84H380.47V64.27H384.92V57.97H396.05V49.23H398.27V48.11H402.72V44.64H409.4V72.74H424.97V66.28H436.1V51.34H471.7V80.05" style="vector-effect: none; fill: none; stroke: rgb(255, 102, 146); stroke-opacity: 1; stroke-width: 2px; opacity: 1;"/></g><g class="points"/><g class="text"/></g></g></g><g class="overplot"/><path class="xlines-above crisp" style="fill: none;" d="M0,0"/><path class="ylines-above crisp" style="fill: none;" d="M0,0"/><g class="overlines-above"/><g class="xaxislayer-above"/><g class="yaxislayer-above"><g class="y3tick"><text text-anchor="end" x="79" y="4.199999999999999" transform="translate(0,411.90999999999997)" style="font-family: 'Open Sans', verdana, arial, sans-serif; font-size: 12px; fill: rgb(42, 63, 95); fill-opacity: 1; white-space: pre; opacity: 1;">5k</text></g><g class="y3tick"><text text-anchor="end" x="79" y="4.199999999999999" style="font-family: 'Open Sans', verdana, arial, sans-serif; font-size: 12px; fill: rgb(42, 63, 95); fill-opacity: 1; white-space: pre; opacity: 1;" transform="translate(0,374.19999999999993)">10k</text></g><g class="y3tick"><text text-anchor="end" x="79" y="4.199999999999999" style="font-family: 'Open Sans', verdana, arial, sans-serif; font-size: 12px; fill: rgb(42, 63, 95); fill-opacity: 1; white-space: pre; opacity: 1;" transform="translate(0,336.47999999999996)">15k</text></g></g><g class="overaxes-above"/></g><g class="subplot x4y4"><g class="layer-subplot"><g class="shapelayer"/><g class="imagelayer"/></g><g class="minor-gridlayer"><g class="x4"/><g class="y4"/></g><g class="gridlayer"><g class="x4"><path class="x4grid crisp" transform="translate(204.6,0)" d="M0,195.95999999999998v116.16000000000003" style="stroke: rgb(255, 255, 255); stroke-opacity: 1; stroke-width: 1px;"/><path class="x4grid crisp" transform="translate(340.32,0)" d="M0,195.95999999999998v116.16000000000003" style="stroke: rgb(255, 255, 255); stroke-opacity: 1; stroke-width: 1px;"/><path class="x4grid crisp" transform="translate(473.82,0)" d="M0,195.95999999999998v116.16000000000003" style="stroke: rgb(255, 255, 255); stroke-opacity: 1; stroke-width: 1px;"/></g><g class="y4"><path class="y4grid crisp" transform="translate(0,306.11)" d="M80,0h518.42" style="stroke: rgb(255, 255, 255); stroke-opacity: 1; stroke-width: 1px;"/><path class="y4grid crisp" transform="translate(0,280.66999999999996)" d="M80,0h518.42" style="stroke: rgb(255, 255, 255); stroke-opacity: 1; stroke-width: 1px;"/><path class="y4grid crisp" transform="translate(0,255.23999999999998)" d="M80,0h518.42" style="stroke: rgb(255, 255, 255); stroke-opacity: 1; stroke-width: 1px;"/><path class="y4grid crisp" transform="translate(0,229.79999999999998)" d="M80,0h518.42" style="stroke: rgb(255, 255, 255); stroke-opacity: 1; stroke-width: 1px;"/><path class="y4grid crisp" transform="translate(0,204.35999999999999)" d="M80,0h518.42" style="stroke: rgb(255, 255, 255); stroke-opacity: 1; stroke-width: 1px;"/></g></g><g class="zerolinelayer"/><path class="xlines-below"/><path class="ylines-below"/><g class="overlines-below"/><g class="xaxislayer-below"/><g class="yaxislayer-below"/><g class="overaxes-below"/><g class="plot" transform="translate(80,195.95999999999998)" clip-path="url(#clipd3bd80x4y4plot)"><g class="scatterlayer mlayer"><g class="trace scatter tracecc816c" style="stroke-miterlimit: 2; opacity: 1;"><g class="fills"/><g class="errorbars"/><g class="lines"><path class="js-line" d="M246.97,105.37H249.2V76.72H251.42V50.68H255.87V31.24H262.55V5.81" style="vector-effect: none; fill: none; stroke: rgb(171, 99, 250); stroke-opacity: 1; stroke-width: 2px; opacity: 1;"/></g><g class="points"/><g class="text"/></g><g class="trace scatter trace48f816" style="stroke-miterlimit: 2; opacity: 1;"><g class="fills"/><g class="errorbars"/><g class="lines"><path class="js-line" d="M131.27,74.38H133.5V110.35" style="vector-effect: none; fill: none; stroke: rgb(182, 232, 128); stroke-opacity: 1; stroke-width: 2px; opacity: 1;"/></g><g class="points"/><g class="text"/></g></g></g><g class="overplot"/><path class="xlines-above crisp" style="fill: none;" d="M0,0"/><path class="ylines-above crisp" style="fill: none;" d="M0,0"/><g class="overlines-above"/><g class="xaxislayer-above"/><g class="yaxislayer-above"><g class="y4tick"><text text-anchor="end" x="79" y="4.199999999999999" transform="translate(0,306.11)" style="font-family: 'Open Sans', verdana, arial, sans-serif; font-size: 12px; fill: rgb(42, 63, 95); fill-opacity: 1; white-space: pre; opacity: 1;">1000</text></g><g class="y4tick"><text text-anchor="end" x="79" y="4.199999999999999" style="font-family: 'Open Sans', verdana, arial, sans-serif; font-size: 12px; fill: rgb(42, 63, 95); fill-opacity: 1; white-space: pre; opacity: 1;" transform="translate(0,280.66999999999996)">1500</text></g><g class="y4tick"><text text-anchor="end" x="79" y="4.199999999999999" style="font-family: 'Open Sans', verdana, arial, sans-serif; font-size: 12px; fill: rgb(42, 63, 95); fill-opacity: 1; white-space: pre; opacity: 1;" transform="translate(0,255.23999999999998)">2000</text></g><g class="y4tick"><text text-anchor="end" x="79" y="4.199999999999999" style="font-family: 'Open Sans', verdana, arial, sans-serif; font-size: 12px; fill: rgb(42, 63, 95); fill-opacity: 1; white-space: pre; opacity: 1;" transform="translate(0,229.79999999999998)">2500</text></g><g class="y4tick"><text text-anchor="end" x="79" y="4.199999999999999" style="font-family: 'Open Sans', verdana, arial, sans-serif; font-size: 12px; fill: rgb(42, 63, 95); fill-opacity: 1; white-space: pre; opacity: 1;" transform="translate(0,204.35999999999999)">3000</text></g></g><g class="overaxes-above"/></g><g class="subplot x5y5"><g class="layer-subplot"><g class="shapelayer"/><g class="imagelayer"/></g><g class="minor-gridlayer"><g class="x5"/><g class="y5"/></g><g class="gridlayer"><g class="x5"><path class="x5grid crisp" transform="translate(204.6,0)" d="M0,60v116.15999999999995" style="stroke: rgb(255, 255, 255); stroke-opacity: 1; stroke-width: 1px;"/><path class="x5grid crisp" transform="translate(340.32,0)" d="M0,60v116.15999999999995" style="stroke: rgb(255, 255, 255); stroke-opacity: 1; stroke-width: 1px;"/><path class="x5grid crisp" transform="translate(473.82,0)" d="M0,60v116.15999999999995" style="stroke: rgb(255, 255, 255); stroke-opacity: 1; stroke-width: 1px;"/></g><g class="y5"><path class="y5grid crisp" transform="translate(0,145.42000000000002)" d="M80,0h518.42" style="stroke: rgb(255, 255, 255); stroke-opacity: 1; stroke-width: 1px;"/><path class="y5grid crisp" transform="translate(0,119.24000000000001)" d="M80,0h518.42" style="stroke: rgb(255, 255, 255); stroke-opacity: 1; stroke-width: 1px;"/><path class="y5grid crisp" transform="translate(0,93.07)" d="M80,0h518.42" style="stroke: rgb(255, 255, 255); stroke-opacity: 1; stroke-width: 1px;"/><path class="y5grid crisp" transform="translate(0,66.9)" d="M80,0h518.42" style="stroke: rgb(255, 255, 255); stroke-opacity: 1; stroke-width: 1px;"/></g></g><g class="zerolinelayer"><path class="y5zl zl crisp" transform="translate(0,171.59)" d="M80,0h518.42" style="stroke: rgb(255, 255, 255); stroke-opacity: 1; stroke-width: 2px;"/></g><path class="xlines-below"/><path class="ylines-below"/><g class="overlines-below"/><g class="xaxislayer-below"/><g class="yaxislayer-below"/><g class="overaxes-below"/><g class="plot" transform="translate(80,60)" clip-path="url(#clipd3bd80x5y5plot)"><g class="scatterlayer mlayer"><g class="trace scatter trace3b06c6" style="stroke-miterlimit: 2; opacity: 1;"><g class="fills"/><g class="errorbars"/><g class="lines"><path class="js-line" d="M20.02,100.24H22.25V100.09H24.47V99.4H37.82V98.69H40.05V97.98H77.87V97.33H80.1V96.67H84.55V95.94H86.77V95.24H100.12V94.63H102.35V93.83H117.92V93.18H120.15V92.51H140.17V91.78H146.85V91.06H149.07V89.77H162.42V89.05H171.32V88.4H180.22V87.07H193.57V86.25H202.47V85.13H204.7V84.43H211.37V83.73H213.6V83.05H224.72V82.37H226.95V80.87H231.4V80.21H233.62V79.23H238.07V78.61H240.3V77.64H246.97V76.98H249.2V76.06H253.65V75.22" style="vector-effect: none; fill: none; stroke: rgb(99, 110, 250); stroke-opacity: 1; stroke-width: 2px; opacity: 1;"/></g><g class="points"/><g class="text"/></g><g class="trace scatter traceaaa27b" style="stroke-miterlimit: 2; opacity: 1;"><g class="fills"/><g class="errorbars"/><g class="lines"><path class="js-line" d="M0,66.41H2.22V66.47H4.45V72.54H6.67V70.35H8.9V68.1H17.8V62.65H22.25V60.93H360.45V110.35H362.67V106.84H364.9V95.01H367.12V93.53H369.35V85.18H371.57V68.61H373.8V65.89H376.02V61.66H380.47V58.7H382.7V58.5H389.37V57.68H391.6V56.93H398.27V56.28H400.5V55.64H404.95V54.9H409.4V54.17H411.62V53.46H413.85V52.22H416.07V50.72H418.3V49.97H420.52V48.88H422.75V48.15H424.97V47.43H427.2V46.58H429.42V45.9H431.65V45.19H436.1V44.9H438.32V44.54H440.55V43.78H442.77V42.45H445V40.94H451.67V40.28H453.9V39.62H456.12V38.96H458.35V38.3H460.57V37.7H465.02V36.98H471.7V36.45H473.92V34.98H478.37V32.2H480.6V30.79H482.82V30.12H482.82V29.4H485.05V27.96H487.27V26.36H489.5V24.99H491.72V23.49H493.95V20.44H496.17V19.09H498.4V18.35H500.62V15.32H502.85V12.93H505.07V11.3H507.3V9.86H509.52V7.66H511.75V6.66H513.97V6.62H516.2V5.81" style="vector-effect: none; fill: none; stroke: rgb(239, 85, 59); stroke-opacity: 1; stroke-width: 2px; opacity: 1;"/></g><g class="points"/><g class="text"/></g><g class="trace scatter trace831104" style="stroke-miterlimit: 2; opacity: 1;"><g class="fills"/><g class="errorbars"/><g class="lines"><path class="js-line" d="M240.3,105.07H242.52V103.58H244.75V102.88H249.2V101.99H253.65V101.3H255.87V100.63H258.1V99.77H260.32V98.42H262.55V97.71H267V97.02H271.45V95.96H273.67V95.29H278.12V94.59H282.57V93.99H287.02V93.3H289.25V92.63H291.47V91.98H295.92V91.28H302.6V90.78H304.82V90.03H309.27V89.6H315.95V88.82H318.17V87.59H320.4V86.94H322.62V93.35H342.65V108.22" style="vector-effect: none; fill: none; stroke: rgb(0, 204, 150); stroke-opacity: 1; stroke-width: 2px; opacity: 1;"/></g><g class="points"/><g class="text"/></g></g></g><g class="overplot"/><path class="xlines-above crisp" style="fill: none;" d="M0,0"/><path class="ylines-above crisp" style="fill: none;" d="M0,0"/><g class="overlines-above"/><g class="xaxislayer-above"/><g class="yaxislayer-above"><g class="y5tick"><text text-anchor="end" x="79" y="4.199999999999999" transform="translate(0,171.59)" style="font-family: 'Open Sans', verdana, arial, sans-serif; font-size: 12px; fill: rgb(42, 63, 95); fill-opacity: 1; white-space: pre; opacity: 1;">0</text></g><g class="y5tick"><text text-anchor="end" x="79" y="4.199999999999999" style="font-family: 'Open Sans', verdana, arial, sans-serif; font-size: 12px; fill: rgb(42, 63, 95); fill-opacity: 1; white-space: pre; opacity: 1;" transform="translate(0,145.42000000000002)">20k</text></g><g class="y5tick"><text text-anchor="end" x="79" y="4.199999999999999" style="font-family: 'Open Sans', verdana, arial, sans-serif; font-size: 12px; fill: rgb(42, 63, 95); fill-opacity: 1; white-space: pre; opacity: 1;" transform="translate(0,119.24000000000001)">40k</text></g><g class="y5tick"><text text-anchor="end" x="79" y="4.199999999999999" style="font-family: 'Open Sans', verdana, arial, sans-serif; font-size: 12px; fill: rgb(42, 63, 95); fill-opacity: 1; white-space: pre; opacity: 1;" transform="translate(0,93.07)">60k</text></g><g class="y5tick"><text text-anchor="end" x="79" y="4.199999999999999" style="font-family: 'Open Sans', verdana, arial, sans-serif; font-size: 12px; fill: rgb(42, 63, 95); fill-opacity: 1; white-space: pre; opacity: 1;" transform="translate(0,66.9)">80k</text></g></g><g class="overaxes-above"/></g></g><g class="polarlayer"/><g class="smithlayer"/><g class="ternarylayer"/><g class="geolayer"/><g class="funnelarealayer"/><g class="pielayer"/><g class="iciclelayer"/><g class="treemaplayer"/><g class="sunburstlayer"/><g class="glimages"/><defs id="topdefs-d3bd80"><g class="clips"/><clipPath id="legendd3bd80"><rect width="168" height="200" x="0" y="0"/></clipPath></defs><g class="layer-above"><g class="imagelayer"/><g class="shapelayer"/></g><g class="infolayer"><g class="legend" pointer-events="all" transform="translate(619.58,60)"><rect class="bg" shape-rendering="crispEdges" style="stroke: rgb(68, 68, 68); stroke-opacity: 1; fill: rgb(255, 255, 255); fill-opacity: 1; stroke-width: 0px;" width="168" height="200" x="0" y="0"/><g class="scrollbox" transform="" clip-path="url(#legendd3bd80)"><text class="legendtitletext" text-anchor="start" x="2" y="18.2" style="font-family: 'Open Sans', verdana, arial, sans-serif; font-size: 14px; fill: rgb(42, 63, 95); fill-opacity: 1; white-space: pre;">title</text><g class="groups" transform=""><g class="traces" transform="translate(0,32.7)" style="opacity: 1;"><text class="legendtext" text-anchor="start" x="40" y="4.680000000000001" style="font-family: 'Open Sans', verdana, arial, sans-serif; font-size: 12px; fill: rgb(42, 63, 95); fill-opacity: 1; white-space: pre;">All the Other Santas</text><g class="layers" style="opacity: 1;"><g class="legendfill"/><g class="legendlines"><path class="js-line" d="M5,0h30" style="fill: none; stroke: rgb(99, 110, 250); stroke-opacity: 1; stroke-width: 2px;"/></g><g class="legendsymbols"><g class="legendpoints"/></g></g><rect class="legendtoggle" x="0" y="-9.5" width="162.15625" height="19" style="fill: rgb(0, 0, 0); fill-opacity: 0;"/></g></g><g class="groups" transform=""><g class="traces" transform="translate(0,51.7)" style="opacity: 1;"><text class="legendtext" text-anchor="start" x="40" y="4.680000000000001" style="font-family: 'Open Sans', verdana, arial, sans-serif; font-size: 12px; fill: rgb(42, 63, 95); fill-opacity: 1; white-space: pre;">Iffy</text><g class="layers" style="opacity: 1;"><g class="legendfill"/><g class="legendlines"><path class="js-line" d="M5,0h30" style="fill: none; stroke: rgb(239, 85, 59); stroke-opacity: 1; stroke-width: 2px;"/></g><g class="legendsymbols"><g class="legendpoints"/></g></g><rect class="legendtoggle" x="0" y="-9.5" width="162.15625" height="19" style="fill: rgb(0, 0, 0); fill-opacity: 0;"/></g></g><g class="groups" transform=""><g class="traces" transform="translate(0,70.7)" style="opacity: 1;"><text class="legendtext" text-anchor="start" x="40" y="4.680000000000001" style="font-family: 'Open Sans', verdana, arial, sans-serif; font-size: 12px; fill: rgb(42, 63, 95); fill-opacity: 1; white-space: pre;">In Heck</text><g class="layers" style="opacity: 1;"><g class="legendfill"/><g class="legendlines"><path class="js-line" d="M5,0h30" style="fill: none; stroke: rgb(0, 204, 150); stroke-opacity: 1; stroke-width: 2px;"/></g><g class="legendsymbols"><g class="legendpoints"/></g></g><rect class="legendtoggle" x="0" y="-9.5" width="162.15625" height="19" style="fill: rgb(0, 0, 0); fill-opacity: 0;"/></g></g><g class="groups" transform=""><g class="traces" transform="translate(0,89.7)" style="opacity: 1;"><text class="legendtext" text-anchor="start" x="40" y="4.680000000000001" style="font-family: 'Open Sans', verdana, arial, sans-serif; font-size: 12px; fill: rgb(42, 63, 95); fill-opacity: 1; white-space: pre;">Leaderboard</text><g class="layers" style="opacity: 1;"><g class="legendfill"/><g class="legendlines"><path class="js-line" d="M5,0h30" style="fill: none; stroke: rgb(171, 99, 250); stroke-opacity: 1; stroke-width: 2px;"/></g><g class="legendsymbols"><g class="legendpoints"/></g></g><rect class="legendtoggle" x="0" y="-9.5" width="162.15625" height="19" style="fill: rgb(0, 0, 0); fill-opacity: 0;"/></g></g><g class="groups" transform=""><g class="traces" transform="translate(0,108.7)" style="opacity: 1;"><text class="legendtext" text-anchor="start" x="40" y="4.680000000000001" style="font-family: 'Open Sans', verdana, arial, sans-serif; font-size: 12px; fill: rgb(42, 63, 95); fill-opacity: 1; white-space: pre;">SQL Tutorial</text><g class="layers" style="opacity: 1;"><g class="legendfill"/><g class="legendlines"><path class="js-line" d="M5,0h30" style="fill: none; stroke: rgb(255, 161, 90); stroke-opacity: 1; stroke-width: 2px;"/></g><g class="legendsymbols"><g class="legendpoints"/></g></g><rect class="legendtoggle" x="0" y="-9.5" width="162.15625" height="19" style="fill: rgb(0, 0, 0); fill-opacity: 0;"/></g></g><g class="groups" transform=""><g class="traces" transform="translate(0,127.7)" style="opacity: 1;"><text class="legendtext" text-anchor="start" x="40" y="4.680000000000001" style="font-family: 'Open Sans', verdana, arial, sans-serif; font-size: 12px; fill: rgb(42, 63, 95); fill-opacity: 1; white-space: pre;">Scribophile</text><g class="layers" style="opacity: 1;"><g class="legendfill"/><g class="legendlines"><path class="js-line" d="M5,0h30" style="fill: none; stroke: rgb(25, 211, 243); stroke-opacity: 1; stroke-width: 2px;"/></g><g class="legendsymbols"><g class="legendpoints"/></g></g><rect class="legendtoggle" x="0" y="-9.5" width="162.15625" height="19" style="fill: rgb(0, 0, 0); fill-opacity: 0;"/></g></g><g class="groups" transform=""><g class="traces" transform="translate(0,146.7)" style="opacity: 1;"><text class="legendtext" text-anchor="start" x="40" y="4.680000000000001" style="font-family: 'Open Sans', verdana, arial, sans-serif; font-size: 12px; fill: rgb(42, 63, 95); fill-opacity: 1; white-space: pre;">System Tutorial</text><g class="layers" style="opacity: 1;"><g class="legendfill"/><g class="legendlines"><path class="js-line" d="M5,0h30" style="fill: none; stroke: rgb(255, 102, 146); stroke-opacity: 1; stroke-width: 2px;"/></g><g class="legendsymbols"><g class="legendpoints"/></g></g><rect class="legendtoggle" x="0" y="-9.5" width="162.15625" height="19" style="fill: rgb(0, 0, 0); fill-opacity: 0;"/></g></g><g class="groups" transform=""><g class="traces" transform="translate(0,165.7)" style="opacity: 1;"><text class="legendtext" text-anchor="start" x="40" y="4.680000000000001" style="font-family: 'Open Sans', verdana, arial, sans-serif; font-size: 12px; fill: rgb(42, 63, 95); fill-opacity: 1; white-space: pre;">Tuppence a Bag</text><g class="layers" style="opacity: 1;"><g class="legendfill"/><g class="legendlines"><path class="js-line" d="M5,0h30" style="fill: none; stroke: rgb(182, 232, 128); stroke-opacity: 1; stroke-width: 2px;"/></g><g class="legendsymbols"><g class="legendpoints"/></g></g><rect class="legendtoggle" x="0" y="-9.5" width="162.15625" height="19" style="fill: rgb(0, 0, 0); fill-opacity: 0;"/></g></g><g class="groups" transform=""><g class="traces" transform="translate(0,184.7)" style="opacity: 1;"><text class="legendtext" text-anchor="start" x="40" y="4.680000000000001" style="font-family: 'Open Sans', verdana, arial, sans-serif; font-size: 12px; fill: rgb(42, 63, 95); fill-opacity: 1; white-space: pre;">change</text><g class="layers" style="opacity: 1;"><g class="legendfill"/><g class="legendlines"><path class="js-line" d="M5,0h30" style="fill: none; stroke: rgb(255, 151, 255); stroke-opacity: 1; stroke-width: 2px;"/></g><g class="legendsymbols"><g class="legendpoints"/></g></g><rect class="legendtoggle" x="0" y="-9.5" width="162.15625" height="19" style="fill: rgb(0, 0, 0); fill-opacity: 0;"/></g></g></g><rect class="scrollbar" rx="20" ry="3" width="0" height="0" style="fill: rgb(128, 139, 164); fill-opacity: 1;" x="0" y="0"/></g><g class="g-gtitle"/><g class="g-xtitle"><text class="xtitle" x="339.21" y="759.8" text-anchor="middle" style="font-family: 'Open Sans', verdana, arial, sans-serif; font-size: 14px; fill: rgb(42, 63, 95); opacity: 1; font-weight: normal; white-space: pre;">date</text></g><g class="g-x2title"/><g class="g-x3title"/><g class="g-x4title"/><g class="g-x5title"/><g class="g-ytitle"><text class="ytitle" transform="rotate(-90,22.512500000000003,661.92)" x="22.512500000000003" y="661.92" text-anchor="middle" style="font-family: 'Open Sans', verdana, arial, sans-serif; font-size: 14px; fill: rgb(42, 63, 95); opacity: 1; font-weight: normal; white-space: pre;">words</text></g><g class="g-y2title"><text class="y2title" transform="rotate(-90,32.340625,525.96)" x="32.340625" y="525.96" text-anchor="middle" style="font-family: 'Open Sans', verdana, arial, sans-serif; font-size: 14px; fill: rgb(42, 63, 95); opacity: 1; font-weight: normal; white-space: pre;">words</text></g><g class="g-y3title"><text class="y3title" transform="rotate(-90,32.340625,390)" x="32.340625" y="390" text-anchor="middle" style="font-family: 'Open Sans', verdana, arial, sans-serif; font-size: 14px; fill: rgb(42, 63, 95); opacity: 1; font-weight: normal; white-space: pre;">words</text></g><g class="g-y4title"><text class="y4title" transform="rotate(-90,24.184375000000003,254.04)" x="24.184375000000003" y="254.04" text-anchor="middle" style="font-family: 'Open Sans', verdana, arial, sans-serif; font-size: 14px; fill: rgb(42, 63, 95); opacity: 1; font-weight: normal; white-space: pre;">words</text></g><g class="g-y5title"><text class="y5title" transform="rotate(-90,32.340625,118.07999999999998)" x="32.340625" y="118.07999999999998" text-anchor="middle" style="font-family: 'Open Sans', verdana, arial, sans-serif; font-size: 14px; fill: rgb(42, 63, 95); opacity: 1; font-weight: normal; white-space: pre;">words</text></g><g class="annotation" data-index="0" style="opacity: 1;"><g class="annotation-text-g" transform="rotate(90,607.92,661.9200000000001)"><g class="cursor-pointer" transform="translate(591,652)"><rect class="bg" x="0.5" y="0.5" width="33" height="18" style="stroke-width: 1px; stroke: rgb(0, 0, 0); stroke-opacity: 0; fill: rgb(0, 0, 0); fill-opacity: 0;"/><text class="annotation-text" text-anchor="middle" x="16.9375" y="14" style="font-family: 'Open Sans', verdana, arial, sans-serif; font-size: 12px; fill: rgb(42, 63, 95); fill-opacity: 1; white-space: pre;">delta</text></g></g></g><g class="annotation" data-index="1" style="opacity: 1;"><g class="annotation-text-g" transform="rotate(90,607.92,525.96)"><g class="cursor-pointer" transform="translate(586,516)"><rect class="bg" x="0.5" y="0.5" width="43" height="18" style="stroke-width: 1px; stroke: rgb(0, 0, 0); stroke-opacity: 0; fill: rgb(0, 0, 0); fill-opacity: 0;"/><text class="annotation-text" text-anchor="middle" x="21.828125" y="14" style="font-family: 'Open Sans', verdana, arial, sans-serif; font-size: 12px; fill: rgb(42, 63, 95); fill-opacity: 1; white-space: pre;">review</text></g></g></g><g class="annotation" data-index="2" style="opacity: 1;"><g class="annotation-text-g" transform="rotate(90,607.92,390)"><g class="cursor-pointer" transform="translate(600,381)"><rect class="bg" x="0.5" y="0.5" width="15" height="18" style="stroke-width: 1px; stroke: rgb(0, 0, 0); stroke-opacity: 0; fill: rgb(0, 0, 0); fill-opacity: 0;"/><text class="annotation-text" text-anchor="middle" x="7.90625" y="14" style="font-family: 'Open Sans', verdana, arial, sans-serif; font-size: 12px; fill: rgb(42, 63, 95); fill-opacity: 1; white-space: pre;">nf</text></g></g></g><g class="annotation" data-index="3" style="opacity: 1;"><g class="annotation-text-g" transform="rotate(90,607.92,254.04000000000002)"><g class="cursor-pointer" transform="translate(590,245)"><rect class="bg" x="0.5" y="0.5" width="34" height="18" style="stroke-width: 1px; stroke: rgb(0, 0, 0); stroke-opacity: 0; fill: rgb(0, 0, 0); fill-opacity: 0;"/><text class="annotation-text" text-anchor="middle" x="17.5" y="14" style="font-family: 'Open Sans', verdana, arial, sans-serif; font-size: 12px; fill: rgb(42, 63, 95); fill-opacity: 1; white-space: pre;">short</text></g></g></g><g class="annotation" data-index="4" style="opacity: 1;"><g class="annotation-text-g" transform="rotate(90,607.92,118.07999999999998)"><g class="cursor-pointer" transform="translate(599,109)"><rect class="bg" x="0.5" y="0.5" width="17" height="18" style="stroke-width: 1px; stroke: rgb(0, 0, 0); stroke-opacity: 0; fill: rgb(0, 0, 0); fill-opacity: 0;"/><text class="annotation-text" text-anchor="middle" x="9.15625" y="14" style="font-family: 'Open Sans', verdana, arial, sans-serif; font-size: 12px; fill: rgb(42, 63, 95); fill-opacity: 1; white-space: pre;">ya</text></g></g></g></g></svg>