<svg xmlns="http://www.w3.org/2000/svg" xmlns:xlink="http://www.w3.org/1999/xlink" version="1.1" class="marks" width="498" height="364" viewBox="0 0 498 364"><rect width="498" height="364" fill="white"/><g fill="none" stroke-miterlimit="10" transform="translate(41,27)"><g class="mark-group role-frame root" role="graphics-object" aria-roledescription="group mark container"><g transform="translate(0,0)"><path class="background" aria-hidden="true" d="M0.5,0.5h450v300h-450Z" stroke="#ddd"/><g><g class="mark-group role-axis" aria-hidden="true"><g transform="translate(0.5,300.5)"><path class="background" aria-hidden="true" d="M0,0h0v0h0Z" pointer-events="none"/><g><g class="mark-rule role-axis-grid" pointer-events="none"><line transform="translate(0,-300)" x2="0" y2="300" stroke="#ddd" stroke-width="1" opacity="1"/><line transform="translate(45,-300)" x2="0" y2="300" stroke="#ddd" stroke-width="1" opacity="1"/><line transform="translate(90,-300)" x2="0" y2="300" stroke="#ddd" stroke-width="1" opacity="1"/><line transform="translate(135,-300)" x2="0" y2="300" stroke="#ddd" stroke-width="1" opacity="1"/><line transform="translate(180,-300)" x2="0" y2="300" stroke="#ddd" stroke-width="1" opacity="1"/><line transform="translate(225,-300)" x2="0" y2="300" stroke="#ddd" stroke-width="1" opacity="1"/><line transform="translate(270,-300)" x2="0" y2="300" stroke="#ddd" stroke-width="1" opacity="1"/><line transform="translate(315,-300)" x2="0" y2="300" stroke="#ddd" stroke-width="1" opacity="1"/><line transform="translate(360,-300)" x2="0" y2="300" stroke="#ddd" stroke-width="1" opacity="1"/><line transform="translate(405,-300)" x2="0" y2="300" stroke="#ddd" stroke-width="1" opacity="1"/><line transform="translate(450,-300)" x2="0" y2="300" stroke="#ddd" stroke-width="1" opacity="1"/></g></g><path class="foreground" aria-hidden="true" d="" pointer-events="none" display="none"/></g></g><g class="mark-group role-axis" aria-hidden="true"><g transform="translate(0.5,0.5)"><path class="background" aria-hidden="true" d="M0,0h0v0h0Z" pointer-events="none"/><g><g class="mark-rule role-axis-grid" pointer-events="none"><line transform="translate(0,300)" x2="450" y2="0" stroke="#ddd" stroke-width="1" opacity="1"/><line transform="translate(0,270)" x2="450" y2="0" stroke="#ddd" stroke-width="1" opacity="1"/><line transform="translate(0,240)" x2="450" y2="0" stroke="#ddd" stroke-width="1" opacity="1"/><line transform="translate(0,210)" x2="450" y2="0" stroke="#ddd" stroke-width="1" opacity="1"/><line transform="translate(0,180)" x2="450" y2="0" stroke="#ddd" stroke-width="1" opacity="1"/><line transform="translate(0,150)" x2="450" y2="0" stroke="#ddd" stroke-width="1" opacity="1"/><line transform="translate(0,120)" x2="450" y2="0" stroke="#ddd" stroke-width="1" opacity="1"/><line transform="translate(0,90)" x2="450" y2="0" stroke="#ddd" stroke-width="1" opacity="1"/><line transform="translate(0,60)" x2="450" y2="0" stroke="#ddd" stroke-width="1" opacity="1"/><line transform="translate(0,30)" x2="450" y2="0" stroke="#ddd" stroke-width="1" opacity="1"/><line transform="translate(0,0)" x2="450" y2="0" stroke="#ddd" stroke-width="1" opacity="1"/></g></g><path class="foreground" aria-hidden="true" d="" pointer-events="none" display="none"/></g></g><g class="mark-group role-axis" role="graphics-symbol" aria-roledescription="axis" aria-label="X-axis titled 'Exchange step' for a linear scale with values from 0 to 2,000"><g transform="translate(0.5,300.5)"><path class="background" aria-hidden="true" d="M0,0h0v0h0Z" pointer-events="none"/><g><g class="mark-rule role-axis-tick" pointer-events="none"><line transform="translate(0,0)" x2="0" y2="5" stroke="#888" stroke-width="1" opacity="1"/><line transform="translate(45,0)" x2="0" y2="5" stroke="#888" stroke-width="1" opacity="1"/><line transform="translate(90,0)" x2="0" y2="5" stroke="#888" stroke-width="1" opacity="1"/><line transform="translate(135,0)" x2="0" y2="5" stroke="#888" stroke-width="1" opacity="1"/><line transform="translate(180,0)" x2="0" y2="5" stroke="#888" stroke-width="1" opacity="1"/><line transform="translate(225,0)" x2="0" y2="5" stroke="#888" stroke-width="1" opacity="1"/><line transform="translate(270,0)" x2="0" y2="5" stroke="#888" stroke-width="1" opacity="1"/><line transform="translate(315,0)" x2="0" y2="5" stroke="#888" stroke-width="1" opacity="1"/><line transform="translate(360,0)" x2="0" y2="5" stroke="#888" stroke-width="1" opacity="1"/><line transform="translate(405,0)" x2="0" y2="5" stroke="#888" stroke-width="1" opacity="1"/><line transform="translate(450,0)" x2="0" y2="5" stroke="#888" stroke-width="1" opacity="1"/></g><g class="mark-text role-axis-label" pointer-events="none"><text text-anchor="start" transform="translate(0,15)" font-family="sans-serif" font-size="10px" fill="#000" opacity="1">0</text><text text-anchor="middle" transform="translate(45,15)" font-family="sans-serif" font-size="10px" fill="#000" opacity="1">200</text><text text-anchor="middle" transform="translate(90,15)" font-family="sans-serif" font-size="10px" fill="#000" opacity="1">400</text><text text-anchor="middle" transform="translate(135,15)" font-family="sans-serif" font-size="10px" fill="#000" opacity="1">600</text><text text-anchor="middle" transform="translate(180,15)" font-family="sans-serif" font-size="10px" fill="#000" opacity="1">800</text><text text-anchor="middle" transform="translate(225,15)" font-family="sans-serif" font-size="10px" fill="#000" opacity="1">1,000</text><text text-anchor="middle" transform="translate(270,15)" font-family="sans-serif" font-size="10px" fill="#000" opacity="1">1,200</text><text text-anchor="middle" transform="translate(315,15)" font-family="sans-serif" font-size="10px" fill="#000" opacity="1">1,400</text><text text-anchor="middle" transform="translate(360,15)" font-family="sans-serif" font-size="10px" fill="#000" opacity="1">1,600</text><text text-anchor="middle" transform="translate(405,15)" font-family="sans-serif" font-size="10px" fill="#000" opacity="1">1,800</text><text text-anchor="end" transform="translate(450,15)" font-family="sans-serif" font-size="10px" fill="#000" opacity="1">2,000</text></g><g class="mark-rule role-axis-domain" pointer-events="none"><line transform="translate(0,0)" x2="450" y2="0" stroke="#888" stroke-width="1" opacity="1"/></g><g class="mark-text role-axis-title" pointer-events="none"><text text-anchor="middle" transform="translate(225,30)" font-family="sans-serif" font-size="11px" font-weight="bold" fill="#000" opacity="1">Exchange step</text></g></g><path class="foreground" aria-hidden="true" d="" pointer-events="none" display="none"/></g></g><g class="mark-group role-axis" role="graphics-symbol" aria-roledescription="axis" aria-label="Y-axis titled 'Gini coefficient' for a linear scale with values from 0.0 to 1.0"><g transform="translate(0.5,0.5)"><path class="background" aria-hidden="true" d="M0,0h0v0h0Z" pointer-events="none"/><g><g class="mark-rule role-axis-tick" pointer-events="none"><line transform="translate(0,300)" x2="-5" y2="0" stroke="#888" stroke-width="1" opacity="1"/><line transform="translate(0,270)" x2="-5" y2="0" stroke="#888" stroke-width="1" opacity="1"/><line transform="translate(0,240)" x2="-5" y2="0" stroke="#888" stroke-width="1" opacity="1"/><line transform="translate(0,210)" x2="-5" y2="0" stroke="#888" stroke-width="1" opacity="1"/><line transform="translate(0,180)" x2="-5" y2="0" stroke="#888" stroke-width="1" opacity="1"/><line transform="translate(0,150)" x2="-5" y2="0" stroke="#888" stroke-width="1" opacity="1"/><line transform="translate(0,120)" x2="-5" y2="0" stroke="#888" stroke-width="1" opacity="1"/><line transform="translate(0,90)" x2="-5" y2="0" stroke="#888" stroke-width="1" opacity="1"/><line transform="translate(0,60)" x2="-5" y2="0" stroke="#888" stroke-width="1" opacity="1"/><line transform="translate(0,30)" x2="-5" y2="0" stroke="#888" stroke-width="1" opacity="1"/><line transform="translate(0,0)" x2="-5" y2="0" stroke="#888" stroke-width="1" opacity="1"/></g><g class="mark-text role-axis-label" pointer-events="none"><text text-anchor="end" transform="translate(-7,303)" font-family="sans-serif" font-size="10px" fill="#000" opacity="1">0.0</text><text text-anchor="end" transform="translate(-7,273)" font-family="sans-serif" font-size="10px" fill="#000" opacity="1">0.1</text><text text-anchor="end" transform="translate(-7,243)" font-family="sans-serif" font-size="10px" fill="#000" opacity="1">0.2</text><text text-anchor="end" transform="translate(-7,213)" font-family="sans-serif" font-size="10px" fill="#000" opacity="1">0.3</text><text text-anchor="end" transform="translate(-7,183)" font-family="sans-serif" font-size="10px" fill="#000" opacity="1">0.4</text><text text-anchor="end" transform="translate(-7,153)" font-family="sans-serif" font-size="10px" fill="#000" opacity="1">0.5</text><text text-anchor="end" transform="translate(-7,123)" font-family="sans-serif" font-size="10px" fill="#000" opacity="1">0.6</text><text text-anchor="end" transform="translate(-7,93.00000000000001)" font-family="sans-serif" font-size="10px" fill="#000" opacity="1">0.7</text><text text-anchor="end" transform="translate(-7,62.999999999999986)" font-family="sans-serif" font-size="10px" fill="#000" opacity="1">0.8</text><text text-anchor="end" transform="translate(-7,32.99999999999999)" font-family="sans-serif" font-size="10px" fill="#000" opacity="1">0.9</text><text text-anchor="end" transform="translate(-7,3)" font-family="sans-serif" font-size="10px" fill="#000" opacity="1">1.0</text></g><g class="mark-rule role-axis-domain" pointer-events="none"><line transform="translate(0,300)" x2="0" y2="-300" stroke="#888" stroke-width="1" opacity="1"/></g><g class="mark-text role-axis-title" pointer-events="none"><text text-anchor="middle" transform="translate(-24.9013671875,150) rotate(-90) translate(0,-2)" font-family="sans-serif" font-size="11px" font-weight="bold" fill="#000" opacity="1">Gini coefficient</text></g></g><path class="foreground" aria-hidden="true" d="" pointer-events="none" display="none"/></g></g><g class="mark-line role-mark marks" role="graphics-object" aria-roledescription="line mark container"><path aria-label="Exchange step: 0; Gini coefficient: 0" role="graphics-symbol" aria-roledescription="line mark" d="M0,300L0.225,299.797L0.45,299.268L0.675,298.653L0.9,298.388L1.125,297.639L1.35,297.42L1.575,295.728L1.8,292.931L2.025,290.547L2.25,288.627L2.475,288.494L2.7,286.629L2.925,285.337L3.15,283.261L3.375,283.106L3.6,281.407L3.825,280.364L4.05,278.686L4.275,276.402L4.5,274.42L4.725,273.913L4.95,271.467L5.175,269.759L5.4,269.628L5.625,267.697L5.85,266.445L6.075,266.09L6.3,265.744L6.525,264.68L6.75,264.011L6.975,261.982L7.2,259.552L7.425,256.977L7.65,256.304L7.875,254.199L8.1,253.224L8.325,252.282L8.55,252.154L8.775,252.045L9,250.419L9.225,248.53L9.45,246.591L9.675,245.805L9.9,243.715L10.125,241.172L10.35,240.868L10.575,240.21L10.8,239.997L11.025,238.053L11.25,236.752L11.475,236.035L11.7,234.117L11.925,233.916L12.15,233.38L12.375,233.009L12.6,232.999L12.825,230.808L13.05,230.75L13.275,228.7L13.5,228.096L13.725,227.947L13.95,226.096L14.175,225.873L14.4,223.688L14.625,223.579L14.85,223.235L15.075,223.232L15.3,222.983L15.525,222.871L15.75,222.859L15.975,221.485L16.2,221.001L16.425,220.984L16.65,220.505L16.875,220.479L17.1,220.391L17.325,219.786L17.55,219.544L17.775,217.977L18,216.199L18.225,214.867L18.45,213.578L18.675,213.573L18.9,213.074L19.125,213.074L19.35,211.457L19.575,211.456L19.8,211.455L20.025,211.129L20.25,210.257L20.475,210.009L20.7,209.754L20.925,209.729L21.15,208.301L21.375,208.183L21.6,207.961L21.825,207.948L22.05,207.89L22.275,206.96L22.5,205.757L22.725,205.029L22.95,204.791L23.175,204.105L23.4,203.5L23.625,202.873L23.85,202.337L24.075,201.689L24.3,201.379L24.525,200.93L24.75,200.926L24.975,199.646L25.2,199.52L25.425,199.354L25.65,199.015L25.875,198.562L26.1,197.841L26.325,197.739L26.55,197.683L26.775,196.562L27,195.049L27.225,194.993L27.45,194.814L27.675,194.557L27.9,193.767L28.125,192.733L28.35,192.732L28.575,192.614L28.8,192.613L29.025,192.578L29.25,192.563L29.475,190.947L29.7,190.424L29.925,190.41L30.15,190.364L30.375,190.36L30.6,190.276L30.825,189.888L31.05,188.861L31.275,188.573L31.5,187.818L31.725,187.616L31.95,187.296L32.175,187.265L32.4,187.26L32.625,186.396L32.85,186.038L33.075,185.797L33.3,185.669L33.525,185.384L33.75,185.347L33.975,185.345L34.2,184.213L34.425,184.213L34.65,182.365L34.875,182.323L35.1,180.819L35.325,180.818L35.55,180.291L35.775,178.258L36,178.213L36.225,178.209L36.45,178.078L36.675,178.06L36.9,178.027L37.125,176.172L37.35,176.164L37.575,175.996L37.8,175.722L38.025,175.47L38.25,174.66L38.475,173.991L38.7,173.991L38.925,173.312L39.15,173.259L39.375,173.251L39.6,173.251L39.825,171.714L40.05,171.121L40.275,169.645L40.5,169.627L40.725,169.604L40.95,169.073L41.175,169.06L41.4,169.06L41.625,167.996L41.85,166.632L42.075,165.263L42.3,164.048L42.525,164.037L42.75,163.541L42.975,163.024L43.2,162.371L43.425,161.599L43.65,161.598L43.875,161.58L44.1,161.516L44.325,161.5L44.55,161.041L44.775,160.709L45,160.667L45.225,160.664L45.45,160.649L45.675,159.82L45.9,159.817L46.125,159.646L46.35,159.544L46.575,158.351L46.8,158.097L47.025,157.721L47.25,157.72L47.475,157.664L47.7,157.603L47.925,157.48L48.15,155.758L48.375,154.716L48.6,154.318L48.825,152.568L49.05,152.566L49.275,152.566L49.5,152.551L49.725,152.312L49.95,152.305L50.175,152.211L50.4,150.412L50.625,150.031L50.85,149.803L51.075,149.803L51.3,149.662L51.525,149.662L51.75,149.281L51.975,149.277L52.2,149.263L52.425,149.204L52.65,149.038L52.875,149.007L53.1,148.645L53.325,148.612L53.55,148.416L53.775,148.416L54,148.213L54.225,148.166L54.45,148.163L54.675,148.162L54.9,148.073L55.125,147.593L55.35,147.593L55.575,147.53L55.8,147.295L56.025,146.943L56.25,145.747L56.475,145.747L56.7,145.71L56.925,145.554L57.15,145.416L57.375,145.361L57.6,145.105L57.825,145.099L58.05,145.062L58.275,143.873L58.5,143.296L58.725,143.296L58.95,141.371L59.175,141.353L59.4,140.422L59.625,140.287L59.85,140.282L60.075,140.282L60.3,140.024L60.525,139.804L60.75,139.804L60.975,139.79L61.2,139.713L61.425,139.71L61.65,139.526L61.875,139.442L62.1,138.583L62.325,138.46L62.55,138.435L62.775,138.416L63,138.346L63.225,138.328L63.45,138.327L63.675,138.31L63.9,138.31L64.125,138.218L64.35,138.037L64.575,138.037L64.8,137.959L65.025,137.957L65.25,137.699L65.475,137.409L65.7,137.401L65.925,137.401L66.15,137.398L66.375,137.105L66.6,137.079L66.825,137.067L67.05,137.034L67.275,137.032L67.5,137.011L67.725,137.01L67.95,137.008L68.175,136.795L68.4,136.688L68.625,136.351L68.85,136.349L69.075,136.248L69.3,136.22L69.525,136.218L69.75,136.194L69.975,136.175L70.2,136.175L70.425,135.657L70.65,135.657L70.875,135.099L71.1,134.941L71.325,134.91L71.55,134.91L71.775,134.91L72,134.908L72.225,134.847L72.45,134.847L72.675,134.846L72.9,134.741L73.125,134.739L73.35,134.739L73.575,134.283L73.8,134.283L74.025,134.128L74.25,133.266L74.475,133.266L74.7,133.265L74.925,132.96L75.15,132.959L75.375,132.959L75.6,132.956L75.825,132.545L76.05,132.142L76.275,131.858L76.5,131.751L76.725,131.751L76.95,131.751L77.175,131.746L77.4,131.659L77.625,131.604L77.85,131.571L78.075,131.57L78.3,131.279L78.525,131.134L78.75,131.113L78.975,130.927L79.2,130.808L79.425,130.808L79.65,130.362L79.875,130.268L80.1,130.178L80.325,129.98L80.55,129.945L80.775,129.154L81,129.154L81.225,128.81L81.45,128.672L81.675,128.669L81.9,128.513L82.125,128.511L82.35,128.39L82.575,128.147L82.8,128.116L83.025,128.116L83.25,128.116L83.475,128.099L83.7,128.096L83.925,128.096L84.15,128.086L84.375,127.566L84.6,127.558L84.825,127.413L85.05,127.11L85.275,127.11L85.5,127.101L85.725,126.863L85.95,126.857L86.175,126.857L86.4,126.651L86.625,125.752L86.85,124.778L87.075,122.918L87.3,122.699L87.525,122.679L87.75,121.698L87.975,121.697L88.2,121.681L88.425,121.671L88.65,121.162L88.875,121.162L89.1,121.105L89.325,121.102L89.55,120.763L89.775,120.459L90,119.261L90.225,119.222L90.45,119.045L90.675,119.044L90.9,119.043L91.125,118.971L91.35,118.788L91.575,118.788L91.8,118.787L92.025,118.649L92.25,118.633L92.475,118.633L92.7,118.629L92.925,117.262L93.15,117.261L93.375,117.223L93.6,117.217L93.825,116.905L94.05,116.789L94.275,116.284L94.5,116.184L94.725,116.183L94.95,116.124L95.175,115.926L95.4,115.885L95.625,115.854L95.85,115.837L96.075,115.833L96.3,115.833L96.525,115.824L96.75,115.444L96.975,115.105L97.2,114.938L97.425,114.935L97.65,114.933L97.875,114.932L98.1,114.932L98.325,114.839L98.55,114.756L98.775,114.002L99,113.999L99.225,113.997L99.45,113.997L99.675,113.953L99.9,113.927L100.125,113.904L100.35,112.929L100.575,112.857L100.8,112.857L101.025,112.844L101.25,112.543L101.475,112.543L101.7,112.54L101.925,112.538L102.15,112.512L102.375,112.51L102.6,112.509L102.825,112.371L103.05,112.283L103.275,112.038L103.5,112.011L103.725,112.011L103.95,111.662L104.175,111.442L104.4,111.442L104.625,111.327L104.85,111.326L105.075,111.324L105.3,111.319L105.525,111.237L105.75,111.234L105.975,111.109L106.2,111.101L106.425,111.101L106.65,110.311L106.875,109.899L107.1,109.791L107.325,108.912L107.55,108.912L107.775,108.89L108,108.89L108.225,108.52L108.45,108.52L108.675,108.5L108.9,108.309L109.125,108.308L109.35,108.308L109.575,108.308L109.8,108.306L110.025,108.302L110.25,108.212L110.475,108.023L110.7,108.021L110.925,107.881L111.15,107.881L111.375,107.844L111.6,107.82L111.825,107.6L112.05,107.6L112.275,107.552L112.5,107.552L112.725,107.552L112.95,107.548L113.175,107.494L113.4,107.361L113.625,107.361L113.85,107.331L114.075,107.327L114.3,107.246L114.525,107.227L114.75,107.225L114.975,107.224L115.2,107.145L115.425,107.143L115.65,106.918L115.875,106.917L116.1,106.665L116.325,106.617L116.55,105.392L116.775,105.315L117,105.315L117.225,105.31L117.45,105.17L117.675,105.169L117.9,105.169L118.125,103.481L118.35,103.477L118.575,103.476L118.8,103.474L119.025,102.812L119.25,102.54L119.475,102.535L119.7,102.531L119.925,102.236L120.15,102.236L120.375,102.233L120.6,101.631L120.825,101.201L121.05,101.038L121.275,101.028L121.5,101.028L121.725,101.016L121.95,100.982L122.175,100.963L122.4,100.938L122.625,100.854L122.85,100.848L123.075,100.848L123.3,100.842L123.525,100.739L123.75,100.718L123.975,99.577L124.2,99.535L124.425,99.374L124.65,99.357L124.875,99.061L125.1,99.047L125.325,99.029L125.55,99.028L125.775,99.028L126,99.005L126.225,98.945L126.45,98.519L126.675,98.206L126.9,98.206L127.125,98.206L127.35,98.206L127.575,98.176L127.8,98.173L128.025,98.162L128.25,98.151L128.475,98.149L128.7,98.147L128.925,98.146L129.15,98.044L129.375,98.043L129.6,98.043L129.825,98.039L130.05,98.036L130.275,98.014L130.5,98.012L130.725,98.008L130.95,97.324L131.175,97.306L131.4,97.306L131.625,97.239L131.85,97.238L132.075,96.836L132.3,96.832L132.525,96.832L132.75,96.831L132.975,96.826L133.2,96.826L133.425,96.824L133.65,96.823L133.875,96.626L134.1,96.626L134.325,96.625L134.55,96.592L134.775,96.577L135,96.577L135.225,96.55L135.45,96.549L135.675,95.809L135.9,95.809L136.125,95.809L136.35,95.494L136.575,95.494L136.8,95.485L137.025,95.471L137.25,95.47L137.475,95.47L137.7,95.395L137.925,95.395L138.15,95.393L138.375,95.384L138.6,95.382L138.825,94.607L139.05,94.592L139.275,94.592L139.5,94.592L139.725,94.584L139.95,94.448L140.175,94.432L140.4,94.432L140.625,94.416L140.85,94.416L141.075,94.285L141.3,94.28L141.525,94.206L141.75,94.197L141.975,94.193L142.2,94.193L142.425,94.033L142.65,94.033L142.875,93.914L143.1,93.903L143.325,93.903L143.55,93.9L143.775,93.899L144,93.899L144.225,93.898L144.45,93.898L144.675,93.763L144.9,93.763L145.125,93.763L145.35,93.763L145.575,93.763L145.8,93.415L146.025,93.353L146.25,93.353L146.475,93.241L146.7,93.218L146.925,93.218L147.15,93.15L147.375,93.15L147.6,93.15L147.825,93.131L148.05,93.07L148.275,93.07L148.5,93.07L148.725,93.056L148.95,93.053L149.175,92.926L149.4,92.888L149.625,92.86L149.85,92.845L150.075,92.829L150.3,92.829L150.525,92.824L150.75,92.824L150.975,92.803L151.2,92.803L151.425,92.659L151.65,92.607L151.875,92.605L152.1,92.599L152.325,92.558L152.55,92.388L152.775,92.387L153,92.387L153.225,92.387L153.45,92.387L153.675,91.826L153.9,91.761L154.125,91.761L154.35,91.76L154.575,91.76L154.8,91.76L155.025,91.759L155.25,91.7L155.475,91.542L155.7,91.504L155.925,91.504L156.15,91.487L156.375,91.486L156.6,91.419L156.825,91.419L157.05,91.418L157.275,91.418L157.5,91.417L157.725,91.409L157.95,91.407L158.175,91.407L158.4,91.407L158.625,91.407L158.85,91.388L159.075,91.387L159.3,91.361L159.525,91.361L159.75,89.698L159.975,89.379L160.2,89.367L160.425,89.367L160.65,89.092L160.875,89.088L161.1,89.088L161.325,89.088L161.55,89.072L161.775,89.069L162,88.405L162.225,88.405L162.45,88.152L162.675,88.136L162.9,88.056L163.125,88.055L163.35,88.054L163.575,88.053L163.8,88.05L164.025,88.05L164.25,88.05L164.475,88.047L164.7,88.046L164.925,88.046L165.15,88.046L165.375,88.039L165.6,88.039L165.825,88.039L166.05,88.037L166.275,88.025L166.5,88.018L166.725,87.965L166.95,87.965L167.175,87.965L167.4,87.963L167.625,87.77L167.85,87.271L168.075,87.271L168.3,87.27L168.525,87.248L168.75,86.055L168.975,86.054L169.2,86.054L169.425,86.054L169.65,85.957L169.875,85.952L170.1,85.93L170.325,85.834L170.55,85.834L170.775,85.834L171,85.787L171.225,85.785L171.45,85.785L171.675,85.743L171.9,85.742L172.125,85.177L172.35,85.142L172.575,85.003L172.8,84.965L173.025,83.731L173.25,83.68L173.475,83.68L173.7,83.68L173.925,83.648L174.15,83.623L174.375,82.804L174.6,82.804L174.825,82.804L175.05,82.803L175.275,81.972L175.5,81.783L175.725,81.783L175.95,81.732L176.175,81.545L176.4,81.545L176.625,81.54L176.85,81.523L177.075,81.505L177.3,81.5L177.525,81.499L177.75,80.919L177.975,80.919L178.2,80.816L178.425,79.914L178.65,79.356L178.875,79.345L179.1,79.246L179.325,79.122L179.55,79.122L179.775,79.069L180,79.026L180.225,79.026L180.45,79.026L180.675,78.99L180.9,78.982L181.125,78.981L181.35,78.981L181.575,78.973L181.8,78.955L182.025,78.826L182.25,78.797L182.475,78.797L182.7,78.794L182.925,78.794L183.15,78.583L183.375,78.583L183.6,78.583L183.825,78.582L184.05,78.577L184.275,78.577L184.5,78.577L184.725,78.577L184.95,78.564L185.175,78.538L185.4,78.538L185.625,78.538L185.85,78.497L186.075,78.497L186.3,78.496L186.525,78.496L186.75,78.491L186.975,78.488L187.2,78.397L187.425,78.397L187.65,77.962L187.875,77.962L188.1,77.958L188.325,77.957L188.55,77.949L188.775,77.949L189,77.938L189.225,77.938L189.45,77.666L189.675,77.666L189.9,77.666L190.125,77.665L190.35,77.462L190.575,77.462L190.8,77.462L191.025,77.462L191.25,77.462L191.475,77.462L191.7,77.456L191.925,77.454L192.15,77.454L192.375,77.453L192.6,77.453L192.825,77.453L193.05,77.453L193.275,77.45L193.5,77.441L193.725,77.38L193.95,76.432L194.175,76.431L194.4,76.431L194.625,76.427L194.85,76.419L195.075,75.842L195.3,75.842L195.525,75.842L195.75,75.842L195.975,75.842L196.2,75.841L196.425,75.84L196.65,75.617L196.875,75.614L197.1,75.614L197.325,74.237L197.55,74.237L197.775,74.236L198,74.236L198.225,74.234L198.45,74.213L198.675,74.213L198.9,74.208L199.125,74.194L199.35,74.194L199.575,74.19L199.8,74.183L200.025,74.183L200.25,74.183L200.475,74.183L200.7,74.171L200.925,74.122L201.15,74.105L201.375,74.084L201.6,74.084L201.825,73.93L202.05,73.93L202.275,73.93L202.5,73.93L202.725,73.887L202.95,73.875L203.175,73.875L203.4,73.875L203.625,73.874L203.85,73.873L204.075,73.873L204.3,73.873L204.525,73.873L204.75,73.858L204.975,73.857L205.2,73.849L205.425,73.849L205.65,73.849L205.875,73.849L206.1,73.848L206.325,73.845L206.55,73.845L206.775,73.845L207,73.839L207.225,73.794L207.45,73.665L207.675,73.665L207.9,73.665L208.125,73.665L208.35,73.639L208.575,73.639L208.8,73.639L209.025,73.639L209.25,73.611L209.475,73.611L209.7,73.611L209.925,73.611L210.15,73.611L210.375,73.611L210.6,73.61L210.825,73.61L211.05,73.61L211.275,73.61L211.5,73.61L211.725,73.61L211.95,73.577L212.175,73.577L212.4,73.577L212.625,73.577L212.85,73.576L213.075,73.576L213.3,73.574L213.525,73.573L213.75,73.571L213.975,73.571L214.2,72.891L214.425,72.891L214.65,72.878L214.875,72.674L215.1,72.674L215.325,72.674L215.55,72.673L215.775,72.673L216,72.49L216.225,72.49L216.45,72.489L216.675,72.486L216.9,72.485L217.125,72.485L217.35,72.483L217.575,72.48L217.8,71.804L218.025,71.804L218.25,71.79L218.475,71.79L218.7,71.789L218.925,71.721L219.15,71.673L219.375,71.673L219.6,71.011L219.825,71.01L220.05,70.633L220.275,70.614L220.5,70.546L220.725,70.544L220.95,70.54L221.175,70.164L221.4,70.164L221.625,70.164L221.85,70.164L222.075,70.164L222.3,70.164L222.525,70.164L222.75,70.164L222.975,70.164L223.2,70.164L223.425,70.162L223.65,70.162L223.875,70.162L224.1,70.162L224.325,70.162L224.55,69.468L224.775,69.41L225,69.409L225.225,69.393L225.45,69.393L225.675,69.391L225.9,69.272L226.125,69.272L226.35,69.27L226.575,69.18L226.8,69.127L227.025,69.127L227.25,69.127L227.475,69.095L227.7,69.095L227.925,69.095L228.15,69.095L228.375,68.969L228.6,68.969L228.825,68.949L229.05,68.949L229.275,68.942L229.5,68.941L229.725,68.941L229.95,68.913L230.175,68.913L230.4,68.913L230.625,68.913L230.85,68.873L231.075,68.873L231.3,68.873L231.525,68.507L231.75,68.507L231.975,68.484L232.2,68.484L232.425,68.484L232.65,68.484L232.875,68.484L233.1,68.339L233.325,68.334L233.55,68.334L233.775,68.334L234,68.334L234.225,68.334L234.45,68.319L234.675,68.185L234.9,68.135L235.125,68.135L235.35,68.135L235.575,67.288L235.8,67.265L236.025,67.265L236.25,67.208L236.475,67.121L236.7,66.667L236.925,66.667L237.15,66.647L237.375,66.647L237.6,66.647L237.825,66.166L238.05,66.165L238.275,66.165L238.5,66.165L238.725,66.165L238.95,65.847L239.175,65.847L239.4,65.846L239.625,65.846L239.85,65.57L240.075,65.498L240.3,65.498L240.525,65.498L240.75,65.493L240.975,65.493L241.2,65.471L241.425,65.471L241.65,65.47L241.875,65.463L242.1,65.462L242.325,65.363L242.55,65.363L242.775,65.363L243,65.363L243.225,65.362L243.45,65.362L243.675,65.317L243.9,64.011L244.125,63.985L244.35,63.985L244.575,63.985L244.8,63.985L245.025,63.977L245.25,63.977L245.475,63.975L245.7,63.975L245.925,63.975L246.15,63.975L246.375,63.974L246.6,63.966L246.825,63.966L247.05,63.965L247.275,63.949L247.5,63.949L247.725,63.949L247.95,63.949L248.175,63.866L248.4,63.866L248.625,63.86L248.85,63.156L249.075,63.15L249.3,63.143L249.525,63.006L249.75,63.006L249.975,62.998L250.2,62.09L250.425,62.054L250.65,62.054L250.875,62.046L251.1,62.045L251.325,62.045L251.55,62.016L251.775,62.016L252,62.016L252.225,62.013L252.45,62.013L252.675,62.013L252.9,62.013L253.125,62.006L253.35,62.005L253.575,62.005L253.8,62.005L254.025,62.005L254.25,62.005L254.475,62.005L254.7,61.983L254.925,61.981L255.15,61.98L255.375,61.98L255.6,61.98L255.825,61.319L256.05,61.319L256.275,61.197L256.5,61.183L256.725,61.183L256.95,61.183L257.175,61.183L257.4,61.18L257.625,61.169L257.85,61.169L258.075,61.169L258.3,61.169L258.525,60.998L258.75,60.998L258.975,60.997L259.2,60.997L259.425,60.984L259.65,60.981L259.875,60.98L260.1,60.98L260.325,60.98L260.55,60.977L260.775,60.976L261,60.974L261.225,60.974L261.45,60.974L261.675,60.974L261.9,60.974L262.125,60.466L262.35,60.466L262.575,60.465L262.8,60.465L263.025,60.464L263.25,60.464L263.475,60.464L263.7,60.191L263.925,60.167L264.15,60.167L264.375,60.165L264.6,60.165L264.825,60.165L265.05,60.165L265.275,60.165L265.5,59.876L265.725,59.475L265.95,59.451L266.175,59.451L266.4,59.451L266.625,59.451L266.85,59.412L267.075,59.406L267.3,59.405L267.525,59.405L267.75,59.38L267.975,59.38L268.2,59.38L268.425,59.38L268.65,59.38L268.875,59.38L269.1,59.38L269.325,59.38L269.55,59.38L269.775,59.38L270,59.211L270.225,59.211L270.45,59.211L270.675,59.189L270.9,59.187L271.125,59.186L271.35,59.186L271.575,59.186L271.8,59.186L272.025,59.186L272.25,59.185L272.475,59.183L272.7,59.18L272.925,59.18L273.15,59.18L273.375,59.18L273.6,59.18L273.825,59.177L274.05,58.52L274.275,58.52L274.5,58.463L274.725,58.463L274.95,58.463L275.175,58.346L275.4,58.346L275.625,58.346L275.85,57.992L276.075,57.992L276.3,57.327L276.525,57.327L276.75,57.326L276.975,57.326L277.2,57.326L277.425,57.325L277.65,57.321L277.875,57.308L278.1,57.307L278.325,57.279L278.55,57.275L278.775,57.255L279,57.255L279.225,57.255L279.45,57.254L279.675,57.254L279.9,57.254L280.125,56.808L280.35,56.807L280.575,56.543L280.8,56.543L281.025,56.543L281.25,56.543L281.475,54.98L281.7,54.98L281.925,54.98L282.15,54.98L282.375,54.98L282.6,54.98L282.825,54.98L283.05,54.978L283.275,54.978L283.5,54.765L283.725,54.765L283.95,54.764L284.175,54.764L284.4,54.764L284.625,54.764L284.85,54.764L285.075,54.764L285.3,54.764L285.525,54.733L285.75,54.733L285.975,54.733L286.2,54.733L286.425,54.733L286.65,54.65L286.875,54.65L287.1,54.65L287.325,54.65L287.55,54.65L287.775,54.65L288,54.65L288.225,54.65L288.45,54.65L288.675,54.65L288.9,54.65L289.125,54.65L289.35,54.646L289.575,54.646L289.8,54.622L290.025,54.622L290.25,54.622L290.475,54.621L290.7,54.621L290.925,54.621L291.15,54.612L291.375,54.608L291.6,54.608L291.825,54.608L292.05,54.608L292.275,54.608L292.5,54.608L292.725,54.608L292.95,54.593L293.175,54.582L293.4,54.581L293.625,54.581L293.85,54.581L294.075,54.581L294.3,54.567L294.525,54.565L294.75,53.908L294.975,53.908L295.2,53.908L295.425,53.908L295.65,53.907L295.875,53.907L296.1,53.907L296.325,53.907L296.55,53.907L296.775,53.907L297,53.89L297.225,53.489L297.45,53.48L297.675,53.48L297.9,53.48L298.125,53.48L298.35,53.48L298.575,53.477L298.8,53.475L299.025,53.443L299.25,53.442L299.475,53.442L299.7,53.442L299.925,53.442L300.15,53.426L300.375,53.426L300.6,53.426L300.825,53.426L301.05,53.254L301.275,53.254L301.5,53.205L301.725,53.205L301.95,53.203L302.175,53.203L302.4,53.065L302.625,53.065L302.85,53.065L303.075,53.052L303.3,53.046L303.525,52.969L303.75,52.966L303.975,52.964L304.2,52.963L304.425,52.961L304.65,52.961L304.875,52.944L305.1,52.943L305.325,52.943L305.55,52.821L305.775,52.821L306,52.821L306.225,52.821L306.45,52.82L306.675,52.82L306.9,52.82L307.125,52.82L307.35,52.818L307.575,52.818L307.8,52.81L308.025,52.81L308.25,52.81L308.475,52.81L308.7,52.81L308.925,52.81L309.15,52.81L309.375,52.81L309.6,52.791L309.825,52.787L310.05,52.787L310.275,52.774L310.5,52.774L310.725,52.774L310.95,52.774L311.175,52.774L311.4,52.774L311.625,52.773L311.85,52.741L312.075,52.741L312.3,52.741L312.525,52.741L312.75,52.741L312.975,52.741L313.2,51.829L313.425,51.829L313.65,51.829L313.875,51.829L314.1,51.829L314.325,51.829L314.55,51.726L314.775,51.725L315,51.705L315.225,51.704L315.45,51.704L315.675,51.703L315.9,51.703L316.125,51.702L316.35,51.575L316.575,51.575L316.8,51.569L317.025,51.569L317.25,51.49L317.475,51.49L317.7,51.49L317.925,51.489L318.15,51.489L318.375,51.489L318.6,51.488L318.825,51.488L319.05,51.488L319.275,51.488L319.5,51.488L319.725,51.488L319.95,51.488L320.175,51.488L320.4,51.488L320.625,51.487L320.85,51.483L321.075,51.483L321.3,51.483L321.525,51.483L321.75,51.483L321.975,51.483L322.2,51.481L322.425,51.481L322.65,51.481L322.875,51.481L323.1,51.481L323.325,51.48L323.55,51.48L323.775,51.476L324,51.476L324.225,51.23L324.45,51.23L324.675,51.229L324.9,51.229L325.125,51.228L325.35,51.228L325.575,51.228L325.8,51.228L326.025,51.228L326.25,50.933L326.475,50.933L326.7,50.933L326.925,50.933L327.15,50.93L327.375,50.903L327.6,50.902L327.825,50.902L328.05,50.902L328.275,50.902L328.5,50.799L328.725,50.799L328.95,50.799L329.175,50.799L329.4,50.799L329.625,50.799L329.85,50.789L330.075,50.785L330.3,50.785L330.525,49.903L330.75,49.903L330.975,49.681L331.2,49.681L331.425,49.681L331.65,49.578L331.875,49.577L332.1,49.577L332.325,49.577L332.55,49.577L332.775,49.577L333,49.577L333.225,48.818L333.45,48.818L333.675,48.762L333.9,48.762L334.125,48.762L334.35,48.762L334.575,48.76L334.8,48.76L335.025,48.76L335.25,48.76L335.475,48.76L335.7,48.76L335.925,48.76L336.15,48.759L336.375,48.335L336.6,48.335L336.825,48.334L337.05,48.334L337.275,48.334L337.5,48.334L337.725,48.334L337.95,48.333L338.175,48.277L338.4,48.276L338.625,48.276L338.85,48.276L339.075,48.276L339.3,48.276L339.525,48.276L339.75,48.27L339.975,48.27L340.2,48.27L340.425,48.263L340.65,48.263L340.875,48.263L341.1,48.263L341.325,48.263L341.55,48.263L341.775,48.263L342,48.263L342.225,48.263L342.45,48.249L342.675,48.249L342.9,48.249L343.125,48.249L343.35,48.249L343.575,48.249L343.8,48.249L344.025,48.249L344.25,48.249L344.475,48.249L344.7,48.249L344.925,48.249L345.15,48.249L345.375,48.249L345.6,48.249L345.825,48.249L346.05,48.249L346.275,48.249L346.5,48.249L346.725,48.249L346.95,48.249L347.175,48.249L347.4,48.244L347.625,48.244L347.85,48.244L348.075,48.244L348.3,48.244L348.525,48.244L348.75,48.244L348.975,48.244L349.2,48.244L349.425,48.244L349.65,48.242L349.875,48.242L350.1,48.242L350.325,48.242L350.55,48.242L350.775,48.242L351,48.242L351.225,48.241L351.45,48.24L351.675,48.24L351.9,48.24L352.125,48.24L352.35,48.215L352.575,48.215L352.8,48.215L353.025,48.215L353.25,48.215L353.475,48.215L353.7,48.215L353.925,47.61L354.15,47.61L354.375,47.61L354.6,47.443L354.825,46.941L355.05,46.941L355.275,46.941L355.5,46.939L355.725,46.939L355.95,46.936L356.175,46.936L356.4,46.902L356.625,46.79L356.85,46.79L357.075,46.79L357.3,46.79L357.525,46.79L357.75,46.79L357.975,46.79L358.2,46.79L358.425,46.79L358.65,46.79L358.875,46.571L359.1,46.571L359.325,46.571L359.55,46.571L359.775,46.571L360,46.571L360.225,46.571L360.45,46.571L360.675,46.571L360.9,46.571L361.125,46.571L361.35,46.57L361.575,46.57L361.8,46.57L362.025,46.57L362.25,46.569L362.475,46.569L362.7,46.461L362.925,46.461L363.15,46.461L363.375,46.461L363.6,46.461L363.825,46.461L364.05,46.275L364.275,46.275L364.5,46.275L364.725,46.216L364.95,46.216L365.175,46.216L365.4,46.216L365.625,46.216L365.85,46.216L366.075,46.215L366.3,46.215L366.525,46.215L366.75,46.215L366.975,46.084L367.2,46.058L367.425,46.058L367.65,46.045L367.875,46.045L368.1,46.045L368.325,44.728L368.55,44.728L368.775,44.728L369,44.724L369.225,44.711L369.45,44.711L369.675,44.711L369.9,44.711L370.125,44.711L370.35,44.711L370.575,44.711L370.8,44.711L371.025,44.711L371.25,44.711L371.475,44.711L371.7,44.711L371.925,44.709L372.15,44.709L372.375,44.709L372.6,44.709L372.825,44.709L373.05,44.709L373.275,44.709L373.5,44.709L373.725,44.709L373.95,44.707L374.175,44.707L374.4,44.707L374.625,44.707L374.85,44.707L375.075,44.707L375.3,44.707L375.525,44.707L375.75,44.707L375.975,44.707L376.2,44.707L376.425,44.707L376.65,44.707L376.875,44.707L377.1,44.707L377.325,44.707L377.55,44.707L377.775,44.707L378,44.707L378.225,44.707L378.45,44.707L378.675,44.707L378.9,44.707L379.125,44.707L379.35,44.706L379.575,44.706L379.8,44.706L380.025,44.706L380.25,44.706L380.475,44.706L380.7,44.706L380.925,44.705L381.15,44.701L381.375,44.701L381.6,44.687L381.825,44.687L382.05,44.687L382.275,44.687L382.5,44.687L382.725,44.687L382.95,44.687L383.175,44.687L383.4,44.52L383.625,44.467L383.85,44.467L384.075,44.394L384.3,44.394L384.525,44.394L384.75,44.394L384.975,44.394L385.2,44.394L385.425,44.394L385.65,44.394L385.875,44.393L386.1,44.279L386.325,44.279L386.55,44.279L386.775,44.24L387,44.24L387.225,44.24L387.45,43.879L387.675,43.879L387.9,43.879L388.125,43.878L388.35,43.856L388.575,43.798L388.8,43.798L389.025,43.798L389.25,43.798L389.475,43.798L389.7,43.798L389.925,43.797L390.15,43.797L390.375,43.797L390.6,43.797L390.825,43.79L391.05,43.79L391.275,43.79L391.5,43.79L391.725,43.79L391.95,43.79L392.175,43.789L392.4,43.789L392.625,43.789L392.85,43.694L393.075,43.693L393.3,43.693L393.525,43.693L393.75,43.637L393.975,43.637L394.2,43.637L394.425,43.61L394.65,43.519L394.875,43.519L395.1,43.519L395.325,43.519L395.55,43.519L395.775,43.519L396,43.519L396.225,43.499L396.45,43.499L396.675,43.499L396.9,43.499L397.125,43.499L397.35,42.762L397.575,42.762L397.8,42.761L398.025,42.756L398.25,42.756L398.475,42.754L398.7,42.715L398.925,42.395L399.15,42.395L399.375,42.395L399.6,42.395L399.825,42.395L400.05,42.395L400.275,42.395L400.5,42.231L400.725,42.231L400.95,42.227L401.175,42.132L401.4,42.132L401.625,42.132L401.85,42.132L402.075,42.13L402.3,42.13L402.525,42.13L402.75,42.13L402.975,42.129L403.2,42.128L403.425,42.071L403.65,42.071L403.875,42.069L404.1,42.069L404.325,42.069L404.55,42.069L404.775,42.069L405,42.069L405.225,42.069L405.45,42.069L405.675,42.069L405.9,42.068L406.125,42.068L406.35,42.066L406.575,42.066L406.8,42.066L407.025,42.005L407.25,42.005L407.475,42.005L407.7,41.618L407.925,41.618L408.15,41.618L408.375,41.617L408.6,41.617L408.825,41.617L409.05,41.617L409.275,41.617L409.5,41.617L409.725,41.617L409.95,41.611L410.175,41.611L410.4,41.611L410.625,41.611L410.85,41.428L411.075,41.428L411.3,41.428L411.525,41.428L411.75,41.428L411.975,41.428L412.2,41.36L412.425,41.359L412.65,40.976L412.875,40.976L413.1,40.906L413.325,40.906L413.55,40.906L413.775,40.906L414,40.906L414.225,40.906L414.45,40.906L414.675,40.906L414.9,40.905L415.125,40.905L415.35,40.905L415.575,40.905L415.8,40.905L416.025,40.905L416.25,40.905L416.475,40.905L416.7,40.905L416.925,40.905L417.15,40.905L417.375,40.905L417.6,40.905L417.825,40.905L418.05,40.905L418.275,40.905L418.5,40.905L418.725,39.818L418.95,39.818L419.175,39.818L419.4,39.818L419.625,39.817L419.85,39.817L420.075,39.817L420.3,39.817L420.525,39.816L420.75,39.816L420.975,39.816L421.2,39.816L421.425,39.816L421.65,39.816L421.875,39.816L422.1,39.809L422.325,39.808L422.55,39.808L422.775,39.808L423,39.808L423.225,39.808L423.45,39.808L423.675,39.808L423.9,39.808L424.125,39.808L424.35,39.808L424.575,39.808L424.8,39.808L425.025,39.808L425.25,39.772L425.475,39.772L425.7,39.772L425.925,39.772L426.15,39.763L426.375,39.763L426.6,39.763L426.825,39.763L427.05,39.762L427.275,39.701L427.5,39.614L427.725,39.614L427.95,39.614L428.175,39.373L428.4,39.373L428.625,39.373L428.85,39.372L429.075,39.372L429.3,39.112L429.525,39.112L429.75,39.112L429.975,39.002L430.2,39.002L430.425,39.001L430.65,39.001L430.875,39.001L431.1,39.001L431.325,39.001L431.55,39.001L431.775,39.001L432,39.001L432.225,39.001L432.45,39.001L432.675,38.93L432.9,38.93L433.125,38.93L433.35,37.681L433.575,37.681L433.8,37.405L434.025,37.405L434.25,37.118L434.475,37.118L434.7,37.118L434.925,37.1L435.15,37.1L435.375,37.1L435.6,37.1L435.825,37.1L436.05,37.1L436.275,37.1L436.5,37.099L436.725,37.099L436.95,37.099L437.175,37.099L437.4,37.099L437.625,37.099L437.85,37.099L438.075,37.099L438.3,37.099L438.525,37.099L438.75,37.048L438.975,37.036L439.2,37.036L439.425,36.686L439.65,36.686L439.875,36.686L440.1,36.686L440.325,36.686L440.55,36.686L440.775,36.672L441,36.672L441.225,36.672L441.45,36.67L441.675,36.67L441.9,36.67L442.125,36.67L442.35,36.67L442.575,36.67L442.8,36.665L443.025,36.665L443.25,36.665L443.475,36.665L443.7,36.665L443.925,36.665L444.15,36.665L444.375,36.665L444.6,36.434L444.825,36.434L445.05,36.434L445.275,36.434L445.5,36.434L445.725,36.434L445.95,36.434L446.175,36.434L446.4,36.434L446.625,36.434L446.85,36.434L447.075,36.429L447.3,36.429L447.525,36.429L447.75,36.429L447.975,36.429L448.2,36.429L448.425,36.429L448.65,36.429L448.875,36.429L449.1,36.42L449.325,36.134L449.55,35.998L449.775,35.998L450,35.998" stroke="steelblue" stroke-width="2"/></g><g class="mark-group role-title"><g transform="translate(225,-22)"><path class="background" aria-hidden="true" d="M0,0h0v0h0Z" pointer-events="none"/><g><g class="mark-text role-title-text" role="graphics-symbol" aria-roledescription="title" aria-label="Title text 'Gini coefficient over time'" pointer-events="none"><text text-anchor="middle" transform="translate(0,10)" font-family="sans-serif" font-size="13px" font-weight="bold" fill="#000" opacity="1">Gini coefficient over time</text></g></g><path class="foreground" aria-hidden="true" d="" pointer-events="none" display="none"/></g></g></g><path class="foreground" aria-hidden="true" d="" display="none"/></g></g></g></svg>