<?xml version="1.0" encoding="utf-8"?>

<!DOCTYPE svg PUBLIC "-//W3C//DTD SVG 1.1//EN" "http://www.w3.org/Graphics/SVG/1.1/DTD/svg11.dtd">
<svg version="1.1" id="Layer_1" xmlns="http://www.w3.org/2000/svg" xmlns:xlink="http://www.w3.org/1999/xlink" x="0px" y="0px"
	 viewBox="0 0 1397.778 1682.53" enable-background="new 0 0 1397.778 1682.53" xml:space="preserve">
<g>
	<path fill="#2C1B18" stroke="#2C1B18" d="M718.102,41.265c84.34,2.161,165.298,22.408,229.695,76.95
		c76.136,63.94,112.179,162.107,121.704,260.63c3.13,32.344,3.045,69.352,0.908,76.206c-0.379,1.136-0.64,2.318-0.718,3.52
		c-0.176-0.242-0.529-0.725-0.705-0.967c-1.286,0.614-2.436,1.463-3.572,2.299c-9.732-3.124-6.531-9.225-7.438-17.704
		c-5.112-56.082-30.682-169.665-73.502-214.361c-10.019-10.084-13.564-19.734-99.396-30.642c-2.429-0.313-4.944-0.294-7.242-1.202
		c7.288-18.599,15.536-36.852,22.792-55.471c-4.772,4.38-42.546,51.659-45.277,53.205c-2.305,0.235-4.591-0.327-6.877-0.49
		c-156.074-14.55-319.601-2.774-391.275,13.172c-28.756,6.608-32.892,10.367-41.62,19.135
		c-43.395,42.241-70.251,156.677-75.775,216.653c-0.939,8.159,2.37,14.522-7.432,17.704c-1.149-0.842-2.299-1.691-3.579-2.299
		c-0.176,0.242-0.529,0.725-0.705,0.967c-0.091-1.202-0.353-2.384-0.718-3.52c-3.46-10.208-20.177-289.792,205.355-382.727
		C593.157,47.182,652.926,41.265,718.102,41.265z"/>
	<path fill="#614335" stroke="#614335" d="M891.522,150.986c3.056-3.468,5.688-7.327,9.104-10.462
		c-7.255,18.619-15.504,36.872-22.792,55.471c2.299,0.908,4.813,0.888,7.242,1.202c85.09,10.813,89.075,20.254,99.396,30.642
		c41.724,43.551,68.056,154.609,73.502,214.361c0.907,8.483-2.298,14.579,7.438,17.704
		c-24.529,104.105-34.41,210.893-55.373,315.683c-1.326,6.831-2.913,13.616-3.683,20.539c-1.516,9.325-1.821,16.596-10.469,14.622
		c-20.813-5.184-47.307-51.221-89.998-80.47c-39.438-26.906-85.864-43.35-133.381-47.719c-0.163-0.921-0.483-1.894,0.007-2.769
		c2.521-5.538,5.238-11.553,4.441-17.776c-2.812-0.586-153.668-0.48-156.134,0c-0.699,4.362,0.816,8.731,2.227,12.813
		c0.79,2.54,3.148,4.918,2.214,7.732c-46.733,4.284-92.402,20.291-131.429,46.393c-46.304,30.864-79.144,88.323-97.228,81.593
		c-4.938-2.06-4.721-15.742-7.007-25.711c-22.224-107.755-32-217.757-57.228-324.931c9.802-3.183,6.492-9.538,7.432-17.704
		c3.829-41.569,21.9-135.739,56.895-192.405c8.013-12.854,21.648-30.214,33.365-35.226c19.47-8.455,56.541-13.875,77.453-16.653
		c78.673-10.121,155.529-11.998,230.563-10.958c65.927,1.718,117.27,6.772,117.27,6.772
		C856.78,192.919,854.012,196.068,891.522,150.986 M535.872,388.347c-79.283,5.141-124.627,50.277-124.304,64.346
		c-0.184,12.267,15.769,17.691,23.177,8.216c32.066-41.909,101.145-53.784,151.98-42.998c3.912,0.803,8.098,2.253,12.003,0.62
		c11.368-3.858,11.501-20.187,0.62-24.32C595.725,392.856,569.946,386.263,535.872,388.347 M834.334,388.36
		c-11.435,0.803-22.831,2.436-33.959,5.198c-5.146,1.149-9.234,5.669-9.9,10.887c-0.888,5.76,2.638,11.833,8.098,13.897
		c3.265,1.541,6.955,0.869,10.312,0.046c39.315-9.08,87.283-4.036,124.023,16.444c29.896,17.141,27.076,28.829,37.865,30.674
		c9.686,1.997,18.609-8.173,14.459-17.626c-2.481-5.715-20.967-31.039-64.026-47.105
		C893.573,390.496,863.722,386.525,834.334,388.36 M502.566,505.226c-30.629,2.76-54.028,20.527-64.261,42.802
		c-1.28,2.749-0.731,6.994,2.553,8c3.644,1.058,6.622-1.998,9.313-3.958c34.841-25.905,89.012-25.089,122.664,3.128
		c1.306,1.012,2.789,2.142,4.552,1.94c2.627-0.092,6.028-4.346,2.253-11.298C564.773,517.385,533.503,502.646,502.566,505.226
		 M816.91,548.471c-1.984,5.112,2.243,11.113,9.443,5.571c33.135-26.511,83.702-27.07,117.427-4.669
		c3.2,1.933,5.982,4.441,8.973,6.674c4.445,3.568,9.66-1.857,6.296-8.869C931.102,488.214,839.486,493.678,816.91,548.471z"/>
	<path fill="#261A15" stroke="#261A15" d="M589.867,391.88c3.174,0.679,6.426,1.189,9.482,2.331
		c10.869,4.129,10.755,20.46-0.62,24.32c-3.905,1.633-8.091,0.183-12.003-0.62c-51.338-10.893-120.083,1.309-151.98,42.998
		c-9.668,12.367-32.912-0.912-18.619-18.671C450.538,398.134,526.661,379.011,589.867,391.88z"/>
	<path fill="#261A15" stroke="#261A15" d="M977.844,437.614c2.632,3.278,5.688,6.354,7.386,10.266
		c4.149,9.451-4.77,19.624-14.459,17.626c-10.774-1.842-8.01-13.557-37.865-30.674c-36.65-20.43-84.612-25.546-124.023-16.444
		c-3.357,0.823-7.047,1.496-10.312-0.046c-5.46-2.064-8.986-8.137-8.098-13.897c0.666-5.218,4.754-9.737,9.9-10.887
		C861.338,378.425,939.215,394.162,977.844,437.614z"/>
	<path fill="#614335" stroke="#614335" d="M327.369,455.051c0.366,1.136,0.627,2.318,0.718,3.52
		c-4.923,24.854-15.493,180.59-14.302,235.063c-22.655-9.842-39.576-31.458-44.33-55.628c-2.071-9.064-1.587-7.902-1.587-106.292
		C267.581,495.391,292.576,463.464,327.369,455.051z"/>
	<path fill="#614335" stroke="#614335" d="M1069.691,458.571c0.078-1.202,0.34-2.384,0.718-3.52
		c29.777,7.259,52.256,31.697,57.907,60.493c2.027,8.816,1.635,8.403,1.587,106.952c0.084,31.448-19.281,59.584-45.91,71.138
		C1084.847,653.026,1076.16,490.152,1069.691,458.571z"/>
	<path stroke="#000000" d="M328.793,457.605c1.28,0.607,2.429,1.456,3.579,2.299c25.228,107.174,35.004,217.176,57.228,324.931
		c2.288,9.974,2.069,23.651,7.007,25.711c17.975,6.689,51.104-50.849,97.228-81.593c39.027-26.103,84.695-42.109,131.429-46.393
		c23.874-2.567,50.996,0.035,72.333,11.736c1.3,0.947,2.691-0.072,3.905-0.647c46.933-26.277,140.844-6.722,204.389,36.63
		c42.655,29.223,69.223,75.295,89.998,80.47c8.662,1.977,8.956-5.314,10.469-14.622c0.771-6.922,2.357-13.708,3.683-20.539
		c20.963-104.79,30.844-211.579,55.373-315.683c1.136-0.836,2.286-1.685,3.572-2.299c0.176,0.242,0.529,0.725,0.705,0.967
		c4.769,23.283,8.622,93.743,9.868,117.531c0.153,13.194,5.521,65.891,4.434,117.531c-0.368,12.613-6.092,118.051-27.213,183.608
		c-36.421,112.268-110.598,132.643-201.156,167.171c-56.412,21.749-57.022,26.168-80.052,34.828
		c-6.215,2.053-11.521,11.398-43.461,17.26c-38.994,6.605-80.468,0.638-100.859-13.238c-3.468-2.331-7.608-3.239-11.383-4.911
		c-10.638-4.304-20.911-9.43-31.184-14.511c-47.847-22.802-101.095-36.104-146.58-61.133
		C346.39,950.198,328.321,858.98,317.56,743.972c-2.769-26.989-6.202-62.082-2.266-117.512c0.393-8.347,5.026-91.392,8.072-128.699
		c1.202-13.1,2.162-26.266,4.722-39.19C328.264,458.329,328.616,457.846,328.793,457.605 M701.762,766.489
		c-39.985,18.26-67.855,2.222-97.306,9.776c-21.761,5.437-34.604,25.713-41.607,47.131c-7.957,25.242-8.876,56.544,7.523,77.153
		c30.472,40.079,83.414-26.222,193.959,2.612c20.923,5.082,43.691,14.211,58.201,6.883c13.296-6.475,27.342-27.765,24.059-62.204
		c-2.187-22.166-11.877-48.98-28.891-62.668c-29.502-24.451-72.182,2.738-113.783-18.201
		C703.219,766.757,702.487,766.124,701.762,766.489z"/>
	<path fill="#261A15" stroke="#261A15" d="M579.64,545.84c3.777,6.956,0.369,11.206-2.253,11.298
		c-1.763,0.202-3.246-0.927-4.552-1.94c-33.674-28.235-87.845-29.018-122.664-3.128c-2.691,1.959-5.669,5.016-9.313,3.958
		c-3.285-1.006-3.833-5.251-2.553-8C463.679,492.794,550.157,489.412,579.64,545.84z"/>
	<path fill="#261A15" stroke="#261A15" d="M959.049,547.178c3.35,6.981-1.822,12.458-6.296,8.869
		c-2.991-2.233-5.773-4.741-8.973-6.674c-33.736-22.408-84.3-21.835-117.427,4.669c-6.977,5.37-11.529-0.197-9.443-5.571
		c1.345-3.265,3.161-6.328,5.087-9.28C854.099,490.258,934.193,494.735,959.049,547.178z"/>
	<path fill="#51382C" stroke="#51382C" d="M620.822,662.013c2.482-0.483,153.329-0.585,156.134,0
		c0.797,6.224-1.92,12.238-4.441,17.776c-0.49,0.875-0.17,1.848-0.007,2.769c-22.454-2.49-51.168-0.019-71.007,11.089
		c-1.215,0.575-2.606,1.594-3.905,0.647c-21.334-11.699-48.454-14.303-72.333-11.736c0.934-2.815-1.424-5.192-2.214-7.732
		C621.638,670.744,620.123,666.375,620.822,662.013z"/>
	<path fill="#614335" stroke="#614335" d="M701.762,766.489c0.725-0.366,1.456,0.268,2.155,0.483
		c41.557,20.918,84.295-6.239,113.783,18.201c17.076,13.737,26.716,40.62,28.891,62.668c3.283,34.437-10.763,55.729-24.059,62.204
		c-14.51,7.328-37.278-1.801-58.201-6.883c-110.567-28.839-163.471,37.488-193.959-2.612c-16.404-20.616-15.477-51.921-7.523-77.153
		c6.995-21.398,19.833-41.692,41.607-47.131C633.754,768.751,661.918,784.685,701.762,766.489 M618.112,779.479
		c-6.073,1.228-10.939,7.184-10.651,13.44c0.092,51.791,87.55,71.94,143.706,48.398c21.617-9.333,39.379-25.742,39.138-49.071
		c-0.007-3.879-1.972-7.562-4.97-9.959c-5.29-4.885-15.112-3.84-18.73,2.567c-2.883,4.397-1.14,13.031-16.424,25.384
		c-29.957,22.097-98.183,20.089-115.559-15.739c-1.613-3.22-1.541-7.079-3.703-10.044
		C628.326,780.197,622.82,778.571,618.112,779.479z"/>
	<path fill="#261A15" stroke="#261A15" d="M618.112,779.479c4.709-0.908,10.214,0.718,12.807,4.976
		c3.557,4.879,2.899,36.509,67.304,40.438c24.317-0.625,53.574-7.484,64.503-29.538c1.946-3.259,1.789-7.314,3.879-10.501
		c3.618-6.406,13.44-7.451,18.73-2.567c2.997,2.397,4.963,6.08,4.97,9.959c0.349,33.811-36.977,56.013-82.932,58.58
		c-53.002,2.668-99.845-20.541-99.912-57.907C607.173,786.662,612.038,780.707,618.112,779.479z"/>
	<path fill="#614335" stroke="#614335" d="M542.154,1044.413c56.031,21.577,50.156,22.791,77.714,33.94
		c3.775,1.672,7.915,2.58,11.383,4.911c29.117,19.814,99.901,21.892,134.55,1.933c3.337-1.855,6.073-4.735,9.77-5.956
		c23.542-8.853,22.932-12.805,80.052-34.828c0.059,22.596-0.111,45.198,0.078,67.794c11.387,0.417,34.641-0.829,66.567,1.802
		c-0.333,0.248-0.999,0.751-1.332,1.006c-0.399,3.197,2.366,24.49-11.305,50.612c-21.781,41.515-68.143,68.085-112.718,81.894
		c-134.245,41.289-296.576-13.866-312.274-111.739c-1.378-7.367-1.293-14.864-1.195-22.322c19.5-1.561,39.086-1.019,58.632-1.254
		C542.265,1089.611,542.096,1067.009,542.154,1044.413z"/>
	<path fill="#364752" stroke="#364752" d="M443.411,1117.921c13.264-2.116,26.625-3.618,40.033-4.46
		c-0.098,7.458-0.183,14.955,1.195,22.322c2.253,14.047,7.811,27.455,15.608,39.321c77.984,119.584,345.429,112.424,409.384-9.476
		c13.656-26.094,10.909-47.439,11.305-50.612c0.333-0.255,0.999-0.758,1.332-1.006c13.107,1.156,26.181,2.769,39.151,5.029
		c-1.488,4.165,0.414,17.563-1.456,28.421c-10.438,77.081-100.375,149.582-232.072,158.433c-4.591,0.653-9.228,0.052-13.819,0.601
		c-19.09,1.991-139.472,2.295-220.408-71.269c-3.402-3.344-6.72-6.785-10.142-10.103c-28.459-30.385-40.27-64.454-40.052-89.998
		C443.222,1129.389,443.81,1123.649,443.411,1117.921z"/>
	<path fill="#3C4F5C" stroke="#3C4F5C" d="M443.411,1117.921c0.859,12.356-7.094,56.802,40.111,107.2
		c3.422,3.318,6.74,6.759,10.142,10.103c88.771,80.685,251.078,93.845,364.787,35.944
		c117.316-61.843,100.798-146.06,102.968-152.131c212.095,36.15,370.69,212.287,388.787,421.969
		c2.217,20.52,1.744,48.251,1.744,100.258H45.828c0-62.403-0.565-81.133,2.384-107.056
		C69.851,1320.844,234.987,1149.766,443.411,1117.921z"/>
</g>
</svg>
