<?xml version="1.0" encoding="UTF-8" standalone="no"?>
<!-- Created with Inkscape (http://www.inkscape.org/) -->
<svg xmlns:rdf="http://www.w3.org/1999/02/22-rdf-syntax-ns#" xmlns="http://www.w3.org/2000/svg" xmlns:cc="http://creativecommons.org/ns#" xmlns:xlink="http://www.w3.org/1999/xlink" xmlns:dc="http://purl.org/dc/elements/1.1/" xmlns:svg="http://www.w3.org/2000/svg" xmlns:inkscape="http://www.inkscape.org/namespaces/inkscape" xmlns:sodipodi="http://sodipodi.sourceforge.net/DTD/sodipodi-0.dtd" xmlns:ns1="http://sozi.baierouge.fr" id="svg2" viewBox="0 0 653.9 528.19" version="1.1" inkscape:version="0.91 r13725">
  <defs id="defs4">
    <linearGradient id="linearGradient3868">
      <stop id="stop3870" style="stop-color:#000000" offset="0"/>
      <stop id="stop3872" style="stop-color:#000000;stop-opacity:0" offset="1"/>
    </linearGradient>
    <linearGradient id="linearGradient3860">
      <stop id="stop3862" style="stop-color:#ac9393" offset="0"/>
      <stop id="stop3864" style="stop-color:#ac9393;stop-opacity:0" offset="1"/>
    </linearGradient>
    <linearGradient id="linearGradient3850">
      <stop id="stop3852" style="stop-color:#2b1100" offset="0"/>
      <stop id="stop3854" style="stop-color:#2b1100;stop-opacity:0" offset="1"/>
    </linearGradient>
    <linearGradient id="linearGradient3840">
      <stop id="stop3842" style="stop-color:#ffb380" offset="0"/>
      <stop id="stop3844" style="stop-color:#ffb380;stop-opacity:0" offset="1"/>
    </linearGradient>
    <linearGradient id="linearGradient3828">
      <stop id="stop3830" style="stop-color:#ffffff" offset="0"/>
      <stop id="stop3832" style="stop-color:#ffffff;stop-opacity:0" offset="1"/>
    </linearGradient>
    <linearGradient id="linearGradient4124">
      <stop id="stop4126" style="stop-color:#a0892c;stop-opacity:0.66" offset="0"/>
      <stop id="stop4128" style="stop-color:#a0892c;stop-opacity:0" offset="1"/>
    </linearGradient>
    <filter id="filter4028" color-interpolation-filters="sRGB">
      <feGaussianBlur id="feGaussianBlur4030" stdDeviation="0.61139092"/>
    </filter>
    <filter id="filter4032" color-interpolation-filters="sRGB">
      <feGaussianBlur id="feGaussianBlur4034" stdDeviation="0.61139092"/>
    </filter>
    <filter id="filter4075" color-interpolation-filters="sRGB">
      <feGaussianBlur id="feGaussianBlur4077" stdDeviation="1.4318231"/>
    </filter>
    <filter id="filter4102" color-interpolation-filters="sRGB">
      <feGaussianBlur id="feGaussianBlur4104" stdDeviation="1.0151726"/>
    </filter>
    <linearGradient id="linearGradient3893" y2="154.87" xlink:href="#linearGradient4124" gradientUnits="userSpaceOnUse" x2="450.65" y1="163.75" x1="465.22"/>
    <linearGradient id="linearGradient3895" y2="154.87" xlink:href="#linearGradient4124" gradientUnits="userSpaceOnUse" x2="450.65" gradientTransform="translate(-2.0443 .94687)" y1="163.75" x1="465.22"/>
    <linearGradient id="linearGradient3897" y2="171.99" xlink:href="#linearGradient3868" gradientUnits="userSpaceOnUse" x2="485.51" gradientTransform="translate(-37.21 -12.305)" y1="187.2" x1="511.49"/>
    <linearGradient id="linearGradient3899" y2="-191.35" xlink:href="#linearGradient3868" gradientUnits="userSpaceOnUse" x2="472.38" gradientTransform="matrix(.87696 .48056 -.48056 .87696 -1.3445 2.9132)" y1="-191.72" x1="487.51"/>
    <linearGradient id="linearGradient3901" y2="73.652" xlink:href="#linearGradient3828" gradientUnits="userSpaceOnUse" x2="504.26" gradientTransform="matrix(1 .084891 .22102 .82537 -16.416 -28.676)" y1="67.906" x1="495.8"/>
    <linearGradient id="linearGradient3903" y2="259.98" xlink:href="#linearGradient3840" gradientUnits="userSpaceOnUse" x2="402.91" gradientTransform="translate(.44818 -.11204)" y1="253.04" x1="393.28"/>
    <linearGradient id="linearGradient3905" y2="253.75" xlink:href="#linearGradient3850" gradientUnits="userSpaceOnUse" x2="394.87" y1="263.26" x1="405.96"/>
    <linearGradient id="linearGradient3907" y2="268.01" xlink:href="#linearGradient3860" gradientUnits="userSpaceOnUse" x2="387.9" y1="265.79" x1="385.05"/>
    <filter id="filter4051" color-interpolation-filters="sRGB">
      <feGaussianBlur id="feGaussianBlur4053" stdDeviation="0.85041892"/>
    </filter>
    <filter id="filter4367" height="1.2005" width="1.5222" color-interpolation-filters="sRGB" y="-.10026" x="-.26109">
      <feGaussianBlur id="feGaussianBlur4369" stdDeviation="2.3403281"/>
    </filter>
    <filter id="filter4377" height="1.7016" width="1.0248" color-interpolation-filters="sRGB" y="-.35082" x="-.012425">
      <feGaussianBlur id="feGaussianBlur4379" stdDeviation="0.3937608"/>
    </filter>
    <filter id="filter4387" color-interpolation-filters="sRGB">
      <feGaussianBlur id="feGaussianBlur4389" stdDeviation="1.7568601"/>
    </filter>
    <filter id="filter4449" height="1.2046" width="1.0845" color-interpolation-filters="sRGB" y="-.10228" x="-.042231">
      <feGaussianBlur id="feGaussianBlur4451" stdDeviation="10.772509"/>
    </filter>
  </defs>
  <g id="layer1" transform="translate(-26.699 -191.1)">
    <g id="g4453">
      <path id="path4391" style="opacity:0.33;filter:url(#filter4449);stroke:#000000;stroke-width:1px;fill:#000000" d="m637.31 444.63 17.03-0.89-141.62 248.29-286.84 0.89-183.74-38.66 165.81-214.11z" transform="matrix(.98231 0 0 1 11.575 0)"/>
      <path id="path4086" style="stroke-linejoin:round;stroke:#803300;stroke-linecap:round;stroke-width:0.932;fill:#2b1100" d="m233.5 688.44c0 2.9703-2.6085 5.3782-5.8263 5.3782s-5.8263-2.4079-5.8263-5.3782 2.6085-5.3781 5.8263-5.3781 5.8263 2.4079 5.8263 5.3781z" transform="matrix(.72067 0 0 .72067 204.81 -59.283)"/>
      <path id="rect4082" style="stroke-linejoin:round;stroke:#000000;stroke-linecap:round;stroke-width:2.6591;fill:#602600" d="m-183.37 325.57h281.2v287.74h-281.2z" transform="matrix(.48820 -.87273 .51536 .85698 0 0)"/>
      <path id="rect4080" style="stroke-linejoin:round;stroke:#000000;stroke-linecap:round;stroke-width:2.6557;fill:#602600" d="m624.43 506.07h280.15v288.09h-280.15z" transform="matrix(1 0 -.49756 .86743 0 0)"/>
      <path id="rect2985" style="stroke-linejoin:round;stroke:#000000;stroke-linecap:round;stroke-width:2.6557;fill:#602600" d="m620.69 507.1h280.56v283.95h-280.56z" transform="matrix(1 0 -.49756 .86743 0 0)"/>
      <path id="rect3755" style="stroke-linejoin:round;stroke:#000000;stroke-linecap:round;stroke-width:2.6591;fill:#602600" d="m-180.18 327.76h281.2v287.74h-281.2z" transform="matrix(.48820 -.87273 .51536 .85698 0 0)"/>
      <path id="rect3757" style="stroke:#f4eed7;fill:#ffffff" d="m636.12 521.04h235.26v229.03h-235.26z" transform="matrix(1 0 -.49486 .86897 0 0)"/>
      <path id="rect3759" style="stroke:#f4eed7;fill:#ffffff" d="m634.67 518.12h235.26v229.03h-235.26z" transform="matrix(1 0 -.49486 .86897 0 0)"/>
      <path id="rect3761" style="stroke:#f4eed7;fill:#ffffff" d="m632.87 514.47h235.26v229.03h-235.26z" transform="matrix(1 0 -.49486 .86897 0 0)"/>
      <path id="rect3763" style="stroke:#f4eed7;fill:#ffffff" d="m631.06 510.83h235.26v229.03h-235.26z" transform="matrix(1 0 -.49486 .86897 0 0)"/>
      <path id="path4061" style="opacity:.55;filter:url(#filter4075);stroke:#000000;stroke-width:1px;fill:#000000" d="m583.08 444.63h17.031l-108.46 196.3-0.37713 0.44818-40.184 12.178s-27.16 3.3209-45.712 5.6725c-27.564 3.4942-72.897 3.8102-86.981 1.9597-11.689-1.5359-63.868-7.9321-63.868-7.9321l24.143-20.807 198.64-5.4122z" transform="matrix(.99904 0 0 1 .24736 0)"/>
      <g id="g3876" transform="matrix(.60764 -.11339 .11339 .60764 -93.864 291.88)">
        <path id="path4112" style="stroke:#a0892c;stroke-width:1px;fill:#ffe680" d="m484.03 79.815-89.636 154.17-9.8599 26.891 3.5854 0.89635 4.4818 5.3782 21.513-17.927 96.807-173-1.7927-5.3781-5.3782-5.3781-8.0672-0.89636-6.2745 2.6891z"/>
        <path id="path4116" style="fill:url(#linearGradient3893)" d="m484.47 78.831-89.636 154.17-9.8599 26.891 3.5854 0.89635 4.4818 5.3782 21.513-17.927 96.807-173-1.7927-5.3781-5.3782-5.3781-8.0672-0.89636-6.2745 2.6891z"/>
        <path id="path4118" style="opacity:0.22;stroke:#a0892c;stroke-width:1px;fill:#d45500" d="m506.44 80.711-95.01 167.62-5.38-5.38 96.81-168.51z"/>
        <path id="path4120" style="opacity:0.22;stroke:#a0892c;stroke-width:1px;fill:#ff6600" d="m495.69 70.403-95.014 168.07-7.1709 1.3445 95.91-168.52z"/>
        <path id="path4122" style="fill:#483e37" d="m385.05 258.82h3.1691l1.9015 0.31691 1.9015 1.5846 1.9015 2.2184 0.31691 1.2676 0.31691 0.95073-16.479 16.479h-2.8522l-0.31691-1.2676 0.63382-1.9015z"/>
        <path id="path4132" style="fill:url(#linearGradient3895)" d="m482.43 79.778-89.636 154.17-9.8599 26.891 3.5854 0.89635 4.4818 5.3782 21.513-17.927 96.807-173-1.7927-5.3781h-5.1541l-6.7227-3.8095-6.4986 0.89636z"/>
        <path id="path4134" style="fill:url(#linearGradient3897)" d="m483.39 81.329-89.636 151.96-9.8599 26.504 3.5854 0.88346 4.4818 5.3008 21.513-17.669 96.807-170.51-1.7927-5.3008-5.3782-5.3008-8.0672-0.88347-6.2745 2.6504z"/>
        <path id="rect3035" style="fill:#ff8080" d="m514 46.708c4.2943 2.3532 5.6046 4.8728 5.517 10.679-0.06 3.9825-2.9728 8.9178-5.0538 13.194-2.9686 6.101-6.766 11.978-6.766 11.978s1.1526-7.2407-7.2549-11.168c-9.026-4.2157-15.732 4.4243-15.732 4.4243s6.6893-13.666 8.3215-16.645c1.58-2.8833 4.2165-10.1 6.5853-11.814 3.2644-2.3617 9.1788-3.5009 14.382-0.64938z"/>
        <path id="path3806" style="fill:url(#linearGradient3899)" d="m514.23 46.484c4.2943 2.3532 5.8286 4.8728 5.7411 10.679-0.06 3.9825-2.8673 8.0744-5.0538 12.298-7.4504 14.392-7.8864 14.219-7.8864 14.219s2.0489-8.5852-6.3586-12.512c-9.026-4.2157-13.491 2.4075-13.491 2.4075s4.4484-11.649 6.0806-14.628c1.58-2.8833 4.4406-9.8764 6.8094-11.59 3.2644-2.3617 8.9547-3.725 14.158-0.87347z"/>
        <path id="path3824" style="fill:#b3b3b3" d="m504.87 70.294c4.1822 3.1375 6.0439 7.0235 5.2929 8.4937l-1.0202 2.3822-1.2551 2.4296-0.86099 0.30511s1.0405-6.7925-7.367-10.719c-9.026-4.2157-15.283 4.5923-15.283 4.5923s-0.30884-0.59237-0.0391-1.2916c0.40774-1.0571 1.1134-2.7427 2.0861-4.5407 0.34754-0.64245 2.5064-1.8979 5.0727-3.2988 1.2476-0.68105 2.7921-1.5432 9.0043-0.42529 1.7815 0.3206 4.3697 2.0728 4.3697 2.0728z"/>
        <path id="path3826" style="fill:url(#linearGradient3901)" d="m503.99 72.201c4.8757 2.9446 7.5963 6.31 7.1702 7.4597l-0.49364 1.8796-0.71813 1.8988-0.79356 0.17874s0.49165-6.9746-8.7838-10.929c-9.9578-4.2458-15.221 3.9495-15.221 3.9495s-0.43977-0.51514-0.32458-1.0694c0.17409-0.83791 1.5732-2.7902 2.7072-3.7948 1.8302-1.6212 2.852-2.2007 4.9038-2.6843 2.4516-0.57783 7.4931-0.30839 9.3024 1.4218 1.3721 1.3121 2.2508 1.6896 2.2508 1.6896z"/>
        <path id="path3836" style="opacity:0.66;fill:#803300" d="m392.04 241.82s0.1956 1.5559 0.96538 0.92792c1.9128-1.5605 4.5966-2.7957 5.5332-1.585 1.1369 1.4695 1.3243 2.2271 3.7579 2.4689 0.61799 0.0614 1.8998-0.76027 2.5166-0.17853 0.84754 0.79943 0.91263 1.7202 3.6066 3.1877 2.8083 1.5299 0.36839 4.4674 1.0993 4.332 5.1541-0.95457 0 2.3486 0 2.3486l-14.678 12.49-2.6891-3.9926-4.0336-2.8183h-3.5854z"/>
        <path id="path3838" style="opacity:0.66;fill:url(#linearGradient3903)" d="m391.04 242.38s1.1204-0.4438 6.0504-1.7776c2.3902-0.64666 1.3352 2.1183 7.8431 2.9626 1.8794 0.24383 5.869 4.818 5.154 4.7186-1.1841-0.16458 1.4566 3.9172 1.4566 3.9172l-16.246 13.499-2.6891-3.9926-4.0336-2.8183h-3.5854z"/>
        <path id="path3848" style="opacity:0.66;fill:url(#linearGradient3905)" d="m391.04 242.38s1.1204-0.4438 6.0504-1.7776c2.3902-0.64666 1.3352 2.1183 7.8431 2.9626 1.8794 0.24383 5.869 4.818 5.154 4.7186-1.1841-0.16458 1.4566 3.9172 1.4566 3.9172l-16.246 13.499-2.6891-3.9926-4.0336-2.8183h-3.5854z"/>
        <path id="path3858" style="fill:url(#linearGradient3907)" d="m385.05 259.14h3.1691l1.9015 0.31691 1.9015 1.5846 1.9015 2.2184 0.31691 1.2676 0.31691 0.95073-16.479 16.479h-2.8522l-0.31691-1.2676 0.63382-1.9015z"/>
      </g>
      <path id="rect4088" style="opacity:.55;fill:#6c5353" d="m-167.41 336.54 200.53 0.26268 0.82771 28.554c0.33 5.6863 3.9671 12.603 4.4592 17.336l-4.1298 10.312-0.25164 19.944 2.269 190.82-203.19 2.2576z" transform="matrix(.48820 -.87273 .51536 .85698 0 0)"/>
      <path id="path4291" style="stroke:#4d4d4d;stroke-width:1px;fill:none" d="m188.88 261.35c-95.075 168.6-95.075 169.87-95.075 169.87l136.9 233.88 97.62-177.47"/>
      <path id="path4289" style="stroke:#4d4d4d;stroke-width:1px;fill:none" d="m192.05 265.16l-95.076 168.59 133.74 223.11 96.34-173.67"/>
      <path id="rect3765" style="stroke:#f4eed7;stroke-width:1.032;fill:#ffffff" d="m656.94 623.93h239.38v239.83s-79.391 1.5356-127.45-8.2434c-71.302-17.708-99.729-29.139-151.6-66.493 15.463-1.0596 29.893-17.684 33.774-37.238z" transform="matrix(.98996 -.14137 -.45755 .88918 0 0)"/>
      <path id="path3825" style="stroke:#000000;stroke-width:.77756px;fill:#808080" d="m441.93 450.49 2.0634-1.4787 2.2149-15.701 1.9015-1.887 76.985 0.58078 1.1992 0.009 0.80572 5.782-4.8056 0.93892 0.76103-4.6019 3.2078-2.1339-3.3622 2.0975-1.7085 16.157-1.936 1.0328z"/>
      <path id="path4371" style="filter:url(#filter4377);fill:#cccccc" d="m447.79 434.07 0.63382-1.2676 1.1092-0.31691 74.315 0.15845-1.4261 1.2676-0.47536 1.2676z" transform="matrix(.98148 0 0 2.074 7.6682 -464.49)"/>
      <g id="g4056" transform="matrix(1 0 -.43021 1 186.33 67.675)">
        <path id="path4036" style="stroke-linejoin:round;stroke:#000000;stroke-linecap:round;stroke-width:2.7;fill:none" d="m442.42 362.89c2.1993 12.497 5.795 24.964 7.7107 35.406-1.3935 0.43896-2.9817 1.3332-3.9859 2.375-1.7903 2.3357-2.5145 4.5257-2.3685 7.572 0.43934 1.9748 0.69924 3.0844 1.7726 4.8257 0.83945 1.2704 1.8699 1.928 3.6798 2.9803 2.1458 0.84922 3.7453 0.84407 5.554 0.89441 1.1632-0.005 1.887-0.0525 3.0433-0.1558 1.4474-0.29215 2.9011-0.52989 4.1518-1.2958 1.4053-0.84396 2.5859-1.8768 3.7288-3.0508 0.7691-0.85813 1.6538-2.376 1.9914-3.5023 0.51472-1.5115 0.33933-3.1642-0.0326-4.6882-0.53056-1.6446-1.1648-2.2585-2.0625-3.7416-1.1832-1.0539-2.2353-1.6954-3.7919-2.4043l0.0549-0.0739c2.9203-12.662 5.2437-25.21 7.8836-35.277"/>
        <path id="path3886" style="stroke-linejoin:round;filter:url(#filter4028);stroke:#ffffff;stroke-linecap:round;stroke-width:2;fill:none" d="m442.87 363.34c2.1993 12.497 5.795 24.964 7.7107 35.406-1.3935 0.43896-2.9817 1.3332-3.9859 2.375-1.7903 2.3357-2.5145 4.5257-2.3685 7.572 0.43934 1.9748 0.69924 3.0844 1.7726 4.8257 0.83945 1.2704 1.8699 1.928 3.6798 2.9803 2.1458 0.84922 3.7453 0.84407 5.554 0.89441 1.1632-0.005 1.887-0.0525 3.0433-0.1558 1.4474-0.29215 2.9011-0.52989 4.1518-1.2958 1.4053-0.84396 2.5859-1.8768 3.7288-3.0508 0.7691-0.85813 1.6538-2.376 1.9914-3.5023 0.51472-1.5115 0.33933-3.1642-0.0326-4.6882-0.53056-1.6446-1.1648-2.2585-2.0625-3.7416-1.1832-1.0539-2.2353-1.6954-3.7919-2.4043l0.0549-0.0739c2.8199-12.227 5.0832-24.346 7.6123-34.229 0.0901-0.35199 0.65586-0.70115 0.27128-1.0474"/>
        <path id="path3884" style="opacity:0.66;stroke-linejoin:round;filter:url(#filter4032);stroke:#000000;stroke-linecap:round;stroke-width:2;fill:none" d="m440.63 363.57c2.1993 12.497 5.795 24.964 7.7107 35.406-1.3935 0.43896-2.9817 1.3332-3.9859 2.375-1.7903 2.3357-2.5145 4.5257-2.3685 7.572 0.43934 1.9748 0.69924 3.0844 1.7726 4.8257 0.83945 1.2704 1.8699 1.928 3.6798 2.9803 2.1458 0.84922 3.7453 0.84407 5.554 0.89441 1.1632-0.005 1.887-0.0525 3.0433-0.1558 1.4474-0.29215 2.9011-0.52989 4.1518-1.2958 1.4053-0.84396 2.5859-1.8768 3.7288-3.0508 0.7691-0.85813 1.6538-2.376 1.9914-3.5023 0.51472-1.5115 0.33933-3.1642-0.0326-4.6882-0.53056-1.6446-1.1648-2.2585-2.0625-3.7416-1.1832-1.0539-2.2353-1.6954-3.7919-2.4043l0.0549-0.0739c2.9203-12.662 5.2437-25.21 7.8836-35.277"/>
      </g>
      <path id="path4084" style="stroke-linejoin:round;stroke:#803300;stroke-linecap:round;stroke-width:0.932;fill:#2b1100" d="m233.5 688.44c0 2.9703-2.6085 5.3782-5.8263 5.3782s-5.8263-2.4079-5.8263-5.3782 2.6085-5.3781 5.8263-5.3781 5.8263 2.4079 5.8263 5.3781z" transform="matrix(.72067 0 0 .72067 64.529 190.35)"/>
      <g id="g4106" transform="matrix(.97973 .20033 -.20033 .97973 -151.27 15.536)">
        <path id="rect4090" style="opacity:.55;fill:#d3bc5f" d="m468.38 215.48 76.206 122.26-24.289 57.275-80.688-123.16z"/>
        <path id="path4095" style="filter:url(#filter4102);fill:#000000" d="m469.46 221.43-2.5906 30.353 51.504 86.155 25.403 1.6005z" transform="matrix(1.0055 0 0 1 -2.966 0)"/>
        <path id="path4093" style="stroke:#e9ddaf;stroke-width:1px;fill:#f4eed7" d="m468.13 215.6-3.2592 33.938 55.962 89.292 23.842-0.19224z"/>
      </g>
      <path id="path4005" style="opacity:0.77;filter:url(#filter4051);stroke:#000000;stroke-linecap:round;stroke-width:4;fill:none" d="m559.53 458.11-92.997 100.62-19.755 17.126 15.498-18.919"/>
      <g id="g3957" transform="matrix(.60173 .14141 -.14141 .60173 255.18 347.36)">
        <path id="path3959" style="stroke:#a0892c;stroke-width:1px;fill:#ffe680" d="m484.03 79.815-89.636 154.17-9.8599 26.891 3.5854 0.89635 4.4818 5.3782 21.513-17.927 96.807-173-1.7927-5.3781-5.3782-5.3781-8.0672-0.89636-6.2745 2.6891z"/>
        <path id="path3961" style="fill:url(#linearGradient3893)" d="m484.47 78.831-89.636 154.17-9.8599 26.891 3.5854 0.89635 4.4818 5.3782 21.513-17.927 96.807-173-1.7927-5.3781-5.3782-5.3781-8.0672-0.89636-6.2745 2.6891z"/>
        <path id="path3963" style="opacity:0.22;stroke:#a0892c;stroke-width:1px;fill:#d45500" d="m506.44 80.711-95.01 167.62-5.38-5.38 96.81-168.51z"/>
        <path id="path3965" style="opacity:0.22;stroke:#a0892c;stroke-width:1px;fill:#ff6600" d="m495.69 70.403-95.014 168.07-7.1709 1.3445 95.91-168.52z"/>
        <path id="path3967" style="fill:#483e37" d="m385.05 258.82h3.1691l1.9015 0.31691 1.9015 1.5846 1.9015 2.2184 0.31691 1.2676 0.31691 0.95073-16.479 16.479h-2.8522l-0.31691-1.2676 0.63382-1.9015z"/>
        <path id="path3969" style="fill:url(#linearGradient3895)" d="m482.43 79.778-89.636 154.17-9.8599 26.891 3.5854 0.89635 4.4818 5.3782 21.513-17.927 96.807-173-1.7927-5.3781h-5.1541l-6.7227-3.8095-6.4986 0.89636z"/>
        <path id="path3971" style="fill:url(#linearGradient3897)" d="m483.39 81.329-89.636 151.96-9.8599 26.504 3.5854 0.88346 4.4818 5.3008 21.513-17.669 96.807-170.51-1.7927-5.3008-5.3782-5.3008-8.0672-0.88347-6.2745 2.6504z"/>
        <path id="path3973" style="fill:#ff8080" d="m514 46.708c4.2943 2.3532 5.6046 4.8728 5.517 10.679-0.06 3.9825-2.9728 8.9178-5.0538 13.194-2.9686 6.101-6.766 11.978-6.766 11.978s1.1526-7.2407-7.2549-11.168c-9.026-4.2157-15.732 4.4243-15.732 4.4243s6.6893-13.666 8.3215-16.645c1.58-2.8833 4.2165-10.1 6.5853-11.814 3.2644-2.3617 9.1788-3.5009 14.382-0.64938z"/>
        <path id="path3975" style="fill:url(#linearGradient3899)" d="m514.23 46.484c4.2943 2.3532 5.8286 4.8728 5.7411 10.679-0.06 3.9825-2.8673 8.0744-5.0538 12.298-7.4504 14.392-7.8864 14.219-7.8864 14.219s2.0489-8.5852-6.3586-12.512c-9.026-4.2157-13.491 2.4075-13.491 2.4075s4.4484-11.649 6.0806-14.628c1.58-2.8833 4.4406-9.8764 6.8094-11.59 3.2644-2.3617 8.9547-3.725 14.158-0.87347z"/>
        <path id="path3977" style="fill:#b3b3b3" d="m504.87 70.294c4.1822 3.1375 6.0439 7.0235 5.2929 8.4937l-1.0202 2.3822-1.2551 2.4296-0.86099 0.30511s1.0405-6.7925-7.367-10.719c-9.026-4.2157-15.283 4.5923-15.283 4.5923s-0.30884-0.59237-0.0391-1.2916c0.40774-1.0571 1.1134-2.7427 2.0861-4.5407 0.34754-0.64245 2.5064-1.8979 5.0727-3.2988 1.2476-0.68105 2.7921-1.5432 9.0043-0.42529 1.7815 0.3206 4.3697 2.0728 4.3697 2.0728z"/>
        <path id="path3979" style="fill:url(#linearGradient3901)" d="m503.99 72.201c4.8757 2.9446 7.5963 6.31 7.1702 7.4597l-0.49364 1.8796-0.71813 1.8988-0.79356 0.17874s0.49165-6.9746-8.7838-10.929c-9.9578-4.2458-15.221 3.9495-15.221 3.9495s-0.43977-0.51514-0.32458-1.0694c0.17409-0.83791 1.5732-2.7902 2.7072-3.7948 1.8302-1.6212 2.852-2.2007 4.9038-2.6843 2.4516-0.57783 7.4931-0.30839 9.3024 1.4218 1.3721 1.3121 2.2508 1.6896 2.2508 1.6896z"/>
        <path id="path3981" style="opacity:0.66;fill:#803300" d="m392.04 241.82s0.1956 1.5559 0.96538 0.92792c1.9128-1.5605 4.5966-2.7957 5.5332-1.585 1.1369 1.4695 1.3243 2.2271 3.7579 2.4689 0.61799 0.0614 1.8998-0.76027 2.5166-0.17853 0.84754 0.79943 0.91263 1.7202 3.6066 3.1877 2.8083 1.5299 0.36839 4.4674 1.0993 4.332 5.1541-0.95457 0 2.3486 0 2.3486l-14.678 12.49-2.6891-3.9926-4.0336-2.8183h-3.5854z"/>
        <path id="path3983" style="opacity:0.66;fill:url(#linearGradient3903)" d="m391.04 242.38s1.1204-0.4438 6.0504-1.7776c2.3902-0.64666 1.3352 2.1183 7.8431 2.9626 1.8794 0.24383 5.869 4.818 5.154 4.7186-1.1841-0.16458 1.4566 3.9172 1.4566 3.9172l-16.246 13.499-2.6891-3.9926-4.0336-2.8183h-3.5854z"/>
        <path id="path3985" style="opacity:0.66;fill:url(#linearGradient3905)" d="m391.04 242.38s1.1204-0.4438 6.0504-1.7776c2.3902-0.64666 1.3352 2.1183 7.8431 2.9626 1.8794 0.24383 5.869 4.818 5.154 4.7186-1.1841-0.16458 1.4566 3.9172 1.4566 3.9172l-16.246 13.499-2.6891-3.9926-4.0336-2.8183h-3.5854z"/>
        <path id="path3987" style="fill:url(#linearGradient3907)" d="m385.05 259.14h3.1691l1.9015 0.31691 1.9015 1.5846 1.9015 2.2184 0.31691 1.2676 0.31691 0.95073-16.479 16.479h-2.8522l-0.31691-1.2676 0.63382-1.9015z"/>
      </g>
      <path id="path4202" style="stroke:#b3b3b3;stroke-width:1px;fill:none" d="m394.57 494.83c-44.351 69.02-36.52 77.087-36.52 77.087l54.63 15.238 43.219-77.983z"/>
      <path id="path4204" style="stroke:#b3b3b3;stroke-width:1px;fill:none" d="m380.79 516.34l18.493 4.4818 6.5877-9.4118"/>
      <path id="path4206" style="stroke:#b3b3b3;stroke-width:1px;fill:none" d="m433.25 549.39c-26.207-8.9038-21.468-8.9723-20.905-8.8515 2.9412-7.4696 12.972-23.405 8.8236-22.409"/>
      <path id="path4208" style="stroke:#b3b3b3;stroke-width:1px;fill:none" d="m370.54 535.84c5.77 2.7638 8.5841 5.5275 19.489 8.2913 3.2193-6.0823 6.4468-12.528 7.4551-16.919"/>
      <path id="path4210" style="stroke:#b3b3b3;stroke-width:1px;fill:none" d="m408.26 506.59c-1.31-1.9899 2.5636-4.7806 3.8454-7.1708"/>
      <path id="path4212" style="stroke:#b3b3b3;stroke-width:1px;fill:none" d="m424.08 511.52 5.2077-8.6274"/>
      <path id="path4214" style="stroke:#b3b3b3;stroke-width:1px;fill:none" d="m428.37 557.57c-7.7607-2.6374-15.471-5.953-23.122-10.084-2.3488 3.8586-6.4474 8.221-4.9779 10.98-28.417-12.153-26.798-10.366-34.456-12.885"/>
      <path id="path4216" style="stroke:#b3b3b3;stroke-width:1px;fill:none" d="m383.09 578.41c2.1724-5.453 4.3428-15.253 7.3902-17.255"/>
      <path id="path4218" style="stroke:#b3b3b3;stroke-width:1px;fill:none" d="m350.87 571.91-10.85-3.5854"/>
      <path id="path4220" style="stroke:#b3b3b3;stroke-width:1px;fill:none" d="m388.52 492.92-12.348-3.0252"/>
      <path id="path4222" style="stroke:#b3b3b3;stroke-width:1px;fill:none" d="m345.04 569.34 6.2167-17.143"/>
      <path id="path4224" style="stroke:#b3b3b3;stroke-width:1px;fill:none" d="m381.99 491.58-7.148 11.541"/>
      <path id="path4226" style="stroke:#b3b3b3;stroke-width:1px;fill:none" d="m355.45 575.5-2.4538 8.9636"/>
      <path id="path4228" style="stroke:#b3b3b3;stroke-width:1px;fill:none" d="m412.34 591.63-3.8689 6.2745"/>
      <path id="path4230" style="stroke:#b3b3b3;stroke-width:1px;fill:none" d="m354.65 579.09 17.644 6.2745"/>
      <path id="path4232" style="stroke:#b3b3b3;stroke-width:1px;fill:none" d="m408.81 593.43-14.436-3.5854"/>
      <path id="path4234" style="stroke:#b3b3b3;stroke-width:1px;fill:none" d="m378.26 492.59 3.9452-1.2325 1.2559 3.0252"/>
      <path id="path4236" style="stroke:#b3b3b3;stroke-width:1px;fill:none" d="m342.75 565.42 2.0696 4.1457 4.6647-1.5686"/>
      <path id="path4238" style="stroke:#b3b3b3;stroke-width:1px;fill:none" d="m358.26 582.33-3.0427-2.8011 3.7329-0.78431"/>
      <path id="path4240" style="stroke:#b3b3b3;stroke-width:1px;fill:none" d="m406.4 591.41 3.8211 2.577-4.529 0.33613"/>
      <path id="path4242" style="stroke:#b3b3b3;stroke-width:1px;fill:none" d="m353.66 532.92c1.2924-0.11452 0.4027 0.85112 0.81372 1.1204 0.0806 0.0528 0.14348-0.0528 0.22408 0 0.16123 0.10564 0.0746 0.34254 0.23585 0.44818 0.0806 0.0528 0.1435-0.0528 0.22409 0 0.0699 0.0458 0.26263 0.58342 0.35378 0.67227 0.097 0.0945 0.24506 0.1296 0.34202 0.22409 0.13712 0.13362 0.0746 0.34254 0.23586 0.44818 0.0806 0.0528 0.14348-0.0528 0.22409 0 0.0806 0.0528 0.0373 0.17127 0.11792 0.22409 0.45602 0.29878 0.0275-0.37349 0.34202 0.22409 0.0556 0.10565 0.57409 1.1103 0.58963 1.1204 0.0806 0.0528 0.14939 0 0.22409 0"/>
      <path id="path4244" style="stroke:#b3b3b3;stroke-width:1px;fill:none" d="m354.51 531.13c0.38133 0.29879 0.78329 0.5761 1.144 0.89636 0.14431 0.1281 0.0746 0.34254 0.23586 0.44818 0.0806 0.0528 0.14348-0.0528 0.22409 0 0.171 0.11204 0.18276 0.56022 0.35378 0.67227 0.0806 0.0528 0.14348-0.0528 0.22409 0 0.11401 0.0747 0.12186 0.37351 0.23585 0.44817 0.0806 0.0528 0.14939 0 0.22409 0 0.0823 0 0.89207 0.009 0.89635 0 0.025-0.0528-0.14293-0.17127-0.11793-0.22408 0.025-0.0528 0.1494 0 0.22409 0h0.22409 2.465 0.22409c0.0747 0 0.14349-0.0528 0.22409 0 0.0137 0.009 0.4284 0.81406 0.47171 0.89635 0.0556 0.10566 0.59448 1.1103 0.58963 1.1204-0.025 0.0528-0.17486-0.0334-0.22409 0-0.3521 0.74321 0.15569-0.10564-0.33024 0.22409-0.16158 0.10964-0.0507 0.33854-0.21233 0.44818-0.0492 0.0334-0.19905-0.0528-0.22409 0-0.025 0.0528 0.14293 0.17127 0.11793 0.22409-0.025 0.0528-0.19906-0.0528-0.22409 0-0.025 0.0528 0.14293 0.17127 0.11793 0.22409-0.0217 0.0458-0.60679-0.0444-0.67227 0-0.0697 0.0472-0.00053 0.22408-0.10617 0.22408-0.0747 0-0.0786-0.14939-0.11792-0.22408"/>
      <path id="path4246" style="stroke:#b3b3b3;stroke-width:1px;fill:none" d="m356.2 531.35c-0.19654-0.37348-0.39308-0.74696-0.58963-1.1204-0.0393-0.0747-0.14293-0.17127-0.11792-0.22408 0.025-0.0528 0.19905 0.0528 0.22409 0 0.0354-0.0747-0.27127-0.37352-0.23586-0.44818 0.025-0.0528 0.19906 0.0528 0.22408 0 0.025-0.0528-0.14293-0.17127-0.11793-0.22409 0.025-0.0528 0.19907 0.0528 0.22409 0 0.05-0.10564-0.28589-0.34254-0.23585-0.44818 0.025-0.0528 0.19906 0.0528 0.22409 0 0.025-0.0528-0.14293-0.17127-0.11793-0.22409 0.025-0.0528 0.17486 0.0334 0.22409 0 0.20405-0.13845 0.11024-0.21635-0.0118-0.44818"/>
      <path id="path4250" style="stroke:#b3b3b3;stroke-width:1px;fill:none" d="m359.82 528.44 0.79019 0.22409z"/>
      <path id="path4252" style="stroke:#b3b3b3;stroke-width:1px;fill:none" d="m359.9 523.06c-0.0537 0.0155-0.95437 0.0866-0.8846 0.44818 0.0233 0.12047 0.37187 0.70663 0.47171 0.89635 0.0836 0.15884 0.64807 1.2866 0.70756 1.3445 0.27597 0.26891 0.75009 0.40336 1.026 0.67227 0.0686 0.0668 0.0373 0.17127 0.11793 0.22409 0.0806 0.0528 0.14348-0.0528 0.22409 0 0.70764 0.46364-0.71805-0.0181 0.45993 0.44817 0.0844 0.0334 0.14939 0 0.22409 0h0.22409 1.3445c0.0747 0 0.19907 0.0528 0.22409 0 0.025-0.0528-0.14293-0.17127-0.11792-0.22408 0.05-0.10564 0.39814 0.10563 0.44818 0 0.025-0.0528-0.14293-0.17128-0.11792-0.22409 0.025-0.0528 0.17485 0.0334 0.22409 0 0.0697-0.0472 0.0365-0.17685 0.10616-0.22409 0.0985-0.0668 0.39813 0.10563 0.44818 0 0.05-0.10564-0.2859-0.34254-0.23585-0.44818 0.025-0.0528 0.19905 0.0528 0.22409 0 0.025-0.0528-0.0786-0.14939-0.11793-0.22409-0.31447-0.59757-0.62894-1.1951-0.94342-1.7927-0.0393-0.0747-0.0786-0.14939-0.11792-0.22408-0.0393-0.0747-0.0373-0.17128-0.11793-0.22409-0.0699-0.0458-0.56005 0.0444-0.67227 0-1.1343-0.74321 0.26686 0.10563-0.5661-0.22409-0.2387-0.0945-0.44535-0.3537-0.68404-0.44818-0.16877-0.0668-0.28695 0.10563-0.44817 0-0.0806-0.0528-0.0373-0.17127-0.11792-0.22409-0.0806-0.0528-0.1494 0-0.22409 0-0.62635 0-0.16932-0.0277-1.1087 0.44818z"/>
      <path id="path4254" style="stroke:#b3b3b3;stroke-width:1px;fill:none" d="m361.25 518.81c0.47171 0.89636 0.94342 1.7927 1.4151 2.6891 0.0286 0.0543 0.34299 0.66506 0.35378 0.67227 0.16124 0.10564 0.28695-0.10564 0.44818 0 0.0806 0.0528 0.0373 0.17127 0.11793 0.22409 0.0806 0.0528 0.1397-0.0334 0.22409 0 0.11934 0.0472 0.22267 0.17685 0.34202 0.22409 0.0386 0.0153 1.322 0.0153 1.3445 0 0.0438-0.0298 0.32005-0.61277 0.31849-0.67227-0.002-0.0668-0.14294-0.17127-0.11793-0.22409 0.025-0.0528 0.17486 0.0334 0.22409 0 0.68722-0.4663-0.2314 0.0155-0.0118-0.44818 0.025-0.0528 0.19906 0.0528 0.22409 0 0.004-0.009-0.42839-0.81406-0.4717-0.89635-0.0433-0.0823-0.45796-0.88734-0.47171-0.89636-0.0806-0.0528-0.14348 0.0528-0.22409 0-0.0806-0.0528-0.0373-0.17127-0.11792-0.22409-0.0806-0.0528-0.14349 0.0528-0.22409 0-0.70765-0.46365 0.71804 0.0181-0.45995-0.44818-0.0844-0.0334-0.14348 0.0528-0.22409 0-0.0806-0.0528-0.0373-0.17127-0.11792-0.22409-0.0806-0.0528-0.14939 0-0.22409 0h-0.22409c-0.31512 0-0.85344-0.0488-1.1204 0-0.34276 0.0626-0.66836 0.14939-1.0025 0.22409z"/>
      <path id="path4256" style="stroke:#b3b3b3;stroke-width:1px;fill:none" d="m374.43 585.58c-1.6765-1.3759 1.0294-0.75374 1.0969-0.89636 0.025-0.0528-0.14293-0.17127-0.11792-0.22408 0.025-0.0528 0.17485 0.0334 0.22409 0 0.0696-0.0473 0.0365-0.17685 0.10616-0.22409 0.0492-0.0334 0.14939 0 0.22409 0s0.14348-0.0528 0.22409 0c0.16123 0.10563 0.0746 0.34254 0.23585 0.44817 0.0806 0.0528 0.1397-0.0334 0.22409 0 0.62584 0.24774 0.14269 0.13908 0.45994 0.44818 0.0969 0.0945 0.24506 0.12961 0.34202 0.22409 0.0911 0.0888 0.28387 0.62646 0.35378 0.67227 0.0806 0.0528 0.14348-0.0528 0.22409 0 0.0806 0.0528 0.0373 0.17127 0.11793 0.22409 0.45601 0.29879 0.0275-0.37348 0.34201 0.22409 0.0393 0.0747 0.0786 0.14939 0.11793 0.22409 0.0393 0.0747 0.14293 0.17127 0.11793 0.22409-0.025 0.0528-0.18478 0.0747-0.22409 0-0.0393-0.0747 0.29878 0 0.22409 0h-0.89636c-0.0747 0-0.19906-0.0528-0.22409 0-0.025 0.0528 0.11616 0.15728 0.11792 0.22409 0.003 0.0945-0.0708 0.14939-0.10616 0.22409-0.0354 0.0747-0.16176 0.11845-0.10616 0.22409 0.0786 0.14939 0.28694-0.10564 0.44818 0 0.0806 0.0528 0.0373 0.17127 0.11792 0.22408 0.16123 0.10564 0.28695-0.10563 0.44818 0 0.0806 0.0528 0.0494 0.15728 0.11793 0.22409 0.0969 0.0945 0.24505 0.12961 0.34201 0.22409 0.0686 0.0668 0.0786 0.1494 0.11793 0.22409 0.0393 0.0747 0.0786 0.1494 0.11793 0.22409 0.0617 0.11718 0.4702 0.83744 0.4717 0.89636 0.003 0.0945-0.0365 0.17685-0.10616 0.22409-0.0434 0.0295-0.77918 0-0.89636 0-0.0747 0-0.14348 0.0528-0.22409 0-0.0806-0.0528-0.0373-0.17127-0.11793-0.22409-0.171-0.11205-0.50125 0.11204-0.67227 0-0.0806-0.0528-0.0373-0.17127-0.11792-0.22409-0.0806-0.0528-0.14349 0.0528-0.22408 0-0.0806-0.0528-0.0373-0.17127-0.11793-0.22409-0.17101-0.11204-0.50126 0.11205-0.67227 0-0.16123-0.10564-0.0746-0.34254-0.23585-0.44818-0.0823-0.0539-0.81408 0.0539-0.89636 0-0.0806-0.0528-0.0373-0.17127-0.11793-0.22409-0.0806-0.0528-0.14939 0-0.22409 0h-0.22409"/>
      <path id="path4258" style="stroke:#b3b3b3;stroke-width:1px;fill:none" d="m382.01 588.5 0.33025-0.22409"/>
      <path id="path4260" style="stroke:#b3b3b3;stroke-width:1px;fill:none" d="m386.69 587.6c-2.2334 0-0.36091-0.21128-1.0025 0.22408-0.22777 0.15455-0.34326-0.27138-0.33025 0.22409 0.004 0.14085 0.46799 0.75552 0.4717 0.89636 0.003 0.0945-0.10864 0.12961-0.10616 0.22409 0.002 0.0668 0.14293 0.17127 0.11793 0.22409-0.025 0.0528-0.19906-0.0528-0.22409 0-0.004 0.009 0.4284 0.81406 0.47171 0.89636 0.0393 0.0747 0.11616 0.15728 0.11792 0.22409 0.001 0.0583-0.2556 0.273 0.0118 0.44818 0.0137 0.009 0.81406 0 0.89636 0 0.10092 0 0.62201 0.0341 0.67227 0 0.0697-0.0472 0.0708-0.1494 0.10615-0.22409 0.0354-0.0747 0.10864-0.12961 0.10616-0.22409-0.002-0.0668-0.11617-0.15728-0.11792-0.22409-0.003-0.0945 0.10864-0.12961 0.10616-0.22409-0.002-0.0682-0.30067-0.57135-0.35378-0.67227-0.31447-0.59757-0.62894-1.1951-0.94341-1.7927z"/>
      <path id="path4262" style="stroke:#b3b3b3;stroke-width:1px;fill:none" d="m390.21 589.17c-0.38629 0-1.0139-0.21127-1.0025 0.22409 0.002 0.081 0.50761 0.96458 0.58963 1.1204 0.47171 0.89635 0.94341 1.7927 1.4151 2.6891 0.0286 0.0543 0.34299 0.66506 0.35378 0.67227 0.0806 0.0528 0.17486 0.0334 0.22409 0 0.0882-0.0598 0.26259-0.5543 0.31849-0.67227 0.0354-0.0747 0.0708-0.14939 0.10615-0.22409 0.0354-0.0747 0.10865-0.12961 0.10617-0.22409-0.002-0.0668-0.14293-0.17127-0.11793-0.22409 0.025-0.0528 0.19906 0.0528 0.22409 0 0.025-0.0528-0.14293-0.17127-0.11793-0.22409 0.025-0.0528 0.19906 0.0528 0.22409 0 0.003-0.007-0.32518-0.61792-0.35378-0.67227-0.0836-0.15883-0.64806-1.2866-0.70755-1.3445-0.39979-0.38957-0.84128-0.74697-1.2619-1.1204z"/>
      <path id="path4264" style="stroke:#999999;stroke-width:.76936px;fill:none" d="m448.74 592.89c1.8744 1.7953 1.771 2.4529 3.969 2.5705 0.6845 0.0366 1.2829-0.30383 1.9791-0.1561 0.49224 0.10445 0.88199 0.57122 1.323 0.85684 0.8802 0.0908 1.768 0.22561 2.6406 0.27229 0.34224 0.0183 0.64429-0.11366 0.98953-0.078 0.54587 0.0563 1.1295 0.39149 1.651 0.35035 0.23325-0.0184 0.0948-0.48808 0.32803-0.50648 0.23324-0.0184 0.58291 0.20807 0.6615 0.42842 0.23 0.64479-1.1026 0.63015-1.3176 0.58455-0.24615-0.0522-0.41738-0.40325-0.6615-0.42842-0.69047-0.0712-1.2946 0.19274-1.9791 0.15611-0.54113-0.029-1.1052-0.29406-1.651-0.35035-0.34524-0.0356-0.64145 0.15192-0.98953 0.0781-0.7783-0.16516-1.5367-0.55777-2.3125-0.77879-0.54859-0.15629-1.158-0.031-1.651-0.35036-1.1243-0.72818-1.7532-2.6178-2.9795-2.6486-1.2024-0.0302-1.3203 1.5646-1.6401 2.5324-0.064 0.19355 0.55217 0.59726 0.66151 0.42843 0.55753-0.86085-0.26433-3.3794 0.97862-2.9608 1.8564 0.62519 2.1432 3.2184 3.6464 4.5184 0.81384 0.70384 1.9737 0.84326 2.974 1.2072 1.5345 0.55828 3.1107 0.91759 4.6251 1.5576 1.6931 0.71551 3.3057 1.6617 4.9585 2.4925 1.8715 0.49316 3.7647 0.81813 5.6146 1.4795 1.4775 0.52825 2.8345 1.4704 4.297 2.0641 3.1241 1.2681 5.4692 1.7384 8.5886 2.6867 0.49019 0.14902 3.2082 1.1887 3.9636 1.1292 0.23323-0.0184-0.441-0.28561-0.66151-0.42842-0.22049-0.14281-0.41774-0.34633-0.66149-0.42842-0.54508-0.18357-1.1024-0.19408-1.651-0.35037-3.592-1.0233-1.4513-1.0002-5.9426-0.97303-1.0122 0.006-1.9294 0.36834-2.9686 0.23417-1.319-0.17029-2.6382-0.84788-3.9636-1.1291-1.4351-0.30455-2.861-0.41512-4.2916-0.62267-1.4305-0.20756-2.9041-0.64425-4.2916-0.62267-1.1897 0.0185-2.1069 0.72216-3.2966 0.74066-8.2152 0.12774-1.1631-0.61201-6.6041-1.4015-0.6939-0.10068-1.2946 0.19274-1.979 0.15613-1.0823-0.0579-2.259-0.78302-3.3021-0.70074-0.23322 0.0184-0.0948 0.48809-0.32802 0.50649-0.23323 0.0184-0.42826-0.44682-0.66151-0.42842-0.23323 0.0184-0.0948 0.48809-0.32802 0.50648-0.23323 0.0184-0.77084-0.25959-0.6615-0.42842 0.10935-0.16883 0.41541 0.37615 0.6615 0.42842 0.34807 0.0739 0.64429-0.11366 0.98953-0.0781 1.6376 0.16888 3.3049 0.78122 4.9531 1.0511 1.1248 0.18417 5.5627 0.5224 6.2706 0.46655 1.1662-0.092 2.1069-0.72217 3.2966-0.74066 5.2278-0.0813 2.9799 0.98013 7.5937 1.3234 1.0309 0.0767 1.9329-0.34098 2.9686-0.23417 1.1745 0.12111 2.8765 1.3579 3.3021 0.70072 0.10934-0.16883-0.441-0.28562-0.6615-0.42843-0.2205-0.1428-0.42828-0.44681-0.6615-0.42842-0.52154 0.0411-0.77643 0.61351-1.3176 0.58455-0.76528-0.041-1.5406-0.69918-2.3125-0.77879-1.0357-0.1068-1.979 0.15612-2.9686 0.23418-1.1007-0.23358-2.2067-0.55931-3.3021-0.70073-11.942-1.5418 6.2325 1.4555-8.2497-0.31043-1.6417-0.20019-3.3073-0.81231-4.9531-1.0511-1.2267-0.17798-2.4054-0.0361-3.6301-0.19425-1.0954-0.14141-2.2033-0.52081-3.3021-0.70072-0.88587-0.14506-1.756-0.14396-2.6406-0.27231-0.14863-0.0216-3.2666-0.70352-3.3021-0.70072-0.23323 0.0184 0.41535 0.37623 0.6615 0.42842 0.34808 0.0739 0.65969-0.052 0.98954-0.078 1.6011-0.12632 3.2205-0.73468 3.2966-0.74067 0.52152-0.0412 1.1295 0.39151 1.651 0.35036 1.1662-0.092 2.1304-0.64867 3.2966-0.74067 0.84095-0.0663 1.7735 0.2505 2.6406 0.27231 4.5716 0.11497-0.85701-0.41301 4.2861-0.81872 0.84095-0.0663 1.7996 0.33864 2.6406 0.27229 0.52153-0.0411 0.79603-0.54339 1.3176-0.58453 0.52153-0.0412 1.1295 0.3915 1.651 0.35036 0.23323-0.0184-0.441-0.28562-0.6615-0.42843-0.92794-0.60098-0.9221-0.70443-2.3125-0.77878-1.369-0.0733-2.5891 0.38549-3.9581 0.31224-0.54114-0.029-1.1024-0.27077-1.651-0.35037-0.88456-0.12834-1.7532-0.084-2.6406-0.27231-0.24615-0.0522-0.41738-0.40324-0.66149-0.42841-0.69048-0.0712-1.2946 0.19274-1.9791 0.15611-0.54114-0.029-1.6492 0.13011-1.651-0.35036-0.005-1.323 2.0086 0.80276 2.3125 0.77878 0.52153-0.0411 0.77981-0.59807 1.3176-0.58453 1.0755 0.027 2.2103 0.58814 3.302 0.70072 0.69047 0.0712 1.2886-0.22733 1.9791-0.15612 1.0917 0.11259 2.2154 0.61988 3.3021 0.70073 1.0309 0.0767 1.979-0.15613 2.9686-0.23418 0.65968-0.052 1.3194-0.10408 1.979-0.15612 0.98954-0.0781 1.9483-0.25984 2.9686-0.23418 6.5674 0.16517-4.2087 0.81261 3.6301 0.19425 0.74323-0.0586 2.0487-0.26367 1.651 0.35036-0.10934 0.16883-0.41775-0.34633-0.66151-0.42842-0.54507-0.18357-1.1295-0.39151-1.651-0.35037-0.52153 0.0411-0.82613 0.47413-1.3176 0.58455-0.62162 0.13965-1.3194 0.10407-1.9791 0.1561-0.98952 0.0781-1.9791 0.15614-2.9686 0.23419-2.3089 0.18215-4.6178 0.36428-6.9267 0.54643-0.32983 0.026-0.65968 0.052-0.98951 0.078-0.32985 0.026-0.8349-0.16069-0.98953 0.0781-0.49651 0.76662 0.95649 0.31319 1.651 0.35035 0.8802 0.0908 1.7604 0.18155 2.6406 0.27231 0.77084 0.2596 1.5406 0.69918 2.3125 0.77879 1.0357 0.10681 1.9418-0.28912 2.9686-0.23418 1.4111 0.0755 2.8853 0.56975 4.2916 0.62267 1.3643 0.0513 2.5772-0.45465 3.9581-0.31224 10.002 1.0314-1.2297 1.5388 6.9322 0.89497 4.28-0.33763-0.12382-0.19289 3.6301 0.19424 0.34524 0.0356 0.87837-0.38969 0.98953-0.078 0.15719 0.44071-0.22948 0.89045-0.65605 1.013-0.47693 0.13697-1.1099-0.32142-1.651-0.35037-1.694-0.0906-3.2536 0.48094-4.9476 0.39031-1.4111-0.0755-2.8768-0.52825-4.2916-0.62268-1.8951-0.12648-3.719 0.063-5.6092-0.0381-1.7451-0.0934-3.525-0.3909-5.2811-0.54462-2.095-0.18337-4.1622-0.18145-6.2706-0.46654-1.6442-0.22232-3.3155-0.88221-4.9531-1.0511-1.9066-0.19663-3.7025 0.1585-5.6091-0.0381-0.77198-0.0796-1.5354-0.57401-2.3125-0.77879-1.7608-2.2447-2.8565-0.31813-4.2916-0.62267-0.24614-0.0522-0.42826-0.44682-0.6615-0.42842-0.23323 0.0184-0.40662 0.28611-0.32803 0.50648 0.28943 0.81139 3.4955 0.17471 3.6301 0.19424 0.77583 0.11257 1.5342 0.61363 2.3125 0.77879 3.3878 0.71893 1.7551 0.0441 4.6196 0.11618 0.8671 0.0218 1.768 0.22562 2.6406 0.27231 1.0268 0.0549 1.9791-0.15612 2.9686-0.23418 0.32985-0.026 0.6879 0.009 0.98954-0.0781 0.47693-0.13697 0.77168-0.64084 1.3176-0.58455 0.48824 0.0504 0.83075 0.75239 1.323 0.85685 0.24615 0.0522 0.0948-0.48808 0.32802-0.50647 0.23323-0.0184 0.41536 0.37623 0.66151 0.42842 0.34806 0.0738 0.64146-0.15193 0.98952-0.0781 0.24615 0.0522 0.41536 0.37623 0.6615 0.42842 0.34808 0.0739 0.6777-0.28002 0.98954-0.0781 0.2205 0.1428-0.21868 0.33766-0.32802 0.50648-0.10934 0.16883-0.0948 0.48808-0.32804 0.50649-0.52152 0.0411-1.1295-0.3915-1.651-0.35037-0.84094 0.0663-1.4952 0.52461-2.3071 0.66261-0.95527 0.16238-2.0076 0.0846-2.9686 0.23418-1.1326 0.17623-2.164 0.56443-3.2966 0.74066-2.2424 0.34892-4.6747 0.21957-6.9267 0.54643-1.1374 0.16507-2.1304 0.64866-3.2966 0.74066-0.84094 0.0663-1.7996-0.33865-2.6406-0.27231-0.84094 0.0663-1.4661 0.59626-2.3071 0.6626-0.52152 0.0412-1.1295-0.3915-1.651-0.35036-0.23323 0.0184 0.44101 0.28562 0.6615 0.42842 0.22051 0.14281 0.41738 0.40325 0.66151 0.42843 0.69047 0.0712 1.2851-0.2568 1.979-0.15612 0.77581 0.11256 1.5356 0.65157 2.3125 0.7788 1.2285 0.20114 2.4095 0.0684 3.6301 0.19423 8.8808 0.91583-0.52986 0.25557 9.2447 1.6738 1.2267 0.17798 2.4034 0.0163 3.6301 0.19424 1.6458 0.2388 3.3033 0.75241 4.9531 1.0511 1.4341 0.25963 2.8577 0.26154 4.2916 0.62267 1.0139 0.25535 1.9592 0.99186 2.974 1.2072 0.69614 0.14772 1.2946-0.19275 1.9791-0.15612 0.54115 0.029 1.106 0.1668 1.651 0.35036 0.24376 0.0821 0.42827 0.44683 0.66151 0.42843 0.23323-0.0184 0.40662-0.28613 0.32803-0.50648-0.27938-0.78321-1.5096-0.26462-2.6406-0.27231-1.3569-0.009-4.6779-0.23546-6.2706-0.46655-1.978-0.28698-3.9666-0.70583-5.9426-0.97303-9.748-1.3181-0.78192 0.0919-10.89-0.58273-2.8296-0.18886-5.7609-1.0943-8.5832-1.2453-1.0268-0.0549-1.9529 0.24108-2.9686 0.23418-1.1704-0.008-4.164-0.81963-4.9476 0.3903-0.10934 0.16883 0.41774 0.34632 0.6615 0.42842 0.54507 0.18356 1.1099 0.32141 1.651 0.35037 0.68449 0.0366 1.2852-0.2568 1.9791-0.15612 5.5301 0.80237-1.1259 1.0098 4.9531 1.0511 1.0157 0.007 1.9377-0.31088 2.9686-0.23418 4.9382 0.36741 1.8308 1.1282 7.2656 1.8299 1.0392 0.13416 1.9564-0.22805 2.9686-0.23418 1.1929-0.007 2.4095 0.0684 3.6301 0.19425 0.54588 0.0563 1.1295 0.3915 1.651 0.35036 0.52153-0.0411 0.77169-0.64084 1.3176-0.58455 0.34374 0.0355 1.7695 1.6173 2.3125 0.7788 0.26592-0.41059-3.7936-1.1249-3.9636-1.1292-0.98954 0.0781-1.9791 0.15613-2.9686 0.23419-0.77085-0.25961-1.552-0.75967-2.3125-0.7788-0.8671-0.0218-1.4269 0.75338-2.3071 0.6626-1.0065-0.10379-1.9827-0.8048-2.974-1.2072-0.98952 0.0781-1.9529 0.24109-2.9686 0.23418-0.88018-0.0908-1.7604-0.18153-2.6406-0.2723-0.22049-0.14281-0.41535-0.37623-0.6615-0.42843-0.34807-0.0738-1.3014-0.1239-0.98952 0.0781 1 0.64766 1.7614 0.25019 2.6406 0.2723 1.2024 0.0302 2.42 0.1295 3.6301 0.19425 1.21 0.0647 2.4095 0.0684 3.6301 0.19425 2.7421-0.41865 5.5122 1.3538 8.2552 1.7518 1.5709 0.22793 3.0614-0.013 4.6196 0.11619 16.385 1.3585-5.1104 0.30441 7.2602 0.38848 7.0759 0.0481-1.1381 0.57039 4.6196 0.11618 0.32984-0.026 0.6879 0.009 0.98953-0.0781 0.47693-0.13697 0.79603-0.54339 1.3176-0.58454 0.23324-0.0184 0.42828 0.44683 0.66151 0.42842 0.23322-0.0184 0.40662-0.28612 0.32802-0.50648-0.0107-0.03-1.8241-1.1814-1.9845-1.2853-0.441-0.28562-0.84767-0.64301-1.323-0.85685-2.612-1.1752-4.989-0.89691-7.5937-1.3234-1.0988-0.17991-2.2033-0.52081-3.3021-0.70072-1.7718-0.29011-3.5063-0.16798-5.2811-0.54461-0.77831-0.16516-1.5472-0.73784-2.3126-0.77879-0.54113-0.029-0.79602 0.5434-1.3175 0.58455-0.23324 0.0184 0.21868-0.33766 0.32802-0.50649 0.10934-0.16882 0.13162-0.41934 0.32803-0.50648 0.27777-0.12324 0.65968-0.0521 0.98952-0.0781 0.65969-0.052 1.3194-0.10407 1.9791-0.15611 1.3194-0.10409 2.5977-0.34646 3.9581-0.31224 0.53774 0.0135 1.1295 0.3915 1.651 0.35036 0.52152-0.0411 0.81864-0.48924 1.3176-0.58454 1.2622-0.24111 2.6388-0.20816 3.9581-0.31224 0.65968-0.052 1.3194-0.10408 1.9791-0.15613 0.10934-0.16882 0.13161-0.41935 0.32802-0.50648 0.27777-0.12323 1.1007 0.23358 0.98953-0.0781-0.27782-0.7789-2.5506-1.1966-2.974-1.2072-1.0203-0.0257-1.9564 0.22805-2.9686 0.23418-1.1929 0.007-2.4152-0.10386-3.6301-0.19425-2.6283-0.19554-5.2745-0.49412-7.9217-0.81691-5.0295-0.61329-4.1435-0.80492-9.5727-1.1673-15.466-0.38898 3.7807 0.38987-7.9217-0.81691-0.69048-0.0712-1.2946 0.19273-1.9791 0.15612-0.54114-0.029-1.1007-0.23359-1.651-0.35037-0.55035-0.11679-1.158-0.031-1.651-0.35037-0.2205-0.14281 0.13162-0.41935 0.32802-0.50648 0.80598-0.35758 1.7563 0.22498 2.6406 0.2723 0.68449 0.0366 1.3194-0.10408 1.979-0.15611 4.6733-0.36867 1.3072-0.23906 6.5987-0.0399 1.5443 0.0581 3.0565-0.045 4.6196 0.11618 1.0917 0.11258 2.2198 0.64282 3.3021 0.70073 1.369 0.0733 2.6121-0.29132 3.9581-0.31224 1.1897-0.0185 2.4331 0.18611 3.6301 0.19424 1.3542 0.009 2.6387-0.20815 3.9581-0.31224 0.32983-0.026 0.65968-0.052 0.98951-0.0781 0.32985-0.026 1.1007 0.23358 0.98954-0.078-0.28173-0.78986-2.5462-1.1843-2.974-1.2072-0.68449-0.0366-1.2886 0.22733-1.979 0.15612-1.0917-0.11258-2.2067-0.55931-3.3021-0.70073-2.4494-0.31622-4.8304-0.2077-7.2602-0.38849-1.7522-0.13036-3.5469-0.50099-5.2811-0.5446-6.5774-0.16542 0.18789 0.68023-2.6406-0.27231-0.86533-0.29141-2.2818-0.6925-1.9791 0.15612 0.30386 0.85187 1.4562 0.15017 2.6406 0.27231 1.0918 0.11258 2.2154 0.61987 3.3021 0.70072 1.0309 0.0767 1.9418-0.28912 2.9686-0.23418 1.4111 0.0755 2.8727 0.50502 4.2916 0.62267 1.5582 0.1292 3.066 0.0125 4.6196 0.11619 14.186 0.94682-3.2546-0.0491 10.234 1.5957 1.567 0.19109 3.0614-0.013 4.6196 0.11619 1.4189 0.11765 2.8565 0.31812 4.2916 0.62267 1.3254 0.28127 2.6551 1.0318 3.9636 1.1292 2.784-0.79958 1.4197-0.85091 3.9581-0.31224 0.55036 0.11679 1.1052 0.29408 1.651 0.35036 0.34524 0.0356 0.64146-0.15192 0.98953-0.0781 0.24614 0.0522 0.42827 0.44683 0.66151 0.42843 0.23322-0.0184 0.47634-0.30324 0.32802-0.50648-0.29665-0.40646-0.88201-0.57124-1.323-0.85685-0.2205-0.14281-0.41738-0.40325-0.6615-0.42842-0.69048-0.0712-1.2988 0.17322-1.9791 0.15611-0.86709-0.0218-1.7532-0.084-2.6406-0.2723-6.551-2.2062 1.5994 0.23206-4.2916-0.62267-0.77582-0.11256-1.5367-0.66623-2.3125-0.77879-0.69391-0.10068-1.3194 0.10408-1.9791 0.15613-0.32984 0.026-0.6448 0.19415-0.98953 0.0781-0.48753-0.1642-0.83076-0.7524-1.323-0.85685-0.24615-0.0522-0.54853 0.36367-0.32803 0.50648 1.3765 0.8915 0.72618-0.53789 1.3176-0.58454 0.23323-0.0184 0.41536 0.37623 0.6615 0.42842 0.34807 0.0739 0.65968-0.052 0.98953-0.0781 0.98953-0.0781 2.0362-0.0247 2.9686-0.23418 0.7924-0.17804 1.4661-0.59626 2.3071-0.66261 0.52153-0.0411 1.1295 0.39151 1.651 0.35037 0.52153-0.0412 0.79602-0.5434 1.3176-0.58454 0.52152-0.0411 1.1295 0.3915 1.651 0.35036 0.23323-0.0184 0.40662-0.28613 0.32802-0.50649-0.31509-0.88338-1.4397-0.0981-2.6406-0.2723-0.77581-0.11256-1.5342-0.61362-2.3125-0.77879-0.8874-0.18832-1.7532-0.084-2.6406-0.2723-1.3254-0.28127-2.6393-0.79565-3.9636-1.1292-1.0997-0.27698-2.2014-0.46716-3.3021-0.70073-1.1007-0.23358-2.2033-0.52082-3.3021-0.70073-1.7036-0.27894-4.9207-0.31119-6.6041-1.4015-0.31183-0.20196 0.65969-0.052 0.98953-0.0781 3.0266-0.23875-1.7548 0.0371 2.6406 0.2723 1.7112 0.0916 3.2549-0.4018 4.9476-0.39029 0.86313 0.006 1.7774 0.26643 2.6406 0.2723 1.0156 0.007 1.9329-0.34099 2.9686-0.23418 0.77198 0.0796 1.5367 0.66623 2.3125 0.77879 0.69392 0.10067 1.2886-0.22733 1.9791-0.15612 0.24412 0.0252 0.77085 0.25959 0.66151 0.42842-0.15464 0.23876-0.6597 0.052-0.98953 0.0781-0.32985 0.026-0.64481 0.19416-0.98953 0.0781-0.48754-0.16418-0.83077-0.75239-1.323-0.85685-0.99061-0.21021-1.978 0.4444-2.9686 0.23418-0.49336-0.10469-1.1071-1.1903-1.651-0.35036-0.10934 0.16883 0.42827 0.44682 0.66151 0.42842 0.52152-0.0411 0.79602-0.5434 1.3175-0.58455 0.52154-0.0411 1.1099 0.32142 1.651 0.35037 0.68449 0.0366 1.2886-0.22733 1.9791-0.15612 11.51 1.187-4.5371 0.53196 6.2706 0.46656 2.4698-0.015 6.3009 0.36012 8.9112 0.73885 0.54859 0.0796 1.1295 0.3915 1.651 0.35036 1.2052-0.0951 1.0427-0.93091 2.3071-0.66261 0.2461 0.0523 0.42827 0.44683 0.6615 0.42843 0.23325-0.0184 0.54853-0.36368 0.32803-0.50649-0.0426-0.0276-2.7286 0.21525-2.9686 0.23418-0.32985 0.026-0.8349-0.1607-0.98953 0.0781-0.10935 0.16882 0.44099 0.28561 0.6615 0.42842 0.2205 0.14281 0.42827 0.44682 0.66151 0.42843 0.23322-0.0184 0.0819-0.55872 0.32803-0.50649 0.49224 0.10446 0.83548 0.69267 1.323 0.85684 0.34471 0.11615 0.65969-0.052 0.98953-0.0781 1.2738-0.10049 2.2198-0.28068 3.6301 0.19424 0.24375 0.0821 0.41535 0.37623 0.6615 0.42843 0.98288 0.20857 1.5792-0.41513 1.3176-0.58455-0.31183-0.20196-0.65968 0.052-0.98952 0.0781-0.32985 0.026-0.6597 0.052-0.98953 0.0781-3.2984 0.2602-6.5969 0.5204-9.8953 0.78061l-0.98953 0.078c-0.32985 0.026-0.8349-0.1607-0.98953 0.0781-0.10935 0.16883 0.441 0.28561 0.6615 0.42842 0.44101 0.28562 0.83077 0.75239 1.323 0.85685 0.69614 0.14773 1.2886-0.22732 1.9791-0.15611 0.24412 0.0252 0.41738 0.40325 0.66149 0.42842 0.69049 0.0712 1.2852-0.2568 1.9791-0.15612 0.77581 0.11256 1.5342 0.61362 2.3125 0.77879 3.7781 0.80174-2.943-1.6081 2.6406 0.2723 0.24377 0.0821 0.41536 0.37624 0.66151 0.42843 0.34807 0.0739 0.67769-0.28003 0.98953-0.0781 0.2205 0.14281-0.0948 0.48809-0.32803 0.50649-0.52152 0.0411-1.1052-0.29407-1.651-0.35036-0.34523-0.0356-0.65968 0.052-0.98952 0.0781-0.65969 0.052-1.2886 0.22732-1.9791 0.15612-1.0917-0.11258-2.2103-0.58815-3.3021-0.70074-1.3809-0.1424-2.5703 0.51361-3.9581 0.31224-0.77581-0.11255-1.5472-0.73783-2.3125-0.77879-0.54113-0.029-0.79602 0.54342-1.3176 0.58455-0.23323 0.0184-0.77085-0.25959-0.6615-0.42842 0.68258-1.0539 1.0597 0.39701 1.651 0.35036 0.23324-0.0184 0.13162-0.41934 0.32802-0.50649 0.27777-0.12323 0.65968-0.052 0.98953-0.0781 0.32985-0.026 0.64146-0.15191 0.98954-0.078 0.24614 0.0522 0.77084 0.25958 0.66149 0.42842-0.1373 0.21199-0.71986-0.65373-1.323-0.85685-0.55033-0.11679-1.1007-0.23358-1.651-0.35037-0.441-0.28562-0.83548-0.69266-1.323-0.85685-0.34475-0.11605-0.64728 0.0964-0.98953 0.0781-0.87256-0.0467-1.7532-0.084-2.6406-0.2723-0.24614-0.0522-0.41535-0.37623-0.6615-0.42843-0.34806-0.0739-0.87838 0.3897-0.98953 0.0781-0.11116-0.31163 0.65969-0.052 0.98953-0.0781 2.2688-0.17897-0.55668-0.0574 2.6406 0.27231 1.0357 0.1068 1.9418-0.28913 2.9686-0.23418 0.54115 0.029 1.1295 0.39151 1.651 0.35036 1.3194-0.10408 1.2046-1.3766 2.9686-0.23418 0.2205 0.14281-0.0948 0.48809-0.32803 0.50649-0.23322 0.0184-0.41535-0.37623-0.66149-0.42842-0.34807-0.0739-0.65969 0.052-0.98953 0.078-0.77085-0.25959-1.5367-0.55776-2.3125-0.77879-3.0201-0.86036-0.3975 0.0314-3.9581 0.31224-0.52153 0.0412-1.1007-0.23357-1.651-0.35036-1.1007-0.23358-2.2103-0.58814-3.3021-0.70073-0.69048-0.0712-1.3194 0.10408-1.979 0.15612-0.98953 0.0781-1.9791 0.15612-2.9686 0.23418-0.74323 0.0586-2.0487 0.26365-1.651-0.35037 0.1373-0.212 0.71988 0.65374 1.323 0.85686 0.54507 0.18356 1.1007 0.23357 1.651 0.35036 3.9964 0.84807-0.95661-0.0512 3.6301 0.19424 0.54115 0.029 1.1099 0.32141 1.651 0.35037 4.28-0.33764-0.12382-0.1929 3.6301 0.19424 0.34524 0.0356 1.3194-0.10408 0.98952-0.0781-0.65968 0.052-1.3194 0.10407-1.979 0.15612-0.65969 0.052-1.2886 0.22733-1.9791 0.15612-1.0917-0.11258-2.2198-0.64282-3.3021-0.70073-1.369-0.0732-2.6387 0.20817-3.9581 0.31224-1.9809-0.32434-3.9745-0.77006-5.9426-0.97303-3.3654-0.34704-6.422 0.25588-9.9007-0.66078-9.1178-2.4027-2.9336-3.5453-10.562-1.0892-0.46864 0.15088-1.073 0.20703-1.3175 0.58453-0.15464 0.23876 0.64428-0.11366 0.98952-0.0781 0.54587 0.0563 1.1052 0.29408 1.651 0.35038 0.34524 0.0356 0.74421 0.0846 0.98952-0.0781 0.88448-0.58641 1.048-2.3225 2.3016-2.104 1.9668 0.34278 3.3765 2.6179 5.292 3.4274 2.0056 0.84756 7.1247 0.59073 8.9112 0.73885 1.4305 0.20756 2.8611 0.41512 4.2916 0.62267 0.98954-0.0781 1.9377-0.31088 2.9686-0.23418 2.4591 0.18296 3.6054 1.1574 5.9426 0.97303 0.52152-0.0411 0.77168-0.64083 1.3176-0.58455 0.48824 0.0503 1.5417 0.51919 1.323 0.85685-0.2445 0.37751-1.1295-0.3915-1.651-0.35036-0.52153 0.0411-0.87838 0.3897-1.3176 0.58454-0.55034-0.11678-1.1157-0.34672-1.651-0.35036-1.3542-0.009-2.6085 0.30407-3.9581 0.31224-2.2507 0.0136-4.6874-0.92988-6.9322-0.89497-1.1897 0.0185-2.1304 0.64867-3.2966 0.74066-0.84093 0.0663-1.7735-0.25049-2.6406-0.27231-1.0203-0.0257-1.979 0.15614-2.9686 0.23418-0.65969 0.0521-1.6698-0.32138-1.979 0.15613-0.21869 0.33766 0.882 0.57123 1.323 0.85684 1.9079 1.2356 0.9037 0.52679 3.6355 1.6356 0.62945 0.25551 1.9592 1.2689 2.646 1.7137 0.441 0.28561 1.391 0.4462 1.323 0.85685-0.10752 0.64929-1.0656 0.76305-1.6456 1.091-2.5848 1.4616-5.4952 1.2153-8.5723 1.6375-1.4613 0.20046-2.8574 0.54581-4.2862 0.81873-1.4287 0.27289-2.9204 0.42648-4.2862 0.81872-5.3452 2.3714 0.18845 0.29686-5.6037 1.4033-0.49892 0.0953-0.79602 0.54341-1.3175 0.58455-0.52154 0.0411-1.1295-0.39151-1.651-0.35037-0.23324 0.0184 0.44099 0.28562 0.6615 0.42843l0.66151 0.42843c3.3522 2.171-0.78727-0.0812 2.6406 0.2723 0.48824 0.0503 0.83547 0.69266 1.323 0.85684 4.0208 1.3541 2.5678 0.37343 6.2706 0.46655 1.9722 0.0496 2.3924 1.0838 4.6251 1.5576 0.69613 0.14774 1.2886-0.22731 1.9791-0.1561 0.24412 0.0252 0.41774 0.34632 0.6615 0.42842 0.54507 0.18357 1.158 0.031 1.651 0.35036 0.57193 0.37041-1.0612-0.10751-1.9791 0.15613-3.5362 1.0156 1.4868 0.54816-3.6301-0.19426-0.69391-0.10067-1.3194 0.10408-1.9791 0.15612-0.65968 0.052-1.3194 0.10409-1.979 0.15613-0.98953 0.0781-1.9791 0.15611-2.9686 0.23418-0.32985 0.026-1.3014-0.12391-0.98954 0.078 2.3934 1.5501 0.88013-0.32055 2.6406 0.27231 0.48753 0.16419 0.84212 0.66168 1.323 0.85685 0.53763 0.21822 1.1024 0.19407 1.651 0.35036 0.77582 0.22102 1.5342 0.61363 2.3125 0.77879 0.34808 0.0739 0.65969-0.052 0.98954-0.0781 0.441 0.28561 0.84211 0.66168 1.323 0.85684 0.53763 0.21825 1.158 0.031 1.651 0.35037 1.0509 0.68064-1.6036-0.12185-2.6406-0.2723-0.88457-0.12834-1.7604-0.18154-2.6406-0.27231-0.88018-0.0908-1.7804-0.2775-2.6406-0.2723-1.3496 0.008-2.5938 0.36358-3.9581 0.31224-1.4063-0.0529-2.8726-0.50502-4.2916-0.62267-1.5582-0.1292-3.0614 0.013-4.6196-0.11618-1.4189-0.11765-2.8589-0.38809-4.2916-0.62267-1.3473-0.2206-2.3943-0.74251-3.6301-0.19424-0.1964 0.0871 0.441 0.28561 0.6615 0.42842 1.1546 0.74776 0.41536 0.37624 2.3125 0.77878l1.651 0.35037c0.32985-0.026 0.64146-0.15192 0.98953-0.0781 0.7783 0.16516 1.5367 0.55776 2.3125 0.77878 1.0972 0.31256 2.2268 0.26425 3.3021 0.70073 0.4809 0.19517 0.84212 0.66168 1.323 0.85685 0.99958 1.0807 1.7617-0.0237 2.6406 0.2723 0.73129 0.24628 1.323 0.85686 1.9845 1.2853 0.22049 0.1428 0.77083 0.25959 0.66149 0.42842-0.15463 0.23876-0.71176-0.0452-0.98952 0.0781-0.19642 0.0871-0.21868 0.33765-0.32803 0.50649-0.55034-0.1168-1.1295-0.39151-1.651-0.35038-0.23324 0.0184-0.11474 0.44524-0.32803 0.50649-0.85985 0.24696-2.8811 0.22728-3.9581 0.31225"/>
      <g id="text4268" style="fill:#000000" transform="matrix(.28212 .78218 -1.0557 .61777 0 0)">
        <path id="path4273" d="m580.44-104.93v-5.5419h1.119v5.5419z"/>
        <path id="path4275" d="m586.26-104.93h-1.0623v-2.0489c0-0.43347-0.0227-0.71384-0.068-0.84111-0.0454-0.12727-0.11909-0.22619-0.22115-0.29676-0.10207-0.0706-0.22493-0.10584-0.36858-0.10585-0.18398 0.00001-0.34905 0.0504-0.49522 0.15122-0.14617 0.10081-0.24635 0.23438-0.30053 0.40071-0.0542 0.16633-0.0813 0.4738-0.0813 0.92239v1.8183h-1.0623v-4.0147h0.98665v0.58972c0.35031-0.45363 0.79134-0.68045 1.3231-0.68045 0.23437 0 0.44859 0.0422 0.64265 0.12664 0.19405 0.0844 0.34085 0.19217 0.4404 0.32322 0.0996 0.13105 0.16885 0.27974 0.20792 0.44607 0.0391 0.16634 0.0586 0.4045 0.0586 0.71448z"/>
        <path id="path4277" d="m587.31-104.93v-5.5419h1.0623v2.9411l1.2437-1.4138h1.308l-1.3722 1.4668 1.4705 2.5479h-1.1454l-1.0093-1.8032-0.49522 0.5179v1.2853z"/>
        <path id="path4279" d="m591.15-108.94h1.1303l0.9602 2.8503 0.93751-2.8503h1.1001l-1.4176 3.8635-0.25328 0.69935c-0.0933 0.23438-0.18209 0.41332-0.26651 0.53681-0.0844 0.12349-0.18146 0.22366-0.29108 0.30053-0.10964 0.0769-0.24447 0.13672-0.4045 0.17956-0.16003 0.0429-0.34085 0.0643-0.54247 0.0643-0.20414 0-0.40449-0.0214-0.60107-0.0643l-0.0945-0.83166c0.16633 0.0328 0.31628 0.0491 0.44985 0.0491 0.24698 0 0.42969-0.0724 0.54814-0.21736 0.11845-0.14492 0.20918-0.32952 0.27219-0.55382z"/>
        <path id="path4281" d="m599.33-105.92v0.98666h-3.7236c0.0403-0.37299 0.16129-0.72644 0.3629-1.0604 0.20162-0.33393 0.59981-0.77685 1.1946-1.3288 0.47883-0.44607 0.77244-0.74849 0.88081-0.90727 0.14616-0.21925 0.21925-0.43599 0.21925-0.65021 0-0.23689-0.0636-0.41898-0.1909-0.54625-0.12727-0.12727-0.30306-0.1909-0.52735-0.1909-0.22178 0-0.3982 0.0668-0.52924 0.20035-0.13106 0.13358-0.20666 0.35535-0.22682 0.66533l-1.0585-0.10585c0.063-0.58468 0.26084-1.0043 0.59351-1.2588 0.33267-0.25454 0.7485-0.38181 1.2475-0.38181 0.54688 0 0.97657 0.14743 1.2891 0.44229 0.3125 0.29487 0.46875 0.66156 0.46876 1.1001-0.00001 0.2495-0.0447 0.48703-0.1342 0.71258-0.0895 0.22556-0.23124 0.46183-0.42529 0.70881-0.12853 0.16381-0.36039 0.39945-0.69557 0.70691-0.33519 0.30747-0.54752 0.51161-0.63698 0.61241-0.0895 0.10081-0.16193 0.1991-0.21737 0.29486z"/>
        <path id="path4283" d="m601.84-110.49c0.5368 0 0.95641 0.19154 1.2588 0.5746 0.36039 0.45364 0.54058 1.2059 0.54058 2.2568 0 1.0484-0.18145 1.8019-0.54436 2.2606-0.29991 0.37802-0.71826 0.56704-1.2551 0.56704-0.53932 0-0.97405-0.20729-1.3042-0.62186s-0.49522-1.1536-0.49522-2.2171c0-1.0434 0.18146-1.7944 0.54436-2.2531 0.29991-0.37802 0.71826-0.56704 1.2551-0.56704zm0 0.88081c-0.12853 0-0.2432 0.0409-0.344 0.12285-0.10081 0.0819-0.17894 0.22872-0.23438 0.44041-0.0731 0.2747-0.10963 0.73716-0.10963 1.3874 0 0.65021 0.0328 1.0969 0.0983 1.3401s0.14806 0.40513 0.24761 0.48577c0.0995 0.0807 0.21358 0.12097 0.34211 0.12097s0.2432-0.0409 0.34401-0.12286c0.1008-0.0819 0.17893-0.22871 0.23438-0.4404 0.0731-0.27218 0.10962-0.73338 0.10963-1.3836-0.00001-0.65021-0.0328-1.0969-0.0983-1.3401-0.0655-0.24319-0.14807-0.40574-0.24761-0.48766-0.0996-0.0819-0.21359-0.12285-0.34212-0.12285z"/>
        <path id="path4285" d="m607.07-104.93h-1.0623v-4.0033c-0.38811 0.36291-0.84553 0.63131-1.3722 0.8052v-0.96397c0.27722-0.0907 0.57839-0.26273 0.90349-0.51601 0.32511-0.25328 0.54814-0.54877 0.66912-0.88648h0.8619z"/>
        <path id="path4287" d="m610.46-110.49c0.5368 0 0.95641 0.19154 1.2588 0.5746 0.36038 0.45364 0.54058 1.2059 0.54058 2.2568 0 1.0484-0.18146 1.8019-0.54436 2.2606-0.29991 0.37802-0.71826 0.56704-1.2551 0.56704-0.53933 0-0.97406-0.20729-1.3042-0.62186-0.33015-0.41457-0.49522-1.1536-0.49522-2.2171 0-1.0434 0.18145-1.7944 0.54436-2.2531 0.2999-0.37802 0.71825-0.56704 1.2551-0.56704zm0 0.88081c-0.12853 0-0.2432 0.0409-0.34401 0.12285-0.10081 0.0819-0.17893 0.22872-0.23438 0.44041-0.0731 0.2747-0.10963 0.73716-0.10963 1.3874 0 0.65021 0.0328 1.0969 0.0983 1.3401s0.14806 0.40513 0.24761 0.48577c0.0996 0.0807 0.21359 0.12097 0.34212 0.12097s0.24319-0.0409 0.34401-0.12286c0.1008-0.0819 0.17893-0.22871 0.23437-0.4404 0.0731-0.27218 0.10963-0.73338 0.10963-1.3836 0-0.65021-0.0328-1.0969-0.0983-1.3401-0.0655-0.24319-0.14806-0.40574-0.2476-0.48766-0.0996-0.0819-0.21359-0.12285-0.34212-0.12285z"/>
      </g>
      <path id="path4293" style="filter:url(#filter4367);stroke:#cccccc;stroke-width:1px;fill:none" d="m205.04 293.82c-21.737 56.022-21.513 56.022-21.513 56.022" transform="matrix(1.1697 0 0 1.3671 -32.565 -94.024)"/>
      <path id="path4381" style="filter:url(#filter4387);stroke:#2b1100;stroke-width:1px;fill:none" d="m627.45 451.8c-21.513 42.129-25.098 41.232-36.751 65.434s-4.4818 21.513-26.891 55.574c-22.409 34.062-34.062 35.854-39.44 56.471-5.3781 20.616-28.683 42.129-28.683 42.129"/>
    </g>
  </g>
  <metadata>
    <rdf:RDF>
      <cc:Work>
        <dc:format>image/svg+xml</dc:format>
        <dc:type rdf:resource="http://purl.org/dc/dcmitype/StillImage"/>
        <cc:license rdf:resource="http://creativecommons.org/licenses/publicdomain/"/>
        <dc:publisher>
          <cc:Agent rdf:about="http://openclipart.org/">
            <dc:title>Openclipart</dc:title>
          </cc:Agent>
        </dc:publisher>
        <dc:title>Brown Clipboard</dc:title>
        <dc:date>2010-08-02T22:12:11</dc:date>
        <dc:description>Brown clipboard</dc:description>
        <dc:source>https://openclipart.org/detail/76351/brown-clipboard-by-inky2010</dc:source>
        <dc:creator>
          <cc:Agent>
            <dc:title>inky2010</dc:title>
          </cc:Agent>
        </dc:creator>
        <dc:subject>
          <rdf:Bag>
            <rdf:li>Clipboard</rdf:li>
            <rdf:li>board</rdf:li>
            <rdf:li>brown</rdf:li>
            <rdf:li>clip</rdf:li>
            <rdf:li>inky2010</rdf:li>
          </rdf:Bag>
        </dc:subject>
      </cc:Work>
      <cc:License rdf:about="http://creativecommons.org/licenses/publicdomain/">
        <cc:permits rdf:resource="http://creativecommons.org/ns#Reproduction"/>
        <cc:permits rdf:resource="http://creativecommons.org/ns#Distribution"/>
        <cc:permits rdf:resource="http://creativecommons.org/ns#DerivativeWorks"/>
      </cc:License>
    </rdf:RDF>
  </metadata>
</svg>
