<?xml version="1.0" encoding="UTF-8"?>
<!DOCTYPE svg PUBLIC "-//W3C//DTD SVG 1.1//EN" "http://www.w3.org/Graphics/SVG/1.1/DTD/svg11.dtd">
<svg version="1.2" width="50.54mm" height="50.54mm" viewBox="279 181 5054 5054" preserveAspectRatio="xMidYMid" fill-rule="evenodd" stroke-width="28.222" stroke-linejoin="round" xmlns="http://www.w3.org/2000/svg" xmlns:ooo="http://xml.openoffice.org/svg/export" xmlns:xlink="http://www.w3.org/1999/xlink" xmlns:presentation="http://sun.com/xmlns/staroffice/presentation" xmlns:smil="http://www.w3.org/2001/SMIL20/" xmlns:anim="urn:oasis:names:tc:opendocument:xmlns:animation:1.0" xml:space="preserve">
 <defs class="ClipPathGroup">
  <clipPath id="presentation_clip_path" clipPathUnits="userSpaceOnUse">
   <rect x="279" y="181" width="5054" height="5054"/>
  </clipPath>
  <clipPath id="presentation_clip_path_shrink" clipPathUnits="userSpaceOnUse">
   <rect x="284" y="186" width="5044" height="5044"/>
  </clipPath>
 </defs>
 <defs class="TextShapeIndex">
  <g ooo:slide="id1" ooo:id-list="id3 id4 id5 id6 id7 id8 id9 id10 id11 id12 id13 id14 id15 id16 id17 id18 id19 id20 id21 id22 id23 id24 id25"/>
 </defs>
 <defs class="EmbeddedBulletChars">
  <g id="bullet-char-template-57356" transform="scale(0.00048828125,-0.00048828125)">
   <path d="M 580,1141 L 1163,571 580,0 -4,571 580,1141 Z"/>
  </g>
  <g id="bullet-char-template-57354" transform="scale(0.00048828125,-0.00048828125)">
   <path d="M 8,1128 L 1137,1128 1137,0 8,0 8,1128 Z"/>
  </g>
  <g id="bullet-char-template-10146" transform="scale(0.00048828125,-0.00048828125)">
   <path d="M 174,0 L 602,739 174,1481 1456,739 174,0 Z M 1358,739 L 309,1346 659,739 1358,739 Z"/>
  </g>
  <g id="bullet-char-template-10132" transform="scale(0.00048828125,-0.00048828125)">
   <path d="M 2015,739 L 1276,0 717,0 1260,543 174,543 174,936 1260,936 717,1481 1274,1481 2015,739 Z"/>
  </g>
  <g id="bullet-char-template-10007" transform="scale(0.00048828125,-0.00048828125)">
   <path d="M 0,-2 C -7,14 -16,27 -25,37 L 356,567 C 262,823 215,952 215,954 215,979 228,992 255,992 264,992 276,990 289,987 310,991 331,999 354,1012 L 381,999 492,748 772,1049 836,1024 860,1049 C 881,1039 901,1025 922,1006 886,937 835,863 770,784 769,783 710,716 594,584 L 774,223 C 774,196 753,168 711,139 L 727,119 C 717,90 699,76 672,76 641,76 570,178 457,381 L 164,-76 C 142,-110 111,-127 72,-127 30,-127 9,-110 8,-76 1,-67 -2,-52 -2,-32 -2,-23 -1,-13 0,-2 Z"/>
  </g>
  <g id="bullet-char-template-10004" transform="scale(0.00048828125,-0.00048828125)">
   <path d="M 285,-33 C 182,-33 111,30 74,156 52,228 41,333 41,471 41,549 55,616 82,672 116,743 169,778 240,778 293,778 328,747 346,684 L 369,508 C 377,444 397,411 428,410 L 1163,1116 C 1174,1127 1196,1133 1229,1133 1271,1133 1292,1118 1292,1087 L 1292,965 C 1292,929 1282,901 1262,881 L 442,47 C 390,-6 338,-33 285,-33 Z"/>
  </g>
  <g id="bullet-char-template-9679" transform="scale(0.00048828125,-0.00048828125)">
   <path d="M 813,0 C 632,0 489,54 383,161 276,268 223,411 223,592 223,773 276,916 383,1023 489,1130 632,1184 813,1184 992,1184 1136,1130 1245,1023 1353,916 1407,772 1407,592 1407,412 1353,268 1245,161 1136,54 992,0 813,0 Z"/>
  </g>
  <g id="bullet-char-template-8226" transform="scale(0.00048828125,-0.00048828125)">
   <path d="M 346,457 C 273,457 209,483 155,535 101,586 74,649 74,723 74,796 101,859 155,911 209,963 273,989 346,989 419,989 480,963 531,910 582,859 608,796 608,723 608,648 583,586 532,535 482,483 420,457 346,457 Z"/>
  </g>
  <g id="bullet-char-template-8211" transform="scale(0.00048828125,-0.00048828125)">
   <path d="M -4,459 L 1135,459 1135,606 -4,606 -4,459 Z"/>
  </g>
  <g id="bullet-char-template-61548" transform="scale(0.00048828125,-0.00048828125)">
   <path d="M 173,740 C 173,903 231,1043 346,1159 462,1274 601,1332 765,1332 928,1332 1067,1274 1183,1159 1299,1043 1357,903 1357,740 1357,577 1299,437 1183,322 1067,206 928,148 765,148 601,148 462,206 346,322 231,437 173,577 173,740 Z"/>
  </g>
 </defs>
 <defs class="TextEmbeddedBitmaps"/>
 <g class="SlideGroup">
  <g>
   <g id="container-id1">
    <g id="id1" class="Slide" clip-path="url(#presentation_clip_path)">
     <g class="Page">
      <g class="com.sun.star.drawing.PolyPolygonShape">
       <g id="id3">
        <rect class="BoundingBox" stroke="none" fill="none" x="3805" y="4265" width="987" height="922"/>
       </g>
      </g>
      <g class="com.sun.star.drawing.PolyPolygonShape">
       <g id="id4">
        <rect class="BoundingBox" stroke="none" fill="none" x="3756" y="4216" width="1085" height="1020"/>
        <path fill="none" stroke="rgb(0,0,0)" stroke-width="98" stroke-linejoin="round" d="M 3805,4265 L 4791,4265 4791,5186 3805,5186 3805,4265 Z"/>
       </g>
      </g>
      <g class="com.sun.star.drawing.ClosedBezierShape">
       <g id="id5">
        <rect class="BoundingBox" stroke="none" fill="none" x="4127" y="4700" width="294" height="458"/>
        <path fill="rgb(0,0,0)" stroke="none" d="M 4127,5031 L 4182,5024 C 4188,5055 4199,5077 4214,5091 4229,5105 4248,5112 4270,5112 4296,5112 4318,5103 4335,5085 4353,5067 4362,5044 4362,5018 4362,4993 4354,4972 4337,4956 4320,4939 4300,4931 4274,4931 4264,4931 4251,4933 4236,4937 L 4242,4889 C 4245,4889 4248,4890 4250,4890 4274,4890 4295,4884 4313,4872 4332,4859 4342,4840 4342,4815 4342,4795 4335,4778 4321,4765 4308,4752 4290,4745 4268,4745 4247,4745 4229,4752 4215,4765 4201,4779 4192,4799 4188,4826 L 4133,4816 C 4139,4779 4154,4751 4178,4730 4202,4710 4232,4700 4267,4700 4292,4700 4314,4705 4335,4716 4355,4726 4371,4740 4382,4759 4393,4777 4398,4796 4398,4816 4398,4836 4393,4853 4383,4869 4372,4885 4357,4897 4336,4907 4363,4913 4384,4926 4398,4945 4413,4964 4420,4988 4420,5017 4420,5056 4406,5089 4378,5116 4349,5143 4313,5157 4270,5157 4230,5157 4197,5145 4171,5122 4146,5099 4131,5068 4127,5031 Z"/>
       </g>
      </g>
      <g class="com.sun.star.drawing.PolyPolygonShape">
       <g id="id6">
        <rect class="BoundingBox" stroke="none" fill="none" x="3313" y="2247" width="987" height="921"/>
       </g>
      </g>
      <g class="com.sun.star.drawing.PolyPolygonShape">
       <g id="id7">
        <rect class="BoundingBox" stroke="none" fill="none" x="3264" y="2198" width="1085" height="1019"/>
        <path fill="none" stroke="rgb(0,0,0)" stroke-width="98" stroke-linejoin="round" d="M 3313,2247 L 4299,2247 4299,3167 3313,3167 3313,2247 Z"/>
       </g>
      </g>
      <g class="com.sun.star.drawing.PolyPolygonShape">
       <g id="id8">
        <rect class="BoundingBox" stroke="none" fill="none" x="4298" y="2247" width="987" height="921"/>
       </g>
      </g>
      <g class="com.sun.star.drawing.PolyPolygonShape">
       <g id="id9">
        <rect class="BoundingBox" stroke="none" fill="none" x="4249" y="2198" width="1085" height="1019"/>
        <path fill="none" stroke="rgb(0,0,0)" stroke-width="98" stroke-linejoin="round" d="M 4298,2247 L 5284,2247 5284,3167 4298,3167 4298,2247 Z"/>
       </g>
      </g>
      <g class="com.sun.star.drawing.PolyPolygonShape">
       <g id="id10">
        <rect class="BoundingBox" stroke="none" fill="none" x="328" y="230" width="987" height="922"/>
       </g>
      </g>
      <g class="com.sun.star.drawing.PolyPolygonShape">
       <g id="id11">
        <rect class="BoundingBox" stroke="none" fill="none" x="279" y="181" width="1085" height="1020"/>
        <path fill="none" stroke="rgb(0,0,0)" stroke-width="98" stroke-linejoin="round" d="M 328,230 L 1314,230 1314,1151 328,1151 328,230 Z"/>
       </g>
      </g>
      <g class="com.sun.star.drawing.PolyPolygonShape">
       <g id="id12">
        <rect class="BoundingBox" stroke="none" fill="none" x="1313" y="230" width="987" height="922"/>
       </g>
      </g>
      <g class="com.sun.star.drawing.PolyPolygonShape">
       <g id="id13">
        <rect class="BoundingBox" stroke="none" fill="none" x="1264" y="181" width="1085" height="1020"/>
        <path fill="none" stroke="rgb(0,0,0)" stroke-width="98" stroke-linejoin="round" d="M 1313,230 L 2299,230 2299,1151 1313,1151 1313,230 Z"/>
       </g>
      </g>
      <g class="com.sun.star.drawing.PolyPolygonShape">
       <g id="id14">
        <rect class="BoundingBox" stroke="none" fill="none" x="3805" y="3167" width="494" height="1100"/>
       </g>
      </g>
      <g class="com.sun.star.drawing.LineShape">
       <g id="id15">
        <rect class="BoundingBox" stroke="none" fill="none" x="3756" y="3118" width="350" height="659"/>
        <path fill="none" stroke="rgb(0,0,0)" stroke-width="98" stroke-linejoin="round" d="M 3805,3167 L 4056,3727"/>
       </g>
      </g>
      <g class="com.sun.star.drawing.PolyPolygonShape">
       <g id="id16">
        <rect class="BoundingBox" stroke="none" fill="none" x="3823" y="3585" width="476" height="681"/>
        <path fill="rgb(0,0,0)" stroke="none" d="M 3907,3792 L 4239,4134 4205,3659 3907,3792 Z"/>
        <path fill="none" stroke="rgb(0,0,0)" stroke-width="98" stroke-linejoin="miter" d="M 3907,3792 L 4239,4134 4205,3659 3907,3792 Z"/>
       </g>
      </g>
      <g class="com.sun.star.drawing.PolyPolygonShape">
       <g id="id17">
        <rect class="BoundingBox" stroke="none" fill="none" x="4298" y="3167" width="495" height="1100"/>
       </g>
      </g>
      <g class="com.sun.star.drawing.LineShape">
       <g id="id18">
        <rect class="BoundingBox" stroke="none" fill="none" x="4491" y="3118" width="351" height="659"/>
        <path fill="none" stroke="rgb(0,0,0)" stroke-width="98" stroke-linejoin="round" d="M 4792,3167 L 4540,3727"/>
       </g>
      </g>
      <g class="com.sun.star.drawing.PolyPolygonShape">
       <g id="id19">
        <rect class="BoundingBox" stroke="none" fill="none" x="4298" y="3585" width="476" height="681"/>
        <path fill="rgb(0,0,0)" stroke="none" d="M 4392,3659 L 4357,4134 4689,3793 4392,3659 Z"/>
        <path fill="none" stroke="rgb(0,0,0)" stroke-width="98" stroke-linejoin="miter" d="M 4392,3659 L 4357,4134 4689,3793 4392,3659 Z"/>
       </g>
      </g>
      <g class="com.sun.star.drawing.PolyPolygonShape">
       <g id="id20">
        <rect class="BoundingBox" stroke="none" fill="none" x="1806" y="1149" width="1509" height="1559"/>
       </g>
      </g>
      <g class="com.sun.star.drawing.LineShape">
       <g id="id21">
        <rect class="BoundingBox" stroke="none" fill="none" x="1757" y="1100" width="1196" height="1233"/>
        <path fill="none" stroke="rgb(0,0,0)" stroke-width="98" stroke-linejoin="round" d="M 1806,1149 L 2903,2283"/>
       </g>
      </g>
      <g class="com.sun.star.drawing.PolyPolygonShape">
       <g id="id22">
        <rect class="BoundingBox" stroke="none" fill="none" x="2700" y="2085" width="614" height="623"/>
        <path fill="rgb(0,0,0)" stroke="none" d="M 2785,2396 L 3213,2604 3019,2169 2785,2396 Z"/>
        <path fill="none" stroke="rgb(0,0,0)" stroke-width="98" stroke-linejoin="miter" d="M 2785,2396 L 3213,2604 3019,2169 2785,2396 Z"/>
       </g>
      </g>
      <g class="com.sun.star.drawing.PolyPolygonShape">
       <g id="id23">
        <rect class="BoundingBox" stroke="none" fill="none" x="821" y="1149" width="2987" height="3577"/>
       </g>
      </g>
      <g class="com.sun.star.drawing.LineShape">
       <g id="id24">
        <rect class="BoundingBox" stroke="none" fill="none" x="772" y="1100" width="2706" height="3221"/>
        <path fill="none" stroke="rgb(0,0,0)" stroke-width="98" stroke-linejoin="round" d="M 821,1149 L 3428,4271"/>
       </g>
      </g>
      <g class="com.sun.star.drawing.PolyPolygonShape">
       <g id="id25">
        <rect class="BoundingBox" stroke="none" fill="none" x="3216" y="4084" width="591" height="642"/>
        <path fill="rgb(0,0,0)" stroke="none" d="M 3302,4376 L 3714,4615 3552,4167 3302,4376 Z"/>
        <path fill="none" stroke="rgb(0,0,0)" stroke-width="98" stroke-linejoin="miter" d="M 3302,4376 L 3714,4615 3552,4167 3302,4376 Z"/>
       </g>
      </g>
     </g>
    </g>
   </g>
  </g>
 </g>
</svg>