<svg xmlns="http://www.w3.org/2000/svg" xmlns:xlink="http://www.w3.org/1999/xlink" version="1.1" class="marks" width="553" height="292" viewBox="0 0 553 292"><rect width="553" height="292" fill="white"/><g fill="none" stroke-miterlimit="10" transform="translate(44,5)"><g class="mark-group role-frame root" role="graphics-object" aria-roledescription="group mark container"><g transform="translate(0,0)"><path class="background" aria-hidden="true" d="M0.5,0.5h500v250h-500Z" stroke="#ddd"/><g><g class="mark-group role-axis" aria-hidden="true"><g transform="translate(0.5,250.5)"><path class="background" aria-hidden="true" d="M0,0h0v0h0Z" pointer-events="none"/><g><g class="mark-rule role-axis-grid" pointer-events="none"><line transform="translate(0,-250)" x2="0" y2="250" stroke="#ddd" stroke-width="1" opacity="1"/><line transform="translate(33,-250)" x2="0" y2="250" stroke="#ddd" stroke-width="1" opacity="1"/><line transform="translate(67,-250)" x2="0" y2="250" stroke="#ddd" stroke-width="1" opacity="1"/><line transform="translate(100,-250)" x2="0" y2="250" stroke="#ddd" stroke-width="1" opacity="1"/><line transform="translate(133,-250)" x2="0" y2="250" stroke="#ddd" stroke-width="1" opacity="1"/><line transform="translate(167,-250)" x2="0" y2="250" stroke="#ddd" stroke-width="1" opacity="1"/><line transform="translate(200,-250)" x2="0" y2="250" stroke="#ddd" stroke-width="1" opacity="1"/><line transform="translate(233,-250)" x2="0" y2="250" stroke="#ddd" stroke-width="1" opacity="1"/><line transform="translate(267,-250)" x2="0" y2="250" stroke="#ddd" stroke-width="1" opacity="1"/><line transform="translate(300,-250)" x2="0" y2="250" stroke="#ddd" stroke-width="1" opacity="1"/><line transform="translate(333,-250)" x2="0" y2="250" stroke="#ddd" stroke-width="1" opacity="1"/><line transform="translate(367,-250)" x2="0" y2="250" stroke="#ddd" stroke-width="1" opacity="1"/><line transform="translate(400,-250)" x2="0" y2="250" stroke="#ddd" stroke-width="1" opacity="1"/><line transform="translate(433,-250)" x2="0" y2="250" stroke="#ddd" stroke-width="1" opacity="1"/><line transform="translate(467,-250)" x2="0" y2="250" stroke="#ddd" stroke-width="1" opacity="1"/><line transform="translate(500,-250)" x2="0" y2="250" stroke="#ddd" stroke-width="1" opacity="1"/></g></g><path class="foreground" aria-hidden="true" d="" pointer-events="none" display="none"/></g></g><g class="mark-group role-axis" aria-hidden="true"><g transform="translate(0.5,0.5)"><path class="background" aria-hidden="true" d="M0,0h0v0h0Z" pointer-events="none"/><g><g class="mark-rule role-axis-grid" pointer-events="none"><line transform="translate(0,225)" x2="500" y2="0" stroke="#ddd" stroke-width="1" opacity="1"/><line transform="translate(0,175)" x2="500" y2="0" stroke="#ddd" stroke-width="1" opacity="1"/><line transform="translate(0,125)" x2="500" y2="0" stroke="#ddd" stroke-width="1" opacity="1"/><line transform="translate(0,75)" x2="500" y2="0" stroke="#ddd" stroke-width="1" opacity="1"/><line transform="translate(0,25)" x2="500" y2="0" stroke="#ddd" stroke-width="1" opacity="1"/></g></g><path class="foreground" aria-hidden="true" d="" pointer-events="none" display="none"/></g></g><g class="mark-group role-axis" role="graphics-symbol" aria-roledescription="axis" aria-label="X-axis titled 'Time (days)' for a linear scale with values from 0 to 30"><g transform="translate(0.5,250.5)"><path class="background" aria-hidden="true" d="M0,0h0v0h0Z" pointer-events="none"/><g><g class="mark-rule role-axis-tick" pointer-events="none"><line transform="translate(0,0)" x2="0" y2="5" stroke="#888" stroke-width="1" opacity="1"/><line transform="translate(33,0)" x2="0" y2="5" stroke="#888" stroke-width="1" opacity="1"/><line transform="translate(67,0)" x2="0" y2="5" stroke="#888" stroke-width="1" opacity="1"/><line transform="translate(100,0)" x2="0" y2="5" stroke="#888" stroke-width="1" opacity="1"/><line transform="translate(133,0)" x2="0" y2="5" stroke="#888" stroke-width="1" opacity="1"/><line transform="translate(167,0)" x2="0" y2="5" stroke="#888" stroke-width="1" opacity="1"/><line transform="translate(200,0)" x2="0" y2="5" stroke="#888" stroke-width="1" opacity="1"/><line transform="translate(233,0)" x2="0" y2="5" stroke="#888" stroke-width="1" opacity="1"/><line transform="translate(267,0)" x2="0" y2="5" stroke="#888" stroke-width="1" opacity="1"/><line transform="translate(300,0)" x2="0" y2="5" stroke="#888" stroke-width="1" opacity="1"/><line transform="translate(333,0)" x2="0" y2="5" stroke="#888" stroke-width="1" opacity="1"/><line transform="translate(367,0)" x2="0" y2="5" stroke="#888" stroke-width="1" opacity="1"/><line transform="translate(400,0)" x2="0" y2="5" stroke="#888" stroke-width="1" opacity="1"/><line transform="translate(433,0)" x2="0" y2="5" stroke="#888" stroke-width="1" opacity="1"/><line transform="translate(467,0)" x2="0" y2="5" stroke="#888" stroke-width="1" opacity="1"/><line transform="translate(500,0)" x2="0" y2="5" stroke="#888" stroke-width="1" opacity="1"/></g><g class="mark-text role-axis-label" pointer-events="none"><text text-anchor="start" transform="translate(0,15)" font-family="sans-serif" font-size="10px" fill="#000" opacity="1">0</text><text text-anchor="middle" transform="translate(33.333333333333336,15)" font-family="sans-serif" font-size="10px" fill="#000" opacity="1">2</text><text text-anchor="middle" transform="translate(66.66666666666667,15)" font-family="sans-serif" font-size="10px" fill="#000" opacity="1">4</text><text text-anchor="middle" transform="translate(100,15)" font-family="sans-serif" font-size="10px" fill="#000" opacity="1">6</text><text text-anchor="middle" transform="translate(133.33333333333334,15)" font-family="sans-serif" font-size="10px" fill="#000" opacity="1">8</text><text text-anchor="middle" transform="translate(166.66666666666666,15)" font-family="sans-serif" font-size="10px" fill="#000" opacity="1">10</text><text text-anchor="middle" transform="translate(200,15)" font-family="sans-serif" font-size="10px" fill="#000" opacity="1">12</text><text text-anchor="middle" transform="translate(233.33333333333334,15)" font-family="sans-serif" font-size="10px" fill="#000" opacity="1">14</text><text text-anchor="middle" transform="translate(266.6666666666667,15)" font-family="sans-serif" font-size="10px" fill="#000" opacity="1">16</text><text text-anchor="middle" transform="translate(300,15)" font-family="sans-serif" font-size="10px" fill="#000" opacity="1">18</text><text text-anchor="middle" transform="translate(333.3333333333333,15)" font-family="sans-serif" font-size="10px" fill="#000" opacity="1">20</text><text text-anchor="middle" transform="translate(366.66666666666663,15)" font-family="sans-serif" font-size="10px" fill="#000" opacity="1">22</text><text text-anchor="middle" transform="translate(400,15)" font-family="sans-serif" font-size="10px" fill="#000" opacity="1">24</text><text text-anchor="middle" transform="translate(433.33333333333337,15)" font-family="sans-serif" font-size="10px" fill="#000" opacity="1">26</text><text text-anchor="middle" transform="translate(466.6666666666667,15)" font-family="sans-serif" font-size="10px" fill="#000" opacity="1">28</text><text text-anchor="end" transform="translate(500,15)" font-family="sans-serif" font-size="10px" fill="#000" opacity="1">30</text></g><g class="mark-rule role-axis-domain" pointer-events="none"><line transform="translate(0,0)" x2="500" y2="0" stroke="#888" stroke-width="1" opacity="1"/></g><g class="mark-text role-axis-title" pointer-events="none"><text text-anchor="middle" transform="translate(250,30)" font-family="sans-serif" font-size="11px" font-weight="bold" fill="#000" opacity="1">Time (days)</text></g></g><path class="foreground" aria-hidden="true" d="" pointer-events="none" display="none"/></g></g><g class="mark-group role-axis" role="graphics-symbol" aria-roledescription="axis" aria-label="Y-axis titled 'Radial velocity (m/s)' for a linear scale with values from −25 to 25"><g transform="translate(0.5,0.5)"><path class="background" aria-hidden="true" d="M0,0h0v0h0Z" pointer-events="none"/><g><g class="mark-rule role-axis-tick" pointer-events="none"><line transform="translate(0,225)" x2="-5" y2="0" stroke="#888" stroke-width="1" opacity="1"/><line transform="translate(0,175)" x2="-5" y2="0" stroke="#888" stroke-width="1" opacity="1"/><line transform="translate(0,125)" x2="-5" y2="0" stroke="#888" stroke-width="1" opacity="1"/><line transform="translate(0,75)" x2="-5" y2="0" stroke="#888" stroke-width="1" opacity="1"/><line transform="translate(0,25)" x2="-5" y2="0" stroke="#888" stroke-width="1" opacity="1"/></g><g class="mark-text role-axis-label" pointer-events="none"><text text-anchor="end" transform="translate(-7,228)" font-family="sans-serif" font-size="10px" fill="#000" opacity="1">−20</text><text text-anchor="end" transform="translate(-7,178)" font-family="sans-serif" font-size="10px" fill="#000" opacity="1">−10</text><text text-anchor="end" transform="translate(-7,128)" font-family="sans-serif" font-size="10px" fill="#000" opacity="1">0</text><text text-anchor="end" transform="translate(-7,78.00000000000001)" font-family="sans-serif" font-size="10px" fill="#000" opacity="1">10</text><text text-anchor="end" transform="translate(-7,27.999999999999993)" font-family="sans-serif" font-size="10px" fill="#000" opacity="1">20</text></g><g class="mark-rule role-axis-domain" pointer-events="none"><line transform="translate(0,250)" x2="0" y2="-250" stroke="#888" stroke-width="1" opacity="1"/></g><g class="mark-text role-axis-title" pointer-events="none"><text text-anchor="middle" transform="translate(-27.962890625,125) rotate(-90) translate(0,-2)" font-family="sans-serif" font-size="11px" font-weight="bold" fill="#000" opacity="1">Radial velocity (m/s)</text></g></g><path class="foreground" aria-hidden="true" d="" pointer-events="none" display="none"/></g></g><g class="mark-symbol role-mark layer_0_marks" role="graphics-object" aria-roledescription="symbol mark container"><path aria-label="Time (days): 0.0821550051044; Radial velocity (m/s): 3.57380410659" role="graphics-symbol" aria-roledescription="point" transform="translate(1.3692500850740474,107.13097946705219)" d="M3.162,0A3.162,3.162,0,1,1,-3.162,0A3.162,3.162,0,1,1,3.162,0" stroke="steelblue" stroke-width="2" opacity="0.8"/><path aria-label="Time (days): 0.495829065856; Radial velocity (m/s): −12.0831863228" role="graphics-symbol" aria-roledescription="point" transform="translate(8.263817764264548,185.4159316141086)" d="M3.162,0A3.162,3.162,0,1,1,-3.162,0A3.162,3.162,0,1,1,3.162,0" stroke="steelblue" stroke-width="2" opacity="0.8"/><path aria-label="Time (days): 0.849590134364; Radial velocity (m/s): −0.0445413312008" role="graphics-symbol" aria-roledescription="point" transform="translate(14.159835572731483,125.22270665600416)" d="M3.162,0A3.162,3.162,0,1,1,-3.162,0A3.162,3.162,0,1,1,3.162,0" stroke="steelblue" stroke-width="2" opacity="0.8"/><path aria-label="Time (days): 1.00756725916; Radial velocity (m/s): 6.56474935076" role="graphics-symbol" aria-roledescription="point" transform="translate(16.792787652732176,92.17625324618322)" d="M3.162,0A3.162,3.162,0,1,1,-3.162,0A3.162,3.162,0,1,1,3.162,0" stroke="steelblue" stroke-width="2" opacity="0.8"/><path aria-label="Time (days): 1.22920571809; Radial velocity (m/s): −12.8836146375" role="graphics-symbol" aria-roledescription="point" transform="translate(20.486761968097344,189.41807318747772)" d="M3.162,0A3.162,3.162,0,1,1,-3.162,0A3.162,3.162,0,1,1,3.162,0" stroke="steelblue" stroke-width="2" opacity="0.8"/><path aria-label="Time (days): 2.52046030747; Radial velocity (m/s): 3.95122060182" role="graphics-symbol" aria-roledescription="point" transform="translate(42.00767179119242,105.24389699089959)" d="M3.162,0A3.162,3.162,0,1,1,-3.162,0A3.162,3.162,0,1,1,3.162,0" stroke="steelblue" stroke-width="2" opacity="0.8"/><path aria-label="Time (days): 3.72849829499; Radial velocity (m/s): 4.29863694822" role="graphics-symbol" aria-roledescription="point" transform="translate(62.14163824978198,103.5068152588885)" d="M3.162,0A3.162,3.162,0,1,1,-3.162,0A3.162,3.162,0,1,1,3.162,0" stroke="steelblue" stroke-width="2" opacity="0.8"/><path aria-label="Time (days): 4.05289515067; Radial velocity (m/s): 6.96042723963" role="graphics-symbol" aria-roledescription="point" transform="translate(67.5482525112056,90.19786380185657)" d="M3.162,0A3.162,3.162,0,1,1,-3.162,0A3.162,3.162,0,1,1,3.162,0" stroke="steelblue" stroke-width="2" opacity="0.8"/><path aria-label="Time (days): 5.26966861808; Radial velocity (m/s): −11.8411796676" role="graphics-symbol" aria-roledescription="point" transform="translate(87.82781030127951,184.20589833785945)" d="M3.162,0A3.162,3.162,0,1,1,-3.162,0A3.162,3.162,0,1,1,3.162,0" stroke="steelblue" stroke-width="2" opacity="0.8"/><path aria-label="Time (days): 6.814727806; Radial velocity (m/s): −6.61702572039" role="graphics-symbol" aria-roledescription="point" transform="translate(113.57879676668986,158.08512860195174)" d="M3.162,0A3.162,3.162,0,1,1,-3.162,0A3.162,3.162,0,1,1,3.162,0" stroke="steelblue" stroke-width="2" opacity="0.8"/><path aria-label="Time (days): 8.09360141292; Radial velocity (m/s): −4.36435247143" role="graphics-symbol" aria-roledescription="point" transform="translate(134.89335688193515,146.82176235716105)" d="M3.162,0A3.162,3.162,0,1,1,-3.162,0A3.162,3.162,0,1,1,3.162,0" stroke="steelblue" stroke-width="2" opacity="0.8"/><path aria-label="Time (days): 8.99135671612; Radial velocity (m/s): −11.6980190777" role="graphics-symbol" aria-roledescription="point" transform="translate(149.85594526869238,183.4900953886432)" d="M3.162,0A3.162,3.162,0,1,1,-3.162,0A3.162,3.162,0,1,1,3.162,0" stroke="steelblue" stroke-width="2" opacity="0.8"/><path aria-label="Time (days): 9.30725626677; Radial velocity (m/s): 17.3936787713" role="graphics-symbol" aria-roledescription="point" transform="translate(155.12093777947783,38.0316061434933)" d="M3.162,0A3.162,3.162,0,1,1,-3.162,0A3.162,3.162,0,1,1,3.162,0" stroke="steelblue" stroke-width="2" opacity="0.8"/><path aria-label="Time (days): 9.65608173228; Radial velocity (m/s): −4.95910728442" role="graphics-symbol" aria-roledescription="point" transform="translate(160.93469553797107,149.7955364221076)" d="M3.162,0A3.162,3.162,0,1,1,-3.162,0A3.162,3.162,0,1,1,3.162,0" stroke="steelblue" stroke-width="2" opacity="0.8"/><path aria-label="Time (days): 10.1373367652; Radial velocity (m/s): 3.2896962946" role="graphics-symbol" aria-roledescription="point" transform="translate(168.95561275356664,108.55151852698991)" d="M3.162,0A3.162,3.162,0,1,1,-3.162,0A3.162,3.162,0,1,1,3.162,0" stroke="steelblue" stroke-width="2" opacity="0.8"/><path aria-label="Time (days): 10.7338559013; Radial velocity (m/s): −2.58572545474" role="graphics-symbol" aria-roledescription="point" transform="translate(178.89759835453515,137.9286272736962)" d="M3.162,0A3.162,3.162,0,1,1,-3.162,0A3.162,3.162,0,1,1,3.162,0" stroke="steelblue" stroke-width="2" opacity="0.8"/><path aria-label="Time (days): 11.5103266279; Radial velocity (m/s): 15.834728788" role="graphics-symbol" aria-roledescription="point" transform="translate(191.8387771309417,45.82635605989388)" d="M3.162,0A3.162,3.162,0,1,1,-3.162,0A3.162,3.162,0,1,1,3.162,0" stroke="steelblue" stroke-width="2" opacity="0.8"/><path aria-label="Time (days): 11.6676427194; Radial velocity (m/s): 13.2036098708" role="graphics-symbol" aria-roledescription="point" transform="translate(194.4607119895519,58.98195064590806)" d="M3.162,0A3.162,3.162,0,1,1,-3.162,0A3.162,3.162,0,1,1,3.162,0" stroke="steelblue" stroke-width="2" opacity="0.8"/><path aria-label="Time (days): 11.7485700158; Radial velocity (m/s): 6.33352622825" role="graphics-symbol" aria-roledescription="point" transform="translate(195.8095002640806,93.33236885875424)" d="M3.162,0A3.162,3.162,0,1,1,-3.162,0A3.162,3.162,0,1,1,3.162,0" stroke="steelblue" stroke-width="2" opacity="0.8"/><path aria-label="Time (days): 12.6806166359; Radial velocity (m/s): −22.0350988065" role="graphics-symbol" aria-roledescription="point" transform="translate(211.34361059882923,235.17549403233255)" d="M3.162,0A3.162,3.162,0,1,1,-3.162,0A3.162,3.162,0,1,1,3.162,0" stroke="steelblue" stroke-width="2" opacity="0.8"/><path aria-label="Time (days): 14.575060765; Radial velocity (m/s): 0.520289742599" role="graphics-symbol" aria-roledescription="point" transform="translate(242.91767941589453,122.39855128700566)" d="M3.162,0A3.162,3.162,0,1,1,-3.162,0A3.162,3.162,0,1,1,3.162,0" stroke="steelblue" stroke-width="2" opacity="0.8"/><path aria-label="Time (days): 15.7606296743; Radial velocity (m/s): 6.83686190777" role="graphics-symbol" aria-roledescription="point" transform="translate(262.67716123786295,90.81569046117328)" d="M3.162,0A3.162,3.162,0,1,1,-3.162,0A3.162,3.162,0,1,1,3.162,0" stroke="steelblue" stroke-width="2" opacity="0.8"/><path aria-label="Time (days): 16.2438366075; Radial velocity (m/s): 10.0396157584" role="graphics-symbol" aria-roledescription="point" transform="translate(270.7306101245459,74.80192120789152)" d="M3.162,0A3.162,3.162,0,1,1,-3.162,0A3.162,3.162,0,1,1,3.162,0" stroke="steelblue" stroke-width="2" opacity="0.8"/><path aria-label="Time (days): 16.308749744; Radial velocity (m/s): −6.17907044708" role="graphics-symbol" aria-roledescription="point" transform="translate(271.81249573271145,155.89535223538005)" d="M3.162,0A3.162,3.162,0,1,1,-3.162,0A3.162,3.162,0,1,1,3.162,0" stroke="steelblue" stroke-width="2" opacity="0.8"/><path aria-label="Time (days): 17.1458949219; Radial velocity (m/s): 18.2201136333" role="graphics-symbol" aria-roledescription="point" transform="translate(285.7649153648805,33.89943183358382)" d="M3.162,0A3.162,3.162,0,1,1,-3.162,0A3.162,3.162,0,1,1,3.162,0" stroke="steelblue" stroke-width="2" opacity="0.8"/><path aria-label="Time (days): 17.829000906; Radial velocity (m/s): −13.2043097001" role="graphics-symbol" aria-roledescription="point" transform="translate(297.1500150998484,191.02154850066466)" d="M3.162,0A3.162,3.162,0,1,1,-3.162,0A3.162,3.162,0,1,1,3.162,0" stroke="steelblue" stroke-width="2" opacity="0.8"/><path aria-label="Time (days): 18.199073273; Radial velocity (m/s): −6.61528021815" role="graphics-symbol" aria-roledescription="point" transform="translate(303.31788788358995,158.07640109076092)" d="M3.162,0A3.162,3.162,0,1,1,-3.162,0A3.162,3.162,0,1,1,3.162,0" stroke="steelblue" stroke-width="2" opacity="0.8"/><path aria-label="Time (days): 18.4615533444; Radial velocity (m/s): 9.35049988114" role="graphics-symbol" aria-roledescription="point" transform="translate(307.6925557406269,78.24750059429888)" d="M3.162,0A3.162,3.162,0,1,1,-3.162,0A3.162,3.162,0,1,1,3.162,0" stroke="steelblue" stroke-width="2" opacity="0.8"/><path aria-label="Time (days): 18.6956143406; Radial velocity (m/s): 0.490546138253" role="graphics-symbol" aria-roledescription="point" transform="translate(311.5935723430212,122.54726930873441)" d="M3.162,0A3.162,3.162,0,1,1,-3.162,0A3.162,3.162,0,1,1,3.162,0" stroke="steelblue" stroke-width="2" opacity="0.8"/><path aria-label="Time (days): 19.1088506196; Radial velocity (m/s): 20.0239258365" role="graphics-symbol" aria-roledescription="point" transform="translate(318.48084366072715,24.88037081773725)" d="M3.162,0A3.162,3.162,0,1,1,-3.162,0A3.162,3.162,0,1,1,3.162,0" stroke="steelblue" stroke-width="2" opacity="0.8"/><path aria-label="Time (days): 19.4156853472; Radial velocity (m/s): 1.88519192512" role="graphics-symbol" aria-roledescription="point" transform="translate(323.59475578712505,115.57404037437671)" d="M3.162,0A3.162,3.162,0,1,1,-3.162,0A3.162,3.162,0,1,1,3.162,0" stroke="steelblue" stroke-width="2" opacity="0.8"/><path aria-label="Time (days): 19.513778288; Radial velocity (m/s): −6.33194090192" role="graphics-symbol" aria-roledescription="point" transform="translate(325.2296381339081,156.65970450961134)" d="M3.162,0A3.162,3.162,0,1,1,-3.162,0A3.162,3.162,0,1,1,3.162,0" stroke="steelblue" stroke-width="2" opacity="0.8"/><path aria-label="Time (days): 20.1187324408; Radial velocity (m/s): −3.77563505233" role="graphics-symbol" aria-roledescription="point" transform="translate(335.31220734681517,143.87817526164042)" d="M3.162,0A3.162,3.162,0,1,1,-3.162,0A3.162,3.162,0,1,1,3.162,0" stroke="steelblue" stroke-width="2" opacity="0.8"/><path aria-label="Time (days): 20.5662595344; Radial velocity (m/s): −10.9114611762" role="graphics-symbol" aria-roledescription="point" transform="translate(342.77099224034737,179.55730588095977)" d="M3.162,0A3.162,3.162,0,1,1,-3.162,0A3.162,3.162,0,1,1,3.162,0" stroke="steelblue" stroke-width="2" opacity="0.8"/><path aria-label="Time (days): 20.6534019171; Radial velocity (m/s): −12.7768016639" role="graphics-symbol" aria-roledescription="point" transform="translate(344.22336528547004,188.88400831933038)" d="M3.162,0A3.162,3.162,0,1,1,-3.162,0A3.162,3.162,0,1,1,3.162,0" stroke="steelblue" stroke-width="2" opacity="0.8"/><path aria-label="Time (days): 21.6446502058; Radial velocity (m/s): 6.30411490768" role="graphics-symbol" aria-roledescription="point" transform="translate(360.74417009704086,93.4794254615884)" d="M3.162,0A3.162,3.162,0,1,1,-3.162,0A3.162,3.162,0,1,1,3.162,0" stroke="steelblue" stroke-width="2" opacity="0.8"/><path aria-label="Time (days): 21.8848968295; Radial velocity (m/s): 5.81165812413" role="graphics-symbol" aria-roledescription="point" transform="translate(364.7482804919992,95.9417093793597)" d="M3.162,0A3.162,3.162,0,1,1,-3.162,0A3.162,3.162,0,1,1,3.162,0" stroke="steelblue" stroke-width="2" opacity="0.8"/><path aria-label="Time (days): 21.8896633929; Radial velocity (m/s): 12.9455881944" role="graphics-symbol" aria-roledescription="point" transform="translate(364.827723214972,60.27205902794414)" d="M3.162,0A3.162,3.162,0,1,1,-3.162,0A3.162,3.162,0,1,1,3.162,0" stroke="steelblue" stroke-width="2" opacity="0.8"/><path aria-label="Time (days): 24.398107176; Radial velocity (m/s): −7.5460579126" role="graphics-symbol" aria-roledescription="point" transform="translate(406.6351196001362,162.73028956299657)" d="M3.162,0A3.162,3.162,0,1,1,-3.162,0A3.162,3.162,0,1,1,3.162,0" stroke="steelblue" stroke-width="2" opacity="0.8"/><path aria-label="Time (days): 24.4756066236; Radial velocity (m/s): 16.8910745244" role="graphics-symbol" aria-roledescription="point" transform="translate(407.9267770607661,40.54462737781633)" d="M3.162,0A3.162,3.162,0,1,1,-3.162,0A3.162,3.162,0,1,1,3.162,0" stroke="steelblue" stroke-width="2" opacity="0.8"/><path aria-label="Time (days): 24.9793244296; Radial velocity (m/s): −2.87387707809" role="graphics-symbol" aria-roledescription="point" transform="translate(416.3220738266989,139.3693853904333)" d="M3.162,0A3.162,3.162,0,1,1,-3.162,0A3.162,3.162,0,1,1,3.162,0" stroke="steelblue" stroke-width="2" opacity="0.8"/><path aria-label="Time (days): 25.7221282976; Radial velocity (m/s): 15.7440827884" role="graphics-symbol" aria-roledescription="point" transform="translate(428.7021382937847,46.27958605777066)" d="M3.162,0A3.162,3.162,0,1,1,-3.162,0A3.162,3.162,0,1,1,3.162,0" stroke="steelblue" stroke-width="2" opacity="0.8"/><path aria-label="Time (days): 25.8953676705; Radial velocity (m/s): −4.32785847183" role="graphics-symbol" aria-roledescription="point" transform="translate(431.58946117494327,146.63929235912985)" d="M3.162,0A3.162,3.162,0,1,1,-3.162,0A3.162,3.162,0,1,1,3.162,0" stroke="steelblue" stroke-width="2" opacity="0.8"/><path aria-label="Time (days): 26.6846350305; Radial velocity (m/s): −7.35483292342" role="graphics-symbol" aria-roledescription="point" transform="translate(444.7439171745001,161.77416461711374)" d="M3.162,0A3.162,3.162,0,1,1,-3.162,0A3.162,3.162,0,1,1,3.162,0" stroke="steelblue" stroke-width="2" opacity="0.8"/><path aria-label="Time (days): 26.7082305601; Radial velocity (m/s): 2.49785371559" role="graphics-symbol" aria-roledescription="point" transform="translate(445.1371760023962,112.51073142206666)" d="M3.162,0A3.162,3.162,0,1,1,-3.162,0A3.162,3.162,0,1,1,3.162,0" stroke="steelblue" stroke-width="2" opacity="0.8"/><path aria-label="Time (days): 27.3826673183; Radial velocity (m/s): 10.3145308487" role="graphics-symbol" aria-roledescription="point" transform="translate(456.37778863886086,73.42734575652638)" d="M3.162,0A3.162,3.162,0,1,1,-3.162,0A3.162,3.162,0,1,1,3.162,0" stroke="steelblue" stroke-width="2" opacity="0.8"/><path aria-label="Time (days): 28.0213054787; Radial velocity (m/s): 1.61009576715" role="graphics-symbol" aria-roledescription="point" transform="translate(467.02175797812487,116.94952116423276)" d="M3.162,0A3.162,3.162,0,1,1,-3.162,0A3.162,3.162,0,1,1,3.162,0" stroke="steelblue" stroke-width="2" opacity="0.8"/><path aria-label="Time (days): 28.0521727136; Radial velocity (m/s): −5.85528824123" role="graphics-symbol" aria-roledescription="point" transform="translate(467.5362118938841,154.27644120616685)" d="M3.162,0A3.162,3.162,0,1,1,-3.162,0A3.162,3.162,0,1,1,3.162,0" stroke="steelblue" stroke-width="2" opacity="0.8"/><path aria-label="Time (days): 29.4250601633; Radial velocity (m/s): −13.4121971408" role="graphics-symbol" aria-roledescription="point" transform="translate(490.417669388115,192.06098570383347)" d="M3.162,0A3.162,3.162,0,1,1,-3.162,0A3.162,3.162,0,1,1,3.162,0" stroke="steelblue" stroke-width="2" opacity="0.8"/><path aria-label="Time (days): 29.9162980737; Radial velocity (m/s): −14.0152021492" role="graphics-symbol" aria-roledescription="point" transform="translate(498.6049678946055,195.0760107458714)" d="M3.162,0A3.162,3.162,0,1,1,-3.162,0A3.162,3.162,0,1,1,3.162,0" stroke="steelblue" stroke-width="2" opacity="0.8"/></g><g class="mark-line role-mark layer_1_marks" role="graphics-object" aria-roledescription="line mark container"><path aria-label="t: 0.0821550051044; rv: 0.00900864376939" role="graphics-symbol" aria-roledescription="line mark" d="M1.369,124.955L2.615,124.433L3.862,123.907L5.108,123.377L6.354,122.844L7.6,122.31L8.846,121.775L10.093,121.241L11.339,120.708L12.585,120.178L13.831,119.651L15.078,119.129L16.324,118.613L17.57,118.104L18.816,117.602L20.062,117.108L21.309,116.625L22.555,116.152L23.801,115.69L25.047,115.241L26.293,114.805L27.54,114.384L28.786,113.977L30.032,113.586L31.278,113.212L32.524,112.855L33.771,112.516L35.017,112.195L36.263,111.894L37.509,111.612L38.755,111.351L40.002,111.111L41.248,110.893L42.494,110.696L43.74,110.521L44.986,110.369L46.233,110.239L47.479,110.133L48.725,110.05L49.971,109.991L51.217,109.955L52.464,109.942L53.71,109.954L54.956,109.989L56.202,110.047L57.448,110.13L58.695,110.235L59.941,110.363L61.187,110.515L62.433,110.689L63.679,110.885L64.926,111.103L66.172,111.342L67.418,111.602L68.664,111.883L69.911,112.183L71.157,112.503L72.403,112.842L73.649,113.198L74.895,113.572L76.142,113.962L77.388,114.368L78.634,114.789L79.88,115.225L81.126,115.673L82.373,116.134L83.619,116.607L84.865,117.09L86.111,117.583L87.357,118.085L88.604,118.594L89.85,119.11L91.096,119.632L92.342,120.158L93.588,120.688L94.835,121.221L96.081,121.755L97.327,122.29L98.573,122.824L99.819,123.357L101.066,123.887L102.312,124.414L103.558,124.935L104.804,125.452L106.05,125.961L107.297,126.463L108.543,126.956L109.789,127.439L111.035,127.912L112.281,128.373L113.528,128.822L114.774,129.257L116.02,129.679L117.266,130.085L118.513,130.476L119.759,130.85L121.005,131.206L122.251,131.545L123.497,131.865L124.744,132.166L125.99,132.447L127.236,132.707L128.482,132.947L129.728,133.165L130.975,133.362L132.221,133.536L133.467,133.688L134.713,133.816L135.959,133.922L137.206,134.004L138.452,134.063L139.698,134.099L140.944,134.111L142.19,134.099L143.437,134.063L144.683,134.004L145.929,133.921L147.175,133.815L148.421,133.686L149.668,133.535L150.914,133.36L152.16,133.164L153.406,132.945L154.652,132.705L155.899,132.445L157.145,132.164L158.391,131.863L159.637,131.542L160.883,131.203L162.13,130.847L163.376,130.472L164.622,130.082L165.868,129.675L167.114,129.254L168.361,128.818L169.607,128.369L170.853,127.908L172.099,127.435L173.346,126.952L174.592,126.459L175.838,125.957L177.084,125.447L178.33,124.931L179.577,124.409L180.823,123.883L182.069,123.353L183.315,122.82L184.561,122.286L185.808,121.751L187.054,121.217L188.3,120.684L189.546,120.154L190.792,119.627L192.039,119.106L193.285,118.59L194.531,118.08L195.777,117.579L197.023,117.086L198.27,116.603L199.516,116.131L200.762,115.67L202.008,115.221L203.254,114.786L204.501,114.365L205.747,113.959L206.993,113.569L208.239,113.195L209.485,112.839L210.732,112.501L211.978,112.181L213.224,111.88L214.47,111.6L215.716,111.34L216.963,111.101L218.209,110.883L219.455,110.687L220.701,110.513L221.948,110.362L223.194,110.234L224.44,110.129L225.686,110.047L226.932,109.988L228.179,109.954L229.425,109.942L230.671,109.955L231.917,109.991L233.163,110.051L234.41,110.134L235.656,110.24L236.902,110.37L238.148,110.522L239.394,110.697L240.641,110.894L241.887,111.113L243.133,111.353L244.379,111.615L245.625,111.896L246.872,112.198L248.118,112.518L249.364,112.858L250.61,113.215L251.856,113.589L253.103,113.98L254.349,114.387L255.595,114.809L256.841,115.245L258.087,115.694L259.334,116.156L260.58,116.629L261.826,117.112L263.072,117.606L264.318,118.108L265.565,118.617L266.811,119.134L268.057,119.656L269.303,120.182L270.549,120.712L271.796,121.245L273.042,121.78L274.288,122.314L275.534,122.849L276.781,123.381L278.027,123.911L279.273,124.438L280.519,124.959L281.765,125.475L283.012,125.984L284.258,126.485L285.504,126.978L286.75,127.461L287.996,127.933L289.243,128.394L290.489,128.842L291.735,129.277L292.981,129.698L294.227,130.103L295.474,130.493L296.72,130.866L297.966,131.222L299.212,131.56L300.458,131.879L301.705,132.179L302.951,132.459L304.197,132.719L305.443,132.957L306.689,133.175L307.936,133.37L309.182,133.543L310.428,133.694L311.674,133.822L312.92,133.926L314.167,134.008L315.413,134.066L316.659,134.1L317.905,134.111L319.151,134.098L320.398,134.061L321.644,134.001L322.89,133.917L324.136,133.81L325.382,133.68L326.629,133.527L327.875,133.352L329.121,133.154L330.367,132.935L331.614,132.694L332.86,132.432L334.106,132.15L335.352,131.848L336.598,131.527L337.845,131.188L339.091,130.83L340.337,130.455L341.583,130.064L342.829,129.656L344.076,129.234L345.322,128.798L346.568,128.349L347.814,127.887L349.06,127.413L350.307,126.929L351.553,126.436L352.799,125.934L354.045,125.424L355.291,124.908L356.538,124.385L357.784,123.859L359.03,123.328L360.276,122.796L361.522,122.261L362.769,121.726L364.015,121.192L365.261,120.66L366.507,120.13L367.753,119.603L369,119.082L370.246,118.566L371.492,118.057L372.738,117.556L373.984,117.064L375.231,116.581L376.477,116.109L377.723,115.649L378.969,115.201L380.216,114.766L381.462,114.346L382.708,113.941L383.954,113.551L385.2,113.178L386.447,112.823L387.693,112.486L388.939,112.167L390.185,111.867L391.431,111.588L392.678,111.329L393.924,111.09L395.17,110.874L396.416,110.679L397.662,110.506L398.909,110.356L400.155,110.229L401.401,110.125L402.647,110.044L403.893,109.986L405.14,109.953L406.386,109.942L407.632,109.956L408.878,109.993L410.124,110.054L411.371,110.138L412.617,110.246L413.863,110.376L415.109,110.53L416.355,110.706L417.602,110.904L418.848,111.124L420.094,111.365L421.34,111.627L422.586,111.909L423.833,112.212L425.079,112.533L426.325,112.873L427.571,113.231L428.817,113.607L430.064,113.999L431.31,114.406L432.556,114.828L433.802,115.265L435.049,115.715L436.295,116.177L437.541,116.651L438.787,117.135L440.033,117.628L441.28,118.131L442.526,118.641L443.772,119.157L445.018,119.679L446.264,120.206L447.511,120.737L448.757,121.27L450.003,121.804L451.249,122.339L452.495,122.873L453.742,123.406L454.988,123.935L456.234,124.461L457.48,124.983L458.726,125.498L459.973,126.007L461.219,126.508L462.465,127L463.711,127.483L464.957,127.954L466.204,128.415L467.45,128.862L468.696,129.296L469.942,129.716L471.188,130.121L472.435,130.51L473.681,130.883L474.927,131.238L476.173,131.575L477.419,131.893L478.666,132.192L479.912,132.471L481.158,132.73L482.404,132.968L483.651,133.184L484.897,133.378L486.143,133.551L487.389,133.7L488.635,133.827L489.882,133.931L491.128,134.011L492.374,134.068L493.62,134.101L494.866,134.11L496.113,134.096L497.359,134.059L498.605,133.997" stroke="firebrick" stroke-width="2"/></g></g><path class="foreground" aria-hidden="true" d="" display="none"/></g></g></g></svg>