<?xml version="1.0" encoding="UTF-8"?>
<!DOCTYPE svg PUBLIC "-//W3C//DTD SVG 1.1//EN" "http://www.w3.org/Graphics/SVG/1.1/DTD/svg11.dtd">
<svg width="160mm" height="90mm" viewBox="0 0 16000 9000" version="1.1" xmlns="http://www.w3.org/2000/svg" xmlns:xlink="http://www.w3.org/1999/xlink" stroke-width="28.222" stroke-linejoin="round" xml:space="preserve">
 <path fill="rgb(255,255,255)" stroke="none" d="M 8000,8999 L 0,8999 0,0 15999,0 15999,8999 8000,8999 Z"/>
 <path fill="none" stroke="rgb(179,179,179)" stroke-linejoin="round" d="M 8833,8012 L 1987,8012 1987,372 15679,372 15679,8012 8833,8012 Z"/>
 <path fill="none" stroke="rgb(179,179,179)" stroke-linejoin="round" d="M 15679,8011 L 1987,8011"/>
 <path fill="none" stroke="rgb(179,179,179)" stroke-linejoin="round" d="M 15679,7162 L 1987,7162"/>
 <path fill="none" stroke="rgb(179,179,179)" stroke-linejoin="round" d="M 15679,6313 L 1987,6313"/>
 <path fill="none" stroke="rgb(179,179,179)" stroke-linejoin="round" d="M 15679,5464 L 1987,5464"/>
 <path fill="none" stroke="rgb(179,179,179)" stroke-linejoin="round" d="M 15679,4615 L 1987,4615"/>
 <path fill="none" stroke="rgb(179,179,179)" stroke-linejoin="round" d="M 15679,3767 L 1987,3767"/>
 <path fill="none" stroke="rgb(179,179,179)" stroke-linejoin="round" d="M 15679,2918 L 1987,2918"/>
 <path fill="none" stroke="rgb(179,179,179)" stroke-linejoin="round" d="M 15679,2069 L 1987,2069"/>
 <path fill="none" stroke="rgb(179,179,179)" stroke-linejoin="round" d="M 15679,1220 L 1987,1220"/>
 <path fill="none" stroke="rgb(179,179,179)" stroke-linejoin="round" d="M 15679,371 L 1987,371"/>
 <path fill="none" stroke="rgb(179,179,179)" stroke-linejoin="round" d="M 1987,8161 L 1987,8011"/>
 <path fill="none" stroke="rgb(179,179,179)" stroke-linejoin="round" d="M 1987,8161 L 1987,8011"/>
 <path fill="none" stroke="rgb(179,179,179)" stroke-linejoin="round" d="M 2231,8161 L 2231,8011"/>
 <path fill="none" stroke="rgb(179,179,179)" stroke-linejoin="round" d="M 2231,8161 L 2231,8011"/>
 <path fill="none" stroke="rgb(179,179,179)" stroke-linejoin="round" d="M 2476,8161 L 2476,8011"/>
 <path fill="none" stroke="rgb(179,179,179)" stroke-linejoin="round" d="M 2476,8161 L 2476,8011"/>
 <path fill="none" stroke="rgb(179,179,179)" stroke-linejoin="round" d="M 2720,8161 L 2720,8011"/>
 <path fill="none" stroke="rgb(179,179,179)" stroke-linejoin="round" d="M 2720,8161 L 2720,8011"/>
 <path fill="none" stroke="rgb(179,179,179)" stroke-linejoin="round" d="M 2965,8161 L 2965,8011"/>
 <path fill="none" stroke="rgb(179,179,179)" stroke-linejoin="round" d="M 2965,8161 L 2965,8011"/>
 <path fill="none" stroke="rgb(179,179,179)" stroke-linejoin="round" d="M 3209,8161 L 3209,8011"/>
 <path fill="none" stroke="rgb(179,179,179)" stroke-linejoin="round" d="M 3209,8161 L 3209,8011"/>
 <path fill="none" stroke="rgb(179,179,179)" stroke-linejoin="round" d="M 3454,8161 L 3454,8011"/>
 <path fill="none" stroke="rgb(179,179,179)" stroke-linejoin="round" d="M 3454,8161 L 3454,8011"/>
 <path fill="none" stroke="rgb(179,179,179)" stroke-linejoin="round" d="M 3698,8161 L 3698,8011"/>
 <path fill="none" stroke="rgb(179,179,179)" stroke-linejoin="round" d="M 3698,8161 L 3698,8011"/>
 <path fill="none" stroke="rgb(179,179,179)" stroke-linejoin="round" d="M 3943,8161 L 3943,8011"/>
 <path fill="none" stroke="rgb(179,179,179)" stroke-linejoin="round" d="M 3943,8161 L 3943,8011"/>
 <path fill="none" stroke="rgb(179,179,179)" stroke-linejoin="round" d="M 4187,8161 L 4187,8011"/>
 <path fill="none" stroke="rgb(179,179,179)" stroke-linejoin="round" d="M 4187,8161 L 4187,8011"/>
 <path fill="none" stroke="rgb(179,179,179)" stroke-linejoin="round" d="M 4432,8161 L 4432,8011"/>
 <path fill="none" stroke="rgb(179,179,179)" stroke-linejoin="round" d="M 4432,8161 L 4432,8011"/>
 <path fill="none" stroke="rgb(179,179,179)" stroke-linejoin="round" d="M 4676,8161 L 4676,8011"/>
 <path fill="none" stroke="rgb(179,179,179)" stroke-linejoin="round" d="M 4676,8161 L 4676,8011"/>
 <path fill="none" stroke="rgb(179,179,179)" stroke-linejoin="round" d="M 4921,8161 L 4921,8011"/>
 <path fill="none" stroke="rgb(179,179,179)" stroke-linejoin="round" d="M 4921,8161 L 4921,8011"/>
 <path fill="none" stroke="rgb(179,179,179)" stroke-linejoin="round" d="M 5165,8161 L 5165,8011"/>
 <path fill="none" stroke="rgb(179,179,179)" stroke-linejoin="round" d="M 5165,8161 L 5165,8011"/>
 <path fill="none" stroke="rgb(179,179,179)" stroke-linejoin="round" d="M 5410,8161 L 5410,8011"/>
 <path fill="none" stroke="rgb(179,179,179)" stroke-linejoin="round" d="M 5410,8161 L 5410,8011"/>
 <path fill="none" stroke="rgb(179,179,179)" stroke-linejoin="round" d="M 5654,8161 L 5654,8011"/>
 <path fill="none" stroke="rgb(179,179,179)" stroke-linejoin="round" d="M 5654,8161 L 5654,8011"/>
 <path fill="none" stroke="rgb(179,179,179)" stroke-linejoin="round" d="M 5899,8161 L 5899,8011"/>
 <path fill="none" stroke="rgb(179,179,179)" stroke-linejoin="round" d="M 5899,8161 L 5899,8011"/>
 <path fill="none" stroke="rgb(179,179,179)" stroke-linejoin="round" d="M 6143,8161 L 6143,8011"/>
 <path fill="none" stroke="rgb(179,179,179)" stroke-linejoin="round" d="M 6143,8161 L 6143,8011"/>
 <path fill="none" stroke="rgb(179,179,179)" stroke-linejoin="round" d="M 6388,8161 L 6388,8011"/>
 <path fill="none" stroke="rgb(179,179,179)" stroke-linejoin="round" d="M 6388,8161 L 6388,8011"/>
 <path fill="none" stroke="rgb(179,179,179)" stroke-linejoin="round" d="M 6632,8161 L 6632,8011"/>
 <path fill="none" stroke="rgb(179,179,179)" stroke-linejoin="round" d="M 6632,8161 L 6632,8011"/>
 <path fill="none" stroke="rgb(179,179,179)" stroke-linejoin="round" d="M 6877,8161 L 6877,8011"/>
 <path fill="none" stroke="rgb(179,179,179)" stroke-linejoin="round" d="M 6877,8161 L 6877,8011"/>
 <path fill="none" stroke="rgb(179,179,179)" stroke-linejoin="round" d="M 7121,8161 L 7121,8011"/>
 <path fill="none" stroke="rgb(179,179,179)" stroke-linejoin="round" d="M 7121,8161 L 7121,8011"/>
 <path fill="none" stroke="rgb(179,179,179)" stroke-linejoin="round" d="M 7366,8161 L 7366,8011"/>
 <path fill="none" stroke="rgb(179,179,179)" stroke-linejoin="round" d="M 7366,8161 L 7366,8011"/>
 <path fill="none" stroke="rgb(179,179,179)" stroke-linejoin="round" d="M 7610,8161 L 7610,8011"/>
 <path fill="none" stroke="rgb(179,179,179)" stroke-linejoin="round" d="M 7610,8161 L 7610,8011"/>
 <path fill="none" stroke="rgb(179,179,179)" stroke-linejoin="round" d="M 7855,8161 L 7855,8011"/>
 <path fill="none" stroke="rgb(179,179,179)" stroke-linejoin="round" d="M 7855,8161 L 7855,8011"/>
 <path fill="none" stroke="rgb(179,179,179)" stroke-linejoin="round" d="M 8098,8161 L 8098,8011"/>
 <path fill="none" stroke="rgb(179,179,179)" stroke-linejoin="round" d="M 8098,8161 L 8098,8011"/>
 <path fill="none" stroke="rgb(179,179,179)" stroke-linejoin="round" d="M 8343,8161 L 8343,8011"/>
 <path fill="none" stroke="rgb(179,179,179)" stroke-linejoin="round" d="M 8343,8161 L 8343,8011"/>
 <path fill="none" stroke="rgb(179,179,179)" stroke-linejoin="round" d="M 8587,8161 L 8587,8011"/>
 <path fill="none" stroke="rgb(179,179,179)" stroke-linejoin="round" d="M 8587,8161 L 8587,8011"/>
 <path fill="none" stroke="rgb(179,179,179)" stroke-linejoin="round" d="M 8832,8161 L 8832,8011"/>
 <path fill="none" stroke="rgb(179,179,179)" stroke-linejoin="round" d="M 8832,8161 L 8832,8011"/>
 <path fill="none" stroke="rgb(179,179,179)" stroke-linejoin="round" d="M 9077,8161 L 9077,8011"/>
 <path fill="none" stroke="rgb(179,179,179)" stroke-linejoin="round" d="M 9077,8161 L 9077,8011"/>
 <path fill="none" stroke="rgb(179,179,179)" stroke-linejoin="round" d="M 9321,8161 L 9321,8011"/>
 <path fill="none" stroke="rgb(179,179,179)" stroke-linejoin="round" d="M 9321,8161 L 9321,8011"/>
 <path fill="none" stroke="rgb(179,179,179)" stroke-linejoin="round" d="M 9566,8161 L 9566,8011"/>
 <path fill="none" stroke="rgb(179,179,179)" stroke-linejoin="round" d="M 9566,8161 L 9566,8011"/>
 <path fill="none" stroke="rgb(179,179,179)" stroke-linejoin="round" d="M 9810,8161 L 9810,8011"/>
 <path fill="none" stroke="rgb(179,179,179)" stroke-linejoin="round" d="M 9810,8161 L 9810,8011"/>
 <path fill="none" stroke="rgb(179,179,179)" stroke-linejoin="round" d="M 10055,8161 L 10055,8011"/>
 <path fill="none" stroke="rgb(179,179,179)" stroke-linejoin="round" d="M 10055,8161 L 10055,8011"/>
 <path fill="none" stroke="rgb(179,179,179)" stroke-linejoin="round" d="M 10299,8161 L 10299,8011"/>
 <path fill="none" stroke="rgb(179,179,179)" stroke-linejoin="round" d="M 10299,8161 L 10299,8011"/>
 <path fill="none" stroke="rgb(179,179,179)" stroke-linejoin="round" d="M 10544,8161 L 10544,8011"/>
 <path fill="none" stroke="rgb(179,179,179)" stroke-linejoin="round" d="M 10544,8161 L 10544,8011"/>
 <path fill="none" stroke="rgb(179,179,179)" stroke-linejoin="round" d="M 10788,8161 L 10788,8011"/>
 <path fill="none" stroke="rgb(179,179,179)" stroke-linejoin="round" d="M 10788,8161 L 10788,8011"/>
 <path fill="none" stroke="rgb(179,179,179)" stroke-linejoin="round" d="M 11033,8161 L 11033,8011"/>
 <path fill="none" stroke="rgb(179,179,179)" stroke-linejoin="round" d="M 11033,8161 L 11033,8011"/>
 <path fill="none" stroke="rgb(179,179,179)" stroke-linejoin="round" d="M 11277,8161 L 11277,8011"/>
 <path fill="none" stroke="rgb(179,179,179)" stroke-linejoin="round" d="M 11277,8161 L 11277,8011"/>
 <path fill="none" stroke="rgb(179,179,179)" stroke-linejoin="round" d="M 11522,8161 L 11522,8011"/>
 <path fill="none" stroke="rgb(179,179,179)" stroke-linejoin="round" d="M 11522,8161 L 11522,8011"/>
 <path fill="none" stroke="rgb(179,179,179)" stroke-linejoin="round" d="M 11766,8161 L 11766,8011"/>
 <path fill="none" stroke="rgb(179,179,179)" stroke-linejoin="round" d="M 11766,8161 L 11766,8011"/>
 <path fill="none" stroke="rgb(179,179,179)" stroke-linejoin="round" d="M 12011,8161 L 12011,8011"/>
 <path fill="none" stroke="rgb(179,179,179)" stroke-linejoin="round" d="M 12011,8161 L 12011,8011"/>
 <path fill="none" stroke="rgb(179,179,179)" stroke-linejoin="round" d="M 12255,8161 L 12255,8011"/>
 <path fill="none" stroke="rgb(179,179,179)" stroke-linejoin="round" d="M 12255,8161 L 12255,8011"/>
 <path fill="none" stroke="rgb(179,179,179)" stroke-linejoin="round" d="M 12500,8161 L 12500,8011"/>
 <path fill="none" stroke="rgb(179,179,179)" stroke-linejoin="round" d="M 12500,8161 L 12500,8011"/>
 <path fill="none" stroke="rgb(179,179,179)" stroke-linejoin="round" d="M 12744,8161 L 12744,8011"/>
 <path fill="none" stroke="rgb(179,179,179)" stroke-linejoin="round" d="M 12744,8161 L 12744,8011"/>
 <path fill="none" stroke="rgb(179,179,179)" stroke-linejoin="round" d="M 12989,8161 L 12989,8011"/>
 <path fill="none" stroke="rgb(179,179,179)" stroke-linejoin="round" d="M 12989,8161 L 12989,8011"/>
 <path fill="none" stroke="rgb(179,179,179)" stroke-linejoin="round" d="M 13233,8161 L 13233,8011"/>
 <path fill="none" stroke="rgb(179,179,179)" stroke-linejoin="round" d="M 13233,8161 L 13233,8011"/>
 <path fill="none" stroke="rgb(179,179,179)" stroke-linejoin="round" d="M 13478,8161 L 13478,8011"/>
 <path fill="none" stroke="rgb(179,179,179)" stroke-linejoin="round" d="M 13478,8161 L 13478,8011"/>
 <path fill="none" stroke="rgb(179,179,179)" stroke-linejoin="round" d="M 13722,8161 L 13722,8011"/>
 <path fill="none" stroke="rgb(179,179,179)" stroke-linejoin="round" d="M 13722,8161 L 13722,8011"/>
 <path fill="none" stroke="rgb(179,179,179)" stroke-linejoin="round" d="M 13967,8161 L 13967,8011"/>
 <path fill="none" stroke="rgb(179,179,179)" stroke-linejoin="round" d="M 13967,8161 L 13967,8011"/>
 <path fill="none" stroke="rgb(179,179,179)" stroke-linejoin="round" d="M 14211,8161 L 14211,8011"/>
 <path fill="none" stroke="rgb(179,179,179)" stroke-linejoin="round" d="M 14211,8161 L 14211,8011"/>
 <path fill="none" stroke="rgb(179,179,179)" stroke-linejoin="round" d="M 14456,8161 L 14456,8011"/>
 <path fill="none" stroke="rgb(179,179,179)" stroke-linejoin="round" d="M 14456,8161 L 14456,8011"/>
 <path fill="none" stroke="rgb(179,179,179)" stroke-linejoin="round" d="M 14700,8161 L 14700,8011"/>
 <path fill="none" stroke="rgb(179,179,179)" stroke-linejoin="round" d="M 14700,8161 L 14700,8011"/>
 <path fill="none" stroke="rgb(179,179,179)" stroke-linejoin="round" d="M 14945,8161 L 14945,8011"/>
 <path fill="none" stroke="rgb(179,179,179)" stroke-linejoin="round" d="M 14945,8161 L 14945,8011"/>
 <path fill="none" stroke="rgb(179,179,179)" stroke-linejoin="round" d="M 15189,8161 L 15189,8011"/>
 <path fill="none" stroke="rgb(179,179,179)" stroke-linejoin="round" d="M 15189,8161 L 15189,8011"/>
 <path fill="none" stroke="rgb(179,179,179)" stroke-linejoin="round" d="M 15434,8161 L 15434,8011"/>
 <path fill="none" stroke="rgb(179,179,179)" stroke-linejoin="round" d="M 15434,8161 L 15434,8011"/>
 <path fill="none" stroke="rgb(179,179,179)" stroke-linejoin="round" d="M 15679,8161 L 15679,8011"/>
 <path fill="none" stroke="rgb(179,179,179)" stroke-linejoin="round" d="M 15679,8161 L 15679,8011"/>
 <path fill="none" stroke="rgb(179,179,179)" stroke-linejoin="round" d="M 1987,8011 L 15679,8011"/>
 <path fill="none" stroke="rgb(179,179,179)" stroke-linejoin="round" d="M 1837,8011 L 1987,8011"/>
 <path fill="none" stroke="rgb(179,179,179)" stroke-linejoin="round" d="M 1837,8011 L 1987,8011"/>
 <path fill="none" stroke="rgb(179,179,179)" stroke-linejoin="round" d="M 1837,7162 L 1987,7162"/>
 <path fill="none" stroke="rgb(179,179,179)" stroke-linejoin="round" d="M 1837,7162 L 1987,7162"/>
 <path fill="none" stroke="rgb(179,179,179)" stroke-linejoin="round" d="M 1837,6313 L 1987,6313"/>
 <path fill="none" stroke="rgb(179,179,179)" stroke-linejoin="round" d="M 1837,6313 L 1987,6313"/>
 <path fill="none" stroke="rgb(179,179,179)" stroke-linejoin="round" d="M 1837,5464 L 1987,5464"/>
 <path fill="none" stroke="rgb(179,179,179)" stroke-linejoin="round" d="M 1837,5464 L 1987,5464"/>
 <path fill="none" stroke="rgb(179,179,179)" stroke-linejoin="round" d="M 1837,4615 L 1987,4615"/>
 <path fill="none" stroke="rgb(179,179,179)" stroke-linejoin="round" d="M 1837,4615 L 1987,4615"/>
 <path fill="none" stroke="rgb(179,179,179)" stroke-linejoin="round" d="M 1837,3767 L 1987,3767"/>
 <path fill="none" stroke="rgb(179,179,179)" stroke-linejoin="round" d="M 1837,3767 L 1987,3767"/>
 <path fill="none" stroke="rgb(179,179,179)" stroke-linejoin="round" d="M 1837,2918 L 1987,2918"/>
 <path fill="none" stroke="rgb(179,179,179)" stroke-linejoin="round" d="M 1837,2918 L 1987,2918"/>
 <path fill="none" stroke="rgb(179,179,179)" stroke-linejoin="round" d="M 1837,2069 L 1987,2069"/>
 <path fill="none" stroke="rgb(179,179,179)" stroke-linejoin="round" d="M 1837,2069 L 1987,2069"/>
 <path fill="none" stroke="rgb(179,179,179)" stroke-linejoin="round" d="M 1837,1220 L 1987,1220"/>
 <path fill="none" stroke="rgb(179,179,179)" stroke-linejoin="round" d="M 1837,1220 L 1987,1220"/>
 <path fill="none" stroke="rgb(179,179,179)" stroke-linejoin="round" d="M 1837,371 L 1987,371"/>
 <path fill="none" stroke="rgb(179,179,179)" stroke-linejoin="round" d="M 1837,371 L 1987,371"/>
 <path fill="none" stroke="rgb(179,179,179)" stroke-linejoin="round" d="M 1987,8011 L 1987,371"/>
 <path fill="rgb(0,69,134)" stroke="none" d="M 15495,8011 L 15617,8011 15617,8010 15495,8010 15495,8011 Z"/>
 <path fill="rgb(0,69,134)" stroke="none" d="M 15251,8011 L 15373,8011 15373,8010 15251,8010 15251,8011 Z"/>
 <path fill="rgb(0,69,134)" stroke="none" d="M 15006,8011 L 15128,8011 15128,8009 15006,8009 15006,8011 Z"/>
 <path fill="rgb(0,69,134)" stroke="none" d="M 14762,8011 L 14884,8011 14884,8008 14762,8008 14762,8011 Z"/>
 <path fill="rgb(0,69,134)" stroke="none" d="M 14517,8011 L 14639,8011 14639,8008 14517,8008 14517,8011 Z"/>
 <path fill="rgb(0,69,134)" stroke="none" d="M 14273,8011 L 14395,8011 14395,8007 14273,8007 14273,8011 Z"/>
 <path fill="rgb(0,69,134)" stroke="none" d="M 14028,8011 L 14150,8011 14150,8006 14028,8006 14028,8011 Z"/>
 <path fill="rgb(0,69,134)" stroke="none" d="M 13783,8011 L 13906,8011 13906,8006 13783,8006 13783,8011 Z"/>
 <path fill="rgb(0,69,134)" stroke="none" d="M 13539,8011 L 13661,8011 13661,8004 13539,8004 13539,8011 Z"/>
 <path fill="rgb(0,69,134)" stroke="none" d="M 13294,8011 L 13417,8011 13417,8001 13294,8001 13294,8011 Z"/>
 <path fill="rgb(0,69,134)" stroke="none" d="M 13050,8011 L 13172,8011 13172,7998 13050,7998 13050,8011 Z"/>
 <path fill="rgb(0,69,134)" stroke="none" d="M 12805,8011 L 12928,8011 12928,7997 12805,7997 12805,8011 Z"/>
 <path fill="rgb(0,69,134)" stroke="none" d="M 12561,8011 L 12683,8011 12683,7994 12561,7994 12561,8011 Z"/>
 <path fill="rgb(0,69,134)" stroke="none" d="M 12316,8011 L 12439,8011 12439,7991 12316,7991 12316,8011 Z"/>
 <path fill="rgb(0,69,134)" stroke="none" d="M 12072,8011 L 12194,8011 12194,7989 12072,7989 12072,8011 Z"/>
 <path fill="rgb(0,69,134)" stroke="none" d="M 11827,8011 L 11950,8011 11950,7988 11827,7988 11827,8011 Z"/>
 <path fill="rgb(0,69,134)" stroke="none" d="M 11583,8011 L 11705,8011 11705,7981 11583,7981 11583,8011 Z"/>
 <path fill="rgb(0,69,134)" stroke="none" d="M 11338,8011 L 11461,8011 11461,7977 11338,7977 11338,8011 Z"/>
 <path fill="rgb(0,69,134)" stroke="none" d="M 11094,8011 L 11216,8011 11216,7929 11094,7929 11094,8011 Z"/>
 <path fill="rgb(0,69,134)" stroke="none" d="M 10849,8011 L 10972,8011 10972,7924 10849,7924 10849,8011 Z"/>
 <path fill="rgb(0,69,134)" stroke="none" d="M 10605,8011 L 10727,8011 10727,7924 10605,7924 10605,8011 Z"/>
 <path fill="rgb(0,69,134)" stroke="none" d="M 10360,8011 L 10482,8011 10482,7899 10360,7899 10360,8011 Z"/>
 <path fill="rgb(0,69,134)" stroke="none" d="M 10116,8011 L 10238,8011 10238,7899 10116,7899 10116,8011 Z"/>
 <path fill="rgb(0,69,134)" stroke="none" d="M 9871,8011 L 9993,8011 9993,7885 9871,7885 9871,8011 Z"/>
 <path fill="rgb(0,69,134)" stroke="none" d="M 9627,8011 L 9749,8011 9749,7868 9627,7868 9627,8011 Z"/>
 <path fill="rgb(0,69,134)" stroke="none" d="M 9382,8011 L 9504,8011 9504,7849 9382,7849 9382,8011 Z"/>
 <path fill="rgb(0,69,134)" stroke="none" d="M 9138,8011 L 9260,8011 9260,7835 9138,7835 9138,8011 Z"/>
 <path fill="rgb(0,69,134)" stroke="none" d="M 8893,8011 L 9015,8011 9015,7808 8893,7808 8893,8011 Z"/>
 <path fill="rgb(0,69,134)" stroke="none" d="M 8649,8011 L 8771,8011 8771,7769 8649,7769 8649,8011 Z"/>
 <path fill="rgb(0,69,134)" stroke="none" d="M 8404,8011 L 8526,8011 8526,7762 8404,7762 8404,8011 Z"/>
 <path fill="rgb(0,69,134)" stroke="none" d="M 8160,8011 L 8282,8011 8282,7708 8160,7708 8160,8011 Z"/>
 <path fill="rgb(0,69,134)" stroke="none" d="M 7916,8011 L 8037,8011 8037,7672 7916,7672 7916,8011 Z"/>
 <path fill="rgb(0,69,134)" stroke="none" d="M 7672,8011 L 7794,8011 7794,7317 7672,7317 7672,8011 Z"/>
 <path fill="rgb(0,69,134)" stroke="none" d="M 7427,8011 L 7549,8011 7549,7136 7427,7136 7427,8011 Z"/>
 <path fill="rgb(0,69,134)" stroke="none" d="M 7183,8011 L 7305,8011 7305,7088 7183,7088 7183,8011 Z"/>
 <path fill="rgb(0,69,134)" stroke="none" d="M 6938,8011 L 7060,8011 7060,7081 6938,7081 6938,8011 Z"/>
 <path fill="rgb(0,69,134)" stroke="none" d="M 6693,8011 L 6816,8011 6816,6850 6693,6850 6693,8011 Z"/>
 <path fill="rgb(0,69,134)" stroke="none" d="M 6449,8011 L 6571,8011 6571,6461 6449,6461 6449,8011 Z"/>
 <path fill="rgb(0,69,134)" stroke="none" d="M 6204,8011 L 6327,8011 6327,5867 6204,5867 6204,8011 Z"/>
 <path fill="rgb(0,69,134)" stroke="none" d="M 5960,8011 L 6082,8011 6082,5751 5960,5751 5960,8011 Z"/>
 <path fill="rgb(0,69,134)" stroke="none" d="M 5715,8011 L 5838,8011 5838,5356 5715,5356 5715,8011 Z"/>
 <path fill="rgb(0,69,134)" stroke="none" d="M 5471,8011 L 5593,8011 5593,5143 5471,5143 5471,8011 Z"/>
 <path fill="rgb(0,69,134)" stroke="none" d="M 5226,8011 L 5349,8011 5349,4953 5226,4953 5226,8011 Z"/>
 <path fill="rgb(0,69,134)" stroke="none" d="M 4982,8011 L 5104,8011 5104,4881 4982,4881 4982,8011 Z"/>
 <path fill="rgb(0,69,134)" stroke="none" d="M 4737,8011 L 4860,8011 4860,4675 4737,4675 4737,8011 Z"/>
 <path fill="rgb(0,69,134)" stroke="none" d="M 4493,8011 L 4615,8011 4615,4551 4493,4551 4493,8011 Z"/>
 <path fill="rgb(0,69,134)" stroke="none" d="M 4248,8011 L 4371,8011 4371,4534 4248,4534 4248,8011 Z"/>
 <path fill="rgb(0,69,134)" stroke="none" d="M 4004,8011 L 4126,8011 4126,4331 4004,4331 4004,8011 Z"/>
 <path fill="rgb(0,69,134)" stroke="none" d="M 3759,8011 L 3882,8011 3882,4238 3759,4238 3759,8011 Z"/>
 <path fill="rgb(0,69,134)" stroke="none" d="M 3515,8011 L 3637,8011 3637,4145 3515,4145 3515,8011 Z"/>
 <path fill="rgb(0,69,134)" stroke="none" d="M 3270,8011 L 3392,8011 3392,3288 3270,3288 3270,8011 Z"/>
 <path fill="rgb(0,69,134)" stroke="none" d="M 3026,8011 L 3148,8011 3148,3111 3026,3111 3026,8011 Z"/>
 <path fill="rgb(0,69,134)" stroke="none" d="M 2781,8011 L 2903,8011 2903,2845 2781,2845 2781,8011 Z"/>
 <path fill="rgb(0,69,134)" stroke="none" d="M 2537,8011 L 2659,8011 2659,1768 2537,1768 2537,8011 Z"/>
 <path fill="rgb(0,69,134)" stroke="none" d="M 2292,8011 L 2414,8011 2414,1754 2292,1754 2292,8011 Z"/>
 <path fill="rgb(0,69,134)" stroke="none" d="M 2048,8011 L 2170,8011 2170,1217 2048,1217 2048,8011 Z"/>
 <text class="TextShape" transform="rotate(-44.9 2053 8626)"><tspan class="TextParagraph" font-family="Liberation Sans, sans-serif" font-size="353px" font-weight="400"><tspan class="TextPosition" x="2053" y="8626"><tspan fill="rgb(0,0,0)" stroke="none">1</tspan></tspan></tspan></text>
 <text class="TextShape" transform="rotate(-44.9 2786 8626)"><tspan class="TextParagraph" font-family="Liberation Sans, sans-serif" font-size="353px" font-weight="400"><tspan class="TextPosition" x="2786" y="8626"><tspan fill="rgb(0,0,0)" stroke="none">4</tspan></tspan></tspan></text>
 <text class="TextShape" transform="rotate(-44.9 3520 8626)"><tspan class="TextParagraph" font-family="Liberation Sans, sans-serif" font-size="353px" font-weight="400"><tspan class="TextPosition" x="3520" y="8626"><tspan fill="rgb(0,0,0)" stroke="none">7</tspan></tspan></tspan></text>
 <text class="TextShape" transform="rotate(-44.9 4108 8770)"><tspan class="TextParagraph" font-family="Liberation Sans, sans-serif" font-size="353px" font-weight="400"><tspan class="TextPosition" x="4108" y="8770"><tspan fill="rgb(0,0,0)" stroke="none">10</tspan></tspan></tspan></text>
 <text class="TextShape" transform="rotate(-44.9 4842 8770)"><tspan class="TextParagraph" font-family="Liberation Sans, sans-serif" font-size="353px" font-weight="400"><tspan class="TextPosition" x="4842" y="8770"><tspan fill="rgb(0,0,0)" stroke="none">13</tspan></tspan></tspan></text>
 <text class="TextShape" transform="rotate(-44.9 5576 8770)"><tspan class="TextParagraph" font-family="Liberation Sans, sans-serif" font-size="353px" font-weight="400"><tspan class="TextPosition" x="5576" y="8770"><tspan fill="rgb(0,0,0)" stroke="none">16</tspan></tspan></tspan></text>
 <text class="TextShape" transform="rotate(-44.9 6309 8770)"><tspan class="TextParagraph" font-family="Liberation Sans, sans-serif" font-size="353px" font-weight="400"><tspan class="TextPosition" x="6309" y="8770"><tspan fill="rgb(0,0,0)" stroke="none">19</tspan></tspan></tspan></text>
 <text class="TextShape" transform="rotate(-44.9 7043 8770)"><tspan class="TextParagraph" font-family="Liberation Sans, sans-serif" font-size="353px" font-weight="400"><tspan class="TextPosition" x="7043" y="8770"><tspan fill="rgb(0,0,0)" stroke="none">22</tspan></tspan></tspan></text>
 <text class="TextShape" transform="rotate(-44.9 7776 8770)"><tspan class="TextParagraph" font-family="Liberation Sans, sans-serif" font-size="353px" font-weight="400"><tspan class="TextPosition" x="7776" y="8770"><tspan fill="rgb(0,0,0)" stroke="none">25</tspan></tspan></tspan></text>
 <text class="TextShape" transform="rotate(-44.9 8510 8770)"><tspan class="TextParagraph" font-family="Liberation Sans, sans-serif" font-size="353px" font-weight="400"><tspan class="TextPosition" x="8510" y="8770"><tspan fill="rgb(0,0,0)" stroke="none">28</tspan></tspan></tspan></text>
 <text class="TextShape" transform="rotate(-44.9 9243 8770)"><tspan class="TextParagraph" font-family="Liberation Sans, sans-serif" font-size="353px" font-weight="400"><tspan class="TextPosition" x="9243" y="8770"><tspan fill="rgb(0,0,0)" stroke="none">31</tspan></tspan></tspan></text>
 <text class="TextShape" transform="rotate(-44.9 9976 8770)"><tspan class="TextParagraph" font-family="Liberation Sans, sans-serif" font-size="353px" font-weight="400"><tspan class="TextPosition" x="9976" y="8770"><tspan fill="rgb(0,0,0)" stroke="none">34</tspan></tspan></tspan></text>
 <text class="TextShape" transform="rotate(-44.9 10709 8770)"><tspan class="TextParagraph" font-family="Liberation Sans, sans-serif" font-size="353px" font-weight="400"><tspan class="TextPosition" x="10709" y="8770"><tspan fill="rgb(0,0,0)" stroke="none">37</tspan></tspan></tspan></text>
 <text class="TextShape" transform="rotate(-44.9 11443 8770)"><tspan class="TextParagraph" font-family="Liberation Sans, sans-serif" font-size="353px" font-weight="400"><tspan class="TextPosition" x="11443" y="8770"><tspan fill="rgb(0,0,0)" stroke="none">40</tspan></tspan></tspan></text>
 <text class="TextShape" transform="rotate(-44.9 12177 8770)"><tspan class="TextParagraph" font-family="Liberation Sans, sans-serif" font-size="353px" font-weight="400"><tspan class="TextPosition" x="12177" y="8770"><tspan fill="rgb(0,0,0)" stroke="none">43</tspan></tspan></tspan></text>
 <text class="TextShape" transform="rotate(-44.9 12910 8770)"><tspan class="TextParagraph" font-family="Liberation Sans, sans-serif" font-size="353px" font-weight="400"><tspan class="TextPosition" x="12910" y="8770"><tspan fill="rgb(0,0,0)" stroke="none">46</tspan></tspan></tspan></text>
 <text class="TextShape" transform="rotate(-44.9 13644 8770)"><tspan class="TextParagraph" font-family="Liberation Sans, sans-serif" font-size="353px" font-weight="400"><tspan class="TextPosition" x="13644" y="8770"><tspan fill="rgb(0,0,0)" stroke="none">49</tspan></tspan></tspan></text>
 <text class="TextShape" transform="rotate(-44.9 14377 8770)"><tspan class="TextParagraph" font-family="Liberation Sans, sans-serif" font-size="353px" font-weight="400"><tspan class="TextPosition" x="14377" y="8770"><tspan fill="rgb(0,0,0)" stroke="none">52</tspan></tspan></tspan></text>
 <text class="TextShape" transform="rotate(-44.9 15111 8770)"><tspan class="TextParagraph" font-family="Liberation Sans, sans-serif" font-size="353px" font-weight="400"><tspan class="TextPosition" x="15111" y="8770"><tspan fill="rgb(0,0,0)" stroke="none">55</tspan></tspan></tspan></text>
 <text class="TextShape"><tspan class="TextParagraph" font-family="Liberation Sans, sans-serif" font-size="353px" font-weight="400"><tspan class="TextPosition" x="1535" y="8136"><tspan fill="rgb(0,0,0)" stroke="none">0</tspan></tspan></tspan></text>
 <text class="TextShape"><tspan class="TextParagraph" font-family="Liberation Sans, sans-serif" font-size="353px" font-weight="400"><tspan class="TextPosition" x="321" y="7287"><tspan fill="rgb(0,0,0)" stroke="none">1000000</tspan></tspan></tspan></text>
 <text class="TextShape"><tspan class="TextParagraph" font-family="Liberation Sans, sans-serif" font-size="353px" font-weight="400"><tspan class="TextPosition" x="321" y="6438"><tspan fill="rgb(0,0,0)" stroke="none">2000000</tspan></tspan></tspan></text>
 <text class="TextShape"><tspan class="TextParagraph" font-family="Liberation Sans, sans-serif" font-size="353px" font-weight="400"><tspan class="TextPosition" x="321" y="5589"><tspan fill="rgb(0,0,0)" stroke="none">3000000</tspan></tspan></tspan></text>
 <text class="TextShape"><tspan class="TextParagraph" font-family="Liberation Sans, sans-serif" font-size="353px" font-weight="400"><tspan class="TextPosition" x="321" y="4740"><tspan fill="rgb(0,0,0)" stroke="none">4000000</tspan></tspan></tspan></text>
 <text class="TextShape"><tspan class="TextParagraph" font-family="Liberation Sans, sans-serif" font-size="353px" font-weight="400"><tspan class="TextPosition" x="321" y="3891"><tspan fill="rgb(0,0,0)" stroke="none">5000000</tspan></tspan></tspan></text>
 <text class="TextShape"><tspan class="TextParagraph" font-family="Liberation Sans, sans-serif" font-size="353px" font-weight="400"><tspan class="TextPosition" x="321" y="3042"><tspan fill="rgb(0,0,0)" stroke="none">6000000</tspan></tspan></tspan></text>
 <text class="TextShape"><tspan class="TextParagraph" font-family="Liberation Sans, sans-serif" font-size="353px" font-weight="400"><tspan class="TextPosition" x="321" y="2193"><tspan fill="rgb(0,0,0)" stroke="none">7000000</tspan></tspan></tspan></text>
 <text class="TextShape"><tspan class="TextParagraph" font-family="Liberation Sans, sans-serif" font-size="353px" font-weight="400"><tspan class="TextPosition" x="321" y="1344"><tspan fill="rgb(0,0,0)" stroke="none">8000000</tspan></tspan></tspan></text>
 <text class="TextShape"><tspan class="TextParagraph" font-family="Liberation Sans, sans-serif" font-size="353px" font-weight="400"><tspan class="TextPosition" x="321" y="495"><tspan fill="rgb(0,0,0)" stroke="none">9000000</tspan></tspan></tspan></text>
</svg>