<svg xmlns="http://www.w3.org/2000/svg" xmlns:xlink="http://www.w3.org/1999/xlink" version="1.1" class="marks" width="527" height="327" viewBox="0 0 527 327"><rect width="527" height="327" fill="white"/><g fill="none" stroke-miterlimit="10" transform="translate(44,10)"><g class="mark-group role-frame root" role="graphics-object" aria-roledescription="group mark container"><g transform="translate(0,0)"><path class="background" aria-hidden="true" d="M0.5,0.5h400v280h-400Z" stroke="#ddd"/><g><g class="mark-group role-axis" aria-hidden="true"><g transform="translate(0.5,280.5)"><path class="background" aria-hidden="true" d="M0,0h0v0h0Z" pointer-events="none"/><g><g class="mark-rule role-axis-grid" pointer-events="none"><line transform="translate(0,-280)" x2="0" y2="280" stroke="#ddd" stroke-width="1" opacity="1"/><line transform="translate(50,-280)" x2="0" y2="280" stroke="#ddd" stroke-width="1" opacity="1"/><line transform="translate(100,-280)" x2="0" y2="280" stroke="#ddd" stroke-width="1" opacity="1"/><line transform="translate(150,-280)" x2="0" y2="280" stroke="#ddd" stroke-width="1" opacity="1"/><line transform="translate(200,-280)" x2="0" y2="280" stroke="#ddd" stroke-width="1" opacity="1"/><line transform="translate(250,-280)" x2="0" y2="280" stroke="#ddd" stroke-width="1" opacity="1"/><line transform="translate(300,-280)" x2="0" y2="280" stroke="#ddd" stroke-width="1" opacity="1"/><line transform="translate(350,-280)" x2="0" y2="280" stroke="#ddd" stroke-width="1" opacity="1"/><line transform="translate(400,-280)" x2="0" y2="280" stroke="#ddd" stroke-width="1" opacity="1"/></g></g><path class="foreground" aria-hidden="true" d="" pointer-events="none" display="none"/></g></g><g class="mark-group role-axis" aria-hidden="true"><g transform="translate(0.5,0.5)"><path class="background" aria-hidden="true" d="M0,0h0v0h0Z" pointer-events="none"/><g><g class="mark-rule role-axis-grid" pointer-events="none"><line transform="translate(0,280)" x2="400" y2="0" stroke="#ddd" stroke-width="1" opacity="1"/><line transform="translate(0,249)" x2="400" y2="0" stroke="#ddd" stroke-width="1" opacity="1"/><line transform="translate(0,218)" x2="400" y2="0" stroke="#ddd" stroke-width="1" opacity="1"/><line transform="translate(0,187)" x2="400" y2="0" stroke="#ddd" stroke-width="1" opacity="1"/><line transform="translate(0,156)" x2="400" y2="0" stroke="#ddd" stroke-width="1" opacity="1"/><line transform="translate(0,124)" x2="400" y2="0" stroke="#ddd" stroke-width="1" opacity="1"/><line transform="translate(0,93)" x2="400" y2="0" stroke="#ddd" stroke-width="1" opacity="1"/><line transform="translate(0,62)" x2="400" y2="0" stroke="#ddd" stroke-width="1" opacity="1"/><line transform="translate(0,31)" x2="400" y2="0" stroke="#ddd" stroke-width="1" opacity="1"/><line transform="translate(0,0)" x2="400" y2="0" stroke="#ddd" stroke-width="1" opacity="1"/></g></g><path class="foreground" aria-hidden="true" d="" pointer-events="none" display="none"/></g></g><g class="mark-group role-axis" role="graphics-symbol" aria-roledescription="axis" aria-label="X-axis titled 'Day' for a linear scale with values from 0 to 160"><g transform="translate(0.5,280.5)"><path class="background" aria-hidden="true" d="M0,0h0v0h0Z" pointer-events="none"/><g><g class="mark-rule role-axis-tick" pointer-events="none"><line transform="translate(0,0)" x2="0" y2="5" stroke="#888" stroke-width="1" opacity="1"/><line transform="translate(50,0)" x2="0" y2="5" stroke="#888" stroke-width="1" opacity="1"/><line transform="translate(100,0)" x2="0" y2="5" stroke="#888" stroke-width="1" opacity="1"/><line transform="translate(150,0)" x2="0" y2="5" stroke="#888" stroke-width="1" opacity="1"/><line transform="translate(200,0)" x2="0" y2="5" stroke="#888" stroke-width="1" opacity="1"/><line transform="translate(250,0)" x2="0" y2="5" stroke="#888" stroke-width="1" opacity="1"/><line transform="translate(300,0)" x2="0" y2="5" stroke="#888" stroke-width="1" opacity="1"/><line transform="translate(350,0)" x2="0" y2="5" stroke="#888" stroke-width="1" opacity="1"/><line transform="translate(400,0)" x2="0" y2="5" stroke="#888" stroke-width="1" opacity="1"/></g><g class="mark-text role-axis-label" pointer-events="none"><text text-anchor="start" transform="translate(0,15)" font-family="sans-serif" font-size="10px" fill="#000" opacity="1">0</text><text text-anchor="middle" transform="translate(50,15)" font-family="sans-serif" font-size="10px" fill="#000" opacity="1">20</text><text text-anchor="middle" transform="translate(100,15)" font-family="sans-serif" font-size="10px" fill="#000" opacity="1">40</text><text text-anchor="middle" transform="translate(150,15)" font-family="sans-serif" font-size="10px" fill="#000" opacity="1">60</text><text text-anchor="middle" transform="translate(200,15)" font-family="sans-serif" font-size="10px" fill="#000" opacity="1">80</text><text text-anchor="middle" transform="translate(250,15)" font-family="sans-serif" font-size="10px" fill="#000" opacity="1">100</text><text text-anchor="middle" transform="translate(300,15)" font-family="sans-serif" font-size="10px" fill="#000" opacity="1">120</text><text text-anchor="middle" transform="translate(350,15)" font-family="sans-serif" font-size="10px" fill="#000" opacity="1">140</text><text text-anchor="end" transform="translate(400,15)" font-family="sans-serif" font-size="10px" fill="#000" opacity="1">160</text></g><g class="mark-rule role-axis-domain" pointer-events="none"><line transform="translate(0,0)" x2="400" y2="0" stroke="#888" stroke-width="1" opacity="1"/></g><g class="mark-text role-axis-title" pointer-events="none"><text text-anchor="middle" transform="translate(200,30)" font-family="sans-serif" font-size="11px" font-weight="bold" fill="#000" opacity="1">Day</text></g></g><path class="foreground" aria-hidden="true" d="" pointer-events="none" display="none"/></g></g><g class="mark-group role-axis" role="graphics-symbol" aria-roledescription="axis" aria-label="Y-axis titled 'New cases per day' for a linear scale with values from 0 to 450"><g transform="translate(0.5,0.5)"><path class="background" aria-hidden="true" d="M0,0h0v0h0Z" pointer-events="none"/><g><g class="mark-rule role-axis-tick" pointer-events="none"><line transform="translate(0,280)" x2="-5" y2="0" stroke="#888" stroke-width="1" opacity="1"/><line transform="translate(0,249)" x2="-5" y2="0" stroke="#888" stroke-width="1" opacity="1"/><line transform="translate(0,218)" x2="-5" y2="0" stroke="#888" stroke-width="1" opacity="1"/><line transform="translate(0,187)" x2="-5" y2="0" stroke="#888" stroke-width="1" opacity="1"/><line transform="translate(0,156)" x2="-5" y2="0" stroke="#888" stroke-width="1" opacity="1"/><line transform="translate(0,124)" x2="-5" y2="0" stroke="#888" stroke-width="1" opacity="1"/><line transform="translate(0,93)" x2="-5" y2="0" stroke="#888" stroke-width="1" opacity="1"/><line transform="translate(0,62)" x2="-5" y2="0" stroke="#888" stroke-width="1" opacity="1"/><line transform="translate(0,31)" x2="-5" y2="0" stroke="#888" stroke-width="1" opacity="1"/><line transform="translate(0,0)" x2="-5" y2="0" stroke="#888" stroke-width="1" opacity="1"/></g><g class="mark-text role-axis-label" pointer-events="none"><text text-anchor="end" transform="translate(-7,283)" font-family="sans-serif" font-size="10px" fill="#000" opacity="1">0</text><text text-anchor="end" transform="translate(-7,251.88888888888889)" font-family="sans-serif" font-size="10px" fill="#000" opacity="1">50</text><text text-anchor="end" transform="translate(-7,220.77777777777777)" font-family="sans-serif" font-size="10px" fill="#000" opacity="1">100</text><text text-anchor="end" transform="translate(-7,189.66666666666669)" font-family="sans-serif" font-size="10px" fill="#000" opacity="1">150</text><text text-anchor="end" transform="translate(-7,158.55555555555557)" font-family="sans-serif" font-size="10px" fill="#000" opacity="1">200</text><text text-anchor="end" transform="translate(-7,127.44444444444444)" font-family="sans-serif" font-size="10px" fill="#000" opacity="1">250</text><text text-anchor="end" transform="translate(-7,96.33333333333334)" font-family="sans-serif" font-size="10px" fill="#000" opacity="1">300</text><text text-anchor="end" transform="translate(-7,65.22222222222223)" font-family="sans-serif" font-size="10px" fill="#000" opacity="1">350</text><text text-anchor="end" transform="translate(-7,34.11111111111113)" font-family="sans-serif" font-size="10px" fill="#000" opacity="1">400</text><text text-anchor="end" transform="translate(-7,3)" font-family="sans-serif" font-size="10px" fill="#000" opacity="1">450</text></g><g class="mark-rule role-axis-domain" pointer-events="none"><line transform="translate(0,280)" x2="0" y2="-280" stroke="#888" stroke-width="1" opacity="1"/></g><g class="mark-text role-axis-title" pointer-events="none"><text text-anchor="middle" transform="translate(-27.6845703125,140) rotate(-90) translate(0,-2)" font-family="sans-serif" font-size="11px" font-weight="bold" fill="#000" opacity="1">New cases per day</text></g></g><path class="foreground" aria-hidden="true" d="" pointer-events="none" display="none"/></g></g><g class="mark-group role-scope pathgroup" role="graphics-object" aria-roledescription="group mark container"><g transform="translate(0,0)"><path class="background" aria-hidden="true" d="M0,0h400v280h-400Z"/><g><g class="mark-line role-mark marks" role="graphics-object" aria-roledescription="line mark container"><path aria-label="Day: 1; New cases per day: 2; source: observed" role="graphics-symbol" aria-roledescription="line mark" d="M2.5,278.756L5,278.756L7.5,278.133L10,276.267L12.5,270.667L15,277.511L17.5,272.533L20,271.289L22.5,270.667L25,266.933L27.5,263.2L30,263.2L32.5,260.089L35,256.978L37.5,240.8L40,242.667L42.5,230.844L45,215.289L47.5,210.311L50,202.222L52.5,192.267L55,173.6L57.5,154.933L60,140L62.5,110.756L65,107.644L67.5,87.111L70,51.022L72.5,37.333L75,37.333L77.5,26.133L80,47.289L82.5,21.156L85,44.8L87.5,32.356L90,36.089L92.5,65.333L95,70.933L97.5,90.222L100,107.022L102.5,118.222L105,150.578L107.5,147.467L110,161.778L112.5,177.956L115,194.756L117.5,214.667L120,218.4L122.5,233.333L125,227.111L127.5,233.333L130,243.911L132.5,235.2L135,240.8L137.5,251.378L140,253.867L142.5,255.733L145,258.844L147.5,258.222L150,263.822L152.5,269.422L155,266.933L157.5,269.422L160,270.667L162.5,270.667L165,266.933L167.5,273.156L170,273.156L172.5,273.778L175,274.4L177.5,275.022L180,274.4L182.5,276.889L185,275.644L187.5,274.4L190,271.911L192.5,275.644L195,276.267L197.5,278.133L200,276.889L202.5,276.889L205,277.511L207.5,277.511L210,280L212.5,277.511L215,280L217.5,276.889L220,278.756L222.5,279.378L225,280L227.5,279.378L230,276.889L232.5,279.378L235,278.133L237.5,278.756L240,278.756L242.5,278.756L245,278.756L247.5,279.378L250,280L252.5,279.378L255,280L257.5,280L260,280L262.5,278.756L265,278.756L267.5,280L270,280L272.5,279.378L275,280L277.5,280L280,280L282.5,280L285,280L287.5,280L290,280L292.5,279.378L295,280L297.5,280L300,280L302.5,280L305,280L307.5,280L310,280L312.5,279.378L315,280L317.5,280L320,280L322.5,280L325,280L327.5,280L330,280L332.5,280L335,280L337.5,280L340,280L342.5,280L345,279.378L347.5,280L350,280L352.5,280L355,280L357.5,280L360,280L362.5,280L365,280L367.5,280L370,280L372.5,280L375,280L377.5,280L380,280L382.5,280L385,280L387.5,280L390,280L392.5,280L395,280L397.5,280L400,280" stroke="#f58518" stroke-width="2" stroke-dasharray="4,2"/></g></g><path class="foreground" aria-hidden="true" d="" display="none"/></g><g transform="translate(0,0)"><path class="background" aria-hidden="true" d="M0,0h400v280h-400Z"/><g><g class="mark-line role-mark marks" role="graphics-object" aria-roledescription="line mark container"><path aria-label="Day: 1; New cases per day: 3.30906488236; source: fitted" role="graphics-symbol" aria-roledescription="line mark" d="M2.5,277.941L5,277.488L7.5,276.937L10,276.265L12.5,275.447L15,274.453L17.5,273.244L20,271.776L22.5,269.995L25,267.839L27.5,265.233L30,262.09L32.5,258.309L35,253.775L37.5,248.361L40,241.925L42.5,234.32L45,225.396L47.5,215.011L50,203.05L52.5,189.442L55,174.188L57.5,157.388L60,139.277L62.5,120.247L65,100.865L67.5,81.861L70,64.101L72.5,48.508L75,35.978L77.5,27.262L80,22.871L82.5,23.002L85,27.515L87.5,35.965L90,47.677L92.5,61.841L95,77.619L97.5,94.223L100,110.977L102.5,127.345L105,142.938L107.5,157.498L110,170.882L112.5,183.035L115,193.964L117.5,203.722L120,212.385L122.5,220.046L125,226.803L127.5,232.752L130,237.986L132.5,242.589L135,246.639L137.5,250.204L140,253.347L142.5,256.12L145,258.571L147.5,260.74L150,262.664L152.5,264.373L155,265.894L157.5,267.249L160,268.46L162.5,269.543L165,270.514L167.5,271.385L170,272.169L172.5,272.874L175,273.51L177.5,274.084L180,274.604L182.5,275.074L185,275.5L187.5,275.887L190,276.238L192.5,276.557L195,276.848L197.5,277.113L200,277.354L202.5,277.575L205,277.776L207.5,277.959L210,278.127L212.5,278.281L215,278.421L217.5,278.55L220,278.668L222.5,278.776L225,278.875L227.5,278.966L230,279.049L232.5,279.126L235,279.196L237.5,279.261L240,279.32L242.5,279.374L245,279.424L247.5,279.47L250,279.512L252.5,279.551L255,279.587L257.5,279.62L260,279.65L262.5,279.678L265,279.703L267.5,279.727L270,279.749L272.5,279.768L275,279.787L277.5,279.804L280,279.819L282.5,279.834L285,279.847L287.5,279.859L290,279.87L292.5,279.88L295,279.89L297.5,279.898L300,279.906L302.5,279.914L305,279.921L307.5,279.927L310,279.933L312.5,279.938L315,279.943L317.5,279.947L320,279.952L322.5,279.955L325,279.959L327.5,279.962L330,279.965L332.5,279.968L335,279.97L337.5,279.973L340,279.975L342.5,279.977L345,279.979L347.5,279.98L350,279.982L352.5,279.983L355,279.985L357.5,279.986L360,279.987L362.5,279.988L365,279.989L367.5,279.99L370,279.991L372.5,279.991L375,279.992L377.5,279.993L380,279.993L382.5,279.994L385,279.994L387.5,279.995L390,279.995L392.5,279.996L395,279.996L397.5,279.996L400,279.996" stroke="#4c78a8" stroke-width="2" stroke-dasharray="1,0"/></g></g><path class="foreground" aria-hidden="true" d="" display="none"/></g></g><g class="mark-group role-legend" role="graphics-symbol" aria-roledescription="legend" aria-label="Symbol legend for stroke color and strokeDash with 2 values: fitted, observed"><g transform="translate(420,0)"><path class="background" aria-hidden="true" d="M0,0h58v24h-58Z" pointer-events="none"/><g><g class="mark-group role-legend-entry"><g transform="translate(0,0)"><path class="background" aria-hidden="true" d="M0,0h0v0h0Z" pointer-events="none"/><g><g class="mark-group role-scope" role="graphics-object" aria-roledescription="group mark container"><g transform="translate(0,0)"><path class="background" aria-hidden="true" d="M0,0h57.1376953125v11h-57.1376953125Z" pointer-events="none" opacity="1"/><g><g class="mark-symbol role-legend-symbol" pointer-events="none"><path transform="translate(6,6)" d="M-5,0L5,0" stroke="#4c78a8" stroke-width="1.5" stroke-dasharray="1,0" opacity="1"/></g><g class="mark-text role-legend-label" pointer-events="none"><text text-anchor="start" transform="translate(16,9)" font-family="sans-serif" font-size="10px" fill="#000" opacity="1">fitted</text></g></g><path class="foreground" aria-hidden="true" d="" pointer-events="none" display="none"/></g><g transform="translate(0,13)"><path class="background" aria-hidden="true" d="M0,0h57.1376953125v11h-57.1376953125Z" pointer-events="none" opacity="1"/><g><g class="mark-symbol role-legend-symbol" pointer-events="none"><path transform="translate(6,6)" d="M-5,0L5,0" stroke="#f58518" stroke-width="1.5" stroke-dasharray="4,2" opacity="1"/></g><g class="mark-text role-legend-label" pointer-events="none"><text text-anchor="start" transform="translate(16,9)" font-family="sans-serif" font-size="10px" fill="#000" opacity="1">observed</text></g></g><path class="foreground" aria-hidden="true" d="" pointer-events="none" display="none"/></g></g></g><path class="foreground" aria-hidden="true" d="" pointer-events="none" display="none"/></g></g></g><path class="foreground" aria-hidden="true" d="" pointer-events="none" display="none"/></g></g></g><path class="foreground" aria-hidden="true" d="" display="none"/></g></g></g></svg>