<svg xmlns="http://www.w3.org/2000/svg" xmlns:xlink="http://www.w3.org/1999/xlink" version="1.1" class="marks" width="450" height="359" viewBox="0 0 450 359"><rect width="450" height="359" fill="white"/><g fill="none" stroke-miterlimit="10" transform="translate(44,22)"><g class="mark-group role-frame root" role="graphics-object" aria-roledescription="group mark container"><g transform="translate(0,0)"><path class="background" aria-hidden="true" d="M0.5,0.5h400v300h-400Z" stroke="#ddd"/><g><g class="mark-group role-axis" aria-hidden="true"><g transform="translate(0.5,300.5)"><path class="background" aria-hidden="true" d="M0,0h0v0h0Z" pointer-events="none"/><g><g class="mark-rule role-axis-grid" pointer-events="none"><line transform="translate(0,-300)" x2="0" y2="300" stroke="#ddd" stroke-width="1" opacity="1"/><line transform="translate(31,-300)" x2="0" y2="300" stroke="#ddd" stroke-width="1" opacity="1"/><line transform="translate(62,-300)" x2="0" y2="300" stroke="#ddd" stroke-width="1" opacity="1"/><line transform="translate(92,-300)" x2="0" y2="300" stroke="#ddd" stroke-width="1" opacity="1"/><line transform="translate(123,-300)" x2="0" y2="300" stroke="#ddd" stroke-width="1" opacity="1"/><line transform="translate(154,-300)" x2="0" y2="300" stroke="#ddd" stroke-width="1" opacity="1"/><line transform="translate(185,-300)" x2="0" y2="300" stroke="#ddd" stroke-width="1" opacity="1"/><line transform="translate(215,-300)" x2="0" y2="300" stroke="#ddd" stroke-width="1" opacity="1"/><line transform="translate(246,-300)" x2="0" y2="300" stroke="#ddd" stroke-width="1" opacity="1"/><line transform="translate(277,-300)" x2="0" y2="300" stroke="#ddd" stroke-width="1" opacity="1"/><line transform="translate(308,-300)" x2="0" y2="300" stroke="#ddd" stroke-width="1" opacity="1"/><line transform="translate(338,-300)" x2="0" y2="300" stroke="#ddd" stroke-width="1" opacity="1"/><line transform="translate(369,-300)" x2="0" y2="300" stroke="#ddd" stroke-width="1" opacity="1"/><line transform="translate(400,-300)" x2="0" y2="300" stroke="#ddd" stroke-width="1" opacity="1"/></g></g><path class="foreground" aria-hidden="true" d="" pointer-events="none" display="none"/></g></g><g class="mark-group role-axis" aria-hidden="true"><g transform="translate(0.5,0.5)"><path class="background" aria-hidden="true" d="M0,0h0v0h0Z" pointer-events="none"/><g><g class="mark-rule role-axis-grid" pointer-events="none"><line transform="translate(0,300)" x2="400" y2="0" stroke="#ddd" stroke-width="1" opacity="1"/><line transform="translate(0,246)" x2="400" y2="0" stroke="#ddd" stroke-width="1" opacity="1"/><line transform="translate(0,193)" x2="400" y2="0" stroke="#ddd" stroke-width="1" opacity="1"/><line transform="translate(0,139)" x2="400" y2="0" stroke="#ddd" stroke-width="1" opacity="1"/><line transform="translate(0,86)" x2="400" y2="0" stroke="#ddd" stroke-width="1" opacity="1"/><line transform="translate(0,32)" x2="400" y2="0" stroke="#ddd" stroke-width="1" opacity="1"/></g></g><path class="foreground" aria-hidden="true" d="" pointer-events="none" display="none"/></g></g><g class="mark-group role-axis" role="graphics-symbol" aria-roledescription="axis" aria-label="X-axis titled 'Reduced variate  y = -ln(-ln p)' for a linear scale with values from −2 to 5"><g transform="translate(0.5,300.5)"><path class="background" aria-hidden="true" d="M0,0h0v0h0Z" pointer-events="none"/><g><g class="mark-rule role-axis-tick" pointer-events="none"><line transform="translate(0,0)" x2="0" y2="5" stroke="#888" stroke-width="1" opacity="1"/><line transform="translate(31,0)" x2="0" y2="5" stroke="#888" stroke-width="1" opacity="1"/><line transform="translate(62,0)" x2="0" y2="5" stroke="#888" stroke-width="1" opacity="1"/><line transform="translate(92,0)" x2="0" y2="5" stroke="#888" stroke-width="1" opacity="1"/><line transform="translate(123,0)" x2="0" y2="5" stroke="#888" stroke-width="1" opacity="1"/><line transform="translate(154,0)" x2="0" y2="5" stroke="#888" stroke-width="1" opacity="1"/><line transform="translate(185,0)" x2="0" y2="5" stroke="#888" stroke-width="1" opacity="1"/><line transform="translate(215,0)" x2="0" y2="5" stroke="#888" stroke-width="1" opacity="1"/><line transform="translate(246,0)" x2="0" y2="5" stroke="#888" stroke-width="1" opacity="1"/><line transform="translate(277,0)" x2="0" y2="5" stroke="#888" stroke-width="1" opacity="1"/><line transform="translate(308,0)" x2="0" y2="5" stroke="#888" stroke-width="1" opacity="1"/><line transform="translate(338,0)" x2="0" y2="5" stroke="#888" stroke-width="1" opacity="1"/><line transform="translate(369,0)" x2="0" y2="5" stroke="#888" stroke-width="1" opacity="1"/><line transform="translate(400,0)" x2="0" y2="5" stroke="#888" stroke-width="1" opacity="1"/></g><g class="mark-text role-axis-label" pointer-events="none"><text text-anchor="start" transform="translate(0,15)" font-family="sans-serif" font-size="10px" fill="#000" opacity="1">−2.0</text><text text-anchor="middle" transform="translate(30.76923076923077,15)" font-family="sans-serif" font-size="10px" fill="#000" opacity="1">−1.5</text><text text-anchor="middle" transform="translate(61.53846153846154,15)" font-family="sans-serif" font-size="10px" fill="#000" opacity="1">−1.0</text><text text-anchor="middle" transform="translate(92.3076923076923,15)" font-family="sans-serif" font-size="10px" fill="#000" opacity="1">−0.5</text><text text-anchor="middle" transform="translate(123.07692307692308,15)" font-family="sans-serif" font-size="10px" fill="#000" opacity="1">0.0</text><text text-anchor="middle" transform="translate(153.84615384615387,15)" font-family="sans-serif" font-size="10px" fill="#000" opacity="1">0.5</text><text text-anchor="middle" transform="translate(184.6153846153846,15)" font-family="sans-serif" font-size="10px" fill="#000" opacity="1">1.0</text><text text-anchor="middle" transform="translate(215.3846153846154,15)" font-family="sans-serif" font-size="10px" fill="#000" opacity="1">1.5</text><text text-anchor="middle" transform="translate(246.15384615384616,15)" font-family="sans-serif" font-size="10px" fill="#000" opacity="1">2.0</text><text text-anchor="middle" transform="translate(276.9230769230769,15)" font-family="sans-serif" font-size="10px" fill="#000" opacity="1">2.5</text><text text-anchor="middle" transform="translate(307.69230769230774,15)" font-family="sans-serif" font-size="10px" fill="#000" opacity="1">3.0</text><text text-anchor="middle" transform="translate(338.46153846153845,15)" font-family="sans-serif" font-size="10px" fill="#000" opacity="1">3.5</text><text text-anchor="middle" transform="translate(369.2307692307692,15)" font-family="sans-serif" font-size="10px" fill="#000" opacity="1">4.0</text><text text-anchor="end" transform="translate(400,15)" font-family="sans-serif" font-size="10px" fill="#000" opacity="1">4.5</text></g><g class="mark-rule role-axis-domain" pointer-events="none"><line transform="translate(0,0)" x2="400" y2="0" stroke="#888" stroke-width="1" opacity="1"/></g><g class="mark-text role-axis-title" pointer-events="none"><text text-anchor="middle" transform="translate(200,30)" font-family="sans-serif" font-size="11px" font-weight="bold" fill="#000" opacity="1">Reduced variate  y = -ln(-ln p)</text></g></g><path class="foreground" aria-hidden="true" d="" pointer-events="none" display="none"/></g></g><g class="mark-group role-axis" role="graphics-symbol" aria-roledescription="axis" aria-label="Y-axis titled 'Annual maximum flow (m^3/s)' for a linear scale with values from 0 to 280"><g transform="translate(0.5,0.5)"><path class="background" aria-hidden="true" d="M0,0h0v0h0Z" pointer-events="none"/><g><g class="mark-rule role-axis-tick" pointer-events="none"><line transform="translate(0,300)" x2="-5" y2="0" stroke="#888" stroke-width="1" opacity="1"/><line transform="translate(0,246)" x2="-5" y2="0" stroke="#888" stroke-width="1" opacity="1"/><line transform="translate(0,193)" x2="-5" y2="0" stroke="#888" stroke-width="1" opacity="1"/><line transform="translate(0,139)" x2="-5" y2="0" stroke="#888" stroke-width="1" opacity="1"/><line transform="translate(0,86)" x2="-5" y2="0" stroke="#888" stroke-width="1" opacity="1"/><line transform="translate(0,32)" x2="-5" y2="0" stroke="#888" stroke-width="1" opacity="1"/></g><g class="mark-text role-axis-label" pointer-events="none"><text text-anchor="end" transform="translate(-7,303)" font-family="sans-serif" font-size="10px" fill="#000" opacity="1">0</text><text text-anchor="end" transform="translate(-7,249.42857142857142)" font-family="sans-serif" font-size="10px" fill="#000" opacity="1">50</text><text text-anchor="end" transform="translate(-7,195.85714285714283)" font-family="sans-serif" font-size="10px" fill="#000" opacity="1">100</text><text text-anchor="end" transform="translate(-7,142.28571428571428)" font-family="sans-serif" font-size="10px" fill="#000" opacity="1">150</text><text text-anchor="end" transform="translate(-7,88.71428571428571)" font-family="sans-serif" font-size="10px" fill="#000" opacity="1">200</text><text text-anchor="end" transform="translate(-7,35.14285714285713)" font-family="sans-serif" font-size="10px" fill="#000" opacity="1">250</text></g><g class="mark-rule role-axis-domain" pointer-events="none"><line transform="translate(0,300)" x2="0" y2="-300" stroke="#888" stroke-width="1" opacity="1"/></g><g class="mark-text role-axis-title" pointer-events="none"><text text-anchor="middle" transform="translate(-27.6845703125,150) rotate(-90) translate(0,-2)" font-family="sans-serif" font-size="11px" font-weight="bold" fill="#000" opacity="1">Annual maximum flow (m^3/s)</text></g></g><path class="foreground" aria-hidden="true" d="" pointer-events="none" display="none"/></g></g><g class="mark-symbol role-mark layer_0_marks" role="graphics-object" aria-roledescription="symbol mark container"><path aria-label="Reduced variate  y = -ln(-ln p): −1.36910385561; Annual maximum flow (m^3/s): 26.0304206587" role="graphics-symbol" aria-roledescription="point" transform="translate(38.82437811656158,272.1102635799657)" d="M2.739,0A2.739,2.739,0,1,1,-2.739,0A2.739,2.739,0,1,1,2.739,0" stroke="#4c78a8" stroke-width="2" opacity="0.7"/><path aria-label="Reduced variate  y = -ln(-ln p): −1.17516536146; Annual maximum flow (m^3/s): 51.70771866" role="graphics-symbol" aria-roledescription="point" transform="translate(50.75905467926035,244.59887286426343)" d="M2.739,0A2.739,2.739,0,1,1,-2.739,0A2.739,2.739,0,1,1,2.739,0" stroke="#4c78a8" stroke-width="2" opacity="0.7"/><path aria-label="Reduced variate  y = -ln(-ln p): −1.04141152477; Annual maximum flow (m^3/s): 59.3329047957" role="graphics-symbol" aria-roledescription="point" transform="translate(58.990060013859654,236.42903057599364)" d="M2.739,0A2.739,2.739,0,1,1,-2.739,0A2.739,2.739,0,1,1,2.739,0" stroke="#4c78a8" stroke-width="2" opacity="0.7"/><path aria-label="Reduced variate  y = -ln(-ln p): −0.934339379339; Annual maximum flow (m^3/s): 59.4228887681" role="graphics-symbol" aria-roledescription="point" transform="translate(65.57911511762534,236.33261917701688)" d="M2.739,0A2.739,2.739,0,1,1,-2.739,0A2.739,2.739,0,1,1,2.739,0" stroke="#4c78a8" stroke-width="2" opacity="0.7"/><path aria-label="Reduced variate  y = -ln(-ln p): −0.842595846206; Annual maximum flow (m^3/s): 61.414304816" role="graphics-symbol" aria-roledescription="point" transform="translate(71.22487100272068,234.19895912572633)" d="M2.739,0A2.739,2.739,0,1,1,-2.739,0A2.739,2.739,0,1,1,2.739,0" stroke="#4c78a8" stroke-width="2" opacity="0.7"/><path aria-label="Reduced variate  y = -ln(-ln p): −0.760836746077; Annual maximum flow (m^3/s): 63.2589388209" role="graphics-symbol" aria-roledescription="point" transform="translate(76.25620024138799,232.22256554900352)" d="M2.739,0A2.739,2.739,0,1,1,-2.739,0A2.739,2.739,0,1,1,2.739,0" stroke="#4c78a8" stroke-width="2" opacity="0.7"/><path aria-label="Reduced variate  y = -ln(-ln p): −0.68608000866; Annual maximum flow (m^3/s): 63.3427583271" role="graphics-symbol" aria-roledescription="point" transform="translate(80.85661485172018,232.1327589352977)" d="M2.739,0A2.739,2.739,0,1,1,-2.739,0A2.739,2.739,0,1,1,2.739,0" stroke="#4c78a8" stroke-width="2" opacity="0.7"/><path aria-label="Reduced variate  y = -ln(-ln p): −0.616473507294; Annual maximum flow (m^3/s): 65.96760481" role="graphics-symbol" aria-roledescription="point" transform="translate(85.14009185884679,229.32042341785538)" d="M2.739,0A2.739,2.739,0,1,1,-2.739,0A2.739,2.739,0,1,1,2.739,0" stroke="#4c78a8" stroke-width="2" opacity="0.7"/><path aria-label="Reduced variate  y = -ln(-ln p): −0.550777447701; Annual maximum flow (m^3/s): 68.0874347563" role="graphics-symbol" aria-roledescription="point" transform="translate(89.18292629531307,227.04917704677308)" d="M2.739,0A2.739,2.739,0,1,1,-2.739,0A2.739,2.739,0,1,1,2.739,0" stroke="#4c78a8" stroke-width="2" opacity="0.7"/><path aria-label="Reduced variate  y = -ln(-ln p): −0.488113979695; Annual maximum flow (m^3/s): 78.7118943325" role="graphics-symbol" aria-roledescription="point" transform="translate(93.03913971105662,215.6658275009193)" d="M2.739,0A2.739,2.739,0,1,1,-2.739,0A2.739,2.739,0,1,1,2.739,0" stroke="#4c78a8" stroke-width="2" opacity="0.7"/><path aria-label="Reduced variate  y = -ln(-ln p): −0.427833304213; Annual maximum flow (m^3/s): 82.4661229912" role="graphics-symbol" aria-roledescription="point" transform="translate(96.74871974073265,211.6434396523351)" d="M2.739,0A2.739,2.739,0,1,1,-2.739,0A2.739,2.739,0,1,1,2.739,0" stroke="#4c78a8" stroke-width="2" opacity="0.7"/><path aria-label="Reduced variate  y = -ln(-ln p): −0.369436456404; Annual maximum flow (m^3/s): 84.7928676362" role="graphics-symbol" aria-roledescription="point" transform="translate(100.34237191359159,209.15049896123887)" d="M2.739,0A2.739,2.739,0,1,1,-2.739,0A2.739,2.739,0,1,1,2.739,0" stroke="#4c78a8" stroke-width="2" opacity="0.7"/><path aria-label="Reduced variate  y = -ln(-ln p): −0.312528045425; Annual maximum flow (m^3/s): 86.9413454801" role="graphics-symbol" aria-roledescription="point" transform="translate(103.8444279738245,206.84855841414318)" d="M2.739,0A2.739,2.739,0,1,1,-2.739,0A2.739,2.739,0,1,1,2.739,0" stroke="#4c78a8" stroke-width="2" opacity="0.7"/><path aria-label="Reduced variate  y = -ln(-ln p): −0.256785890468; Annual maximum flow (m^3/s): 87.9871193642" role="graphics-symbol" aria-roledescription="point" transform="translate(107.2747144327237,205.72808639549837)" d="M2.739,0A2.739,2.739,0,1,1,-2.739,0A2.739,2.739,0,1,1,2.739,0" stroke="#4c78a8" stroke-width="2" opacity="0.7"/><path aria-label="Reduced variate  y = -ln(-ln p): −0.20194069636; Annual maximum flow (m^3/s): 97.7794954896" role="graphics-symbol" aria-roledescription="point" transform="translate(110.64980330090302,195.23625483261858)" d="M2.739,0A2.739,2.739,0,1,1,-2.739,0A2.739,2.739,0,1,1,2.739,0" stroke="#4c78a8" stroke-width="2" opacity="0.7"/><path aria-label="Reduced variate  y = -ln(-ln p): −0.14776195286; Annual maximum flow (m^3/s): 99.1861568656" role="graphics-symbol" aria-roledescription="point" transform="translate(113.98387982398856,193.72911764394908)" d="M2.739,0A2.739,2.739,0,1,1,-2.739,0A2.739,2.739,0,1,1,2.739,0" stroke="#4c78a8" stroke-width="2" opacity="0.7"/><path aria-label="Reduced variate  y = -ln(-ln p): −0.0940478276167; Annual maximum flow (m^3/s): 102.253982904" role="graphics-symbol" aria-roledescription="point" transform="translate(117.28936445435698,190.4421611745787)" d="M2.739,0A2.739,2.739,0,1,1,-2.739,0A2.739,2.739,0,1,1,2.739,0" stroke="#4c78a8" stroke-width="2" opacity="0.7"/><path aria-label="Reduced variate  y = -ln(-ln p): −0.0406176934873; Annual maximum flow (m^3/s): 102.32325609" role="graphics-symbol" aria-roledescription="point" transform="translate(120.57737270847662,190.3679399030539)" d="M2.739,0A2.739,2.739,0,1,1,-2.739,0A2.739,2.739,0,1,1,2.739,0" stroke="#4c78a8" stroke-width="2" opacity="0.7"/><path aria-label="Reduced variate  y = -ln(-ln p): 0.0126935700019; Annual maximum flow (m^3/s): 110.200591935" role="graphics-symbol" aria-roledescription="point" transform="translate(123.85806584627272,181.92793721217993)" d="M2.739,0A2.739,2.739,0,1,1,-2.739,0A2.739,2.739,0,1,1,2.739,0" stroke="#4c78a8" stroke-width="2" opacity="0.7"/><path aria-label="Reduced variate  y = -ln(-ln p): 0.0660400647752; Annual maximum flow (m^3/s): 114.25178115" role="graphics-symbol" aria-roledescription="point" transform="translate(127.14092706308729,177.58737733939384)" d="M2.739,0A2.739,2.739,0,1,1,-2.739,0A2.739,2.739,0,1,1,2.739,0" stroke="#4c78a8" stroke-width="2" opacity="0.7"/><path aria-label="Reduced variate  y = -ln(-ln p): 0.119568534335; Annual maximum flow (m^3/s): 114.373650912" role="graphics-symbol" aria-roledescription="point" transform="translate(130.43498672829907,177.45680259427584)" d="M2.739,0A2.739,2.739,0,1,1,-2.739,0A2.739,2.739,0,1,1,2.739,0" stroke="#4c78a8" stroke-width="2" opacity="0.7"/><path aria-label="Reduced variate  y = -ln(-ln p): 0.173421465131; Annual maximum flow (m^3/s): 118.783132158" role="graphics-symbol" aria-roledescription="point" transform="translate(133.7490132388255,172.73235840182025)" d="M2.739,0A2.739,2.739,0,1,1,-2.739,0A2.739,2.739,0,1,1,2.739,0" stroke="#4c78a8" stroke-width="2" opacity="0.7"/><path aria-label="Reduced variate  y = -ln(-ln p): 0.227739827031; Annual maximum flow (m^3/s): 119.339987438" role="graphics-symbol" aria-roledescription="point" transform="translate(137.091681663431,172.13572774496515)" d="M2.739,0A2.739,2.739,0,1,1,-2.739,0A2.739,2.739,0,1,1,2.739,0" stroke="#4c78a8" stroke-width="2" opacity="0.7"/><path aria-label="Reduced variate  y = -ln(-ln p): 0.28266560615; Annual maximum flow (m^3/s): 120.469288131" role="graphics-symbol" aria-roledescription="point" transform="translate(140.47172960922708,170.92576271707034)" d="M2.739,0A2.739,2.739,0,1,1,-2.739,0A2.739,2.739,0,1,1,2.739,0" stroke="#4c78a8" stroke-width="2" opacity="0.7"/><path aria-label="Reduced variate  y = -ln(-ln p): 0.338344256759; Annual maximum flow (m^3/s): 122.848491024" role="graphics-symbol" aria-roledescription="point" transform="translate(143.89810810827356,168.376616760164)" d="M2.739,0A2.739,2.739,0,1,1,-2.739,0A2.739,2.739,0,1,1,2.739,0" stroke="#4c78a8" stroke-width="2" opacity="0.7"/><path aria-label="Reduced variate  y = -ln(-ln p): 0.394927185511; Annual maximum flow (m^3/s): 122.992492346" role="graphics-symbol" aria-roledescription="point" transform="translate(147.38013449296483,168.22232962976088)" d="M2.739,0A2.739,2.739,0,1,1,-2.739,0A2.739,2.739,0,1,1,2.739,0" stroke="#4c78a8" stroke-width="2" opacity="0.7"/><path aria-label="Reduced variate  y = -ln(-ln p): 0.452574378188; Annual maximum flow (m^3/s): 123.970909848" role="graphics-symbol" aria-roledescription="point" transform="translate(150.9276540423347,167.17402516311765)" d="M2.739,0A2.739,2.739,0,1,1,-2.739,0A2.739,2.739,0,1,1,2.739,0" stroke="#4c78a8" stroke-width="2" opacity="0.7"/><path aria-label="Reduced variate  y = -ln(-ln p): 0.51145728564; Annual maximum flow (m^3/s): 128.777328792" role="graphics-symbol" aria-roledescription="point" transform="translate(154.55121757787595,162.0242905797759)" d="M2.739,0A2.739,2.739,0,1,1,-2.739,0A2.739,2.739,0,1,1,2.739,0" stroke="#4c78a8" stroke-width="2" opacity="0.7"/><path aria-label="Reduced variate  y = -ln(-ln p): 0.571762101856; Annual maximum flow (m^3/s): 129.174842288" role="graphics-symbol" aria-roledescription="point" transform="translate(158.26228319115444,161.5983832627846)" d="M2.739,0A2.739,2.739,0,1,1,-2.739,0A2.739,2.739,0,1,1,2.739,0" stroke="#4c78a8" stroke-width="2" opacity="0.7"/><path aria-label="Reduced variate  y = -ln(-ln p): 0.633693595081; Annual maximum flow (m^3/s): 129.463617011" role="graphics-symbol" aria-roledescription="point" transform="translate(162.0734520049718,161.2889817740973)" d="M2.739,0A2.739,2.739,0,1,1,-2.739,0A2.739,2.739,0,1,1,2.739,0" stroke="#4c78a8" stroke-width="2" opacity="0.7"/><path aria-label="Reduced variate  y = -ln(-ln p): 0.697479695887; Annual maximum flow (m^3/s): 134.125766808" role="graphics-symbol" aria-roledescription="point" transform="translate(165.9987505161066,156.2938212775024)" d="M2.739,0A2.739,2.739,0,1,1,-2.739,0A2.739,2.739,0,1,1,2.739,0" stroke="#4c78a8" stroke-width="2" opacity="0.7"/><path aria-label="Reduced variate  y = -ln(-ln p): 0.763377109906; Annual maximum flow (m^3/s): 135.818188693" role="graphics-symbol" aria-roledescription="point" transform="translate(170.053975994232,154.48051211497798)" d="M2.739,0A2.739,2.739,0,1,1,-2.739,0A2.739,2.739,0,1,1,2.739,0" stroke="#4c78a8" stroke-width="2" opacity="0.7"/><path aria-label="Reduced variate  y = -ln(-ln p): 0.831678316795; Annual maximum flow (m^3/s): 142.918813118" role="graphics-symbol" aria-roledescription="point" transform="translate(174.2571271873715,146.872700230317)" d="M2.739,0A2.739,2.739,0,1,1,-2.739,0A2.739,2.739,0,1,1,2.739,0" stroke="#4c78a8" stroke-width="2" opacity="0.7"/><path aria-label="Reduced variate  y = -ln(-ln p): 0.902720455718; Annual maximum flow (m^3/s): 147.185481966" role="graphics-symbol" aria-roledescription="point" transform="translate(178.6289511211003,142.30126932162383)" d="M2.739,0A2.739,2.739,0,1,1,-2.739,0A2.739,2.739,0,1,1,2.739,0" stroke="#4c78a8" stroke-width="2" opacity="0.7"/><path aria-label="Reduced variate  y = -ln(-ln p): 0.97689680527; Annual maximum flow (m^3/s): 147.275158679" role="graphics-symbol" aria-roledescription="point" transform="translate(183.19364955506938,142.2051871291675)" d="M2.739,0A2.739,2.739,0,1,1,-2.739,0A2.739,2.739,0,1,1,2.739,0" stroke="#4c78a8" stroke-width="2" opacity="0.7"/><path aria-label="Reduced variate  y = -ln(-ln p): 1.05467188196; Annual maximum flow (m^3/s): 147.357777644" role="graphics-symbol" aria-roledescription="point" transform="translate(187.97980812066365,142.116666810157)" d="M2.739,0A2.739,2.739,0,1,1,-2.739,0A2.739,2.739,0,1,1,2.739,0" stroke="#4c78a8" stroke-width="2" opacity="0.7"/><path aria-label="Reduced variate  y = -ln(-ln p): 1.13660167357; Annual maximum flow (m^3/s): 147.516808521" role="graphics-symbol" aria-roledescription="point" transform="translate(193.02164145029877,141.94627658497683)" d="M2.739,0A2.739,2.739,0,1,1,-2.739,0A2.739,2.739,0,1,1,2.739,0" stroke="#4c78a8" stroke-width="2" opacity="0.7"/><path aria-label="Reduced variate  y = -ln(-ln p): 1.22336130919; Annual maximum flow (m^3/s): 148.073940183" role="graphics-symbol" aria-roledescription="point" transform="translate(198.36069595013242,141.34934980367953)" d="M2.739,0A2.739,2.739,0,1,1,-2.739,0A2.739,2.739,0,1,1,2.739,0" stroke="#4c78a8" stroke-width="2" opacity="0.7"/><path aria-label="Reduced variate  y = -ln(-ln p): 1.31578375868; Annual maximum flow (m^3/s): 153.90244577" role="graphics-symbol" aria-roledescription="point" transform="translate(204.04823130354833,135.1045223893694)" d="M2.739,0A2.739,2.739,0,1,1,-2.739,0A2.739,2.739,0,1,1,2.739,0" stroke="#4c78a8" stroke-width="2" opacity="0.7"/><path aria-label="Reduced variate  y = -ln(-ln p): 1.41491534737; Annual maximum flow (m^3/s): 154.660856791" role="graphics-symbol" aria-roledescription="point" transform="translate(210.14863676144887,134.2919391520075)" d="M2.739,0A2.739,2.739,0,1,1,-2.739,0A2.739,2.739,0,1,1,2.739,0" stroke="#4c78a8" stroke-width="2" opacity="0.7"/><path aria-label="Reduced variate  y = -ln(-ln p): 1.52209774524; Annual maximum flow (m^3/s): 163.356944256" role="graphics-symbol" aria-roledescription="point" transform="translate(216.74447663036784,124.97470258312993)" d="M2.739,0A2.739,2.739,0,1,1,-2.739,0A2.739,2.739,0,1,1,2.739,0" stroke="#4c78a8" stroke-width="2" opacity="0.7"/><path aria-label="Reduced variate  y = -ln(-ln p): 1.63909324496; Annual maximum flow (m^3/s): 167.821671082" role="graphics-symbol" aria-roledescription="point" transform="translate(223.94419969006844,120.19106669816139)" d="M2.739,0A2.739,2.739,0,1,1,-2.739,0A2.739,2.739,0,1,1,2.739,0" stroke="#4c78a8" stroke-width="2" opacity="0.7"/><path aria-label="Reduced variate  y = -ln(-ln p): 1.76828408283; Annual maximum flow (m^3/s): 175.252887802" role="graphics-symbol" aria-roledescription="point" transform="translate(231.89440509726617,112.22904878332663)" d="M2.739,0A2.739,2.739,0,1,1,-2.739,0A2.739,2.739,0,1,1,2.739,0" stroke="#4c78a8" stroke-width="2" opacity="0.7"/><path aria-label="Reduced variate  y = -ln(-ln p): 1.9130055022; Annual maximum flow (m^3/s): 177.815399999" role="graphics-symbol" aria-roledescription="point" transform="translate(240.80033859711546,109.48350000075551)" d="M2.739,0A2.739,2.739,0,1,1,-2.739,0A2.739,2.739,0,1,1,2.739,0" stroke="#4c78a8" stroke-width="2" opacity="0.7"/><path aria-label="Reduced variate  y = -ln(-ln p): 2.07813724901; Annual maximum flow (m^3/s): 194.610358424" role="graphics-symbol" aria-roledescription="point" transform="translate(250.9622922466093,91.48890168840032)" d="M2.739,0A2.739,2.739,0,1,1,-2.739,0A2.739,2.739,0,1,1,2.739,0" stroke="#4c78a8" stroke-width="2" opacity="0.7"/><path aria-label="Reduced variate  y = -ln(-ln p): 2.27123918726; Annual maximum flow (m^3/s): 196.415646663" role="graphics-symbol" aria-roledescription="point" transform="translate(262.84548844681285,89.55466429000913)" d="M2.739,0A2.739,2.739,0,1,1,-2.739,0A2.739,2.739,0,1,1,2.739,0" stroke="#4c78a8" stroke-width="2" opacity="0.7"/><path aria-label="Reduced variate  y = -ln(-ln p): 2.50497021151; Annual maximum flow (m^3/s): 197.297656152" role="graphics-symbol" aria-roledescription="point" transform="translate(277.22893609292163,88.60965412263428)" d="M2.739,0A2.739,2.739,0,1,1,-2.739,0A2.739,2.739,0,1,1,2.739,0" stroke="#4c78a8" stroke-width="2" opacity="0.7"/><path aria-label="Reduced variate  y = -ln(-ln p): 2.80305416782; Annual maximum flow (m^3/s): 215.379166782" role="graphics-symbol" aria-roledescription="point" transform="translate(295.57256417374595,69.23660701927173)" d="M2.739,0A2.739,2.739,0,1,1,-2.739,0A2.739,2.739,0,1,1,2.739,0" stroke="#4c78a8" stroke-width="2" opacity="0.7"/><path aria-label="Reduced variate  y = -ln(-ln p): 3.21874246842; Annual maximum flow (m^3/s): 228.789572602" role="graphics-symbol" aria-roledescription="point" transform="translate(321.15338267188235,54.86831506953873)" d="M2.739,0A2.739,2.739,0,1,1,-2.739,0A2.739,2.739,0,1,1,2.739,0" stroke="#4c78a8" stroke-width="2" opacity="0.7"/><path aria-label="Reduced variate  y = -ln(-ln p): 3.92194065836; Annual maximum flow (m^3/s): 245.016889351" role="graphics-symbol" aria-roledescription="point" transform="translate(364.4271174374256,37.48190426702407)" d="M2.739,0A2.739,2.739,0,1,1,-2.739,0A2.739,2.739,0,1,1,2.739,0" stroke="#4c78a8" stroke-width="2" opacity="0.7"/></g><g class="mark-line role-mark layer_1_marks" role="graphics-object" aria-roledescription="line mark container"><path aria-label="y: −1.86910385561; flow: 31.734807959" role="graphics-symbol" aria-roledescription="line mark" d="M8.055,265.998L10.001,264.716L11.946,263.434L13.891,262.152L15.837,260.87L17.782,259.588L19.728,258.306L21.673,257.024L23.619,255.743L25.564,254.461L27.509,253.179L29.455,251.897L31.4,250.615L33.346,249.333L35.291,248.051L37.237,246.769L39.182,245.487L41.128,244.205L43.073,242.923L45.018,241.641L46.964,240.359L48.909,239.077L50.855,237.795L52.8,236.513L54.746,235.231L56.691,233.949L58.636,232.667L60.582,231.385L62.527,230.103L64.473,228.821L66.418,227.539L68.364,226.257L70.309,224.975L72.254,223.693L74.2,222.411L76.145,221.129L78.091,219.847L80.036,218.565L81.982,217.283L83.927,216.001L85.872,214.719L87.818,213.437L89.763,212.155L91.709,210.873L93.654,209.591L95.6,208.309L97.545,207.027L99.491,205.745L101.436,204.463L103.381,203.181L105.327,201.899L107.272,200.617L109.218,199.335L111.163,198.053L113.109,196.771L115.054,195.489L116.999,194.207L118.945,192.925L120.89,191.643L122.836,190.361L124.781,189.079L126.727,187.797L128.672,186.515L130.617,185.233L132.563,183.951L134.508,182.669L136.454,181.387L138.399,180.105L140.345,178.823L142.29,177.541L144.235,176.259L146.181,174.977L148.126,173.695L150.072,172.413L152.017,171.131L153.963,169.849L155.908,168.567L157.854,167.285L159.799,166.003L161.744,164.721L163.69,163.439L165.635,162.157L167.581,160.875L169.526,159.593L171.472,158.311L173.417,157.029L175.362,155.747L177.308,154.465L179.253,153.183L181.199,151.901L183.144,150.619L185.09,149.337L187.035,148.055L188.98,146.773L190.926,145.491L192.871,144.209L194.817,142.927L196.762,141.646L198.708,140.364L200.653,139.082L202.598,137.8L204.544,136.518L206.489,135.236L208.435,133.954L210.38,132.672L212.326,131.39L214.271,130.108L216.216,128.826L218.162,127.544L220.107,126.262L222.053,124.98L223.998,123.698L225.944,122.416L227.889,121.134L229.835,119.852L231.78,118.57L233.725,117.288L235.671,116.006L237.616,114.724L239.562,113.442L241.507,112.16L243.453,110.878L245.398,109.596L247.343,108.314L249.289,107.032L251.234,105.75L253.18,104.468L255.125,103.186L257.071,101.904L259.016,100.622L260.961,99.34L262.907,98.058L264.852,96.776L266.798,95.494L268.743,94.212L270.689,92.93L272.634,91.648L274.579,90.366L276.525,89.084L278.47,87.802L280.416,86.52L282.361,85.238L284.307,83.956L286.252,82.674L288.198,81.392L290.143,80.11L292.088,78.828L294.034,77.546L295.979,76.264L297.925,74.982L299.87,73.7L301.816,72.418L303.761,71.136L305.706,69.854L307.652,68.572L309.597,67.29L311.543,66.008L313.488,64.726L315.434,63.444L317.379,62.162L319.324,60.88L321.27,59.598L323.215,58.316L325.161,57.034L327.106,55.752L329.052,54.47L330.997,53.188L332.942,51.906L334.888,50.624L336.833,49.342L338.779,48.06L340.724,46.778L342.67,45.496L344.615,44.214L346.561,42.932L348.506,41.65L350.451,40.368L352.397,39.086L354.342,37.804L356.288,36.522L358.233,35.24L360.179,33.958L362.124,32.676L364.069,31.394L366.015,30.112L367.96,28.83L369.906,27.549L371.851,26.267L373.797,24.985L375.742,23.703L377.687,22.421L379.633,21.139L381.578,19.857L383.524,18.575L385.469,17.293L387.415,16.011L389.36,14.729L391.305,13.447L393.251,12.165L395.196,10.883" stroke="firebrick" stroke-width="2"/></g><g class="mark-group role-title"><g transform="translate(200,-17)"><path class="background" aria-hidden="true" d="M0,0h0v0h0Z" pointer-events="none"/><g><g class="mark-text role-title-text" role="graphics-symbol" aria-roledescription="title" aria-label="Title text 'Gumbel probability paper'" pointer-events="none"><text text-anchor="middle" transform="translate(0,10)" font-family="sans-serif" font-size="13px" font-weight="bold" fill="#000" opacity="1">Gumbel probability paper</text></g></g><path class="foreground" aria-hidden="true" d="" pointer-events="none" display="none"/></g></g></g><path class="foreground" aria-hidden="true" d="" display="none"/></g></g></g></svg>