<?xml version="1.0" encoding="utf-8"?>
<!-- Generated by IcoMoon.io -->
<!DOCTYPE svg PUBLIC "-//W3C//DTD SVG 1.1//EN" "http://www.w3.org/Graphics/SVG/1.1/DTD/svg11.dtd">
<svg version="1.1" xmlns="http://www.w3.org/2000/svg" xmlns:xlink="http://www.w3.org/1999/xlink" width="512" height="512" viewBox="0 0 512 512">
<g>
</g>
	<path d="M478.976 256.021c0 122.962-100.024 222.976-222.966 222.976s-222.986-100.014-222.986-222.976 100.045-222.976 222.986-222.976 222.966 100.014 222.966 222.976zM256.010 12.298c-134.38 0-243.712 109.363-243.712 243.722 0 134.38 109.332 243.682 243.712 243.682s243.702-109.302 243.702-243.682c0-134.359-109.322-243.722-243.702-243.722z" fill="#000000" />
	<path d="M303.268 208.763l-47.257-175.504-47.257 175.504-175.504 47.216 175.504 47.278 47.257 175.503 47.257-175.504 175.503-47.278-175.504-47.216zM256.010 310.344c-29.962 0-54.344-24.382-54.344-54.364 0-29.942 24.381-54.303 54.344-54.303s54.334 24.361 54.334 54.303c0 29.982-24.371 54.364-54.334 54.364z" fill="#000000" />
	<path d="M256.010 222.403c-18.544 0-33.618 15.104-33.618 33.577 0 18.565 15.084 33.618 33.618 33.618 18.524 0 33.608-15.063 33.608-33.618 0-18.483-15.084-33.577-33.608-33.577z" fill="#000000" />
	<path d="M202.465 256.738l-71.66 124.457 123.3-71.004c-28.508-1.372-51.303-24.647-51.641-53.453z" fill="#000000" />
	<path d="M310.774 253.123l70.43-122.296-123.474 71.076c28.467 0.522 51.456 23.040 53.043 51.22z" fill="#000000" />
	<path d="M310.805 258.939c-1.485 28.201-24.32 50.657-52.685 51.405l123.075 70.861-70.39-122.265z" fill="#000000" />
	<path d="M254.484 202.035l-123.668-71.219 71.68 124.477c0.44-28.795 23.378-52.071 51.989-53.258z" fill="#000000" />
	<path d="M256.738 222.515c-18.535 0-33.608 15.084-33.608 33.618s15.084 33.598 33.608 33.598c18.545 0 33.608-15.063 33.608-33.597s-15.063-33.618-33.608-33.618z" fill="#000000" />
	<path d="M257.731 201.902c-0.327 0-0.645-0.102-0.993-0.102-0.768 0-1.485 0.185-2.263 0.236l1.526 0.881 1.731-1.014z" fill="#000000" />
	<path d="M310.805 258.939c0.031-0.962 0.276-1.863 0.276-2.796 0-1.044-0.246-1.997-0.307-3.021l-1.659 2.857 1.69 2.959z" fill="#000000" />
	<path d="M254.106 310.2c0.891 0.062 1.731 0.276 2.632 0.276 0.461 0 0.911-0.144 1.382-0.144l-2.11-1.239-1.905 1.106z" fill="#000000" />
	<path d="M202.486 255.304c0 0.276-0.082 0.583-0.082 0.84 0 0.205 0.061 0.379 0.061 0.604l0.42-0.758-0.399-0.686z" fill="#000000" />
</svg>
