<?xml version="1.0" encoding="UTF-8" standalone="no"?>
<!DOCTYPE svg PUBLIC "-//W3C//DTD SVG 1.1//EN"
 "http://www.w3.org/Graphics/SVG/1.1/DTD/svg11.dtd">
<!-- Generated by graphviz version 9.0.0 (20230911.1827)
 -->
<!-- Title: select Pages: 1 -->
<svg width="694pt" height="476pt"
 viewBox="0.00 0.00 694.17 476.00" xmlns="http://www.w3.org/2000/svg" xmlns:xlink="http://www.w3.org/1999/xlink">
<g id="graph0" class="graph" transform="scale(1 1) rotate(0) translate(4 472)">
<title>select</title>
<polygon fill="white" stroke="none" points="-4,4 -4,-472 690.17,-472 690.17,4 -4,4"/>
<!-- select -->
<g id="node1" class="node">
<title>select</title>
<polygon fill="none" stroke="black" points="375.92,-468 321.92,-468 321.92,-432 375.92,-432 375.92,-468"/>
<text text-anchor="middle" x="348.92" y="-444.95" font-family="Times,serif" font-size="14.00">select</text>
</g>
<!-- chooses -->
<g id="node2" class="node">
<title>chooses</title>
<ellipse fill="none" stroke="black" cx="348.92" cy="-378" rx="40.09" ry="18"/>
<text text-anchor="middle" x="348.92" y="-372.95" font-family="Times,serif" font-size="14.00">chooses</text>
</g>
<!-- select&#45;&gt;chooses -->
<g id="edge1" class="edge">
<title>select&#45;&gt;chooses</title>
<path fill="none" stroke="black" d="M348.92,-431.7C348.92,-424.41 348.92,-415.73 348.92,-407.54"/>
<polygon fill="black" stroke="black" points="352.42,-407.62 348.92,-397.62 345.42,-407.62 352.42,-407.62"/>
</g>
<!-- rows -->
<g id="node3" class="node">
<title>rows</title>
<polygon fill="none" stroke="black" points="312.92,-324 258.92,-324 258.92,-288 312.92,-288 312.92,-324"/>
<text text-anchor="middle" x="285.92" y="-300.95" font-family="Times,serif" font-size="14.00">rows</text>
</g>
<!-- chooses&#45;&gt;rows -->
<g id="edge2" class="edge">
<title>chooses&#45;&gt;rows</title>
<path fill="none" stroke="black" d="M334.31,-360.76C326.74,-352.35 317.32,-341.89 308.81,-332.44"/>
<polygon fill="black" stroke="black" points="311.63,-330.34 302.34,-325.25 306.43,-335.02 311.63,-330.34"/>
</g>
<!-- columns -->
<g id="node4" class="node">
<title>columns</title>
<polygon fill="none" stroke="black" points="443.17,-324 380.67,-324 380.67,-288 443.17,-288 443.17,-324"/>
<text text-anchor="middle" x="411.92" y="-300.95" font-family="Times,serif" font-size="14.00">columns</text>
</g>
<!-- chooses&#45;&gt;columns -->
<g id="edge3" class="edge">
<title>chooses&#45;&gt;columns</title>
<path fill="none" stroke="black" d="M363.53,-360.76C371.1,-352.35 380.52,-341.89 389.03,-332.44"/>
<polygon fill="black" stroke="black" points="391.41,-335.02 395.49,-325.25 386.2,-330.34 391.41,-335.02"/>
</g>
<!-- from -->
<g id="node9" class="node">
<title>from</title>
<ellipse fill="none" stroke="black" cx="411.92" cy="-234" rx="29.34" ry="18"/>
<text text-anchor="middle" x="411.92" y="-228.95" font-family="Times,serif" font-size="14.00">from</text>
</g>
<!-- rows&#45;&gt;from -->
<g id="edge9" class="edge">
<title>rows&#45;&gt;from</title>
<path fill="none" stroke="black" d="M313.26,-289.81C333.2,-278.73 360.24,-263.71 380.97,-252.19"/>
<polygon fill="black" stroke="black" points="382.51,-255.34 389.55,-247.43 379.11,-249.22 382.51,-255.34"/>
</g>
<!-- can be paged with -->
<g id="node13" class="node">
<title>can be paged with</title>
<ellipse fill="none" stroke="black" cx="285.92" cy="-234" rx="78.48" ry="18"/>
<text text-anchor="middle" x="285.92" y="-228.95" font-family="Times,serif" font-size="14.00">can be paged with</text>
</g>
<!-- rows&#45;&gt;can be paged with -->
<g id="edge13" class="edge">
<title>rows&#45;&gt;can be paged with</title>
<path fill="none" stroke="black" d="M285.92,-287.7C285.92,-280.41 285.92,-271.73 285.92,-263.54"/>
<polygon fill="black" stroke="black" points="289.42,-263.62 285.92,-253.62 282.42,-263.62 289.42,-263.62"/>
</g>
<!-- can be filtered by -->
<g id="node14" class="node">
<title>can be filtered by</title>
<ellipse fill="none" stroke="black" cx="75.92" cy="-234" rx="75.92" ry="18"/>
<text text-anchor="middle" x="75.92" y="-228.95" font-family="Times,serif" font-size="14.00">can be filtered by</text>
</g>
<!-- rows&#45;&gt;can be filtered by -->
<g id="edge14" class="edge">
<title>rows&#45;&gt;can be filtered by</title>
<path fill="none" stroke="black" d="M258.46,-295.85C225.81,-284.96 170.53,-266.54 129.35,-252.81"/>
<polygon fill="black" stroke="black" points="130.7,-249.57 120.1,-249.73 128.48,-256.21 130.7,-249.57"/>
</g>
<!-- specified by -->
<g id="node5" class="node">
<title>specified by</title>
<ellipse fill="none" stroke="black" cx="537.92" cy="-234" rx="55.96" ry="18"/>
<text text-anchor="middle" x="537.92" y="-228.95" font-family="Times,serif" font-size="14.00">specified by</text>
</g>
<!-- columns&#45;&gt;specified by -->
<g id="edge4" class="edge">
<title>columns&#45;&gt;specified by</title>
<path fill="none" stroke="black" d="M443.39,-287.52C460.77,-277.86 482.48,-265.8 500.7,-255.68"/>
<polygon fill="black" stroke="black" points="502.33,-258.78 509.37,-250.86 498.93,-252.66 502.33,-258.78"/>
</g>
<!-- columns&#45;&gt;from -->
<g id="edge8" class="edge">
<title>columns&#45;&gt;from</title>
<path fill="none" stroke="black" d="M411.92,-287.7C411.92,-280.41 411.92,-271.73 411.92,-263.54"/>
<polygon fill="black" stroke="black" points="415.42,-263.62 411.92,-253.62 408.42,-263.62 415.42,-263.62"/>
</g>
<!-- names -->
<g id="node6" class="node">
<title>names</title>
<polygon fill="none" stroke="black" points="587.92,-180 533.92,-180 533.92,-144 587.92,-144 587.92,-180"/>
<text text-anchor="middle" x="560.92" y="-156.95" font-family="Times,serif" font-size="14.00">names</text>
</g>
<!-- specified by&#45;&gt;names -->
<g id="edge5" class="edge">
<title>specified by&#45;&gt;names</title>
<path fill="none" stroke="black" d="M543.6,-215.7C546.05,-208.24 548.98,-199.32 551.73,-190.97"/>
<polygon fill="black" stroke="black" points="555.03,-192.14 554.83,-181.54 548.38,-189.95 555.03,-192.14"/>
</g>
<!-- calculations -->
<g id="node7" class="node">
<title>calculations</title>
<polygon fill="none" stroke="black" points="686.17,-180 605.67,-180 605.67,-144 686.17,-144 686.17,-180"/>
<text text-anchor="middle" x="645.92" y="-156.95" font-family="Times,serif" font-size="14.00">calculations</text>
</g>
<!-- specified by&#45;&gt;calculations -->
<g id="edge6" class="edge">
<title>specified by&#45;&gt;calculations</title>
<path fill="none" stroke="black" d="M561.89,-217.46C575.88,-208.39 593.83,-196.76 609.54,-186.58"/>
<polygon fill="black" stroke="black" points="611.22,-189.66 617.71,-181.28 607.41,-183.79 611.22,-189.66"/>
</g>
<!-- * (for all) -->
<g id="node8" class="node">
<title>* (for all)</title>
<polygon fill="none" stroke="black" points="516.17,-180 447.67,-180 447.67,-144 516.17,-144 516.17,-180"/>
<text text-anchor="middle" x="481.92" y="-156.95" font-family="Times,serif" font-size="14.00">* (for all)</text>
</g>
<!-- specified by&#45;&gt;* (for all) -->
<g id="edge7" class="edge">
<title>specified by&#45;&gt;* (for all)</title>
<path fill="none" stroke="black" d="M524.36,-216.05C517.92,-208.01 510.08,-198.2 502.9,-189.23"/>
<polygon fill="black" stroke="black" points="505.66,-187.08 496.68,-181.46 500.2,-191.45 505.66,-187.08"/>
</g>
<!-- table -->
<g id="node10" class="node">
<title>table</title>
<polygon fill="none" stroke="black" points="429.92,-180 375.92,-180 375.92,-144 429.92,-144 429.92,-180"/>
<text text-anchor="middle" x="402.92" y="-156.95" font-family="Times,serif" font-size="14.00">table</text>
</g>
<!-- from&#45;&gt;table -->
<g id="edge10" class="edge">
<title>from&#45;&gt;table</title>
<path fill="none" stroke="black" d="M409.69,-215.7C408.75,-208.32 407.61,-199.52 406.55,-191.25"/>
<polygon fill="black" stroke="black" points="410.06,-191.08 405.31,-181.61 403.11,-191.97 410.06,-191.08"/>
</g>
<!-- identified by -->
<g id="node11" class="node">
<title>identified by</title>
<ellipse fill="none" stroke="black" cx="402.92" cy="-90" rx="58" ry="18"/>
<text text-anchor="middle" x="402.92" y="-84.95" font-family="Times,serif" font-size="14.00">identified by</text>
</g>
<!-- table&#45;&gt;identified by -->
<g id="edge11" class="edge">
<title>table&#45;&gt;identified by</title>
<path fill="none" stroke="black" d="M402.92,-143.7C402.92,-136.41 402.92,-127.73 402.92,-119.54"/>
<polygon fill="black" stroke="black" points="406.42,-119.62 402.92,-109.62 399.42,-119.62 406.42,-119.62"/>
</g>
<!-- name -->
<g id="node12" class="node">
<title>name</title>
<polygon fill="none" stroke="black" points="429.92,-36 375.92,-36 375.92,0 429.92,0 429.92,-36"/>
<text text-anchor="middle" x="402.92" y="-12.95" font-family="Times,serif" font-size="14.00">name</text>
</g>
<!-- identified by&#45;&gt;name -->
<g id="edge12" class="edge">
<title>identified by&#45;&gt;name</title>
<path fill="none" stroke="black" d="M402.92,-71.7C402.92,-64.41 402.92,-55.73 402.92,-47.54"/>
<polygon fill="black" stroke="black" points="406.42,-47.62 402.92,-37.62 399.42,-47.62 406.42,-47.62"/>
</g>
<!-- limit -->
<g id="node15" class="node">
<title>limit</title>
<polygon fill="none" stroke="black" points="349.92,-180 295.92,-180 295.92,-144 349.92,-144 349.92,-180"/>
<text text-anchor="middle" x="322.92" y="-156.95" font-family="Times,serif" font-size="14.00">limit</text>
</g>
<!-- can be paged with&#45;&gt;limit -->
<g id="edge15" class="edge">
<title>can be paged with&#45;&gt;limit</title>
<path fill="none" stroke="black" d="M295.06,-215.7C299.14,-207.98 304.04,-198.71 308.59,-190.11"/>
<polygon fill="black" stroke="black" points="311.59,-191.92 313.17,-181.44 305.4,-188.65 311.59,-191.92"/>
</g>
<!-- offset -->
<g id="node16" class="node">
<title>offset</title>
<polygon fill="none" stroke="black" points="277.92,-180 223.92,-180 223.92,-144 277.92,-144 277.92,-180"/>
<text text-anchor="middle" x="250.92" y="-156.95" font-family="Times,serif" font-size="14.00">offset</text>
</g>
<!-- can be paged with&#45;&gt;offset -->
<g id="edge16" class="edge">
<title>can be paged with&#45;&gt;offset</title>
<path fill="none" stroke="black" d="M277.27,-215.7C273.45,-208.07 268.88,-198.92 264.62,-190.4"/>
<polygon fill="black" stroke="black" points="267.75,-188.84 260.15,-181.46 261.49,-191.97 267.75,-188.84"/>
</g>
<!-- condition -->
<g id="node17" class="node">
<title>condition</title>
<polygon fill="none" stroke="black" points="109.42,-180 42.42,-180 42.42,-144 109.42,-144 109.42,-180"/>
<text text-anchor="middle" x="75.92" y="-156.95" font-family="Times,serif" font-size="14.00">condition</text>
</g>
<!-- can be filtered by&#45;&gt;condition -->
<g id="edge17" class="edge">
<title>can be filtered by&#45;&gt;condition</title>
<path fill="none" stroke="black" d="M75.92,-215.7C75.92,-208.41 75.92,-199.73 75.92,-191.54"/>
<polygon fill="black" stroke="black" points="79.42,-191.62 75.92,-181.62 72.42,-191.62 79.42,-191.62"/>
</g>
<!-- evaluated for each -->
<g id="node18" class="node">
<title>evaluated for each</title>
<ellipse fill="none" stroke="black" cx="179.92" cy="-90" rx="78.99" ry="18"/>
<text text-anchor="middle" x="179.92" y="-84.95" font-family="Times,serif" font-size="14.00">evaluated for each</text>
</g>
<!-- condition&#45;&gt;evaluated for each -->
<g id="edge18" class="edge">
<title>condition&#45;&gt;evaluated for each</title>
<path fill="none" stroke="black" d="M101.89,-143.52C115.19,-134.57 131.54,-123.56 145.84,-113.94"/>
<polygon fill="black" stroke="black" points="147.75,-116.87 154.09,-108.38 143.84,-111.06 147.75,-116.87"/>
</g>
<!-- must be -->
<g id="node19" class="node">
<title>must be</title>
<ellipse fill="none" stroke="black" cx="41.92" cy="-90" rx="40.6" ry="18"/>
<text text-anchor="middle" x="41.92" y="-84.95" font-family="Times,serif" font-size="14.00">must be</text>
</g>
<!-- condition&#45;&gt;must be -->
<g id="edge20" class="edge">
<title>condition&#45;&gt;must be</title>
<path fill="none" stroke="black" d="M67.51,-143.7C63.81,-136.07 59.36,-126.92 55.22,-118.4"/>
<polygon fill="black" stroke="black" points="58.4,-116.93 50.89,-109.47 52.11,-119.99 58.4,-116.93"/>
</g>
<!-- evaluated for each&#45;&gt;rows -->
<g id="edge19" class="edge">
<title>evaluated for each&#45;&gt;rows</title>
<path fill="none" stroke="black" d="M177.36,-108.12C173.6,-139.4 169.88,-206.76 198.92,-252 210.36,-269.83 230.15,-282.58 247.97,-291.1"/>
<polygon fill="black" stroke="black" points="246.49,-294.27 257.05,-295.14 249.33,-287.88 246.49,-294.27"/>
</g>
<!-- Boolean -->
<g id="node20" class="node">
<title>Boolean</title>
<polygon fill="none" stroke="black" points="72.42,-36 11.42,-36 11.42,0 72.42,0 72.42,-36"/>
<text text-anchor="middle" x="41.92" y="-12.95" font-family="Times,serif" font-size="14.00">Boolean</text>
</g>
<!-- must be&#45;&gt;Boolean -->
<g id="edge21" class="edge">
<title>must be&#45;&gt;Boolean</title>
<path fill="none" stroke="black" d="M41.92,-71.7C41.92,-64.41 41.92,-55.73 41.92,-47.54"/>
<polygon fill="black" stroke="black" points="45.42,-47.62 41.92,-37.62 38.42,-47.62 45.42,-47.62"/>
</g>
</g>
</svg>
