<svg xmlns="http://www.w3.org/2000/svg" xmlns:xlink="http://www.w3.org/1999/xlink" version="1.1" class="marks" width="546" height="314" viewBox="0 0 546 314"><rect width="546" height="314" fill="white"/><g fill="none" stroke-miterlimit="10" transform="translate(41,27)"><g class="mark-group role-frame root" role="graphics-object" aria-roledescription="group mark container"><g transform="translate(0,0)"><path class="background" aria-hidden="true" d="M0.5,0.5h500v250h-500Z" stroke="#ddd"/><g><g class="mark-group role-axis" aria-hidden="true"><g transform="translate(0.5,250.5)"><path class="background" aria-hidden="true" d="M0,0h0v0h0Z" pointer-events="none"/><g><g class="mark-rule role-axis-grid" pointer-events="none"><line transform="translate(0,-250)" x2="0" y2="250" stroke="#ddd" stroke-width="1" opacity="1"/><line transform="translate(29,-250)" x2="0" y2="250" stroke="#ddd" stroke-width="1" opacity="1"/><line transform="translate(57,-250)" x2="0" y2="250" stroke="#ddd" stroke-width="1" opacity="1"/><line transform="translate(86,-250)" x2="0" y2="250" stroke="#ddd" stroke-width="1" opacity="1"/><line transform="translate(114,-250)" x2="0" y2="250" stroke="#ddd" stroke-width="1" opacity="1"/><line transform="translate(143,-250)" x2="0" y2="250" stroke="#ddd" stroke-width="1" opacity="1"/><line transform="translate(171,-250)" x2="0" y2="250" stroke="#ddd" stroke-width="1" opacity="1"/><line transform="translate(200,-250)" x2="0" y2="250" stroke="#ddd" stroke-width="1" opacity="1"/><line transform="translate(229,-250)" x2="0" y2="250" stroke="#ddd" stroke-width="1" opacity="1"/><line transform="translate(257,-250)" x2="0" y2="250" stroke="#ddd" stroke-width="1" opacity="1"/><line transform="translate(286,-250)" x2="0" y2="250" stroke="#ddd" stroke-width="1" opacity="1"/><line transform="translate(314,-250)" x2="0" y2="250" stroke="#ddd" stroke-width="1" opacity="1"/><line transform="translate(343,-250)" x2="0" y2="250" stroke="#ddd" stroke-width="1" opacity="1"/><line transform="translate(371,-250)" x2="0" y2="250" stroke="#ddd" stroke-width="1" opacity="1"/><line transform="translate(400,-250)" x2="0" y2="250" stroke="#ddd" stroke-width="1" opacity="1"/><line transform="translate(429,-250)" x2="0" y2="250" stroke="#ddd" stroke-width="1" opacity="1"/><line transform="translate(457,-250)" x2="0" y2="250" stroke="#ddd" stroke-width="1" opacity="1"/><line transform="translate(486,-250)" x2="0" y2="250" stroke="#ddd" stroke-width="1" opacity="1"/></g></g><path class="foreground" aria-hidden="true" d="" pointer-events="none" display="none"/></g></g><g class="mark-group role-axis" aria-hidden="true"><g transform="translate(0.5,0.5)"><path class="background" aria-hidden="true" d="M0,0h0v0h0Z" pointer-events="none"/><g><g class="mark-rule role-axis-grid" pointer-events="none"><line transform="translate(0,250)" x2="500" y2="0" stroke="#ddd" stroke-width="1" opacity="1"/><line transform="translate(0,200)" x2="500" y2="0" stroke="#ddd" stroke-width="1" opacity="1"/><line transform="translate(0,150)" x2="500" y2="0" stroke="#ddd" stroke-width="1" opacity="1"/><line transform="translate(0,100)" x2="500" y2="0" stroke="#ddd" stroke-width="1" opacity="1"/><line transform="translate(0,50)" x2="500" y2="0" stroke="#ddd" stroke-width="1" opacity="1"/><line transform="translate(0,0)" x2="500" y2="0" stroke="#ddd" stroke-width="1" opacity="1"/></g></g><path class="foreground" aria-hidden="true" d="" pointer-events="none" display="none"/></g></g><g class="mark-group role-axis" role="graphics-symbol" aria-roledescription="axis" aria-label="X-axis titled 'Time (days)' for a linear scale with values from 0 to 35"><g transform="translate(0.5,250.5)"><path class="background" aria-hidden="true" d="M0,0h0v0h0Z" pointer-events="none"/><g><g class="mark-rule role-axis-tick" pointer-events="none"><line transform="translate(0,0)" x2="0" y2="5" stroke="#888" stroke-width="1" opacity="1"/><line transform="translate(29,0)" x2="0" y2="5" stroke="#888" stroke-width="1" opacity="1"/><line transform="translate(57,0)" x2="0" y2="5" stroke="#888" stroke-width="1" opacity="1"/><line transform="translate(86,0)" x2="0" y2="5" stroke="#888" stroke-width="1" opacity="1"/><line transform="translate(114,0)" x2="0" y2="5" stroke="#888" stroke-width="1" opacity="1"/><line transform="translate(143,0)" x2="0" y2="5" stroke="#888" stroke-width="1" opacity="1"/><line transform="translate(171,0)" x2="0" y2="5" stroke="#888" stroke-width="1" opacity="1"/><line transform="translate(200,0)" x2="0" y2="5" stroke="#888" stroke-width="1" opacity="1"/><line transform="translate(229,0)" x2="0" y2="5" stroke="#888" stroke-width="1" opacity="1"/><line transform="translate(257,0)" x2="0" y2="5" stroke="#888" stroke-width="1" opacity="1"/><line transform="translate(286,0)" x2="0" y2="5" stroke="#888" stroke-width="1" opacity="1"/><line transform="translate(314,0)" x2="0" y2="5" stroke="#888" stroke-width="1" opacity="1"/><line transform="translate(343,0)" x2="0" y2="5" stroke="#888" stroke-width="1" opacity="1"/><line transform="translate(371,0)" x2="0" y2="5" stroke="#888" stroke-width="1" opacity="1"/><line transform="translate(400,0)" x2="0" y2="5" stroke="#888" stroke-width="1" opacity="1"/><line transform="translate(429,0)" x2="0" y2="5" stroke="#888" stroke-width="1" opacity="1"/><line transform="translate(457,0)" x2="0" y2="5" stroke="#888" stroke-width="1" opacity="1"/><line transform="translate(486,0)" x2="0" y2="5" stroke="#888" stroke-width="1" opacity="1"/></g><g class="mark-text role-axis-label" pointer-events="none"><text text-anchor="start" transform="translate(0,15)" font-family="sans-serif" font-size="10px" fill="#000" opacity="1">0</text><text text-anchor="middle" transform="translate(28.57142857142857,15)" font-family="sans-serif" font-size="10px" fill="#000" opacity="1">2</text><text text-anchor="middle" transform="translate(57.14285714285714,15)" font-family="sans-serif" font-size="10px" fill="#000" opacity="1">4</text><text text-anchor="middle" transform="translate(85.71428571428571,15)" font-family="sans-serif" font-size="10px" fill="#000" opacity="1">6</text><text text-anchor="middle" transform="translate(114.28571428571428,15)" font-family="sans-serif" font-size="10px" fill="#000" opacity="1">8</text><text text-anchor="middle" transform="translate(142.85714285714286,15)" font-family="sans-serif" font-size="10px" fill="#000" opacity="1">10</text><text text-anchor="middle" transform="translate(171.42857142857142,15)" font-family="sans-serif" font-size="10px" fill="#000" opacity="1">12</text><text text-anchor="middle" transform="translate(200,15)" font-family="sans-serif" font-size="10px" fill="#000" opacity="1">14</text><text text-anchor="middle" transform="translate(228.57142857142856,15)" font-family="sans-serif" font-size="10px" fill="#000" opacity="1">16</text><text text-anchor="middle" transform="translate(257.1428571428571,15)" font-family="sans-serif" font-size="10px" fill="#000" opacity="1">18</text><text text-anchor="middle" transform="translate(285.7142857142857,15)" font-family="sans-serif" font-size="10px" fill="#000" opacity="1">20</text><text text-anchor="middle" transform="translate(314.2857142857143,15)" font-family="sans-serif" font-size="10px" fill="#000" opacity="1">22</text><text text-anchor="middle" transform="translate(342.85714285714283,15)" font-family="sans-serif" font-size="10px" fill="#000" opacity="1">24</text><text text-anchor="middle" transform="translate(371.42857142857144,15)" font-family="sans-serif" font-size="10px" fill="#000" opacity="1">26</text><text text-anchor="middle" transform="translate(400,15)" font-family="sans-serif" font-size="10px" fill="#000" opacity="1">28</text><text text-anchor="middle" transform="translate(428.57142857142856,15)" font-family="sans-serif" font-size="10px" fill="#000" opacity="1">30</text><text text-anchor="middle" transform="translate(457.1428571428571,15)" font-family="sans-serif" font-size="10px" fill="#000" opacity="1">32</text><text text-anchor="middle" transform="translate(485.7142857142857,15)" font-family="sans-serif" font-size="10px" fill="#000" opacity="1">34</text></g><g class="mark-rule role-axis-domain" pointer-events="none"><line transform="translate(0,0)" x2="500" y2="0" stroke="#888" stroke-width="1" opacity="1"/></g><g class="mark-text role-axis-title" pointer-events="none"><text text-anchor="middle" transform="translate(250,30)" font-family="sans-serif" font-size="11px" font-weight="bold" fill="#000" opacity="1">Time (days)</text></g></g><path class="foreground" aria-hidden="true" d="" pointer-events="none" display="none"/></g></g><g class="mark-group role-axis" role="graphics-symbol" aria-roledescription="axis" aria-label="Y-axis titled 'Survival probability' for a linear scale with values from 0.0 to 1.0"><g transform="translate(0.5,0.5)"><path class="background" aria-hidden="true" d="M0,0h0v0h0Z" pointer-events="none"/><g><g class="mark-rule role-axis-tick" pointer-events="none"><line transform="translate(0,250)" x2="-5" y2="0" stroke="#888" stroke-width="1" opacity="1"/><line transform="translate(0,200)" x2="-5" y2="0" stroke="#888" stroke-width="1" opacity="1"/><line transform="translate(0,150)" x2="-5" y2="0" stroke="#888" stroke-width="1" opacity="1"/><line transform="translate(0,100)" x2="-5" y2="0" stroke="#888" stroke-width="1" opacity="1"/><line transform="translate(0,50)" x2="-5" y2="0" stroke="#888" stroke-width="1" opacity="1"/><line transform="translate(0,0)" x2="-5" y2="0" stroke="#888" stroke-width="1" opacity="1"/></g><g class="mark-text role-axis-label" pointer-events="none"><text text-anchor="end" transform="translate(-7,253)" font-family="sans-serif" font-size="10px" fill="#000" opacity="1">0.0</text><text text-anchor="end" transform="translate(-7,203)" font-family="sans-serif" font-size="10px" fill="#000" opacity="1">0.2</text><text text-anchor="end" transform="translate(-7,153)" font-family="sans-serif" font-size="10px" fill="#000" opacity="1">0.4</text><text text-anchor="end" transform="translate(-7,103)" font-family="sans-serif" font-size="10px" fill="#000" opacity="1">0.6</text><text text-anchor="end" transform="translate(-7,52.999999999999986)" font-family="sans-serif" font-size="10px" fill="#000" opacity="1">0.8</text><text text-anchor="end" transform="translate(-7,3)" font-family="sans-serif" font-size="10px" fill="#000" opacity="1">1.0</text></g><g class="mark-rule role-axis-domain" pointer-events="none"><line transform="translate(0,250)" x2="0" y2="-250" stroke="#888" stroke-width="1" opacity="1"/></g><g class="mark-text role-axis-title" pointer-events="none"><text text-anchor="middle" transform="translate(-24.9013671875,125) rotate(-90) translate(0,-2)" font-family="sans-serif" font-size="11px" font-weight="bold" fill="#000" opacity="1">Survival probability</text></g></g><path class="foreground" aria-hidden="true" d="" pointer-events="none" display="none"/></g></g><g class="mark-line role-mark layer_0_marks" role="graphics-object" aria-roledescription="line mark container"><path aria-label="Time (days): 0; Survival probability: 1" role="graphics-symbol" aria-roledescription="line mark" d="M0,0L0.217,0L0.217,2.5L4.749,2.5L4.749,5L5.742,5L5.742,7.5L18.477,7.5L18.477,10L21.379,10L21.379,12.5L23.638,12.5L23.638,15L24.059,15L24.059,17.5L26.439,17.5L26.439,20L27.596,20L27.596,22.5L29.087,22.5L29.087,25L31.438,25L31.438,27.5L34.301,27.5L34.301,30L34.412,30L34.412,32.5L36.21,32.5L36.21,35L41.145,35L41.145,37.5L46.372,37.5L46.372,40L52.134,40L52.134,42.5L57.584,42.5L57.584,45L58.757,45L58.757,47.5L59.009,47.5L59.009,50L61.359,50L61.359,52.5L65.635,52.5L65.635,55L68.38,55L68.38,57.5L69.608,57.5L69.608,60L76.53,60L76.53,62.5L95.441,62.5L95.441,65L97.604,65L97.604,67.5L98.36,67.5L98.36,70L99.565,70L99.565,72.5L100.836,72.5L100.836,75L110.362,75L110.362,77.5L117.146,77.5L117.146,80L120.934,80L120.934,82.5L121.633,82.5L121.633,85L126.346,85L126.346,87.5L134.315,87.5L134.315,90L137.042,90L137.042,92.5L142.454,92.5L142.454,95L146.634,95L146.634,97.5L146.902,97.5L146.902,100L148.459,100L148.459,102.542L151.262,102.542L151.262,105.085L152.937,105.085L152.937,107.627L155.85,107.627L155.85,110.169L158.834,110.169L158.834,112.759L166.452,112.759L166.452,115.398L166.637,115.398L166.637,118.037L167.755,118.037L167.755,120.677L171.645,120.677L171.645,123.316L179.996,123.316L179.996,126.011L196.128,126.011L196.128,128.829L197.604,128.829L197.604,131.647L223.08,131.647L223.08,134.606L248.92,134.606L248.92,137.811L267.798,137.811L267.798,141.43L270.793,141.43L270.793,145.174L271.905,145.174L271.905,148.918L272.716,148.918L272.716,152.662L280.051,152.662L280.051,156.406L311.376,156.406L311.376,160.475L330.905,160.475L330.905,165.187L336.582,165.187L336.582,170.176L341.267,170.176L341.267,175.165L350.151,175.165L350.151,180.154L352.575,180.154L352.575,185.143L354.624,185.143L354.624,190.548L365.244,190.548L365.244,197.153L381.507,197.153L381.507,204.703L449.639,204.703L449.639,213.762" stroke="steelblue" stroke-width="2"/></g><g class="mark-rect role-mark layer_1_marks" role="graphics-object" aria-roledescription="rect mark container"><path aria-label="t: 17.1826073688; S: 0.461575910566" role="graphics-symbol" aria-roledescription="tick" d="M244.71581955385258,130.60602235845664h1.5v8h-1.5Z" fill="firebrick" opacity="0.7"/><path aria-label="t: 34.2009150806; S: 0.14495077585" role="graphics-symbol" aria-roledescription="tick" d="M487.8345011511626,209.76230603760382h1.5v8h-1.5Z" fill="firebrick" opacity="0.7"/><path aria-label="t: 18.1510973602; S: 0.448754357495" role="graphics-symbol" aria-roledescription="tick" d="M258.55139086061945,133.81141062627728h1.5v8h-1.5Z" fill="firebrick" opacity="0.7"/><path aria-label="t: 22.953480202; S: 0.358100638326" role="graphics-symbol" aria-roledescription="tick" d="M327.15686002790676,156.47484041851206h1.5v8h-1.5Z" fill="firebrick" opacity="0.7"/><path aria-label="t: 34.8498512267; S: 0.14495077585" role="graphics-symbol" aria-roledescription="tick" d="M497.1050175247861,209.76230603760382h1.5v8h-1.5Z" fill="firebrick" opacity="0.7"/><path aria-label="t: 14.3472098547; S: 0.473411190324" role="graphics-symbol" aria-roledescription="tick" d="M204.21014078137645,127.64720241892988h1.5v8h-1.5Z" fill="firebrick" opacity="0.7"/><path aria-label="t: 25.5471083666; S: 0.237809866628" role="graphics-symbol" aria-roledescription="tick" d="M364.20869095084345,186.54753334294378h1.5v8h-1.5Z" fill="firebrick" opacity="0.7"/><path aria-label="t: 28.8061961468; S: 0.181188469812" role="graphics-symbol" aria-roledescription="tick" d="M410.76708781103173,200.7028825470048h1.5v8h-1.5Z" fill="firebrick" opacity="0.7"/><path aria-label="t: 15.8047749381; S: 0.461575910566" role="graphics-symbol" aria-roledescription="tick" d="M225.03249911639193,130.60602235845664h1.5v8h-1.5Z" fill="firebrick" opacity="0.7"/><path aria-label="t: 11.4634227892; S: 0.548964218456" role="graphics-symbol" aria-roledescription="tick" d="M163.01318270354727,108.75894538606416h1.5v8h-1.5Z" fill="firebrick" opacity="0.7"/><path aria-label="t: 23.3624762059; S: 0.339253236309" role="graphics-symbol" aria-roledescription="tick" d="M332.99966008361434,161.18669092280092h1.5v8h-1.5Z" fill="firebrick" opacity="0.7"/><path aria-label="t: 21.8805062406; S: 0.358100638326" role="graphics-symbol" aria-roledescription="tick" d="M311.828660580493,156.47484041851206h1.5v8h-1.5Z" fill="firebrick" opacity="0.7"/><path aria-label="t: 26.0140834874; S: 0.211386548114" role="graphics-symbol" aria-roledescription="tick" d="M370.87976410509094,193.1533629715056h1.5v8h-1.5Z" fill="firebrick" opacity="0.7"/><path aria-label="t: 17.2678262176; S: 0.461575910566" role="graphics-symbol" aria-roledescription="tick" d="M245.93323167939806,130.60602235845664h1.5v8h-1.5Z" fill="firebrick" opacity="0.7"/><path aria-label="t: 32.6940532929; S: 0.14495077585" role="graphics-symbol" aria-roledescription="tick" d="M466.30790418462436,209.76230603760382h1.5v8h-1.5Z" fill="firebrick" opacity="0.7"/><path aria-label="t: 18.2562838018; S: 0.448754357495" role="graphics-symbol" aria-roledescription="tick" d="M260.0540543120061,133.81141062627728h1.5v8h-1.5Z" fill="firebrick" opacity="0.7"/><path aria-label="t: 14.6240764149; S: 0.473411190324" role="graphics-symbol" aria-roledescription="tick" d="M208.16537735642171,127.64720241892988h1.5v8h-1.5Z" fill="firebrick" opacity="0.7"/><path aria-label="t: 21.3119175428; S: 0.374377940068" role="graphics-symbol" aria-roledescription="tick" d="M303.7059648969942,152.4055149829899h1.5v8h-1.5Z" fill="firebrick" opacity="0.7"/><path aria-label="t: 13.4086409417; S: 0.49595458034" role="graphics-symbol" aria-roledescription="tick" d="M190.80201345248375,122.0113549150694h1.5v8h-1.5Z" fill="firebrick" opacity="0.7"/><path aria-label="t: 10.295049461; S: 0.6" role="graphics-symbol" aria-roledescription="tick" d="M146.32213515725834,96.00000000000009h1.5v8h-1.5Z" fill="firebrick" opacity="0.7"/><path aria-label="t: 24.7063319247; S: 0.259428945413" role="graphics-symbol" aria-roledescription="tick" d="M352.1975989249491,181.14276364684775h1.5v8h-1.5Z" fill="firebrick" opacity="0.7"/><path aria-label="t: 11.0591389627; S: 0.559322033898" role="graphics-symbol" aria-roledescription="tick" d="M157.23769946717354,106.16949152542385h1.5v8h-1.5Z" fill="firebrick" opacity="0.7"/><path aria-label="t: 12.4070046853; S: 0.506736201651" role="graphics-symbol" aria-roledescription="tick" d="M176.49292407629127,119.31594958713613h1.5v8h-1.5Z" fill="firebrick" opacity="0.7"/><path aria-label="t: 13.0219135005; S: 0.49595458034" role="graphics-symbol" aria-roledescription="tick" d="M185.27733572124274,122.0113549150694h1.5v8h-1.5Z" fill="firebrick" opacity="0.7"/><path aria-label="t: 19.9325537411; S: 0.374377940068" role="graphics-symbol" aria-roledescription="tick" d="M284.0007677296512,152.4055149829899h1.5v8h-1.5Z" fill="firebrick" opacity="0.7"/><path aria-label="t: 17.8175706217; S: 0.448754357495" role="graphics-symbol" aria-roledescription="tick" d="M253.7867231672488,133.81141062627728h1.5v8h-1.5Z" fill="firebrick" opacity="0.7"/><path aria-label="t: 24.9745548371; S: 0.237809866628" role="graphics-symbol" aria-roledescription="tick" d="M356.0293548153358,186.54753334294378h1.5v8h-1.5Z" fill="firebrick" opacity="0.7"/><path aria-label="t: 22.3098247755; S: 0.358100638326" role="graphics-symbol" aria-roledescription="tick" d="M317.9617825068121,156.47484041851206h1.5v8h-1.5Z" fill="firebrick" opacity="0.7"/><path aria-label="t: 18.7458888509; S: 0.434278410479" role="graphics-symbol" aria-roledescription="tick" d="M267.0484121562566,137.43039738026832h1.5v8h-1.5Z" fill="firebrick" opacity="0.7"/><path aria-label="t: 18.038721154; S: 0.448754357495" role="graphics-symbol" aria-roledescription="tick" d="M256.9460164850166,133.81141062627728h1.5v8h-1.5Z" fill="firebrick" opacity="0.7"/><path aria-label="t: 34.5034438666; S: 0.14495077585" role="graphics-symbol" aria-roledescription="tick" d="M492.1563409513549,209.76230603760382h1.5v8h-1.5Z" fill="firebrick" opacity="0.7"/></g><g class="mark-group role-title"><g transform="translate(250,-22)"><path class="background" aria-hidden="true" d="M0,0h0v0h0Z" pointer-events="none"/><g><g class="mark-text role-title-text" role="graphics-symbol" aria-roledescription="title" aria-label="Title text 'Kaplan-Meier survival estimate'" pointer-events="none"><text text-anchor="middle" transform="translate(0,10)" font-family="sans-serif" font-size="13px" font-weight="bold" fill="#000" opacity="1">Kaplan-Meier survival estimate</text></g></g><path class="foreground" aria-hidden="true" d="" pointer-events="none" display="none"/></g></g></g><path class="foreground" aria-hidden="true" d="" display="none"/></g></g></g></svg>