<?xml version="1.0" encoding="utf-8" standalone="no"?>
<!DOCTYPE svg PUBLIC "-//W3C//DTD SVG 1.1//EN"
  "http://www.w3.org/Graphics/SVG/1.1/DTD/svg11.dtd">
<svg xmlns:xlink="http://www.w3.org/1999/xlink" width="432pt" height="360pt" viewBox="0 0 432 360" xmlns="http://www.w3.org/2000/svg" version="1.1">
 <metadata>
  <rdf:RDF xmlns:dc="http://purl.org/dc/elements/1.1/" xmlns:cc="http://creativecommons.org/ns#" xmlns:rdf="http://www.w3.org/1999/02/22-rdf-syntax-ns#">
   <cc:Work>
    <dc:type rdf:resource="http://purl.org/dc/dcmitype/StillImage"/>
    <dc:date>2026-04-13T14:37:46.592153</dc:date>
    <dc:format>image/svg+xml</dc:format>
    <dc:creator>
     <cc:Agent>
      <dc:title>Matplotlib v3.10.8, https://matplotlib.org/</dc:title>
     </cc:Agent>
    </dc:creator>
   </cc:Work>
  </rdf:RDF>
 </metadata>
 <defs>
  <style type="text/css">*{stroke-linejoin: round; stroke-linecap: butt}</style>
 </defs>
 <g id="figure_1">
  <g id="patch_1">
   <path d="M 0 360 
L 432 360 
L 432 0 
L 0 0 
z
" style="fill: #ffffff"/>
  </g>
  <g id="axes_1">
   <g id="patch_2">
    <path d="M 205.814272 108.905007 
Q 130.242521 84.942449 55.736511 61.31782 
" clip-path="url(#p1c616b193e)" style="fill: none; stroke: #000000; stroke-linecap: round"/>
    <path d="M 58.944916 64.433287 
L 55.736511 61.31782 
L 60.153927 60.620376 
z
" clip-path="url(#p1c616b193e)" style="stroke: #000000; stroke-linecap: round"/>
   </g>
   <g id="patch_3">
    <path d="M 222.166439 108.445153 
Q 289.485389 82.857714 355.759251 57.667504 
" clip-path="url(#p1c616b193e)" style="fill: none; stroke: #000000; stroke-linecap: round"/>
    <path d="M 351.309645 57.219168 
L 355.759251 57.667504 
L 352.730819 60.958187 
z
" clip-path="url(#p1c616b193e)" style="stroke: #000000; stroke-linecap: round"/>
   </g>
   <g id="patch_4">
    <path d="M 231.99284 277.297183 
Q 175.320344 297.7617 119.699423 317.846493 
" clip-path="url(#p1c616b193e)" style="fill: none; stroke: #000000; stroke-linecap: round"/>
    <path d="M 124.140923 318.369061 
L 119.699423 317.846493 
L 122.782377 314.606834 
z
" clip-path="url(#p1c616b193e)" style="stroke: #000000; stroke-linecap: round"/>
   </g>
   <g id="patch_5">
    <path d="M 248.452363 276.796434 
Q 312.865948 295.706683 376.206771 314.301996 
" clip-path="url(#p1c616b193e)" style="fill: none; stroke: #000000; stroke-linecap: round"/>
    <path d="M 372.932121 311.256234 
L 376.206771 314.301996 
L 371.805371 315.094259 
z
" clip-path="url(#p1c616b193e)" style="stroke: #000000; stroke-linecap: round"/>
   </g>
   <g id="patch_6">
    <path d="M 224.072722 176.59636 
Q 219.729062 148.339109 215.555268 121.186913 
" clip-path="url(#p1c616b193e)" style="fill: none; stroke: #000000; stroke-linecap: round"/>
    <path d="M 214.186223 125.444343 
L 215.555268 121.186913 
L 218.139785 124.836608 
z
" clip-path="url(#p1c616b193e)" style="stroke: #000000; stroke-linecap: round"/>
   </g>
   <g id="patch_7">
    <path d="M 226.801773 193.702755 
Q 232.764042 229.758827 238.543909 264.711845 
" clip-path="url(#p1c616b193e)" style="fill: none; stroke: #000000; stroke-linecap: round"/>
    <path d="M 239.864531 260.439145 
L 238.543909 264.711845 
L 235.918123 261.091728 
z
" clip-path="url(#p1c616b193e)" style="stroke: #000000; stroke-linecap: round"/>
   </g>
   <g id="text_1">
    <g id="patch_8">
     <path d="M 121.155481 87.817691 
L 136.01243 92.528585 
Q 138.014208 93.163316 138.648939 91.161537 
L 140.696608 84.703717 
Q 141.331339 82.701939 139.32956 82.067208 
L 124.472612 77.356314 
Q 122.470833 76.721583 121.836102 78.723361 
L 119.788434 85.181181 
Q 119.153703 87.18296 121.155481 87.817691 
z
" clip-path="url(#p1c616b193e)" style="fill: #ffffff; stroke: #ffffff; stroke-linejoin: miter"/>
    </g>
    <g clip-path="url(#p1c616b193e)">
     <!-- 0.45 -->
     <g transform="translate(122.230226 84.428221) rotate(-342.407036) scale(0.07 -0.07)">
      <defs>
       <path id="DejaVuSans-30" d="M 2034 4250 
Q 1547 4250 1301 3770 
Q 1056 3291 1056 2328 
Q 1056 1369 1301 889 
Q 1547 409 2034 409 
Q 2525 409 2770 889 
Q 3016 1369 3016 2328 
Q 3016 3291 2770 3770 
Q 2525 4250 2034 4250 
z
M 2034 4750 
Q 2819 4750 3233 4129 
Q 3647 3509 3647 2328 
Q 3647 1150 3233 529 
Q 2819 -91 2034 -91 
Q 1250 -91 836 529 
Q 422 1150 422 2328 
Q 422 3509 836 4129 
Q 1250 4750 2034 4750 
z
" transform="scale(0.015625)"/>
       <path id="DejaVuSans-2e" d="M 684 794 
L 1344 794 
L 1344 0 
L 684 0 
L 684 794 
z
" transform="scale(0.015625)"/>
       <path id="DejaVuSans-34" d="M 2419 4116 
L 825 1625 
L 2419 1625 
L 2419 4116 
z
M 2253 4666 
L 3047 4666 
L 3047 1625 
L 3713 1625 
L 3713 1100 
L 3047 1100 
L 3047 0 
L 2419 0 
L 2419 1100 
L 313 1100 
L 313 1709 
L 2253 4666 
z
" transform="scale(0.015625)"/>
       <path id="DejaVuSans-35" d="M 691 4666 
L 3169 4666 
L 3169 4134 
L 1269 4134 
L 1269 2991 
Q 1406 3038 1543 3061 
Q 1681 3084 1819 3084 
Q 2600 3084 3056 2656 
Q 3513 2228 3513 1497 
Q 3513 744 3044 326 
Q 2575 -91 1722 -91 
Q 1428 -91 1123 -41 
Q 819 9 494 109 
L 494 744 
Q 775 591 1075 516 
Q 1375 441 1709 441 
Q 2250 441 2565 725 
Q 2881 1009 2881 1497 
Q 2881 1984 2565 2268 
Q 2250 2553 1709 2553 
Q 1456 2553 1204 2497 
Q 953 2441 691 2322 
L 691 4666 
z
" transform="scale(0.015625)"/>
      </defs>
      <use xlink:href="#DejaVuSans-30"/>
      <use xlink:href="#DejaVuSans-2e" transform="translate(63.623047 0)"/>
      <use xlink:href="#DejaVuSans-34" transform="translate(95.410156 0)"/>
      <use xlink:href="#DejaVuSans-35" transform="translate(159.033203 0)"/>
     </g>
    </g>
   </g>
   <g id="text_2">
    <g id="patch_9">
     <path d="M 284.150491 90.755825 
L 298.719521 85.218244 
Q 300.682507 84.472127 299.93639 82.509142 
L 297.529388 76.176471 
Q 296.783272 74.213485 294.820287 74.959602 
L 280.251257 80.497183 
Q 278.288272 81.2433 279.034388 83.206285 
L 281.44139 89.538956 
Q 282.187506 91.501942 284.150491 90.755825 
z
" clip-path="url(#p1c616b193e)" style="fill: #ffffff; stroke: #ffffff; stroke-linejoin: miter"/>
    </g>
    <g clip-path="url(#p1c616b193e)">
     <!-- 0.45 -->
     <g transform="translate(282.887146 87.432042) rotate(-20.811431) scale(0.07 -0.07)">
      <use xlink:href="#DejaVuSans-30"/>
      <use xlink:href="#DejaVuSans-2e" transform="translate(63.623047 0)"/>
      <use xlink:href="#DejaVuSans-34" transform="translate(95.410156 0)"/>
      <use xlink:href="#DejaVuSans-35" transform="translate(159.033203 0)"/>
     </g>
    </g>
   </g>
   <g id="text_3">
    <g id="patch_10">
     <path d="M 169.854316 305.569635 
L 184.513775 300.276083 
Q 186.488945 299.562847 185.775708 297.587677 
L 183.474778 291.215699 
Q 182.761542 289.24053 180.786372 289.953766 
L 166.126913 295.247318 
Q 164.151743 295.960554 164.86498 297.935723 
L 167.16591 304.307702 
Q 167.879146 306.282871 169.854316 305.569635 
z
" clip-path="url(#p1c616b193e)" style="fill: #ffffff; stroke: #ffffff; stroke-linejoin: miter"/>
    </g>
    <g clip-path="url(#p1c616b193e)">
     <!-- 0.70 -->
     <g transform="translate(168.646643 302.22522) rotate(-19.854722) scale(0.07 -0.07)">
      <defs>
       <path id="DejaVuSans-37" d="M 525 4666 
L 3525 4666 
L 3525 4397 
L 1831 0 
L 1172 0 
L 2766 4134 
L 525 4134 
L 525 4666 
z
" transform="scale(0.015625)"/>
      </defs>
      <use xlink:href="#DejaVuSans-30"/>
      <use xlink:href="#DejaVuSans-2e" transform="translate(63.623047 0)"/>
      <use xlink:href="#DejaVuSans-37" transform="translate(95.410156 0)"/>
      <use xlink:href="#DejaVuSans-30" transform="translate(159.033203 0)"/>
     </g>
    </g>
   </g>
   <g id="text_4">
    <g id="patch_11">
     <path d="M 303.84283 298.776642 
L 318.797633 303.167005 
Q 320.812596 303.758549 321.40414 301.743586 
L 323.312485 295.243231 
Q 323.904029 293.228268 321.889066 292.636725 
L 306.934262 288.246361 
Q 304.919299 287.654817 304.327755 289.66978 
L 302.41941 296.170135 
Q 301.827867 298.185098 303.84283 298.776642 
z
" clip-path="url(#p1c616b193e)" style="fill: #ffffff; stroke: #ffffff; stroke-linejoin: miter"/>
    </g>
    <g clip-path="url(#p1c616b193e)">
     <!-- 0.70 -->
     <g transform="translate(304.844449 295.364847) rotate(-343.639054) scale(0.07 -0.07)">
      <use xlink:href="#DejaVuSans-30"/>
      <use xlink:href="#DejaVuSans-2e" transform="translate(63.623047 0)"/>
      <use xlink:href="#DejaVuSans-37" transform="translate(95.410156 0)"/>
      <use xlink:href="#DejaVuSans-30" transform="translate(159.033203 0)"/>
     </g>
    </g>
   </g>
   <g id="text_5">
    <g id="patch_12">
     <path d="M 213.121406 141.470325 
L 215.489438 156.87532 
Q 215.808499 158.950941 217.88412 158.631879 
L 224.580158 157.602575 
Q 226.655778 157.283514 226.336717 155.207893 
L 223.968685 139.802898 
Q 223.649624 137.727278 221.574004 138.046339 
L 214.877966 139.075644 
Q 212.802345 139.394705 213.121406 141.470325 
z
" clip-path="url(#p1c616b193e)" style="fill: #ffffff; stroke: #ffffff; stroke-linejoin: miter"/>
    </g>
    <g clip-path="url(#p1c616b193e)">
     <!-- 0.73 -->
     <g transform="translate(216.635907 140.930081) rotate(-278.739014) scale(0.07 -0.07)">
      <defs>
       <path id="DejaVuSans-33" d="M 2597 2516 
Q 3050 2419 3304 2112 
Q 3559 1806 3559 1356 
Q 3559 666 3084 287 
Q 2609 -91 1734 -91 
Q 1441 -91 1130 -33 
Q 819 25 488 141 
L 488 750 
Q 750 597 1062 519 
Q 1375 441 1716 441 
Q 2309 441 2620 675 
Q 2931 909 2931 1356 
Q 2931 1769 2642 2001 
Q 2353 2234 1838 2234 
L 1294 2234 
L 1294 2753 
L 1863 2753 
Q 2328 2753 2575 2939 
Q 2822 3125 2822 3475 
Q 2822 3834 2567 4026 
Q 2313 4219 1838 4219 
Q 1578 4219 1281 4162 
Q 984 4106 628 3988 
L 628 4550 
Q 988 4650 1302 4700 
Q 1616 4750 1894 4750 
Q 2613 4750 3031 4423 
Q 3450 4097 3450 3541 
Q 3450 3153 3228 2886 
Q 3006 2619 2597 2516 
z
" transform="scale(0.015625)"/>
      </defs>
      <use xlink:href="#DejaVuSans-30"/>
      <use xlink:href="#DejaVuSans-2e" transform="translate(63.623047 0)"/>
      <use xlink:href="#DejaVuSans-37" transform="translate(95.410156 0)"/>
      <use xlink:href="#DejaVuSans-33" transform="translate(159.033203 0)"/>
     </g>
    </g>
   </g>
   <g id="text_6">
    <g id="patch_13">
     <path d="M 226.07883 222.965504 
L 228.621606 238.342621 
Q 228.964211 240.414485 231.036075 240.07188 
L 237.719996 238.96662 
Q 239.79186 238.624014 239.449254 236.55215 
L 236.906478 221.175033 
Q 236.563873 219.103168 234.492009 219.445774 
L 227.808088 220.551034 
Q 225.736224 220.89364 226.07883 222.965504 
z
" clip-path="url(#p1c616b193e)" style="fill: #ffffff; stroke: #ffffff; stroke-linejoin: miter"/>
    </g>
    <g clip-path="url(#p1c616b193e)">
     <!-- 0.48 -->
     <g transform="translate(229.58697 222.385394) rotate(-279.389521) scale(0.07 -0.07)">
      <defs>
       <path id="DejaVuSans-38" d="M 2034 2216 
Q 1584 2216 1326 1975 
Q 1069 1734 1069 1313 
Q 1069 891 1326 650 
Q 1584 409 2034 409 
Q 2484 409 2743 651 
Q 3003 894 3003 1313 
Q 3003 1734 2745 1975 
Q 2488 2216 2034 2216 
z
M 1403 2484 
Q 997 2584 770 2862 
Q 544 3141 544 3541 
Q 544 4100 942 4425 
Q 1341 4750 2034 4750 
Q 2731 4750 3128 4425 
Q 3525 4100 3525 3541 
Q 3525 3141 3298 2862 
Q 3072 2584 2669 2484 
Q 3125 2378 3379 2068 
Q 3634 1759 3634 1313 
Q 3634 634 3220 271 
Q 2806 -91 2034 -91 
Q 1263 -91 848 271 
Q 434 634 434 1313 
Q 434 1759 690 2068 
Q 947 2378 1403 2484 
z
M 1172 3481 
Q 1172 3119 1398 2916 
Q 1625 2713 2034 2713 
Q 2441 2713 2670 2916 
Q 2900 3119 2900 3481 
Q 2900 3844 2670 4047 
Q 2441 4250 2034 4250 
Q 1625 4250 1398 4047 
Q 1172 3844 1172 3481 
z
" transform="scale(0.015625)"/>
      </defs>
      <use xlink:href="#DejaVuSans-30"/>
      <use xlink:href="#DejaVuSans-2e" transform="translate(63.623047 0)"/>
      <use xlink:href="#DejaVuSans-34" transform="translate(95.410156 0)"/>
      <use xlink:href="#DejaVuSans-38" transform="translate(159.033203 0)"/>
     </g>
    </g>
   </g>
   <g id="PathCollection_1">
    <defs>
     <path id="mded03b045d" d="M 0 12.247449 
C 3.248061 12.247449 6.363528 10.95698 8.660254 8.660254 
C 10.95698 6.363528 12.247449 3.248061 12.247449 0 
C 12.247449 -3.248061 10.95698 -6.363528 8.660254 -8.660254 
C 6.363528 -10.95698 3.248061 -12.247449 0 -12.247449 
C -3.248061 -12.247449 -6.363528 -10.95698 -8.660254 -8.660254 
C -10.95698 -6.363528 -12.247449 -3.248061 -12.247449 0 
C -12.247449 3.248061 -10.95698 6.363528 -8.660254 8.660254 
C -6.363528 10.95698 -3.248061 12.247449 0 12.247449 
z
" style="stroke: #4682b4"/>
    </defs>
    <g clip-path="url(#p1c616b193e)">
     <use xlink:href="#mded03b045d" x="46.413223" y="58.361559" style="fill: #4682b4; stroke: #4682b4"/>
     <use xlink:href="#mded03b045d" x="364.902041" y="54.192397" style="fill: #4682b4; stroke: #4682b4"/>
     <use xlink:href="#mded03b045d" x="110.502255" y="321.167603" style="fill: #4682b4; stroke: #4682b4"/>
     <use xlink:href="#mded03b045d" x="385.586777" y="317.055736" style="fill: #4682b4; stroke: #4682b4"/>
    </g>
   </g>
   <g id="PathCollection_2">
    <defs>
     <path id="m0dd780f24f" d="M 0 10 
C 2.652031 10 5.195799 8.946337 7.071068 7.071068 
C 8.946337 5.195799 10 2.652031 10 0 
C 10 -2.652031 8.946337 -5.195799 7.071068 -7.071068 
C 5.195799 -8.946337 2.652031 -10 0 -10 
C -2.652031 -10 -5.195799 -8.946337 -7.071068 -7.071068 
C -8.946337 -5.195799 -10 -2.652031 -10 0 
C -10 2.652031 -8.946337 5.195799 -7.071068 7.071068 
C -5.195799 8.946337 -2.652031 10 0 10 
z
" style="stroke: #d3d3d3"/>
    </defs>
    <g clip-path="url(#p1c616b193e)">
     <use xlink:href="#m0dd780f24f" x="214.069695" y="111.522666" style="fill: #d3d3d3; stroke: #d3d3d3"/>
     <use xlink:href="#m0dd780f24f" x="240.138631" y="274.355726" style="fill: #d3d3d3; stroke: #d3d3d3"/>
     <use xlink:href="#m0dd780f24f" x="225.388819" y="185.158096" style="fill: #d3d3d3; stroke: #d3d3d3"/>
    </g>
   </g>
   <g id="text_7">
    <g clip-path="url(#p1c616b193e)">
     <!-- node4 -->
     <g transform="translate(199.975555 114.006104) scale(0.09 -0.09)">
      <defs>
       <path id="DejaVuSans-6e" d="M 3513 2113 
L 3513 0 
L 2938 0 
L 2938 2094 
Q 2938 2591 2744 2837 
Q 2550 3084 2163 3084 
Q 1697 3084 1428 2787 
Q 1159 2491 1159 1978 
L 1159 0 
L 581 0 
L 581 3500 
L 1159 3500 
L 1159 2956 
Q 1366 3272 1645 3428 
Q 1925 3584 2291 3584 
Q 2894 3584 3203 3211 
Q 3513 2838 3513 2113 
z
" transform="scale(0.015625)"/>
       <path id="DejaVuSans-6f" d="M 1959 3097 
Q 1497 3097 1228 2736 
Q 959 2375 959 1747 
Q 959 1119 1226 758 
Q 1494 397 1959 397 
Q 2419 397 2687 759 
Q 2956 1122 2956 1747 
Q 2956 2369 2687 2733 
Q 2419 3097 1959 3097 
z
M 1959 3584 
Q 2709 3584 3137 3096 
Q 3566 2609 3566 1747 
Q 3566 888 3137 398 
Q 2709 -91 1959 -91 
Q 1206 -91 779 398 
Q 353 888 353 1747 
Q 353 2609 779 3096 
Q 1206 3584 1959 3584 
z
" transform="scale(0.015625)"/>
       <path id="DejaVuSans-64" d="M 2906 2969 
L 2906 4863 
L 3481 4863 
L 3481 0 
L 2906 0 
L 2906 525 
Q 2725 213 2448 61 
Q 2172 -91 1784 -91 
Q 1150 -91 751 415 
Q 353 922 353 1747 
Q 353 2572 751 3078 
Q 1150 3584 1784 3584 
Q 2172 3584 2448 3432 
Q 2725 3281 2906 2969 
z
M 947 1747 
Q 947 1113 1208 752 
Q 1469 391 1925 391 
Q 2381 391 2643 752 
Q 2906 1113 2906 1747 
Q 2906 2381 2643 2742 
Q 2381 3103 1925 3103 
Q 1469 3103 1208 2742 
Q 947 2381 947 1747 
z
" transform="scale(0.015625)"/>
       <path id="DejaVuSans-65" d="M 3597 1894 
L 3597 1613 
L 953 1613 
Q 991 1019 1311 708 
Q 1631 397 2203 397 
Q 2534 397 2845 478 
Q 3156 559 3463 722 
L 3463 178 
Q 3153 47 2828 -22 
Q 2503 -91 2169 -91 
Q 1331 -91 842 396 
Q 353 884 353 1716 
Q 353 2575 817 3079 
Q 1281 3584 2069 3584 
Q 2775 3584 3186 3129 
Q 3597 2675 3597 1894 
z
M 3022 2063 
Q 3016 2534 2758 2815 
Q 2500 3097 2075 3097 
Q 1594 3097 1305 2825 
Q 1016 2553 972 2059 
L 3022 2063 
z
" transform="scale(0.015625)"/>
      </defs>
      <use xlink:href="#DejaVuSans-6e"/>
      <use xlink:href="#DejaVuSans-6f" transform="translate(63.378906 0)"/>
      <use xlink:href="#DejaVuSans-64" transform="translate(124.560547 0)"/>
      <use xlink:href="#DejaVuSans-65" transform="translate(188.037109 0)"/>
      <use xlink:href="#DejaVuSans-34" transform="translate(249.560547 0)"/>
     </g>
    </g>
   </g>
   <g id="text_8">
    <g clip-path="url(#p1c616b193e)">
     <!-- Human -->
     <g transform="translate(30.184395 60.844996) scale(0.09 -0.09)">
      <defs>
       <path id="DejaVuSans-48" d="M 628 4666 
L 1259 4666 
L 1259 2753 
L 3553 2753 
L 3553 4666 
L 4184 4666 
L 4184 0 
L 3553 0 
L 3553 2222 
L 1259 2222 
L 1259 0 
L 628 0 
L 628 4666 
z
" transform="scale(0.015625)"/>
       <path id="DejaVuSans-75" d="M 544 1381 
L 544 3500 
L 1119 3500 
L 1119 1403 
Q 1119 906 1312 657 
Q 1506 409 1894 409 
Q 2359 409 2629 706 
Q 2900 1003 2900 1516 
L 2900 3500 
L 3475 3500 
L 3475 0 
L 2900 0 
L 2900 538 
Q 2691 219 2414 64 
Q 2138 -91 1772 -91 
Q 1169 -91 856 284 
Q 544 659 544 1381 
z
M 1991 3584 
L 1991 3584 
z
" transform="scale(0.015625)"/>
       <path id="DejaVuSans-6d" d="M 3328 2828 
Q 3544 3216 3844 3400 
Q 4144 3584 4550 3584 
Q 5097 3584 5394 3201 
Q 5691 2819 5691 2113 
L 5691 0 
L 5113 0 
L 5113 2094 
Q 5113 2597 4934 2840 
Q 4756 3084 4391 3084 
Q 3944 3084 3684 2787 
Q 3425 2491 3425 1978 
L 3425 0 
L 2847 0 
L 2847 2094 
Q 2847 2600 2669 2842 
Q 2491 3084 2119 3084 
Q 1678 3084 1418 2786 
Q 1159 2488 1159 1978 
L 1159 0 
L 581 0 
L 581 3500 
L 1159 3500 
L 1159 2956 
Q 1356 3278 1631 3431 
Q 1906 3584 2284 3584 
Q 2666 3584 2933 3390 
Q 3200 3197 3328 2828 
z
" transform="scale(0.015625)"/>
       <path id="DejaVuSans-61" d="M 2194 1759 
Q 1497 1759 1228 1600 
Q 959 1441 959 1056 
Q 959 750 1161 570 
Q 1363 391 1709 391 
Q 2188 391 2477 730 
Q 2766 1069 2766 1631 
L 2766 1759 
L 2194 1759 
z
M 3341 1997 
L 3341 0 
L 2766 0 
L 2766 531 
Q 2569 213 2275 61 
Q 1981 -91 1556 -91 
Q 1019 -91 701 211 
Q 384 513 384 1019 
Q 384 1609 779 1909 
Q 1175 2209 1959 2209 
L 2766 2209 
L 2766 2266 
Q 2766 2663 2505 2880 
Q 2244 3097 1772 3097 
Q 1472 3097 1187 3025 
Q 903 2953 641 2809 
L 641 3341 
Q 956 3463 1253 3523 
Q 1550 3584 1831 3584 
Q 2591 3584 2966 3190 
Q 3341 2797 3341 1997 
z
" transform="scale(0.015625)"/>
      </defs>
      <use xlink:href="#DejaVuSans-48"/>
      <use xlink:href="#DejaVuSans-75" transform="translate(75.195312 0)"/>
      <use xlink:href="#DejaVuSans-6d" transform="translate(138.574219 0)"/>
      <use xlink:href="#DejaVuSans-61" transform="translate(235.986328 0)"/>
      <use xlink:href="#DejaVuSans-6e" transform="translate(297.265625 0)"/>
     </g>
    </g>
   </g>
   <g id="text_9">
    <g clip-path="url(#p1c616b193e)">
     <!-- Gorilla -->
     <g transform="translate(350.303759 56.675834) scale(0.09 -0.09)">
      <defs>
       <path id="DejaVuSans-47" d="M 3809 666 
L 3809 1919 
L 2778 1919 
L 2778 2438 
L 4434 2438 
L 4434 434 
Q 4069 175 3628 42 
Q 3188 -91 2688 -91 
Q 1594 -91 976 548 
Q 359 1188 359 2328 
Q 359 3472 976 4111 
Q 1594 4750 2688 4750 
Q 3144 4750 3555 4637 
Q 3966 4525 4313 4306 
L 4313 3634 
Q 3963 3931 3569 4081 
Q 3175 4231 2741 4231 
Q 1884 4231 1454 3753 
Q 1025 3275 1025 2328 
Q 1025 1384 1454 906 
Q 1884 428 2741 428 
Q 3075 428 3337 486 
Q 3600 544 3809 666 
z
" transform="scale(0.015625)"/>
       <path id="DejaVuSans-72" d="M 2631 2963 
Q 2534 3019 2420 3045 
Q 2306 3072 2169 3072 
Q 1681 3072 1420 2755 
Q 1159 2438 1159 1844 
L 1159 0 
L 581 0 
L 581 3500 
L 1159 3500 
L 1159 2956 
Q 1341 3275 1631 3429 
Q 1922 3584 2338 3584 
Q 2397 3584 2469 3576 
Q 2541 3569 2628 3553 
L 2631 2963 
z
" transform="scale(0.015625)"/>
       <path id="DejaVuSans-69" d="M 603 3500 
L 1178 3500 
L 1178 0 
L 603 0 
L 603 3500 
z
M 603 4863 
L 1178 4863 
L 1178 4134 
L 603 4134 
L 603 4863 
z
" transform="scale(0.015625)"/>
       <path id="DejaVuSans-6c" d="M 603 4863 
L 1178 4863 
L 1178 0 
L 603 0 
L 603 4863 
z
" transform="scale(0.015625)"/>
      </defs>
      <use xlink:href="#DejaVuSans-47"/>
      <use xlink:href="#DejaVuSans-6f" transform="translate(77.490234 0)"/>
      <use xlink:href="#DejaVuSans-72" transform="translate(138.671875 0)"/>
      <use xlink:href="#DejaVuSans-69" transform="translate(179.785156 0)"/>
      <use xlink:href="#DejaVuSans-6c" transform="translate(207.568359 0)"/>
      <use xlink:href="#DejaVuSans-6c" transform="translate(235.351562 0)"/>
      <use xlink:href="#DejaVuSans-61" transform="translate(263.134766 0)"/>
     </g>
    </g>
   </g>
   <g id="text_10">
    <g clip-path="url(#p1c616b193e)">
     <!-- node5 -->
     <g transform="translate(226.044491 276.839163) scale(0.09 -0.09)">
      <use xlink:href="#DejaVuSans-6e"/>
      <use xlink:href="#DejaVuSans-6f" transform="translate(63.378906 0)"/>
      <use xlink:href="#DejaVuSans-64" transform="translate(124.560547 0)"/>
      <use xlink:href="#DejaVuSans-65" transform="translate(188.037109 0)"/>
      <use xlink:href="#DejaVuSans-35" transform="translate(249.560547 0)"/>
     </g>
    </g>
   </g>
   <g id="text_11">
    <g clip-path="url(#p1c616b193e)">
     <!-- Bat -->
     <g transform="translate(102.893036 323.651041) scale(0.09 -0.09)">
      <defs>
       <path id="DejaVuSans-42" d="M 1259 2228 
L 1259 519 
L 2272 519 
Q 2781 519 3026 730 
Q 3272 941 3272 1375 
Q 3272 1813 3026 2020 
Q 2781 2228 2272 2228 
L 1259 2228 
z
M 1259 4147 
L 1259 2741 
L 2194 2741 
Q 2656 2741 2882 2914 
Q 3109 3088 3109 3444 
Q 3109 3797 2882 3972 
Q 2656 4147 2194 4147 
L 1259 4147 
z
M 628 4666 
L 2241 4666 
Q 2963 4666 3353 4366 
Q 3744 4066 3744 3513 
Q 3744 3084 3544 2831 
Q 3344 2578 2956 2516 
Q 3422 2416 3680 2098 
Q 3938 1781 3938 1306 
Q 3938 681 3513 340 
Q 3088 0 2303 0 
L 628 0 
L 628 4666 
z
" transform="scale(0.015625)"/>
       <path id="DejaVuSans-74" d="M 1172 4494 
L 1172 3500 
L 2356 3500 
L 2356 3053 
L 1172 3053 
L 1172 1153 
Q 1172 725 1289 603 
Q 1406 481 1766 481 
L 2356 481 
L 2356 0 
L 1766 0 
Q 1100 0 847 248 
Q 594 497 594 1153 
L 594 3053 
L 172 3053 
L 172 3500 
L 594 3500 
L 594 4494 
L 1172 4494 
z
" transform="scale(0.015625)"/>
      </defs>
      <use xlink:href="#DejaVuSans-42"/>
      <use xlink:href="#DejaVuSans-61" transform="translate(68.603516 0)"/>
      <use xlink:href="#DejaVuSans-74" transform="translate(129.882812 0)"/>
     </g>
    </g>
   </g>
   <g id="text_12">
    <g clip-path="url(#p1c616b193e)">
     <!-- Chimp -->
     <g transform="translate(371.102402 319.539173) scale(0.09 -0.09)">
      <defs>
       <path id="DejaVuSans-43" d="M 4122 4306 
L 4122 3641 
Q 3803 3938 3442 4084 
Q 3081 4231 2675 4231 
Q 1875 4231 1450 3742 
Q 1025 3253 1025 2328 
Q 1025 1406 1450 917 
Q 1875 428 2675 428 
Q 3081 428 3442 575 
Q 3803 722 4122 1019 
L 4122 359 
Q 3791 134 3420 21 
Q 3050 -91 2638 -91 
Q 1578 -91 968 557 
Q 359 1206 359 2328 
Q 359 3453 968 4101 
Q 1578 4750 2638 4750 
Q 3056 4750 3426 4639 
Q 3797 4528 4122 4306 
z
" transform="scale(0.015625)"/>
       <path id="DejaVuSans-68" d="M 3513 2113 
L 3513 0 
L 2938 0 
L 2938 2094 
Q 2938 2591 2744 2837 
Q 2550 3084 2163 3084 
Q 1697 3084 1428 2787 
Q 1159 2491 1159 1978 
L 1159 0 
L 581 0 
L 581 4863 
L 1159 4863 
L 1159 2956 
Q 1366 3272 1645 3428 
Q 1925 3584 2291 3584 
Q 2894 3584 3203 3211 
Q 3513 2838 3513 2113 
z
" transform="scale(0.015625)"/>
       <path id="DejaVuSans-70" d="M 1159 525 
L 1159 -1331 
L 581 -1331 
L 581 3500 
L 1159 3500 
L 1159 2969 
Q 1341 3281 1617 3432 
Q 1894 3584 2278 3584 
Q 2916 3584 3314 3078 
Q 3713 2572 3713 1747 
Q 3713 922 3314 415 
Q 2916 -91 2278 -91 
Q 1894 -91 1617 61 
Q 1341 213 1159 525 
z
M 3116 1747 
Q 3116 2381 2855 2742 
Q 2594 3103 2138 3103 
Q 1681 3103 1420 2742 
Q 1159 2381 1159 1747 
Q 1159 1113 1420 752 
Q 1681 391 2138 391 
Q 2594 391 2855 752 
Q 3116 1113 3116 1747 
z
" transform="scale(0.015625)"/>
      </defs>
      <use xlink:href="#DejaVuSans-43"/>
      <use xlink:href="#DejaVuSans-68" transform="translate(69.824219 0)"/>
      <use xlink:href="#DejaVuSans-69" transform="translate(133.203125 0)"/>
      <use xlink:href="#DejaVuSans-6d" transform="translate(160.986328 0)"/>
      <use xlink:href="#DejaVuSans-70" transform="translate(258.398438 0)"/>
     </g>
    </g>
   </g>
   <g id="text_13">
    <g clip-path="url(#p1c616b193e)">
     <!-- node6 -->
     <g transform="translate(211.294678 187.641534) scale(0.09 -0.09)">
      <defs>
       <path id="DejaVuSans-36" d="M 2113 2584 
Q 1688 2584 1439 2293 
Q 1191 2003 1191 1497 
Q 1191 994 1439 701 
Q 1688 409 2113 409 
Q 2538 409 2786 701 
Q 3034 994 3034 1497 
Q 3034 2003 2786 2293 
Q 2538 2584 2113 2584 
z
M 3366 4563 
L 3366 3988 
Q 3128 4100 2886 4159 
Q 2644 4219 2406 4219 
Q 1781 4219 1451 3797 
Q 1122 3375 1075 2522 
Q 1259 2794 1537 2939 
Q 1816 3084 2150 3084 
Q 2853 3084 3261 2657 
Q 3669 2231 3669 1497 
Q 3669 778 3244 343 
Q 2819 -91 2113 -91 
Q 1303 -91 875 529 
Q 447 1150 447 2328 
Q 447 3434 972 4092 
Q 1497 4750 2381 4750 
Q 2619 4750 2861 4703 
Q 3103 4656 3366 4563 
z
" transform="scale(0.015625)"/>
      </defs>
      <use xlink:href="#DejaVuSans-6e"/>
      <use xlink:href="#DejaVuSans-6f" transform="translate(63.378906 0)"/>
      <use xlink:href="#DejaVuSans-64" transform="translate(124.560547 0)"/>
      <use xlink:href="#DejaVuSans-65" transform="translate(188.037109 0)"/>
      <use xlink:href="#DejaVuSans-36" transform="translate(249.560547 0)"/>
     </g>
    </g>
   </g>
   <g id="text_14">
    <!-- UPGMA tree -->
    <g transform="translate(180.08625 20.16) scale(0.12 -0.12)">
     <defs>
      <path id="DejaVuSans-55" d="M 556 4666 
L 1191 4666 
L 1191 1831 
Q 1191 1081 1462 751 
Q 1734 422 2344 422 
Q 2950 422 3222 751 
Q 3494 1081 3494 1831 
L 3494 4666 
L 4128 4666 
L 4128 1753 
Q 4128 841 3676 375 
Q 3225 -91 2344 -91 
Q 1459 -91 1007 375 
Q 556 841 556 1753 
L 556 4666 
z
" transform="scale(0.015625)"/>
      <path id="DejaVuSans-50" d="M 1259 4147 
L 1259 2394 
L 2053 2394 
Q 2494 2394 2734 2622 
Q 2975 2850 2975 3272 
Q 2975 3691 2734 3919 
Q 2494 4147 2053 4147 
L 1259 4147 
z
M 628 4666 
L 2053 4666 
Q 2838 4666 3239 4311 
Q 3641 3956 3641 3272 
Q 3641 2581 3239 2228 
Q 2838 1875 2053 1875 
L 1259 1875 
L 1259 0 
L 628 0 
L 628 4666 
z
" transform="scale(0.015625)"/>
      <path id="DejaVuSans-4d" d="M 628 4666 
L 1569 4666 
L 2759 1491 
L 3956 4666 
L 4897 4666 
L 4897 0 
L 4281 0 
L 4281 4097 
L 3078 897 
L 2444 897 
L 1241 4097 
L 1241 0 
L 628 0 
L 628 4666 
z
" transform="scale(0.015625)"/>
      <path id="DejaVuSans-41" d="M 2188 4044 
L 1331 1722 
L 3047 1722 
L 2188 4044 
z
M 1831 4666 
L 2547 4666 
L 4325 0 
L 3669 0 
L 3244 1197 
L 1141 1197 
L 716 0 
L 50 0 
L 1831 4666 
z
" transform="scale(0.015625)"/>
      <path id="DejaVuSans-20" transform="scale(0.015625)"/>
     </defs>
     <use xlink:href="#DejaVuSans-55"/>
     <use xlink:href="#DejaVuSans-50" transform="translate(73.193359 0)"/>
     <use xlink:href="#DejaVuSans-47" transform="translate(133.496094 0)"/>
     <use xlink:href="#DejaVuSans-4d" transform="translate(210.986328 0)"/>
     <use xlink:href="#DejaVuSans-41" transform="translate(297.265625 0)"/>
     <use xlink:href="#DejaVuSans-20" transform="translate(365.673828 0)"/>
     <use xlink:href="#DejaVuSans-74" transform="translate(397.460938 0)"/>
     <use xlink:href="#DejaVuSans-72" transform="translate(436.669922 0)"/>
     <use xlink:href="#DejaVuSans-65" transform="translate(475.533203 0)"/>
     <use xlink:href="#DejaVuSans-65" transform="translate(537.056641 0)"/>
    </g>
   </g>
  </g>
 </g>
 <defs>
  <clipPath id="p1c616b193e">
   <rect x="10.8" y="26.16" width="410.4" height="323.04"/>
  </clipPath>
 </defs>
</svg>
