<svg xmlns="http://www.w3.org/2000/svg" xmlns:xlink="http://www.w3.org/1999/xlink" version="1.1" class="marks" width="345" height="364" viewBox="0 0 345 364"><rect width="345" height="364" fill="white"/><g fill="none" stroke-miterlimit="10" transform="translate(39,27)"><g class="mark-group role-frame root" role="graphics-object" aria-roledescription="group mark container"><g transform="translate(0,0)"><path class="background" aria-hidden="true" d="M0.5,0.5h300v300h-300Z" stroke="#ddd"/><g><g class="mark-group role-axis" aria-hidden="true"><g transform="translate(0.5,300.5)"><path class="background" aria-hidden="true" d="M0,0h0v0h0Z" pointer-events="none"/><g><g class="mark-rule role-axis-grid" pointer-events="none"><line transform="translate(0,-300)" x2="0" y2="300" stroke="#ddd" stroke-width="1" opacity="1"/><line transform="translate(25,-300)" x2="0" y2="300" stroke="#ddd" stroke-width="1" opacity="1"/><line transform="translate(50,-300)" x2="0" y2="300" stroke="#ddd" stroke-width="1" opacity="1"/><line transform="translate(75,-300)" x2="0" y2="300" stroke="#ddd" stroke-width="1" opacity="1"/><line transform="translate(100,-300)" x2="0" y2="300" stroke="#ddd" stroke-width="1" opacity="1"/><line transform="translate(125,-300)" x2="0" y2="300" stroke="#ddd" stroke-width="1" opacity="1"/><line transform="translate(150,-300)" x2="0" y2="300" stroke="#ddd" stroke-width="1" opacity="1"/><line transform="translate(175,-300)" x2="0" y2="300" stroke="#ddd" stroke-width="1" opacity="1"/><line transform="translate(200,-300)" x2="0" y2="300" stroke="#ddd" stroke-width="1" opacity="1"/><line transform="translate(225,-300)" x2="0" y2="300" stroke="#ddd" stroke-width="1" opacity="1"/><line transform="translate(250,-300)" x2="0" y2="300" stroke="#ddd" stroke-width="1" opacity="1"/><line transform="translate(275,-300)" x2="0" y2="300" stroke="#ddd" stroke-width="1" opacity="1"/><line transform="translate(300,-300)" x2="0" y2="300" stroke="#ddd" stroke-width="1" opacity="1"/></g></g><path class="foreground" aria-hidden="true" d="" pointer-events="none" display="none"/></g></g><g class="mark-group role-axis" aria-hidden="true"><g transform="translate(0.5,0.5)"><path class="background" aria-hidden="true" d="M0,0h0v0h0Z" pointer-events="none"/><g><g class="mark-rule role-axis-grid" pointer-events="none"><line transform="translate(0,300)" x2="300" y2="0" stroke="#ddd" stroke-width="1" opacity="1"/><line transform="translate(0,270)" x2="300" y2="0" stroke="#ddd" stroke-width="1" opacity="1"/><line transform="translate(0,240)" x2="300" y2="0" stroke="#ddd" stroke-width="1" opacity="1"/><line transform="translate(0,210)" x2="300" y2="0" stroke="#ddd" stroke-width="1" opacity="1"/><line transform="translate(0,180)" x2="300" y2="0" stroke="#ddd" stroke-width="1" opacity="1"/><line transform="translate(0,150)" x2="300" y2="0" stroke="#ddd" stroke-width="1" opacity="1"/><line transform="translate(0,120)" x2="300" y2="0" stroke="#ddd" stroke-width="1" opacity="1"/><line transform="translate(0,90)" x2="300" y2="0" stroke="#ddd" stroke-width="1" opacity="1"/><line transform="translate(0,60)" x2="300" y2="0" stroke="#ddd" stroke-width="1" opacity="1"/><line transform="translate(0,30)" x2="300" y2="0" stroke="#ddd" stroke-width="1" opacity="1"/><line transform="translate(0,0)" x2="300" y2="0" stroke="#ddd" stroke-width="1" opacity="1"/></g></g><path class="foreground" aria-hidden="true" d="" pointer-events="none" display="none"/></g></g><g class="mark-group role-axis" role="graphics-symbol" aria-roledescription="axis" aria-label="X-axis titled 'Prey' for a linear scale with values from 10 to 34"><g transform="translate(0.5,300.5)"><path class="background" aria-hidden="true" d="M0,0h0v0h0Z" pointer-events="none"/><g><g class="mark-rule role-axis-tick" pointer-events="none"><line transform="translate(0,0)" x2="0" y2="5" stroke="#888" stroke-width="1" opacity="1"/><line transform="translate(25,0)" x2="0" y2="5" stroke="#888" stroke-width="1" opacity="1"/><line transform="translate(50,0)" x2="0" y2="5" stroke="#888" stroke-width="1" opacity="1"/><line transform="translate(75,0)" x2="0" y2="5" stroke="#888" stroke-width="1" opacity="1"/><line transform="translate(100,0)" x2="0" y2="5" stroke="#888" stroke-width="1" opacity="1"/><line transform="translate(125,0)" x2="0" y2="5" stroke="#888" stroke-width="1" opacity="1"/><line transform="translate(150,0)" x2="0" y2="5" stroke="#888" stroke-width="1" opacity="1"/><line transform="translate(175,0)" x2="0" y2="5" stroke="#888" stroke-width="1" opacity="1"/><line transform="translate(200,0)" x2="0" y2="5" stroke="#888" stroke-width="1" opacity="1"/><line transform="translate(225,0)" x2="0" y2="5" stroke="#888" stroke-width="1" opacity="1"/><line transform="translate(250,0)" x2="0" y2="5" stroke="#888" stroke-width="1" opacity="1"/><line transform="translate(275,0)" x2="0" y2="5" stroke="#888" stroke-width="1" opacity="1"/><line transform="translate(300,0)" x2="0" y2="5" stroke="#888" stroke-width="1" opacity="1"/></g><g class="mark-text role-axis-label" pointer-events="none"><text text-anchor="start" transform="translate(0,15)" font-family="sans-serif" font-size="10px" fill="#000" opacity="1">10</text><text text-anchor="middle" transform="translate(25,15)" font-family="sans-serif" font-size="10px" fill="#000" opacity="1">12</text><text text-anchor="middle" transform="translate(50,15)" font-family="sans-serif" font-size="10px" fill="#000" opacity="1">14</text><text text-anchor="middle" transform="translate(75,15)" font-family="sans-serif" font-size="10px" fill="#000" opacity="1">16</text><text text-anchor="middle" transform="translate(100,15)" font-family="sans-serif" font-size="10px" fill="#000" opacity="1">18</text><text text-anchor="middle" transform="translate(125,15)" font-family="sans-serif" font-size="10px" fill="#000" opacity="1">20</text><text text-anchor="middle" transform="translate(150,15)" font-family="sans-serif" font-size="10px" fill="#000" opacity="1">22</text><text text-anchor="middle" transform="translate(175,15)" font-family="sans-serif" font-size="10px" fill="#000" opacity="1">24</text><text text-anchor="middle" transform="translate(200,15)" font-family="sans-serif" font-size="10px" fill="#000" opacity="1">26</text><text text-anchor="middle" transform="translate(225,15)" font-family="sans-serif" font-size="10px" fill="#000" opacity="1">28</text><text text-anchor="middle" transform="translate(250,15)" font-family="sans-serif" font-size="10px" fill="#000" opacity="1">30</text><text text-anchor="middle" transform="translate(275,15)" font-family="sans-serif" font-size="10px" fill="#000" opacity="1">32</text><text text-anchor="end" transform="translate(300,15)" font-family="sans-serif" font-size="10px" fill="#000" opacity="1">34</text></g><g class="mark-rule role-axis-domain" pointer-events="none"><line transform="translate(0,0)" x2="300" y2="0" stroke="#888" stroke-width="1" opacity="1"/></g><g class="mark-text role-axis-title" pointer-events="none"><text text-anchor="middle" transform="translate(150,30)" font-family="sans-serif" font-size="11px" font-weight="bold" fill="#000" opacity="1">Prey</text></g></g><path class="foreground" aria-hidden="true" d="" pointer-events="none" display="none"/></g></g><g class="mark-group role-axis" role="graphics-symbol" aria-roledescription="axis" aria-label="Y-axis titled 'Predator' for a linear scale with values from 0 to 20"><g transform="translate(0.5,0.5)"><path class="background" aria-hidden="true" d="M0,0h0v0h0Z" pointer-events="none"/><g><g class="mark-rule role-axis-tick" pointer-events="none"><line transform="translate(0,300)" x2="-5" y2="0" stroke="#888" stroke-width="1" opacity="1"/><line transform="translate(0,270)" x2="-5" y2="0" stroke="#888" stroke-width="1" opacity="1"/><line transform="translate(0,240)" x2="-5" y2="0" stroke="#888" stroke-width="1" opacity="1"/><line transform="translate(0,210)" x2="-5" y2="0" stroke="#888" stroke-width="1" opacity="1"/><line transform="translate(0,180)" x2="-5" y2="0" stroke="#888" stroke-width="1" opacity="1"/><line transform="translate(0,150)" x2="-5" y2="0" stroke="#888" stroke-width="1" opacity="1"/><line transform="translate(0,120)" x2="-5" y2="0" stroke="#888" stroke-width="1" opacity="1"/><line transform="translate(0,90)" x2="-5" y2="0" stroke="#888" stroke-width="1" opacity="1"/><line transform="translate(0,60)" x2="-5" y2="0" stroke="#888" stroke-width="1" opacity="1"/><line transform="translate(0,30)" x2="-5" y2="0" stroke="#888" stroke-width="1" opacity="1"/><line transform="translate(0,0)" x2="-5" y2="0" stroke="#888" stroke-width="1" opacity="1"/></g><g class="mark-text role-axis-label" pointer-events="none"><text text-anchor="end" transform="translate(-7,303)" font-family="sans-serif" font-size="10px" fill="#000" opacity="1">0</text><text text-anchor="end" transform="translate(-7,273)" font-family="sans-serif" font-size="10px" fill="#000" opacity="1">2</text><text text-anchor="end" transform="translate(-7,243)" font-family="sans-serif" font-size="10px" fill="#000" opacity="1">4</text><text text-anchor="end" transform="translate(-7,213)" font-family="sans-serif" font-size="10px" fill="#000" opacity="1">6</text><text text-anchor="end" transform="translate(-7,183)" font-family="sans-serif" font-size="10px" fill="#000" opacity="1">8</text><text text-anchor="end" transform="translate(-7,153)" font-family="sans-serif" font-size="10px" fill="#000" opacity="1">10</text><text text-anchor="end" transform="translate(-7,123)" font-family="sans-serif" font-size="10px" fill="#000" opacity="1">12</text><text text-anchor="end" transform="translate(-7,93.00000000000001)" font-family="sans-serif" font-size="10px" fill="#000" opacity="1">14</text><text text-anchor="end" transform="translate(-7,62.999999999999986)" font-family="sans-serif" font-size="10px" fill="#000" opacity="1">16</text><text text-anchor="end" transform="translate(-7,32.99999999999999)" font-family="sans-serif" font-size="10px" fill="#000" opacity="1">18</text><text text-anchor="end" transform="translate(-7,3)" font-family="sans-serif" font-size="10px" fill="#000" opacity="1">20</text></g><g class="mark-rule role-axis-domain" pointer-events="none"><line transform="translate(0,300)" x2="0" y2="-300" stroke="#888" stroke-width="1" opacity="1"/></g><g class="mark-text role-axis-title" pointer-events="none"><text text-anchor="middle" transform="translate(-22.123046875,150) rotate(-90) translate(0,-2)" font-family="sans-serif" font-size="11px" font-weight="bold" fill="#000" opacity="1">Predator</text></g></g><path class="foreground" aria-hidden="true" d="" pointer-events="none" display="none"/></g></g><g class="mark-line role-mark marks" role="graphics-object" aria-roledescription="line mark container"><path aria-label="Prey: 10.8140488762; Predator: 9.90139118221" role="graphics-symbol" aria-roledescription="line mark" d="M10.176,151.479L10.178,148.319L10.179,151.7L10.182,148.093L10.182,151.921L10.186,147.867L10.186,152.141L10.19,147.641L10.191,152.361L10.195,147.414L10.195,152.58L10.2,147.186L10.201,152.8L10.206,146.959L10.206,153.018L10.212,146.731L10.212,153.237L10.219,146.503L10.219,153.455L10.226,146.274L10.356,156.505L10.369,156.718L10.373,143.007L10.382,156.931L10.387,142.774L10.396,157.143L10.401,142.54L10.41,157.355L10.416,142.306L10.425,157.567L10.431,142.071L10.44,157.778L10.447,141.837L10.455,157.989L10.463,141.602L10.471,158.2L10.48,141.366L10.487,158.411L10.497,141.131L10.514,140.895L10.76,161.349L10.783,161.554L10.806,161.759L10.812,137.524L10.829,161.963L10.837,137.284L10.852,162.167L10.862,137.043L10.876,162.371L10.888,136.801L10.901,162.575L10.914,136.56L10.926,162.778L10.94,136.318L10.951,162.98L10.967,136.076L10.976,163.183L10.995,135.833L11.023,135.59L11.051,135.347L11.381,166.008L11.413,166.206L11.445,166.402L11.478,166.599L11.506,131.878L11.51,166.795L11.542,131.631L11.544,166.991L11.577,167.186L11.578,131.383L11.611,167.381L11.615,131.135L11.646,167.576L11.653,130.887L11.68,167.77L11.691,130.638L11.729,130.389L11.768,130.14L11.807,129.89L11.847,129.641L12.214,170.483L12.255,170.672L12.296,170.861L12.337,171.05L12.379,171.238L12.421,171.426L12.464,171.613L12.466,126.079L12.507,171.8L12.513,125.826L12.55,171.987L12.561,125.571L12.594,172.173L12.61,125.317L12.659,125.062L12.709,124.808L12.759,124.552L12.81,124.297L12.861,124.041L12.913,123.785L13.254,174.773L13.303,174.954L13.353,175.135L13.403,175.316L13.454,175.496L13.505,175.676L13.557,175.855L13.608,176.035L13.66,176.213L13.703,120.14L13.713,176.392L13.763,119.88L13.823,119.62L13.884,119.36L13.946,119.1L14.008,118.839L14.07,118.578L14.134,118.317L14.197,118.056L14.262,117.795L14.496,178.88L14.554,179.053L14.613,179.226L14.672,179.399L14.731,179.571L14.791,179.743L14.851,179.915L14.912,180.086L14.972,180.257L15.034,180.427L15.231,114.074L15.304,113.809L15.378,113.545L15.452,113.28L15.526,113.014L15.601,112.749L15.677,112.483L15.753,112.217L15.83,111.951L15.908,111.685L15.939,182.804L16.005,182.97L16.072,183.135L16.14,183.3L16.208,183.464L16.276,183.629L16.345,183.792L16.414,183.956L16.483,184.119L16.553,184.282L17.067,107.901L17.153,107.632L17.24,107.363L17.328,107.094L17.416,106.825L17.505,106.555L17.578,186.549L17.594,106.285L17.653,186.707L17.684,106.016L17.729,186.865L17.775,105.746L17.805,187.022L17.866,105.476L17.881,187.179L17.958,187.335L18.035,187.491L18.112,187.647L18.19,187.803L18.268,187.958L19.224,101.641L19.325,101.369L19.412,190.118L19.427,101.097L19.496,190.268L19.529,100.825L19.58,190.418L19.631,100.553L19.664,190.567L19.735,100.28L19.749,190.717L19.834,190.866L19.839,100.008L19.919,191.014L19.943,99.735L20.005,191.162L20.048,99.462L20.091,191.31L20.154,99.189L20.178,191.458L21.44,193.512L21.532,193.655L21.624,193.797L21.717,193.939L21.722,95.321L21.81,194.081L21.838,95.047L21.903,194.223L21.955,94.773L21.997,194.364L22.072,94.499L22.091,194.505L22.185,194.645L22.19,94.224L22.28,194.786L22.308,93.95L22.428,93.676L22.548,93.402L22.668,93.127L22.79,92.853L23.66,196.736L23.76,196.871L23.86,197.006L23.961,197.141L24.063,197.276L24.164,197.41L24.266,197.544L24.369,197.677L24.472,197.811L24.575,197.944L24.579,88.969L24.711,88.694L24.844,88.419L24.977,88.145L25.111,87.87L25.246,87.595L25.381,87.32L25.517,87.046L25.654,86.771L25.791,86.497L26.071,199.792L26.18,199.92L26.289,200.048L26.398,200.176L26.508,200.304L26.617,200.431L26.728,200.558L26.838,200.684L26.949,200.81L27.061,200.936L27.815,82.618L27.964,82.344L28.113,82.07L28.263,81.796L28.414,81.523L28.566,81.249L28.674,202.685L28.719,80.976L28.791,202.806L28.872,80.703L28.908,202.927L29.026,80.429L29.026,203.048L29.144,203.168L29.18,80.156L29.262,203.289L29.38,203.408L29.499,203.528L29.619,203.647L29.738,203.766L31.451,76.306L31.469,205.418L31.594,205.532L31.618,76.035L31.719,205.646L31.785,75.764L31.845,205.76L31.953,75.493L31.971,205.874L32.098,205.987L32.122,75.222L32.225,206.1L32.291,74.952L32.352,206.213L32.462,74.682L32.479,206.326L32.607,206.438L32.633,74.411L32.805,74.141L32.978,73.872L34.455,207.994L34.589,208.102L34.722,208.209L34.856,208.316L34.991,208.423L35.126,208.53L35.261,208.637L35.396,208.743L35.509,70.077L35.532,208.849L35.669,208.954L35.694,69.81L35.88,69.544L36.067,69.278L36.255,69.012L36.443,68.746L36.632,68.481L36.823,68.216L37.014,67.951L37.206,67.687L37.634,210.417L37.776,210.518L37.918,210.619L38.06,210.72L38.203,210.821L38.346,210.921L38.49,211.021L38.634,211.12L38.778,211.22L38.922,211.319L40.011,63.977L40.216,63.717L40.421,63.458L40.628,63.199L40.836,62.94L41.006,212.691L41.044,62.681L41.156,212.786L41.253,62.423L41.307,212.88L41.457,212.975L41.463,62.166L41.609,213.069L41.674,61.908L41.76,213.163L41.886,61.651L41.912,213.256L42.064,213.35L42.217,213.443L42.37,213.535L44.572,214.818L44.731,214.907L44.89,214.995L44.979,58.06L45.049,215.083L45.205,57.809L45.209,215.171L45.369,215.259L45.431,57.559L45.529,215.346L45.659,57.309L45.69,215.433L45.851,215.52L45.887,57.059L46.012,215.607L46.116,56.81L46.346,56.562L46.578,56.314L46.809,56.067L47.042,55.82L48.334,216.802L48.501,216.885L48.668,216.967L48.836,217.049L49.004,217.131L49.173,217.213L49.341,217.294L49.511,217.375L49.68,217.455L49.85,217.536L50.437,52.381L50.684,52.142L50.932,51.903L51.181,51.665L51.431,51.428L51.682,51.191L51.934,50.955L52.187,50.72L52.292,218.646L52.441,50.485L52.468,218.723L52.644,218.799L52.695,50.25L52.82,218.875L52.996,218.951L53.173,219.026L53.351,219.102L53.528,219.177L53.706,219.251L53.885,219.326L56.403,47.003L56.448,220.352L56.632,220.423L56.673,46.778L56.817,220.493L56.944,46.554L57.001,220.563L57.187,220.633L57.215,46.331L57.372,220.703L57.488,46.108L57.558,220.772L57.744,220.841L57.761,45.887L57.931,220.91L58.036,45.665L58.118,220.979L58.311,45.445L58.588,45.225L58.866,45.006L60.803,221.923L60.996,221.988L61.189,222.052L61.382,222.117L61.576,222.181L61.77,222.245L61.964,222.308L62.159,222.372L62.355,222.435L62.55,222.498L62.899,41.99L63.191,41.783L63.485,41.577L63.78,41.371L64.076,41.166L64.373,40.962L64.671,40.759L64.97,40.557L65.27,40.355L65.357,223.36L65.559,223.419L65.571,40.155L65.76,223.478L65.963,223.537L66.165,223.595L66.368,223.653L66.571,223.711L66.775,223.769L66.979,223.826L67.183,223.884L69.938,37.412L70.113,224.666L70.255,37.225L70.323,224.72L70.533,224.773L70.572,37.039L70.744,224.826L70.891,36.854L70.955,224.878L71.167,224.931L71.211,36.67L71.379,224.983L71.532,36.487L71.591,225.035L71.804,225.087L71.853,36.305L72.017,225.139L72.176,36.124L72.5,35.944L72.825,35.764L75.07,225.842L75.289,225.889L75.508,225.937L75.727,225.984L75.947,226.032L76.167,226.079L76.388,226.125L76.609,226.172L76.83,226.218L77.052,226.264L77.533,33.339L77.874,33.175L78.216,33.013L78.559,32.852L78.903,32.691L79.248,32.532L79.594,32.374L79.941,32.217L80.229,226.888L80.29,32.061L80.456,226.93L80.639,31.907L80.684,226.972L80.912,227.014L81.141,227.056L81.37,227.097L81.599,227.138L81.829,227.179L82.059,227.22L82.289,227.26L85.59,227.806L85.691,29.842L85.826,227.842L86.056,29.704L86.062,227.879L86.299,227.915L86.422,29.569L86.537,227.951L86.774,227.987L86.789,29.434L87.012,228.023L87.158,29.301L87.251,228.058L87.49,228.093L87.527,29.168L87.729,228.128L87.897,29.037L88.269,28.908L88.641,28.779L89.015,28.652L91.152,228.595L91.397,228.626L91.642,228.657L91.888,228.688L92.134,228.718L92.38,228.749L92.627,228.779L92.874,228.808L93.121,228.838L93.369,228.867L94.409,26.99L94.798,26.883L95.189,26.776L95.58,26.671L95.972,26.568L96.366,26.466L96.76,26.365L96.915,229.256L97.156,26.265L97.168,229.281L97.422,229.307L97.552,26.167L97.676,229.332L97.931,229.357L97.949,26.07L98.186,229.381L98.441,229.406L98.697,229.43L98.953,229.454L99.21,229.478L102.877,229.787L103.139,229.807L103.401,229.827L103.664,229.846L103.679,24.852L103.927,229.865L104.092,24.777L104.19,229.884L104.454,229.903L104.505,24.703L104.719,229.922L104.92,24.631L104.983,229.94L105.248,229.958L105.336,24.56L105.752,24.49L106.17,24.422L106.588,24.356L107.008,24.291L107.429,24.227L109.035,230.187L109.305,230.202L109.576,230.216L109.847,230.229L110.119,230.243L110.391,230.256L110.663,230.269L110.936,230.282L111.209,230.295L111.482,230.307L113.48,23.49L113.915,23.449L114.351,23.41L114.787,23.373L115.225,23.337L115.386,230.455L115.664,23.303L115.665,230.463L115.944,230.472L116.104,23.27L116.224,230.48L116.503,230.488L116.544,23.239L116.784,230.495L116.986,23.21L117.064,230.502L117.345,230.509L117.428,23.182L117.626,230.516L117.908,230.523L121.927,230.587L122.213,230.59L122.501,230.592L122.788,230.595L123.076,230.596L123.364,230.598L123.653,230.599L123.779,22.958L123.941,230.6L124.231,230.601L124.235,22.954L124.52,230.602L124.691,22.952L125.149,22.952L125.607,22.953L126.066,22.956L126.526,22.961L126.986,22.967L127.448,22.975L127.91,22.985L128.65,230.582L128.945,230.578L129.24,230.575L129.535,230.571L129.831,230.566L130.126,230.562L130.423,230.557L130.719,230.552L131.016,230.547L131.313,230.541L134.532,23.3L135.006,23.335L135.481,23.372L135.551,230.434L135.853,230.424L135.957,23.41L136.155,230.414L136.433,23.45L136.458,230.404L136.76,230.394L136.91,23.492L137.064,230.383L137.367,230.372L137.387,23.536L137.671,230.361L137.865,23.581L137.975,230.349L138.28,230.337L138.344,23.628L138.824,23.676L142.619,230.14L142.928,230.124L143.237,230.107L143.547,230.091L143.857,230.074L144.167,230.056L144.477,230.039L144.788,230.021L145.099,230.003L145.411,229.985L145.679,24.549L146.168,24.623L146.658,24.7L147.149,24.778L147.64,24.858L148.131,24.939L148.624,25.023L149.117,25.108L149.61,25.194L149.845,229.694L150.104,25.283L150.16,229.671L150.476,229.648L150.792,229.624L151.109,229.601L151.426,229.577L151.743,229.552L152.06,229.528L152.377,229.503L152.695,229.478L157.143,26.72L157.217,229.089L157.538,229.06L157.644,26.835L157.86,229.03L158.146,26.952L158.182,228.999L158.504,228.969L158.648,27.07L158.827,228.938L159.15,228.906L159.15,27.19L159.473,228.875L159.653,27.311L159.796,228.843L160.12,228.81L160.156,27.435L160.66,27.56L161.164,27.687L161.668,27.815L164.72,228.32L165.047,228.283L165.374,228.246L165.701,228.208L166.029,228.17L166.357,228.132L166.685,228.093L167.013,228.054L167.341,228.015L167.67,227.975L168.834,29.816L169.343,29.97L169.852,30.126L170.361,30.284L170.871,30.444L171.38,30.605L171.89,30.768L172.338,227.378L172.4,30.932L172.669,227.334L172.91,31.098L173.001,227.289L173.333,227.243L173.42,31.266L173.665,227.197L173.997,227.151L174.329,227.105L174.662,227.058L174.995,227.011L175.327,226.963L180.051,226.255L180.386,226.202L180.648,33.817L180.722,226.149L181.057,226.095L181.16,34.01L181.393,226.041L181.671,34.205L181.728,225.987L182.064,225.932L182.183,34.401L182.4,225.877L182.694,34.598L182.736,225.822L183.072,225.766L183.206,34.798L183.717,34.999L184.228,35.201L184.74,35.405L185.251,35.611L187.5,225L187.838,224.939L188.175,224.878L188.513,224.816L188.851,224.754L189.189,224.691L189.527,224.629L189.865,224.565L190.203,224.502L190.542,224.438L190.88,224.373L192.467,38.688L192.976,38.918L193.485,39.149L193.993,39.381L194.501,39.615L195.009,39.85L195.332,223.491L195.517,40.087L195.671,223.421L196.01,223.35L196.024,40.325L196.35,223.28L196.531,40.565L196.689,223.208L197.028,223.137L197.037,40.806L197.367,223.065L197.707,222.993L198.046,222.92L198.385,222.847L203.184,221.767L203.523,221.688L203.862,221.608L204.163,44.374L204.202,221.527L204.541,221.447L204.663,44.637L204.88,221.365L205.163,44.902L205.219,221.284L205.558,221.202L205.663,45.167L205.897,221.119L206.162,45.435L206.236,221.036L206.66,45.703L207.158,45.973L207.656,46.244L208.153,46.517L208.649,46.791L211.023,219.816L211.36,219.727L211.698,219.636L212.036,219.546L212.373,219.455L212.711,219.363L213.048,219.272L213.385,219.179L213.722,219.086L214.059,218.993L215.6,50.803L216.086,51.097L216.572,51.391L217.057,51.687L217.541,51.984L218.024,52.282L218.506,52.581L218.811,217.624L218.988,52.882L219.146,217.523L219.468,53.183L219.48,217.422L219.815,217.321L219.948,53.486L220.149,217.219L220.483,217.117L220.817,217.014L221.151,216.911L221.484,216.807L221.817,216.703L226.508,215.174L226.641,57.89L226.838,215.062L227.107,58.209L227.167,214.95L227.497,214.837L227.572,58.53L227.826,214.724L228.036,58.851L228.154,214.61L228.483,214.495L228.499,59.174L228.811,214.38L228.961,59.497L229.139,214.265L229.422,59.822L229.467,214.149L229.881,60.148L230.34,60.474L230.798,60.802L234.068,212.452L234.391,212.328L234.713,212.203L235.035,212.078L235.357,211.952L235.678,211.826L235.999,211.699L236.32,211.572L236.64,211.444L236.96,211.316L237.148,65.534L237.588,65.875L238.027,66.217L238.464,66.56L238.901,66.904L239.335,67.249L239.769,67.594L240.201,67.94L240.632,68.287L241.062,68.635L241.44,209.439L241.753,209.302L242.066,209.165L242.379,209.027L242.691,208.888L243.003,208.749L243.314,208.609L243.625,208.468L243.935,208.327L244.244,208.186L246.991,73.63L247.4,73.988L247.807,74.347L248.212,74.707L248.569,206.119L248.616,75.067L248.871,205.968L249.019,75.427L249.172,205.817L249.42,75.789L249.472,205.665L249.772,205.513L249.819,76.151L250.072,205.359L250.217,76.513L250.37,205.206L250.614,76.876L250.669,205.051L250.966,204.896L251.263,204.741L255.395,202.473L255.682,202.308L255.969,202.142L256.05,82.066L256.255,201.975L256.422,82.436L256.54,201.808L256.792,82.807L256.824,201.64L257.108,201.472L257.161,83.178L257.391,201.303L257.528,83.55L257.673,201.133L257.893,83.922L257.954,200.963L258.256,84.294L258.618,84.667L258.978,85.04L259.337,85.414L261.854,198.483L262.123,198.302L262.392,198.121L262.66,197.939L262.928,197.757L263.194,197.574L263.46,197.39L263.724,197.205L263.988,197.02L264.216,90.729L264.251,196.834L264.548,91.107L264.877,91.485L265.205,91.863L265.531,92.241L265.855,92.62L266.177,92.998L266.497,93.377L266.815,93.756L267.132,94.136L267.875,194.131L268.125,193.935L268.373,193.738L268.62,193.54L268.867,193.341L269.112,193.142L269.356,192.942L269.6,192.741L269.842,192.54L270.084,192.338L271.403,99.51L271.69,99.891L271.975,100.271L272.259,100.652L272.54,101.032L272.819,101.413L273.097,101.794L273.372,102.174L273.388,189.402L273.613,189.189L273.646,102.554L273.838,188.975L273.917,102.935L274.061,188.76L274.283,188.545L274.504,188.329L274.724,188.112L274.943,187.895L275.161,187.676L275.377,187.457L277.539,108.307L277.78,108.686L278.019,109.065L278.255,109.444L278.315,184.28L278.49,109.822L278.513,184.05L278.71,183.818L278.722,110.2L278.906,183.587L278.953,110.578L279.101,183.354L279.181,110.956L279.295,183.121L279.407,111.334L279.487,182.886L279.632,111.712L279.678,182.651L279.867,182.416L280.056,182.179L282.579,178.753L282.579,117.025L282.747,178.505L282.771,117.399L282.913,178.257L282.962,117.772L283.079,178.007L283.15,118.145L283.243,177.757L283.336,118.518L283.405,177.505L283.52,118.89L283.566,177.254L283.702,119.262L283.726,177.001L283.882,119.634L283.884,176.747L284.041,176.493L284.06,120.005L284.236,120.376L286.101,172.814L286.236,172.548L286.369,172.282L286.494,125.581L286.5,172.014L286.629,171.746L286.638,125.946L286.758,171.477L286.779,126.311L286.884,171.207L286.919,126.675L287.009,170.936L287.056,127.038L287.133,170.665L287.191,127.401L287.255,170.392L287.324,127.764L287.455,128.126L287.584,128.488L287.711,128.849L288.806,166.46L288.903,166.176L288.999,165.891L289.093,165.605L289.185,165.319L289.275,165.032L289.279,133.904L289.364,164.744L289.374,134.258L289.451,164.456L289.467,134.61L289.537,164.166L289.558,134.963L289.621,163.876L289.646,135.315L289.733,135.666L289.818,136.016L289.9,136.366L289.981,136.716L290.059,137.065L290.618,159.692L290.675,159.39L290.731,159.088L290.784,158.785L290.836,158.481L290.886,158.176L290.934,157.871L290.947,141.935L290.98,157.565L290.994,142.275L291.024,157.258L291.039,142.614L291.067,156.95L291.083,142.953L291.124,143.29L291.163,143.628L291.2,143.964L291.236,144.3L291.269,144.635L291.3,144.97L291.47,152.522L291.484,152.203L291.496,151.884L291.506,151.564L291.515,151.243L291.521,150.922L291.526,150.6L291.528,149.629L291.529,150.277L291.529,149.953" stroke="#4c78a8" stroke-width="2"/></g><g class="mark-group role-title"><g transform="translate(150,-22)"><path class="background" aria-hidden="true" d="M0,0h0v0h0Z" pointer-events="none"/><g><g class="mark-text role-title-text" role="graphics-symbol" aria-roledescription="title" aria-label="Title text 'Phase portrait'" pointer-events="none"><text text-anchor="middle" transform="translate(0,10)" font-family="sans-serif" font-size="13px" font-weight="bold" fill="#000" opacity="1">Phase portrait</text></g></g><path class="foreground" aria-hidden="true" d="" pointer-events="none" display="none"/></g></g></g><path class="foreground" aria-hidden="true" d="" display="none"/></g></g></g></svg>