<?xml version="1.0" encoding="utf-8"?>
<svg version="1.1" id="Layer_1" xmlns="http://www.w3.org/2000/svg" xmlns:xlink="http://www.w3.org/1999/xlink" x="0px" y="0px"
	 viewBox="0 0 1303.188 1657.988" enable-background="new 0 0 1303.188 1657.988" xml:space="preserve">
<g>
	<path fill="#3D1B0F" stroke="#3D1B0F" d="M563.42,35.274c12.48-1.783,24.902-4.102,37.458-5.368
		c3.048-0.249,6.096-0.422,9.144-0.594c20.627,0.498,41.254-0.748,61.881-0.153c9.738,0.288,19.477,0.307,29.196,0.038
		c2.32,0.115,4.62,0.23,6.939,0.364c12.844,0.46,25.419,3.297,38.206,4.543c6.633,1.035,13.17,2.492,19.803,3.585
		c6.077,1.112,12.096,2.588,18.192,3.623c11.425,3.451,22.774,7.17,33.95,11.368c24.135,9.93,46.679,23.426,67.574,39.011
		c2.665,2.09,5.31,4.217,7.917,6.384c17.234,14.186,32.838,30.231,47.12,47.369c1.61,1.994,3.201,4.007,4.792,6.039
		c18.729,24.097,34.928,50.129,48.232,77.6c36.538,75.415,54.884,159.59,53.312,243.362c0.345,48.653-7.016,97.46-22.716,143.545
		c-18.269,54.673-50.474,105.818-96.866,140.822c-9.508,7.342-20.339,12.71-29.867,19.994c5.272-10.908,11.08-21.643,14.378-33.375
		c10.831-37.132,11.099-76.392,8.396-114.675c-3.374-39.107-10.773-77.983-23.368-115.211c-8.013-22.812-17.636-45.586-33.126-64.43
		c-4.332-5.272-9.47-9.949-15.413-13.304c-37.42-19.745-80.667-30.269-122.937-24.078c-38.397,4.39-74.264,22.007-113.141,23.253
		c-27.49,0.786-53.35-11.636-74.245-28.697c2.895-18.672-0.844-38.819-12.805-53.791c-11.54-14.128-27.911-24.633-45.97-27.931
		c6.825-5.157,14.243-9.432,21.892-13.227c74.82-39.298,165.341-47.522,245.931-21.969
		c79.996,24.154,149.181,81.319,188.594,154.951c15.758,28.602,25.937,59.887,32.551,91.786c4.639-18.288,5.253-37.228,5.233-55.995
		c0.748-74.494-27.355-148.452-75.817-204.85c-48.845-57.433-118.489-96.808-193.003-108.617c-27.26-5.099-55.229-4.16-82.814-3.144
		c-79.747,6.844-157.519,43.861-210.428,104.361c-15.528-17.694-40.104-27.183-63.472-23.579
		c-24.518,4.026-46.334,21.93-54.539,45.471c-6.019,16.256-3.719,34.065,0.153,50.532c-15.719-10.103-34.199-18.077-53.273-15.298
		c-17.981,1.936-34.372,11.444-46.391,24.748c9.163-24.25,20.761-47.484,33.145-70.239c1.304-2.377,2.645-4.716,4.045-7.035
		c14.109-23.502,29.771-46.065,47.024-67.363c19.036-22.678,39.586-44.11,62.053-63.414c14.895-12.806,30.634-24.557,47.005-35.388
		c7.649-5.042,15.374-9.988,23.196-14.761c8.646-4.85,17.445-9.451,26.32-13.86c3.163-1.61,6.326-3.182,9.527-4.697
		c12.901-6.115,26.09-11.617,39.49-16.524c15.911-5.713,32.091-10.601,48.404-15.029c4.888-0.901,9.738-2.128,14.588-3.24
		C553.701,37.172,558.57,36.232,563.42,35.274z"/>
	<path fill="#EE2B7A" stroke="#EE2B7A" d="M411.594,267.863c52.909-60.5,130.682-97.518,210.428-104.361
		c27.586-1.016,55.554-1.955,82.814,3.144c74.514,11.809,144.158,51.184,193.003,108.617
		c48.462,56.398,76.565,130.356,75.817,204.85c0.019,18.767-0.594,37.707-5.233,55.995c-6.614-31.899-16.793-63.184-32.551-91.786
		C896.46,370.69,827.275,313.526,747.279,289.371c-80.59-25.554-171.111-17.33-245.931,21.969
		c-7.649,3.796-15.068,8.071-21.892,13.227c-14.818-1.495-29.349,2.224-42.902,7.975c-0.939,0.652-2.818,1.955-3.757,2.607
		c-2.875,1.649-5.751,3.336-8.607,5.003c1.419-10.198,4.562-20.282,3.891-30.691C427.198,294.317,421.237,279.556,411.594,267.863z"
		/>
	<path fill="#FDEE21" stroke="#FDEE21" d="M293.584,289.755c8.205-23.541,30.02-41.445,54.539-45.471
		c23.368-3.604,47.944,5.885,63.472,23.579c9.642,11.694,15.604,26.455,16.486,41.599c0.671,10.409-2.473,20.493-3.891,30.691
		c2.856-1.668,5.732-3.355,8.607-5.003c0.939-0.652,2.818-1.955,3.757-2.607c13.553-5.751,28.084-9.47,42.902-7.975
		c18.058,3.297,34.429,13.802,45.97,27.931c11.962,14.972,15.7,35.119,12.805,53.791c-5.483,22.621-20.263,44.896-43.228,52.391
		c-9.853,4.064-20.589,4.371-31.055,5.253c8.339,8.205,17.349,16.026,23.502,26.129c7.553,12.633,11.981,27.854,8.818,42.557
		c-4.352,22.084-15.834,44.877-37.036,54.96c-12.345,6.767-26.838,6.479-40.487,5.847c-5.962-0.268-11.809-1.553-17.368-3.7
		c-21.892-7.572-35.579-28.161-42.596-49.248c-7.016,16.563-16.237,33.221-31.535,43.477c-17.617,12-41.081,13.266-60.826,6.249
		c-30.423-10.946-50.82-45.068-44.436-77.063c4.16-19.975,18.346-35.618,32.646-49.267c-18.077,0.594-36.864-4.026-50.781-16.064
		c-15.719-12.633-24.576-32.531-25.036-52.545c-0.288-13.86,3.623-27.528,11.004-39.222c1.361-2.147,2.818-4.237,4.256-6.307
		c12.02-13.304,28.41-22.812,46.391-24.748c19.074-2.78,37.554,5.195,53.273,15.298C289.865,323.82,287.565,306.011,293.584,289.755
		 M348.487,390.129c-19.63,4.946-33.682,25.707-30.902,45.778c2.55,18.576,19.266,33.931,37.918,35.273
		c14.703,1.208,29.694-6.096,37.937-18.288c8.224-12.077,9.106-28.832,2.166-41.675
		C386.731,394.787,366.794,385.317,348.487,390.129z"/>
	<path fill="#CC6C0B" stroke="#CC6C0B" d="M432.796,335.149c0.939-0.652,2.818-1.955,3.757-2.607
		C435.614,333.194,433.735,334.497,432.796,335.149z"/>
	<path fill="#C2272D" stroke="#C2272D" d="M348.487,390.129c18.307-4.812,38.244,4.658,47.12,21.087
		c6.94,12.844,6.058,29.598-2.166,41.675c-8.243,12.192-23.234,19.496-37.937,18.288c-18.652-1.342-35.369-16.697-37.918-35.273
		C314.805,415.836,328.857,395.074,348.487,390.129z"/>
	<path fill="#3D1B0F" stroke="#3D1B0F" d="M172.296,417.388c1.917-7.438,4.332-14.761,6.518-22.122
		c0.46,20.013,9.317,39.912,25.036,52.545c13.917,12.039,32.704,16.659,50.781,16.064c-14.301,13.649-28.487,29.292-32.646,49.267
		c-6.384,31.995,14.013,66.117,44.436,77.063c19.745,7.016,43.209,5.751,60.826-6.249c15.298-10.256,24.518-26.915,31.535-43.477
		c7.016,21.087,20.704,41.675,42.596,49.248c0.901,0.364,2.703,1.093,3.623,1.457c-21.662,86.897-2.55,181.405,45.509,256.245
		c-13.151-0.115-26.301-0.939-39.318-2.818c-26.627-4.888-52.967-11.655-78.06-21.93c-15.374-6.384-30.078-14.32-44.129-23.253
		c-26.224-16.946-49.324-38.589-68.13-63.51c-10.103-13.63-19.093-28.084-26.55-43.324c-9.432-18.422-16.218-38.033-22.256-57.778
		c-5.962-22.889-10.083-46.238-12.192-69.779c-0.863-21.432-1.438-42.883-0.038-64.296c0.383-6.709,0.805-13.4,1.361-20.071
		c0.824-5.962,1.84-11.905,2.569-17.886C165.778,447.523,169.42,432.513,172.296,417.388z"/>
	<path fill="#F5D3B8" stroke="#F5D3B8" d="M495.003,458.68c22.966-7.495,37.746-29.771,43.228-52.391
		c20.895,17.061,46.756,29.483,74.245,28.697c38.877-1.246,74.744-18.863,113.141-23.253c42.27-6.192,85.517,4.332,122.937,24.078
		c5.943,3.355,11.08,8.032,15.413,13.304c15.489,18.844,25.113,41.618,33.126,64.43c12.595,37.228,19.994,76.105,23.368,115.211
		c2.703,38.282,2.435,77.542-8.396,114.675c-3.297,11.732-9.106,22.467-14.378,33.375c-14.128,28.64-31.86,55.497-52.506,79.862
		c-20.78,24.116-44.091,46.794-71.964,62.571c-1.495,2.415-2.799,4.946-3.949,7.572c-2.109-2.166-4.198-4.332-6.269-6.499
		c-2.645,4.773-5.923,9.527-11.176,11.713c-23.138,10.869-47.465,20.186-73.076,22.946c-16.735,3.067-33.816,2.549-50.59,0.134
		c-34.103-3.144-66.251-16.448-95.984-32.857c-0.594-0.403-1.764-1.227-2.339-1.649c-8.377-5.809-16.812-11.54-24.806-17.866
		c-3.815-2.933-7.591-5.924-11.234-9.048c-15.317-14.473-31.266-28.793-43.286-46.257C402.45,772.588,383.338,678.08,405,591.183
		c-0.92-0.364-2.722-1.093-3.623-1.457c5.559,2.147,11.406,3.431,17.368,3.7c13.649,0.633,28.141,0.92,40.487-5.847
		c21.202-10.083,32.685-32.876,37.036-54.96c3.163-14.703-1.265-29.924-8.818-42.557c-6.154-10.103-15.163-17.924-23.502-26.129
		C474.414,463.051,485.149,462.744,495.003,458.68z"/>
	<path fill="#F2CBAE" stroke="#F2CBAE" d="M762.998,920.312c2.07,2.166,4.16,4.332,6.269,6.499
		c0.92,33.892,0.249,67.823,0.46,101.735c-22.084,4.888-44.513,8.837-67.152,9.278c-48.788-1.227-97.901-16.85-135.992-47.906
		c-14.569-11.368-25.553-26.627-34.774-42.5c-0.403-8.396,0.057-16.793,0.364-25.17c29.733,16.409,61.881,29.713,95.984,32.857
		c16.774,2.415,33.854,2.933,50.59-0.134c25.611-2.76,49.938-12.077,73.076-22.946C757.075,929.839,760.353,925.085,762.998,920.312
		z"/>
	<path fill="#F5D3B8" stroke="#F5D3B8" d="M531.809,947.418c9.221,15.873,20.205,31.132,34.774,42.5
		c38.091,31.055,87.204,46.679,135.992,47.906c22.64-0.441,45.069-4.39,67.152-9.278c0.383,4.447,1.189,8.857,1.764,13.304
		c-0.288,0.613-0.863,1.859-1.15,2.473c-8.627,1.725-13.016,10.007-18.614,15.873c-18.346,20.282-40.89,37.669-67.152,46.123
		c-26.033,8.511-54.941,6.019-79.881-4.85c-28.429-12.23-53.216-32.205-72.884-55.957
		C531.847,1012.807,531.886,980.122,531.809,947.418z"/>
	<path fill="#EE2B7A" stroke="#EE2B7A" d="M751.727,1060.195c5.598-5.866,9.987-14.147,18.614-15.873
		c43.305,3.163,85.21,16.486,125.41,32.34c12.771,5.037,25.378,10.498,38.294,15.162c6.144,2.219,12.357,4.13,18.623,5.963
		c2.029,0.594,12.206,2.645,12.241,5.637c0.053,4.435-13.484,11.61-16.624,14.124c-5.954,4.767-11.991,9.43-18.084,14.019
		c-12.389,9.332-25.008,18.354-37.653,27.335c-32.282,22.659-65.619,43.957-100.47,62.475
		c-37.036,19.381-75.856,37.381-117.531,43.592c-14.531-0.997-29.1-1.131-43.65-0.019c-36.269-6.345-69.184-24.461-100.125-43.727
		c-51.682-33.183-98.936-73.037-141.819-116.956c-4.85-4.927-9.451-10.083-13.86-15.394c3.892-1.553,7.687-3.24,11.54-4.85
		c25.036-10.774,51.375-17.981,77.274-26.301c14.492-2.435,28.544-7.055,43.171-8.761c5.598-0.767,11.023-2.416,16.563-3.508
		c2.722-0.019,5.444,0,8.166,0.057c19.668,23.752,44.455,43.727,72.884,55.957c24.94,10.869,53.848,13.361,79.881,4.85
		C710.837,1097.864,733.381,1080.477,751.727,1060.195z"/>
	<path fill="#F5D3B8" stroke="#F5D3B8" d="M308.786,1113.698c21.643-9.489,44.244-16.467,66.309-24.825
		c4.409,5.31,9.01,10.467,13.86,15.394c42.883,43.918,90.137,83.773,141.819,116.956c30.94,19.266,63.855,37.381,100.125,43.727
		c14.416,2.703,29.234,2.339,43.65,0.019c41.675-6.211,80.495-24.212,117.531-43.592c34.851-18.518,68.188-39.816,100.47-62.475
		c25.074-17.809,50.11-35.829,73.344-56.015c9.489,3.259,18.902,6.786,28.103,10.793c-9.221,26.915-19.285,53.695-33.912,78.213
		c-36.519,63.376-93.319,114.675-159.82,145.04c-66.903,30.71-143.43,40.103-215.758,26.186
		c-66.826-12.345-129.761-44.551-179.086-91.287C359.816,1228.986,326.403,1173.681,308.786,1113.698z"/>
	<path fill="#733578" stroke="#733578" d="M284.996,1123.571c7.879-3.393,15.854-6.575,23.79-9.872
		c17.617,59.983,51.03,115.288,96.636,158.133c49.324,46.736,112.259,78.942,179.086,91.287
		c72.328,13.917,148.855,4.524,215.758-26.186c66.5-30.365,123.301-81.664,159.82-145.04c14.627-24.518,24.691-51.299,33.912-78.213
		c35.79,14.953,71.235,31.228,103.824,52.411c20.665,13.898,41.005,29.387,55.382,50.033c6.844,9.451,10.237,20.761,14.282,31.592
		c14.646,40.564,26.761,82.009,36.883,123.934c-0.901,2.492-0.268,4.524,1.917,6.077c1.107,0.786,1.572,6.979,1.897,8.422
		c0.747,3.318,1.495,6.636,2.24,9.954c1.434,6.382,2.863,12.765,4.278,19.151c2.83,12.772,5.606,25.555,8.258,38.365
		c5.214,25.178,9.749,50.462,13.812,75.849c2.44,15.245,4.88,30.491,7.32,45.736c1.494,9.333,3.692,18.543,4.992,27.909
		c0.762,5.491,0.296,11.069,1.031,16.561c0.225,1.684,2.514,6.582,2.143,7.88c-0.636,2.228-5.876,1.21-8.139,1.205
		c-13.292-0.027-26.583-0.049-39.875-0.067c-26.583-0.035-53.167-0.054-79.75-0.062c-53.167-0.016-106.333,0.01-159.5,0.029
		c-44.66,0.016-89.32,0.026-133.98,0.002c-235.158-0.134-470.296-0.192-705.454-0.134c-24.825-0.345-49.669,0.613-74.456-0.422
		c-0.058-0.863-0.153-2.588-0.211-3.451c0.633-3.24,1.189-6.499,1.84-9.7c1.84-7.955,3.489-15.949,4.908-23.962
		c0.939-4.869,1.859-9.738,2.837-14.588c1.629-6.767,3.163-13.572,4.237-20.454c5.042-24.154,10.543-48.213,15.278-72.424
		c10.198-47.273,21.547-94.278,32.225-141.436c10.333-37.036,18.652-74.629,29.713-111.473c2.281-7.131,6.154-13.611,10.831-19.4
		c6.403-7.956,13.342-15.509,20.991-22.276c11.981-9.604,24.25-18.901,37.056-27.375c4.908-2.741,9.777-5.559,14.646-8.358
		c2.166-1.246,4.352-2.473,6.537-3.681c13.266-7.246,26.934-13.687,40.583-20.167
		C276.676,1127.347,280.798,1125.392,284.996,1123.571z"/>
	<path fill="#BC3A64" stroke="#BC3A64" d="M630.898,1264.949c14.55-1.112,29.119-0.978,43.65,0.019
		C660.132,1267.288,645.314,1267.652,630.898,1264.949z"/>
	<path fill="#9C90C2" stroke="#9C90C2" d="M1204.367,1371.649c2.339,1.457,2.99,3.489,1.917,6.077
		C1204.099,1376.173,1203.466,1374.141,1204.367,1371.649z"/>
</g>
</svg>
