<svg xmlns="http://www.w3.org/2000/svg" xmlns:xlink="http://www.w3.org/1999/xlink" version="1.1" class="marks" width="548" height="294" viewBox="0 0 548 294"><rect width="548" height="294" fill="white"/><g fill="none" stroke-miterlimit="10" transform="translate(41,7)"><g class="mark-group role-frame root" role="graphics-object" aria-roledescription="group mark container"><g transform="translate(0,0)"><path class="background" aria-hidden="true" d="M0.5,0.5h500v250h-500Z" stroke="#ddd"/><g><g class="mark-group role-axis" aria-hidden="true"><g transform="translate(0.5,250.5)"><path class="background" aria-hidden="true" d="M0,0h0v0h0Z" pointer-events="none"/><g><g class="mark-rule role-axis-grid" pointer-events="none"><line transform="translate(0,-250)" x2="0" y2="250" stroke="#ddd" stroke-width="1" opacity="1"/><line transform="translate(50,-250)" x2="0" y2="250" stroke="#ddd" stroke-width="1" opacity="1"/><line transform="translate(100,-250)" x2="0" y2="250" stroke="#ddd" stroke-width="1" opacity="1"/><line transform="translate(150,-250)" x2="0" y2="250" stroke="#ddd" stroke-width="1" opacity="1"/><line transform="translate(200,-250)" x2="0" y2="250" stroke="#ddd" stroke-width="1" opacity="1"/><line transform="translate(250,-250)" x2="0" y2="250" stroke="#ddd" stroke-width="1" opacity="1"/><line transform="translate(300,-250)" x2="0" y2="250" stroke="#ddd" stroke-width="1" opacity="1"/><line transform="translate(350,-250)" x2="0" y2="250" stroke="#ddd" stroke-width="1" opacity="1"/><line transform="translate(400,-250)" x2="0" y2="250" stroke="#ddd" stroke-width="1" opacity="1"/><line transform="translate(450,-250)" x2="0" y2="250" stroke="#ddd" stroke-width="1" opacity="1"/><line transform="translate(500,-250)" x2="0" y2="250" stroke="#ddd" stroke-width="1" opacity="1"/></g></g><path class="foreground" aria-hidden="true" d="" pointer-events="none" display="none"/></g></g><g class="mark-group role-axis" aria-hidden="true"><g transform="translate(0.5,0.5)"><path class="background" aria-hidden="true" d="M0,0h0v0h0Z" pointer-events="none"/><g><g class="mark-rule role-axis-grid" pointer-events="none"><line transform="translate(0,250)" x2="500" y2="0" stroke="#ddd" stroke-width="1" opacity="1"/><line transform="translate(0,205)" x2="500" y2="0" stroke="#ddd" stroke-width="1" opacity="1"/><line transform="translate(0,159)" x2="500" y2="0" stroke="#ddd" stroke-width="1" opacity="1"/><line transform="translate(0,114)" x2="500" y2="0" stroke="#ddd" stroke-width="1" opacity="1"/><line transform="translate(0,68)" x2="500" y2="0" stroke="#ddd" stroke-width="1" opacity="1"/><line transform="translate(0,23)" x2="500" y2="0" stroke="#ddd" stroke-width="1" opacity="1"/></g></g><path class="foreground" aria-hidden="true" d="" pointer-events="none" display="none"/></g></g><g class="mark-group role-axis" role="graphics-symbol" aria-roledescription="axis" aria-label="X-axis titled 'm/z (Da)' for a linear scale with values from 100 to 600"><g transform="translate(0.5,250.5)"><path class="background" aria-hidden="true" d="M0,0h0v0h0Z" pointer-events="none"/><g><g class="mark-rule role-axis-tick" pointer-events="none"><line transform="translate(0,0)" x2="0" y2="5" stroke="#888" stroke-width="1" opacity="1"/><line transform="translate(50,0)" x2="0" y2="5" stroke="#888" stroke-width="1" opacity="1"/><line transform="translate(100,0)" x2="0" y2="5" stroke="#888" stroke-width="1" opacity="1"/><line transform="translate(150,0)" x2="0" y2="5" stroke="#888" stroke-width="1" opacity="1"/><line transform="translate(200,0)" x2="0" y2="5" stroke="#888" stroke-width="1" opacity="1"/><line transform="translate(250,0)" x2="0" y2="5" stroke="#888" stroke-width="1" opacity="1"/><line transform="translate(300,0)" x2="0" y2="5" stroke="#888" stroke-width="1" opacity="1"/><line transform="translate(350,0)" x2="0" y2="5" stroke="#888" stroke-width="1" opacity="1"/><line transform="translate(400,0)" x2="0" y2="5" stroke="#888" stroke-width="1" opacity="1"/><line transform="translate(450,0)" x2="0" y2="5" stroke="#888" stroke-width="1" opacity="1"/><line transform="translate(500,0)" x2="0" y2="5" stroke="#888" stroke-width="1" opacity="1"/></g><g class="mark-text role-axis-label" pointer-events="none"><text text-anchor="start" transform="translate(0,15)" font-family="sans-serif" font-size="10px" fill="#000" opacity="1">100</text><text text-anchor="middle" transform="translate(50,15)" font-family="sans-serif" font-size="10px" fill="#000" opacity="1">150</text><text text-anchor="middle" transform="translate(100,15)" font-family="sans-serif" font-size="10px" fill="#000" opacity="1">200</text><text text-anchor="middle" transform="translate(150,15)" font-family="sans-serif" font-size="10px" fill="#000" opacity="1">250</text><text text-anchor="middle" transform="translate(200,15)" font-family="sans-serif" font-size="10px" fill="#000" opacity="1">300</text><text text-anchor="middle" transform="translate(250,15)" font-family="sans-serif" font-size="10px" fill="#000" opacity="1">350</text><text text-anchor="middle" transform="translate(300,15)" font-family="sans-serif" font-size="10px" fill="#000" opacity="1">400</text><text text-anchor="middle" transform="translate(350,15)" font-family="sans-serif" font-size="10px" fill="#000" opacity="1">450</text><text text-anchor="middle" transform="translate(400,15)" font-family="sans-serif" font-size="10px" fill="#000" opacity="1">500</text><text text-anchor="middle" transform="translate(450,15)" font-family="sans-serif" font-size="10px" fill="#000" opacity="1">550</text><text text-anchor="end" transform="translate(500,15)" font-family="sans-serif" font-size="10px" fill="#000" opacity="1">600</text></g><g class="mark-rule role-axis-domain" pointer-events="none"><line transform="translate(0,0)" x2="500" y2="0" stroke="#888" stroke-width="1" opacity="1"/></g><g class="mark-text role-axis-title" pointer-events="none"><text text-anchor="middle" transform="translate(250,30)" font-family="sans-serif" font-size="11px" font-weight="bold" fill="#000" opacity="1">m/z (Da)</text></g></g><path class="foreground" aria-hidden="true" d="" pointer-events="none" display="none"/></g></g><g class="mark-group role-axis" role="graphics-symbol" aria-roledescription="axis" aria-label="Y-axis titled 'Intensity' for a linear scale with values from 0.0 to 1.1"><g transform="translate(0.5,0.5)"><path class="background" aria-hidden="true" d="M0,0h0v0h0Z" pointer-events="none"/><g><g class="mark-rule role-axis-tick" pointer-events="none"><line transform="translate(0,250)" x2="-5" y2="0" stroke="#888" stroke-width="1" opacity="1"/><line transform="translate(0,205)" x2="-5" y2="0" stroke="#888" stroke-width="1" opacity="1"/><line transform="translate(0,159)" x2="-5" y2="0" stroke="#888" stroke-width="1" opacity="1"/><line transform="translate(0,114)" x2="-5" y2="0" stroke="#888" stroke-width="1" opacity="1"/><line transform="translate(0,68)" x2="-5" y2="0" stroke="#888" stroke-width="1" opacity="1"/><line transform="translate(0,23)" x2="-5" y2="0" stroke="#888" stroke-width="1" opacity="1"/></g><g class="mark-text role-axis-label" pointer-events="none"><text text-anchor="end" transform="translate(-7,253)" font-family="sans-serif" font-size="10px" fill="#000" opacity="1">0.0</text><text text-anchor="end" transform="translate(-7,207.54545454545453)" font-family="sans-serif" font-size="10px" fill="#000" opacity="1">0.2</text><text text-anchor="end" transform="translate(-7,162.0909090909091)" font-family="sans-serif" font-size="10px" fill="#000" opacity="1">0.4</text><text text-anchor="end" transform="translate(-7,116.63636363636364)" font-family="sans-serif" font-size="10px" fill="#000" opacity="1">0.6</text><text text-anchor="end" transform="translate(-7,71.18181818181817)" font-family="sans-serif" font-size="10px" fill="#000" opacity="1">0.8</text><text text-anchor="end" transform="translate(-7,25.727272727272734)" font-family="sans-serif" font-size="10px" fill="#000" opacity="1">1.0</text></g><g class="mark-rule role-axis-domain" pointer-events="none"><line transform="translate(0,250)" x2="0" y2="-250" stroke="#888" stroke-width="1" opacity="1"/></g><g class="mark-text role-axis-title" pointer-events="none"><text text-anchor="middle" transform="translate(-24.9013671875,125) rotate(-90) translate(0,-2)" font-family="sans-serif" font-size="11px" font-weight="bold" fill="#000" opacity="1">Intensity</text></g></g><path class="foreground" aria-hidden="true" d="" pointer-events="none" display="none"/></g></g><g class="mark-line role-mark layer_0_marks" role="graphics-object" aria-roledescription="line mark container"><path aria-label="m/z (Da): 100; Intensity: 0.0152358539877" role="graphics-symbol" aria-roledescription="line mark" d="M0,246.537L1.002,250L2.004,241.472L3.006,239.312L4.008,250L5.01,250L6.012,248.547L7.014,250L8.016,250L9.018,250L10.02,240.007L11.022,241.161L12.024,249.25L13.026,237.19L14.028,244.687L15.03,250L16.032,245.81L17.034,250L18.036,240.018L19.038,250L20.04,250L21.042,250L22.044,236.107L23.046,250L24.048,250L25.05,250L26.052,243.951L27.054,245.847L28.056,245.31L29.058,245.104L30.06,225.663L31.062,250L32.064,250L33.066,250L34.068,243L35.07,237.171L36.072,250L37.074,250L38.076,250L39.078,242.607L40.08,241.553L41.082,243.817L42.084,250L43.086,246.784L44.088,245.795L45.09,236.349L46.092,206.405L47.094,168.361L48.096,97.812L49.098,43.927L50.1,19.727L51.102,47.574L52.104,135.887L53.106,185.594L54.108,227.782L55.11,248.573L56.112,250L57.114,232.606L58.116,250L59.118,238.99L60.12,250L61.122,250L62.124,248.151L63.126,243.338L64.128,241.918L65.13,240.985L66.132,250L67.134,250L68.136,240.25L69.138,250L70.14,250L71.142,250L72.144,250L73.146,244.35L74.148,248.382L75.15,242.154L76.152,250L77.154,248.198L78.156,242.891L79.158,250L80.16,244.809L81.162,250L82.164,250L83.166,250L84.168,250L85.17,244.466L86.172,250L87.174,249.858L88.176,244.537L89.178,244.926L90.18,242.439L91.182,250L92.184,250L93.186,250L94.188,250L95.19,250L96.192,250L97.194,250L98.196,245.457L99.198,250L100.2,250L101.202,235.236L102.204,250L103.206,241.619L104.208,250L105.21,250L106.212,250L107.214,250L108.216,240.451L109.218,250L110.22,245.063L111.222,247.298L112.224,250L113.226,250L114.228,249.18L115.23,250L116.232,247.356L117.234,249.752L118.236,231.798L119.238,250L120.24,250L121.242,247.963L122.244,247.5L123.246,234.555L124.248,240.51L125.251,245.945L126.253,233.372L127.255,250L128.257,250L129.259,250L130.261,250L131.263,250L132.265,242.782L133.267,250L134.269,250L135.271,250L136.273,246.437L137.275,240.476L138.277,227.31L139.279,216.888L140.281,245.291L141.283,250L142.285,250L143.287,246.958L144.289,250L145.291,250L146.293,250L147.295,250L148.297,237.887L149.299,248.215L150.301,250L151.303,250L152.305,250L153.307,250L154.309,250L155.311,229.91L156.313,248.52L157.315,238.833L158.317,250L159.319,250L160.321,250L161.323,250L162.325,225.813L163.327,250L164.329,240.472L165.331,250L166.333,239.414L167.335,245.626L168.337,250L169.339,250L170.341,250L171.343,244.931L172.345,250L173.347,250L174.349,250L175.351,246.827L176.353,224.371L177.355,216.984L178.357,170.281L179.359,111.927L180.361,91.642L181.363,149.729L182.365,212.033L183.367,225.529L184.369,243.002L185.371,232.305L186.373,247.9L187.375,250L188.377,250L189.379,231.239L190.381,230.413L191.383,250L192.385,250L193.387,233.393L194.389,250L195.391,250L196.393,242.689L197.395,250L198.397,250L199.399,250L200.401,246.164L201.403,234.006L202.405,248.971L203.407,242.683L204.409,250L205.411,250L206.413,250L207.415,250L208.417,250L209.419,250L210.421,239.592L211.423,250L212.425,249.652L213.427,250L214.429,250L215.431,238.605L216.433,243.885L217.435,234.802L218.437,250L219.439,250L220.441,250L221.443,247.244L222.445,247.993L223.447,250L224.449,248.972L225.451,247.406L226.453,221.392L227.455,228.672L228.457,250L229.459,250L230.461,250L231.463,250L232.465,246.414L233.467,236.297L234.469,250L235.471,250L236.473,250L237.475,250L238.477,250L239.479,250L240.481,250L241.483,250L242.485,250L243.487,250L244.489,225.804L245.491,250L246.493,250L247.495,229.126L248.497,216.988L249.499,250L250.501,250L251.503,246.119L252.505,230.356L253.507,250L254.509,250L255.511,241.167L256.513,245.059L257.515,250L258.517,250L259.519,250L260.521,250L261.523,250L262.525,247.362L263.527,250L264.529,244.642L265.531,238.492L266.533,248.234L267.535,246.003L268.537,249.396L269.539,249.999L270.541,250L271.543,246.403L272.545,250L273.547,226.214L274.549,232.121L275.551,245.615L276.553,250L277.555,250L278.557,236.459L279.559,246.983L280.561,244.389L281.563,250L282.565,237.141L283.567,237.786L284.569,244.37L285.571,215.135L286.573,171.501L287.575,128.712L288.577,89.024L289.579,60.712L290.581,64.831L291.583,90.184L292.585,120.098L293.587,210.16L294.589,216.861L295.591,232.151L296.593,240.671L297.595,250L298.597,250L299.599,246.151L300.601,230.347L301.603,250L302.605,240.183L303.607,250L304.609,250L305.611,250L306.613,250L307.615,235.227L308.617,243.379L309.619,230.315L310.621,236.62L311.623,245.01L312.625,230.183L313.627,245.011L314.629,240.591L315.631,250L316.633,249.244L317.635,250L318.637,238.755L319.639,250L320.641,241.11L321.643,250L322.645,236.69L323.647,241.467L324.649,229.311L325.651,241.696L326.653,250L327.655,250L328.657,250L329.659,250L330.661,232.827L331.663,242.755L332.665,250L333.667,250L334.669,249.627L335.671,250L336.673,250L337.675,246.454L338.677,236.871L339.679,243.082L340.681,250L341.683,246.541L342.685,249.181L343.687,245.297L344.689,231.634L345.691,250L346.693,250L347.695,243.285L348.697,250L349.699,233.228L350.701,245.814L351.703,240.38L352.705,250L353.707,240.753L354.709,237.858L355.711,247.354L356.713,247.336L357.715,246.928L358.717,250L359.719,250L360.721,250L361.723,245.643L362.725,238.638L363.727,250L364.729,250L365.731,233.165L366.733,250L367.735,250L368.737,247.701L369.739,240.405L370.741,249.87L371.743,234.898L372.745,240.264L373.747,240.434L374.749,243.703L375.752,223.549L376.754,250L377.756,250L378.758,231.77L379.76,250L380.762,248.774L381.764,235.119L382.766,250L383.768,250L384.77,250L385.772,250L386.774,245.004L387.776,244.043L388.778,246.861L389.78,250L390.782,250L391.784,249.382L392.786,250L393.788,244.78L394.79,242.023L395.792,248.429L396.794,241.362L397.796,247.395L398.798,243.977L399.8,250L400.802,250L401.804,247.741L402.806,240.517L403.808,250L404.81,240.552L405.812,241.607L406.814,222.589L407.816,184.245L408.818,186.773L409.82,162.875L410.822,172.847L411.824,209.032L412.826,220.01L413.828,225.1L414.83,247.698L415.832,246.295L416.834,237.324L417.836,234.865L418.838,250L419.84,234.618L420.842,248.953L421.844,250L422.846,250L423.848,250L424.85,250L425.852,250L426.854,240.868L427.856,230.446L428.858,250L429.86,245.536L430.862,250L431.864,244.606L432.866,250L433.868,250L434.87,239.451L435.872,250L436.874,250L437.876,250L438.878,250L439.88,245.138L440.882,250L441.884,246.265L442.886,245.887L443.888,234.992L444.89,250L445.892,250L446.894,237.872L447.896,250L448.898,237.334L449.9,245.643L450.902,250L451.904,246.037L452.906,227.829L453.908,226.398L454.91,249.212L455.912,248.18L456.914,237.77L457.916,250L458.918,246.215L459.92,250L460.922,246.433L461.924,250L462.926,250L463.928,250L464.93,250L465.932,250L466.934,250L467.936,227.986L468.938,237.432L469.94,250L470.942,246.049L471.944,250L472.946,250L473.948,247.894L474.95,242.964L475.952,250L476.954,237.911L477.956,250L478.958,249.928L479.96,220.481L480.962,247.465L481.964,233.713L482.966,248.96L483.968,243.4L484.97,250L485.972,250L486.974,250L487.976,245.11L488.978,250L489.98,242.437L490.982,237.667L491.984,245.835L492.986,250L493.988,244.841L494.99,250L495.992,239.369L496.994,250L497.996,250L498.998,250L500,250" stroke="lightgrey" stroke-width="2" opacity="0.7"/></g><g class="mark-line role-mark layer_1_marks" role="graphics-object" aria-roledescription="line mark container"><path aria-label="m/z (Da): 100; smoothed: 0.0105516827556" role="graphics-symbol" aria-roledescription="line mark" d="M0,247.602L1.002,245.464L2.004,245.464L3.006,246.157L4.008,245.866L5.01,247.572L6.012,249.709L7.014,249.709L8.016,247.711L9.018,246.234L10.02,246.084L11.022,243.522L12.024,242.459L13.026,244.458L14.028,245.387L15.03,245.537L16.032,246.103L17.034,247.165L18.036,247.165L19.038,248.004L20.04,245.225L21.042,247.221L22.044,247.221L23.046,247.221L24.048,246.012L25.05,247.96L26.052,247.022L27.054,246.042L28.056,241.175L29.058,242.385L30.06,243.215L31.062,244.153L32.064,243.733L33.066,246.034L34.068,246.034L35.07,246.034L36.072,246.034L37.074,245.956L38.076,246.832L39.078,245.595L40.08,245.595L41.082,244.952L42.084,245.59L43.086,244.549L44.088,237.067L45.09,220.739L46.092,190.945L47.094,150.571L48.096,107.247L49.098,75.48L50.1,68.985L51.102,86.542L52.104,123.313L53.106,169.082L54.108,209.567L55.11,228.911L56.112,241.792L57.114,244.034L58.116,244.319L59.118,244.319L60.12,247.428L61.122,246.096L62.124,246.681L63.126,244.878L64.128,244.878L65.13,245.248L66.132,244.631L67.134,246.247L68.136,248.05L69.138,248.05L70.14,248.05L71.142,248.87L72.144,248.546L73.146,246.977L74.148,246.977L75.15,246.617L76.152,246.325L77.154,246.649L78.156,247.18L79.158,247.18L80.16,247.54L81.162,248.962L82.164,248.962L83.166,248.893L84.168,248.893L85.17,248.865L86.172,247.772L87.174,246.757L88.176,246.352L89.178,246.352L90.18,246.38L91.182,247.473L92.184,248.488L93.186,250L94.188,250L95.19,250L96.192,249.091L97.194,249.091L98.196,249.091L99.198,246.139L100.2,246.139L101.202,245.371L102.204,245.371L103.206,245.371L104.208,248.324L105.21,248.324L106.212,248.09L107.214,248.09L108.216,247.103L109.218,246.563L110.22,246.563L111.222,248.472L112.224,248.308L113.226,249.296L114.228,249.307L115.23,249.258L116.232,245.617L117.234,245.781L118.236,245.781L119.238,245.902L120.24,245.452L121.242,246.004L122.244,244.106L123.246,243.294L124.248,240.376L125.251,240.876L126.253,243.965L127.255,245.863L128.257,246.674L129.259,250L130.261,248.556L131.263,248.556L132.265,248.556L133.267,248.556L134.269,247.844L135.271,247.383L136.273,242.845L137.275,236.222L138.277,235.28L139.279,235.993L140.281,237.898L141.283,241.827L142.285,248.45L143.287,249.392L144.289,249.392L145.291,249.392L146.293,247.577L147.295,247.22L148.297,247.22L149.299,247.22L150.301,247.22L151.303,249.643L152.305,250L153.307,245.982L154.309,245.686L155.311,243.452L156.313,243.452L157.315,243.452L158.317,247.47L159.319,247.767L160.321,245.163L161.323,245.163L162.325,243.257L163.327,243.257L164.329,241.14L165.331,245.102L166.333,245.102L167.335,247.008L168.337,247.008L169.339,248.111L170.341,248.986L171.343,248.986L172.345,248.986L173.347,248.352L174.349,244.24L175.351,237.637L176.353,221.693L177.355,194.078L178.357,163.041L179.359,148.113L180.361,147.122L181.363,158.172L182.365,184.387L183.367,212.52L184.369,232.154L185.371,239.747L186.373,244.641L187.375,242.289L188.377,241.91L189.379,242.33L190.381,242.33L191.383,239.009L192.385,242.761L193.387,246.679L194.389,245.216L195.391,245.216L196.393,248.538L197.395,248.538L198.397,247.771L199.399,246.034L200.401,245.828L201.403,244.365L202.405,244.365L203.407,245.132L204.409,248.331L205.411,248.537L206.413,250L207.415,250L208.417,247.918L209.419,247.918L210.421,247.849L211.423,247.849L212.425,247.849L213.427,247.651L214.429,246.428L215.431,243.458L216.433,243.458L217.435,243.458L218.437,245.737L219.439,246.409L220.441,249.048L221.443,249.048L222.445,248.842L223.447,248.323L224.449,243.153L225.451,239.289L226.453,239.289L227.455,239.494L228.457,240.013L229.459,245.734L230.461,249.283L231.463,246.542L232.465,246.542L233.467,246.542L234.469,246.542L235.471,247.259L236.473,250L237.475,250L238.477,250L239.479,250L240.481,250L241.483,250L242.485,245.161L243.487,245.161L244.489,245.161L245.491,240.986L246.493,234.384L247.495,239.223L248.497,239.223L249.499,238.447L250.501,238.692L251.503,245.295L252.505,245.295L253.507,243.528L254.509,243.316L255.511,247.245L256.513,247.245L257.515,247.245L258.517,249.012L259.519,250L260.521,249.472L261.523,249.472L262.525,248.401L263.527,246.099L264.529,245.746L265.531,245.474L266.533,245.353L267.535,246.425L268.537,248.726L269.539,248.36L270.541,249.16L271.543,244.523L272.545,240.948L273.547,240.071L274.549,240.79L275.551,240.79L276.553,242.839L277.555,245.811L278.557,245.566L279.559,245.566L280.561,242.994L281.563,243.26L282.565,242.737L283.567,236.886L284.569,221.186L285.571,199.501L286.573,169.748L287.575,133.017L288.577,102.956L289.579,86.693L290.581,84.97L291.583,109.197L292.585,140.427L293.587,173.891L294.589,203.988L295.591,229.969L296.593,237.937L297.595,243.795L298.597,243.434L299.599,245.3L300.601,243.336L301.603,243.336L302.605,244.106L303.607,248.037L304.609,248.037L305.611,247.045L306.613,245.721L307.615,241.784L308.617,239.108L309.619,238.11L310.621,237.101L311.623,237.428L312.625,239.483L313.627,242.159L314.629,243.006L315.631,246.969L316.633,245.718L317.635,247.6L318.637,245.822L319.639,245.973L320.641,243.311L321.643,243.853L322.645,239.716L323.647,239.833L324.649,239.833L325.651,242.495L326.653,244.201L327.655,248.339L328.657,246.565L329.659,245.116L330.661,245.116L331.663,245.116L332.665,245.042L333.667,248.477L334.669,249.925L335.671,249.216L336.673,246.591L337.675,245.282L338.677,245.282L339.679,244.59L340.681,245.135L341.683,246.82L342.685,244.531L343.687,244.531L344.689,245.222L345.691,244.043L346.693,244.984L347.695,245.303L348.697,244.465L349.699,242.541L350.701,243.884L351.703,242.035L352.705,242.961L353.707,243.269L354.709,244.66L355.711,244.046L356.713,245.895L357.715,248.324L358.717,248.853L359.719,248.514L360.721,246.856L361.723,246.856L362.725,246.856L363.727,243.489L364.729,244.361L365.731,246.633L366.733,246.173L367.735,244.254L368.737,247.595L369.739,244.575L370.741,242.628L371.743,241.174L372.745,241.834L373.747,236.57L374.749,239.59L375.752,241.537L376.754,239.804L377.756,241.064L378.758,246.109L379.76,243.133L380.762,243.133L381.764,246.779L382.766,246.779L383.768,247.024L384.77,249.001L385.772,247.809L386.774,247.182L387.776,247.182L388.778,247.182L389.78,248.057L390.782,249.249L391.784,248.832L392.786,247.237L393.788,246.923L394.79,245.319L395.792,244.798L396.794,244.637L397.796,246.233L398.798,246.547L399.8,247.823L400.802,246.447L401.804,247.652L402.806,245.762L403.808,244.083L404.81,239.053L405.812,227.798L406.814,215.153L407.816,199.618L408.818,185.866L409.82,183.154L410.822,190.307L411.824,197.973L412.826,214.937L413.828,229.627L414.83,235.285L415.832,238.256L416.834,243.236L417.836,240.62L418.838,241.152L419.84,243.687L420.842,246.714L421.844,246.714L422.846,249.791L423.848,250L424.85,248.174L425.852,244.263L426.854,244.263L427.856,243.37L428.858,243.37L429.86,244.118L430.862,248.028L431.864,248.028L432.866,246.811L433.868,246.811L434.87,247.89L435.872,247.89L436.874,247.89L437.876,249.028L438.878,249.028L439.88,248.281L440.882,247.458L441.884,244.457L442.886,245.429L443.888,245.429L444.89,243.75L445.892,244.573L446.894,245.041L447.896,244.17L448.898,244.17L449.9,245.803L450.902,241.369L451.904,239.181L452.906,239.895L453.908,239.531L454.91,237.878L455.912,242.312L456.914,246.275L457.916,246.433L458.918,246.084L459.92,248.53L460.922,248.53L461.924,249.287L462.926,249.287L463.928,250L464.93,250L465.932,245.597L466.934,243.084L467.936,243.084L468.938,242.293L469.94,242.293L470.942,246.696L471.944,248.789L472.946,247.381L473.948,248.172L474.95,245.754L475.952,245.754L476.954,246.161L477.956,241.664L478.958,241.157L479.96,240.317L480.962,240.109L481.964,238.804L482.966,244.708L483.968,245.215L484.97,248.472L485.972,247.702L486.974,249.022L487.976,247.509L488.978,245.043L489.98,244.21L490.982,245.188L491.984,244.156L492.986,245.669L493.988,246.009L494.99,246.842L495.992,246.842L496.994,247.874L497.996,247.874L498.998,250L500,250" stroke="steelblue" stroke-width="2"/></g><g class="mark-rule role-mark layer_2_marks" role="graphics-object" aria-roledescription="rule mark container"><line aria-label="mz: 150.100200401" role="graphics-symbol" aria-roledescription="rule mark" transform="translate(50.10020040080161,0)" x2="0" y2="250" stroke="firebrick" stroke-width="1.5" opacity="0.8"/><line aria-label="mz: 280.360721443" role="graphics-symbol" aria-roledescription="rule mark" transform="translate(180.36072144288573,0)" x2="0" y2="250" stroke="firebrick" stroke-width="1.5" opacity="0.8"/><line aria-label="mz: 390.581162325" role="graphics-symbol" aria-roledescription="rule mark" transform="translate(290.58116232464926,0)" x2="0" y2="250" stroke="firebrick" stroke-width="1.5" opacity="0.8"/><line aria-label="mz: 509.819639279" role="graphics-symbol" aria-roledescription="rule mark" transform="translate(409.8196392785571,0)" x2="0" y2="250" stroke="firebrick" stroke-width="1.5" opacity="0.8"/></g></g><path class="foreground" aria-hidden="true" d="" display="none"/></g></g></g></svg>