<svg xmlns="http://www.w3.org/2000/svg" xmlns:xlink="http://www.w3.org/1999/xlink" version="1.1" class="marks" width="529" height="327" viewBox="0 0 529 327"><rect width="529" height="327" fill="white"/><g fill="none" stroke-miterlimit="10" transform="translate(44,10)"><g class="mark-group role-frame root" role="graphics-object" aria-roledescription="group mark container"><g transform="translate(0,0)"><path class="background" aria-hidden="true" d="M0.5,0.5h480v280h-480Z" stroke="#ddd"/><g><g class="mark-group role-axis" aria-hidden="true"><g transform="translate(0.5,280.5)"><path class="background" aria-hidden="true" d="M0,0h0v0h0Z" pointer-events="none"/><g><g class="mark-rule role-axis-grid" pointer-events="none"><line transform="translate(0,-280)" x2="0" y2="280" stroke="#ddd" stroke-width="1" opacity="1"/><line transform="translate(27,-280)" x2="0" y2="280" stroke="#ddd" stroke-width="1" opacity="1"/><line transform="translate(55,-280)" x2="0" y2="280" stroke="#ddd" stroke-width="1" opacity="1"/><line transform="translate(82,-280)" x2="0" y2="280" stroke="#ddd" stroke-width="1" opacity="1"/><line transform="translate(110,-280)" x2="0" y2="280" stroke="#ddd" stroke-width="1" opacity="1"/><line transform="translate(137,-280)" x2="0" y2="280" stroke="#ddd" stroke-width="1" opacity="1"/><line transform="translate(165,-280)" x2="0" y2="280" stroke="#ddd" stroke-width="1" opacity="1"/><line transform="translate(192,-280)" x2="0" y2="280" stroke="#ddd" stroke-width="1" opacity="1"/><line transform="translate(219,-280)" x2="0" y2="280" stroke="#ddd" stroke-width="1" opacity="1"/><line transform="translate(247,-280)" x2="0" y2="280" stroke="#ddd" stroke-width="1" opacity="1"/><line transform="translate(274,-280)" x2="0" y2="280" stroke="#ddd" stroke-width="1" opacity="1"/><line transform="translate(302,-280)" x2="0" y2="280" stroke="#ddd" stroke-width="1" opacity="1"/><line transform="translate(329,-280)" x2="0" y2="280" stroke="#ddd" stroke-width="1" opacity="1"/><line transform="translate(357,-280)" x2="0" y2="280" stroke="#ddd" stroke-width="1" opacity="1"/><line transform="translate(384,-280)" x2="0" y2="280" stroke="#ddd" stroke-width="1" opacity="1"/><line transform="translate(411,-280)" x2="0" y2="280" stroke="#ddd" stroke-width="1" opacity="1"/><line transform="translate(439,-280)" x2="0" y2="280" stroke="#ddd" stroke-width="1" opacity="1"/><line transform="translate(466,-280)" x2="0" y2="280" stroke="#ddd" stroke-width="1" opacity="1"/></g></g><path class="foreground" aria-hidden="true" d="" pointer-events="none" display="none"/></g></g><g class="mark-group role-axis" aria-hidden="true"><g transform="translate(0.5,0.5)"><path class="background" aria-hidden="true" d="M0,0h0v0h0Z" pointer-events="none"/><g><g class="mark-rule role-axis-grid" pointer-events="none"><line transform="translate(0,280)" x2="480" y2="0" stroke="#ddd" stroke-width="1" opacity="1"/><line transform="translate(0,233)" x2="480" y2="0" stroke="#ddd" stroke-width="1" opacity="1"/><line transform="translate(0,187)" x2="480" y2="0" stroke="#ddd" stroke-width="1" opacity="1"/><line transform="translate(0,140)" x2="480" y2="0" stroke="#ddd" stroke-width="1" opacity="1"/><line transform="translate(0,93)" x2="480" y2="0" stroke="#ddd" stroke-width="1" opacity="1"/><line transform="translate(0,47)" x2="480" y2="0" stroke="#ddd" stroke-width="1" opacity="1"/><line transform="translate(0,0)" x2="480" y2="0" stroke="#ddd" stroke-width="1" opacity="1"/></g></g><path class="foreground" aria-hidden="true" d="" pointer-events="none" display="none"/></g></g><g class="mark-group role-axis" role="graphics-symbol" aria-roledescription="axis" aria-label="X-axis titled 'Position (m)' for a linear scale with values from 0.00 to 0.35"><g transform="translate(0.5,280.5)"><path class="background" aria-hidden="true" d="M0,0h0v0h0Z" pointer-events="none"/><g><g class="mark-rule role-axis-tick" pointer-events="none"><line transform="translate(0,0)" x2="0" y2="5" stroke="#888" stroke-width="1" opacity="1"/><line transform="translate(27,0)" x2="0" y2="5" stroke="#888" stroke-width="1" opacity="1"/><line transform="translate(55,0)" x2="0" y2="5" stroke="#888" stroke-width="1" opacity="1"/><line transform="translate(82,0)" x2="0" y2="5" stroke="#888" stroke-width="1" opacity="1"/><line transform="translate(110,0)" x2="0" y2="5" stroke="#888" stroke-width="1" opacity="1"/><line transform="translate(137,0)" x2="0" y2="5" stroke="#888" stroke-width="1" opacity="1"/><line transform="translate(165,0)" x2="0" y2="5" stroke="#888" stroke-width="1" opacity="1"/><line transform="translate(192,0)" x2="0" y2="5" stroke="#888" stroke-width="1" opacity="1"/><line transform="translate(219,0)" x2="0" y2="5" stroke="#888" stroke-width="1" opacity="1"/><line transform="translate(247,0)" x2="0" y2="5" stroke="#888" stroke-width="1" opacity="1"/><line transform="translate(274,0)" x2="0" y2="5" stroke="#888" stroke-width="1" opacity="1"/><line transform="translate(302,0)" x2="0" y2="5" stroke="#888" stroke-width="1" opacity="1"/><line transform="translate(329,0)" x2="0" y2="5" stroke="#888" stroke-width="1" opacity="1"/><line transform="translate(357,0)" x2="0" y2="5" stroke="#888" stroke-width="1" opacity="1"/><line transform="translate(384,0)" x2="0" y2="5" stroke="#888" stroke-width="1" opacity="1"/><line transform="translate(411,0)" x2="0" y2="5" stroke="#888" stroke-width="1" opacity="1"/><line transform="translate(439,0)" x2="0" y2="5" stroke="#888" stroke-width="1" opacity="1"/><line transform="translate(466,0)" x2="0" y2="5" stroke="#888" stroke-width="1" opacity="1"/></g><g class="mark-text role-axis-label" pointer-events="none"><text text-anchor="start" transform="translate(0,15)" font-family="sans-serif" font-size="10px" fill="#000" opacity="1">0.00</text><text text-anchor="middle" transform="translate(27.42857142857143,15)" font-family="sans-serif" font-size="10px" fill="#000" opacity="0">0.02</text><text text-anchor="middle" transform="translate(54.85714285714286,15)" font-family="sans-serif" font-size="10px" fill="#000" opacity="1">0.04</text><text text-anchor="middle" transform="translate(82.28571428571429,15)" font-family="sans-serif" font-size="10px" fill="#000" opacity="0">0.06</text><text text-anchor="middle" transform="translate(109.71428571428572,15)" font-family="sans-serif" font-size="10px" fill="#000" opacity="1">0.08</text><text text-anchor="middle" transform="translate(137.14285714285717,15)" font-family="sans-serif" font-size="10px" fill="#000" opacity="0">0.10</text><text text-anchor="middle" transform="translate(164.57142857142858,15)" font-family="sans-serif" font-size="10px" fill="#000" opacity="1">0.12</text><text text-anchor="middle" transform="translate(192.00000000000003,15)" font-family="sans-serif" font-size="10px" fill="#000" opacity="0">0.14</text><text text-anchor="middle" transform="translate(219.42857142857144,15)" font-family="sans-serif" font-size="10px" fill="#000" opacity="1">0.16</text><text text-anchor="middle" transform="translate(246.8571428571429,15)" font-family="sans-serif" font-size="10px" fill="#000" opacity="0">0.18</text><text text-anchor="middle" transform="translate(274.28571428571433,15)" font-family="sans-serif" font-size="10px" fill="#000" opacity="1">0.20</text><text text-anchor="middle" transform="translate(301.7142857142858,15)" font-family="sans-serif" font-size="10px" fill="#000" opacity="0">0.22</text><text text-anchor="middle" transform="translate(329.14285714285717,15)" font-family="sans-serif" font-size="10px" fill="#000" opacity="1">0.24</text><text text-anchor="middle" transform="translate(356.57142857142856,15)" font-family="sans-serif" font-size="10px" fill="#000" opacity="0">0.26</text><text text-anchor="middle" transform="translate(384.00000000000006,15)" font-family="sans-serif" font-size="10px" fill="#000" opacity="1">0.28</text><text text-anchor="middle" transform="translate(411.42857142857144,15)" font-family="sans-serif" font-size="10px" fill="#000" opacity="0">0.30</text><text text-anchor="middle" transform="translate(438.8571428571429,15)" font-family="sans-serif" font-size="10px" fill="#000" opacity="1">0.32</text><text text-anchor="middle" transform="translate(466.28571428571433,15)" font-family="sans-serif" font-size="10px" fill="#000" opacity="0">0.34</text></g><g class="mark-rule role-axis-domain" pointer-events="none"><line transform="translate(0,0)" x2="480" y2="0" stroke="#888" stroke-width="1" opacity="1"/></g><g class="mark-text role-axis-title" pointer-events="none"><text text-anchor="middle" transform="translate(240,30)" font-family="sans-serif" font-size="11px" font-weight="bold" fill="#000" opacity="1">Position (m)</text></g></g><path class="foreground" aria-hidden="true" d="" pointer-events="none" display="none"/></g></g><g class="mark-group role-axis" role="graphics-symbol" aria-roledescription="axis" aria-label="Y-axis titled 'Temperature (°C)' for a linear scale with values from −10 to 20"><g transform="translate(0.5,0.5)"><path class="background" aria-hidden="true" d="M0,0h0v0h0Z" pointer-events="none"/><g><g class="mark-rule role-axis-tick" pointer-events="none"><line transform="translate(0,280)" x2="-5" y2="0" stroke="#888" stroke-width="1" opacity="1"/><line transform="translate(0,233)" x2="-5" y2="0" stroke="#888" stroke-width="1" opacity="1"/><line transform="translate(0,187)" x2="-5" y2="0" stroke="#888" stroke-width="1" opacity="1"/><line transform="translate(0,140)" x2="-5" y2="0" stroke="#888" stroke-width="1" opacity="1"/><line transform="translate(0,93)" x2="-5" y2="0" stroke="#888" stroke-width="1" opacity="1"/><line transform="translate(0,47)" x2="-5" y2="0" stroke="#888" stroke-width="1" opacity="1"/><line transform="translate(0,0)" x2="-5" y2="0" stroke="#888" stroke-width="1" opacity="1"/></g><g class="mark-text role-axis-label" pointer-events="none"><text text-anchor="end" transform="translate(-7,283)" font-family="sans-serif" font-size="10px" fill="#000" opacity="1">−10</text><text text-anchor="end" transform="translate(-7,236.33333333333334)" font-family="sans-serif" font-size="10px" fill="#000" opacity="1">−5</text><text text-anchor="end" transform="translate(-7,189.66666666666669)" font-family="sans-serif" font-size="10px" fill="#000" opacity="1">0</text><text text-anchor="end" transform="translate(-7,143)" font-family="sans-serif" font-size="10px" fill="#000" opacity="1">5</text><text text-anchor="end" transform="translate(-7,96.33333333333334)" font-family="sans-serif" font-size="10px" fill="#000" opacity="1">10</text><text text-anchor="end" transform="translate(-7,49.66666666666666)" font-family="sans-serif" font-size="10px" fill="#000" opacity="1">15</text><text text-anchor="end" transform="translate(-7,3)" font-family="sans-serif" font-size="10px" fill="#000" opacity="1">20</text></g><g class="mark-rule role-axis-domain" pointer-events="none"><line transform="translate(0,280)" x2="0" y2="-280" stroke="#888" stroke-width="1" opacity="1"/></g><g class="mark-text role-axis-title" pointer-events="none"><text text-anchor="middle" transform="translate(-27.962890625,140) rotate(-90) translate(0,-2)" font-family="sans-serif" font-size="11px" font-weight="bold" fill="#000" opacity="1">Temperature (°C)</text></g></g><path class="foreground" aria-hidden="true" d="" pointer-events="none" display="none"/></g></g><g class="mark-rule role-mark layer_0_marks" role="graphics-object" aria-roledescription="rule mark container"><line aria-label="x: 0" role="graphics-symbol" aria-roledescription="rule mark" transform="translate(0,0)" x2="0" y2="280" stroke="grey" stroke-width="1" stroke-dasharray="4,2"/><line aria-label="x: 0.1" role="graphics-symbol" aria-roledescription="rule mark" transform="translate(137.14285714285717,0)" x2="0" y2="280" stroke="grey" stroke-width="1" stroke-dasharray="4,2"/><line aria-label="x: 0.15" role="graphics-symbol" aria-roledescription="rule mark" transform="translate(205.71428571428575,0)" x2="0" y2="280" stroke="grey" stroke-width="1" stroke-dasharray="4,2"/></g><g class="mark-line role-mark layer_1_marks" role="graphics-object" aria-roledescription="line mark container"><path aria-label="Position (m): 0; Temperature (°C): 20" role="graphics-symbol" aria-roledescription="line mark" d="M0,0L6.857,1.284L13.714,2.569L20.571,3.853L27.429,5.138L34.286,6.422L41.143,7.707L48,8.991L54.857,10.276L61.714,11.56L68.571,12.844L75.429,14.129L82.286,15.413L89.143,16.698L96,17.982L102.857,19.267L109.714,20.551L116.571,21.835L123.429,23.12L130.286,24.404L137.143,25.689L140.571,37.248L144,48.808L147.429,60.367L150.857,71.927L154.286,83.486L157.714,95.046L161.143,106.605L164.571,118.165L168,129.724L171.429,141.284L174.857,152.843L178.286,164.403L181.714,175.962L185.143,187.522L188.571,199.081L192,210.641L195.429,222.201L198.857,233.76L202.286,245.32L205.714,256.879L216,258.035L226.286,259.191L236.571,260.347L246.857,261.503L257.143,262.659L267.429,263.815L277.714,264.971L288,266.127L298.286,267.283L308.571,268.439L318.857,269.595L329.143,270.751L339.429,271.907L349.714,273.064L360,274.22L370.286,275.376L380.571,276.532L390.857,277.688L401.143,278.844L411.429,280" stroke="firebrick" stroke-width="2"/></g></g><path class="foreground" aria-hidden="true" d="" display="none"/></g></g></g></svg>