<svg xmlns="http://www.w3.org/2000/svg" xmlns:xlink="http://www.w3.org/1999/xlink" version="1.1" class="marks" width="610" height="327" viewBox="0 0 610 327"><rect width="610" height="327" fill="white"/><g fill="none" stroke-miterlimit="10" transform="translate(44,10)"><g class="mark-group role-frame root" role="graphics-object" aria-roledescription="group mark container"><g transform="translate(0,0)"><path class="background" aria-hidden="true" d="M0.5,0.5h480v280h-480Z" stroke="#ddd"/><g><g class="mark-group role-axis" aria-hidden="true"><g transform="translate(0.5,280.5)"><path class="background" aria-hidden="true" d="M0,0h0v0h0Z" pointer-events="none"/><g><g class="mark-rule role-axis-grid" pointer-events="none"><line transform="translate(0,-280)" x2="0" y2="280" stroke="#ddd" stroke-width="1" opacity="1"/><line transform="translate(27,-280)" x2="0" y2="280" stroke="#ddd" stroke-width="1" opacity="1"/><line transform="translate(55,-280)" x2="0" y2="280" stroke="#ddd" stroke-width="1" opacity="1"/><line transform="translate(82,-280)" x2="0" y2="280" stroke="#ddd" stroke-width="1" opacity="1"/><line transform="translate(110,-280)" x2="0" y2="280" stroke="#ddd" stroke-width="1" opacity="1"/><line transform="translate(137,-280)" x2="0" y2="280" stroke="#ddd" stroke-width="1" opacity="1"/><line transform="translate(165,-280)" x2="0" y2="280" stroke="#ddd" stroke-width="1" opacity="1"/><line transform="translate(192,-280)" x2="0" y2="280" stroke="#ddd" stroke-width="1" opacity="1"/><line transform="translate(219,-280)" x2="0" y2="280" stroke="#ddd" stroke-width="1" opacity="1"/><line transform="translate(247,-280)" x2="0" y2="280" stroke="#ddd" stroke-width="1" opacity="1"/><line transform="translate(274,-280)" x2="0" y2="280" stroke="#ddd" stroke-width="1" opacity="1"/><line transform="translate(302,-280)" x2="0" y2="280" stroke="#ddd" stroke-width="1" opacity="1"/><line transform="translate(329,-280)" x2="0" y2="280" stroke="#ddd" stroke-width="1" opacity="1"/><line transform="translate(357,-280)" x2="0" y2="280" stroke="#ddd" stroke-width="1" opacity="1"/><line transform="translate(384,-280)" x2="0" y2="280" stroke="#ddd" stroke-width="1" opacity="1"/><line transform="translate(411,-280)" x2="0" y2="280" stroke="#ddd" stroke-width="1" opacity="1"/><line transform="translate(439,-280)" x2="0" y2="280" stroke="#ddd" stroke-width="1" opacity="1"/><line transform="translate(466,-280)" x2="0" y2="280" stroke="#ddd" stroke-width="1" opacity="1"/></g></g><path class="foreground" aria-hidden="true" d="" pointer-events="none" display="none"/></g></g><g class="mark-group role-axis" aria-hidden="true"><g transform="translate(0.5,0.5)"><path class="background" aria-hidden="true" d="M0,0h0v0h0Z" pointer-events="none"/><g><g class="mark-rule role-axis-grid" pointer-events="none"><line transform="translate(0,280)" x2="480" y2="0" stroke="#ddd" stroke-width="1" opacity="1"/><line transform="translate(0,233)" x2="480" y2="0" stroke="#ddd" stroke-width="1" opacity="1"/><line transform="translate(0,187)" x2="480" y2="0" stroke="#ddd" stroke-width="1" opacity="1"/><line transform="translate(0,140)" x2="480" y2="0" stroke="#ddd" stroke-width="1" opacity="1"/><line transform="translate(0,93)" x2="480" y2="0" stroke="#ddd" stroke-width="1" opacity="1"/><line transform="translate(0,47)" x2="480" y2="0" stroke="#ddd" stroke-width="1" opacity="1"/><line transform="translate(0,0)" x2="480" y2="0" stroke="#ddd" stroke-width="1" opacity="1"/></g></g><path class="foreground" aria-hidden="true" d="" pointer-events="none" display="none"/></g></g><g class="mark-group role-axis" role="graphics-symbol" aria-roledescription="axis" aria-label="X-axis titled 'Position (m)' for a linear scale with values from 0.00 to 0.35"><g transform="translate(0.5,280.5)"><path class="background" aria-hidden="true" d="M0,0h0v0h0Z" pointer-events="none"/><g><g class="mark-rule role-axis-tick" pointer-events="none"><line transform="translate(0,0)" x2="0" y2="5" stroke="#888" stroke-width="1" opacity="1"/><line transform="translate(27,0)" x2="0" y2="5" stroke="#888" stroke-width="1" opacity="1"/><line transform="translate(55,0)" x2="0" y2="5" stroke="#888" stroke-width="1" opacity="1"/><line transform="translate(82,0)" x2="0" y2="5" stroke="#888" stroke-width="1" opacity="1"/><line transform="translate(110,0)" x2="0" y2="5" stroke="#888" stroke-width="1" opacity="1"/><line transform="translate(137,0)" x2="0" y2="5" stroke="#888" stroke-width="1" opacity="1"/><line transform="translate(165,0)" x2="0" y2="5" stroke="#888" stroke-width="1" opacity="1"/><line transform="translate(192,0)" x2="0" y2="5" stroke="#888" stroke-width="1" opacity="1"/><line transform="translate(219,0)" x2="0" y2="5" stroke="#888" stroke-width="1" opacity="1"/><line transform="translate(247,0)" x2="0" y2="5" stroke="#888" stroke-width="1" opacity="1"/><line transform="translate(274,0)" x2="0" y2="5" stroke="#888" stroke-width="1" opacity="1"/><line transform="translate(302,0)" x2="0" y2="5" stroke="#888" stroke-width="1" opacity="1"/><line transform="translate(329,0)" x2="0" y2="5" stroke="#888" stroke-width="1" opacity="1"/><line transform="translate(357,0)" x2="0" y2="5" stroke="#888" stroke-width="1" opacity="1"/><line transform="translate(384,0)" x2="0" y2="5" stroke="#888" stroke-width="1" opacity="1"/><line transform="translate(411,0)" x2="0" y2="5" stroke="#888" stroke-width="1" opacity="1"/><line transform="translate(439,0)" x2="0" y2="5" stroke="#888" stroke-width="1" opacity="1"/><line transform="translate(466,0)" x2="0" y2="5" stroke="#888" stroke-width="1" opacity="1"/></g><g class="mark-text role-axis-label" pointer-events="none"><text text-anchor="start" transform="translate(0,15)" font-family="sans-serif" font-size="10px" fill="#000" opacity="1">0.00</text><text text-anchor="middle" transform="translate(27.42857142857143,15)" font-family="sans-serif" font-size="10px" fill="#000" opacity="0">0.02</text><text text-anchor="middle" transform="translate(54.85714285714286,15)" font-family="sans-serif" font-size="10px" fill="#000" opacity="1">0.04</text><text text-anchor="middle" transform="translate(82.28571428571429,15)" font-family="sans-serif" font-size="10px" fill="#000" opacity="0">0.06</text><text text-anchor="middle" transform="translate(109.71428571428572,15)" font-family="sans-serif" font-size="10px" fill="#000" opacity="1">0.08</text><text text-anchor="middle" transform="translate(137.14285714285717,15)" font-family="sans-serif" font-size="10px" fill="#000" opacity="0">0.10</text><text text-anchor="middle" transform="translate(164.57142857142858,15)" font-family="sans-serif" font-size="10px" fill="#000" opacity="1">0.12</text><text text-anchor="middle" transform="translate(192.00000000000003,15)" font-family="sans-serif" font-size="10px" fill="#000" opacity="0">0.14</text><text text-anchor="middle" transform="translate(219.42857142857144,15)" font-family="sans-serif" font-size="10px" fill="#000" opacity="1">0.16</text><text text-anchor="middle" transform="translate(246.8571428571429,15)" font-family="sans-serif" font-size="10px" fill="#000" opacity="0">0.18</text><text text-anchor="middle" transform="translate(274.28571428571433,15)" font-family="sans-serif" font-size="10px" fill="#000" opacity="1">0.20</text><text text-anchor="middle" transform="translate(301.7142857142858,15)" font-family="sans-serif" font-size="10px" fill="#000" opacity="0">0.22</text><text text-anchor="middle" transform="translate(329.14285714285717,15)" font-family="sans-serif" font-size="10px" fill="#000" opacity="1">0.24</text><text text-anchor="middle" transform="translate(356.57142857142856,15)" font-family="sans-serif" font-size="10px" fill="#000" opacity="0">0.26</text><text text-anchor="middle" transform="translate(384.00000000000006,15)" font-family="sans-serif" font-size="10px" fill="#000" opacity="1">0.28</text><text text-anchor="middle" transform="translate(411.42857142857144,15)" font-family="sans-serif" font-size="10px" fill="#000" opacity="0">0.30</text><text text-anchor="middle" transform="translate(438.8571428571429,15)" font-family="sans-serif" font-size="10px" fill="#000" opacity="1">0.32</text><text text-anchor="middle" transform="translate(466.28571428571433,15)" font-family="sans-serif" font-size="10px" fill="#000" opacity="0">0.34</text></g><g class="mark-rule role-axis-domain" pointer-events="none"><line transform="translate(0,0)" x2="480" y2="0" stroke="#888" stroke-width="1" opacity="1"/></g><g class="mark-text role-axis-title" pointer-events="none"><text text-anchor="middle" transform="translate(240,30)" font-family="sans-serif" font-size="11px" font-weight="bold" fill="#000" opacity="1">Position (m)</text></g></g><path class="foreground" aria-hidden="true" d="" pointer-events="none" display="none"/></g></g><g class="mark-group role-axis" role="graphics-symbol" aria-roledescription="axis" aria-label="Y-axis titled 'Temperature (°C)' for a linear scale with values from −10 to 20"><g transform="translate(0.5,0.5)"><path class="background" aria-hidden="true" d="M0,0h0v0h0Z" pointer-events="none"/><g><g class="mark-rule role-axis-tick" pointer-events="none"><line transform="translate(0,280)" x2="-5" y2="0" stroke="#888" stroke-width="1" opacity="1"/><line transform="translate(0,233)" x2="-5" y2="0" stroke="#888" stroke-width="1" opacity="1"/><line transform="translate(0,187)" x2="-5" y2="0" stroke="#888" stroke-width="1" opacity="1"/><line transform="translate(0,140)" x2="-5" y2="0" stroke="#888" stroke-width="1" opacity="1"/><line transform="translate(0,93)" x2="-5" y2="0" stroke="#888" stroke-width="1" opacity="1"/><line transform="translate(0,47)" x2="-5" y2="0" stroke="#888" stroke-width="1" opacity="1"/><line transform="translate(0,0)" x2="-5" y2="0" stroke="#888" stroke-width="1" opacity="1"/></g><g class="mark-text role-axis-label" pointer-events="none"><text text-anchor="end" transform="translate(-7,283)" font-family="sans-serif" font-size="10px" fill="#000" opacity="1">−10</text><text text-anchor="end" transform="translate(-7,236.33333333333334)" font-family="sans-serif" font-size="10px" fill="#000" opacity="1">−5</text><text text-anchor="end" transform="translate(-7,189.66666666666669)" font-family="sans-serif" font-size="10px" fill="#000" opacity="1">0</text><text text-anchor="end" transform="translate(-7,143)" font-family="sans-serif" font-size="10px" fill="#000" opacity="1">5</text><text text-anchor="end" transform="translate(-7,96.33333333333334)" font-family="sans-serif" font-size="10px" fill="#000" opacity="1">10</text><text text-anchor="end" transform="translate(-7,49.66666666666666)" font-family="sans-serif" font-size="10px" fill="#000" opacity="1">15</text><text text-anchor="end" transform="translate(-7,3)" font-family="sans-serif" font-size="10px" fill="#000" opacity="1">20</text></g><g class="mark-rule role-axis-domain" pointer-events="none"><line transform="translate(0,280)" x2="0" y2="-280" stroke="#888" stroke-width="1" opacity="1"/></g><g class="mark-text role-axis-title" pointer-events="none"><text text-anchor="middle" transform="translate(-27.962890625,140) rotate(-90) translate(0,-2)" font-family="sans-serif" font-size="11px" font-weight="bold" fill="#000" opacity="1">Temperature (°C)</text></g></g><path class="foreground" aria-hidden="true" d="" pointer-events="none" display="none"/></g></g><g class="mark-rule role-mark layer_0_marks" role="graphics-object" aria-roledescription="rule mark container"><line aria-label="x: 0" role="graphics-symbol" aria-roledescription="rule mark" transform="translate(0,0)" x2="0" y2="280" stroke="grey" stroke-width="1" stroke-dasharray="4,2"/><line aria-label="x: 0.1" role="graphics-symbol" aria-roledescription="rule mark" transform="translate(137.14285714285717,0)" x2="0" y2="280" stroke="grey" stroke-width="1" stroke-dasharray="4,2"/><line aria-label="x: 0.15" role="graphics-symbol" aria-roledescription="rule mark" transform="translate(205.71428571428575,0)" x2="0" y2="280" stroke="grey" stroke-width="1" stroke-dasharray="4,2"/></g><g class="mark-group role-scope layer_1_pathgroup" role="graphics-object" aria-roledescription="group mark container"><g transform="translate(0,0)"><path class="background" aria-hidden="true" d="M0,0h480v280h-480Z"/><g><g class="mark-line role-mark layer_1_marks" role="graphics-object" aria-roledescription="line mark container"><path aria-label="Position (m): 0; Temperature (°C): 20; Iteration: 0" role="graphics-symbol" aria-roledescription="line mark" d="M0,0L6.857,4.667L13.714,9.333L20.571,14L27.429,18.667L34.286,23.333L41.143,28L48,32.667L54.857,37.333L61.714,42L68.571,46.667L75.429,51.333L82.286,56L89.143,60.667L96,65.333L102.857,70L109.714,74.667L116.571,79.333L123.429,84L130.286,88.667L137.143,93.333L140.571,98L144,102.667L147.429,107.333L150.857,112L154.286,116.667L157.714,121.333L161.143,126L164.571,130.667L168,135.333L171.429,140L174.857,144.667L178.286,149.333L181.714,154L185.143,158.667L188.571,163.333L192,168L195.429,172.667L198.857,177.333L202.286,182L205.714,186.667L216,191.333L226.286,196L236.571,200.667L246.857,205.333L257.143,210L267.429,214.667L277.714,219.333L288,224L298.286,228.667L308.571,233.333L318.857,238L329.143,242.667L339.429,247.333L349.714,252L360,256.667L370.286,261.333L380.571,266L390.857,270.667L401.143,275.333L411.429,280" stroke="#4c78a8" stroke-width="2"/></g></g><path class="foreground" aria-hidden="true" d="" display="none"/></g><g transform="translate(0,0)"><path class="background" aria-hidden="true" d="M0,0h480v280h-480Z"/><g><g class="mark-line role-mark layer_1_marks" role="graphics-object" aria-roledescription="line mark container"><path aria-label="Position (m): 0; Temperature (°C): 20; Iteration: 10" role="graphics-symbol" aria-roledescription="line mark" d="M0,0L6.857,4.667L13.714,9.333L20.571,14L27.429,18.667L34.286,23.333L41.143,28L48,32.667L54.857,37.333L61.714,42L68.571,46.667L75.429,51.326L82.286,55.985L89.143,60.572L96,65.158L102.857,69.417L109.714,73.675L116.571,77.058L123.429,80.442L130.286,82.294L137.143,84.146L140.571,91.627L144,99.108L147.429,105.058L150.857,111.008L154.286,116.083L157.714,121.158L161.143,125.905L164.571,130.652L168,135.326L171.429,140L174.857,144.674L178.286,149.348L181.714,154.097L185.143,158.846L188.571,163.93L192,169.014L195.429,174.993L198.857,180.973L202.286,188.518L205.714,196.063L216,197.851L226.286,199.639L236.571,202.993L246.857,206.348L257.143,210.597L267.429,214.846L277.714,219.43L288,224.015L298.286,228.674L308.571,233.333L318.857,238L329.143,242.667L339.429,247.333L349.714,252L360,256.667L370.286,261.333L380.571,266L390.857,270.667L401.143,275.333L411.429,280" stroke="#f58518" stroke-width="2"/></g></g><path class="foreground" aria-hidden="true" d="" display="none"/></g><g transform="translate(0,0)"><path class="background" aria-hidden="true" d="M0,0h480v280h-480Z"/><g><g class="mark-line role-mark layer_1_marks" role="graphics-object" aria-roledescription="line mark container"><path aria-label="Position (m): 0; Temperature (°C): 20; Iteration: 100" role="graphics-symbol" aria-roledescription="line mark" d="M0,0L6.857,4.323L13.714,8.646L20.571,12.904L27.429,17.161L34.286,21.286L41.143,25.411L48,29.331L54.857,33.252L61.714,36.894L68.571,40.537L75.429,43.825L82.286,47.113L89.143,49.974L96,52.835L102.857,55.205L109.714,57.574L116.571,59.403L123.429,61.231L130.286,62.488L137.143,63.746L140.571,72.173L144,80.601L147.429,88.524L150.857,96.447L154.286,103.965L157.714,111.483L161.143,118.718L164.571,125.954L168,133.047L171.429,140.14L174.857,147.241L178.286,154.343L181.714,161.603L185.143,168.863L188.571,176.422L192,183.98L195.429,191.961L198.857,199.942L202.286,208.443L205.714,216.944L216,218.12L226.286,219.296L236.571,221.058L246.857,222.819L257.143,225.136L267.429,227.452L277.714,230.271L288,233.091L298.286,236.347L308.571,239.603L318.857,243.222L329.143,246.841L339.429,250.745L349.714,254.648L360,258.761L370.286,262.873L380.571,267.121L390.857,271.37L401.143,275.685L411.429,280" stroke="#e45756" stroke-width="2"/></g></g><path class="foreground" aria-hidden="true" d="" display="none"/></g><g transform="translate(0,0)"><path class="background" aria-hidden="true" d="M0,0h480v280h-480Z"/><g><g class="mark-line role-mark layer_1_marks" role="graphics-object" aria-roledescription="line mark container"><path aria-label="Position (m): 0; Temperature (°C): 20; Iteration: converged" role="graphics-symbol" aria-roledescription="line mark" d="M0,0L6.857,1.284L13.714,2.569L20.571,3.853L27.429,5.138L34.286,6.422L41.143,7.707L48,8.991L54.857,10.276L61.714,11.56L68.571,12.844L75.429,14.129L82.286,15.413L89.143,16.698L96,17.982L102.857,19.267L109.714,20.551L116.571,21.835L123.429,23.12L130.286,24.404L137.143,25.689L140.571,37.248L144,48.808L147.429,60.367L150.857,71.927L154.286,83.486L157.714,95.046L161.143,106.605L164.571,118.165L168,129.724L171.429,141.284L174.857,152.843L178.286,164.403L181.714,175.962L185.143,187.522L188.571,199.081L192,210.641L195.429,222.201L198.857,233.76L202.286,245.32L205.714,256.879L216,258.035L226.286,259.191L236.571,260.347L246.857,261.503L257.143,262.659L267.429,263.815L277.714,264.971L288,266.127L298.286,267.283L308.571,268.439L318.857,269.595L329.143,270.751L339.429,271.907L349.714,273.064L360,274.22L370.286,275.376L380.571,276.532L390.857,277.688L401.143,278.844L411.429,280" stroke="#72b7b2" stroke-width="2"/></g></g><path class="foreground" aria-hidden="true" d="" display="none"/></g></g><g class="mark-group role-legend" role="graphics-symbol" aria-roledescription="legend" aria-label="Symbol legend titled 'Iteration' for stroke color with 4 values: 0, 10, 100, converged"><g transform="translate(498,0)"><path class="background" aria-hidden="true" d="M0,0h63v66h-63Z" pointer-events="none"/><g><g class="mark-group role-legend-entry"><g transform="translate(0,16)"><path class="background" aria-hidden="true" d="M0,0h0v0h0Z" pointer-events="none"/><g><g class="mark-group role-scope" role="graphics-object" aria-roledescription="group mark container"><g transform="translate(0,0)"><path class="background" aria-hidden="true" d="M0,0h62.69921875v11h-62.69921875Z" pointer-events="none" opacity="1"/><g><g class="mark-symbol role-legend-symbol" pointer-events="none"><path transform="translate(6,6)" d="M-5,0L5,0" stroke="#4c78a8" stroke-width="1.5" opacity="1"/></g><g class="mark-text role-legend-label" pointer-events="none"><text text-anchor="start" transform="translate(16,9)" font-family="sans-serif" font-size="10px" fill="#000" opacity="1">0</text></g></g><path class="foreground" aria-hidden="true" d="" pointer-events="none" display="none"/></g><g transform="translate(0,13)"><path class="background" aria-hidden="true" d="M0,0h62.69921875v11h-62.69921875Z" pointer-events="none" opacity="1"/><g><g class="mark-symbol role-legend-symbol" pointer-events="none"><path transform="translate(6,6)" d="M-5,0L5,0" stroke="#f58518" stroke-width="1.5" opacity="1"/></g><g class="mark-text role-legend-label" pointer-events="none"><text text-anchor="start" transform="translate(16,9)" font-family="sans-serif" font-size="10px" fill="#000" opacity="1">10</text></g></g><path class="foreground" aria-hidden="true" d="" pointer-events="none" display="none"/></g><g transform="translate(0,26)"><path class="background" aria-hidden="true" d="M0,0h62.69921875v11h-62.69921875Z" pointer-events="none" opacity="1"/><g><g class="mark-symbol role-legend-symbol" pointer-events="none"><path transform="translate(6,6)" d="M-5,0L5,0" stroke="#e45756" stroke-width="1.5" opacity="1"/></g><g class="mark-text role-legend-label" pointer-events="none"><text text-anchor="start" transform="translate(16,9)" font-family="sans-serif" font-size="10px" fill="#000" opacity="1">100</text></g></g><path class="foreground" aria-hidden="true" d="" pointer-events="none" display="none"/></g><g transform="translate(0,39)"><path class="background" aria-hidden="true" d="M0,0h62.69921875v11h-62.69921875Z" pointer-events="none" opacity="1"/><g><g class="mark-symbol role-legend-symbol" pointer-events="none"><path transform="translate(6,6)" d="M-5,0L5,0" stroke="#72b7b2" stroke-width="1.5" opacity="1"/></g><g class="mark-text role-legend-label" pointer-events="none"><text text-anchor="start" transform="translate(16,9)" font-family="sans-serif" font-size="10px" fill="#000" opacity="1">converged</text></g></g><path class="foreground" aria-hidden="true" d="" pointer-events="none" display="none"/></g></g></g><path class="foreground" aria-hidden="true" d="" pointer-events="none" display="none"/></g></g><g class="mark-text role-legend-title" pointer-events="none"><text text-anchor="start" transform="translate(0,9)" font-family="sans-serif" font-size="11px" font-weight="bold" fill="#000" opacity="1">Iteration</text></g></g><path class="foreground" aria-hidden="true" d="" pointer-events="none" display="none"/></g></g></g><path class="foreground" aria-hidden="true" d="" display="none"/></g></g></g></svg>