<svg xmlns="http://www.w3.org/2000/svg" xmlns:xlink="http://www.w3.org/1999/xlink" version="1.1" class="marks" width="590" height="364" viewBox="0 0 590 364"><rect width="590" height="364" fill="white"/><g fill="none" stroke-miterlimit="10" transform="translate(50,27)"><g class="mark-group role-frame root" role="graphics-object" aria-roledescription="group mark container"><g transform="translate(0,0)"><path class="background" aria-hidden="true" d="M0.5,0.5h450v300h-450Z" stroke="#ddd"/><g><g class="mark-group role-axis" aria-hidden="true"><g transform="translate(0.5,300.5)"><path class="background" aria-hidden="true" d="M0,0h0v0h0Z" pointer-events="none"/><g><g class="mark-rule role-axis-grid" pointer-events="none"><line transform="translate(0,-300)" x2="0" y2="300" stroke="#ddd" stroke-width="1" opacity="1"/><line transform="translate(45,-300)" x2="0" y2="300" stroke="#ddd" stroke-width="1" opacity="1"/><line transform="translate(90,-300)" x2="0" y2="300" stroke="#ddd" stroke-width="1" opacity="1"/><line transform="translate(135,-300)" x2="0" y2="300" stroke="#ddd" stroke-width="1" opacity="1"/><line transform="translate(180,-300)" x2="0" y2="300" stroke="#ddd" stroke-width="1" opacity="1"/><line transform="translate(225,-300)" x2="0" y2="300" stroke="#ddd" stroke-width="1" opacity="1"/><line transform="translate(270,-300)" x2="0" y2="300" stroke="#ddd" stroke-width="1" opacity="1"/><line transform="translate(315,-300)" x2="0" y2="300" stroke="#ddd" stroke-width="1" opacity="1"/><line transform="translate(360,-300)" x2="0" y2="300" stroke="#ddd" stroke-width="1" opacity="1"/><line transform="translate(405,-300)" x2="0" y2="300" stroke="#ddd" stroke-width="1" opacity="1"/><line transform="translate(450,-300)" x2="0" y2="300" stroke="#ddd" stroke-width="1" opacity="1"/></g></g><path class="foreground" aria-hidden="true" d="" pointer-events="none" display="none"/></g></g><g class="mark-group role-axis" aria-hidden="true"><g transform="translate(0.5,0.5)"><path class="background" aria-hidden="true" d="M0,0h0v0h0Z" pointer-events="none"/><g><g class="mark-rule role-axis-grid" pointer-events="none"><line transform="translate(0,300)" x2="450" y2="0" stroke="#ddd" stroke-width="1" opacity="1"/><line transform="translate(0,267)" x2="450" y2="0" stroke="#ddd" stroke-width="1" opacity="1"/><line transform="translate(0,233)" x2="450" y2="0" stroke="#ddd" stroke-width="1" opacity="1"/><line transform="translate(0,200)" x2="450" y2="0" stroke="#ddd" stroke-width="1" opacity="1"/><line transform="translate(0,167)" x2="450" y2="0" stroke="#ddd" stroke-width="1" opacity="1"/><line transform="translate(0,133)" x2="450" y2="0" stroke="#ddd" stroke-width="1" opacity="1"/><line transform="translate(0,100)" x2="450" y2="0" stroke="#ddd" stroke-width="1" opacity="1"/><line transform="translate(0,67)" x2="450" y2="0" stroke="#ddd" stroke-width="1" opacity="1"/><line transform="translate(0,33)" x2="450" y2="0" stroke="#ddd" stroke-width="1" opacity="1"/><line transform="translate(0,0)" x2="450" y2="0" stroke="#ddd" stroke-width="1" opacity="1"/></g></g><path class="foreground" aria-hidden="true" d="" pointer-events="none" display="none"/></g></g><g class="mark-group role-axis" role="graphics-symbol" aria-roledescription="axis" aria-label="X-axis titled 'Step' for a linear scale with values from 0 to 200"><g transform="translate(0.5,300.5)"><path class="background" aria-hidden="true" d="M0,0h0v0h0Z" pointer-events="none"/><g><g class="mark-rule role-axis-tick" pointer-events="none"><line transform="translate(0,0)" x2="0" y2="5" stroke="#888" stroke-width="1" opacity="1"/><line transform="translate(45,0)" x2="0" y2="5" stroke="#888" stroke-width="1" opacity="1"/><line transform="translate(90,0)" x2="0" y2="5" stroke="#888" stroke-width="1" opacity="1"/><line transform="translate(135,0)" x2="0" y2="5" stroke="#888" stroke-width="1" opacity="1"/><line transform="translate(180,0)" x2="0" y2="5" stroke="#888" stroke-width="1" opacity="1"/><line transform="translate(225,0)" x2="0" y2="5" stroke="#888" stroke-width="1" opacity="1"/><line transform="translate(270,0)" x2="0" y2="5" stroke="#888" stroke-width="1" opacity="1"/><line transform="translate(315,0)" x2="0" y2="5" stroke="#888" stroke-width="1" opacity="1"/><line transform="translate(360,0)" x2="0" y2="5" stroke="#888" stroke-width="1" opacity="1"/><line transform="translate(405,0)" x2="0" y2="5" stroke="#888" stroke-width="1" opacity="1"/><line transform="translate(450,0)" x2="0" y2="5" stroke="#888" stroke-width="1" opacity="1"/></g><g class="mark-text role-axis-label" pointer-events="none"><text text-anchor="start" transform="translate(0,15)" font-family="sans-serif" font-size="10px" fill="#000" opacity="1">0</text><text text-anchor="middle" transform="translate(45,15)" font-family="sans-serif" font-size="10px" fill="#000" opacity="1">20</text><text text-anchor="middle" transform="translate(90,15)" font-family="sans-serif" font-size="10px" fill="#000" opacity="1">40</text><text text-anchor="middle" transform="translate(135,15)" font-family="sans-serif" font-size="10px" fill="#000" opacity="1">60</text><text text-anchor="middle" transform="translate(180,15)" font-family="sans-serif" font-size="10px" fill="#000" opacity="1">80</text><text text-anchor="middle" transform="translate(225,15)" font-family="sans-serif" font-size="10px" fill="#000" opacity="1">100</text><text text-anchor="middle" transform="translate(270,15)" font-family="sans-serif" font-size="10px" fill="#000" opacity="1">120</text><text text-anchor="middle" transform="translate(315,15)" font-family="sans-serif" font-size="10px" fill="#000" opacity="1">140</text><text text-anchor="middle" transform="translate(360,15)" font-family="sans-serif" font-size="10px" fill="#000" opacity="1">160</text><text text-anchor="middle" transform="translate(405,15)" font-family="sans-serif" font-size="10px" fill="#000" opacity="1">180</text><text text-anchor="end" transform="translate(450,15)" font-family="sans-serif" font-size="10px" fill="#000" opacity="1">200</text></g><g class="mark-rule role-axis-domain" pointer-events="none"><line transform="translate(0,0)" x2="450" y2="0" stroke="#888" stroke-width="1" opacity="1"/></g><g class="mark-text role-axis-title" pointer-events="none"><text text-anchor="middle" transform="translate(225,30)" font-family="sans-serif" font-size="11px" font-weight="bold" fill="#000" opacity="1">Step</text></g></g><path class="foreground" aria-hidden="true" d="" pointer-events="none" display="none"/></g></g><g class="mark-group role-axis" role="graphics-symbol" aria-roledescription="axis" aria-label="Y-axis titled 'CUSUM' for a linear scale with values from −160 to 20"><g transform="translate(0.5,0.5)"><path class="background" aria-hidden="true" d="M0,0h0v0h0Z" pointer-events="none"/><g><g class="mark-rule role-axis-tick" pointer-events="none"><line transform="translate(0,300)" x2="-5" y2="0" stroke="#888" stroke-width="1" opacity="1"/><line transform="translate(0,267)" x2="-5" y2="0" stroke="#888" stroke-width="1" opacity="1"/><line transform="translate(0,233)" x2="-5" y2="0" stroke="#888" stroke-width="1" opacity="1"/><line transform="translate(0,200)" x2="-5" y2="0" stroke="#888" stroke-width="1" opacity="1"/><line transform="translate(0,167)" x2="-5" y2="0" stroke="#888" stroke-width="1" opacity="1"/><line transform="translate(0,133)" x2="-5" y2="0" stroke="#888" stroke-width="1" opacity="1"/><line transform="translate(0,100)" x2="-5" y2="0" stroke="#888" stroke-width="1" opacity="1"/><line transform="translate(0,67)" x2="-5" y2="0" stroke="#888" stroke-width="1" opacity="1"/><line transform="translate(0,33)" x2="-5" y2="0" stroke="#888" stroke-width="1" opacity="1"/><line transform="translate(0,0)" x2="-5" y2="0" stroke="#888" stroke-width="1" opacity="1"/></g><g class="mark-text role-axis-label" pointer-events="none"><text text-anchor="end" transform="translate(-7,303)" font-family="sans-serif" font-size="10px" fill="#000" opacity="1">−160</text><text text-anchor="end" transform="translate(-7,269.66666666666663)" font-family="sans-serif" font-size="10px" fill="#000" opacity="1">−140</text><text text-anchor="end" transform="translate(-7,236.33333333333334)" font-family="sans-serif" font-size="10px" fill="#000" opacity="1">−120</text><text text-anchor="end" transform="translate(-7,203.00000000000003)" font-family="sans-serif" font-size="10px" fill="#000" opacity="1">−100</text><text text-anchor="end" transform="translate(-7,169.66666666666669)" font-family="sans-serif" font-size="10px" fill="#000" opacity="1">−80</text><text text-anchor="end" transform="translate(-7,136.33333333333331)" font-family="sans-serif" font-size="10px" fill="#000" opacity="1">−60</text><text text-anchor="end" transform="translate(-7,103.00000000000001)" font-family="sans-serif" font-size="10px" fill="#000" opacity="1">−40</text><text text-anchor="end" transform="translate(-7,69.66666666666666)" font-family="sans-serif" font-size="10px" fill="#000" opacity="1">−20</text><text text-anchor="end" transform="translate(-7,36.33333333333335)" font-family="sans-serif" font-size="10px" fill="#000" opacity="1">0</text><text text-anchor="end" transform="translate(-7,3)" font-family="sans-serif" font-size="10px" fill="#000" opacity="1">20</text></g><g class="mark-rule role-axis-domain" pointer-events="none"><line transform="translate(0,300)" x2="0" y2="-300" stroke="#888" stroke-width="1" opacity="1"/></g><g class="mark-text role-axis-title" pointer-events="none"><text text-anchor="middle" transform="translate(-33.5244140625,150) rotate(-90) translate(0,-2)" font-family="sans-serif" font-size="11px" font-weight="bold" fill="#000" opacity="1">CUSUM</text></g></g><path class="foreground" aria-hidden="true" d="" pointer-events="none" display="none"/></g></g><g class="mark-group role-scope layer_0_pathgroup" role="graphics-object" aria-roledescription="group mark container"><g transform="translate(0,0)"><path class="background" aria-hidden="true" d="M0,0h450v300h-450Z"/><g><g class="mark-line role-mark layer_0_marks" role="graphics-object" aria-roledescription="line mark container"><path aria-label="Step: 0; CUSUM: −0.192139946962; model: mean-only" role="graphics-symbol" aria-roledescription="line mark" d="M0,33.654L2.25,35.698L4.5,39.378L6.75,45.581L9,49.08L11.25,50.859L13.5,55.897L15.75,54.956L18,56.823L20.25,60.801L22.5,64.473L24.75,65.917L27,68.636L29.25,68.633L31.5,72.744L33.75,72.184L36,76.72L38.25,77.353L40.5,79.114L42.75,80.942L45,84.208L47.25,86.616L49.5,89.912L51.75,90.43L54,94.487L56.25,97.678L58.5,93.218L60.75,95.377L63,98.148L65.25,100.514L67.5,102.631L69.75,107.671L72,109.316L74.25,112.078L76.5,113.675L78.75,117.634L81,118.617L83.25,121.217L85.5,126.552L87.75,125.988L90,129.729L92.25,134.106L94.5,140.797L96.75,143.292L99,140.618L101.25,145.991L103.5,147.087L105.75,146.678L108,149.369L110.25,152.568L112.5,157.586L114.75,161.603L117,165.148L119.25,166.552L121.5,168.27L123.75,171.745L126,175.42L128.25,174.828L130.5,177.442L132.75,180.265L135,183.255L137.25,184.741L139.5,187.918L141.75,188.012L144,190.071L146.25,192.146L148.5,196.089L150.75,197.227L153,200.168L155.25,202.934L157.5,203.537L159.75,207.935L162,210.249L164.25,213.607L166.5,219.301L168.75,219.024L171,220.73L173.25,221.359L175.5,225.966L177.75,229.555L180,229.382L182.25,233.997L184.5,234.444L186.75,237.007L189,237.631L191.25,238.736L193.5,240.058L195.75,241.302L198,244.725L200.25,248.053L202.5,249.971L204.75,253.466L207,255.331L209.25,255.996L211.5,260.128L213.75,259.662L216,262.054L218.25,263.853L220.5,266.917L222.75,273.781L225,270.7L227.25,268.089L229.5,266.732L231.75,266.623L234,264.153L236.25,260.889L238.5,255.521L240.75,252.106L243,251.955L245.25,250.554L247.5,250.686L249.75,250.485L252,248.868L254.25,246.505L256.5,244.615L258.75,244.109L261,240.236L263.25,239.351L265.5,237.913L267.75,235.701L270,234.68L272.25,234.227L274.5,229.126L276.75,227.238L279,223.159L281.25,219.411L283.5,219.379L285.75,219.675L288,218.817L290.25,217.24L292.5,214.344L294.75,211.691L297,208.877L299.25,205.959L301.5,202.155L303.75,197.55L306,195.025L308.25,193.561L310.5,191.135L312.75,186.267L315,184L317.25,180.884L319.5,180.184L321.75,179.434L324,175.198L326.25,172.079L328.5,168.893L330.75,166.771L333,163.111L335.25,157.616L337.5,155.706L339.75,153.532L342,152.459L344.25,152.067L346.5,148.47L348.75,143.978L351,142.699L353.25,140.284L355.5,139.218L357.75,136.508L360,134.569L362.25,132.778L364.5,128.887L366.75,127.641L369,126.982L371.25,125.81L373.5,121.016L375.75,118.37L378,116.415L380.25,115.697L382.5,114.284L384.75,110.022L387,106.79L389.25,105.158L391.5,99.525L393.75,97.771L396,95.304L398.25,93.86L400.5,94.427L402.75,94.861L405,90.326L407.25,84.004L409.5,84.707L411.75,82.352L414,81.117L416.25,76.202L418.5,73.185L420.75,70.217L423,68.104L425.25,62.876L427.5,59.189L429.75,53.983L432,48.549L434.25,44.861L436.5,41.521L438.75,41.915L441,41.175L443.25,37.129L445.5,35.179L447.75,33.333" stroke="#f58518" stroke-width="2"/></g></g><path class="foreground" aria-hidden="true" d="" display="none"/></g><g transform="translate(0,0)"><path class="background" aria-hidden="true" d="M0,0h450v300h-450Z"/><g><g class="mark-line role-mark layer_0_marks" role="graphics-object" aria-roledescription="line mark container"><path aria-label="Step: 0; CUSUM: 2.02845487604; model: linear trend" role="graphics-symbol" aria-roledescription="line mark" d="M0,29.953L2.25,28.333L4.5,28.386L6.75,31L9,30.947L11.25,29.211L13.5,30.771L15.75,26.39L18,24.853L20.25,25.465L22.5,25.808L24.75,23.96L27,23.424L29.25,20.204L31.5,21.135L33.75,17.432L36,18.861L38.25,16.426L40.5,15.156L42.75,13.989L45,14.299L47.25,13.786L49.5,14.199L51.75,11.872L54,13.121L56.25,13.54L58.5,6.347L60.75,5.809L63,5.921L65.25,5.665L67.5,5.196L69.75,7.689L72,6.823L74.25,7.111L76.5,6.272L78.75,7.832L81,6.453L83.25,6.728L85.5,9.775L87.75,6.961L90,8.489L92.25,10.69L94.5,15.242L96.75,15.636L99,10.897L101.25,14.243L103.5,13.349L105.75,10.987L108,11.763L110.25,13.083L112.5,16.26L114.75,18.473L117,20.252L119.25,19.926L121.5,19.951L123.75,21.771L126,23.828L128.25,21.656L130.5,22.726L132.75,24.042L135,25.563L137.25,25.617L139.5,27.4L141.75,26.135L144,26.874L146.25,27.666L148.5,30.362L150.75,30.292L153,32.061L155.25,33.693L157.5,33.199L159.75,36.537L162,37.828L164.25,40.2L166.5,44.945L168.75,43.757L171,44.589L173.25,44.381L175.5,48.188L177.75,51.015L180,50.116L182.25,54.043L184.5,53.839L186.75,55.789L189,55.836L191.25,56.402L193.5,57.222L195.75,58.001L198,60.996L200.25,63.933L202.5,65.498L204.75,68.677L207,70.263L209.25,70.687L211.5,74.613L213.75,73.98L216,76.242L218.25,77.948L220.5,80.956L222.75,87.801L225,84.739L227.25,82.184L229.5,80.92L231.75,80.941L234,78.639L236.25,75.579L238.5,70.453L240.75,67.316L243,67.482L245.25,66.434L247.5,66.957L249.75,67.184L252,66.031L254.25,64.17L256.5,62.82L258.75,62.891L261,59.631L263.25,59.397L265.5,58.647L267.75,57.16L270,56.903L272.25,57.249L274.5,52.985L276.75,51.971L279,48.803L281.25,46.004L283.5,46.957L285.75,48.276L288,48.478L290.25,47.999L292.5,46.238L294.75,44.756L297,43.151L299.25,41.479L301.5,38.958L303.75,35.674L306,34.506L308.25,34.437L310.5,33.443L312.75,30.045L315,29.284L317.25,27.712L319.5,28.592L321.75,29.461L324,26.879L326.25,25.452L328.5,23.997L330.75,23.641L333,21.785L335.25,18.132L337.5,18.1L339.75,17.842L342,18.721L344.25,20.319L346.5,18.749L348.75,16.321L351,17.144L353.25,16.868L355.5,17.978L357.75,17.481L360,17.792L362.25,18.289L364.5,16.723L366.75,17.839L369,19.579L371.25,20.843L373.5,18.522L375.75,18.387L378,18.98L380.25,20.847L382.5,22.056L384.75,20.455L387,19.919L389.25,21.021L391.5,18.159L393.75,19.213L396,19.591L398.25,21.031L400.5,24.518L402.75,27.908L405,26.368L407.25,23.077L409.5,26.849L411.75,27.599L414,29.508L416.25,27.773L418.5,27.974L420.75,28.26L423,29.439L425.25,27.539L427.5,27.219L429.75,25.417L432,23.424L434.25,23.213L436.5,23.388L438.75,27.335L441,30.184L443.25,29.764L445.5,31.478L447.75,33.333" stroke="#4c78a8" stroke-width="2"/></g></g><path class="foreground" aria-hidden="true" d="" display="none"/></g></g><g class="mark-rule role-mark layer_1_marks" role="graphics-object" aria-roledescription="rule mark container"><line aria-label="step: 100" role="graphics-symbol" aria-roledescription="rule mark" transform="translate(225,0)" x2="0" y2="300" stroke="gray" stroke-width="1.5" stroke-dasharray="4,4"/></g><g class="mark-group role-legend" role="graphics-symbol" aria-roledescription="legend" aria-label="Symbol legend titled 'OLS model' for stroke color with 2 values: linear trend, mean-only"><g transform="translate(468,0)"><path class="background" aria-hidden="true" d="M0,0h67v40h-67Z" pointer-events="none"/><g><g class="mark-group role-legend-entry"><g transform="translate(0,16)"><path class="background" aria-hidden="true" d="M0,0h0v0h0Z" pointer-events="none"/><g><g class="mark-group role-scope" role="graphics-object" aria-roledescription="group mark container"><g transform="translate(0,0)"><path class="background" aria-hidden="true" d="M0,0h66.029296875v11h-66.029296875Z" pointer-events="none" opacity="1"/><g><g class="mark-symbol role-legend-symbol" pointer-events="none"><path transform="translate(6,6)" d="M-5,0L5,0" stroke="#4c78a8" stroke-width="1.5" opacity="1"/></g><g class="mark-text role-legend-label" pointer-events="none"><text text-anchor="start" transform="translate(16,9)" font-family="sans-serif" font-size="10px" fill="#000" opacity="1">linear trend</text></g></g><path class="foreground" aria-hidden="true" d="" pointer-events="none" display="none"/></g><g transform="translate(0,13)"><path class="background" aria-hidden="true" d="M0,0h66.029296875v11h-66.029296875Z" pointer-events="none" opacity="1"/><g><g class="mark-symbol role-legend-symbol" pointer-events="none"><path transform="translate(6,6)" d="M-5,0L5,0" stroke="#f58518" stroke-width="1.5" opacity="1"/></g><g class="mark-text role-legend-label" pointer-events="none"><text text-anchor="start" transform="translate(16,9)" font-family="sans-serif" font-size="10px" fill="#000" opacity="1">mean-only</text></g></g><path class="foreground" aria-hidden="true" d="" pointer-events="none" display="none"/></g></g></g><path class="foreground" aria-hidden="true" d="" pointer-events="none" display="none"/></g></g><g class="mark-text role-legend-title" pointer-events="none"><text text-anchor="start" transform="translate(0,9)" font-family="sans-serif" font-size="11px" font-weight="bold" fill="#000" opacity="1">OLS model</text></g></g><path class="foreground" aria-hidden="true" d="" pointer-events="none" display="none"/></g></g><g class="mark-group role-title"><g transform="translate(225,-22)"><path class="background" aria-hidden="true" d="M0,0h0v0h0Z" pointer-events="none"/><g><g class="mark-text role-title-text" role="graphics-symbol" aria-roledescription="title" aria-label="Title text 'CUSUM comparison: mean-only vs. linear-trend residuals'" pointer-events="none"><text text-anchor="middle" transform="translate(0,10)" font-family="sans-serif" font-size="13px" font-weight="bold" fill="#000" opacity="1">CUSUM comparison: mean-only vs. linear-trend residuals</text></g></g><path class="foreground" aria-hidden="true" d="" pointer-events="none" display="none"/></g></g></g><path class="foreground" aria-hidden="true" d="" display="none"/></g></g></g></svg>