<?xml version="1.0" standalone="no"?>
<!DOCTYPE svg PUBLIC "-//W3C//DTD SVG 20010904//EN" "http://www.w3.org/TR/2001/REC-SVG-20010904/DTD/svg10.dtd">
<svg version="1.1" xmlns="http://www.w3.org/2000/svg" width="6cm" height="6cm" viewBox="0 0 315 315">
	<g transform="translate(0,315) scale(0.1,-0.1)" stroke="none">
		<title>Maze Puzzle, by Adam Stanislav</title>
		<path id="Puzzle" fill="#000" d="M0 1575l0-1575 1525 0 1525 0 0 125 0 125-25 0c-25 0-25 0-25-100l0-100-125 0-125 0 0 25c0 23 3 25 50 25 47 0 50 2 50 25 0 24-2 25-75 25l-75 0 0-50 0-50-175 0-175 0 0 100 0 100-125 0-125 0 0-75 0-75 75 0c73 0 75 1 75 25 0 23-3 25-50 25-47 0-50 2-50 25 0 24 2 25 75 25l75 0 0-75 0-75-125 0-125 0 0 100 0 100-50 0c-47 0-50 2-50 25l0 25 225 0 225 0 0-50c0-47 2-50 25-50 23 0 25 3 25 50l0 50 100 0 100 0 0 75c0 73-1 75-25 75-23 0-25-3-25-50l0-50-75 0-75 0 0 100c0 100 0 100-25 100-23 0-25-3-25-50l0-50-50 0c-47 0-50-2-50-25 0-23 3-25 50-25 47 0 50-2 50-25 0-24-2-25-75-25l-75 0 0 50c0 47-2 50-25 50-23 0-25-3-25-50l0-50-150 0-150 0 0-50 0-50-50 0c-47 0-50-2-50-25 0-25 0-25 100-25l100 0 0-75 0-75-175 0-175 0 0 50c0 47-2 50-25 50-23 0-25-3-25-50l0-50-75 0-75 0 0 50c0 47-2 50-25 50-23 0-25-3-25-50l0-50-75 0c-73 0-75 1-75 25 0 23 3 25 50 25 47 0 50 2 50 25 0 24-2 25-75 25l-75 0 0-50 0-50-75 0-75 0 0 125 0 125 50 0 50 0 0 175 0 175-50 0-50 0 0 50 0 50-50 0-50 0 0 75 0 75 50 0c47 0 50 2 50 25 0 23-3 25-50 25l-50 0 0 75 0 75 50 0c47 0 50 2 50 25l0 25-150 0-150 0 0 75 0 75 50 0c47 0 50 2 50 25 0 23-3 25-50 25l-50 0 0 50c0 47-2 50-25 50l-25 0 0-175 0-175 100 0 100 0 0-125 0-125-75 0-75 0 0 50c0 47-2 50-25 50-23 0-25-3-25-50l0-50-150 0-150 0 0-50 0-50-75 0-75 0 0 50 0 50-50 0-50 0 0 50c0 47-2 50-25 50l-25 0 0-175 0-175 50 0 50 0 0-50c0-47 2-50 25-50 23 0 25 3 25 50 0 47 2 50 25 50 25 0 25 0 25-100l0-100 125 0 125 0 0 50c0 47 2 50 25 50 24 0 25-2 25-75l0-75-250 0-250 0 0-25c0-25 0-25 100-25l100 0 0-50c0-47 2-50 25-50 23 0 25 3 25 50l0 50 75 0 75 0 0-100c0-100 0-100 25-100 23 0 25 3 25 50l0 50 50 0c47 0 50 2 50 25 0 23-3 25-50 25-47 0-50 2-50 25 0 23 3 25 50 25l50 0 0 225 0 225-75 0c-73 0-75-1-75-25 0-23 3-25 50-25l50 0 0-75 0-75-50 0-50 0 0-50 0-50-75 0-75 0 0 100 0 100-100 0-100 0 0 75c0 73 1 75 25 75 23 0 25-3 25-50l0-50 100 0 100 0 0-100c0-100 0-100 25-100 23 0 25 3 25 50l0 50 50 0c47 0 50 2 50 25 0 23-3 25-50 25l-50 0 0 75 0 75 125 0 125 0 0-150 0-150 50 0 50 0 0-50 0-50 50 0 50 0 0-50c0-47 2-50 25-50 23 0 25 3 25 50l0 50 50 0c47 0 50 2 50 25 0 25 0 25-100 25l-100 0 0 50 0 50-50 0-50 0 0 125 0 125 75 0 75 0 0-50 0-50 50 0 50 0 0-50 0-50 50 0c47 0 50-2 50-25 0-24-2-25-75-25l-75 0 0 50 0 50-50 0-50 0 0 50c0 47-2 50-25 50-24 0-25-2-25-75l0-75 50 0 50 0 0-50 0-50 100 0 100 0 0-75 0-75-50 0-50 0 0-150 0-150-75 0-75 0 0 75c0 73 1 75 25 75 23 0 25-3 25-50 0-47 2-50 25-50 24 0 25 2 25 75l0 75-50 0-50 0 0 50 0 50-50 0-50 0 0 50c0 47-2 50-25 50-24 0-25-2-25-75l0-75 50 0 50 0 0-125 0-125-75 0c-73 0-75 1-75 25 0 23 3 25 50 25l50 0 0 75c0 73-1 75-25 75-23 0-25-3-25-50l0-50-50 0-50 0 0-50 0-50-275 0-275 0 0 75 0 75 75 0c73 0 75-1 75-25 0-23-3-25-50-25-47 0-50-2-50-25l0-25 175 0 175 0 0 75c0 73-1 75-25 75-23 0-25-3-25-50l0-50-75 0-75 0 0 50 0 50-100 0-100 0 0 75 0 75 100 0c100 0 100 0 100 25 0 23-3 25-50 25l-50 0 0 50c0 47-2 50-25 50-23 0-25-3-25-50 0-47-2-50-25-50l-25 0 0 275 0 275 50 0 50 0 0 50 0 50 125 0 125 0 0-50 0-50 75 0 75 0 0 75c0 73-1 75-25 75-23 0-25-3-25-50 0-47-2-50-25-50-23 0-25 3-25 50l0 50-50 0-50 0 0 75 0 75 100 0 100 0 0 75c0 73-1 75-25 75-23 0-25-3-25-50l0-50-75 0-75 0 0 50c0 47-2 50-25 50-23 0-25-3-25-50l0-50-75 0-75 0 0 100c0 100 0 100-25 100l-25 0 0-125 0-125 100 0 100 0 0-75 0-75-100 0-100 0 0-50c0-47-2-50-25-50-24 0-25 2-25 75l0 75 100 0c100 0 100 0 100 25 0 25 0 25-100 25l-100 0 0 375 0 375 50 0 50 0 0 275 0 275-25 0-25 0 0-250 0-250-25 0-25 0 0 275 0 275 75 0 75 0 0-300 0-300 100 0 100 0 0-125 0-125-75 0-75 0 0 50 0 50-50 0c-47 0-50 2-50 25 0 24 2 25 75 25l75 0 0-50c0-47 2-50 25-50 24 0 25 2 25 75l0 75-125 0-125 0 0-75 0-75 50 0 50 0 0-50 0-50 125 0 125 0 0 200 0 200 75 0c73 0 75-1 75-25 0-23-3-25-50-25l-50 0 0-75c0-73 1-75 25-75 23 0 25 3 25 50l0 50 50 0 50 0 0 50 0 50 75 0 75 0 0-125 0-125-50 0-50 0 0-50 0-50-50 0c-47 0-50-2-50-25 0-25 0-25 100-25l100 0 0-75 0-75-275 0-275 0 0 25 0 25 250 0 250 0 0 25c0 25 0 25-100 25l-100 0 0 75 0 75 50 0 50 0 0 50 0 50 50 0 50 0 0 75c0 73-1 75-25 75-23 0-25-3-25-50l0-50-50 0-50 0 0-50 0-50-50 0-50 0 0-100 0-100-175 0-175 0 0 50c0 47-2 50-25 50-24 0-25-2-25-75l0-75 50 0 50 0 0-100c0-100 0-100 25-100 23 0 25 3 25 50l0 50 75 0 75 0 0-50c0-47 2-50 25-50 23 0 25 3 25 50l0 50 75 0 75 0 0-125 0-125-100 0c-100 0-100 0-100-25 0-25 0-25 100-25l100 0 0-125 0-125-125 0-125 0 0 50c0 47-2 50-25 50-23 0-25-3-25-50 0-47-2-50-25-50-23 0-25 3-25 50 0 47-2 50-25 50-24 0-25-2-25-75l0-75 50 0 50 0 0-50c0-47 2-50 25-50 23 0 25 3 25 50l0 50 150 0 150 0 0 50 0 50 75 0 75 0 0-50c0-47 2-50 25-50 24 0 25 2 25 75l0 75-100 0-100 0 0 225 0 225 75 0 75 0 0-50 0-50 50 0 50 0 0-75 0-75-50 0c-47 0-50-2-50-25l0-25 150 0 150 0 0-75 0-75-50 0c-47 0-50-2-50-25 0-23 3-25 50-25l50 0 0-75 0-75-50 0c-47 0-50-2-50-25 0-24 2-25 75-25l75 0 0 50 0 50 75 0 75 0 0-50c0-47 2-50 25-50 24 0 25 2 25 75l0 75-100 0-100 0 0 75 0 75 50 0 50 0 0 50 0 50 50 0 50 0 0 50 0 50 50 0c47 0 50 2 50 25l0 25-125 0-125 0 0-25c0-23 3-25 50-25 47 0 50-2 50-25 0-23-3-25-50-25l-50 0 0-50c0-47-2-50-25-50l-25 0 0 125 0 125 50 0c47 0 50 2 50 25 0 23-3 25-50 25l-50 0 0 50 0 50-50 0-50 0 0 50c0 47-2 50-25 50-23 0-25-3-25-50 0-47-2-50-25-50-25 0-25 0-25 100 0 100 0 100-25 100l-25 0 0-125 0-125 100 0 100 0 0-75 0-75-50 0c-47 0-50-2-50-25 0-23 3-25 50-25 47 0 50-2 50-25 0-24-2-25-75-25l-75 0 0 75 0 75 50 0c47 0 50 2 50 25 0 25 0 25-100 25l-100 0 0 150 0 150-50 0c-47 0-50 2-50 25 0 23 3 25 50 25l50 0 0 50c0 47 2 50 25 50 23 0 25-3 25-50l0-50 50 0 50 0 0-50 0-50 50 0 50 0 0-50 0-50 50 0 50 0 0-50 0-50 50 0 50 0 0-50 0-50 200 0 200 0 0-50c0-47 2-50 25-50 23 0 25 3 25 50 0 47 2 50 25 50 24 0 25-2 25-75l0-75-100 0-100 0 0-75 0-75 175 0 175 0 0 25 0 25-150 0-150 0 0 25 0 25 175 0 175 0 0-75 0-75-200 0-200 0 0-50 0-50-50 0-50 0 0-75 0-75 75 0c73 0 75 1 75 25 0 23-3 25-50 25-47 0-50 2-50 25 0 23 3 25 50 25l50 0 0 50 0 50 75 0 75 0 0-50c0-47 2-50 25-50 23 0 25 3 25 50l0 50 75 0 75 0 0-100c0-100 0-100 25-100 23 0 25 3 25 50 0 47 2 50 25 50 24 0 25-2 25-75l0-75-50 0-50 0 0-50 0-50-50 0-50 0 0-50 0-50-75 0-75 0 0 50 0 50-100 0c-100 0-100 0-100 25l0 25 125 0 125 0 0-50c0-47 2-50 25-50 23 0 25 3 25 50l0 50 50 0 50 0 0 125 0 125-25 0c-23 0-25-3-25-50l0-50-50 0c-47 0-50-2-50-25 0-23 3-25 50-25 47 0 50-2 50-25 0-24-2-25-75-25l-75 0 0 100c0 100 0 100-25 100-25 0-25 0-25-100l0-100-125 0-125 0 0 125 0 125 50 0 50 0 0 150 0 150 50 0c47 0 50 2 50 25 0 24-2 25-75 25l-75 0 0-50 0-50-50 0c-47 0-50-2-50-25 0-23 3-25 50-25l50 0 0-75 0-75-75 0c-73 0-75 1-75 25 0 23 3 25 50 25 47 0 50 2 50 25 0 24-2 25-75 25l-75 0 0-50 0-50-50 0c-47 0-50-2-50-25 0-25 0-25 100-25l100 0 0-125 0-125-75 0-75 0 0 50c0 47-2 50-25 50-23 0-25-3-25-50l0-50-50 0c-47 0-50-2-50-25 0-23 3-25 50-25l50 0 0-100 0-100 50 0c47 0 50-2 50-25 0-23-3-25-50-25l-50 0 0-75c0-73 1-75 25-75 23 0 25 3 25 50l0 50 50 0 50 0 0 75 0 75-50 0-50 0 0 75 0 75 125 0 125 0 0-50 0-50 100 0 100 0 0-75c0-73-1-75-25-75-23 0-25 3-25 50 0 47-2 50-25 50-23 0-25-3-25-50l0-50-50 0-50 0 0-100 0-100-75 0c-73 0-75 1-75 25 0 23 3 25 50 25l50 0 0 100 0 100 50 0c47 0 50 2 50 25 0 23-3 25-50 25l-50 0 0 50 0 50-75 0c-73 0-75-1-75-25 0-23 3-25 50-25l50 0 0-125 0-125-50 0-50 0 0-50 0-50-100 0-100 0 0-75c0-73 1-75 25-75 23 0 25 3 25 50l0 50 175 0 175 0 0-50c0-47 2-50 25-50 23 0 25 3 25 50l0 50 75 0 75 0 0-50 0-50 125 0 125 0 0 25c0 25 0 25-100 25l-100 0 0 50 0 50-100 0-100 0 0 75 0 75 100 0 100 0 0 50 0 50 100 0 100 0 0 50 0 50 50 0 50 0 0 50 0 50 50 0 50 0 0 50 0 50 50 0c47 0 50 2 50 25 0 23-3 25-50 25l-50 0 0 50 0 50-50 0-50 0 0 150 0 150-100 0-100 0 0 100 0 100-250 0-250 0 0 50 0 50-50 0-50 0 0 50 0 50-50 0c-47 0-50 2-50 25 0 23 3 25 50 25l50 0 0 150 0 150 50 0 50 0 0 100 0 100 75 0 75 0 0-100c0-100 0-100 25-100 25 0 25 0 25 100l0 100 50 0 50 0 0 50 0 50 75 0 75 0 0-50c0-47 2-50 25-50 23 0 25 3 25 50l0 50 175 0 175 0 0-75 0-75-50 0c-47 0-50-2-50-25 0-25 0-25 100-25l100 0 0-50c0-47 2-50 25-50 23 0 25 3 25 50l0 50 75 0 75 0 0-50 0-50 125 0 125 0 0 150 0 150 25 0c25 0 25 0 25-100 0-100 0-100 25-100 23 0 25 3 25 50l0 50 100 0c100 0 100 0 100 25 0 25 0 25-100 25l-100 0 0 100c0 100 0 100-25 100-23 0-25-3-25-50l0-50-200 0-200 0 0-25 0-25 150 0 150 0 0-125 0-125-75 0-75 0 0 50 0 50-150 0-150 0 0 100 0 100-50 0-50 0 0 75 0 75 50 0c47 0 50 2 50 25l0 25-125 0-125 0 0-25c0-23 3-25 50-25l50 0 0-75 0-75-125 0-125 0 0 150 0 150-50 0-50 0 0 100c0 100 0 100-25 100-23 0-25-3-25-50l0-50-50 0c-47 0-50-2-50-25 0-23 3-25 50-25l50 0 0-50 0-50 50 0 50 0 0-75 0-75-50 0c-47 0-50-2-50-25 0-23 3-25 50-25 47 0 50-2 50-25 0-24-2-25-75-25l-75 0 0 75 0 75 50 0c47 0 50 2 50 25 0 24-2 25-75 25l-75 0 0-150 0-150-150 0-150 0 0-100 0-100-100 0c-100 0-100 0-100-25 0-23 3-25 50-25 47 0 50-2 50-25 0-24-2-25-75-25l-75 0 0 75 0 75 50 0 50 0 0 75c0 73-1 75-25 75-23 0-25-3-25-50l0-50-50 0-50 0 0-50 0-50-50 0c-47 0-50-2-50-25 0-23 3-25 50-25l50 0 0-50 0-50 100 0 100 0 0-75 0-75-75 0c-73 0-75 1-75 25 0 23 3 25 50 25 47 0 50 2 50 25 0 25 0 25-100 25l-100 0 0 50 0 50-50 0-50 0 0 75 0 75 50 0 50 0 0 150 0 150 50 0c47 0 50 2 50 25 0 25 0 25-100 25l-100 0 0 50c0 47-2 50-25 50-24 0-25-2-25-75l0-75 50 0 50 0 0-125 0-125-75 0-75 0 0 75c0 73 1 75 25 75 23 0 25-3 25-50 0-47 2-50 25-50 24 0 25 2 25 75l0 75-50 0-50 0 0 100c0 100 0 100-25 100l-25 0 0-200 0-200-150 0-150 0 0-50 0-50-75 0-75 0 0 175 0 175 25 0 25 0 0-150 0-150 25 0c23 0 25 3 25 50l0 50 100 0c100 0 100 0 100 25 0 25 0 25-100 25l-100 0 0 100 0 100-50 0-50 0 0 200 0 200-25 0c-25 0-25 0-25-100l0-100-75 0-75 0 0 250 0 250-25 0-25 0 0-1575zM100 3125c0-23 3-25 50-25 47 0 50-2 50-25 0-23-3-25-50-25-47 0-50-2-50-25 0-24 2-25 75-25l75 0 0 50 0 50 125 0 125 0 0-125 0-125-50 0c-47 0-50-2-50-25 0-23 3-25 50-25l50 0 0-50 0-50 125 0 125 0 0 175 0 175-25 0c-25 0-25 0-25-100l0-100-50 0c-47 0-50-2-50-25 0-23 3-25 50-25 47 0 50-2 50-25 0-24-2-25-75-25l-75 0 0 75 0 75 50 0c47 0 50 2 50 25 0 23-3 25-50 25l-50 0 0 75c0 73 1 75 25 75 23 0 25-3 25-50 0-47 2-50 25-50 23 0 25 3 25 50l0 50 75 0 75 0 0-225 0-225-175 0-175 0 0 50 0 50-50 0-50 0 0 75 0 75 50 0 50 0 0 75c0 73-1 75-25 75-23 0-25-3-25-50 0-47-2-50-25-50-23 0-25 3-25 50 0 47-2 50-25 50-23 0-25-3-25-50l0-50-100 0-100 0 0-125 0-125 25 0c25 0 25 0 25 100l0 100 75 0 75 0 0-200 0-200 75 0c73 0 75 1 75 25 0 23-3 25-50 25l-50 0 0 75c0 73 1 75 25 75 23 0 25-3 25-50l0-50 50 0 50 0 0-75 0-75-50 0c-47 0-50-2-50-25 0-24 2-25 75-25l75 0 0 100c0 100 0 100 25 100l25 0 0-125 0-125-100 0c-100 0-100 0-100-25 0-25 0-25 100-25l100 0 0-50c0-47 2-50 25-50l25 0 0 200 0 200 125 0 125 0 0-50 0-50 100 0 100 0 0-75 0-75-50 0-50 0 0-75c0-73 1-75 25-75 23 0 25 3 25 50l0 50 50 0 50 0 0 50 0 50 100 0 100 0 0 50 0 50 75 0 75 0 0-75c0-73-1-75-25-75-23 0-25 3-25 50 0 47-2 50-25 50-23 0-25-3-25-50l0-50-100 0-100 0 0-125 0-125 25 0c25 0 25 0 25 100l0 100 150 0 150 0 0 150 0 150 50 0c47 0 50 2 50 25 0 23-3 25-50 25l-50 0 0 75 0 75 50 0 50 0 0 50 0 50 75 0 75 0 0-100 0-100 50 0 50 0 0-150 0-150 75 0c73 0 75 1 75 25 0 23-3 25-50 25l-50 0 0 150 0 150-50 0-50 0 0 150 0 150-25 0c-23 0-25-3-25-50 0-47-2-50-25-50-23 0-25 3-25 50 0 47-2 50-25 50-23 0-25-3-25-50l0-50-50 0-50 0 0-50 0-50-50 0-50 0 0-50 0-50-50 0c-47 0-50-2-50-25 0-23 3-25 50-25l50 0 0-75 0-75-100 0-100 0 0-50 0-50-75 0-75 0 0 275 0 275 75 0 75 0 0-50c0-47 2-50 25-50 24 0 25 2 25 75l0 75-175 0-175 0 0-50 0-50-50 0c-47 0-50-2-50-25 0-24 2-25 75-25l75 0 0 50c0 47 2 50 25 50l25 0 0-225 0-225-75 0-75 0 0 50 0 50-50 0-50 0 0 75 0 75 75 0c73 0 75-1 75-25 0-23-3-25-50-25-47 0-50-2-50-25 0-23 3-25 50-25l50 0 0-50c0-47 2-50 25-50l25 0 0 125 0 125-100 0-100 0 0 125 0 125 25 0c23 0 25-3 25-50 0-47 2-50 25-50 23 0 25 3 25 50l0 50 325 0 325 0 0-25c0-23-3-25-50-25l-50 0 0-50c0-47-2-50-25-50-23 0-25 3-25 50 0 47-2 50-25 50-25 0-25 0-25-100l0-100-75 0-75 0 0 50c0 47-2 50-25 50l-25 0 0-225 0-225 25 0c23 0 25 3 25 50l0 50 100 0c100 0 100 0 100 25 0 23-3 25-50 25l-50 0 0 50c0 47-2 50-25 50-23 0-25-3-25-50 0-47-2-50-25-50-24 0-25 2-25 75l0 75 100 0 100 0 0 50 0 50 50 0 50 0 0 50 0 50 50 0 50 0 0 50 0 50 125 0 125 0 0-150 0-150 50 0 50 0 0-100 0-100 150 0 150 0 0-75 0-75-50 0c-47 0-50-2-50-25 0-23 3-25 50-25l50 0 0-100 0-100 150 0 150 0 0-50c0-47 2-50 25-50 24 0 25 2 25 75l0 75-150 0-150 0 0 75 0 75 50 0c47 0 50 2 50 25 0 23-3 25-50 25l-50 0 0 100 0 100-50 0-50 0 0 100c0 100 0 100-25 100-25 0-25 0-25-100l0-100-75 0-75 0 0 100 0 100-50 0-50 0 0 75 0 75 250 0 250 0 0 25 0 25-250 0-250 0 0 25 0 25 275 0 275 0 0-100c0-100 0-100 25-100 25 0 25 0 25 100l0 100 125 0 125 0 0-25c0-23-3-25-50-25l-50 0 0-50c0-47-2-50-25-50-23 0-25 3-25 50 0 47-2 50-25 50-25 0-25 0-25-100l0-100-100 0c-100 0-100 0-100-25 0-25 0-25 100-25l100 0 0-50c0-47 2-50 25-50 25 0 25 0 25 100l0 100 50 0 50 0 0 50 0 50 50 0 50 0 0 50 0 50 125 0 125 0 0-125 0-125-25 0c-25 0-25 0-25 100l0 100-75 0c-73 0-75-1-75-25 0-23 3-25 50-25l50 0 0-100 0-100 50 0 50 0 0-175 0-175-50 0c-47 0-50-2-50-25 0-23 3-25 50-25 47 0 50-2 50-25 0-24-2-25-75-25l-75 0 0 75 0 75 50 0c47 0 50 2 50 25 0 25 0 25-100 25l-100 0 0 75 0 75 75 0c73 0 75-1 75-25 0-23-3-25-50-25-47 0-50-2-50-25 0-24 2-25 75-25l75 0 0 75 0 75-100 0-100 0 0 75c0 73 1 75 25 75 23 0 25-3 25-50 0-47 2-50 25-50 24 0 25 2 25 75l0 75-75 0-75 0 0-200 0-200-50 0-50 0 0-50 0-50-75 0-75 0 0 50 0 50-50 0-50 0 0 75c0 73 1 75 25 75 23 0 25-3 25-50l0-50 50 0 50 0 0-50c0-47 2-50 25-50 23 0 25 3 25 50l0 50 50 0 50 0 0 125 0 125-25 0c-25 0-25 0-25-100l0-100-75 0-75 0 0 50 0 50-100 0-100 0 0 75 0 75 50 0c47 0 50 2 50 25l0 25-225 0-225 0 0-25c0-23 3-25 50-25l50 0 0-100c0-100 0-100 25-100 25 0 25 0 25 100l0 100 75 0 75 0 0-100 0-100 50 0 50 0 0-100 0-100 50 0 50 0 0-50 0-50 125 0 125 0 0 50 0 50 75 0 75 0 0-100 0-100 100 0 100 0 0-75 0-75-100 0-100 0 0-50 0-50-50 0-50 0 0-100c0-100 0-100-25-100-23 0-25 3-25 50 0 47-2 50-25 50l-25 0 0-175 0-175 25 0c25 0 25 0 25 100l0 100 50 0 50 0 0 50 0 50 100 0 100 0 0 75c0 73-1 75-25 75-23 0-25-3-25-50l0-50-75 0c-73 0-75 1-75 25 0 23 3 25 50 25l50 0 0 50 0 50 75 0 75 0 0-225 0-225-25 0c-23 0-25 3-25 50l0 50-50 0c-47 0-50 2-50 25 0 23 3 25 50 25 47 0 50 2 50 25 0 24-2 25-75 25l-75 0 0-50 0-50-50 0-50 0 0-75c0-73 1-75 25-75 23 0 25 3 25 50l0 50 75 0 75 0 0-50 0-50 50 0 50 0 0-125 0-125-100 0c-100 0-100 0-100-25 0-25 0-25 100-25 100 0 100 0 100-25 0-25 0-25-100-25l-100 0 0-125 0-125 25 0c25 0 25 0 25 100l0 100 75 0 75 0 0-125 0-125-25 0c-25 0-25 0-25 100 0 100 0 100-25 100-25 0-25 0-25-100l0-100-75 0-75 0 0 50c0 47-2 50-25 50-23 0-25-3-25-50 0-47-2-50-25-50-24 0-25 2-25 75l0 75 50 0 50 0 0 150 0 150 100 0c100 0 100 0 100 25l0 25-225 0-225 0 0-50c0-47-2-50-25-50l-25 0 0 125 0 125 25 0c23 0 25-3 25-50l0-50 225 0 225 0 0 25c0 23-3 25-50 25l-50 0 0 50c0 47-2 50-25 50-23 0-25-3-25-50l0-50-125 0-125 0 0 200 0 200-100 0-100 0 0 50c0 47-2 50-25 50-23 0-25-3-25-50l0-50-75 0-75 0 0 50 0 50-100 0-100 0 0 75 0 75 50 0c47 0 50 2 50 25 0 24-2 25-75 25l-75 0 0-50c0-47-2-50-25-50-23 0-25 3-25 50 0 47-2 50-25 50-23 0-25-3-25-50l0-50-75 0-75 0 0 50c0 47-2 50-25 50-23 0-25-3-25-50l0-50-50 0-50 0 0-100 0-100-75 0-75 0 0 100c0 100 0 100-25 100-25 0-25 0-25-100l0-100-50 0-50 0 0-175 0-175 50 0 50 0 0-50 0-50 175 0 175 0 0 25c0 25 0 25-100 25l-100 0 0 50c0 47-2 50-25 50-23 0-25-3-25-50 0-47-2-50-25-50-23 0-25 3-25 50l0 50-50 0-50 0 0 125 0 125 75 0 75 0 0-50c0-47 2-50 25-50 23 0 25 3 25 50l0 50 50 0 50 0 0 100 0 100 75 0c73 0 75-1 75-25 0-23-3-25-50-25l-50 0 0-100 0-100-50 0-50 0 0-50 0-50-75 0-75 0 0 50c0 47-2 50-25 50-24 0-25-2-25-75l0-75 100 0 100 0 0-50 0-50 75 0c73 0 75 1 75 25 0 23-3 25-50 25l-50 0 0 75 0 75 125 0 125 0 0-50c0-47 2-50 25-50 23 0 25 3 25 50l0 50 50 0c47 0 50 2 50 25 0 23-3 25-50 25l-50 0 0 100c0 100 0 100-25 100-23 0-25-3-25-50l0-50-50 0c-47 0-50-2-50-25 0-23 3-25 50-25 47 0 50-2 50-25 0-24-2-25-75-25l-75 0 0 75 0 75 50 0 50 0 0 50 0 50 75 0 75 0 0-100c0-100 0-100 25-100 23 0 25 3 25 50l0 50 75 0c73 0 75-1 75-25 0-23-3-25-50-25l-50 0 0-100 0-100-50 0-50 0 0-50 0-50-75 0-75 0 0 50 0 50-75 0c-73 0-75-1-75-25 0-23 3-25 50-25l50 0 0-100 0-100 50 0 50 0 0-100 0-100 75 0 75 0 0 75c0 73-1 75-25 75-23 0-25-3-25-50 0-47-2-50-25-50-24 0-25 2-25 75l0 75 75 0 75 0 0-250 0-250 50 0 50 0 0-50 0-50 50 0 50 0 0-100c0-100 0-100 25-100 25 0 25 0 25 100l0 100 125 0 125 0 0-50 0-50 100 0 100 0 0-50c0-47 2-50 25-50 23 0 25 3 25 50 0 47 2 50 25 50 24 0 25-2 25-75l0-75-50 0-50 0 0-75c0-73 1-75 25-75 23 0 25 3 25 50l0 50 75 0 75 0 0-50c0-47 2-50 25-50 24 0 25 2 25 75l0 75-50 0-50 0 0 75 0 75 50 0c47 0 50 2 50 25l0 25-200 0-200 0 0 50 0 50-50 0-50 0 0 75c0 73 1 75 25 75 23 0 25-3 25-50 0-47 2-50 25-50 25 0 25 0 25 100l0 100 50 0 50 0 0 75c0 73-1 75-25 75-23 0-25-3-25-50l0-50-50 0-50 0 0-50 0-50-50 0-50 0 0-100c0-100 0-100-25-100-23 0-25 3-25 50 0 47-2 50-25 50-23 0-25-3-25-50l0-50-75 0c-73 0-75 1-75 25 0 23 3 25 50 25 47 0 50 2 50 25 0 25 0 25-100 25l-100 0 0 175 0 175 50 0c47 0 50 2 50 25 0 23-3 25-50 25-47 0-50 2-50 25l0 25 125 0 125 0 0-50c0-47 2-50 25-50l25 0 0 150 0 150 50 0 50 0 0 75c0 73-1 75-25 75-23 0-25-3-25-50l0-50-50 0-50 0 0-100 0-100-275 0-275 0 0 25c0 25 0 25 100 25l100 0 0 50 0 50 100 0c100 0 100 0 100 25 0 23-3 25-50 25l-50 0 0 75 0 75 125 0 125 0 0-25c0-25 0-25-100-25-100 0-100 0-100-25 0-23 3-25 50-25l50 0 0-75 0-75-100 0c-100 0-100 0-100-25l0-25 125 0 125 0 0 100 0 100 50 0 50 0 0 50 0 50 75 0 75 0 0-125 0-125-50 0-50 0 0-150 0-150-50 0-50 0 0-50 0-50-50 0c-47 0-50-2-50-25 0-23 3-25 50-25 47 0 50-2 50-25 0-24-2-25-75-25l-75 0 0 75 0 75 50 0 50 0 0 75c0 73-1 75-25 75-23 0-25-3-25-50l0-50-50 0-50 0 0-125 0-125 125 0 125 0 0 100c0 100 0 100 25 100 23 0 25-3 25-50 0-47 2-50 25-50 23 0 25 3 25 50l0 50 50 0 50 0 0 50 0 50 75 0 75 0 0-125 0-125-50 0-50 0 0-125 0-125 200 0 200 0 0-75 0-75-50 0c-47 0-50-2-50-25 0-23 3-25 50-25l50 0 0-125 0-125-75 0-75 0 0 50c0 47-2 50-25 50-23 0-25-3-25-50l0-50-75 0-75 0 0 150 0 150-100 0-100 0 0 50c0 47-2 50-25 50-25 0-25 0-25-100 0-100 0-100-25-100-25 0-25 0-25 100 0 100 0 100-25 100-25 0-25 0-25-100l0-100-75 0-75 0 0 50c0 47-2 50-25 50-23 0-25-3-25-50l0-50-50 0c-47 0-50-2-50-25 0-25 0-25 100-25 100 0 100 0 100-25l0-25-150 0-150 0 0-25c0-23 3-25 50-25 47 0 50-2 50-25l0-25-150 0-150 0 0-50 0-50-100 0c-100 0-100 0-100-25l0-25 125 0 125 0 0 50 0 50 150 0 150 0 0 50 0 50 100 0 100 0 0 50 0 50 75 0 75 0 0-100c0-100 0-100 25-100 23 0 25 3 25 50l0 50 50 0c47 0 50 2 50 25 0 23-3 25-50 25l-50 0 0 75 0 75 75 0c73 0 75-1 75-25 0-23-3-25-50-25-47 0-50-2-50-25 0-23 3-25 50-25l50 0 0-175 0-175-50 0-50 0 0-50c0-47-2-50-25-50-23 0-25 3-25 50 0 47-2 50-25 50-23 0-25-3-25-50l0-50-50 0c-47 0-50-2-50-25l0-25 125 0 125 0 0 50 0 50 125 0 125 0 0-50c0-47 2-50 25-50 25 0 25 0 25 100l0 100 50 0c47 0 50 2 50 25 0 24-2 25-75 25l-75 0 0-50 0-50-75 0-75 0 0 75c0 73 1 75 25 75 23 0 25-3 25-50 0-47 2-50 25-50 23 0 25 3 25 50l0 50 125 0 125 0 0-200 0-200 25 0 25 0 0 1575 0 1575-1525 0-1525 0 0-25z"/>
	</g>
</svg>
