<?xml version="1.0" encoding="UTF-8" standalone="no"?>
<!-- Created with Inkscape (http://www.inkscape.org/) -->

<svg
   xmlns:dc="http://purl.org/dc/elements/1.1/"
   xmlns:cc="http://creativecommons.org/ns#"
   xmlns:rdf="http://www.w3.org/1999/02/22-rdf-syntax-ns#"
   xmlns:svg="http://www.w3.org/2000/svg"
   xmlns="http://www.w3.org/2000/svg"
   xmlns:sodipodi="http://sodipodi.sourceforge.net/DTD/sodipodi-0.dtd"
   xmlns:inkscape="http://www.inkscape.org/namespaces/inkscape"
   id="svg2"
   sodipodi:docname="diversemeeting.svg"
   inkscape:export-filename="/home/yves/Bureau/meeting.png"
   viewBox="0 0 1059.9999 790.00003"
   inkscape:export-xdpi="171"
   version="1.1"
   inkscape:export-ydpi="171"
   inkscape:version="0.91 r13725"
   width="1060"
   height="790">
  <defs
     id="defs4">
    <filter
       id="filter5371-0"
       height="3.1508999"
       width="3.1508999"
       y="-1.0755"
       x="-1.0755"
       inkscape:collect="always"
       style="color-interpolation-filters:sRGB">
      <feGaussianBlur
         id="feGaussianBlur5373-2"
         stdDeviation="19.681861"
         inkscape:collect="always" />
    </filter>
    <filter
       id="filter5371-2"
       height="3.1508999"
       width="3.1508999"
       y="-1.0755"
       x="-1.0755"
       inkscape:collect="always"
       style="color-interpolation-filters:sRGB">
      <feGaussianBlur
         id="feGaussianBlur5373-4"
         stdDeviation="19.681861"
         inkscape:collect="always" />
    </filter>
  </defs>
  <sodipodi:namedview
     id="base"
     bordercolor="#666666"
     inkscape:pageshadow="2"
     inkscape:window-y="1"
     fit-margin-left="0"
     pagecolor="#ffffff"
     fit-margin-top="0"
     inkscape:window-maximized="1"
     inkscape:zoom="0.35739105"
     inkscape:window-x="4"
     inkscape:window-height="1035"
     showgrid="false"
     borderopacity="1.0"
     inkscape:current-layer="layer5"
     inkscape:cx="714.78673"
     inkscape:cy="366.70063"
     fit-margin-right="0"
     fit-margin-bottom="0"
     inkscape:window-width="1916"
     inkscape:pageopacity="0.0"
     inkscape:document-units="px" />
  <g
     id="layer5"
     inkscape:label="personnages2"
     inkscape:groupmode="layer"
     transform="translate(-210.49459,-115.62192)">
    <path
       style="fill:#fbfbfb;fill-opacity:1;fill-rule:evenodd;stroke:none;stroke-width:1px;stroke-linecap:butt;stroke-linejoin:miter;stroke-opacity:1"
       d="m 842.12685,290.78192 -36.3376,32.06259 49.16264,53.43766 54.50641,-48.09389 z"
       id="path43102"
       inkscape:connector-curvature="0" />
    <g
       transform="matrix(-0.45572,0,0,0.45572,1038,86.455)"
       inkscape:label="Layer 1"
       id="layer1-4"
       style="stroke-width:19.74896812;stroke-miterlimit:4;stroke-dasharray:none">
      <path
         d="M 420.85,559.53 C 298.33,390.66 157.74,537.71 151,744 c 30.426,22.479 61.762,30.002 82.034,-14.203 47.661,37.78 224.08,28.374 281.35,-4.0891 10.558,14.623 20.058,62.774 85.186,15.435 -5.06,-203.42 -124.44,-386.98 -178.72,-181.61 z"
         inkscape:connector-curvature="0"
         sodipodi:nodetypes="cccccc"
         style="fill:#ff6b31;stroke:#001a37;stroke-width:19.74896812;stroke-linecap:round;stroke-linejoin:round;stroke-miterlimit:4;stroke-dasharray:none;stroke-opacity:1"
         id="path2816-9" />
      <circle
         r="21.960814"
         cy="606.99689"
         cx="296.03177"
         transform="matrix(2.4218,0,0,2.2948,-429.68,-803.54)"
         style="fill:#ffffff;stroke-width:8.37727642;stroke-miterlimit:4;stroke-dasharray:none;filter:url(#filter5371-0)"
         id="path5341-1" />
      <circle
         r="185.71428"
         cy="286.64789"
         cx="440"
         transform="matrix(0.99993,0,0,1.052,-59.97,9.0539)"
         style="fill:#ffc6b1;fill-rule:evenodd;stroke:#001a37;stroke-width:19.25536537;stroke-miterlimit:4;stroke-dasharray:none;stroke-opacity:1"
         id="path2818-2" />
      <path
         d="m 178.89,316.93 c 196.29,19.534 35.994,-64.722 139.14,-139.14 78.948,23.875 131.94,-36.662 216.16,24.846 L 571.459,150.46 C 328.059,-5.5 170.159,140.38 178.889,316.93 Z"
         inkscape:connector-curvature="0"
         sodipodi:nodetypes="ccccc"
         style="fill:#958d8d;fill-opacity:1;stroke:#000000;stroke-width:19.74896812;stroke-miterlimit:4;stroke-dasharray:none"
         id="path5478-3" />
    </g>
    <g
       transform="matrix(-2.2233,0,0,2.4573,2261.8,-671.95)"
       inkscape:label="Layer 1"
       id="layer1-7"
       style="stroke-width:3.85047579;stroke-miterlimit:4;stroke-dasharray:none">
      <path
         d="m 509.03,412.37 c -27.838,0.79014 -49.674,46.376 -39.376,61.835 10.297,15.459 70.722,15.459 80.566,0 9.8441,-15.459 -12.446,-62.651 -41.19,-61.835 z"
         inkscape:connector-curvature="0"
         sodipodi:nodetypes="cssz"
         style="fill:#ff8080;fill-rule:evenodd;stroke:#001a37;stroke-width:3.85047579;stroke-miterlimit:4;stroke-dasharray:none;stroke-opacity:1"
         id="path7471" />
      <path
         d="m 488.31,421.68 46.403,0 c 0,0 0.74046,46.103 -15.797,46.103 -15.55,0 -30.606,-46.103 -30.606,-46.103 z"
         inkscape:connector-curvature="0"
         sodipodi:nodetypes="cczc"
         style="fill:#ffffff;fill-rule:evenodd;stroke:#383838;stroke-width:3.85047579;stroke-miterlimit:4;stroke-dasharray:none"
         id="path7473" />
      <path
         sodipodi:start="0"
         sodipodi:end="6.2750861"
         sodipodi:cx="450.37299"
         sodipodi:cy="320.73038"
         transform="matrix(0.74318,0,0,0.82978,176.87,136.32)"
         sodipodi:open="true"
         d="m 496.96329,320.73038 a 46.590309,46.590309 0 0 1 -46.49597,46.59021 46.590309,46.590309 0 0 1 -46.68426,-46.40154 46.590309,46.590309 0 0 1 46.30692,-46.77812 46.590309,46.590309 0 0 1 46.87179,46.21211"
         sodipodi:type="arc"
         style="fill:#ffd9aa;fill-opacity:1;fill-rule:evenodd;stroke:#001a37;stroke-width:4.9032712;stroke-miterlimit:4;stroke-dasharray:none;stroke-opacity:1"
         sodipodi:ry="46.590309"
         sodipodi:rx="46.590309"
         id="path7475" />
      <path
         d="m 498.61,391.45 c 0,0 16.104,17.022 32.633,15.694 16.554,-1.3301 27.705,-9.0433 27.705,-9.0433 0,0 -8.5375,-46.539 -46.679,-47.309 -29.86,-0.62546 -44.563,28.039 -48.921,47.309 -4.4142,19.518 1.6412,19.444 8.0934,17.781 6.4522,-1.6627 27.169,-24.432 27.169,-24.432 z"
         inkscape:connector-curvature="0"
         sodipodi:nodetypes="czcszsc"
         style="fill:#252935;fill-opacity:1;fill-rule:evenodd;stroke:#001a37;stroke-width:3.85047579;stroke-miterlimit:4;stroke-dasharray:none;stroke-opacity:1"
         id="path7477" />
      <path
         d="m 565.06,449.39 c 4.2213,5.6753 2.2088,14.329 -4.4914,19.312 -6.7001,4.9835 -15.567,4.4219 -19.788,-1.2534 l -0.063,-0.0846 c -2.4644,-3.3803 -2.9066,-17.882 1.4793,-20.907 4.8284,-3.3303 18.642,-2.7425 22.863,2.9328 z"
         inkscape:connector-curvature="0"
         sodipodi:nodetypes="cscczs"
         style="fill:#ffd9aa;fill-opacity:1;fill-rule:evenodd;stroke:#001a37;stroke-width:3.85047579;stroke-miterlimit:4;stroke-dasharray:none;stroke-opacity:1"
         id="path8544" />
    </g>
    <g
       transform="matrix(2.0869,0,0,2.0869,13.015,-352.4)"
       inkscape:label="Layer 1"
       id="layer1-77"
       style="stroke-width:4.31261683;stroke-miterlimit:4;stroke-dasharray:none">
      <path
         d="m 229.97,289.15 c -29.168,0.82788 -52.047,48.591 -41.257,64.788 10.789,16.197 74.1,16.197 84.414,0 10.314,-16.197 -13.041,-65.643 -43.157,-64.788 z"
         inkscape:connector-curvature="0"
         sodipodi:nodetypes="cssz"
         style="fill:#e9eeef;fill-opacity:1;fill-rule:evenodd;stroke:#001a37;stroke-width:4.31261683;stroke-miterlimit:4;stroke-dasharray:none;stroke-opacity:1"
         id="path7363" />
      <path
         d="m 232.15,318.46 6.8946,7.1627 -3.8949,23.092 16.969,9.7652 6.3496,-15.475 -12.062,-18.56 2.552,-9.6971 -16.809,3.7128 z"
         inkscape:connector-curvature="0"
         sodipodi:nodetypes="cccccccc"
         style="fill:#0000ff;fill-rule:evenodd;stroke:#001a37;stroke-width:4.31261683;stroke-miterlimit:4;stroke-dasharray:none;stroke-opacity:1"
         id="path7365" />
      <path
         sodipodi:start="0"
         sodipodi:end="6.2750861"
         sodipodi:cx="450.37299"
         sodipodi:cy="320.73038"
         transform="matrix(-0.77868,0,0,0.86941,583.33,-0.08126)"
         sodipodi:open="true"
         d="m 496.96329,320.73038 a 46.590309,46.590309 0 0 1 -46.49597,46.59021 46.590309,46.590309 0 0 1 -46.68426,-46.40154 46.590309,46.590309 0 0 1 46.30692,-46.77812 46.590309,46.590309 0 0 1 46.87179,46.21211"
         sodipodi:type="arc"
         style="fill:#d38d5f;fill-rule:evenodd;stroke:#001a37;stroke-width:5.24142122;stroke-miterlimit:4;stroke-dasharray:none;stroke-opacity:1"
         sodipodi:ry="46.590309"
         sodipodi:rx="46.590309"
         id="path7367" />
      <path
         d="m 211.51,261.38 c 0,0 13.915,12.293 29.502,11.334 15.612,-0.9606 26.10175,-6.531 26.10175,-6.531 0,0 5.98475,-35.56 -35.08075,-36.117 -28.163,-0.38984 -39.483,12.515 -44.864,36.117 -5.4366,23.848 12.66185,39.38037 12.66185,39.38037 0,0 4.91685,-9.31637 8.60425,-19.97837 2.47989,-7.78335 3.33475,-16.05839 3.0749,-24.205 z"
         inkscape:connector-curvature="0"
         sodipodi:nodetypes="czcszccc"
         style="fill:#25272d;fill-opacity:1;fill-rule:evenodd;stroke:#001a37;stroke-width:4.31261683;stroke-miterlimit:4;stroke-dasharray:none;stroke-opacity:1"
         id="path7369" />
      <path
         d="m 273.57,325.48 c 8.9097,-1.9455 14.915,1.4137 14.915,8.4867 0,7.073 -0.69051,12.717 -13.861,12.483 -12.245,-0.21763 -12.124,-7.8462 -12.124,-14.919 l 0,-0.10547 c 0.04,-4.1831 0.47242,-20.52 7.2089,-20.353 7.2076,0.17798 6.2122,5.6605 3.861,14.408 z"
         inkscape:connector-curvature="0"
         sodipodi:nodetypes="cssccsc"
         style="fill:#d38d5f;fill-opacity:1;fill-rule:evenodd;stroke:#001a37;stroke-width:4.31261683;stroke-miterlimit:4;stroke-dasharray:none;stroke-opacity:1"
         id="path8552" />
    </g>
    <rect
       x="375.09293"
       y="436.27261"
       width="28.626879"
       height="218.47906"
       transform="matrix(0.99944423,-0.03333514,0.03333514,0.99944423,0,0)"
       style="color:#000000;fill:#666666;stroke:#999999;stroke-width:9;stroke-linecap:round;stroke-linejoin:round;stroke-miterlimit:4;stroke-dasharray:none"
       ry="6.4604726"
       id="rect3111" />
    <rect
       x="860.20502"
       y="614.36249"
       width="34.780998"
       height="265.44"
       transform="matrix(0.99975763,0.02201555,-0.02201555,0.99975763,0,0)"
       style="color:#000000;fill:#808080;stroke:#000000;stroke-width:9;stroke-linecap:round;stroke-linejoin:round;stroke-miterlimit:4;stroke-dasharray:none;stroke-opacity:1"
       ry="7.8491998"
       id="rect3113" />
    <rect
       x="1153.8364"
       y="459.07147"
       width="30.356001"
       height="231.67999"
       transform="matrix(0.99710209,0.07607514,-0.07607514,0.99710209,0,0)"
       style="color:#000000;fill:#666666;stroke:#999999;stroke-width:9;stroke-linecap:round;stroke-linejoin:round;stroke-miterlimit:4;stroke-dasharray:none"
       ry="6.8506999"
       id="rect3115" />
    <g
       transform="translate(-196,295.14)"
       style="color:#000000;fill:#fce7cb;stroke:#000000;stroke-width:9;stroke-linecap:round;stroke-linejoin:round;stroke-miterlimit:4;stroke-dasharray:none;stroke-opacity:1"
       id="g3083">
      <path
         inkscape:connector-curvature="0"
         style="fill:#ac9393;stroke:#000000;stroke-width:9;stroke-miterlimit:4;stroke-dasharray:none;stroke-opacity:1"
         d="M 547.36,152.29 1074.7,407.93 1387.5,247.28 877.16,50.13 Z"
         id="path3807" />
      <path
         inkscape:connector-curvature="0"
         style="fill:#353564;fill-rule:evenodd;stroke:#000000;stroke-width:9;stroke-miterlimit:4;stroke-dasharray:none;stroke-opacity:1"
         d="m 547.36,152.29 0,-16.242 329.8,-100.09 0,14.168 z"
         id="path3809" />
      <path
         inkscape:connector-curvature="0"
         style="fill:#e9e9ff;fill-rule:evenodd;stroke:#000000;stroke-width:9;stroke-miterlimit:4;stroke-dasharray:none;stroke-opacity:1"
         d="m 877.16,50.129 510.37,197.15 0,-16.885 -510.34,-194.44 z"
         id="path3811" />
      <path
         inkscape:connector-curvature="0"
         style="fill:#7f4f30;fill-opacity:1;fill-rule:evenodd;stroke:#000000;stroke-width:9;stroke-miterlimit:4;stroke-dasharray:none;stroke-opacity:1"
         d="M 547.36,136.05 1074.7,388.01 1387.5,230.4 877.16,35.96 Z"
         id="path3813" />
      <path
         inkscape:connector-curvature="0"
         style="fill:#5a3f2a;stroke:#000000;stroke-width:9;stroke-miterlimit:4;stroke-dasharray:none;stroke-opacity:1"
         d="m 1074.7,407.93 0,-19.915 312.79,-157.61 0,16.885 z"
         id="path3815" />
      <path
         inkscape:connector-curvature="0"
         style="fill:#5a3f2a;stroke:#000000;stroke-width:9;stroke-miterlimit:4;stroke-dasharray:none;stroke-opacity:1"
         d="m 547.36,152.29 527.38,255.64 0,-19.915 -527.38,-251.96 z"
         id="path3817" />
    </g>
    <g
       transform="matrix(2.9478,0,0,2.9478,-1954.2,645.06)"
       id="g3558"
       style="stroke-width:3.05312443;stroke-miterlimit:4;stroke-dasharray:none">
      <path
         sodipodi:start="3.7421048"
         sodipodi:end="3.5128666"
         sodipodi:cx="450.37299"
         sodipodi:cy="320.73038"
         transform="matrix(0.77868,0,0,0.86941,433.18,-328.95)"
         sodipodi:open="true"
         d="m 411.93382,294.40382 a 46.590309,46.590309 0 0 1 62.52078,-13.55744 46.590309,46.590309 0 0 1 17.11625,61.64159 46.590309,46.590309 0 0 1 -60.56,20.61887 46.590309,46.590309 0 0 1 -24.05379,-59.27956"
         sodipodi:type="arc"
         style="fill:#ffccaa;fill-rule:evenodd;stroke:#001a37;stroke-width:3.71067286;stroke-miterlimit:4;stroke-dasharray:none"
         sodipodi:ry="46.590309"
         sodipodi:rx="46.590309"
         id="path7439" />
      <path
         d="m 822.32,0.75677 c 3.1555,-0.57585 5.8382,-21.682 19.471,-17.945 13.913,3.8141 8.8541,16.814 6.1772,24.148 -2.5028,6.8568 -8.3772,18.084 -21.441,13.717 -11.344,-3.7917 -17.888,-24.541 -12.729,-25.792 5.4424,-1.3206 5.3662,6.4476 8.5218,5.8717 z"
         inkscape:connector-curvature="0"
         sodipodi:nodetypes="czsszz"
         style="fill:#ffccaa;fill-rule:evenodd;stroke:#001a37;stroke-width:3.05312443;stroke-miterlimit:4;stroke-dasharray:none"
         id="path8550" />
      <path
         d="m 781.21,-39.712 c -29.168,0.82787 -52.047,48.591 -41.257,64.788 10.789,16.197 74.1,16.197 84.414,0 10.314,-16.197 -13.041,-65.643 -43.157,-64.788 z"
         inkscape:connector-curvature="0"
         sodipodi:nodetypes="cssz"
         style="fill:#f9f6f1;fill-opacity:1;fill-rule:evenodd;stroke:#001a37;stroke-width:3.05312443;stroke-miterlimit:4;stroke-dasharray:none"
         id="path7435" />
      <path
         d="m 792.72,-10.381 c 6.9666,0.50807 21.711,-26.026 16.584,-31.026 -5.1262,-5 15.656,-25.583 15.656,-25.583 0,0 -7.1187,-28.444 -29.786,-30.972 -22.634,-2.5241 -48.848,3.9289 -56.153,29.636 -7.3906,26.008 12.212,43.514 12.212,43.514 10.05,10.409 10.724,10.231 17.687,11.663 0,0 8.7995,1.6753 23.8,2.7692 z"
         inkscape:connector-curvature="0"
         sodipodi:nodetypes="szczzccs"
         style="fill:#b5a153;fill-opacity:1;fill-rule:evenodd;stroke:#001a37;stroke-width:3.05312443;stroke-miterlimit:4;stroke-dasharray:none"
         id="path7441" />
    </g>
    <g
       transform="matrix(0.62036,0,0,0.62036,1171,754.17)"
       id="g3613"
       style="stroke-width:14.50770473;stroke-miterlimit:4;stroke-dasharray:none">
      <g
         transform="translate(-1173.7,-531.98)"
         inkscape:label="Layer 1"
         id="layer1-9"
         style="stroke-width:14.50770473;stroke-miterlimit:4;stroke-dasharray:none">
        <path
           d="M 415.14,496.67 C 284.05,447.795 157.74,537.709 151.01,744 c 30.426,22.479 61.762,30.002 82.034,-14.203 47.661,37.78 224.08,28.374 281.35,-4.0891 10.558,14.623 20.058,62.774 85.186,15.435 -5.07,-203.43 -53.03,-364.13 -184.44,-244.48 z"
           style="fill:#ffd24a;stroke:#001a37;stroke-width:14.50770473;stroke-linecap:round;stroke-linejoin:round;stroke-miterlimit:4;stroke-dasharray:none;stroke-opacity:1"
           sodipodi:nodetypes="cccccc"
           inkscape:connector-curvature="0"
           id="path2816-8" />
        <circle
           r="21.960814"
           cy="606.99689"
           cx="296.03177"
           transform="matrix(2.4218,0,0,2.2948,-429.68,-803.54)"
           style="fill:#ffffff;stroke-width:6.15399551;stroke-miterlimit:4;stroke-dasharray:none;filter:url(#filter5371-2)"
           id="path5341-4" />
        <circle
           r="185.71428"
           cy="286.64789"
           cx="440"
           transform="matrix(0.99993,0,0,1.052,-59.97,9.0539)"
           style="fill:#ffc6b1;fill-rule:evenodd;stroke:#000000;stroke-width:14.14510059;stroke-miterlimit:4;stroke-dasharray:none"
           id="path2818-0" />
        <path
           d="m 163.98,453.58 c 65.427,7.4716 94.25761,91.86693 159.68161,60.25093 C 452.8949,560.8959 505.38958,472.29689 631.71,403.0146 599,-55.8154 93.14,65.8346 163.98,453.5746 Z"
           style="fill:#845000;stroke:#001a37;stroke-width:14.50770473;stroke-miterlimit:4;stroke-dasharray:none;stroke-opacity:1"
           sodipodi:nodetypes="ccccc"
           inkscape:connector-curvature="0"
           id="path5478-8" />
      </g>
    </g>
    <g
       transform="translate(-41.714,-4.8571)"
       id="g3646"
       style="stroke-width:9;stroke-miterlimit:4;stroke-dasharray:none">
      <path
         d="m 1043.8,745.74 c -9.7721,-1.6978 -18.08,-63.925 -60.299,-52.906 -43.085,11.245 -27.419,49.573 -19.13,71.196 7.7506,20.216 25.943,53.315 66.399,40.442 35.13,-11.179 55.397,-72.352 39.42,-76.043 -16.854,-3.8936 -16.618,19.009 -26.39,17.311 z"
         inkscape:connector-curvature="0"
         sodipodi:nodetypes="czsszz"
         style="fill:#ffccaa;fill-rule:evenodd;stroke:#001a37;stroke-width:9;stroke-miterlimit:4;stroke-dasharray:none"
         id="path8550-7" />
      <path
         d="m 1171.1,626.43 c 90.327,2.4408 161.18,143.26 127.77,191.01 -33.412,47.753 -229.47,47.753 -261.42,0 -31.942,-47.753 40.384,-193.53 133.65,-191.01 z"
         inkscape:connector-curvature="0"
         sodipodi:nodetypes="cssz"
         style="fill:#ffffff;fill-rule:evenodd;stroke:#001a37;stroke-width:9;stroke-miterlimit:4;stroke-dasharray:none"
         id="path7435-8" />
      <path
         d="m 1128.6,677.1 -21.351,21.118 -39.367,46.652 -24.693,39.505 6.7651,-53.482 c 14.894,-16.905 22.045,-17.909 34.496,-36.149 l -7.9032,-28.59 z"
         inkscape:connector-curvature="0"
         sodipodi:nodetypes="cccccccc"
         style="fill:#e48f8f;fill-opacity:1;fill-rule:evenodd;stroke:#001a37;stroke-width:9;stroke-miterlimit:4;stroke-dasharray:none"
         id="path7437" />
      <path
         sodipodi:start="3.7421048"
         sodipodi:end="3.5128666"
         sodipodi:cx="450.37299"
         sodipodi:cy="320.73038"
         transform="matrix(-2.4114,0,0,2.5633,2248.9,-226.32)"
         sodipodi:open="true"
         d="m 411.93382,294.40382 a 46.590309,46.590309 0 0 1 62.52078,-13.55744 46.590309,46.590309 0 0 1 17.11625,61.64159 46.590309,46.590309 0 0 1 -60.56,20.61887 46.590309,46.590309 0 0 1 -24.05379,-59.27956"
         sodipodi:type="arc"
         style="fill:#ffccaa;fill-rule:evenodd;stroke:#001a37;stroke-width:3.61999655;stroke-miterlimit:4;stroke-dasharray:none"
         sodipodi:ry="46.590309"
         sodipodi:rx="46.590309"
         id="path7439-0" />
      <path
         d="m 1155.6,569.43 c 0,0 11.588,6.7255 -34.447,6.7255 -43.296,0 -85.536,-30.149 -85.536,-30.149 0,0 22.045,-83.862 92.242,-91.315 70.092,-7.4418 151.27,11.583 173.9,87.374 22.887,76.678 -37.819,128.29 -37.819,128.29 l -85.424,9.3363 -11.699,-53.67 z"
         inkscape:connector-curvature="0"
         sodipodi:nodetypes="czczzcccc"
         style="fill:#918a6f;fill-rule:evenodd;stroke:#001a37;stroke-width:9;stroke-miterlimit:4;stroke-dasharray:none"
         id="path7441-7" />
      <path
         d="m 1142.5,604.63 c 8.8014,-23.733 38.372,-15.642 40.027,10.633 1.8859,29.939 -37.42,35.01 -37.42,35.01"
         inkscape:connector-curvature="0"
         sodipodi:nodetypes="csc"
         style="fill:#ffccaa;fill-rule:evenodd;stroke:#001a37;stroke-width:9;stroke-miterlimit:4;stroke-dasharray:none"
         id="path7443" />
    </g>
  </g>
  <metadata
     id="metadata42515">
    <rdf:RDF>
      <cc:Work>
        <dc:format>image/svg+xml</dc:format>
        <dc:type
           rdf:resource="http://purl.org/dc/dcmitype/StillImage" />
        <cc:license
           rdf:resource="http://creativecommons.org/publicdomain/zero/1.0/" />
        <dc:publisher>
          <cc:Agent
             rdf:about="http://openclipart.org/">
            <dc:title>Openclipart</dc:title>
          </cc:Agent>
        </dc:publisher>
        <dc:title>meeting</dc:title>
        <dc:date>2010-12-04T08:46:47</dc:date>
        <dc:description>remixed with other OCAL submissions </dc:description>
        <dc:source>https://openclipart.org/detail/99271/meeting-by-yves_guillou</dc:source>
        <dc:creator>
          <cc:Agent>
            <dc:title>yves_guillou</dc:title>
          </cc:Agent>
        </dc:creator>
        <dc:subject>
          <rdf:Bag>
            <rdf:li>meeting</rdf:li>
            <rdf:li>people</rdf:li>
          </rdf:Bag>
        </dc:subject>
      </cc:Work>
      <cc:License
         rdf:about="http://creativecommons.org/publicdomain/zero/1.0/">
        <cc:permits
           rdf:resource="http://creativecommons.org/ns#Reproduction" />
        <cc:permits
           rdf:resource="http://creativecommons.org/ns#Distribution" />
        <cc:permits
           rdf:resource="http://creativecommons.org/ns#DerivativeWorks" />
      </cc:License>
    </rdf:RDF>
  </metadata>
</svg>
