<?xml version="1.0" encoding="utf-8"?>
<svg version="1.1" id="Layer_1" xmlns="http://www.w3.org/2000/svg" xmlns:xlink="http://www.w3.org/1999/xlink" x="0px" y="0px"
	 viewBox="0 0 1679.17 1645.123" enable-background="new 0 0 1679.17 1645.123" xml:space="preserve">
<g>
	<path fill="#281D00" stroke="#281D00" d="M604.865,75.708c70.253-37.995,150.942-54.471,230.462-53.064
		c18.056,0.043,36.09-0.087,54.146,0.043c45.248,1.299,90.409,8.378,133.622,21.953c70.838,22.321,137.259,63.304,182.594,122.862
		c7.426,10.305,15.956,20.394,19.55,32.799c22.256,99.762,31.955,202.209,30.137,304.374
		c-1.905,78.091-10.002,156.16-26.305,232.583c-19.68-7.599-37.801-23.988-41.069-45.681c-2.88-21.13,4.72-41.654,9.634-61.897
		c10.175-36.978,16.887-74.973,18.359-113.315c1.71-45.811-1.948-92.185-14.83-136.307c-10.37-39.273-23.447-77.853-39.922-115.004
		c-22.472,11.171-44.317,23.663-67.699,32.929c-50.098,20.935-104.114,33.947-158.628,33.189
		c-36.112,0.281-71.596-7.383-106.625-15.35c-59.45-13.813-118.965-27.517-179.173-37.671
		c-45.551-5.759-92.055,0.541-135.831,13.726c-7.945,2.62-17.32,4.763-21.91,12.492c-6.473,10.673-5.369,23.771-3.464,35.571
		c6.149,35.246-3.724,70.383-6.646,105.413c-3.096,32.085-2.078,64.689,4.33,96.32c4.546,23.425,11.886,46.179,19.745,68.651
		c5.153,15.133,10.11,30.569,11.041,46.612c1.234,19.983-3.204,39.9-10.175,58.519c-2.685,6.278-5.477,13.25-11.453,17.103
		c-5.802,2.966-11.041-2.338-13.878-6.863c-8.032-12.773-12.232-27.474-16.411-41.849c-15.718-58.909-22.667-119.745-26.737-180.451
		c-1.797-41.243-1.364-82.615,2.598-123.728c5.694-62.633,19.333-124.335,37.671-184.413c2.685-6.798,7.036-12.752,11.171-18.749
		C518.937,134.27,559.552,100.28,604.865,75.708z"/>
	<path fill="#E5B295" stroke="#E5B295" d="M1093.543,297.986c23.382-9.266,45.226-21.758,67.699-32.929
		c16.476,37.151,29.552,75.731,39.922,115.004c12.882,44.122,16.54,90.496,14.83,136.307c-1.472,38.342-8.184,76.337-18.359,113.315
		c-4.914,20.242-12.514,40.766-9.634,61.897c3.269,21.693,21.39,38.082,41.069,45.681c16.302-76.424,24.399-154.493,26.305-232.583
		c8.27,0.844,16.67,2.663,23.62,7.469c18.965,12.016,29.184,33.73,33.384,55.142c5.975,33.362,0.585,68.175-12.946,99.113
		c-14.7,33.904-34.315,66.919-63.304,90.518c-8.898,7.621-20.026,11.691-31.197,14.592c-4.72,17.017-7.967,34.423-13.423,51.223
		c-11.561,36.761-23.339,74.237-44.728,106.647c-9.18,14.419-22.732,25.049-35.224,36.415c-30.743,27.3-63.369,52.349-96.883,76.12
		c-27.777,18.186-55.64,36.437-85.473,51.137c-15.588,7.599-31.37,15.999-48.863,18.034c-28.448,3.226-57.264,3.269-85.711-0.087
		c-8.66-1.018-17.082-3.572-25.049-7.036c-37.129-15.891-71.509-37.368-104.98-59.797c-41.113-28.21-80.234-59.342-116.887-93.137
		c-21.477-19.247-33.665-46.136-44.469-72.289c-13.791-34.964-23.858-71.249-32.778-107.708
		c-10.63-3.832-21.195-8.465-29.682-16.064c-28.058-23.923-47.218-56.484-61.529-90.063c-13.315-31.046-18.381-65.989-11.972-99.329
		c4.46-21.282,15.112-42.802,34.38-54.254c10.782-6.668,23.75-7.469,36.068-7.924c4.07,60.706,11.02,121.542,26.737,180.451
		c4.178,14.375,8.378,29.076,16.411,41.849c2.836,4.525,8.075,9.829,13.878,6.863c5.975-3.854,8.768-10.825,11.453-17.103
		c6.971-18.619,11.409-38.537,10.175-58.519c-0.931-16.042-5.889-31.479-11.041-46.612c-7.859-22.472-15.198-45.226-19.745-68.651
		c-6.408-31.63-7.426-64.235-4.33-96.32c2.923-35.029,12.795-70.167,6.646-105.413c-1.905-11.799-3.009-24.897,3.464-35.571
		c4.59-7.729,13.964-9.872,21.91-12.492c43.776-13.185,90.279-19.485,135.831-13.726c60.208,10.154,119.723,23.858,179.173,37.671
		c35.029,7.967,70.513,15.631,106.625,15.35C989.429,331.933,1043.445,318.921,1093.543,297.986 M743.185,755.38
		c-19.723,5.586-32.128,22.949-48.842,33.514c-28.491,18.879-63.347,26.088-97.142,24.897
		c42.737,27.885,95.367,43.581,146.417,35.268c32.215-5.564,63.542-18.251,89.349-38.537c49.773,35.289,114.311,49.6,174.237,37.606
		c28.686-5.845,57.069-15.393,82.182-30.569c-34.943-11.106-69.582-23.317-102.815-38.84c-19.723-8.725-38.602-20.546-60.338-23.468
		c-29.552-4.135-60.533-1.277-88.006,10.717c-2.468,1.277-5.348,1.472-7.664-0.238C804.41,750.877,772.044,747.045,743.185,755.38z"
		/>
	<path fill="#281D00" stroke="#281D00" d="M743.185,755.38c28.859-8.335,61.226-4.503,87.378,10.349
		c2.317,1.71,5.196,1.515,7.664,0.238c27.474-11.994,58.454-14.852,88.006-10.717c21.736,2.923,40.615,14.744,60.338,23.468
		c33.232,15.523,67.872,27.733,102.815,38.84c-25.114,15.176-53.496,24.724-82.182,30.569
		c-59.927,11.994-124.464-2.317-174.237-37.606c-25.807,20.286-57.134,32.973-89.349,38.537
		c-51.05,8.313-103.681-7.383-146.417-35.268c33.795,1.191,68.651-6.019,97.142-24.897
		C711.057,778.329,723.462,760.966,743.185,755.38z"/>
	<path fill="#D39E7A" stroke="#D39E7A" d="M929.2,1093.052c29.833-14.7,57.697-32.951,85.473-51.137
		c1.364,18.922,1.537,37.909,2.143,56.874c-11.02,9.872-24.876,15.523-37.887,22.169c-35.83,16.887-73.652,29.898-112.709,36.74
		c-44.75,6.971-89.76-4.027-131.739-18.965c-25.374-9.699-51.007-20.481-72.05-38.06c0.649-18.835,0.953-37.692,2.165-56.506
		c33.471,22.429,67.85,43.906,104.98,59.797c7.967,3.464,16.389,6.019,25.049,7.036c28.448,3.356,57.264,3.312,85.711,0.087
		C897.829,1109.051,913.612,1100.651,929.2,1093.052z"/>
	<path fill="#E5B295" stroke="#E5B295" d="M978.929,1120.958c13.012-6.646,26.867-12.297,37.887-22.169
		c0.368,18.532,2.555,36.999,5.781,55.25c2.793,15.891,10.478,31.457,23.598,41.308c14.722,10.825,33.557,12.925,50.206,19.636
		c-23.858,23.23-52.631,40.94-82.183,55.986c-107.946,54.276-241.178,54.254-349.124,0c-29.552-15.047-58.324-32.756-82.182-55.986
		c15.761-6.257,33.167-8.682,47.694-17.796c14.57-9.634,23.295-26.175,26.066-43.126c2.901-17.666,4.85-35.505,5.759-53.388
		c21.044,17.58,46.677,28.361,72.05,38.06c41.979,14.938,86.989,25.936,131.739,18.965
		C905.277,1150.856,943.099,1137.845,978.929,1120.958z"/>
	<path fill="#F4EE31" stroke="#F4EE31" d="M295.879,1306.107c95.757-30.072,191.189-61.291,287.033-91.124
		c23.858,23.23,52.631,40.94,82.182,55.986c107.946,54.254,241.178,54.276,349.124,0c29.552-15.047,58.324-32.756,82.183-55.986
		c90.344,28.166,180.386,57.415,270.622,86.014c18.251,6.365,37.259,10.111,55.748,15.675
		c37.302,11.085,73.046,28.058,104.092,51.635c49.34,36.675,86.729,88.656,106.647,146.742
		c12.427,34.618,18.121,71.141,22.516,107.513H23.157c5.477-41.762,12.795-83.72,29.162-122.797
		c28.253-70.21,82.745-129.682,150.942-162.741C232.467,1322.236,264.357,1314.247,295.879,1306.107z"/>
</g>
</svg>
