<?xml version="1.0" encoding="utf-8"?>
<svg version="1.1" id="Layer_1" xmlns="http://www.w3.org/2000/svg" xmlns:xlink="http://www.w3.org/1999/xlink" x="0px" y="0px"
	 viewBox="0 0 1407.252 1658.275" enable-background="new 0 0 1407.252 1658.275" xml:space="preserve">
<g>
	<path fill="#2D1F1F" stroke="#2D1F1F" d="M416.198,117.24c64.991-50.166,144.277-83.555,226.773-87.493
		c16.579,6.552,35.507,6.056,52.185,0.099c9.067-0.298,18.167-0.298,27.234-0.066c16.612,6.453,35.54,6.089,52.218,0.033
		c64.494,3.938,127.698,24.918,182.63,58.77c19.391,11.88,40.239,21.079,59.597,32.992
		c70.153,42.257,130.677,102.417,168.731,175.283c30.113,57.281,41.231,124.125,31.602,188.09
		c-2.482,18.101-10.258,34.746-15.023,52.218c-0.86,20.947,2.019,41.926,0.331,62.906
		c-3.872,128.195-41.926,257.184-118.731,360.924c15.387,23.892,23.892,52.714,18.895,81.172
		c-4.335,32.562-26.01,59.365-50.398,79.915c-18.73,5.361-37.393-7.644-55.957-1.158c-14.924,5.394-24.256,19.755-28.227,34.547
		c-6.883,24.123-20.914,46.228-40.603,61.88c-16.711,13.501-32.727,28.425-44.077,46.857
		c-32.529-36.466-48.181-86.666-44.441-135.177c0.496-8.273,0.993-16.546,1.324-24.818c3.342-23.594,4.07-48.048-0.331-71.576
		c16.347-7.181,32.595-14.659,48.379-23.064c16.248-8.471,29.186-21.972,45.401-30.51c35.937-18.432,65.686-48.114,86.268-82.695
		c22.535-37.658,29.98-81.536,42.257-123.066c1.324-9.1,12.111-8.571,18.63-12.078c23.958-10.622,41.331-31.635,56.089-52.582
		c24.421-35.507,41.893-79.253,33.025-122.9c-28.591,28.624-59.432,56.95-98.049,71.08c-11.052,3.739-24.024,6.32-34.746,0.364
		c-5.195-12.806-3.111-27.168-5.791-40.57c-6.817-37.989-15.784-77.599-40.437-108.406c-27.598-34.448-69.855-54.17-112.51-62.344
		c-49.868-10.291-100.961,2.118-151.028-5.692c-79.22-11.383-154.072-42.125-225.383-77.334
		c-34.448,24.024-65.719,53.177-89.809,87.724c-15.123,21.443-25.447,46.261-43.779,65.388
		c-14.825,15.354-31.933,28.558-50.464,39.18c-12.575,6.751-26.407,12.806-40.967,12.376c-10.457-0.397-18.73-7.412-26.572-13.468
		c-12.343,19.491-17.307,43.018-15.189,65.884c3.111,38.022,22.171,72.767,44.905,102.615c15.42,20.748,36.367,37.525,61.516,44.607
		c5.427,8.041,6.023,18.432,8.968,27.565c8.67,29.98,15.222,60.954,29.484,88.982c9.63,19.259,22.171,36.996,36.93,52.615
		c42.39,43.25,96.262,72.767,151.061,97.288c0.397,34.646,0.43,69.293-4.136,103.707
		c-108.142-39.676-199.771-119.227-259.732-217.044c-54.038-88.982-83.753-191.961-89.71-295.636
		c2.482-10.225,3.309-20.781,2.614-31.271c-1.291-19.226,2.482-38.783-2.647-57.645c2.912-56.222,14.362-111.782,31.271-165.389
		c8.273-32.793,17.34-65.653,32.661-95.997C308.552,210.292,358.09,156.982,416.198,117.24z"/>
	<path fill="#070000" stroke="#070000" d="M642.971,29.747c17.373-0.86,34.812-0.794,52.185,0.099
		C678.477,35.803,659.549,36.299,642.971,29.747z"/>
	<path fill="#070000" stroke="#070000" d="M722.389,29.78c17.406-0.827,34.812-0.893,52.218,0.033
		C757.929,35.869,739.001,36.233,722.389,29.78z"/>
	<path fill="#F9DAC5" stroke="#F9DAC5" d="M412.227,450.566c24.09-34.547,55.361-63.7,89.809-87.724
		c71.311,35.209,146.163,65.95,225.383,77.334c50.067,7.81,101.159-4.6,151.028,5.692c42.654,8.173,84.912,27.896,112.51,62.344
		c24.653,30.808,33.621,70.418,40.437,108.406c2.68,13.402,0.596,27.763,5.791,40.57c10.721,5.956,23.693,3.375,34.746-0.364
		c38.617-14.13,69.458-42.456,98.049-71.08c8.869,43.647-8.604,87.394-33.025,122.9c-14.759,20.947-32.131,41.959-56.089,52.582
		c-6.519,3.508-17.307,2.978-18.63,12.078c-12.277,41.529-19.722,85.408-42.257,123.066c-20.583,34.58-50.331,64.263-86.268,82.695
		c-16.215,8.538-29.153,22.039-45.401,30.51c-15.784,8.405-32.032,15.884-48.379,23.064
		c-37.095,16.148-75.845,28.227-114.859,38.683c-12.045,3.408-24.885,5.295-37.095,1.555
		c-39.544-10.424-78.823-22.237-116.381-38.551c-0.463,14.031-0.331,28.061,0.165,42.092
		c72.105,24.719,151.325,27.763,225.549,10.92c14.097-2.581,27.399-10.192,42.059-8.835c-0.033,8.571,0.265,17.141,0.893,25.712
		c-0.331,8.273-0.827,16.546-1.324,24.818c-3.739,48.511,11.913,98.711,44.441,135.177c-14.726,22.866-16.909,52.582-7.346,77.863
		c3.541,11.814,2.714,24.454,6.42,36.268c4.236,15.023,9.63,31.172,3.905,46.625c-6.254,21.211-23.693,35.805-41.033,48.081
		c12.707,2.846,25.546,5.03,38.452,6.618c-133.522,36.764-278.726,27.499-407.384-23.296
		c-70.021-28.127-131.405-84.084-154.006-157.514c21.311-9.067,43.978-14.229,65.851-21.708
		c44.673-13.832,89.28-27.962,134.019-41.629c13.964-4.004,25.249-14.693,31.569-27.631c9.232-22.171,9.431-46.89,10.159-70.583
		c4.567-34.415,4.534-69.061,4.136-103.707c-54.799-24.521-108.671-54.038-151.061-97.288c-14.759-15.619-27.3-33.356-36.93-52.615
		c-14.262-28.028-20.814-59.001-29.484-88.982c-2.945-9.133-3.541-19.524-8.968-27.565c-25.149-7.081-46.096-23.859-61.516-44.607
		c-22.734-29.848-41.794-64.594-44.905-102.615c-2.118-22.866,2.846-46.394,15.189-65.884c7.843,6.056,16.115,13.071,26.572,13.468
		c14.56,0.43,28.392-5.625,40.967-12.376c18.531-10.622,35.639-23.826,50.464-39.18C386.78,496.828,397.104,472.009,412.227,450.566
		z"/>
	<path fill="#0F0101" stroke="#0F0101" d="M214.508,535.71c5.129,18.862,1.357,38.419,2.647,57.645
		c0.695,10.49-0.132,21.046-2.614,31.271C212.688,595.042,212.721,565.326,214.508,535.71z"/>
	<path fill="#F2BC9E" stroke="#F2BC9E" d="M571.593,1034.326c37.558,16.314,76.837,28.127,116.381,38.551
		c12.211,3.739,25.05,1.853,37.095-1.555c39.014-10.457,77.764-22.535,114.859-38.683c-0.86,15.288-0.43,30.576-0.563,45.864
		c-14.659-1.357-27.962,6.254-42.059,8.835c-74.223,16.843-153.443,13.799-225.549-10.92
		C571.262,1062.387,571.13,1048.356,571.593,1034.326z"/>
	<path fill="#020000" stroke="#020000" d="M839.929,1032.638c4.401,23.528,3.673,47.982,0.331,71.576
		c-0.629-8.571-0.927-17.141-0.893-25.712C839.498,1063.214,839.068,1047.926,839.929,1032.638z"/>
	<path fill="#262020" stroke="#262020" d="M996.284,1120.925c18.564-6.486,37.227,6.519,55.957,1.158
		c-3.243,2.714-6.486,5.427-9.729,8.14c6.717,13.766,15.123,26.87,19.59,41.662c11.913,37.757,8.769,80.113-9.034,115.488
		c-4.864,9.166-10.821,17.637-16.612,26.208c-23.826-12.575-50.464-21.311-77.731-18.465c-19.259,1.787-38.716,6.916-54.898,17.803
		c-10.953,7.975-18.597,19.424-27.797,29.153c-9.563-25.282-7.379-54.997,7.346-77.863c11.35-18.432,27.366-33.356,44.077-46.857
		c19.689-15.652,33.72-37.757,40.603-61.88C972.028,1140.68,981.36,1126.319,996.284,1120.925z"/>
	<path fill="#993399" stroke="#993399" d="M295.68,1283.932c6.651-2.349,13.435-4.302,20.252-6.155
		c2.118,7.015,4.203,14.064,6.453,21.079c22.601,73.429,83.985,129.386,154.006,157.514
		c128.658,50.795,273.862,60.06,407.384,23.296c46.46,2.945,95.402-5.592,133.986-32.859c23.66-16.645,42.654-41.728,45.467-71.245
		c5.559,1.621,8.604-3.971,11.648-7.479c14.097-19.027,25.811-39.941,33.62-62.377c3.243-9.332,6.122-18.763,9.166-28.161
		c32.529,11.35,64.362,25.083,94.409,42.026c33.521,18.994,65.884,44.243,81.073,80.808
		c11.681,82.562-21.608,166.084-74.256,228.759H573.843c-7.313-1.456-14.626-3.177-22.105-3.276
		c-68.465,0.331-136.931,0.265-205.396,0.033c-7.446,0.132-14.759,1.82-22.039,3.243H181.714
		c-42.787-52.119-64.296-121.477-57.016-188.619c2.349-24.851,12.376-47.982,23.495-70.021
		c19.193-25.811,43.018-48.743,72.701-62.046C244.256,1295.778,271.193,1293.462,295.68,1283.932z"/>
	<path fill="#F9DAC5" stroke="#F9DAC5" d="M1036.457,1313.581c5.791-8.571,11.747-17.042,16.612-26.208
		c18.432,6.287,37.029,11.946,55.427,18.332c-7.809,22.436-19.524,43.349-33.62,62.377c-3.044,3.508-6.089,9.1-11.648,7.479
		C1066.437,1351.868,1055.153,1327.976,1036.457,1313.581z"/>
	<path fill="#2D1F1F" stroke="#2D1F1F" d="M903.828,1312.919c16.182-10.887,35.639-16.016,54.898-17.803
		c27.267-2.846,53.905,5.89,77.731,18.465c18.696,14.395,29.98,38.286,26.771,61.979c-2.813,29.517-21.807,54.6-45.467,71.245
		c-38.584,27.267-87.526,35.804-133.986,32.859c-12.905-1.588-25.745-3.772-38.452-6.618c17.34-12.277,34.779-26.87,41.033-48.081
		c5.725-15.453,0.331-31.602-3.905-46.625c-3.706-11.813-2.879-24.454-6.42-36.268
		C885.23,1332.344,892.874,1320.894,903.828,1312.919z"/>
	<path fill="#F9DAC5" stroke="#F9DAC5" d="M100.972,1413.615c14.196-15.884,28.194-32.793,47.221-43.118
		c-11.119,22.039-21.145,45.169-23.495,70.021c-7.28,67.142,14.229,136.501,57.016,188.619H24.83
		C28.867,1552.234,51.766,1474.007,100.972,1413.615z"/>
	<path fill="#F9DAC5" stroke="#F9DAC5" d="M1293.144,1400.379c19.855,17.174,34.216,39.511,46.692,62.344
		c26.738,51.291,39.709,108.903,42.588,166.415h-163.536C1271.535,1566.463,1304.825,1482.941,1293.144,1400.379z"/>
	<path fill="#B15CA4" stroke="#B15CA4" d="M324.304,1629.138c7.28-1.423,14.593-3.111,22.039-3.243
		c68.465,0.232,136.931,0.298,205.396-0.033c7.479,0.099,14.792,1.82,22.105,3.276H324.304z"/>
</g>
</svg>
