<svg width="1205" height="863" viewBox="0 0 1205 863" xmlns="http://www.w3.org/2000/svg" xmlns:xlink="http://www.w3.org/1999/xlink">
  <title>
    BridgeLogo
  </title>
  <use xlink:href="#a" transform="translate(0 485.006)" fill="#000C9E"/>
  <use xlink:href="#b" transform="translate(246.1 572.646)" fill="#000C9E"/>
  <use xlink:href="#c" transform="translate(412.5 486.002)" fill="#000C9E"/>
  <use xlink:href="#d" transform="translate(522.1 486.002)" fill="#000C9E"/>
  <use xlink:href="#e" transform="translate(768.2 573.642)" fill="#000C9E"/>
  <use xlink:href="#f" transform="translate(1013.3 573.642)" fill="#000C9E"/>
  <g>
    <use xlink:href="#g" transform="translate(198.3 .996)" fill="#2FA1D4"/>
    <use xlink:href="#h" transform="translate(859.9)" fill="#4E57CA"/>
    <use xlink:href="#i" transform="translate(382.6)" fill="#EB2C97"/>
    <use xlink:href="#j" transform="translate(381.6 106.562)" fill="#08C39D"/>
  </g>
  <defs>
    <path id="a" d="M57.792 297.776H0V0h57.792v110.546c8.967-10.955 29.892-21.91 50.816-21.91 59.785 0 92.666 48.8 92.666 107.557 0 58.76-33.878 106.562-92.666 106.562-21.92 0-42.845-10.955-50.816-21.91v16.93zm0-68.718C64.766 243 79.712 252.96 95.655 252.96c30.89 0 48.824-24.898 48.824-57.763 0-32.864-17.936-57.762-48.825-57.762-15.942 0-31.885 9.96-37.863 23.902v67.72z"/>
    <path id="b" d="M125.547 61.746c-7.97-4.98-17.935-6.97-28.895-6.97-18.932 0-34.875 9.958-39.857 28.88v126.48H0V4.98h56.795v19.918C65.763 9.958 82.702 0 102.63 0c9.964 0 17.935 1.992 21.92 2.988l.997 58.758z"/>
    <path id="c" d="M33.878 65.73C15.943 65.73 0 52.783 0 32.865 0 14.94 14.946 0 33.878 0c17.935 0 33.878 12.947 33.878 32.865-.997 19.918-16.94 32.865-33.878 32.865zm27.9 231.05H4.98V92.62h56.795v204.16z"/>
    <path id="d" d="M143.483 279.85c-8.968 10.954-29.893 21.91-50.817 21.91C32.88 301.76 0 253.955 0 195.196 0 136.44 33.878 87.64 92.666 87.64c21.92 0 42.845 10.955 50.817 21.91V0h57.79v297.776h-57.79V279.85zm0-118.513c-6.975-12.947-21.92-23.902-37.864-23.902-30.89 0-48.825 24.897-48.825 57.762S74.73 252.96 105.62 252.96c16.938 0 31.884-9.96 37.863-23.902v-67.72z"/>
    <path id="e" d="M142.486 184.242c-8.967 10.955-27.9 20.914-49.82 20.914C32.882 205.156 0 157.353 0 102.578 0 47.803 33.878 0 92.666 0c22.917 0 40.853 9.96 49.82 19.918V3.984h56.795v182.25c0 69.714-42.844 102.578-100.636 102.578-52.81 0-89.676-26.89-95.655-72.7H57.79c4.982 18.922 17.935 28.88 39.856 28.88 28.896 0 43.842-16.93 43.842-49.795l.996-10.955zm0-115.524c-6.975-11.95-21.92-20.915-37.863-20.915-30.89 0-47.828 22.906-47.828 54.775 0 31.87 17.936 54.775 47.828 54.775 16.94 0 31.885-9.96 37.863-21.91V68.717z"/>
    <path id="f" d="M190.314 142.414c-7.972 42.824-39.857 71.706-90.673 71.706C39.857 214.12 0 171.296 0 107.558 0 44.816 40.853 0 98.644 0c60.78 0 92.666 40.832 92.666 101.582v16.93H54.802c1.993 30.874 18.932 48.8 43.842 48.8 18.932 0 33.878-7.967 37.864-25.893l53.806.994zM56.794 84.652h78.717c0-21.91-12.952-37.844-36.866-37.844-21.92 0-37.863 12.946-41.85 37.844z"/>
    <path id="g" d="M85.69 302.755c0 8.963 4.983 13.943 13.95 13.943h46.832v42.824h-46.83c-36.868 0-62.775-23.902-62.775-60.75V214.12c0-8.964-4.982-13.943-13.95-13.943H0v-43.82h23.914c8.967 0 13.95-4.98 13.95-13.943V60.75C37.863 22.906 63.77 0 100.636 0h45.835v42.824h-46.83c-8.97 0-13.95 4.98-13.95 13.943v80.668c0 20.914-9.965 31.87-22.918 39.836 12.953 7.968 22.917 18.923 22.917 39.837v85.648z"/>
    <path id="h" d="M60.78 217.107c0-20.914 9.965-31.87 22.918-39.836-12.953-7.966-22.917-18.92-22.917-39.835V55.77c0-8.962-4.98-13.942-13.95-13.942H0V0h45.835c36.867 0 62.773 23.902 62.773 60.75v79.673c0 8.963 4.982 13.942 13.95 13.942h23.914v44.816h-23.914c-8.968 0-13.95 4.98-13.95 13.944v84.652c0 37.844-25.906 60.75-62.773 60.75H0v-42.824h46.83c8.97 0 13.95-4.98 13.95-13.943v-84.653z"/>
    <path id="i" d="M220.206 0H0v41.828h439.416V0h-219.21z"/>
    <path id="j" d="M374.65 210.136v-59.754C374.65 65.73 307.89 0 222.2 0h-3.987c-85.69 0-152.45 65.73-152.45 150.382v59.754H0v42.824h107.612V151.378c0-60.75 48.824-108.554 110.6-108.554h3.987c61.776 0 110.6 47.803 110.6 108.554V252.96h107.612v-42.824H374.65z"/>
  </defs>
</svg>
