<svg xmlns="http://www.w3.org/2000/svg" xmlns:xlink="http://www.w3.org/1999/xlink" version="1.1" class="marks" width="554" height="297" viewBox="0 0 554 297"><rect width="554" height="297" fill="white"/><g fill="none" stroke-miterlimit="10" transform="translate(47,10)"><g class="mark-group role-frame root" role="graphics-object" aria-roledescription="group mark container"><g transform="translate(0,0)"><path class="background" aria-hidden="true" d="M0.5,0.5h500v250h-500Z" stroke="#ddd"/><g><g class="mark-group role-axis" aria-hidden="true"><g transform="translate(0.5,250.5)"><path class="background" aria-hidden="true" d="M0,0h0v0h0Z" pointer-events="none"/><g><g class="mark-rule role-axis-grid" pointer-events="none"><line transform="translate(0,-250)" x2="0" y2="250" stroke="#ddd" stroke-width="1" opacity="1"/><line transform="translate(50,-250)" x2="0" y2="250" stroke="#ddd" stroke-width="1" opacity="1"/><line transform="translate(100,-250)" x2="0" y2="250" stroke="#ddd" stroke-width="1" opacity="1"/><line transform="translate(150,-250)" x2="0" y2="250" stroke="#ddd" stroke-width="1" opacity="1"/><line transform="translate(200,-250)" x2="0" y2="250" stroke="#ddd" stroke-width="1" opacity="1"/><line transform="translate(250,-250)" x2="0" y2="250" stroke="#ddd" stroke-width="1" opacity="1"/><line transform="translate(300,-250)" x2="0" y2="250" stroke="#ddd" stroke-width="1" opacity="1"/><line transform="translate(350,-250)" x2="0" y2="250" stroke="#ddd" stroke-width="1" opacity="1"/><line transform="translate(400,-250)" x2="0" y2="250" stroke="#ddd" stroke-width="1" opacity="1"/><line transform="translate(450,-250)" x2="0" y2="250" stroke="#ddd" stroke-width="1" opacity="1"/><line transform="translate(500,-250)" x2="0" y2="250" stroke="#ddd" stroke-width="1" opacity="1"/></g></g><path class="foreground" aria-hidden="true" d="" pointer-events="none" display="none"/></g></g><g class="mark-group role-axis" aria-hidden="true"><g transform="translate(0.5,0.5)"><path class="background" aria-hidden="true" d="M0,0h0v0h0Z" pointer-events="none"/><g><g class="mark-rule role-axis-grid" pointer-events="none"><line transform="translate(0,250)" x2="500" y2="0" stroke="#ddd" stroke-width="1" opacity="1"/><line transform="translate(0,219)" x2="500" y2="0" stroke="#ddd" stroke-width="1" opacity="1"/><line transform="translate(0,188)" x2="500" y2="0" stroke="#ddd" stroke-width="1" opacity="1"/><line transform="translate(0,156)" x2="500" y2="0" stroke="#ddd" stroke-width="1" opacity="1"/><line transform="translate(0,125)" x2="500" y2="0" stroke="#ddd" stroke-width="1" opacity="1"/><line transform="translate(0,94)" x2="500" y2="0" stroke="#ddd" stroke-width="1" opacity="1"/><line transform="translate(0,63)" x2="500" y2="0" stroke="#ddd" stroke-width="1" opacity="1"/><line transform="translate(0,31)" x2="500" y2="0" stroke="#ddd" stroke-width="1" opacity="1"/><line transform="translate(0,0)" x2="500" y2="0" stroke="#ddd" stroke-width="1" opacity="1"/></g></g><path class="foreground" aria-hidden="true" d="" pointer-events="none" display="none"/></g></g><g class="mark-group role-axis" role="graphics-symbol" aria-roledescription="axis" aria-label="X-axis titled 'm/z (Da)' for a linear scale with values from 100 to 600"><g transform="translate(0.5,250.5)"><path class="background" aria-hidden="true" d="M0,0h0v0h0Z" pointer-events="none"/><g><g class="mark-rule role-axis-tick" pointer-events="none"><line transform="translate(0,0)" x2="0" y2="5" stroke="#888" stroke-width="1" opacity="1"/><line transform="translate(50,0)" x2="0" y2="5" stroke="#888" stroke-width="1" opacity="1"/><line transform="translate(100,0)" x2="0" y2="5" stroke="#888" stroke-width="1" opacity="1"/><line transform="translate(150,0)" x2="0" y2="5" stroke="#888" stroke-width="1" opacity="1"/><line transform="translate(200,0)" x2="0" y2="5" stroke="#888" stroke-width="1" opacity="1"/><line transform="translate(250,0)" x2="0" y2="5" stroke="#888" stroke-width="1" opacity="1"/><line transform="translate(300,0)" x2="0" y2="5" stroke="#888" stroke-width="1" opacity="1"/><line transform="translate(350,0)" x2="0" y2="5" stroke="#888" stroke-width="1" opacity="1"/><line transform="translate(400,0)" x2="0" y2="5" stroke="#888" stroke-width="1" opacity="1"/><line transform="translate(450,0)" x2="0" y2="5" stroke="#888" stroke-width="1" opacity="1"/><line transform="translate(500,0)" x2="0" y2="5" stroke="#888" stroke-width="1" opacity="1"/></g><g class="mark-text role-axis-label" pointer-events="none"><text text-anchor="start" transform="translate(0,15)" font-family="sans-serif" font-size="10px" fill="#000" opacity="1">100</text><text text-anchor="middle" transform="translate(50,15)" font-family="sans-serif" font-size="10px" fill="#000" opacity="1">150</text><text text-anchor="middle" transform="translate(100,15)" font-family="sans-serif" font-size="10px" fill="#000" opacity="1">200</text><text text-anchor="middle" transform="translate(150,15)" font-family="sans-serif" font-size="10px" fill="#000" opacity="1">250</text><text text-anchor="middle" transform="translate(200,15)" font-family="sans-serif" font-size="10px" fill="#000" opacity="1">300</text><text text-anchor="middle" transform="translate(250,15)" font-family="sans-serif" font-size="10px" fill="#000" opacity="1">350</text><text text-anchor="middle" transform="translate(300,15)" font-family="sans-serif" font-size="10px" fill="#000" opacity="1">400</text><text text-anchor="middle" transform="translate(350,15)" font-family="sans-serif" font-size="10px" fill="#000" opacity="1">450</text><text text-anchor="middle" transform="translate(400,15)" font-family="sans-serif" font-size="10px" fill="#000" opacity="1">500</text><text text-anchor="middle" transform="translate(450,15)" font-family="sans-serif" font-size="10px" fill="#000" opacity="1">550</text><text text-anchor="end" transform="translate(500,15)" font-family="sans-serif" font-size="10px" fill="#000" opacity="1">600</text></g><g class="mark-rule role-axis-domain" pointer-events="none"><line transform="translate(0,0)" x2="500" y2="0" stroke="#888" stroke-width="1" opacity="1"/></g><g class="mark-text role-axis-title" pointer-events="none"><text text-anchor="middle" transform="translate(250,30)" font-family="sans-serif" font-size="11px" font-weight="bold" fill="#000" opacity="1">m/z (Da)</text></g></g><path class="foreground" aria-hidden="true" d="" pointer-events="none" display="none"/></g></g><g class="mark-group role-axis" role="graphics-symbol" aria-roledescription="axis" aria-label="Y-axis titled 'Intensity' for a linear scale with values from 0.00 to 0.16"><g transform="translate(0.5,0.5)"><path class="background" aria-hidden="true" d="M0,0h0v0h0Z" pointer-events="none"/><g><g class="mark-rule role-axis-tick" pointer-events="none"><line transform="translate(0,250)" x2="-5" y2="0" stroke="#888" stroke-width="1" opacity="1"/><line transform="translate(0,219)" x2="-5" y2="0" stroke="#888" stroke-width="1" opacity="1"/><line transform="translate(0,188)" x2="-5" y2="0" stroke="#888" stroke-width="1" opacity="1"/><line transform="translate(0,156)" x2="-5" y2="0" stroke="#888" stroke-width="1" opacity="1"/><line transform="translate(0,125)" x2="-5" y2="0" stroke="#888" stroke-width="1" opacity="1"/><line transform="translate(0,94)" x2="-5" y2="0" stroke="#888" stroke-width="1" opacity="1"/><line transform="translate(0,63)" x2="-5" y2="0" stroke="#888" stroke-width="1" opacity="1"/><line transform="translate(0,31)" x2="-5" y2="0" stroke="#888" stroke-width="1" opacity="1"/><line transform="translate(0,0)" x2="-5" y2="0" stroke="#888" stroke-width="1" opacity="1"/></g><g class="mark-text role-axis-label" pointer-events="none"><text text-anchor="end" transform="translate(-7,253)" font-family="sans-serif" font-size="10px" fill="#000" opacity="1">0.00</text><text text-anchor="end" transform="translate(-7,221.75)" font-family="sans-serif" font-size="10px" fill="#000" opacity="1">0.02</text><text text-anchor="end" transform="translate(-7,190.5)" font-family="sans-serif" font-size="10px" fill="#000" opacity="1">0.04</text><text text-anchor="end" transform="translate(-7,159.25)" font-family="sans-serif" font-size="10px" fill="#000" opacity="1">0.06</text><text text-anchor="end" transform="translate(-7,128)" font-family="sans-serif" font-size="10px" fill="#000" opacity="1">0.08</text><text text-anchor="end" transform="translate(-7,96.75)" font-family="sans-serif" font-size="10px" fill="#000" opacity="1">0.10</text><text text-anchor="end" transform="translate(-7,65.5)" font-family="sans-serif" font-size="10px" fill="#000" opacity="1">0.12</text><text text-anchor="end" transform="translate(-7,34.24999999999997)" font-family="sans-serif" font-size="10px" fill="#000" opacity="1">0.14</text><text text-anchor="end" transform="translate(-7,3)" font-family="sans-serif" font-size="10px" fill="#000" opacity="1">0.16</text></g><g class="mark-rule role-axis-domain" pointer-events="none"><line transform="translate(0,250)" x2="0" y2="-250" stroke="#888" stroke-width="1" opacity="1"/></g><g class="mark-text role-axis-title" pointer-events="none"><text text-anchor="middle" transform="translate(-30.462890625,125) rotate(-90) translate(0,-2)" font-family="sans-serif" font-size="11px" font-weight="bold" fill="#000" opacity="1">Intensity</text></g></g><path class="foreground" aria-hidden="true" d="" pointer-events="none" display="none"/></g></g><g class="mark-line role-mark layer_0_marks" role="graphics-object" aria-roledescription="line mark container"><path aria-label="m/z (Da): 100; Intensity: 0.00628651105467" role="graphics-symbol" aria-roledescription="line mark" d="M0,240.177L1.002,250L2.004,199.967L3.006,241.805L4.008,250L5.01,221.75L6.012,148.125L7.014,176.009L8.016,250L9.018,250L10.02,250L11.022,246.771L12.024,250L13.026,250L14.028,250L15.03,250L16.032,250L17.034,250L18.036,217.841L19.038,168.554L20.04,250L21.042,143.245L22.044,250L23.046,222.538L24.048,179.416L25.05,242.655L26.052,250L27.054,250L28.056,250L29.058,232.797L30.06,250L31.062,250L32.064,250L33.066,207.746L34.068,233.23L35.07,222.237L36.072,250L37.074,250L38.076,188.752L39.078,133.326L40.08,250L41.082,131.725L42.084,144.853L43.086,188.96L44.088,229.339L45.09,250L46.092,136.092L47.094,96.855L48.096,109.247L49.098,147.258L50.1,222.08L51.102,250L52.104,250L53.106,198.713L54.108,250L55.11,219.131L56.112,216.417L57.114,195.622L58.116,250L59.118,250L60.12,250L61.122,250L62.124,114.112L63.126,250L64.128,224.299L65.13,250L66.132,126.291L67.134,146.847L68.136,200.519L69.138,250L70.14,245.935L71.142,196.587L72.144,171.566L73.146,250L74.148,107.655L75.15,250L76.152,250L77.154,176.949L78.156,246.168L79.158,93.563L80.16,235.272L81.162,250L82.164,250L83.166,250L84.168,250L85.17,200.749L86.172,204.596L87.174,148.863L88.176,250L89.178,118.038L90.18,250L91.182,126.999L92.184,250L93.186,250L94.188,230.486L95.19,169.418L96.192,237.421L97.194,250L98.196,250L99.198,250L100.2,210.728L101.202,172.679L102.204,250L103.206,250L104.208,181.794L105.21,250L106.212,250L107.214,201.483L108.216,250L109.218,219.815L110.22,250L111.222,241.463L112.224,250L113.226,234.21L114.228,195.768L115.23,250L116.232,138.986L117.234,193.274L118.236,184.083L119.238,158.995L120.24,188.47L121.242,184.056L122.244,244.094L123.246,250L124.248,250L125.251,250L126.253,250L127.255,229.808L128.257,250L129.259,250L130.261,250L131.263,229.03L132.265,221.979L133.267,146.683L134.269,250L135.271,168.606L136.273,140.448L137.275,160.143L138.277,250L139.279,154.009L140.281,223.467L141.283,216.893L142.285,220.998L143.287,220.097L144.289,225.046L145.291,250L146.293,250L147.295,250L148.297,250L149.299,165.612L150.301,250L151.303,243.478L152.305,250L153.307,250L154.309,250L155.311,250L156.313,226.509L157.315,250L158.317,250L159.319,250L160.321,209.918L161.323,250L162.325,250L163.327,250L164.329,108.088L165.331,250L166.333,243.233L167.335,250L168.337,121.302L169.339,178.321L170.341,166.646L171.343,246.276L172.345,178.386L173.347,221.02L174.349,202.095L175.351,250L176.353,250L177.355,169.621L178.357,250L179.359,250L180.361,250L181.363,250L182.365,202.1L183.367,250L184.369,250L185.371,209.387L186.373,250L187.375,141.486L188.377,222.543L189.379,250L190.381,250L191.383,250L192.385,165.091L193.387,250L194.389,250L195.391,121.621L196.393,250L197.395,250L198.397,250L199.399,204.192L200.401,250L201.403,250L202.405,250L203.407,193.02L204.409,187.02L205.411,250L206.413,237.239L207.415,250L208.417,250L209.419,142.348L210.421,239.396L211.423,69.503L212.425,250L213.427,204.665L214.429,250L215.431,205.795L216.433,250L217.435,250L218.437,250L219.439,10.466L220.441,250L221.443,250L222.445,250L223.447,197.028L224.449,250L225.451,143.715L226.453,171.688L227.455,250L228.457,250L229.459,250L230.461,250L231.463,250L232.465,155.907L233.467,125.727L234.469,250L235.471,250L236.473,250L237.475,250L238.477,250L239.479,250L240.481,148.678L241.483,250L242.485,183.236L243.487,250L244.489,112.448L245.491,234.436L246.493,250L247.495,50.592L248.497,250L249.499,250L250.501,234.226L251.503,250L252.505,166.693L253.507,250L254.509,187.131L255.511,183.379L256.513,250L257.515,237.247L258.517,250L259.519,66.734L260.521,250L261.523,250L262.525,250L263.527,250L264.529,250L265.531,190.016L266.533,250L267.535,250L268.537,250L269.539,250L270.541,34.703L271.543,168.653L272.545,250L273.547,250L274.549,250L275.551,250L276.553,247.287L277.555,250L278.557,250L279.559,138.877L280.561,214.712L281.563,250L282.565,250L283.567,250L284.569,250L285.571,240.964L286.573,250L287.575,250L288.577,250L289.579,192.789L290.581,250L291.583,250L292.585,200.012L293.587,191.065L294.589,250L295.591,206.063L296.593,250L297.595,226.462L298.597,250L299.599,184.93L300.601,155.995L301.603,200.229L302.605,206.38L303.607,250L304.609,229.638L305.611,250L306.613,250L307.615,250L308.617,245.675L309.619,217.803L310.621,250L311.623,250L312.625,153.925L313.627,250L314.629,169.519L315.631,236.187L316.633,250L317.635,250L318.637,250L319.639,197.261L320.641,222.82L321.643,250L322.645,250L323.647,226.428L324.649,175.204L325.651,250L326.653,217.316L327.655,250L328.657,244.721L329.659,250L330.661,227.028L331.663,250L332.665,199.673L333.667,250L334.669,221.984L335.671,250L336.673,224.972L337.675,250L338.677,157.097L339.679,250L340.681,250L341.683,231.589L342.685,135.715L343.687,228.271L344.689,250L345.691,250L346.693,250L347.695,250L348.697,117.924L349.699,201.396L350.701,250L351.703,91.658L352.705,250L353.707,250L354.709,134.779L355.711,250L356.713,250L357.715,232.907L358.717,183.993L359.719,172.396L360.721,250L361.723,93.869L362.725,176.026L363.727,250L364.729,250L365.731,250L366.733,240.361L367.735,250L368.737,250L369.739,186.621L370.741,221.518L371.743,250L372.745,192.637L373.747,143.174L374.749,250L375.752,250L376.754,176.358L377.756,193.833L378.758,232.289L379.76,159.186L380.762,250L381.764,250L382.766,250L383.768,240.426L384.77,250L385.772,250L386.774,250L387.776,250L388.778,250L389.78,221.292L390.782,187.899L391.784,250L392.786,250L393.788,250L394.79,208.496L395.792,243.042L396.794,125.456L397.796,250L398.798,221.679L399.8,215.313L400.802,250L401.804,204.411L402.806,250L403.808,84.469L404.81,250L405.812,178.14L406.814,250L407.816,160.087L408.818,250L409.82,237.623L410.822,245.833L411.824,164.005L412.826,250L413.828,250L414.83,250L415.832,235.647L416.834,250L417.836,189.858L418.838,170.678L419.84,250L420.842,250L421.844,141.862L422.846,165.386L423.848,250L424.85,85.29L425.852,250L426.854,250L427.856,250L428.858,165.794L429.86,250L430.862,97.561L431.864,250L432.866,175.436L433.868,207.464L434.87,250L435.872,165.583L436.874,250L437.876,143.94L438.878,250L439.88,250L440.882,191.471L441.884,167.195L442.886,189.86L443.888,93.789L444.89,165.568L445.892,149.726L446.894,250L447.896,241.678L448.898,206.017L449.9,250L450.902,226.435L451.904,216.711L452.906,184.043L453.908,250L454.91,250L455.912,250L456.914,250L457.916,158.402L458.918,250L459.92,188.52L460.922,250L461.924,250L462.926,250L463.928,160.42L464.93,166.556L465.932,224.059L466.934,250L467.936,250L468.938,250L469.94,250L470.942,250L471.944,250L472.946,250L473.948,131.529L474.95,237.442L475.952,140.556L476.954,250L477.956,250L478.958,250L479.96,213.802L480.962,207.258L481.964,112.206L482.966,250L483.968,242.644L484.97,250L485.972,250L486.974,250L487.976,250L488.978,144.106L489.98,249.827L490.982,250L491.984,238.916L492.986,233.002L493.988,250L494.99,160.685L495.992,250L496.994,250L497.996,198.042L498.998,250L500,221.777" stroke="lightgrey" stroke-width="2" opacity="0.7"/></g><g class="mark-line role-mark layer_1_marks" role="graphics-object" aria-roledescription="line mark container"><path aria-label="m/z (Da): 100; smoothed: 0.00766152871537" role="graphics-symbol" aria-roledescription="line mark" d="M0,238.029L1.002,236.39L2.004,236.39L3.006,232.704L4.008,212.329L5.01,207.538L6.012,209.177L7.014,209.177L8.016,214.827L9.018,234.556L10.02,249.354L11.022,249.354L12.024,249.354L13.026,249.354L14.028,250L15.03,250L16.032,243.568L17.034,227.279L18.036,227.279L19.038,205.928L20.04,205.928L21.042,206.867L22.044,209.04L23.046,207.571L24.048,228.922L25.05,228.922L26.052,234.414L27.054,245.091L28.056,246.559L29.058,246.559L30.06,246.559L31.062,238.109L32.064,238.195L33.066,232.643L34.068,232.643L35.07,232.643L36.072,228.844L37.074,208.863L38.076,214.416L39.078,190.76L40.08,169.731L41.082,169.773L42.084,188.976L43.086,188.976L44.088,189.849L45.09,180.249L46.092,164.307L47.094,147.89L48.096,142.306L49.098,165.088L50.1,195.717L51.102,213.61L52.104,234.159L53.106,233.569L54.108,226.852L55.11,215.977L56.112,226.234L57.114,226.234L58.116,232.408L59.118,239.124L60.12,222.822L61.122,222.822L62.124,217.682L63.126,217.682L64.128,192.94L65.13,199.487L66.132,189.591L67.134,194.731L68.136,193.919L69.138,207.978L70.14,212.921L71.142,222.818L72.144,194.349L73.146,195.162L74.148,205.844L75.15,206.921L76.152,206.154L77.154,203.336L78.156,200.39L79.158,200.39L80.16,215.001L81.162,215.767L82.164,247.054L83.166,240.15L84.168,231.069L85.17,210.842L86.172,210.842L87.174,184.449L88.176,194.299L89.178,178.78L90.18,199.008L91.182,199.008L92.184,221.497L93.186,205.381L94.188,227.465L95.19,227.465L96.192,227.465L97.194,231.368L98.196,239.63L99.198,226.681L100.2,226.681L101.202,226.681L102.204,213.04L103.206,220.894L104.208,236.359L105.21,226.655L106.212,226.655L107.214,234.26L108.216,234.26L109.218,232.552L110.22,242.255L111.222,239.097L112.224,234.288L113.226,234.288L114.228,213.793L115.23,202.447L116.232,192.422L117.234,185.068L118.236,172.762L119.238,181.776L120.24,191.94L121.242,205.123L122.244,223.324L123.246,235.63L124.248,248.819L125.251,245.962L126.253,245.962L127.255,245.962L128.257,245.962L129.259,241.768L130.261,240.202L131.263,219.538L132.265,219.538L133.267,203.26L134.269,185.543L135.271,173.176L136.273,193.84L137.275,174.641L138.277,185.614L139.279,200.902L140.281,213.073L141.283,207.093L142.285,221.3L143.287,226.607L144.289,233.228L145.291,239.029L146.293,245.009L147.295,233.122L148.297,233.122L149.299,231.818L150.301,231.818L151.303,231.818L152.305,248.696L153.307,248.696L154.309,245.302L155.311,245.302L156.313,245.302L157.315,245.302L158.317,237.285L159.319,241.984L160.321,241.984L161.323,241.984L162.325,213.601L163.327,221.618L164.329,220.264L165.331,220.264L166.333,194.524L167.335,208.571L168.337,191.9L169.339,192.509L170.341,178.186L171.343,198.13L172.345,202.884L173.347,219.555L174.349,220.3L175.351,218.547L176.353,224.343L177.355,233.924L178.357,233.924L179.359,233.924L180.361,240.42L181.363,240.42L182.365,240.42L183.367,232.297L184.369,232.297L185.371,220.175L186.373,214.683L187.375,214.683L188.377,222.806L189.379,222.806L190.381,227.527L191.383,233.018L192.385,233.018L193.387,207.342L194.389,207.342L195.391,224.324L196.393,224.324L197.395,215.163L198.397,240.838L199.399,240.838L200.401,240.838L201.403,229.442L202.405,226.008L203.407,226.008L204.409,223.456L205.411,223.456L206.413,234.852L207.415,225.917L208.417,223.797L209.419,190.249L210.421,190.249L211.423,181.182L212.425,202.713L213.427,195.993L214.429,232.092L215.431,232.092L216.433,241.159L217.435,193.252L218.437,202.093L219.439,202.093L220.441,202.093L221.443,191.499L222.445,239.406L223.447,218.149L224.449,202.486L225.451,202.486L226.453,213.081L227.455,213.081L228.457,234.338L229.459,250L230.461,231.181L231.463,206.327L232.465,206.327L233.467,206.327L234.469,206.327L235.471,225.145L236.473,250L237.475,250L238.477,229.736L239.479,229.736L240.481,216.383L241.483,216.383L242.485,188.872L243.487,206.024L244.489,206.024L245.491,179.495L246.493,179.495L247.495,207.006L248.497,206.964L249.499,206.964L250.501,230.184L251.503,230.184L252.505,217.61L253.507,207.441L254.509,207.441L255.511,221.551L256.513,221.551L257.515,197.472L258.517,210.796L259.519,210.796L260.521,213.347L261.523,213.347L262.525,250L263.527,238.003L264.529,238.003L265.531,238.003L266.533,238.003L267.535,238.003L268.537,206.941L269.539,190.671L270.541,190.671L271.543,190.671L272.545,190.671L273.547,233.731L274.549,249.457L275.551,249.457L276.553,249.457L277.555,227.233L278.557,220.175L279.559,220.718L280.561,220.718L281.563,220.718L282.565,242.942L283.567,248.193L284.569,248.193L285.571,248.193L286.573,248.193L287.575,236.751L288.577,238.558L289.579,238.558L290.581,228.56L291.583,216.773L292.585,228.215L293.587,219.428L294.589,219.428L295.591,224.718L296.593,236.505L297.595,223.491L298.597,213.477L299.599,203.523L300.601,199.507L301.603,199.507L302.605,208.448L303.607,227.249L304.609,237.204L305.611,245.928L306.613,245.063L307.615,242.696L308.617,242.696L309.619,242.696L310.621,223.481L311.623,224.346L312.625,214.689L313.627,211.926L314.629,211.926L315.631,231.141L316.633,231.141L317.635,236.689L318.637,234.016L319.639,234.016L320.641,234.016L321.643,229.302L322.645,224.891L323.647,230.327L324.649,223.79L325.651,223.79L326.653,227.448L327.655,242.407L328.657,237.813L329.659,244.35L330.661,234.284L331.663,235.34L332.665,229.737L333.667,234.331L334.669,229.326L335.671,239.391L336.673,220.811L337.675,226.414L338.677,226.414L339.679,227.737L340.681,204.88L341.683,219.115L342.685,219.115L343.687,219.115L344.689,222.797L345.691,245.654L346.693,223.585L347.695,213.864L348.697,213.864L349.699,182.196L350.701,182.196L351.703,208.611L352.705,195.287L353.707,195.287L354.709,226.956L355.711,223.537L356.713,210.336L357.715,217.859L358.717,217.859L359.719,186.633L360.721,175.257L361.723,188.458L362.725,203.979L363.727,203.979L364.729,233.277L365.731,248.072L366.733,248.072L367.735,235.396L368.737,229.7L369.739,231.628L370.741,220.155L371.743,198.79L372.745,211.466L373.747,217.162L374.749,202.434L375.752,202.673L376.754,220.496L377.756,202.333L378.758,202.333L379.76,217.062L380.762,228.295L381.764,229.922L382.766,248.085L383.768,248.085L384.77,248.085L385.772,248.085L386.774,250L387.776,244.258L388.778,231.838L389.78,231.838L390.782,231.838L391.784,231.838L392.786,229.279L393.788,240.308L394.79,215.399L395.792,215.399L396.794,209.735L397.796,211.098L398.798,212.49L399.8,228.281L400.802,228.281L401.804,200.839L402.806,207.776L403.808,193.404L404.81,202.522L405.812,184.539L406.814,217.645L407.816,215.17L408.818,228.709L409.82,211.51L410.822,229.492L411.824,229.492L412.826,231.968L413.828,229.931L414.83,247.129L415.832,235.101L416.834,219.237L417.836,219.237L418.838,222.107L419.84,200.479L420.842,195.585L421.844,211.45L422.846,178.508L423.848,178.508L424.85,200.135L425.852,217.058L426.854,200.217L427.856,233.159L428.858,202.671L429.86,202.671L430.862,187.758L431.864,196.092L432.866,196.092L433.868,209.697L434.87,209.697L435.872,203.397L436.874,211.905L437.876,211.905L438.878,217.082L439.88,200.521L440.882,209.705L441.884,178.463L442.886,161.577L443.888,153.228L444.89,169.789L445.892,180.152L446.894,202.598L447.896,219.484L448.898,234.826L449.9,228.168L450.902,216.641L451.904,225.438L452.906,225.438L453.908,230.151L454.91,236.809L455.912,231.68L456.914,231.68L457.916,219.384L458.918,219.384L459.92,219.384L460.922,237.704L461.924,219.788L462.926,215.395L463.928,210.207L464.93,210.207L465.932,210.207L466.934,228.123L467.936,244.812L468.938,250L469.94,250L470.942,250L471.944,226.306L472.946,223.794L473.948,201.905L474.95,201.905L475.952,201.905L476.954,225.6L477.956,220.872L478.958,234.212L479.96,206.653L480.962,206.653L481.964,205.182L482.966,212.422L483.968,220.97L484.97,248.529L485.972,248.529L486.974,228.821L487.976,228.787L488.978,228.787L489.98,226.57L490.982,223.17L491.984,244.349L492.986,226.521L493.988,226.521L494.99,228.737L495.992,221.745L496.994,221.745L497.996,233.964L498.998,233.964L500,233.964" stroke="steelblue" stroke-width="2"/></g><g class="mark-rule role-mark layer_2_marks" role="graphics-object" aria-roledescription="rule mark container"><line aria-label="mz: 148.096192385" role="graphics-symbol" aria-roledescription="rule mark" transform="translate(48.09619238476955,0)" x2="0" y2="250" stroke="firebrick" stroke-width="1.5" opacity="0.8"/><line aria-label="mz: 189.178356713" role="graphics-symbol" aria-roledescription="rule mark" transform="translate(89.17835671342687,0)" x2="0" y2="250" stroke="firebrick" stroke-width="1.5" opacity="0.8"/><line aria-label="mz: 218.236472946" role="graphics-symbol" aria-roledescription="rule mark" transform="translate(118.23647294589176,0)" x2="0" y2="250" stroke="firebrick" stroke-width="1.5" opacity="0.8"/><line aria-label="mz: 235.270541082" role="graphics-symbol" aria-roledescription="rule mark" transform="translate(135.2705410821643,0)" x2="0" y2="250" stroke="firebrick" stroke-width="1.5" opacity="0.8"/><line aria-label="mz: 270.340681363" role="graphics-symbol" aria-roledescription="rule mark" transform="translate(170.34068136272543,0)" x2="0" y2="250" stroke="firebrick" stroke-width="1.5" opacity="0.8"/><line aria-label="mz: 311.422845691" role="graphics-symbol" aria-roledescription="rule mark" transform="translate(211.42284569138275,0)" x2="0" y2="250" stroke="firebrick" stroke-width="1.5" opacity="0.8"/><line aria-label="mz: 460.721442886" role="graphics-symbol" aria-roledescription="rule mark" transform="translate(360.7214428857715,0)" x2="0" y2="250" stroke="firebrick" stroke-width="1.5" opacity="0.8"/><line aria-label="mz: 505.811623246" role="graphics-symbol" aria-roledescription="rule mark" transform="translate(405.81162324649296,0)" x2="0" y2="250" stroke="firebrick" stroke-width="1.5" opacity="0.8"/><line aria-label="mz: 543.887775551" role="graphics-symbol" aria-roledescription="rule mark" transform="translate(443.8877755511021,0)" x2="0" y2="250" stroke="firebrick" stroke-width="1.5" opacity="0.8"/></g></g><path class="foreground" aria-hidden="true" d="" display="none"/></g></g></g></svg>