<svg xmlns="http://www.w3.org/2000/svg" xmlns:xlink="http://www.w3.org/1999/xlink" version="1.1" class="marks" width="551" height="297" viewBox="0 0 551 297"><rect width="551" height="297" fill="white"/><g fill="none" stroke-miterlimit="10" transform="translate(44,10)"><g class="mark-group role-frame root" role="graphics-object" aria-roledescription="group mark container"><g transform="translate(0,0)"><path class="background" aria-hidden="true" d="M0.5,0.5h500v250h-500Z" stroke="#ddd"/><g><g class="mark-group role-axis" aria-hidden="true"><g transform="translate(0.5,250.5)"><path class="background" aria-hidden="true" d="M0,0h0v0h0Z" pointer-events="none"/><g><g class="mark-rule role-axis-grid" pointer-events="none"><line transform="translate(0,-250)" x2="0" y2="250" stroke="#ddd" stroke-width="1" opacity="1"/><line transform="translate(33,-250)" x2="0" y2="250" stroke="#ddd" stroke-width="1" opacity="1"/><line transform="translate(67,-250)" x2="0" y2="250" stroke="#ddd" stroke-width="1" opacity="1"/><line transform="translate(100,-250)" x2="0" y2="250" stroke="#ddd" stroke-width="1" opacity="1"/><line transform="translate(133,-250)" x2="0" y2="250" stroke="#ddd" stroke-width="1" opacity="1"/><line transform="translate(167,-250)" x2="0" y2="250" stroke="#ddd" stroke-width="1" opacity="1"/><line transform="translate(200,-250)" x2="0" y2="250" stroke="#ddd" stroke-width="1" opacity="1"/><line transform="translate(233,-250)" x2="0" y2="250" stroke="#ddd" stroke-width="1" opacity="1"/><line transform="translate(267,-250)" x2="0" y2="250" stroke="#ddd" stroke-width="1" opacity="1"/><line transform="translate(300,-250)" x2="0" y2="250" stroke="#ddd" stroke-width="1" opacity="1"/><line transform="translate(333,-250)" x2="0" y2="250" stroke="#ddd" stroke-width="1" opacity="1"/><line transform="translate(367,-250)" x2="0" y2="250" stroke="#ddd" stroke-width="1" opacity="1"/><line transform="translate(400,-250)" x2="0" y2="250" stroke="#ddd" stroke-width="1" opacity="1"/><line transform="translate(433,-250)" x2="0" y2="250" stroke="#ddd" stroke-width="1" opacity="1"/><line transform="translate(467,-250)" x2="0" y2="250" stroke="#ddd" stroke-width="1" opacity="1"/><line transform="translate(500,-250)" x2="0" y2="250" stroke="#ddd" stroke-width="1" opacity="1"/></g></g><path class="foreground" aria-hidden="true" d="" pointer-events="none" display="none"/></g></g><g class="mark-group role-axis" aria-hidden="true"><g transform="translate(0.5,0.5)"><path class="background" aria-hidden="true" d="M0,0h0v0h0Z" pointer-events="none"/><g><g class="mark-rule role-axis-grid" pointer-events="none"><line transform="translate(0,231)" x2="500" y2="0" stroke="#ddd" stroke-width="1" opacity="1"/><line transform="translate(0,192)" x2="500" y2="0" stroke="#ddd" stroke-width="1" opacity="1"/><line transform="translate(0,154)" x2="500" y2="0" stroke="#ddd" stroke-width="1" opacity="1"/><line transform="translate(0,115)" x2="500" y2="0" stroke="#ddd" stroke-width="1" opacity="1"/><line transform="translate(0,77)" x2="500" y2="0" stroke="#ddd" stroke-width="1" opacity="1"/><line transform="translate(0,38)" x2="500" y2="0" stroke="#ddd" stroke-width="1" opacity="1"/><line transform="translate(0,0)" x2="500" y2="0" stroke="#ddd" stroke-width="1" opacity="1"/></g></g><path class="foreground" aria-hidden="true" d="" pointer-events="none" display="none"/></g></g><g class="mark-group role-axis" role="graphics-symbol" aria-roledescription="axis" aria-label="X-axis titled 'Time (days)' for a linear scale with values from 0 to 30"><g transform="translate(0.5,250.5)"><path class="background" aria-hidden="true" d="M0,0h0v0h0Z" pointer-events="none"/><g><g class="mark-rule role-axis-tick" pointer-events="none"><line transform="translate(0,0)" x2="0" y2="5" stroke="#888" stroke-width="1" opacity="1"/><line transform="translate(33,0)" x2="0" y2="5" stroke="#888" stroke-width="1" opacity="1"/><line transform="translate(67,0)" x2="0" y2="5" stroke="#888" stroke-width="1" opacity="1"/><line transform="translate(100,0)" x2="0" y2="5" stroke="#888" stroke-width="1" opacity="1"/><line transform="translate(133,0)" x2="0" y2="5" stroke="#888" stroke-width="1" opacity="1"/><line transform="translate(167,0)" x2="0" y2="5" stroke="#888" stroke-width="1" opacity="1"/><line transform="translate(200,0)" x2="0" y2="5" stroke="#888" stroke-width="1" opacity="1"/><line transform="translate(233,0)" x2="0" y2="5" stroke="#888" stroke-width="1" opacity="1"/><line transform="translate(267,0)" x2="0" y2="5" stroke="#888" stroke-width="1" opacity="1"/><line transform="translate(300,0)" x2="0" y2="5" stroke="#888" stroke-width="1" opacity="1"/><line transform="translate(333,0)" x2="0" y2="5" stroke="#888" stroke-width="1" opacity="1"/><line transform="translate(367,0)" x2="0" y2="5" stroke="#888" stroke-width="1" opacity="1"/><line transform="translate(400,0)" x2="0" y2="5" stroke="#888" stroke-width="1" opacity="1"/><line transform="translate(433,0)" x2="0" y2="5" stroke="#888" stroke-width="1" opacity="1"/><line transform="translate(467,0)" x2="0" y2="5" stroke="#888" stroke-width="1" opacity="1"/><line transform="translate(500,0)" x2="0" y2="5" stroke="#888" stroke-width="1" opacity="1"/></g><g class="mark-text role-axis-label" pointer-events="none"><text text-anchor="start" transform="translate(0,15)" font-family="sans-serif" font-size="10px" fill="#000" opacity="1">0</text><text text-anchor="middle" transform="translate(33.333333333333336,15)" font-family="sans-serif" font-size="10px" fill="#000" opacity="1">2</text><text text-anchor="middle" transform="translate(66.66666666666667,15)" font-family="sans-serif" font-size="10px" fill="#000" opacity="1">4</text><text text-anchor="middle" transform="translate(100,15)" font-family="sans-serif" font-size="10px" fill="#000" opacity="1">6</text><text text-anchor="middle" transform="translate(133.33333333333334,15)" font-family="sans-serif" font-size="10px" fill="#000" opacity="1">8</text><text text-anchor="middle" transform="translate(166.66666666666666,15)" font-family="sans-serif" font-size="10px" fill="#000" opacity="1">10</text><text text-anchor="middle" transform="translate(200,15)" font-family="sans-serif" font-size="10px" fill="#000" opacity="1">12</text><text text-anchor="middle" transform="translate(233.33333333333334,15)" font-family="sans-serif" font-size="10px" fill="#000" opacity="1">14</text><text text-anchor="middle" transform="translate(266.6666666666667,15)" font-family="sans-serif" font-size="10px" fill="#000" opacity="1">16</text><text text-anchor="middle" transform="translate(300,15)" font-family="sans-serif" font-size="10px" fill="#000" opacity="1">18</text><text text-anchor="middle" transform="translate(333.3333333333333,15)" font-family="sans-serif" font-size="10px" fill="#000" opacity="1">20</text><text text-anchor="middle" transform="translate(366.66666666666663,15)" font-family="sans-serif" font-size="10px" fill="#000" opacity="1">22</text><text text-anchor="middle" transform="translate(400,15)" font-family="sans-serif" font-size="10px" fill="#000" opacity="1">24</text><text text-anchor="middle" transform="translate(433.33333333333337,15)" font-family="sans-serif" font-size="10px" fill="#000" opacity="1">26</text><text text-anchor="middle" transform="translate(466.6666666666667,15)" font-family="sans-serif" font-size="10px" fill="#000" opacity="1">28</text><text text-anchor="end" transform="translate(500,15)" font-family="sans-serif" font-size="10px" fill="#000" opacity="1">30</text></g><g class="mark-rule role-axis-domain" pointer-events="none"><line transform="translate(0,0)" x2="500" y2="0" stroke="#888" stroke-width="1" opacity="1"/></g><g class="mark-text role-axis-title" pointer-events="none"><text text-anchor="middle" transform="translate(250,30)" font-family="sans-serif" font-size="11px" font-weight="bold" fill="#000" opacity="1">Time (days)</text></g></g><path class="foreground" aria-hidden="true" d="" pointer-events="none" display="none"/></g></g><g class="mark-group role-axis" role="graphics-symbol" aria-roledescription="axis" aria-label="Y-axis titled 'Radial velocity (m/s)' for a linear scale with values from −70 to 60"><g transform="translate(0.5,0.5)"><path class="background" aria-hidden="true" d="M0,0h0v0h0Z" pointer-events="none"/><g><g class="mark-rule role-axis-tick" pointer-events="none"><line transform="translate(0,231)" x2="-5" y2="0" stroke="#888" stroke-width="1" opacity="1"/><line transform="translate(0,192)" x2="-5" y2="0" stroke="#888" stroke-width="1" opacity="1"/><line transform="translate(0,154)" x2="-5" y2="0" stroke="#888" stroke-width="1" opacity="1"/><line transform="translate(0,115)" x2="-5" y2="0" stroke="#888" stroke-width="1" opacity="1"/><line transform="translate(0,77)" x2="-5" y2="0" stroke="#888" stroke-width="1" opacity="1"/><line transform="translate(0,38)" x2="-5" y2="0" stroke="#888" stroke-width="1" opacity="1"/><line transform="translate(0,0)" x2="-5" y2="0" stroke="#888" stroke-width="1" opacity="1"/></g><g class="mark-text role-axis-label" pointer-events="none"><text text-anchor="end" transform="translate(-7,233.76923076923077)" font-family="sans-serif" font-size="10px" fill="#000" opacity="1">−60</text><text text-anchor="end" transform="translate(-7,195.3076923076923)" font-family="sans-serif" font-size="10px" fill="#000" opacity="1">−40</text><text text-anchor="end" transform="translate(-7,156.84615384615387)" font-family="sans-serif" font-size="10px" fill="#000" opacity="1">−20</text><text text-anchor="end" transform="translate(-7,118.38461538461539)" font-family="sans-serif" font-size="10px" fill="#000" opacity="1">0</text><text text-anchor="end" transform="translate(-7,79.92307692307693)" font-family="sans-serif" font-size="10px" fill="#000" opacity="1">20</text><text text-anchor="end" transform="translate(-7,41.46153846153847)" font-family="sans-serif" font-size="10px" fill="#000" opacity="1">40</text><text text-anchor="end" transform="translate(-7,3)" font-family="sans-serif" font-size="10px" fill="#000" opacity="1">60</text></g><g class="mark-rule role-axis-domain" pointer-events="none"><line transform="translate(0,250)" x2="0" y2="-250" stroke="#888" stroke-width="1" opacity="1"/></g><g class="mark-text role-axis-title" pointer-events="none"><text text-anchor="middle" transform="translate(-27.962890625,125) rotate(-90) translate(0,-2)" font-family="sans-serif" font-size="11px" font-weight="bold" fill="#000" opacity="1">Radial velocity (m/s)</text></g></g><path class="foreground" aria-hidden="true" d="" pointer-events="none" display="none"/></g></g><g class="mark-symbol role-mark layer_0_marks" role="graphics-object" aria-roledescription="symbol mark container"><path aria-label="Time (days): 1.31411297362; Radial velocity (m/s): 51.9171979038" role="graphics-symbol" aria-roledescription="point" transform="translate(21.90188289361439,15.543850185067488)" d="M3.162,0A3.162,3.162,0,1,1,-3.162,0A3.162,3.162,0,1,1,3.162,0" stroke="steelblue" stroke-width="2" opacity="0.8"/><path aria-label="Time (days): 1.91451768313; Radial velocity (m/s): 50.560678542" role="graphics-symbol" aria-roledescription="point" transform="translate(31.90862805208766,18.15254126545257)" d="M3.162,0A3.162,3.162,0,1,1,-3.162,0A3.162,3.162,0,1,1,3.162,0" stroke="steelblue" stroke-width="2" opacity="0.8"/><path aria-label="Time (days): 2.82532043663; Radial velocity (m/s): 46.6643066459" role="graphics-symbol" aria-roledescription="point" transform="translate(47.088673943824766,25.645564142410844)" d="M3.162,0A3.162,3.162,0,1,1,-3.162,0A3.162,3.162,0,1,1,3.162,0" stroke="steelblue" stroke-width="2" opacity="0.8"/><path aria-label="Time (days): 3.84340898027; Radial velocity (m/s): 27.0066743795" role="graphics-symbol" aria-roledescription="point" transform="translate(64.05681633777294,63.448703116420674)" d="M3.162,0A3.162,3.162,0,1,1,-3.162,0A3.162,3.162,0,1,1,3.162,0" stroke="steelblue" stroke-width="2" opacity="0.8"/><path aria-label="Time (days): 3.89764516006; Radial velocity (m/s): 4.55942098495" role="graphics-symbol" aria-roledescription="point" transform="translate(64.96075266773582,106.61649810587062)" d="M3.162,0A3.162,3.162,0,1,1,-3.162,0A3.162,3.162,0,1,1,3.162,0" stroke="steelblue" stroke-width="2" opacity="0.8"/><path aria-label="Time (days): 4.19257450828; Radial velocity (m/s): 7.09520891631" role="graphics-symbol" aria-roledescription="point" transform="translate(69.87624180465492,101.73998285325106)" d="M3.162,0A3.162,3.162,0,1,1,-3.162,0A3.162,3.162,0,1,1,3.162,0" stroke="steelblue" stroke-width="2" opacity="0.8"/><path aria-label="Time (days): 4.62868476203; Radial velocity (m/s): −8.03604248565" role="graphics-symbol" aria-roledescription="point" transform="translate(77.14474603377391,130.8385432416359)" d="M3.162,0A3.162,3.162,0,1,1,-3.162,0A3.162,3.162,0,1,1,3.162,0" stroke="steelblue" stroke-width="2" opacity="0.8"/><path aria-label="Time (days): 5.68414077253; Radial velocity (m/s): −39.7269812688" role="graphics-symbol" aria-roledescription="point" transform="translate(94.73567954214285,191.78265628617132)" d="M3.162,0A3.162,3.162,0,1,1,-3.162,0A3.162,3.162,0,1,1,3.162,0" stroke="steelblue" stroke-width="2" opacity="0.8"/><path aria-label="Time (days): 5.83916123556; Radial velocity (m/s): −39.5554134711" role="graphics-symbol" aria-roledescription="point" transform="translate(97.31935392598379,191.45271821361615)" d="M3.162,0A3.162,3.162,0,1,1,-3.162,0A3.162,3.162,0,1,1,3.162,0" stroke="steelblue" stroke-width="2" opacity="0.8"/><path aria-label="Time (days): 6.80728047153; Radial velocity (m/s): −34.5939795234" role="graphics-symbol" aria-roledescription="point" transform="translate(113.45467452544206,181.91149908352315)" d="M3.162,0A3.162,3.162,0,1,1,-3.162,0A3.162,3.162,0,1,1,3.162,0" stroke="steelblue" stroke-width="2" opacity="0.8"/><path aria-label="Time (days): 6.81716165354; Radial velocity (m/s): −58.2426055214" role="graphics-symbol" aria-roledescription="point" transform="translate(113.61936089238846,227.38962600274832)" d="M3.162,0A3.162,3.162,0,1,1,-3.162,0A3.162,3.162,0,1,1,3.162,0" stroke="steelblue" stroke-width="2" opacity="0.8"/><path aria-label="Time (days): 8.64984311791; Radial velocity (m/s): −16.3802954601" role="graphics-symbol" aria-roledescription="point" transform="translate(144.16405196512204,146.8851835771675)" d="M3.162,0A3.162,3.162,0,1,1,-3.162,0A3.162,3.162,0,1,1,3.162,0" stroke="steelblue" stroke-width="2" opacity="0.8"/><path aria-label="Time (days): 9.37099924146; Radial velocity (m/s): −21.5821496775" role="graphics-symbol" aria-roledescription="point" transform="translate(156.18332069102053,156.88874937971573)" d="M3.162,0A3.162,3.162,0,1,1,-3.162,0A3.162,3.162,0,1,1,3.162,0" stroke="steelblue" stroke-width="2" opacity="0.8"/><path aria-label="Time (days): 9.77476074414; Radial velocity (m/s): 4.54192292112" role="graphics-symbol" aria-roledescription="point" transform="translate(162.91267906907598,106.650148228607)" d="M3.162,0A3.162,3.162,0,1,1,-3.162,0A3.162,3.162,0,1,1,3.162,0" stroke="steelblue" stroke-width="2" opacity="0.8"/><path aria-label="Time (days): 10.6357790439; Radial velocity (m/s): 33.8182093061" role="graphics-symbol" aria-roledescription="point" transform="translate(177.2629840649342,50.34959748832499)" d="M3.162,0A3.162,3.162,0,1,1,-3.162,0A3.162,3.162,0,1,1,3.162,0" stroke="steelblue" stroke-width="2" opacity="0.8"/><path aria-label="Time (days): 11.113791181; Radial velocity (m/s): 47.9307912892" role="graphics-symbol" aria-roledescription="point" transform="translate(185.22985301743444,23.210016751628675)" d="M3.162,0A3.162,3.162,0,1,1,-3.162,0A3.162,3.162,0,1,1,3.162,0" stroke="steelblue" stroke-width="2" opacity="0.8"/><path aria-label="Time (days): 11.123940727; Radial velocity (m/s): 49.3523060315" role="graphics-symbol" aria-roledescription="point" transform="translate(185.3990121162906,20.47633455481862)" d="M3.162,0A3.162,3.162,0,1,1,-3.162,0A3.162,3.162,0,1,1,3.162,0" stroke="steelblue" stroke-width="2" opacity="0.8"/><path aria-label="Time (days): 11.6243513709; Radial velocity (m/s): 56.3767885234" role="graphics-symbol" aria-roledescription="point" transform="translate(193.73918951508722,6.9677143780822455)" d="M3.162,0A3.162,3.162,0,1,1,-3.162,0A3.162,3.162,0,1,1,3.162,0" stroke="steelblue" stroke-width="2" opacity="0.8"/><path aria-label="Time (days): 13.1145575662; Radial velocity (m/s): 35.1976804183" role="graphics-symbol" aria-roledescription="point" transform="translate(218.57595943616533,47.69676842628287)" d="M3.162,0A3.162,3.162,0,1,1,-3.162,0A3.162,3.162,0,1,1,3.162,0" stroke="steelblue" stroke-width="2" opacity="0.8"/><path aria-label="Time (days): 13.1663531926; Radial velocity (m/s): 33.0101873796" role="graphics-symbol" aria-roledescription="point" transform="translate(219.43921987602616,51.90348580848273)" d="M3.162,0A3.162,3.162,0,1,1,-3.162,0A3.162,3.162,0,1,1,3.162,0" stroke="steelblue" stroke-width="2" opacity="0.8"/><path aria-label="Time (days): 13.3024259648; Radial velocity (m/s): 43.2648952611" role="graphics-symbol" aria-roledescription="point" transform="translate(221.70709941366556,32.182893728596454)" d="M3.162,0A3.162,3.162,0,1,1,-3.162,0A3.162,3.162,0,1,1,3.162,0" stroke="steelblue" stroke-width="2" opacity="0.8"/><path aria-label="Time (days): 13.5115781369; Radial velocity (m/s): 27.7540048703" role="graphics-symbol" aria-roledescription="point" transform="translate(225.19296894778356,62.011529095654716)" d="M3.162,0A3.162,3.162,0,1,1,-3.162,0A3.162,3.162,0,1,1,3.162,0" stroke="steelblue" stroke-width="2" opacity="0.8"/><path aria-label="Time (days): 14.0016301118; Radial velocity (m/s): 3.31724375731" role="graphics-symbol" aria-roledescription="point" transform="translate(233.3605018635171,109.00530046670659)" d="M3.162,0A3.162,3.162,0,1,1,-3.162,0A3.162,3.162,0,1,1,3.162,0" stroke="steelblue" stroke-width="2" opacity="0.8"/><path aria-label="Time (days): 14.0866743383; Radial velocity (m/s): 2.18958060042" role="graphics-symbol" aria-roledescription="point" transform="translate(234.77790563790396,111.17388346073417)" d="M3.162,0A3.162,3.162,0,1,1,-3.162,0A3.162,3.162,0,1,1,3.162,0" stroke="steelblue" stroke-width="2" opacity="0.8"/><path aria-label="Time (days): 14.2711477868; Radial velocity (m/s): −1.32975324856" role="graphics-symbol" aria-roledescription="point" transform="translate(237.85246311296686,117.94183317030877)" d="M3.162,0A3.162,3.162,0,1,1,-3.162,0A3.162,3.162,0,1,1,3.162,0" stroke="steelblue" stroke-width="2" opacity="0.8"/><path aria-label="Time (days): 16.6375436105; Radial velocity (m/s): −43.5726538647" role="graphics-symbol" aria-roledescription="point" transform="translate(277.2923935079174,199.1781805090424)" d="M3.162,0A3.162,3.162,0,1,1,-3.162,0A3.162,3.162,0,1,1,3.162,0" stroke="steelblue" stroke-width="2" opacity="0.8"/><path aria-label="Time (days): 18.9499319737; Radial velocity (m/s): −16.1790279502" role="graphics-symbol" aria-roledescription="point" transform="translate(315.83219956103244,146.49813067346213)" d="M3.162,0A3.162,3.162,0,1,1,-3.162,0A3.162,3.162,0,1,1,3.162,0" stroke="steelblue" stroke-width="2" opacity="0.8"/><path aria-label="Time (days): 19.3159536024; Radial velocity (m/s): 0.433110375625" role="graphics-symbol" aria-roledescription="point" transform="translate(321.93256004033225,114.55171081610658)" d="M3.162,0A3.162,3.162,0,1,1,-3.162,0A3.162,3.162,0,1,1,3.162,0" stroke="steelblue" stroke-width="2" opacity="0.8"/><path aria-label="Time (days): 20.0944198405; Radial velocity (m/s): 13.3096290958" role="graphics-symbol" aria-roledescription="point" transform="translate(334.9069973412552,89.78917481576146)" d="M3.162,0A3.162,3.162,0,1,1,-3.162,0A3.162,3.162,0,1,1,3.162,0" stroke="steelblue" stroke-width="2" opacity="0.8"/><path aria-label="Time (days): 20.4748651192; Radial velocity (m/s): 29.7500758895" role="graphics-symbol" aria-roledescription="point" transform="translate(341.24775198748773,58.172930981718025)" d="M3.162,0A3.162,3.162,0,1,1,-3.162,0A3.162,3.162,0,1,1,3.162,0" stroke="steelblue" stroke-width="2" opacity="0.8"/><path aria-label="Time (days): 20.4914685973; Radial velocity (m/s): 34.8500293368" role="graphics-symbol" aria-roledescription="point" transform="translate(341.52447662122734,48.365328198470614)" d="M3.162,0A3.162,3.162,0,1,1,-3.162,0A3.162,3.162,0,1,1,3.162,0" stroke="steelblue" stroke-width="2" opacity="0.8"/><path aria-label="Time (days): 20.9210408718; Radial velocity (m/s): 35.4022560326" role="graphics-symbol" aria-roledescription="point" transform="translate(348.684014529682,47.30335378339662)" d="M3.162,0A3.162,3.162,0,1,1,-3.162,0A3.162,3.162,0,1,1,3.162,0" stroke="steelblue" stroke-width="2" opacity="0.8"/><path aria-label="Time (days): 21.0079530601; Radial velocity (m/s): 44.7476374222" role="graphics-symbol" aria-roledescription="point" transform="translate(350.13255100112457,29.331466495852858)" d="M3.162,0A3.162,3.162,0,1,1,-3.162,0A3.162,3.162,0,1,1,3.162,0" stroke="steelblue" stroke-width="2" opacity="0.8"/><path aria-label="Time (days): 22.3428646772; Radial velocity (m/s): 42.3714248103" role="graphics-symbol" aria-roledescription="point" transform="translate(372.3810779539086,33.901106134026335)" d="M3.162,0A3.162,3.162,0,1,1,-3.162,0A3.162,3.162,0,1,1,3.162,0" stroke="steelblue" stroke-width="2" opacity="0.8"/><path aria-label="Time (days): 22.7426322026; Radial velocity (m/s): 41.3383915494" role="graphics-symbol" aria-roledescription="point" transform="translate(379.04387004268693,35.88770855883758)" d="M3.162,0A3.162,3.162,0,1,1,-3.162,0A3.162,3.162,0,1,1,3.162,0" stroke="steelblue" stroke-width="2" opacity="0.8"/><path aria-label="Time (days): 22.8341910597; Radial velocity (m/s): 39.8203727942" role="graphics-symbol" aria-roledescription="point" transform="translate(380.5698509951765,38.806975395715284)" d="M3.162,0A3.162,3.162,0,1,1,-3.162,0A3.162,3.162,0,1,1,3.162,0" stroke="steelblue" stroke-width="2" opacity="0.8"/><path aria-label="Time (days): 23.2186814567; Radial velocity (m/s): 24.5728047332" role="graphics-symbol" aria-roledescription="point" transform="translate(386.97802427798166,68.12922166699276)" d="M3.162,0A3.162,3.162,0,1,1,-3.162,0A3.162,3.162,0,1,1,3.162,0" stroke="steelblue" stroke-width="2" opacity="0.8"/><path aria-label="Time (days): 23.3515049122; Radial velocity (m/s): 38.4280042111" role="graphics-symbol" aria-roledescription="point" transform="translate(389.19174853688094,41.484607286300516)" d="M3.162,0A3.162,3.162,0,1,1,-3.162,0A3.162,3.162,0,1,1,3.162,0" stroke="steelblue" stroke-width="2" opacity="0.8"/><path aria-label="Time (days): 23.5819291583; Radial velocity (m/s): 23.165568655" role="graphics-symbol" aria-roledescription="point" transform="translate(393.03215263847693,70.83544489423238)" d="M3.162,0A3.162,3.162,0,1,1,-3.162,0A3.162,3.162,0,1,1,3.162,0" stroke="steelblue" stroke-width="2" opacity="0.8"/><path aria-label="Time (days): 24.1429307249; Radial velocity (m/s): 11.9378164963" role="graphics-symbol" aria-roledescription="point" transform="translate(402.3821787484009,92.42727596865095)" d="M3.162,0A3.162,3.162,0,1,1,-3.162,0A3.162,3.162,0,1,1,3.162,0" stroke="steelblue" stroke-width="2" opacity="0.8"/><path aria-label="Time (days): 24.6828483981; Radial velocity (m/s): −0.220409701608" role="graphics-symbol" aria-roledescription="point" transform="translate(411.380806635415,115.80848019539991)" d="M3.162,0A3.162,3.162,0,1,1,-3.162,0A3.162,3.162,0,1,1,3.162,0" stroke="steelblue" stroke-width="2" opacity="0.8"/><path aria-label="Time (days): 24.8289351598; Radial velocity (m/s): −5.10117791896" role="graphics-symbol" aria-roledescription="point" transform="translate(413.815585996291,125.19457292107263)" d="M3.162,0A3.162,3.162,0,1,1,-3.162,0A3.162,3.162,0,1,1,3.162,0" stroke="steelblue" stroke-width="2" opacity="0.8"/><path aria-label="Time (days): 24.9677940419; Radial velocity (m/s): −7.15260970754" role="graphics-symbol" aria-roledescription="point" transform="translate(416.12990069760053,129.13963405296474)" d="M3.162,0A3.162,3.162,0,1,1,-3.162,0A3.162,3.162,0,1,1,3.162,0" stroke="steelblue" stroke-width="2" opacity="0.8"/><path aria-label="Time (days): 24.9803458817; Radial velocity (m/s): −15.1698787754" role="graphics-symbol" aria-roledescription="point" transform="translate(416.3390980289187,144.55745918348524)" d="M3.162,0A3.162,3.162,0,1,1,-3.162,0A3.162,3.162,0,1,1,3.162,0" stroke="steelblue" stroke-width="2" opacity="0.8"/><path aria-label="Time (days): 25.7579375973; Radial velocity (m/s): −39.2625630679" role="graphics-symbol" aria-roledescription="point" transform="translate(429.2989599556912,190.88954436139213)" d="M3.162,0A3.162,3.162,0,1,1,-3.162,0A3.162,3.162,0,1,1,3.162,0" stroke="steelblue" stroke-width="2" opacity="0.8"/><path aria-label="Time (days): 26.7936336397; Radial velocity (m/s): −50.2809459825" role="graphics-symbol" aria-roledescription="point" transform="translate(446.56056066109886,212.07874227395774)" d="M3.162,0A3.162,3.162,0,1,1,-3.162,0A3.162,3.162,0,1,1,3.162,0" stroke="steelblue" stroke-width="2" opacity="0.8"/><path aria-label="Time (days): 27.8029496655; Radial velocity (m/s): −60.9817747829" role="graphics-symbol" aria-roledescription="point" transform="translate(463.3824944243009,232.65725919797435)" d="M3.162,0A3.162,3.162,0,1,1,-3.162,0A3.162,3.162,0,1,1,3.162,0" stroke="steelblue" stroke-width="2" opacity="0.8"/><path aria-label="Time (days): 29.025291973; Radial velocity (m/s): −29.8395826793" role="graphics-symbol" aria-roledescription="point" transform="translate(483.754866217105,172.7684282295146)" d="M3.162,0A3.162,3.162,0,1,1,-3.162,0A3.162,3.162,0,1,1,3.162,0" stroke="steelblue" stroke-width="2" opacity="0.8"/><path aria-label="Time (days): 29.1209407318; Radial velocity (m/s): −25.7100013147" role="graphics-symbol" aria-roledescription="point" transform="translate(485.34901219745166,164.82692560512763)" d="M3.162,0A3.162,3.162,0,1,1,-3.162,0A3.162,3.162,0,1,1,3.162,0" stroke="steelblue" stroke-width="2" opacity="0.8"/><path aria-label="Time (days): 29.2686705491; Radial velocity (m/s): −17.914084253" role="graphics-symbol" aria-roledescription="point" transform="translate(487.811175818378,149.83477740970142)" d="M3.162,0A3.162,3.162,0,1,1,-3.162,0A3.162,3.162,0,1,1,3.162,0" stroke="steelblue" stroke-width="2" opacity="0.8"/></g><g class="mark-line role-mark layer_1_marks" role="graphics-object" aria-roledescription="line mark container"><path aria-label="t: 1.31411297362; rv: 47.197163822" role="graphics-symbol" aria-roledescription="line mark" d="M21.902,24.621L23.07,23.368L24.237,22.295L25.405,21.404L26.573,20.696L27.74,20.172L28.908,19.834L30.076,19.682L31.243,19.716L32.411,19.937L33.579,20.343L34.746,20.935L35.914,21.711L37.082,22.669L38.25,23.809L39.417,25.126L40.585,26.62L41.753,28.288L42.92,30.125L44.088,32.129L45.256,34.296L46.423,36.622L47.591,39.102L48.759,41.732L49.927,44.507L51.094,47.421L52.262,50.469L53.43,53.645L54.597,56.944L55.765,60.358L56.933,63.882L58.1,67.509L59.268,71.232L60.436,75.044L61.603,78.937L62.771,82.905L63.939,86.94L65.107,91.034L66.274,95.179L67.442,99.368L68.61,103.593L69.777,107.846L70.945,112.118L72.113,116.402L73.28,120.69L74.448,124.972L75.616,129.243L76.783,133.492L77.951,137.713L79.119,141.896L80.287,146.036L81.454,150.122L82.622,154.149L83.79,158.107L84.957,161.99L86.125,165.791L87.293,169.501L88.46,173.115L89.628,176.625L90.796,180.025L91.963,183.308L93.131,186.467L94.299,189.498L95.467,192.394L96.634,195.15L97.802,197.761L98.97,200.221L100.137,202.526L101.305,204.672L102.473,206.655L103.64,208.47L104.808,210.115L105.976,211.586L107.143,212.881L108.311,213.996L109.479,214.931L110.647,215.683L111.814,216.25L112.982,216.633L114.15,216.829L115.317,216.839L116.485,216.662L117.653,216.299L118.82,215.751L119.988,215.019L121.156,214.104L122.323,213.007L123.491,211.731L124.659,210.279L125.827,208.652L126.994,206.855L128.162,204.89L129.33,202.761L130.497,200.472L131.665,198.028L132.833,195.434L134,192.693L135.168,189.811L136.336,186.794L137.503,183.648L138.671,180.378L139.839,176.99L141.007,173.491L142.174,169.888L143.342,166.188L144.51,162.396L145.677,158.522L146.845,154.571L148.013,150.551L149.18,146.47L150.348,142.336L151.516,138.157L152.683,133.94L153.851,129.693L155.019,125.425L156.187,121.143L157.354,116.856L158.522,112.571L159.69,108.297L160.857,104.042L162.025,99.814L163.193,95.62L164.36,91.47L165.528,87.37L166.696,83.329L167.863,79.354L169.031,75.452L170.199,71.631L171.367,67.899L172.534,64.261L173.702,60.726L174.87,57.3L176.037,53.989L177.205,50.799L178.373,47.737L179.54,44.809L180.708,42.019L181.876,39.373L183.043,36.877L184.211,34.535L185.379,32.351L186.547,30.329L187.714,28.474L188.882,26.789L190.05,25.276L191.217,23.94L192.385,22.781L193.553,21.804L194.72,21.008L195.888,20.397L197.056,19.971L198.223,19.73L199.391,19.676L200.559,19.809L201.727,20.127L202.894,20.632L204.062,21.32L205.23,22.193L206.397,23.246L207.565,24.48L208.733,25.891L209.9,27.476L211.068,29.234L212.236,31.159L213.403,33.25L214.571,35.501L215.739,37.908L216.907,40.468L218.074,43.175L219.242,46.023L220.41,49.009L221.577,52.125L222.745,55.366L223.913,58.727L225.08,62.2L226.248,65.779L227.416,69.457L228.583,73.227L229.751,77.083L230.919,81.017L232.087,85.021L233.254,89.087L234.422,93.209L235.59,97.379L236.757,101.588L237.925,105.828L239.093,110.092L240.26,114.372L241.428,118.658L242.596,122.944L243.763,127.222L244.931,131.482L246.099,135.717L247.267,139.919L248.434,144.081L249.602,148.193L250.77,152.249L251.937,156.241L253.105,160.161L254.273,164.001L255.44,167.755L256.608,171.416L257.776,174.976L258.943,178.428L260.111,181.767L261.279,184.986L262.447,188.079L263.614,191.04L264.782,193.863L265.95,196.543L267.117,199.075L268.285,201.454L269.453,203.676L270.62,205.736L271.788,207.631L272.956,209.357L274.123,210.911L275.291,212.289L276.459,213.49L277.627,214.511L278.794,215.349L279.962,216.004L281.13,216.475L282.297,216.759L283.465,216.857L284.633,216.769L285.8,216.494L286.968,216.034L288.136,215.389L289.303,214.56L290.471,213.549L291.639,212.358L292.807,210.989L293.974,209.444L295.142,207.727L296.31,205.841L297.477,203.79L298.645,201.576L299.813,199.205L300.98,196.681L302.148,194.009L303.316,191.193L304.483,188.24L305.651,185.154L306.819,181.942L307.987,178.609L309.154,175.162L310.322,171.608L311.49,167.953L312.657,164.203L313.825,160.367L314.993,156.451L316.16,152.463L317.328,148.411L318.496,144.301L319.663,140.142L320.831,135.942L321.999,131.708L323.167,127.449L324.334,123.173L325.502,118.887L326.67,114.6L327.837,110.32L329.005,106.055L330.173,101.813L331.34,97.602L332.508,93.43L333.676,89.306L334.843,85.236L336.011,81.228L337.179,77.291L338.347,73.431L339.514,69.655L340.682,65.972L341.85,62.388L343.017,58.909L344.185,55.542L345.353,52.295L346.52,49.171L347.688,46.179L348.856,43.323L350.023,40.608L351.191,38.041L352.359,35.625L353.527,33.365L354.694,31.266L355.862,29.332L357.03,27.566L358.197,25.971L359.365,24.551L360.533,23.308L361.7,22.244L362.868,21.362L364.036,20.664L365.203,20.15L366.371,19.821L367.539,19.679L368.707,19.723L369.874,19.953L371.042,20.37L372.21,20.971L373.377,21.757L374.545,22.725L375.713,23.873L376.88,25.2L378.048,26.704L379.216,28.38L380.383,30.226L381.551,32.239L382.719,34.415L383.887,36.749L385.054,39.237L386.222,41.874L387.39,44.657L388.557,47.578L389.725,50.633L390.893,53.816L392.06,57.12L393.228,60.541L394.396,64.07L395.563,67.702L396.731,71.43L397.899,75.246L399.067,79.144L400.234,83.115L401.402,87.153L402.57,91.25L403.737,95.398L404.905,99.589L406.073,103.816L407.24,108.07L408.408,112.343L409.576,116.627L410.743,120.915L411.911,125.197L413.079,129.466L414.247,133.714L415.414,137.933L416.582,142.115L417.75,146.252L418.917,150.335L420.085,154.358L421.253,158.313L422.42,162.192L423.588,165.988L424.756,169.694L425.923,173.302L427.091,176.807L428.259,180.2L429.427,183.477L430.594,186.63L431.762,189.654L432.93,192.543L434.097,195.291L435.265,197.894L436.433,200.346L437.6,202.643L438.768,204.781L439.936,206.754L441.103,208.561L442.271,210.197L443.439,211.658L444.607,212.944L445.774,214.05L446.942,214.975L448.11,215.717L449.277,216.275L450.445,216.647L451.613,216.834L452.78,216.834L453.948,216.648L455.116,216.275L456.283,215.718L457.451,214.976L458.619,214.051L459.787,212.945L460.954,211.659L462.122,210.198L463.29,208.562L464.457,206.756L465.625,204.782L466.793,202.645L467.96,200.348L469.128,197.896L470.296,195.293L471.463,192.545L472.631,189.656L473.799,186.632L474.967,183.479L476.134,180.203L477.302,176.809L478.47,173.305L479.637,169.696L480.805,165.991L481.973,162.195L483.14,158.316L484.308,154.361L485.476,150.338L486.643,146.255L487.811,142.118" stroke="firebrick" stroke-width="2"/></g><g class="mark-line role-mark layer_2_marks" role="graphics-object" aria-roledescription="line mark container"><path aria-label="t: 0; rv: 14.7760103331" role="graphics-symbol" aria-roledescription="line mark" d="M0,86.969L1.253,82.663L2.506,78.43L3.759,74.279L5.013,70.22L6.266,66.261L7.519,62.413L8.772,58.682L10.025,55.078L11.278,51.609L12.531,48.282L13.784,45.104L15.038,42.084L16.291,39.227L17.544,36.54L18.797,34.029L20.05,31.699L21.303,29.556L22.556,27.605L23.81,25.849L25.063,24.294L26.316,22.941L27.569,21.795L28.822,20.858L30.075,20.132L31.328,19.618L32.581,19.318L33.835,19.232L35.088,19.361L36.341,19.704L37.594,20.26L38.847,21.029L40.1,22.008L41.353,23.196L42.607,24.59L43.86,26.186L45.113,27.981L46.366,29.971L47.619,32.151L48.872,34.518L50.125,37.065L51.378,39.786L52.632,42.677L53.885,45.729L55.138,48.937L56.391,52.293L57.644,55.79L58.897,59.421L60.15,63.175L61.404,67.047L62.657,71.026L63.91,75.104L65.163,79.272L66.416,83.521L67.669,87.841L68.922,92.222L70.175,96.655L71.429,101.13L72.682,105.636L73.935,110.165L75.188,114.705L76.441,119.246L77.694,123.779L78.947,128.293L80.201,132.778L81.454,137.225L82.707,141.622L83.96,145.962L85.213,150.233L86.466,154.426L87.719,158.532L88.972,162.542L90.226,166.446L91.479,170.237L92.732,173.905L93.985,177.443L95.238,180.842L96.491,184.095L97.744,187.195L98.997,190.135L100.251,192.908L101.504,195.507L102.757,197.928L104.01,200.165L105.263,202.213L106.516,204.067L107.769,205.723L109.023,207.177L110.276,208.427L111.529,209.469L112.782,210.301L114.035,210.921L115.288,211.328L116.541,211.521L117.794,211.5L119.048,211.264L120.301,210.814L121.554,210.151L122.807,209.277L124.06,208.193L125.313,206.902L126.566,205.407L127.82,203.711L129.073,201.818L130.326,199.732L131.579,197.457L132.832,195L134.085,192.365L135.338,189.558L136.591,186.586L137.845,183.455L139.098,180.172L140.351,176.744L141.604,173.18L142.857,169.486L144.11,165.672L145.363,161.746L146.617,157.716L147.87,153.592L149.123,149.382L150.376,145.097L151.629,140.745L152.882,136.337L154.135,131.881L155.388,127.39L156.642,122.871L157.895,118.335L159.148,113.794L160.401,109.255L161.654,104.73L162.907,100.229L164.16,95.762L165.414,91.339L166.667,86.969L167.92,82.663L169.173,78.43L170.426,74.279L171.679,70.22L172.932,66.261L174.185,62.413L175.439,58.682L176.692,55.078L177.945,51.609L179.198,48.282L180.451,45.104L181.704,42.084L182.957,39.227L184.211,36.54L185.464,34.029L186.717,31.699L187.97,29.556L189.223,27.605L190.476,25.849L191.729,24.294L192.982,22.941L194.236,21.795L195.489,20.858L196.742,20.132L197.995,19.618L199.248,19.318L200.501,19.232L201.754,19.361L203.008,19.704L204.261,20.26L205.514,21.029L206.767,22.008L208.02,23.196L209.273,24.59L210.526,26.186L211.779,27.981L213.033,29.971L214.286,32.151L215.539,34.518L216.792,37.065L218.045,39.786L219.298,42.677L220.551,45.729L221.805,48.937L223.058,52.293L224.311,55.79L225.564,59.421L226.817,63.175L228.07,67.047L229.323,71.026L230.576,75.104L231.83,79.272L233.083,83.521L234.336,87.841L235.589,92.222L236.842,96.655L238.095,101.13L239.348,105.636L240.602,110.165L241.855,114.705L243.108,119.246L244.361,123.779L245.614,128.293L246.867,132.778L248.12,137.225L249.373,141.622L250.627,145.962L251.88,150.233L253.133,154.426L254.386,158.532L255.639,162.542L256.892,166.446L258.145,170.237L259.398,173.905L260.652,177.443L261.905,180.842L263.158,184.095L264.411,187.195L265.664,190.135L266.917,192.908L268.17,195.507L269.424,197.928L270.677,200.165L271.93,202.213L273.183,204.067L274.436,205.723L275.689,207.177L276.942,208.427L278.195,209.469L279.449,210.301L280.702,210.921L281.955,211.328L283.208,211.521L284.461,211.5L285.714,211.264L286.967,210.814L288.221,210.151L289.474,209.277L290.727,208.193L291.98,206.902L293.233,205.407L294.486,203.711L295.739,201.818L296.992,199.732L298.246,197.457L299.499,195L300.752,192.365L302.005,189.558L303.258,186.586L304.511,183.455L305.764,180.172L307.018,176.744L308.271,173.18L309.524,169.486L310.777,165.672L312.03,161.746L313.283,157.716L314.536,153.592L315.789,149.382L317.043,145.097L318.296,140.745L319.549,136.337L320.802,131.881L322.055,127.39L323.308,122.871L324.561,118.335L325.815,113.794L327.068,109.255L328.321,104.73L329.574,100.229L330.827,95.762L332.08,91.339L333.333,86.969L334.586,82.663L335.84,78.43L337.093,74.279L338.346,70.22L339.599,66.261L340.852,62.413L342.105,58.682L343.358,55.078L344.612,51.609L345.865,48.282L347.118,45.104L348.371,42.084L349.624,39.227L350.877,36.54L352.13,34.029L353.383,31.699L354.637,29.556L355.89,27.605L357.143,25.849L358.396,24.294L359.649,22.941L360.902,21.795L362.155,20.858L363.409,20.132L364.662,19.618L365.915,19.318L367.168,19.232L368.421,19.361L369.674,19.704L370.927,20.26L372.18,21.029L373.434,22.008L374.687,23.196L375.94,24.59L377.193,26.186L378.446,27.981L379.699,29.971L380.952,32.151L382.206,34.518L383.459,37.065L384.712,39.786L385.965,42.677L387.218,45.729L388.471,48.937L389.724,52.293L390.977,55.79L392.231,59.421L393.484,63.175L394.737,67.047L395.99,71.026L397.243,75.104L398.496,79.272L399.749,83.521L401.003,87.841L402.256,92.222L403.509,96.655L404.762,101.13L406.015,105.636L407.268,110.165L408.521,114.705L409.774,119.246L411.028,123.779L412.281,128.293L413.534,132.778L414.787,137.225L416.04,141.622L417.293,145.962L418.546,150.233L419.799,154.426L421.053,158.532L422.306,162.542L423.559,166.446L424.812,170.237L426.065,173.905L427.318,177.443L428.571,180.842L429.825,184.095L431.078,187.195L432.331,190.135L433.584,192.908L434.837,195.507L436.09,197.928L437.343,200.165L438.596,202.213L439.85,204.067L441.103,205.723L442.356,207.177L443.609,208.427L444.862,209.469L446.115,210.301L447.368,210.921L448.622,211.328L449.875,211.521L451.128,211.5L452.381,211.264L453.634,210.814L454.887,210.151L456.14,209.277L457.393,208.193L458.647,206.902L459.9,205.407L461.153,203.711L462.406,201.818L463.659,199.732L464.912,197.457L466.165,195L467.419,192.365L468.672,189.558L469.925,186.586L471.178,183.455L472.431,180.172L473.684,176.744L474.937,173.18L476.19,169.486L477.444,165.672L478.697,161.746L479.95,157.716L481.203,153.592L482.456,149.382L483.709,145.097L484.962,140.745L486.216,136.337L487.469,131.881L488.722,127.39L489.975,122.871L491.228,118.335L492.481,113.794L493.734,109.255L494.987,104.73L496.241,100.229L497.494,95.762L498.747,91.339L500,86.969" stroke="grey" stroke-width="1.5" stroke-dasharray="6,3"/></g></g><path class="foreground" aria-hidden="true" d="" display="none"/></g></g></g></svg>