<svg xmlns="http://www.w3.org/2000/svg" xmlns:xlink="http://www.w3.org/1999/xlink" version="1.1" class="marks" width="467" height="424" viewBox="0 0 467 424"><rect width="467" height="424" fill="white"/><g fill="none" stroke-miterlimit="10" transform="translate(44,27)"><g class="mark-group role-frame root" role="graphics-object" aria-roledescription="group mark container"><g transform="translate(0,0)"><path class="background" aria-hidden="true" d="M0.5,0.5h360v360h-360Z" stroke="#ddd"/><g><g class="mark-group role-axis" aria-hidden="true"><g transform="translate(0.5,360.5)"><path class="background" aria-hidden="true" d="M0,0h0v0h0Z" pointer-events="none"/><g><g class="mark-rule role-axis-grid" pointer-events="none"><line transform="translate(0,-360)" x2="0" y2="360" stroke="#ddd" stroke-width="1" opacity="1"/><line transform="translate(36,-360)" x2="0" y2="360" stroke="#ddd" stroke-width="1" opacity="1"/><line transform="translate(72,-360)" x2="0" y2="360" stroke="#ddd" stroke-width="1" opacity="1"/><line transform="translate(108,-360)" x2="0" y2="360" stroke="#ddd" stroke-width="1" opacity="1"/><line transform="translate(144,-360)" x2="0" y2="360" stroke="#ddd" stroke-width="1" opacity="1"/><line transform="translate(180,-360)" x2="0" y2="360" stroke="#ddd" stroke-width="1" opacity="1"/><line transform="translate(216,-360)" x2="0" y2="360" stroke="#ddd" stroke-width="1" opacity="1"/><line transform="translate(252,-360)" x2="0" y2="360" stroke="#ddd" stroke-width="1" opacity="1"/><line transform="translate(288,-360)" x2="0" y2="360" stroke="#ddd" stroke-width="1" opacity="1"/><line transform="translate(324,-360)" x2="0" y2="360" stroke="#ddd" stroke-width="1" opacity="1"/><line transform="translate(360,-360)" x2="0" y2="360" stroke="#ddd" stroke-width="1" opacity="1"/></g></g><path class="foreground" aria-hidden="true" d="" pointer-events="none" display="none"/></g></g><g class="mark-group role-axis" aria-hidden="true"><g transform="translate(0.5,0.5)"><path class="background" aria-hidden="true" d="M0,0h0v0h0Z" pointer-events="none"/><g><g class="mark-rule role-axis-grid" pointer-events="none"><line transform="translate(0,360)" x2="360" y2="0" stroke="#ddd" stroke-width="1" opacity="1"/><line transform="translate(0,324)" x2="360" y2="0" stroke="#ddd" stroke-width="1" opacity="1"/><line transform="translate(0,288)" x2="360" y2="0" stroke="#ddd" stroke-width="1" opacity="1"/><line transform="translate(0,252)" x2="360" y2="0" stroke="#ddd" stroke-width="1" opacity="1"/><line transform="translate(0,216)" x2="360" y2="0" stroke="#ddd" stroke-width="1" opacity="1"/><line transform="translate(0,180)" x2="360" y2="0" stroke="#ddd" stroke-width="1" opacity="1"/><line transform="translate(0,144)" x2="360" y2="0" stroke="#ddd" stroke-width="1" opacity="1"/><line transform="translate(0,108)" x2="360" y2="0" stroke="#ddd" stroke-width="1" opacity="1"/><line transform="translate(0,72)" x2="360" y2="0" stroke="#ddd" stroke-width="1" opacity="1"/><line transform="translate(0,36)" x2="360" y2="0" stroke="#ddd" stroke-width="1" opacity="1"/><line transform="translate(0,0)" x2="360" y2="0" stroke="#ddd" stroke-width="1" opacity="1"/></g></g><path class="foreground" aria-hidden="true" d="" pointer-events="none" display="none"/></g></g><g class="mark-group role-axis" role="graphics-symbol" aria-roledescription="axis" aria-label="X-axis titled 'Easting' for a linear scale with values from 0 to 100"><g transform="translate(0.5,360.5)"><path class="background" aria-hidden="true" d="M0,0h0v0h0Z" pointer-events="none"/><g><g class="mark-rule role-axis-tick" pointer-events="none"><line transform="translate(0,0)" x2="0" y2="5" stroke="#888" stroke-width="1" opacity="1"/><line transform="translate(36,0)" x2="0" y2="5" stroke="#888" stroke-width="1" opacity="1"/><line transform="translate(72,0)" x2="0" y2="5" stroke="#888" stroke-width="1" opacity="1"/><line transform="translate(108,0)" x2="0" y2="5" stroke="#888" stroke-width="1" opacity="1"/><line transform="translate(144,0)" x2="0" y2="5" stroke="#888" stroke-width="1" opacity="1"/><line transform="translate(180,0)" x2="0" y2="5" stroke="#888" stroke-width="1" opacity="1"/><line transform="translate(216,0)" x2="0" y2="5" stroke="#888" stroke-width="1" opacity="1"/><line transform="translate(252,0)" x2="0" y2="5" stroke="#888" stroke-width="1" opacity="1"/><line transform="translate(288,0)" x2="0" y2="5" stroke="#888" stroke-width="1" opacity="1"/><line transform="translate(324,0)" x2="0" y2="5" stroke="#888" stroke-width="1" opacity="1"/><line transform="translate(360,0)" x2="0" y2="5" stroke="#888" stroke-width="1" opacity="1"/></g><g class="mark-text role-axis-label" pointer-events="none"><text text-anchor="start" transform="translate(0,15)" font-family="sans-serif" font-size="10px" fill="#000" opacity="1">0</text><text text-anchor="middle" transform="translate(36,15)" font-family="sans-serif" font-size="10px" fill="#000" opacity="1">10</text><text text-anchor="middle" transform="translate(72,15)" font-family="sans-serif" font-size="10px" fill="#000" opacity="1">20</text><text text-anchor="middle" transform="translate(108,15)" font-family="sans-serif" font-size="10px" fill="#000" opacity="1">30</text><text text-anchor="middle" transform="translate(144,15)" font-family="sans-serif" font-size="10px" fill="#000" opacity="1">40</text><text text-anchor="middle" transform="translate(180,15)" font-family="sans-serif" font-size="10px" fill="#000" opacity="1">50</text><text text-anchor="middle" transform="translate(216,15)" font-family="sans-serif" font-size="10px" fill="#000" opacity="1">60</text><text text-anchor="middle" transform="translate(251.99999999999997,15)" font-family="sans-serif" font-size="10px" fill="#000" opacity="1">70</text><text text-anchor="middle" transform="translate(288,15)" font-family="sans-serif" font-size="10px" fill="#000" opacity="1">80</text><text text-anchor="middle" transform="translate(324,15)" font-family="sans-serif" font-size="10px" fill="#000" opacity="1">90</text><text text-anchor="end" transform="translate(360,15)" font-family="sans-serif" font-size="10px" fill="#000" opacity="1">100</text></g><g class="mark-rule role-axis-domain" pointer-events="none"><line transform="translate(0,0)" x2="360" y2="0" stroke="#888" stroke-width="1" opacity="1"/></g><g class="mark-text role-axis-title" pointer-events="none"><text text-anchor="middle" transform="translate(180,30)" font-family="sans-serif" font-size="11px" font-weight="bold" fill="#000" opacity="1">Easting</text></g></g><path class="foreground" aria-hidden="true" d="" pointer-events="none" display="none"/></g></g><g class="mark-group role-axis" role="graphics-symbol" aria-roledescription="axis" aria-label="Y-axis titled 'Northing' for a linear scale with values from 0 to 100"><g transform="translate(0.5,0.5)"><path class="background" aria-hidden="true" d="M0,0h0v0h0Z" pointer-events="none"/><g><g class="mark-rule role-axis-tick" pointer-events="none"><line transform="translate(0,360)" x2="-5" y2="0" stroke="#888" stroke-width="1" opacity="1"/><line transform="translate(0,324)" x2="-5" y2="0" stroke="#888" stroke-width="1" opacity="1"/><line transform="translate(0,288)" x2="-5" y2="0" stroke="#888" stroke-width="1" opacity="1"/><line transform="translate(0,252)" x2="-5" y2="0" stroke="#888" stroke-width="1" opacity="1"/><line transform="translate(0,216)" x2="-5" y2="0" stroke="#888" stroke-width="1" opacity="1"/><line transform="translate(0,180)" x2="-5" y2="0" stroke="#888" stroke-width="1" opacity="1"/><line transform="translate(0,144)" x2="-5" y2="0" stroke="#888" stroke-width="1" opacity="1"/><line transform="translate(0,108)" x2="-5" y2="0" stroke="#888" stroke-width="1" opacity="1"/><line transform="translate(0,72)" x2="-5" y2="0" stroke="#888" stroke-width="1" opacity="1"/><line transform="translate(0,36)" x2="-5" y2="0" stroke="#888" stroke-width="1" opacity="1"/><line transform="translate(0,0)" x2="-5" y2="0" stroke="#888" stroke-width="1" opacity="1"/></g><g class="mark-text role-axis-label" pointer-events="none"><text text-anchor="end" transform="translate(-7,363)" font-family="sans-serif" font-size="10px" fill="#000" opacity="1">0</text><text text-anchor="end" transform="translate(-7,327)" font-family="sans-serif" font-size="10px" fill="#000" opacity="1">10</text><text text-anchor="end" transform="translate(-7,291)" font-family="sans-serif" font-size="10px" fill="#000" opacity="1">20</text><text text-anchor="end" transform="translate(-7,254.99999999999997)" font-family="sans-serif" font-size="10px" fill="#000" opacity="1">30</text><text text-anchor="end" transform="translate(-7,219)" font-family="sans-serif" font-size="10px" fill="#000" opacity="1">40</text><text text-anchor="end" transform="translate(-7,183)" font-family="sans-serif" font-size="10px" fill="#000" opacity="1">50</text><text text-anchor="end" transform="translate(-7,147)" font-family="sans-serif" font-size="10px" fill="#000" opacity="1">60</text><text text-anchor="end" transform="translate(-7,111.00000000000001)" font-family="sans-serif" font-size="10px" fill="#000" opacity="1">70</text><text text-anchor="end" transform="translate(-7,74.99999999999999)" font-family="sans-serif" font-size="10px" fill="#000" opacity="1">80</text><text text-anchor="end" transform="translate(-7,38.99999999999999)" font-family="sans-serif" font-size="10px" fill="#000" opacity="1">90</text><text text-anchor="end" transform="translate(-7,3)" font-family="sans-serif" font-size="10px" fill="#000" opacity="1">100</text></g><g class="mark-rule role-axis-domain" pointer-events="none"><line transform="translate(0,360)" x2="0" y2="-360" stroke="#888" stroke-width="1" opacity="1"/></g><g class="mark-text role-axis-title" pointer-events="none"><text text-anchor="middle" transform="translate(-27.6845703125,180) rotate(-90) translate(0,-2)" font-family="sans-serif" font-size="11px" font-weight="bold" fill="#000" opacity="1">Northing</text></g></g><path class="foreground" aria-hidden="true" d="" pointer-events="none" display="none"/></g></g><g class="mark-symbol role-mark marks" role="graphics-object" aria-roledescription="symbol mark container"><path aria-label="Easting: 27.3103030763; Northing: 27.1381053151; Cluster: noise; is_noise: true" role="graphics-symbol" aria-roledescription="point" transform="translate(98.31709107481404,262.3028208657336)" d="M3.873,0A3.873,3.873,0,1,1,-3.873,0A3.873,3.873,0,1,1,3.873,0" fill="#9467bd" stroke-width="2" opacity="0.7"/><path aria-label="Easting: 17.2312246736; Northing: 14.6615911569; Cluster: noise; is_noise: true" role="graphics-symbol" aria-roledescription="point" transform="translate(62.03240882492563,307.21827183531866)" d="M3.873,0A3.873,3.873,0,1,1,-3.873,0A3.873,3.873,0,1,1,3.873,0" fill="#9467bd" stroke-width="2" opacity="0.7"/><path aria-label="Easting: 17.7734943919; Northing: 27.935544635; Cluster: 0; is_noise: false" role="graphics-symbol" aria-roledescription="point" transform="translate(63.98457981094976,259.43203931401047)" d="M3.873,0A3.873,3.873,0,1,1,-3.873,0A3.873,3.873,0,1,1,3.873,0" fill="#1f77b4" stroke-width="2" opacity="0.7"/><path aria-label="Easting: 13.15531059; Northing: 36.0938343339; Cluster: noise; is_noise: true" role="graphics-symbol" aria-roledescription="point" transform="translate(47.35911812403722,230.062196398083)" d="M3.873,0A3.873,3.873,0,1,1,-3.873,0A3.873,3.873,0,1,1,3.873,0" fill="#9467bd" stroke-width="2" opacity="0.7"/><path aria-label="Easting: 22.6715528957; Northing: 21.3345728468; Cluster: noise; is_noise: true" role="graphics-symbol" aria-roledescription="point" transform="translate(81.61759042445253,283.19553775164)" d="M3.873,0A3.873,3.873,0,1,1,-3.873,0A3.873,3.873,0,1,1,3.873,0" fill="#9467bd" stroke-width="2" opacity="0.7"/><path aria-label="Easting: 17.2569140931; Northing: 28.9398911711; Cluster: 0; is_noise: false" role="graphics-symbol" aria-roledescription="point" transform="translate(62.12489073514983,255.81639178394414)" d="M3.873,0A3.873,3.873,0,1,1,-3.873,0A3.873,3.873,0,1,1,3.873,0" fill="#1f77b4" stroke-width="2" opacity="0.7"/><path aria-label="Easting: 20.1132830215; Northing: 33.2792582377; Cluster: noise; is_noise: true" role="graphics-symbol" aria-roledescription="point" transform="translate(72.40781887733839,240.19467034429582)" d="M3.873,0A3.873,3.873,0,1,1,-3.873,0A3.873,3.873,0,1,1,3.873,0" fill="#9467bd" stroke-width="2" opacity="0.7"/><path aria-label="Easting: 15.9379765513; Northing: 34.9514123933; Cluster: 0; is_noise: false" role="graphics-symbol" aria-roledescription="point" transform="translate(57.37671558476277,234.174915384135)" d="M3.873,0A3.873,3.873,0,1,1,-3.873,0A3.873,3.873,0,1,1,3.873,0" fill="#1f77b4" stroke-width="2" opacity="0.7"/><path aria-label="Easting: 14.6640890719; Northing: 31.3710225177; Cluster: noise; is_noise: true" role="graphics-symbol" aria-roledescription="point" transform="translate(52.790720658954776,247.06431893612915)" d="M3.873,0A3.873,3.873,0,1,1,-3.873,0A3.873,3.873,0,1,1,3.873,0" fill="#9467bd" stroke-width="2" opacity="0.7"/><path aria-label="Easting: 22.9875732218; Northing: 27.7877121667; Cluster: noise; is_noise: true" role="graphics-symbol" aria-roledescription="point" transform="translate(82.75526359854902,259.96423619997836)" d="M3.873,0A3.873,3.873,0,1,1,-3.873,0A3.873,3.873,0,1,1,3.873,0" fill="#9467bd" stroke-width="2" opacity="0.7"/><path aria-label="Easting: 18.4710812409; Northing: 26.048261033; Cluster: 0; is_noise: false" role="graphics-symbol" aria-roledescription="point" transform="translate(66.49589246710043,266.2262602810582)" d="M3.873,0A3.873,3.873,0,1,1,-3.873,0A3.873,3.873,0,1,1,3.873,0" fill="#1f77b4" stroke-width="2" opacity="0.7"/><path aria-label="Easting: 18.3844865066; Northing: 31.7156802065; Cluster: 0; is_noise: false" role="graphics-symbol" aria-roledescription="point" transform="translate(66.18415142373189,245.82355125657867)" d="M3.873,0A3.873,3.873,0,1,1,-3.873,0A3.873,3.873,0,1,1,3.873,0" fill="#1f77b4" stroke-width="2" opacity="0.7"/><path aria-label="Easting: 16.101203617; Northing: 23.6980726655; Cluster: noise; is_noise: true" role="graphics-symbol" aria-roledescription="point" transform="translate(57.96433302108404,274.68693840423776)" d="M3.873,0A3.873,3.873,0,1,1,-3.873,0A3.873,3.873,0,1,1,3.873,0" fill="#9467bd" stroke-width="2" opacity="0.7"/><path aria-label="Easting: 41.6501797152; Northing: 26.7930458179; Cluster: noise; is_noise: true" role="graphics-symbol" aria-roledescription="point" transform="translate(149.94064697470458,263.54503505549127)" d="M3.873,0A3.873,3.873,0,1,1,-3.873,0A3.873,3.873,0,1,1,3.873,0" fill="#9467bd" stroke-width="2" opacity="0.7"/><path aria-label="Easting: 19.9580729183; Northing: 26.1726822321; Cluster: 0; is_noise: false" role="graphics-symbol" aria-roledescription="point" transform="translate(71.84906250570508,265.7783439643609)" d="M3.873,0A3.873,3.873,0,1,1,-3.873,0A3.873,3.873,0,1,1,3.873,0" fill="#1f77b4" stroke-width="2" opacity="0.7"/><path aria-label="Easting: 71.9216796936; Northing: 23.149166935; Cluster: noise; is_noise: true" role="graphics-symbol" aria-roledescription="point" transform="translate(258.9180468969585,276.66299903392274)" d="M3.873,0A3.873,3.873,0,1,1,-3.873,0A3.873,3.873,0,1,1,3.873,0" fill="#9467bd" stroke-width="2" opacity="0.7"/><path aria-label="Easting: 73.3373250218; Northing: 29.9838151258; Cluster: 1; is_noise: false" role="graphics-symbol" aria-roledescription="point" transform="translate(264.01437007844174,252.05826554729947)" d="M3.873,0A3.873,3.873,0,1,1,-3.873,0A3.873,3.873,0,1,1,3.873,0" fill="#ff7f0e" stroke-width="2" opacity="0.7"/><path aria-label="Easting: 73.4805122574; Northing: 26.3927090363; Cluster: 1; is_noise: false" role="graphics-symbol" aria-roledescription="point" transform="translate(264.52984412680524,264.9862474693884)" d="M3.873,0A3.873,3.873,0,1,1,-3.873,0A3.873,3.873,0,1,1,3.873,0" fill="#ff7f0e" stroke-width="2" opacity="0.7"/><path aria-label="Easting: 75.3228112192; Northing: 30.4716627667; Cluster: noise; is_noise: true" role="graphics-symbol" aria-roledescription="point" transform="translate(271.16212038911556,250.30201403980365)" d="M3.873,0A3.873,3.873,0,1,1,-3.873,0A3.873,3.873,0,1,1,3.873,0" fill="#9467bd" stroke-width="2" opacity="0.7"/><path aria-label="Easting: 62.2665483407; Northing: 39.9630306965; Cluster: noise; is_noise: true" role="graphics-symbol" aria-roledescription="point" transform="translate(224.1595740264336,216.1330894926255)" d="M3.873,0A3.873,3.873,0,1,1,-3.873,0A3.873,3.873,0,1,1,3.873,0" fill="#9467bd" stroke-width="2" opacity="0.7"/><path aria-label="Easting: 67.0476222304; Northing: 25.1412563489; Cluster: noise; is_noise: true" role="graphics-symbol" aria-roledescription="point" transform="translate(241.37144002958192,269.4914771439835)" d="M3.873,0A3.873,3.873,0,1,1,-3.873,0A3.873,3.873,0,1,1,3.873,0" fill="#9467bd" stroke-width="2" opacity="0.7"/><path aria-label="Easting: 58.1964648058; Northing: 30.7848200312; Cluster: noise; is_noise: true" role="graphics-symbol" aria-roledescription="point" transform="translate(209.50727330071996,249.17464788750922)" d="M3.873,0A3.873,3.873,0,1,1,-3.873,0A3.873,3.873,0,1,1,3.873,0" fill="#9467bd" stroke-width="2" opacity="0.7"/><path aria-label="Easting: 86.2951556269; Northing: 22.1502279055; Cluster: noise; is_noise: true" role="graphics-symbol" aria-roledescription="point" transform="translate(310.6625602567887,280.2591795402718)" d="M3.873,0A3.873,3.873,0,1,1,-3.873,0A3.873,3.873,0,1,1,3.873,0" fill="#9467bd" stroke-width="2" opacity="0.7"/><path aria-label="Easting: 74.9835278214; Northing: 39.4983772385; Cluster: noise; is_noise: true" role="graphics-symbol" aria-roledescription="point" transform="translate(269.94070015704153,217.80584194131728)" d="M3.873,0A3.873,3.873,0,1,1,-3.873,0A3.873,3.873,0,1,1,3.873,0" fill="#9467bd" stroke-width="2" opacity="0.7"/><path aria-label="Easting: 70.198870066; Northing: 28.6739239369; Cluster: 1; is_noise: false" role="graphics-symbol" aria-roledescription="point" transform="translate(252.71593223777992,256.7738738272011)" d="M3.873,0A3.873,3.873,0,1,1,-3.873,0A3.873,3.873,0,1,1,3.873,0" fill="#ff7f0e" stroke-width="2" opacity="0.7"/><path aria-label="Easting: 63.2176281369; Northing: 26.2186948252; Cluster: noise; is_noise: true" role="graphics-symbol" aria-roledescription="point" transform="translate(227.58346129297007,265.6126986294283)" d="M3.873,0A3.873,3.873,0,1,1,-3.873,0A3.873,3.873,0,1,1,3.873,0" fill="#9467bd" stroke-width="2" opacity="0.7"/><path aria-label="Easting: 67.6351410692; Northing: 34.0595432708; Cluster: noise; is_noise: true" role="graphics-symbol" aria-roledescription="point" transform="translate(243.48650784902864,237.38564422519966)" d="M3.873,0A3.873,3.873,0,1,1,-3.873,0A3.873,3.873,0,1,1,3.873,0" fill="#9467bd" stroke-width="2" opacity="0.7"/><path aria-label="Easting: 73.117437824; Northing: 27.8470799341; Cluster: 1; is_noise: false" role="graphics-symbol" aria-roledescription="point" transform="translate(263.22277616631266,259.75051223735613)" d="M3.873,0A3.873,3.873,0,1,1,-3.873,0A3.873,3.873,0,1,1,3.873,0" fill="#ff7f0e" stroke-width="2" opacity="0.7"/><path aria-label="Easting: 67.2452024153; Northing: 40.0451921286; Cluster: noise; is_noise: true" role="graphics-symbol" aria-roledescription="point" transform="translate(242.0827286950436,215.837308336913)" d="M3.873,0A3.873,3.873,0,1,1,-3.873,0A3.873,3.873,0,1,1,3.873,0" fill="#9467bd" stroke-width="2" opacity="0.7"/><path aria-label="Easting: 70.4288459715; Northing: 29.8046250336; Cluster: 1; is_noise: false" role="graphics-symbol" aria-roledescription="point" transform="translate(253.54384549725063,252.703349878938)" d="M3.873,0A3.873,3.873,0,1,1,-3.873,0A3.873,3.873,0,1,1,3.873,0" fill="#ff7f0e" stroke-width="2" opacity="0.7"/><path aria-label="Easting: 34.3000747696; Northing: 78.8133016929; Cluster: 2; is_noise: false" role="graphics-symbol" aria-roledescription="point" transform="translate(123.48026917052147,76.27211390543064)" d="M3.873,0A3.873,3.873,0,1,1,-3.873,0A3.873,3.873,0,1,1,3.873,0" fill="#2ca02c" stroke-width="2" opacity="0.7"/><path aria-label="Easting: 33.738222099; Northing: 82.9910436258; Cluster: noise; is_noise: true" role="graphics-symbol" aria-roledescription="point" transform="translate(121.45759955636412,61.23224294694462)" d="M3.873,0A3.873,3.873,0,1,1,-3.873,0A3.873,3.873,0,1,1,3.873,0" fill="#9467bd" stroke-width="2" opacity="0.7"/><path aria-label="Easting: 37.0930178857; Northing: 77.0464229367; Cluster: 2; is_noise: false" role="graphics-symbol" aria-roledescription="point" transform="translate(133.53486438842984,82.63287742770895)" d="M3.873,0A3.873,3.873,0,1,1,-3.873,0A3.873,3.873,0,1,1,3.873,0" fill="#2ca02c" stroke-width="2" opacity="0.7"/><path aria-label="Easting: 31.4426055876; Northing: 79.8552678887; Cluster: 2; is_noise: false" role="graphics-symbol" aria-roledescription="point" transform="translate(113.19338011521664,72.52103560058832)" d="M3.873,0A3.873,3.873,0,1,1,-3.873,0A3.873,3.873,0,1,1,3.873,0" fill="#2ca02c" stroke-width="2" opacity="0.7"/><path aria-label="Easting: 34.4498931149; Northing: 74.9714483723; Cluster: 2; is_noise: false" role="graphics-symbol" aria-roledescription="point" transform="translate(124.01961521365287,90.10278585989295)" d="M3.873,0A3.873,3.873,0,1,1,-3.873,0A3.873,3.873,0,1,1,3.873,0" fill="#2ca02c" stroke-width="2" opacity="0.7"/><path aria-label="Easting: 41.4619904143; Northing: 70.0761858045; Cluster: noise; is_noise: true" role="graphics-symbol" aria-roledescription="point" transform="translate(149.26316549139494,107.72573110394328)" d="M3.873,0A3.873,3.873,0,1,1,-3.873,0A3.873,3.873,0,1,1,3.873,0" fill="#9467bd" stroke-width="2" opacity="0.7"/><path aria-label="Easting: 36.3297759489; Northing: 73.1973321965; Cluster: noise; is_noise: true" role="graphics-symbol" aria-roledescription="point" transform="translate(130.78719341597474,96.48960409276168)" d="M3.873,0A3.873,3.873,0,1,1,-3.873,0A3.873,3.873,0,1,1,3.873,0" fill="#9467bd" stroke-width="2" opacity="0.7"/><path aria-label="Easting: 26.190627854; Northing: 84.100539362; Cluster: noise; is_noise: true" role="graphics-symbol" aria-roledescription="point" transform="translate(94.28626027429611,57.23805829676565)" d="M3.873,0A3.873,3.873,0,1,1,-3.873,0A3.873,3.873,0,1,1,3.873,0" fill="#9467bd" stroke-width="2" opacity="0.7"/><path aria-label="Easting: 38.1533862489; Northing: 81.3847633034; Cluster: noise; is_noise: true" role="graphics-symbol" aria-roledescription="point" transform="translate(137.35219049601315,67.01485210793483)" d="M3.873,0A3.873,3.873,0,1,1,-3.873,0A3.873,3.873,0,1,1,3.873,0" fill="#9467bd" stroke-width="2" opacity="0.7"/><path aria-label="Easting: 29.4489088222; Northing: 72.5035613622; Cluster: noise; is_noise: true" role="graphics-symbol" aria-roledescription="point" transform="translate(106.01607175991542,98.98717909590339)" d="M3.873,0A3.873,3.873,0,1,1,-3.873,0A3.873,3.873,0,1,1,3.873,0" fill="#9467bd" stroke-width="2" opacity="0.7"/><path aria-label="Easting: 43.7904218344; Northing: 69.4256418498; Cluster: noise; is_noise: true" role="graphics-symbol" aria-roledescription="point" transform="translate(157.64551860391788,110.06768934085568)" d="M3.873,0A3.873,3.873,0,1,1,-3.873,0A3.873,3.873,0,1,1,3.873,0" fill="#9467bd" stroke-width="2" opacity="0.7"/><path aria-label="Easting: 41.9310075356; Northing: 75.5810873699; Cluster: 2; is_noise: false" role="graphics-symbol" aria-roledescription="point" transform="translate(150.95162712823517,87.90808546840867)" d="M3.873,0A3.873,3.873,0,1,1,-3.873,0A3.873,3.873,0,1,1,3.873,0" fill="#2ca02c" stroke-width="2" opacity="0.7"/><path aria-label="Easting: 41.3985371349; Northing: 79.9573085537; Cluster: 2; is_noise: false" role="graphics-symbol" aria-roledescription="point" transform="translate(149.03473368552284,72.1536892067487)" d="M3.873,0A3.873,3.873,0,1,1,-3.873,0A3.873,3.873,0,1,1,3.873,0" fill="#2ca02c" stroke-width="2" opacity="0.7"/><path aria-label="Easting: 39.3038102851; Northing: 79.5387400385; Cluster: 2; is_noise: false" role="graphics-symbol" aria-roledescription="point" transform="translate(141.49371702646437,73.66053586124536)" d="M3.873,0A3.873,3.873,0,1,1,-3.873,0A3.873,3.873,0,1,1,3.873,0" fill="#2ca02c" stroke-width="2" opacity="0.7"/><path aria-label="Easting: 33.0033216756; Northing: 73.2878687787; Cluster: 2; is_noise: false" role="graphics-symbol" aria-roledescription="point" transform="translate(118.81195803217399,96.16367239678058)" d="M3.873,0A3.873,3.873,0,1,1,-3.873,0A3.873,3.873,0,1,1,3.873,0" fill="#2ca02c" stroke-width="2" opacity="0.7"/><path aria-label="Easting: 77.5158550864; Northing: 77.7867362306; Cluster: 3; is_noise: false" role="graphics-symbol" aria-roledescription="point" transform="translate(279.0570783108697,79.96774956971643)" d="M3.873,0A3.873,3.873,0,1,1,-3.873,0A3.873,3.873,0,1,1,3.873,0" fill="#d62728" stroke-width="2" opacity="0.7"/><path aria-label="Easting: 77.6754752158; Northing: 86.2744127533; Cluster: noise; is_noise: true" role="graphics-symbol" aria-roledescription="point" transform="translate(279.63171077684694,49.41211408801165)" d="M3.873,0A3.873,3.873,0,1,1,-3.873,0A3.873,3.873,0,1,1,3.873,0" fill="#9467bd" stroke-width="2" opacity="0.7"/><path aria-label="Easting: 70.8776345043; Northing: 89.6676751598; Cluster: noise; is_noise: true" role="graphics-symbol" aria-roledescription="point" transform="translate(255.15948421534847,37.19636942464075)" d="M3.873,0A3.873,3.873,0,1,1,-3.873,0A3.873,3.873,0,1,1,3.873,0" fill="#9467bd" stroke-width="2" opacity="0.7"/><path aria-label="Easting: 76.0941848871; Northing: 82.8741689443; Cluster: 3; is_noise: false" role="graphics-symbol" aria-roledescription="point" transform="translate(273.93906559354656,61.65299180054539)" d="M3.873,0A3.873,3.873,0,1,1,-3.873,0A3.873,3.873,0,1,1,3.873,0" fill="#d62728" stroke-width="2" opacity="0.7"/><path aria-label="Easting: 74.0794837142; Northing: 67.6795796312; Cluster: noise; is_noise: true" role="graphics-symbol" aria-roledescription="point" transform="translate(266.68614137095835,116.35351332754969)" d="M3.873,0A3.873,3.873,0,1,1,-3.873,0A3.873,3.873,0,1,1,3.873,0" fill="#9467bd" stroke-width="2" opacity="0.7"/><path aria-label="Easting: 77.5144299562; Northing: 81.1035749903; Cluster: 3; is_noise: false" role="graphics-symbol" aria-roledescription="point" transform="translate(279.0519478423947,68.02713003492865)" d="M3.873,0A3.873,3.873,0,1,1,-3.873,0A3.873,3.873,0,1,1,3.873,0" fill="#d62728" stroke-width="2" opacity="0.7"/><path aria-label="Easting: 72.3425951906; Northing: 73.5984608963; Cluster: 3; is_noise: false" role="graphics-symbol" aria-roledescription="point" transform="translate(260.43334268612296,95.04554077322464)" d="M3.873,0A3.873,3.873,0,1,1,-3.873,0A3.873,3.873,0,1,1,3.873,0" fill="#d62728" stroke-width="2" opacity="0.7"/><path aria-label="Easting: 75.679244743; Northing: 83.0646011517; Cluster: 3; is_noise: false" role="graphics-symbol" aria-roledescription="point" transform="translate(272.44528107491755,60.96743585373895)" d="M3.873,0A3.873,3.873,0,1,1,-3.873,0A3.873,3.873,0,1,1,3.873,0" fill="#d62728" stroke-width="2" opacity="0.7"/><path aria-label="Easting: 84.373900687; Northing: 83.517001994; Cluster: noise; is_noise: true" role="graphics-symbol" aria-roledescription="point" transform="translate(303.7460424730812,59.338792821663844)" d="M3.873,0A3.873,3.873,0,1,1,-3.873,0A3.873,3.873,0,1,1,3.873,0" fill="#9467bd" stroke-width="2" opacity="0.7"/><path aria-label="Easting: 68.7214471584; Northing: 77.4765417538; Cluster: noise; is_noise: true" role="graphics-symbol" aria-roledescription="point" transform="translate(247.39720977035202,81.0844496864664)" d="M3.873,0A3.873,3.873,0,1,1,-3.873,0A3.873,3.873,0,1,1,3.873,0" fill="#9467bd" stroke-width="2" opacity="0.7"/><path aria-label="Easting: 67.8737705539; Northing: 73.8737663832; Cluster: noise; is_noise: true" role="graphics-symbol" aria-roledescription="point" transform="translate(244.3455739941787,94.05444102046349)" d="M3.873,0A3.873,3.873,0,1,1,-3.873,0A3.873,3.873,0,1,1,3.873,0" fill="#9467bd" stroke-width="2" opacity="0.7"/><path aria-label="Easting: 73.1235500172; Northing: 80.3596438116; Cluster: noise; is_noise: true" role="graphics-symbol" aria-roledescription="point" transform="translate(263.2447800619441,70.70528227839748)" d="M3.873,0A3.873,3.873,0,1,1,-3.873,0A3.873,3.873,0,1,1,3.873,0" fill="#9467bd" stroke-width="2" opacity="0.7"/><path aria-label="Easting: 73.939742854; Northing: 74.7879421524; Cluster: 3; is_noise: false" role="graphics-symbol" aria-roledescription="point" transform="translate(266.18307427442676,90.76340825144665)" d="M3.873,0A3.873,3.873,0,1,1,-3.873,0A3.873,3.873,0,1,1,3.873,0" fill="#d62728" stroke-width="2" opacity="0.7"/><path aria-label="Easting: 79.8912509153; Northing: 75.9267801342; Cluster: 3; is_noise: false" role="graphics-symbol" aria-roledescription="point" transform="translate(287.6085032949896,86.66359151704806)" d="M3.873,0A3.873,3.873,0,1,1,-3.873,0A3.873,3.873,0,1,1,3.873,0" fill="#d62728" stroke-width="2" opacity="0.7"/><path aria-label="Easting: 72.5859233866; Northing: 79.9069355448; Cluster: noise; is_noise: true" role="graphics-symbol" aria-roledescription="point" transform="translate(261.3093241919243,72.33503203855915)" d="M3.873,0A3.873,3.873,0,1,1,-3.873,0A3.873,3.873,0,1,1,3.873,0" fill="#9467bd" stroke-width="2" opacity="0.7"/><path aria-label="Easting: 35.7379842122; Northing: 49.4258530936; Cluster: noise; is_noise: true" role="graphics-symbol" aria-roledescription="point" transform="translate(128.65674316380554,182.06692886320974)" d="M3.873,0A3.873,3.873,0,1,1,-3.873,0A3.873,3.873,0,1,1,3.873,0" fill="#9467bd" stroke-width="2" opacity="0.7"/><path aria-label="Easting: 87.2230442446; Northing: 88.6329041641; Cluster: noise; is_noise: true" role="graphics-symbol" aria-roledescription="point" transform="translate(314.0029592807381,40.92154500917101)" d="M3.873,0A3.873,3.873,0,1,1,-3.873,0A3.873,3.873,0,1,1,3.873,0" fill="#9467bd" stroke-width="2" opacity="0.7"/><path aria-label="Easting: 97.0554455426; Northing: 10.5120260858; Cluster: noise; is_noise: true" role="graphics-symbol" aria-roledescription="point" transform="translate(349.39960395324624,322.15670609122157)" d="M3.873,0A3.873,3.873,0,1,1,-3.873,0A3.873,3.873,0,1,1,3.873,0" fill="#9467bd" stroke-width="2" opacity="0.7"/><path aria-label="Easting: 7.41706332766; Northing: 23.2190997526; Cluster: noise; is_noise: true" role="graphics-symbol" aria-roledescription="point" transform="translate(26.70142797959391,276.41124089067694)" d="M3.873,0A3.873,3.873,0,1,1,-3.873,0A3.873,3.873,0,1,1,3.873,0" fill="#9467bd" stroke-width="2" opacity="0.7"/><path aria-label="Easting: 83.2470619301; Northing: 5.85369115699; Cluster: noise; is_noise: true" role="graphics-symbol" aria-roledescription="point" transform="translate(299.68942294845516,338.9267118348243)" d="M3.873,0A3.873,3.873,0,1,1,-3.873,0A3.873,3.873,0,1,1,3.873,0" fill="#9467bd" stroke-width="2" opacity="0.7"/><path aria-label="Easting: 52.0443219495; Northing: 53.4499048234; Cluster: noise; is_noise: true" role="graphics-symbol" aria-roledescription="point" transform="translate(187.3595590180804,167.58034263571676)" d="M3.873,0A3.873,3.873,0,1,1,-3.873,0A3.873,3.873,0,1,1,3.873,0" fill="#9467bd" stroke-width="2" opacity="0.7"/><path aria-label="Easting: 2.69410369058; Northing: 51.5690150582; Cluster: noise; is_noise: true" role="graphics-symbol" aria-roledescription="point" transform="translate(9.698773286089706,174.35154579042447)" d="M3.873,0A3.873,3.873,0,1,1,-3.873,0A3.873,3.873,0,1,1,3.873,0" fill="#9467bd" stroke-width="2" opacity="0.7"/><path aria-label="Easting: 47.5220249625; Northing: 98.4008336889; Cluster: noise; is_noise: true" role="graphics-symbol" aria-roledescription="point" transform="translate(171.07928986513693,5.756998720072861)" d="M3.873,0A3.873,3.873,0,1,1,-3.873,0A3.873,3.873,0,1,1,3.873,0" fill="#9467bd" stroke-width="2" opacity="0.7"/><path aria-label="Easting: 64.0563339494; Northing: 19.118074578; Cluster: noise; is_noise: true" role="graphics-symbol" aria-roledescription="point" transform="translate(230.6028022179317,291.1749315193725)" d="M3.873,0A3.873,3.873,0,1,1,-3.873,0A3.873,3.873,0,1,1,3.873,0" fill="#9467bd" stroke-width="2" opacity="0.7"/><path aria-label="Easting: 29.0713048702; Northing: 96.4015342938; Cluster: noise; is_noise: true" role="graphics-symbol" aria-roledescription="point" transform="translate(104.65669753283326,12.954476542397915)" d="M3.873,0A3.873,3.873,0,1,1,-3.873,0A3.873,3.873,0,1,1,3.873,0" fill="#9467bd" stroke-width="2" opacity="0.7"/><path aria-label="Easting: 87.7372258832; Northing: 90.7762131717; Cluster: noise; is_noise: true" role="graphics-symbol" aria-roledescription="point" transform="translate(315.854013179659,33.20563258189861)" d="M3.873,0A3.873,3.873,0,1,1,-3.873,0A3.873,3.873,0,1,1,3.873,0" fill="#9467bd" stroke-width="2" opacity="0.7"/><path aria-label="Easting: 33.0251352074; Northing: 98.3249510272; Cluster: noise; is_noise: true" role="graphics-symbol" aria-roledescription="point" transform="translate(118.89048674650218,6.030176302006769)" d="M3.873,0A3.873,3.873,0,1,1,-3.873,0A3.873,3.873,0,1,1,3.873,0" fill="#9467bd" stroke-width="2" opacity="0.7"/><path aria-label="Easting: 99.2430365039; Northing: 18.4963056598; Cluster: noise; is_noise: true" role="graphics-symbol" aria-roledescription="point" transform="translate(357.27493141387856,293.41329962472696)" d="M3.873,0A3.873,3.873,0,1,1,-3.873,0A3.873,3.873,0,1,1,3.873,0" fill="#9467bd" stroke-width="2" opacity="0.7"/><path aria-label="Easting: 93.5831203787; Northing: 88.3220064767; Cluster: noise; is_noise: true" role="graphics-symbol" aria-roledescription="point" transform="translate(336.8992333631898,42.04077668377717)" d="M3.873,0A3.873,3.873,0,1,1,-3.873,0A3.873,3.873,0,1,1,3.873,0" fill="#9467bd" stroke-width="2" opacity="0.7"/><path aria-label="Easting: 20.5021163902; Northing: 45.2476701712; Cluster: noise; is_noise: true" role="graphics-symbol" aria-roledescription="point" transform="translate(73.80761900474633,197.10838738382984)" d="M3.873,0A3.873,3.873,0,1,1,-3.873,0A3.873,3.873,0,1,1,3.873,0" fill="#9467bd" stroke-width="2" opacity="0.7"/><path aria-label="Easting: 13.6345637667; Northing: 1.18019784403; Cluster: noise; is_noise: true" role="graphics-symbol" aria-roledescription="point" transform="translate(49.08442956010359,355.7512877614836)" d="M3.873,0A3.873,3.873,0,1,1,-3.873,0A3.873,3.873,0,1,1,3.873,0" fill="#9467bd" stroke-width="2" opacity="0.7"/><path aria-label="Easting: 91.8708646059; Northing: 46.7866962921; Cluster: noise; is_noise: true" role="graphics-symbol" aria-roledescription="point" transform="translate(330.73511258126877,191.5678933483657)" d="M3.873,0A3.873,3.873,0,1,1,-3.873,0A3.873,3.873,0,1,1,3.873,0" fill="#9467bd" stroke-width="2" opacity="0.7"/><path aria-label="Easting: 42.6290334859; Northing: 58.825327699; Cluster: noise; is_noise: true" role="graphics-symbol" aria-roledescription="point" transform="translate(153.46452054926164,148.2288202836513)" d="M3.873,0A3.873,3.873,0,1,1,-3.873,0A3.873,3.873,0,1,1,3.873,0" fill="#9467bd" stroke-width="2" opacity="0.7"/><path aria-label="Easting: 7.14812581691; Northing: 51.0828264062; Cluster: noise; is_noise: true" role="graphics-symbol" aria-roledescription="point" transform="translate(25.73325294086417,176.10182493769756)" d="M3.873,0A3.873,3.873,0,1,1,-3.873,0A3.873,3.873,0,1,1,3.873,0" fill="#9467bd" stroke-width="2" opacity="0.7"/><path aria-label="Easting: 4.23655585081; Northing: 77.8087898502; Cluster: noise; is_noise: true" role="graphics-symbol" aria-roledescription="point" transform="translate(15.251601062910913,79.88835653922928)" d="M3.873,0A3.873,3.873,0,1,1,-3.873,0A3.873,3.873,0,1,1,3.873,0" fill="#9467bd" stroke-width="2" opacity="0.7"/></g><g class="mark-group role-legend" role="graphics-symbol" aria-roledescription="legend" aria-label="Symbol legend titled 'Cluster' for fill color with 5 values: 0, 1, 2, 3, noise"><g transform="translate(378,0)"><path class="background" aria-hidden="true" d="M0,0h40v79h-40Z" pointer-events="none"/><g><g class="mark-group role-legend-entry"><g transform="translate(0,16)"><path class="background" aria-hidden="true" d="M0,0h0v0h0Z" pointer-events="none"/><g><g class="mark-group role-scope" role="graphics-object" aria-roledescription="group mark container"><g transform="translate(0,0)"><path class="background" aria-hidden="true" d="M0,0h39.90625v11h-39.90625Z" pointer-events="none" opacity="1"/><g><g class="mark-symbol role-legend-symbol" pointer-events="none"><path transform="translate(6,6)" d="M5,0A5,5,0,1,1,-5,0A5,5,0,1,1,5,0" fill="#1f77b4" stroke-width="1.5" opacity="0.7"/></g><g class="mark-text role-legend-label" pointer-events="none"><text text-anchor="start" transform="translate(16,9)" font-family="sans-serif" font-size="10px" fill="#000" opacity="1">0</text></g></g><path class="foreground" aria-hidden="true" d="" pointer-events="none" display="none"/></g><g transform="translate(0,13)"><path class="background" aria-hidden="true" d="M0,0h39.90625v11h-39.90625Z" pointer-events="none" opacity="1"/><g><g class="mark-symbol role-legend-symbol" pointer-events="none"><path transform="translate(6,6)" d="M5,0A5,5,0,1,1,-5,0A5,5,0,1,1,5,0" fill="#ff7f0e" stroke-width="1.5" opacity="0.7"/></g><g class="mark-text role-legend-label" pointer-events="none"><text text-anchor="start" transform="translate(16,9)" font-family="sans-serif" font-size="10px" fill="#000" opacity="1">1</text></g></g><path class="foreground" aria-hidden="true" d="" pointer-events="none" display="none"/></g><g transform="translate(0,26)"><path class="background" aria-hidden="true" d="M0,0h39.90625v11h-39.90625Z" pointer-events="none" opacity="1"/><g><g class="mark-symbol role-legend-symbol" pointer-events="none"><path transform="translate(6,6)" d="M5,0A5,5,0,1,1,-5,0A5,5,0,1,1,5,0" fill="#2ca02c" stroke-width="1.5" opacity="0.7"/></g><g class="mark-text role-legend-label" pointer-events="none"><text text-anchor="start" transform="translate(16,9)" font-family="sans-serif" font-size="10px" fill="#000" opacity="1">2</text></g></g><path class="foreground" aria-hidden="true" d="" pointer-events="none" display="none"/></g><g transform="translate(0,39)"><path class="background" aria-hidden="true" d="M0,0h39.90625v11h-39.90625Z" pointer-events="none" opacity="1"/><g><g class="mark-symbol role-legend-symbol" pointer-events="none"><path transform="translate(6,6)" d="M5,0A5,5,0,1,1,-5,0A5,5,0,1,1,5,0" fill="#d62728" stroke-width="1.5" opacity="0.7"/></g><g class="mark-text role-legend-label" pointer-events="none"><text text-anchor="start" transform="translate(16,9)" font-family="sans-serif" font-size="10px" fill="#000" opacity="1">3</text></g></g><path class="foreground" aria-hidden="true" d="" pointer-events="none" display="none"/></g><g transform="translate(0,52)"><path class="background" aria-hidden="true" d="M0,0h39.90625v11h-39.90625Z" pointer-events="none" opacity="1"/><g><g class="mark-symbol role-legend-symbol" pointer-events="none"><path transform="translate(6,6)" d="M5,0A5,5,0,1,1,-5,0A5,5,0,1,1,5,0" fill="#9467bd" stroke-width="1.5" opacity="0.7"/></g><g class="mark-text role-legend-label" pointer-events="none"><text text-anchor="start" transform="translate(16,9)" font-family="sans-serif" font-size="10px" fill="#000" opacity="1">noise</text></g></g><path class="foreground" aria-hidden="true" d="" pointer-events="none" display="none"/></g></g></g><path class="foreground" aria-hidden="true" d="" pointer-events="none" display="none"/></g></g><g class="mark-text role-legend-title" pointer-events="none"><text text-anchor="start" transform="translate(0,9)" font-family="sans-serif" font-size="11px" font-weight="bold" fill="#000" opacity="1">Cluster</text></g></g><path class="foreground" aria-hidden="true" d="" pointer-events="none" display="none"/></g></g><g class="mark-group role-legend" role="graphics-symbol" aria-roledescription="legend" aria-label="Symbol legend titled 'Noise' for shape with 2 values: false, true"><g transform="translate(378,87)"><path class="background" aria-hidden="true" d="M0,0h38v45h-38Z" pointer-events="none"/><g><g class="mark-group role-legend-entry"><g transform="translate(0,16)"><path class="background" aria-hidden="true" d="M0,0h0v0h0Z" pointer-events="none"/><g><g class="mark-group role-scope" role="graphics-object" aria-roledescription="group mark container"><g transform="translate(0,0)"><path class="background" aria-hidden="true" d="M0,0h37.123046875v12.5h-37.123046875Z" pointer-events="none" opacity="1"/><g><g class="mark-symbol role-legend-symbol" pointer-events="none"><path transform="translate(6,6)" d="M5,0A5,5,0,1,1,-5,0A5,5,0,1,1,5,0" fill="black" fill-opacity="0.7" stroke-width="1.5" opacity="0.7"/></g><g class="mark-text role-legend-label" pointer-events="none"><text text-anchor="start" transform="translate(16,9)" font-family="sans-serif" font-size="10px" fill="#000" opacity="1">false</text></g></g><path class="foreground" aria-hidden="true" d="" pointer-events="none" display="none"/></g><g transform="translate(0,16)"><path class="background" aria-hidden="true" d="M0,0h37.123046875v12.5h-37.123046875Z" pointer-events="none" opacity="1"/><g><g class="mark-symbol role-legend-symbol" pointer-events="none"><path transform="translate(6,6)" d="M-5,-2L-5,2L-2,2L-2,5L2,5L2,2L5,2L5,-2L2,-2L2,-5L-2,-5L-2,-2Z" fill="black" fill-opacity="0.7" stroke-width="1.5" opacity="0.7"/></g><g class="mark-text role-legend-label" pointer-events="none"><text text-anchor="start" transform="translate(16,9)" font-family="sans-serif" font-size="10px" fill="#000" opacity="1">true</text></g></g><path class="foreground" aria-hidden="true" d="" pointer-events="none" display="none"/></g></g></g><path class="foreground" aria-hidden="true" d="" pointer-events="none" display="none"/></g></g><g class="mark-text role-legend-title" pointer-events="none"><text text-anchor="start" transform="translate(0,9)" font-family="sans-serif" font-size="11px" font-weight="bold" fill="#000" opacity="1">Noise</text></g></g><path class="foreground" aria-hidden="true" d="" pointer-events="none" display="none"/></g></g><g class="mark-group role-title"><g transform="translate(180,-22)"><path class="background" aria-hidden="true" d="M0,0h0v0h0Z" pointer-events="none"/><g><g class="mark-text role-title-text" role="graphics-symbol" aria-roledescription="title" aria-label="Title text 'Grid-cell density clustering of archaeological sites'" pointer-events="none"><text text-anchor="middle" transform="translate(0,10)" font-family="sans-serif" font-size="13px" font-weight="bold" fill="#000" opacity="1">Grid-cell density clustering of archaeological sites</text></g></g><path class="foreground" aria-hidden="true" d="" pointer-events="none" display="none"/></g></g></g><path class="foreground" aria-hidden="true" d="" display="none"/></g></g></g></svg>