<svg xmlns="http://www.w3.org/2000/svg" xmlns:xlink="http://www.w3.org/1999/xlink" version="1.1" class="marks" width="600" height="314" viewBox="0 0 600 314"><rect width="600" height="314" fill="white"/><g fill="none" stroke-miterlimit="10" transform="translate(44,27)"><g class="mark-group role-frame root" role="graphics-object" aria-roledescription="group mark container"><g transform="translate(0,0)"><path class="background" aria-hidden="true" d="M0.5,0.5h550v250h-550Z" stroke="#ddd"/><g><g class="mark-group role-axis" aria-hidden="true"><g transform="translate(0.5,250.5)"><path class="background" aria-hidden="true" d="M0,0h0v0h0Z" pointer-events="none"/><g><g class="mark-rule role-axis-grid" pointer-events="none"><line transform="translate(0,-250)" x2="0" y2="250" stroke="#ddd" stroke-width="1" opacity="1"/><line transform="translate(55,-250)" x2="0" y2="250" stroke="#ddd" stroke-width="1" opacity="1"/><line transform="translate(110,-250)" x2="0" y2="250" stroke="#ddd" stroke-width="1" opacity="1"/><line transform="translate(165,-250)" x2="0" y2="250" stroke="#ddd" stroke-width="1" opacity="1"/><line transform="translate(220,-250)" x2="0" y2="250" stroke="#ddd" stroke-width="1" opacity="1"/><line transform="translate(275,-250)" x2="0" y2="250" stroke="#ddd" stroke-width="1" opacity="1"/><line transform="translate(330,-250)" x2="0" y2="250" stroke="#ddd" stroke-width="1" opacity="1"/><line transform="translate(385,-250)" x2="0" y2="250" stroke="#ddd" stroke-width="1" opacity="1"/><line transform="translate(440,-250)" x2="0" y2="250" stroke="#ddd" stroke-width="1" opacity="1"/><line transform="translate(495,-250)" x2="0" y2="250" stroke="#ddd" stroke-width="1" opacity="1"/><line transform="translate(550,-250)" x2="0" y2="250" stroke="#ddd" stroke-width="1" opacity="1"/></g></g><path class="foreground" aria-hidden="true" d="" pointer-events="none" display="none"/></g></g><g class="mark-group role-axis" aria-hidden="true"><g transform="translate(0.5,0.5)"><path class="background" aria-hidden="true" d="M0,0h0v0h0Z" pointer-events="none"/><g><g class="mark-rule role-axis-grid" pointer-events="none"><line transform="translate(0,250)" x2="550" y2="0" stroke="#ddd" stroke-width="1" opacity="1"/><line transform="translate(0,200)" x2="550" y2="0" stroke="#ddd" stroke-width="1" opacity="1"/><line transform="translate(0,150)" x2="550" y2="0" stroke="#ddd" stroke-width="1" opacity="1"/><line transform="translate(0,100)" x2="550" y2="0" stroke="#ddd" stroke-width="1" opacity="1"/><line transform="translate(0,50)" x2="550" y2="0" stroke="#ddd" stroke-width="1" opacity="1"/><line transform="translate(0,0)" x2="550" y2="0" stroke="#ddd" stroke-width="1" opacity="1"/></g></g><path class="foreground" aria-hidden="true" d="" pointer-events="none" display="none"/></g></g><g class="mark-group role-axis" role="graphics-symbol" aria-roledescription="axis" aria-label="X-axis titled 'Time (minutes)' for a linear scale with values from 0 to 200"><g transform="translate(0.5,250.5)"><path class="background" aria-hidden="true" d="M0,0h0v0h0Z" pointer-events="none"/><g><g class="mark-rule role-axis-tick" pointer-events="none"><line transform="translate(0,0)" x2="0" y2="5" stroke="#888" stroke-width="1" opacity="1"/><line transform="translate(55,0)" x2="0" y2="5" stroke="#888" stroke-width="1" opacity="1"/><line transform="translate(110,0)" x2="0" y2="5" stroke="#888" stroke-width="1" opacity="1"/><line transform="translate(165,0)" x2="0" y2="5" stroke="#888" stroke-width="1" opacity="1"/><line transform="translate(220,0)" x2="0" y2="5" stroke="#888" stroke-width="1" opacity="1"/><line transform="translate(275,0)" x2="0" y2="5" stroke="#888" stroke-width="1" opacity="1"/><line transform="translate(330,0)" x2="0" y2="5" stroke="#888" stroke-width="1" opacity="1"/><line transform="translate(385,0)" x2="0" y2="5" stroke="#888" stroke-width="1" opacity="1"/><line transform="translate(440,0)" x2="0" y2="5" stroke="#888" stroke-width="1" opacity="1"/><line transform="translate(495,0)" x2="0" y2="5" stroke="#888" stroke-width="1" opacity="1"/><line transform="translate(550,0)" x2="0" y2="5" stroke="#888" stroke-width="1" opacity="1"/></g><g class="mark-text role-axis-label" pointer-events="none"><text text-anchor="start" transform="translate(0,15)" font-family="sans-serif" font-size="10px" fill="#000" opacity="1">0</text><text text-anchor="middle" transform="translate(55,15)" font-family="sans-serif" font-size="10px" fill="#000" opacity="1">20</text><text text-anchor="middle" transform="translate(110,15)" font-family="sans-serif" font-size="10px" fill="#000" opacity="1">40</text><text text-anchor="middle" transform="translate(165,15)" font-family="sans-serif" font-size="10px" fill="#000" opacity="1">60</text><text text-anchor="middle" transform="translate(220,15)" font-family="sans-serif" font-size="10px" fill="#000" opacity="1">80</text><text text-anchor="middle" transform="translate(275,15)" font-family="sans-serif" font-size="10px" fill="#000" opacity="1">100</text><text text-anchor="middle" transform="translate(330,15)" font-family="sans-serif" font-size="10px" fill="#000" opacity="1">120</text><text text-anchor="middle" transform="translate(385,15)" font-family="sans-serif" font-size="10px" fill="#000" opacity="1">140</text><text text-anchor="middle" transform="translate(440,15)" font-family="sans-serif" font-size="10px" fill="#000" opacity="1">160</text><text text-anchor="middle" transform="translate(495,15)" font-family="sans-serif" font-size="10px" fill="#000" opacity="1">180</text><text text-anchor="end" transform="translate(550,15)" font-family="sans-serif" font-size="10px" fill="#000" opacity="1">200</text></g><g class="mark-rule role-axis-domain" pointer-events="none"><line transform="translate(0,0)" x2="550" y2="0" stroke="#888" stroke-width="1" opacity="1"/></g><g class="mark-text role-axis-title" pointer-events="none"><text text-anchor="middle" transform="translate(275,30)" font-family="sans-serif" font-size="11px" font-weight="bold" fill="#000" opacity="1">Time (minutes)</text></g></g><path class="foreground" aria-hidden="true" d="" pointer-events="none" display="none"/></g></g><g class="mark-group role-axis" role="graphics-symbol" aria-roledescription="axis" aria-label="Y-axis titled 'Heart rate (bpm)' for a linear scale with values from 0 to 100"><g transform="translate(0.5,0.5)"><path class="background" aria-hidden="true" d="M0,0h0v0h0Z" pointer-events="none"/><g><g class="mark-rule role-axis-tick" pointer-events="none"><line transform="translate(0,250)" x2="-5" y2="0" stroke="#888" stroke-width="1" opacity="1"/><line transform="translate(0,200)" x2="-5" y2="0" stroke="#888" stroke-width="1" opacity="1"/><line transform="translate(0,150)" x2="-5" y2="0" stroke="#888" stroke-width="1" opacity="1"/><line transform="translate(0,100)" x2="-5" y2="0" stroke="#888" stroke-width="1" opacity="1"/><line transform="translate(0,50)" x2="-5" y2="0" stroke="#888" stroke-width="1" opacity="1"/><line transform="translate(0,0)" x2="-5" y2="0" stroke="#888" stroke-width="1" opacity="1"/></g><g class="mark-text role-axis-label" pointer-events="none"><text text-anchor="end" transform="translate(-7,253)" font-family="sans-serif" font-size="10px" fill="#000" opacity="1">0</text><text text-anchor="end" transform="translate(-7,203)" font-family="sans-serif" font-size="10px" fill="#000" opacity="1">20</text><text text-anchor="end" transform="translate(-7,153)" font-family="sans-serif" font-size="10px" fill="#000" opacity="1">40</text><text text-anchor="end" transform="translate(-7,103)" font-family="sans-serif" font-size="10px" fill="#000" opacity="1">60</text><text text-anchor="end" transform="translate(-7,52.999999999999986)" font-family="sans-serif" font-size="10px" fill="#000" opacity="1">80</text><text text-anchor="end" transform="translate(-7,3)" font-family="sans-serif" font-size="10px" fill="#000" opacity="1">100</text></g><g class="mark-rule role-axis-domain" pointer-events="none"><line transform="translate(0,250)" x2="0" y2="-250" stroke="#888" stroke-width="1" opacity="1"/></g><g class="mark-text role-axis-title" pointer-events="none"><text text-anchor="middle" transform="translate(-27.6845703125,125) rotate(-90) translate(0,-2)" font-family="sans-serif" font-size="11px" font-weight="bold" fill="#000" opacity="1">Heart rate (bpm)</text></g></g><path class="foreground" aria-hidden="true" d="" pointer-events="none" display="none"/></g></g><g class="mark-line role-mark layer_0_marks" role="graphics-object" aria-roledescription="line mark container"><path aria-label="Time (minutes): 0; Heart rate (bpm): 72.9241212305" role="graphics-symbol" aria-roledescription="line mark" d="M0,67.69L2.75,72.862L5.5,77.769L8.25,85.338L11,77.227L13.75,72.064L16.5,81.845L19.25,63.906L22,72.328L24.75,78.665L27.5,77.743L30.25,71.06L33,74.887L35.75,66.721L38.5,79.062L41.25,65.049L44,80.336L46.75,68.629L49.5,72.012L52.25,72.212L55,76.529L57.75,73.952L60.5,76.616L63.25,68.284L66,78.899L68.75,76.302L71.5,53.35L74.25,73.207L77,75.042L79.75,73.827L82.5,28.078L85.25,81.851L88,71.663L90.75,75.016L93.5,71.519L96.25,78.607L99,69.677L101.75,74.528L104.5,82.733L107.25,65.037L110,77.952L112.75,79.859L115.5,86.804L118.25,74.215L121,58.705L123.75,82.85L126.5,70.016L129.25,65.502L132,74.801L134.75,76.326L137.5,81.782L140.25,78.781L143,77.365L145.75,70.94L148.5,71.883L151.25,77.153L154,77.755L156.75,64.955L159.5,74.571L162.25,75.195L165,75.7L167.75,71.187L170.5,76.262L173.25,67.009L176,72.907L178.75,72.954L181.5,78.557L184.25,70.145L187,75.55L189.75,75.029L192.5,68.538L195.25,79.924L198,73.67L200.75,76.803L203.5,83.809L206.25,65.899L209,71.847L211.75,68.615L214.5,80.551L217.25,77.496L220,66.21L222.75,80.574L225.5,68.069L228.25,74.419L231,68.601L233.75,70.043L236.5,70.696L239.25,70.461L242,76.997L244.75,76.712L247.5,42.484L250.25,47.213L253,42.325L255.75,38.726L258.5,49.122L261.25,35.332L264,43.906L266.75,42.126L269.5,45.921L272.25,57.32L275,42.486L277.75,43.896L280.5,47.657L283.25,51.402L286,44.321L288.75,41.935L291.5,35.626L294.25,41.483L297,51.279L299.75,47.523L302.5,7.126L305.25,51.126L308,46.876L310.75,44.64L313.5,46.06L316.25,50.212L319,40.109L321.75,49.073L324.5,47.414L327.25,45.093L330,48.669L332.75,50.37L335.5,36.424L338.25,46.066L341,39.491L343.75,40.486L346.5,51.632L349.25,52.617L352,49.155L354.75,47L357.5,43.041L360.25,43.769L363,43.287L365.75,42.976L368.5,40.314L371.25,37.916L374,44.153L376.75,47.337L379.5,44.453L382.25,37.125L385,44.928L387.75,42.381L390.5,49.626L393.25,49.482L396,39.02L398.75,42.371L401.5,42.173L404.25,45.36L407,40.751L409.75,35.244L412.5,45.999L415.25,45.207L418,48.509L420.75,50.553L423.5,40.937L426.25,38.253L429,47.892L431.75,44.485L434.5,48.531L437.25,43.6L440,45.911L442.75,46.356L445.5,40.056L448.25,47.992L451,49.751L453.75,3.214L456.5,37.346L459.25,43.792L462,45.862L464.75,49.576L467.5,47.489L470.25,38.945L473,42.033L475.75,46.833L478.5,34.828L481.25,46.467L484,44.327L486.75,47.399L489.5,53.43L492.25,53.029L495,38.125L497.75,32.763L500.5,53.837L503.25,44.664L506,48.025L508.75,36.984L511.5,42.678L514.25,42.825L517,45.388L519.75,36.044L522.5,40.669L525.25,36.112L528,35.427L530.75,40.664L533.5,41.709L536.25,52.912L539,49.509L541.75,39.59L544.5,45.88L547.25,46.191" stroke="steelblue" stroke-width="1" opacity="0.7"/></g><g class="mark-line role-mark layer_1_marks" role="graphics-object" aria-roledescription="line mark container"><path aria-label="time: 0; rolling_mean: 72.9241212305" role="graphics-symbol" aria-roledescription="line mark" d="M0,67.69L2.75,70.276L5.5,72.773L8.25,75.915L11,76.177L13.75,75.492L16.5,76.399L19.25,74.838L22,74.559L24.75,74.969L27.5,75.222L30.25,74.875L33,74.876L35.75,74.293L38.5,74.611L41.25,74.013L44,74.385L46.75,74.066L49.5,73.958L52.25,73.87L55,74.312L57.75,74.367L60.5,74.309L63.25,73.456L66,73.54L68.75,73.752L71.5,72.327L74.25,72.792L77,72.928L79.75,72.686L82.5,70.203L85.25,70.742L88,70.581L90.75,70.996L93.5,70.619L96.25,71.297L99,70.764L101.75,71.059L104.5,71.595L107.25,71.236L110,71.307L112.75,71.602L115.5,72.112L118.25,72.408L121,71.399L123.75,71.726L126.5,72.559L129.25,72.174L132,72.162L134.75,72.287L137.5,74.972L140.25,74.819L143,75.104L145.75,74.9L148.5,74.918L151.25,74.846L154,75.249L156.75,74.771L159.5,74.363L162.25,74.871L165,74.758L167.75,74.324L170.5,73.797L173.25,73.437L176,74.147L178.75,73.652L181.5,74.079L184.25,74.311L187,74.349L189.75,74.284L192.5,73.622L195.25,73.679L198,73.494L200.75,73.787L203.5,74.384L206.25,73.821L209,73.526L211.75,73.709L214.5,74.008L217.25,74.123L220,73.648L222.75,74.117L225.5,73.708L228.25,74.078L231,73.863L233.75,73.717L236.5,73.324L239.25,73.34L242,73.413L244.75,73.497L247.5,72.194L250.25,70.559L253,68.991L255.75,67.087L258.5,65.353L261.25,63.825L264,62.428L266.75,61.103L269.5,59.372L272.25,58.363L275,57.177L277.75,55.343L280.5,54.322L283.25,53.171L286,51.957L288.75,50.552L291.5,48.798L294.25,47.349L297,46.064L299.75,44.604L302.5,42.836L305.25,43.032L308,43.259L310.75,43.555L313.5,43.402L316.25,44.146L319,43.956L321.75,44.304L324.5,44.378L327.25,43.767L330,44.076L332.75,44.4L335.5,43.838L338.25,43.571L341,43.33L343.75,43.257L346.5,44.058L349.25,44.614L352,44.508L354.75,44.482L357.5,46.278L360.25,45.91L363,45.73L365.75,45.647L368.5,45.36L371.25,44.745L374,44.947L376.75,44.86L379.5,44.712L382.25,44.314L385,44.127L387.75,43.728L390.5,44.388L393.25,44.558L396,44.535L398.75,44.629L401.5,44.156L404.25,43.793L407,43.373L409.75,42.785L412.5,42.933L415.25,43.005L418,43.266L420.75,43.645L423.5,43.676L426.25,43.693L429,43.88L431.75,43.737L434.5,43.941L437.25,44.265L440,44.314L442.75,44.513L445.5,44.035L448.25,43.96L451,44.497L453.75,42.539L456.5,42.297L459.25,42.219L462,42.474L464.75,43.191L467.5,43.266L470.25,42.953L473,42.629L475.75,42.443L478.5,42.137L481.25,42.548L484,42.37L486.75,42.515L489.5,42.76L492.25,43.232L495,42.843L497.75,42.163L500.5,42.852L503.25,42.686L506,42.599L508.75,44.288L511.5,44.554L514.25,44.506L517,44.482L519.75,43.806L522.5,43.465L525.25,43.323L528,42.993L530.75,42.684L533.5,43.028L536.25,43.351L539,43.61L541.75,43.219L544.5,42.842L547.25,42.5" stroke="darkorange" stroke-width="2"/></g><g class="mark-symbol role-mark layer_2_marks" role="graphics-object" aria-roledescription="symbol mark container"><path aria-label="time: 30; heart_rate: 88.7686718774" role="graphics-symbol" aria-roledescription="point" transform="translate(82.5,28.07832030640042)" d="M0,-3.354L-3.873,3.354L3.873,3.354Z" stroke="firebrick" stroke-width="2" opacity="0.7"/><path aria-label="time: 90; heart_rate: 83.0063420345" role="graphics-symbol" aria-roledescription="point" transform="translate(247.5,42.4841449136473)" d="M0,-3.354L-3.873,3.354L3.873,3.354Z" stroke="firebrick" stroke-width="2" opacity="0.7"/><path aria-label="time: 110; heart_rate: 97.1495082216" role="graphics-symbol" aria-roledescription="point" transform="translate(302.5,7.1262294460614495)" d="M0,-3.354L-3.873,3.354L3.873,3.354Z" stroke="firebrick" stroke-width="2" opacity="0.7"/><path aria-label="time: 165; heart_rate: 98.7143816656" role="graphics-symbol" aria-roledescription="point" transform="translate(453.75,3.214045835938928)" d="M0,-3.354L-3.873,3.354L3.873,3.354Z" stroke="firebrick" stroke-width="2" opacity="0.7"/></g><g class="mark-group role-title"><g transform="translate(275,-22)"><path class="background" aria-hidden="true" d="M0,0h0v0h0Z" pointer-events="none"/><g><g class="mark-text role-title-text" role="graphics-symbol" aria-roledescription="title" aria-label="Title text 'Anomaly detection in patient vital signs'" pointer-events="none"><text text-anchor="middle" transform="translate(0,10)" font-family="sans-serif" font-size="13px" font-weight="bold" fill="#000" opacity="1">Anomaly detection in patient vital signs</text></g></g><path class="foreground" aria-hidden="true" d="" pointer-events="none" display="none"/></g></g></g><path class="foreground" aria-hidden="true" d="" display="none"/></g></g></g></svg>