<svg xmlns="http://www.w3.org/2000/svg" xmlns:xlink="http://www.w3.org/1999/xlink" version="1.1" class="marks" width="509" height="364" viewBox="0 0 509 364"><rect width="509" height="364" fill="white"/><g fill="none" stroke-miterlimit="10" transform="translate(53,27)"><g class="mark-group role-frame root" role="graphics-object" aria-roledescription="group mark container"><g transform="translate(0,0)"><path class="background" aria-hidden="true" d="M0.5,0.5h450v300h-450Z" stroke="#ddd"/><g><g class="mark-group role-axis" aria-hidden="true"><g transform="translate(0.5,300.5)"><path class="background" aria-hidden="true" d="M0,0h0v0h0Z" pointer-events="none"/><g><g class="mark-rule role-axis-grid" pointer-events="none"><line transform="translate(0,-300)" x2="0" y2="300" stroke="#ddd" stroke-width="1" opacity="1"/><line transform="translate(68,-300)" x2="0" y2="300" stroke="#ddd" stroke-width="1" opacity="1"/><line transform="translate(107,-300)" x2="0" y2="300" stroke="#ddd" stroke-width="1" opacity="1"/><line transform="translate(135,-300)" x2="0" y2="300" stroke="#ddd" stroke-width="1" opacity="1"/><line transform="translate(157,-300)" x2="0" y2="300" stroke="#ddd" stroke-width="1" opacity="1"/><line transform="translate(175,-300)" x2="0" y2="300" stroke="#ddd" stroke-width="1" opacity="1"/><line transform="translate(190,-300)" x2="0" y2="300" stroke="#ddd" stroke-width="1" opacity="1"/><line transform="translate(203,-300)" x2="0" y2="300" stroke="#ddd" stroke-width="1" opacity="1"/><line transform="translate(215,-300)" x2="0" y2="300" stroke="#ddd" stroke-width="1" opacity="1"/><line transform="translate(225,-300)" x2="0" y2="300" stroke="#ddd" stroke-width="1" opacity="1"/><line transform="translate(293,-300)" x2="0" y2="300" stroke="#ddd" stroke-width="1" opacity="1"/><line transform="translate(332,-300)" x2="0" y2="300" stroke="#ddd" stroke-width="1" opacity="1"/><line transform="translate(360,-300)" x2="0" y2="300" stroke="#ddd" stroke-width="1" opacity="1"/><line transform="translate(382,-300)" x2="0" y2="300" stroke="#ddd" stroke-width="1" opacity="1"/><line transform="translate(400,-300)" x2="0" y2="300" stroke="#ddd" stroke-width="1" opacity="1"/><line transform="translate(415,-300)" x2="0" y2="300" stroke="#ddd" stroke-width="1" opacity="1"/><line transform="translate(428,-300)" x2="0" y2="300" stroke="#ddd" stroke-width="1" opacity="1"/><line transform="translate(440,-300)" x2="0" y2="300" stroke="#ddd" stroke-width="1" opacity="1"/><line transform="translate(450,-300)" x2="0" y2="300" stroke="#ddd" stroke-width="1" opacity="1"/></g></g><path class="foreground" aria-hidden="true" d="" pointer-events="none" display="none"/></g></g><g class="mark-group role-axis" aria-hidden="true"><g transform="translate(0.5,0.5)"><path class="background" aria-hidden="true" d="M0,0h0v0h0Z" pointer-events="none"/><g><g class="mark-rule role-axis-grid" pointer-events="none"><line transform="translate(0,300)" x2="450" y2="0" stroke="#ddd" stroke-width="1" opacity="1"/><line transform="translate(0,270)" x2="450" y2="0" stroke="#ddd" stroke-width="1" opacity="1"/><line transform="translate(0,252)" x2="450" y2="0" stroke="#ddd" stroke-width="1" opacity="1"/><line transform="translate(0,240)" x2="450" y2="0" stroke="#ddd" stroke-width="1" opacity="1"/><line transform="translate(0,230)" x2="450" y2="0" stroke="#ddd" stroke-width="1" opacity="1"/><line transform="translate(0,222)" x2="450" y2="0" stroke="#ddd" stroke-width="1" opacity="1"/><line transform="translate(0,215)" x2="450" y2="0" stroke="#ddd" stroke-width="1" opacity="1"/><line transform="translate(0,210)" x2="450" y2="0" stroke="#ddd" stroke-width="1" opacity="1"/><line transform="translate(0,205)" x2="450" y2="0" stroke="#ddd" stroke-width="1" opacity="1"/><line transform="translate(0,200)" x2="450" y2="0" stroke="#ddd" stroke-width="1" opacity="1"/><line transform="translate(0,170)" x2="450" y2="0" stroke="#ddd" stroke-width="1" opacity="1"/><line transform="translate(0,152)" x2="450" y2="0" stroke="#ddd" stroke-width="1" opacity="1"/><line transform="translate(0,140)" x2="450" y2="0" stroke="#ddd" stroke-width="1" opacity="1"/><line transform="translate(0,130)" x2="450" y2="0" stroke="#ddd" stroke-width="1" opacity="1"/><line transform="translate(0,122)" x2="450" y2="0" stroke="#ddd" stroke-width="1" opacity="1"/><line transform="translate(0,115)" x2="450" y2="0" stroke="#ddd" stroke-width="1" opacity="1"/><line transform="translate(0,110)" x2="450" y2="0" stroke="#ddd" stroke-width="1" opacity="1"/><line transform="translate(0,105)" x2="450" y2="0" stroke="#ddd" stroke-width="1" opacity="1"/><line transform="translate(0,100)" x2="450" y2="0" stroke="#ddd" stroke-width="1" opacity="1"/><line transform="translate(0,70)" x2="450" y2="0" stroke="#ddd" stroke-width="1" opacity="1"/><line transform="translate(0,52)" x2="450" y2="0" stroke="#ddd" stroke-width="1" opacity="1"/><line transform="translate(0,40)" x2="450" y2="0" stroke="#ddd" stroke-width="1" opacity="1"/><line transform="translate(0,30)" x2="450" y2="0" stroke="#ddd" stroke-width="1" opacity="1"/><line transform="translate(0,22)" x2="450" y2="0" stroke="#ddd" stroke-width="1" opacity="1"/><line transform="translate(0,15)" x2="450" y2="0" stroke="#ddd" stroke-width="1" opacity="1"/><line transform="translate(0,10)" x2="450" y2="0" stroke="#ddd" stroke-width="1" opacity="1"/><line transform="translate(0,5)" x2="450" y2="0" stroke="#ddd" stroke-width="1" opacity="1"/><line transform="translate(0,0)" x2="450" y2="0" stroke="#ddd" stroke-width="1" opacity="1"/></g></g><path class="foreground" aria-hidden="true" d="" pointer-events="none" display="none"/></g></g><g class="mark-group role-axis" role="graphics-symbol" aria-roledescription="axis" aria-label="X-axis titled 'Price ($, log scale)' for a log scale with values from 1 to 100"><g transform="translate(0.5,300.5)"><path class="background" aria-hidden="true" d="M0,0h0v0h0Z" pointer-events="none"/><g><g class="mark-rule role-axis-tick" pointer-events="none"><line transform="translate(0,0)" x2="0" y2="5" stroke="#888" stroke-width="1" opacity="1"/><line transform="translate(68,0)" x2="0" y2="5" stroke="#888" stroke-width="1" opacity="1"/><line transform="translate(107,0)" x2="0" y2="5" stroke="#888" stroke-width="1" opacity="1"/><line transform="translate(135,0)" x2="0" y2="5" stroke="#888" stroke-width="1" opacity="1"/><line transform="translate(157,0)" x2="0" y2="5" stroke="#888" stroke-width="1" opacity="1"/><line transform="translate(175,0)" x2="0" y2="5" stroke="#888" stroke-width="1" opacity="1"/><line transform="translate(190,0)" x2="0" y2="5" stroke="#888" stroke-width="1" opacity="1"/><line transform="translate(203,0)" x2="0" y2="5" stroke="#888" stroke-width="1" opacity="1"/><line transform="translate(215,0)" x2="0" y2="5" stroke="#888" stroke-width="1" opacity="1"/><line transform="translate(225,0)" x2="0" y2="5" stroke="#888" stroke-width="1" opacity="1"/><line transform="translate(293,0)" x2="0" y2="5" stroke="#888" stroke-width="1" opacity="1"/><line transform="translate(332,0)" x2="0" y2="5" stroke="#888" stroke-width="1" opacity="1"/><line transform="translate(360,0)" x2="0" y2="5" stroke="#888" stroke-width="1" opacity="1"/><line transform="translate(382,0)" x2="0" y2="5" stroke="#888" stroke-width="1" opacity="1"/><line transform="translate(400,0)" x2="0" y2="5" stroke="#888" stroke-width="1" opacity="1"/><line transform="translate(415,0)" x2="0" y2="5" stroke="#888" stroke-width="1" opacity="1"/><line transform="translate(428,0)" x2="0" y2="5" stroke="#888" stroke-width="1" opacity="1"/><line transform="translate(440,0)" x2="0" y2="5" stroke="#888" stroke-width="1" opacity="1"/><line transform="translate(450,0)" x2="0" y2="5" stroke="#888" stroke-width="1" opacity="1"/></g><g class="mark-text role-axis-label" pointer-events="none"><text text-anchor="start" transform="translate(0,15)" font-family="sans-serif" font-size="10px" fill="#000" opacity="1">1</text><text text-anchor="middle" transform="translate(67.73174902439575,15)" font-family="sans-serif" font-size="10px" fill="#000" opacity="1">2</text><text text-anchor="middle" transform="translate(107.35228231192403,15)" font-family="sans-serif" font-size="10px" fill="#000" opacity="1">3</text><text text-anchor="middle" transform="translate(135.4634980487915,15)" font-family="sans-serif" font-size="10px" fill="#000" opacity="1">4</text><text text-anchor="middle" transform="translate(157.26825097560422,15)" font-family="sans-serif" font-size="10px" fill="#000" opacity="1">5</text><text text-anchor="middle" transform="translate(175.08403133631978,15)" font-family="sans-serif" font-size="10px" fill="#000" opacity="1"/><text text-anchor="middle" transform="translate(190.14705900320774,15)" font-family="sans-serif" font-size="10px" fill="#000" opacity="1"/><text text-anchor="middle" transform="translate(203.19524707318726,15)" font-family="sans-serif" font-size="10px" fill="#000" opacity="1"/><text text-anchor="middle" transform="translate(214.70456462384809,15)" font-family="sans-serif" font-size="10px" fill="#000" opacity="1"/><text text-anchor="middle" transform="translate(225,15)" font-family="sans-serif" font-size="10px" fill="#000" opacity="1">10</text><text text-anchor="middle" transform="translate(292.73174902439575,15)" font-family="sans-serif" font-size="10px" fill="#000" opacity="1">20</text><text text-anchor="middle" transform="translate(332.35228231192406,15)" font-family="sans-serif" font-size="10px" fill="#000" opacity="1">30</text><text text-anchor="middle" transform="translate(360.4634980487915,15)" font-family="sans-serif" font-size="10px" fill="#000" opacity="1">40</text><text text-anchor="middle" transform="translate(382.2682509756042,15)" font-family="sans-serif" font-size="10px" fill="#000" opacity="1">50</text><text text-anchor="middle" transform="translate(400.08403133631975,15)" font-family="sans-serif" font-size="10px" fill="#000" opacity="1"/><text text-anchor="middle" transform="translate(415.1470590032078,15)" font-family="sans-serif" font-size="10px" fill="#000" opacity="1"/><text text-anchor="middle" transform="translate(428.19524707318726,15)" font-family="sans-serif" font-size="10px" fill="#000" opacity="1"/><text text-anchor="middle" transform="translate(439.70456462384806,15)" font-family="sans-serif" font-size="10px" fill="#000" opacity="1"/><text text-anchor="end" transform="translate(450,15)" font-family="sans-serif" font-size="10px" fill="#000" opacity="1">100</text></g><g class="mark-rule role-axis-domain" pointer-events="none"><line transform="translate(0,0)" x2="450" y2="0" stroke="#888" stroke-width="1" opacity="1"/></g><g class="mark-text role-axis-title" pointer-events="none"><text text-anchor="middle" transform="translate(225,30)" font-family="sans-serif" font-size="11px" font-weight="bold" fill="#000" opacity="1">Price ($, log scale)</text></g></g><path class="foreground" aria-hidden="true" d="" pointer-events="none" display="none"/></g></g><g class="mark-group role-axis" role="graphics-symbol" aria-roledescription="axis" aria-label="Y-axis titled 'Quantity (log scale)' for a log scale with values from 1 to 1,000"><g transform="translate(0.5,0.5)"><path class="background" aria-hidden="true" d="M0,0h0v0h0Z" pointer-events="none"/><g><g class="mark-rule role-axis-tick" pointer-events="none"><line transform="translate(0,300)" x2="-5" y2="0" stroke="#888" stroke-width="1" opacity="1"/><line transform="translate(0,270)" x2="-5" y2="0" stroke="#888" stroke-width="1" opacity="1"/><line transform="translate(0,252)" x2="-5" y2="0" stroke="#888" stroke-width="1" opacity="1"/><line transform="translate(0,240)" x2="-5" y2="0" stroke="#888" stroke-width="1" opacity="1"/><line transform="translate(0,230)" x2="-5" y2="0" stroke="#888" stroke-width="1" opacity="1"/><line transform="translate(0,222)" x2="-5" y2="0" stroke="#888" stroke-width="1" opacity="1"/><line transform="translate(0,215)" x2="-5" y2="0" stroke="#888" stroke-width="1" opacity="1"/><line transform="translate(0,210)" x2="-5" y2="0" stroke="#888" stroke-width="1" opacity="1"/><line transform="translate(0,205)" x2="-5" y2="0" stroke="#888" stroke-width="1" opacity="1"/><line transform="translate(0,200)" x2="-5" y2="0" stroke="#888" stroke-width="1" opacity="1"/><line transform="translate(0,170)" x2="-5" y2="0" stroke="#888" stroke-width="1" opacity="1"/><line transform="translate(0,152)" x2="-5" y2="0" stroke="#888" stroke-width="1" opacity="1"/><line transform="translate(0,140)" x2="-5" y2="0" stroke="#888" stroke-width="1" opacity="1"/><line transform="translate(0,130)" x2="-5" y2="0" stroke="#888" stroke-width="1" opacity="1"/><line transform="translate(0,122)" x2="-5" y2="0" stroke="#888" stroke-width="1" opacity="1"/><line transform="translate(0,115)" x2="-5" y2="0" stroke="#888" stroke-width="1" opacity="1"/><line transform="translate(0,110)" x2="-5" y2="0" stroke="#888" stroke-width="1" opacity="1"/><line transform="translate(0,105)" x2="-5" y2="0" stroke="#888" stroke-width="1" opacity="1"/><line transform="translate(0,100)" x2="-5" y2="0" stroke="#888" stroke-width="1" opacity="1"/><line transform="translate(0,70)" x2="-5" y2="0" stroke="#888" stroke-width="1" opacity="1"/><line transform="translate(0,52)" x2="-5" y2="0" stroke="#888" stroke-width="1" opacity="1"/><line transform="translate(0,40)" x2="-5" y2="0" stroke="#888" stroke-width="1" opacity="1"/><line transform="translate(0,30)" x2="-5" y2="0" stroke="#888" stroke-width="1" opacity="1"/><line transform="translate(0,22)" x2="-5" y2="0" stroke="#888" stroke-width="1" opacity="1"/><line transform="translate(0,15)" x2="-5" y2="0" stroke="#888" stroke-width="1" opacity="1"/><line transform="translate(0,10)" x2="-5" y2="0" stroke="#888" stroke-width="1" opacity="1"/><line transform="translate(0,5)" x2="-5" y2="0" stroke="#888" stroke-width="1" opacity="1"/><line transform="translate(0,0)" x2="-5" y2="0" stroke="#888" stroke-width="1" opacity="1"/></g><g class="mark-text role-axis-label" pointer-events="none"><text text-anchor="end" transform="translate(-7,303)" font-family="sans-serif" font-size="10px" fill="#000" opacity="1">1</text><text text-anchor="end" transform="translate(-7,272.8970004336019)" font-family="sans-serif" font-size="10px" fill="#000" opacity="1">2</text><text text-anchor="end" transform="translate(-7,255.28787452803377)" font-family="sans-serif" font-size="10px" fill="#000" opacity="1">3</text><text text-anchor="end" transform="translate(-7,242.79400086720378)" font-family="sans-serif" font-size="10px" fill="#000" opacity="1"/><text text-anchor="end" transform="translate(-7,233.1029995663981)" font-family="sans-serif" font-size="10px" fill="#000" opacity="1"/><text text-anchor="end" transform="translate(-7,225.18487496163561)" font-family="sans-serif" font-size="10px" fill="#000" opacity="1"/><text text-anchor="end" transform="translate(-7,218.4901959985743)" font-family="sans-serif" font-size="10px" fill="#000" opacity="1"/><text text-anchor="end" transform="translate(-7,212.69100130080562)" font-family="sans-serif" font-size="10px" fill="#000" opacity="1"/><text text-anchor="end" transform="translate(-7,207.57574905606754)" font-family="sans-serif" font-size="10px" fill="#000" opacity="1"/><text text-anchor="end" transform="translate(-7,203)" font-family="sans-serif" font-size="10px" fill="#000" opacity="1">10</text><text text-anchor="end" transform="translate(-7,172.89700043360187)" font-family="sans-serif" font-size="10px" fill="#000" opacity="1">20</text><text text-anchor="end" transform="translate(-7,155.28787452803374)" font-family="sans-serif" font-size="10px" fill="#000" opacity="1">30</text><text text-anchor="end" transform="translate(-7,142.79400086720375)" font-family="sans-serif" font-size="10px" fill="#000" opacity="1"/><text text-anchor="end" transform="translate(-7,133.10299956639813)" font-family="sans-serif" font-size="10px" fill="#000" opacity="1"/><text text-anchor="end" transform="translate(-7,125.18487496163564)" font-family="sans-serif" font-size="10px" fill="#000" opacity="1"/><text text-anchor="end" transform="translate(-7,118.49019599857431)" font-family="sans-serif" font-size="10px" fill="#000" opacity="1"/><text text-anchor="end" transform="translate(-7,112.69100130080565)" font-family="sans-serif" font-size="10px" fill="#000" opacity="1"/><text text-anchor="end" transform="translate(-7,107.57574905606751)" font-family="sans-serif" font-size="10px" fill="#000" opacity="1"/><text text-anchor="end" transform="translate(-7,102.99999999999997)" font-family="sans-serif" font-size="10px" fill="#000" opacity="1">100</text><text text-anchor="end" transform="translate(-7,72.8970004336019)" font-family="sans-serif" font-size="10px" fill="#000" opacity="1">200</text><text text-anchor="end" transform="translate(-7,55.28787452803374)" font-family="sans-serif" font-size="10px" fill="#000" opacity="1">300</text><text text-anchor="end" transform="translate(-7,42.79400086720375)" font-family="sans-serif" font-size="10px" fill="#000" opacity="1"/><text text-anchor="end" transform="translate(-7,33.10299956639811)" font-family="sans-serif" font-size="10px" fill="#000" opacity="1"/><text text-anchor="end" transform="translate(-7,25.184874961635625)" font-family="sans-serif" font-size="10px" fill="#000" opacity="1"/><text text-anchor="end" transform="translate(-7,18.49019599857433)" font-family="sans-serif" font-size="10px" fill="#000" opacity="1"/><text text-anchor="end" transform="translate(-7,12.691001300805635)" font-family="sans-serif" font-size="10px" fill="#000" opacity="1"/><text text-anchor="end" transform="translate(-7,7.575749056067502)" font-family="sans-serif" font-size="10px" fill="#000" opacity="1"/><text text-anchor="end" transform="translate(-7,3)" font-family="sans-serif" font-size="10px" fill="#000" opacity="1">1,000</text></g><g class="mark-rule role-axis-domain" pointer-events="none"><line transform="translate(0,300)" x2="0" y2="-300" stroke="#888" stroke-width="1" opacity="1"/></g><g class="mark-text role-axis-title" pointer-events="none"><text text-anchor="middle" transform="translate(-36.0244140625,150) rotate(-90) translate(0,-2)" font-family="sans-serif" font-size="11px" font-weight="bold" fill="#000" opacity="1">Quantity (log scale)</text></g></g><path class="foreground" aria-hidden="true" d="" pointer-events="none" display="none"/></g></g><g class="mark-symbol role-mark layer_0_marks" role="graphics-object" aria-roledescription="symbol mark container"><path aria-label="Price ($, log scale): 11.9119966399; Quantity (log scale): 4.74312955214" role="graphics-symbol" aria-roledescription="point" transform="translate(242.09652650354255,232.3935013022769)" d="M3.162,0A3.162,3.162,0,1,1,-3.162,0A3.162,3.162,0,1,1,3.162,0" stroke="steelblue" stroke-width="2" opacity="0.7"/><path aria-label="Price ($, log scale): 11.3337442496; Quantity (log scale): 4.27560173219" role="graphics-symbol" aria-roledescription="point" transform="translate(237.2340168879387,236.900275565389)" d="M3.162,0A3.162,3.162,0,1,1,-3.162,0A3.162,3.162,0,1,1,3.162,0" stroke="steelblue" stroke-width="2" opacity="0.7"/><path aria-label="Price ($, log scale): 2.29030827507; Quantity (log scale): 51.8582097891" role="graphics-symbol" aria-roledescription="point" transform="translate(80.97613700183105,128.5182479702164)" d="M3.162,0A3.162,3.162,0,1,1,-3.162,0A3.162,3.162,0,1,1,3.162,0" stroke="steelblue" stroke-width="2" opacity="0.7"/><path aria-label="Price ($, log scale): 9.7985276885; Quantity (log scale): 4.09644308478" role="graphics-symbol" aria-roledescription="point" transform="translate(223.01118544110213,238.75930747695827)" d="M3.162,0A3.162,3.162,0,1,1,-3.162,0A3.162,3.162,0,1,1,3.162,0" stroke="steelblue" stroke-width="2" opacity="0.7"/><path aria-label="Price ($, log scale): 4.38165765097; Quantity (log scale): 15.0137458728" role="graphics-symbol" aria-roledescription="point" transform="translate(144.3686494768213,182.35109394061087)" d="M3.162,0A3.162,3.162,0,1,1,-3.162,0A3.162,3.162,0,1,1,3.162,0" stroke="steelblue" stroke-width="2" opacity="0.7"/><path aria-label="Price ($, log scale): 1.60339728728; Quantity (log scale): 95.1567594233" role="graphics-symbol" aria-roledescription="point" transform="translate(46.13425751203967,102.15603563419364)" d="M3.162,0A3.162,3.162,0,1,1,-3.162,0A3.162,3.162,0,1,1,3.162,0" stroke="steelblue" stroke-width="2" opacity="0.7"/><path aria-label="Price ($, log scale): 15.1954907719; Quantity (log scale): 2.11969279326" role="graphics-symbol" aria-roledescription="point" transform="translate(265.8858145070335,267.37270767413173)" d="M3.162,0A3.162,3.162,0,1,1,-3.162,0A3.162,3.162,0,1,1,3.162,0" stroke="steelblue" stroke-width="2" opacity="0.7"/><path aria-label="Price ($, log scale): 4.96210328033; Quantity (log scale): 16.5301448906" role="graphics-symbol" aria-roledescription="point" transform="translate(156.52480485559485,178.172333971854)" d="M3.162,0A3.162,3.162,0,1,1,-3.162,0A3.162,3.162,0,1,1,3.162,0" stroke="steelblue" stroke-width="2" opacity="0.7"/><path aria-label="Price ($, log scale): 2.46908331721; Quantity (log scale): 38.9259914596" role="graphics-symbol" aria-roledescription="point" transform="translate(88.32054264586245,140.97603169754626)" d="M3.162,0A3.162,3.162,0,1,1,-3.162,0A3.162,3.162,0,1,1,3.162,0" stroke="steelblue" stroke-width="2" opacity="0.7"/><path aria-label="Price ($, log scale): 2.73542617087; Quantity (log scale): 39.7466375149" role="graphics-symbol" aria-roledescription="point" transform="translate(98.33062447524671,140.06996058876058)" d="M3.162,0A3.162,3.162,0,1,1,-3.162,0A3.162,3.162,0,1,1,3.162,0" stroke="steelblue" stroke-width="2" opacity="0.7"/><path aria-label="Price ($, log scale): 19.3135353921; Quantity (log scale): 2.02893293684" role="graphics-symbol" aria-roledescription="point" transform="translate(289.3189004490253,269.2732307645247)" d="M3.162,0A3.162,3.162,0,1,1,-3.162,0A3.162,3.162,0,1,1,3.162,0" stroke="steelblue" stroke-width="2" opacity="0.7"/><path aria-label="Price ($, log scale): 18.4622196574; Quantity (log scale): 2.12872799011" role="graphics-symbol" aria-roledescription="point" transform="translate(284.9138805946615,267.18798293751183)" d="M3.162,0A3.162,3.162,0,1,1,-3.162,0A3.162,3.162,0,1,1,3.162,0" stroke="steelblue" stroke-width="2" opacity="0.7"/><path aria-label="Price ($, log scale): 5.87298782162; Quantity (log scale): 11.9486338155" role="graphics-symbol" aria-roledescription="point" transform="translate(172.99329756283544,192.26817482966675)" d="M3.162,0A3.162,3.162,0,1,1,-3.162,0A3.162,3.162,0,1,1,3.162,0" stroke="steelblue" stroke-width="2" opacity="0.7"/><path aria-label="Price ($, log scale): 7.84386035666; Quantity (log scale): 6.36301926468" role="graphics-symbol" aria-roledescription="point" transform="translate(201.2692170082922,219.6336761891654)" d="M3.162,0A3.162,3.162,0,1,1,-3.162,0A3.162,3.162,0,1,1,3.162,0" stroke="steelblue" stroke-width="2" opacity="0.7"/><path aria-label="Price ($, log scale): 2.4610146016; Quantity (log scale): 36.5169123919" role="graphics-symbol" aria-roledescription="point" transform="translate(88.00069285125959,143.75059504103146)" d="M3.162,0A3.162,3.162,0,1,1,-3.162,0A3.162,3.162,0,1,1,3.162,0" stroke="steelblue" stroke-width="2" opacity="0.7"/><path aria-label="Price ($, log scale): 15.1004562141; Quantity (log scale): 2.7275075812" role="graphics-symbol" aria-roledescription="point" transform="translate(265.2727653835085,256.42340336023284)" d="M3.162,0A3.162,3.162,0,1,1,-3.162,0A3.162,3.162,0,1,1,3.162,0" stroke="steelblue" stroke-width="2" opacity="0.7"/><path aria-label="Price ($, log scale): 2.96966142472; Quantity (log scale): 27.1378698828" role="graphics-symbol" aria-roledescription="point" transform="translate(106.35906096318365,156.64242441659226)" d="M3.162,0A3.162,3.162,0,1,1,-3.162,0A3.162,3.162,0,1,1,3.162,0" stroke="steelblue" stroke-width="2" opacity="0.7"/><path aria-label="Price ($, log scale): 11.8896339549; Quantity (log scale): 3.92263597365" role="graphics-symbol" aria-roledescription="point" transform="translate(241.91290895393624,240.64219931627102)" d="M3.162,0A3.162,3.162,0,1,1,-3.162,0A3.162,3.162,0,1,1,3.162,0" stroke="steelblue" stroke-width="2" opacity="0.7"/><path aria-label="Price ($, log scale): 15.8533660945; Quantity (log scale): 2.83817036844" role="graphics-symbol" aria-roledescription="point" transform="translate(270.02733495804347,254.69615384587243)" d="M3.162,0A3.162,3.162,0,1,1,-3.162,0A3.162,3.162,0,1,1,3.162,0" stroke="steelblue" stroke-width="2" opacity="0.7"/><path aria-label="Price ($, log scale): 19.0390557351; Quantity (log scale): 1.57868209762" role="graphics-symbol" aria-roledescription="point" transform="translate(287.920216175669,280.17053159371363)" d="M3.162,0A3.162,3.162,0,1,1,-3.162,0A3.162,3.162,0,1,1,3.162,0" stroke="steelblue" stroke-width="2" opacity="0.7"/><path aria-label="Price ($, log scale): 18.4952075986; Quantity (log scale): 2.49368810199" role="graphics-symbol" aria-roledescription="point" transform="translate(285.0883223394147,260.31578668375244)" d="M3.162,0A3.162,3.162,0,1,1,-3.162,0A3.162,3.162,0,1,1,3.162,0" stroke="steelblue" stroke-width="2" opacity="0.7"/><path aria-label="Price ($, log scale): 15.7817261744; Quantity (log scale): 2.44622616805" role="graphics-symbol" aria-roledescription="point" transform="translate(269.58476334457646,261.1503392354815)" d="M3.162,0A3.162,3.162,0,1,1,-3.162,0A3.162,3.162,0,1,1,3.162,0" stroke="steelblue" stroke-width="2" opacity="0.7"/><path aria-label="Price ($, log scale): 16.6025774083; Quantity (log scale): 2.39142194483" role="graphics-symbol" aria-roledescription="point" transform="translate(274.53949060104077,262.13437897804226)" d="M3.162,0A3.162,3.162,0,1,1,-3.162,0A3.162,3.162,0,1,1,3.162,0" stroke="steelblue" stroke-width="2" opacity="0.7"/><path aria-label="Price ($, log scale): 5.69607017883; Quantity (log scale): 10.6197956039" role="graphics-symbol" aria-roledescription="point" transform="translate(170.00444956887915,197.38838419129374)" d="M3.162,0A3.162,3.162,0,1,1,-3.162,0A3.162,3.162,0,1,1,3.162,0" stroke="steelblue" stroke-width="2" opacity="0.7"/><path aria-label="Price ($, log scale): 13.7468963998; Quantity (log scale): 2.01207749029" role="graphics-symbol" aria-roledescription="point" transform="translate(256.0960484375416,269.63552974938284)" d="M3.162,0A3.162,3.162,0,1,1,-3.162,0A3.162,3.162,0,1,1,3.162,0" stroke="steelblue" stroke-width="2" opacity="0.7"/><path aria-label="Price ($, log scale): 7.59196120034; Quantity (log scale): 7.65070631735" role="graphics-symbol" aria-roledescription="point" transform="translate(198.07964547957988,211.62984686940393)" d="M3.162,0A3.162,3.162,0,1,1,-3.162,0A3.162,3.162,0,1,1,3.162,0" stroke="steelblue" stroke-width="2" opacity="0.7"/><path aria-label="Price ($, log scale): 17.5843850076; Quantity (log scale): 2.08046267852" role="graphics-symbol" aria-roledescription="point" transform="translate(280.1536163998127,268.18400706229124)" d="M3.162,0A3.162,3.162,0,1,1,-3.162,0A3.162,3.162,0,1,1,3.162,0" stroke="steelblue" stroke-width="2" opacity="0.7"/><path aria-label="Price ($, log scale): 18.3925341162; Quantity (log scale): 1.73734939253" role="graphics-symbol" aria-roledescription="point" transform="translate(284.544353314043,276.0112833257996)" d="M3.162,0A3.162,3.162,0,1,1,-3.162,0A3.162,3.162,0,1,1,3.162,0" stroke="steelblue" stroke-width="2" opacity="0.7"/><path aria-label="Price ($, log scale): 5.3386653701; Quantity (log scale): 9.92930306031" role="graphics-symbol" aria-roledescription="point" transform="translate(163.6723574867526,200.30812336478238)" d="M3.162,0A3.162,3.162,0,1,1,-3.162,0A3.162,3.162,0,1,1,3.162,0" stroke="steelblue" stroke-width="2" opacity="0.7"/><path aria-label="Price ($, log scale): 13.5232279464; Quantity (log scale): 3.04580169508" role="graphics-symbol" aria-roledescription="point" transform="translate(254.4930829188539,251.62983759632743)" d="M3.162,0A3.162,3.162,0,1,1,-3.162,0A3.162,3.162,0,1,1,3.162,0" stroke="steelblue" stroke-width="2" opacity="0.7"/><path aria-label="Price ($, log scale): 10.4928697775; Quantity (log scale): 4.78695302839" role="graphics-symbol" aria-roledescription="point" transform="translate(229.70121368662012,231.9940833978168)" d="M3.162,0A3.162,3.162,0,1,1,-3.162,0A3.162,3.162,0,1,1,3.162,0" stroke="steelblue" stroke-width="2" opacity="0.7"/><path aria-label="Price ($, log scale): 17.4319412758; Quantity (log scale): 2.70137439125" role="graphics-symbol" aria-roledescription="point" transform="translate(279.30279469555586,256.84152215196804)" d="M3.162,0A3.162,3.162,0,1,1,-3.162,0A3.162,3.162,0,1,1,3.162,0" stroke="steelblue" stroke-width="2" opacity="0.7"/><path aria-label="Price ($, log scale): 10.5134436641; Quantity (log scale): 4.83812804841" role="graphics-symbol" aria-roledescription="point" transform="translate(229.8926231760249,231.53226415590302)" d="M3.162,0A3.162,3.162,0,1,1,-3.162,0A3.162,3.162,0,1,1,3.162,0" stroke="steelblue" stroke-width="2" opacity="0.7"/><path aria-label="Price ($, log scale): 11.243634078; Quantity (log scale): 3.26069463731" role="graphics-symbol" aria-roledescription="point" transform="translate(236.45400820491344,248.66898707861043)" d="M3.162,0A3.162,3.162,0,1,1,-3.162,0A3.162,3.162,0,1,1,3.162,0" stroke="steelblue" stroke-width="2" opacity="0.7"/><path aria-label="Price ($, log scale): 15.1101178743; Quantity (log scale): 2.34257180219" role="graphics-symbol" aria-roledescription="point" transform="translate(265.3352667658301,263.0307088672276)" d="M3.162,0A3.162,3.162,0,1,1,-3.162,0A3.162,3.162,0,1,1,3.162,0" stroke="steelblue" stroke-width="2" opacity="0.7"/><path aria-label="Price ($, log scale): 1.02425495442; Quantity (log scale): 115.614907413" role="graphics-symbol" aria-roledescription="point" transform="translate(2.3418165048973902,93.69861642724187)" d="M3.162,0A3.162,3.162,0,1,1,-3.162,0A3.162,3.162,0,1,1,3.162,0" stroke="steelblue" stroke-width="2" opacity="0.7"/><path aria-label="Price ($, log scale): 19.5443611858; Quantity (log scale): 1.42929707839" role="graphics-symbol" aria-roledescription="point" transform="translate(290.4798329852736,284.4877494024299)" d="M3.162,0A3.162,3.162,0,1,1,-3.162,0A3.162,3.162,0,1,1,3.162,0" stroke="steelblue" stroke-width="2" opacity="0.7"/><path aria-label="Price ($, log scale): 2.12073013013; Quantity (log scale): 45.4251472064" role="graphics-symbol" aria-roledescription="point" transform="translate(73.45921649258742,134.2703656627161)" d="M3.162,0A3.162,3.162,0,1,1,-3.162,0A3.162,3.162,0,1,1,3.162,0" stroke="steelblue" stroke-width="2" opacity="0.7"/><path aria-label="Price ($, log scale): 12.8775810135; Quantity (log scale): 3.24643500926" role="graphics-symbol" aria-roledescription="point" transform="translate(249.7127154140742,248.85932868932832)" d="M3.162,0A3.162,3.162,0,1,1,-3.162,0A3.162,3.162,0,1,1,3.162,0" stroke="steelblue" stroke-width="2" opacity="0.7"/><path aria-label="Price ($, log scale): 12.7789332372; Quantity (log scale): 3.14714384084" role="graphics-symbol" aria-roledescription="point" transform="translate(248.96128526931176,250.2083407116245)" d="M3.162,0A3.162,3.162,0,1,1,-3.162,0A3.162,3.162,0,1,1,3.162,0" stroke="steelblue" stroke-width="2" opacity="0.7"/><path aria-label="Price ($, log scale): 11.5149386049; Quantity (log scale): 3.24842564582" role="graphics-symbol" aria-roledescription="point" transform="translate(238.78386601776052,248.83270694796545)" d="M3.162,0A3.162,3.162,0,1,1,-3.162,0A3.162,3.162,0,1,1,3.162,0" stroke="steelblue" stroke-width="2" opacity="0.7"/><path aria-label="Price ($, log scale): 12.0629614516; Quantity (log scale): 4.10221858631" role="graphics-symbol" aria-roledescription="point" transform="translate(243.32713649880418,238.6981202012525)" d="M3.162,0A3.162,3.162,0,1,1,-3.162,0A3.162,3.162,0,1,1,3.162,0" stroke="steelblue" stroke-width="2" opacity="0.7"/><path aria-label="Price ($, log scale): 8.39345410924; Quantity (log scale): 5.40122192296" role="graphics-symbol" aria-roledescription="point" transform="translate(207.88666206514972,226.750797825755)" d="M3.162,0A3.162,3.162,0,1,1,-3.162,0A3.162,3.162,0,1,1,3.162,0" stroke="steelblue" stroke-width="2" opacity="0.7"/><path aria-label="Price ($, log scale): 15.1360753409; Quantity (log scale): 2.34422818789" role="graphics-symbol" aria-roledescription="point" transform="translate(265.5029881789435,263.00001162388423)" d="M3.162,0A3.162,3.162,0,1,1,-3.162,0A3.162,3.162,0,1,1,3.162,0" stroke="steelblue" stroke-width="2" opacity="0.7"/><path aria-label="Price ($, log scale): 12.8361835395; Quantity (log scale): 3.21814798262" role="graphics-symbol" aria-roledescription="point" transform="translate(249.39808161168452,249.23939892750295)" d="M3.162,0A3.162,3.162,0,1,1,-3.162,0A3.162,3.162,0,1,1,3.162,0" stroke="steelblue" stroke-width="2" opacity="0.7"/><path aria-label="Price ($, log scale): 2.11342647015; Quantity (log scale): 43.270319463" role="graphics-symbol" aria-roledescription="point" transform="translate(73.1221070744678,136.38098984108666)" d="M3.162,0A3.162,3.162,0,1,1,-3.162,0A3.162,3.162,0,1,1,3.162,0" stroke="steelblue" stroke-width="2" opacity="0.7"/><path aria-label="Price ($, log scale): 14.6225761796; Quantity (log scale): 2.259316236" role="graphics-symbol" aria-roledescription="point" transform="translate(262.1303758337949,264.6022976720366)" d="M3.162,0A3.162,3.162,0,1,1,-3.162,0A3.162,3.162,0,1,1,3.162,0" stroke="steelblue" stroke-width="2" opacity="0.7"/><path aria-label="Price ($, log scale): 16.9386343227; Quantity (log scale): 2.75349610213" role="graphics-symbol" aria-roledescription="point" transform="translate(276.49763829347734,256.0115533972866)" d="M3.162,0A3.162,3.162,0,1,1,-3.162,0A3.162,3.162,0,1,1,3.162,0" stroke="steelblue" stroke-width="2" opacity="0.7"/><path aria-label="Price ($, log scale): 8.40584853079; Quantity (log scale): 5.898120746" role="graphics-symbol" aria-roledescription="point" transform="translate(208.03085099309462,222.92863408407447)" d="M3.162,0A3.162,3.162,0,1,1,-3.162,0A3.162,3.162,0,1,1,3.162,0" stroke="steelblue" stroke-width="2" opacity="0.7"/><path aria-label="Price ($, log scale): 15.1190053405; Quantity (log scale): 2.97822309799" role="graphics-symbol" aria-roledescription="point" transform="translate(265.39272459921335,252.60427724678718)" d="M3.162,0A3.162,3.162,0,1,1,-3.162,0A3.162,3.162,0,1,1,3.162,0" stroke="steelblue" stroke-width="2" opacity="0.7"/><path aria-label="Price ($, log scale): 6.90632034755; Quantity (log scale): 9.36301414813" role="graphics-symbol" aria-roledescription="point" transform="translate(188.83051179686038,202.85843203671655)" d="M3.162,0A3.162,3.162,0,1,1,-3.162,0A3.162,3.162,0,1,1,3.162,0" stroke="steelblue" stroke-width="2" opacity="0.7"/><path aria-label="Price ($, log scale): 4.78312734838; Quantity (log scale): 11.6278674622" role="graphics-symbol" aria-roledescription="point" transform="translate(152.93518737756398,193.44999270888115)" d="M3.162,0A3.162,3.162,0,1,1,-3.162,0A3.162,3.162,0,1,1,3.162,0" stroke="steelblue" stroke-width="2" opacity="0.7"/><path aria-label="Price ($, log scale): 5.17139631835; Quantity (log scale): 10.0420441981" role="graphics-symbol" aria-roledescription="point" transform="translate(160.56175992964836,199.8177871495012)" d="M3.162,0A3.162,3.162,0,1,1,-3.162,0A3.162,3.162,0,1,1,3.162,0" stroke="steelblue" stroke-width="2" opacity="0.7"/><path aria-label="Price ($, log scale): 8.17908569723; Quantity (log scale): 5.60120457755" role="graphics-symbol" aria-roledescription="point" transform="translate(205.35857068065434,225.17185649352936)" d="M3.162,0A3.162,3.162,0,1,1,-3.162,0A3.162,3.162,0,1,1,3.162,0" stroke="steelblue" stroke-width="2" opacity="0.7"/><path aria-label="Price ($, log scale): 18.3241159278; Quantity (log scale): 1.78188373177" role="graphics-symbol" aria-roledescription="point" transform="translate(284.18018190379416,274.91206371669796)" d="M3.162,0A3.162,3.162,0,1,1,-3.162,0A3.162,3.162,0,1,1,3.162,0" stroke="steelblue" stroke-width="2" opacity="0.7"/><path aria-label="Price ($, log scale): 9.78860668767; Quantity (log scale): 5.13943603818" role="graphics-symbol" aria-roledescription="point" transform="translate(222.91219769274653,228.9084534496079)" d="M3.162,0A3.162,3.162,0,1,1,-3.162,0A3.162,3.162,0,1,1,3.162,0" stroke="steelblue" stroke-width="2" opacity="0.7"/><path aria-label="Price ($, log scale): 9.47131770062; Quantity (log scale): 5.28313524529" role="graphics-symbol" aria-roledescription="point" transform="translate(219.6923410325881,227.71082714767522)" d="M3.162,0A3.162,3.162,0,1,1,-3.162,0A3.162,3.162,0,1,1,3.162,0" stroke="steelblue" stroke-width="2" opacity="0.7"/><path aria-label="Price ($, log scale): 13.6066334563; Quantity (log scale): 3.11293716229" role="graphics-symbol" aria-roledescription="point" transform="translate(255.09390427306369,250.6829645891283)" d="M3.162,0A3.162,3.162,0,1,1,-3.162,0A3.162,3.162,0,1,1,3.162,0" stroke="steelblue" stroke-width="2" opacity="0.7"/><path aria-label="Price ($, log scale): 14.449025489; Quantity (log scale): 2.87132163463" role="graphics-symbol" aria-roledescription="point" transform="translate(260.96367536869576,254.1918156747925)" d="M3.162,0A3.162,3.162,0,1,1,-3.162,0A3.162,3.162,0,1,1,3.162,0" stroke="steelblue" stroke-width="2" opacity="0.7"/><path aria-label="Price ($, log scale): 2.05185808784; Quantity (log scale): 58.1168633781" role="graphics-symbol" aria-roledescription="point" transform="translate(70.23314710699792,123.56978330239622)" d="M3.162,0A3.162,3.162,0,1,1,-3.162,0A3.162,3.162,0,1,1,3.162,0" stroke="steelblue" stroke-width="2" opacity="0.7"/><path aria-label="Price ($, log scale): 18.4197140913; Quantity (log scale): 2.32189662339" role="graphics-symbol" aria-roledescription="point" transform="translate(284.6886490897599,263.41571200371726)" d="M3.162,0A3.162,3.162,0,1,1,-3.162,0A3.162,3.162,0,1,1,3.162,0" stroke="steelblue" stroke-width="2" opacity="0.7"/><path aria-label="Price ($, log scale): 11.0853894409; Quantity (log scale): 4.12462512945" role="graphics-symbol" aria-roledescription="point" transform="translate(235.06896485765898,238.46155165955682)" d="M3.162,0A3.162,3.162,0,1,1,-3.162,0A3.162,3.162,0,1,1,3.162,0" stroke="steelblue" stroke-width="2" opacity="0.7"/><path aria-label="Price ($, log scale): 14.3547193999; Quantity (log scale): 2.54412488389" role="graphics-symbol" aria-roledescription="point" transform="translate(260.3238091894263,259.4461574213601)" d="M3.162,0A3.162,3.162,0,1,1,-3.162,0A3.162,3.162,0,1,1,3.162,0" stroke="steelblue" stroke-width="2" opacity="0.7"/><path aria-label="Price ($, log scale): 5.89678845402; Quantity (log scale): 10.5359252347" role="graphics-symbol" aria-roledescription="point" transform="translate(173.38849826369474,197.73273198867162)" d="M3.162,0A3.162,3.162,0,1,1,-3.162,0A3.162,3.162,0,1,1,3.162,0" stroke="steelblue" stroke-width="2" opacity="0.7"/><path aria-label="Price ($, log scale): 10.5441189701; Quantity (log scale): 5.48986650897" role="graphics-symbol" aria-roledescription="point" transform="translate(230.17731692771378,226.04382156817093)" d="M3.162,0A3.162,3.162,0,1,1,-3.162,0A3.162,3.162,0,1,1,3.162,0" stroke="steelblue" stroke-width="2" opacity="0.7"/><path aria-label="Price ($, log scale): 11.661754027; Quantity (log scale): 3.73479505873" role="graphics-symbol" aria-roledescription="point" transform="translate(240.02187230718906,242.7733224452021)" d="M3.162,0A3.162,3.162,0,1,1,-3.162,0A3.162,3.162,0,1,1,3.162,0" stroke="steelblue" stroke-width="2" opacity="0.7"/><path aria-label="Price ($, log scale): 7.46154145617; Quantity (log scale): 7.87672856924" role="graphics-symbol" aria-roledescription="point" transform="translate(196.38642515859806,210.36541199888617)" d="M3.162,0A3.162,3.162,0,1,1,-3.162,0A3.162,3.162,0,1,1,3.162,0" stroke="steelblue" stroke-width="2" opacity="0.7"/><path aria-label="Price ($, log scale): 3.85609690065; Quantity (log scale): 17.0598341528" role="graphics-symbol" aria-roledescription="point" transform="translate(131.88328623974007,176.80251951412998)" d="M3.162,0A3.162,3.162,0,1,1,-3.162,0A3.162,3.162,0,1,1,3.162,0" stroke="steelblue" stroke-width="2" opacity="0.7"/><path aria-label="Price ($, log scale): 9.93821422346; Quantity (log scale): 4.14112641489" role="graphics-symbol" aria-roledescription="point" transform="translate(224.39437964041701,238.28815117218946)" d="M3.162,0A3.162,3.162,0,1,1,-3.162,0A3.162,3.162,0,1,1,3.162,0" stroke="steelblue" stroke-width="2" opacity="0.7"/><path aria-label="Price ($, log scale): 3.81976246704; Quantity (log scale): 23.7867895468" role="graphics-symbol" aria-roledescription="point" transform="translate(130.9581803322325,162.36641698255693)" d="M3.162,0A3.162,3.162,0,1,1,-3.162,0A3.162,3.162,0,1,1,3.162,0" stroke="steelblue" stroke-width="2" opacity="0.7"/><path aria-label="Price ($, log scale): 11.3167633433; Quantity (log scale): 4.21834732537" role="graphics-symbol" aria-roledescription="point" transform="translate(237.08750264918277,237.48576646912798)" d="M3.162,0A3.162,3.162,0,1,1,-3.162,0A3.162,3.162,0,1,1,3.162,0" stroke="steelblue" stroke-width="2" opacity="0.7"/><path aria-label="Price ($, log scale): 6.72160003774; Quantity (log scale): 9.27029373203" role="graphics-symbol" aria-roledescription="point" transform="translate(186.18134999234763,203.29065048868537)" d="M3.162,0A3.162,3.162,0,1,1,-3.162,0A3.162,3.162,0,1,1,3.162,0" stroke="steelblue" stroke-width="2" opacity="0.7"/><path aria-label="Price ($, log scale): 9.14562948607; Quantity (log scale): 5.3083112304" role="graphics-symbol" aria-roledescription="point" transform="translate(216.27306066802223,227.50436220392353)" d="M3.162,0A3.162,3.162,0,1,1,-3.162,0A3.162,3.162,0,1,1,3.162,0" stroke="steelblue" stroke-width="2" opacity="0.7"/><path aria-label="Price ($, log scale): 15.3921541697; Quantity (log scale): 2.79176560515" role="graphics-symbol" aria-roledescription="point" transform="translate(267.1423660490018,255.4121047604076)" d="M3.162,0A3.162,3.162,0,1,1,-3.162,0A3.162,3.162,0,1,1,3.162,0" stroke="steelblue" stroke-width="2" opacity="0.7"/><path aria-label="Price ($, log scale): 15.2587174436; Quantity (log scale): 3.3365563172" role="graphics-symbol" aria-roledescription="point" transform="translate(266.2915569656571,247.6701540364212)" d="M3.162,0A3.162,3.162,0,1,1,-3.162,0A3.162,3.162,0,1,1,3.162,0" stroke="steelblue" stroke-width="2" opacity="0.7"/><path aria-label="Price ($, log scale): 7.30010057606; Quantity (log scale): 7.30246516582" role="graphics-symbol" aria-roledescription="point" transform="translate(194.2489898077657,213.65305060187416)" d="M3.162,0A3.162,3.162,0,1,1,-3.162,0A3.162,3.162,0,1,1,3.162,0" stroke="steelblue" stroke-width="2" opacity="0.7"/><path aria-label="Price ($, log scale): 19.4920759253; Quantity (log scale): 1.71393461259" role="graphics-symbol" aria-roledescription="point" transform="translate(290.21807123352215,276.6005750634819)" d="M3.162,0A3.162,3.162,0,1,1,-3.162,0A3.162,3.162,0,1,1,3.162,0" stroke="steelblue" stroke-width="2" opacity="0.7"/><path aria-label="Price ($, log scale): 15.8039932044; Quantity (log scale): 2.1261769361" role="graphics-symbol" aria-roledescription="point" transform="translate(269.7225377100927,267.24005972093613)" d="M3.162,0A3.162,3.162,0,1,1,-3.162,0A3.162,3.162,0,1,1,3.162,0" stroke="steelblue" stroke-width="2" opacity="0.7"/><path aria-label="Price ($, log scale): 1.34818814689; Quantity (log scale): 80.2601196152" role="graphics-symbol" aria-roledescription="point" transform="translate(29.19386352489827,109.55001973532936)" d="M3.162,0A3.162,3.162,0,1,1,-3.162,0A3.162,3.162,0,1,1,3.162,0" stroke="steelblue" stroke-width="2" opacity="0.7"/><path aria-label="Price ($, log scale): 19.0510152049; Quantity (log scale): 2.01616063653" role="graphics-symbol" aria-roledescription="point" transform="translate(287.98157781915984,269.5474868665275)" d="M3.162,0A3.162,3.162,0,1,1,-3.162,0A3.162,3.162,0,1,1,3.162,0" stroke="steelblue" stroke-width="2" opacity="0.7"/></g><g class="mark-line role-mark layer_1_marks" role="graphics-object" aria-roledescription="line mark container"><path aria-label="price: 1.02425495442; quantity: 137.896191646" role="graphics-symbol" aria-roledescription="line mark" d="M2.342,86.045L10.84,91.612L18.658,96.733L25.896,101.475L32.635,105.89L38.94,110.02L44.862,113.899L50.445,117.557L55.727,121.017L60.737,124.299L65.504,127.422L70.048,130.399L74.391,133.244L78.549,135.967L82.537,138.58L86.368,141.09L90.055,143.505L93.608,145.833L97.037,148.079L100.349,150.248L103.552,152.347L106.654,154.379L109.66,156.348L112.577,158.259L115.409,160.114L118.161,161.917L120.838,163.671L123.444,165.378L125.982,167.04L128.455,168.661L130.868,170.241L133.222,171.784L135.521,173.29L137.767,174.761L139.963,176.199L142.11,177.606L144.212,178.983L146.269,180.33L148.283,181.65L150.257,182.943L152.192,184.211L154.089,185.453L155.95,186.673L157.777,187.869L159.57,189.044L161.33,190.197L163.059,191.33L164.759,192.443L166.429,193.537L168.071,194.613L169.686,195.671L171.275,196.712L172.838,197.736L174.377,198.744L175.892,199.736L177.384,200.713L178.853,201.676L180.301,202.624L181.727,203.559L183.133,204.48L184.519,205.388L185.885,206.283L187.233,207.166L188.563,208.037L189.874,208.896L191.168,209.744L192.445,210.58L193.706,211.406L194.951,212.222L196.18,213.027L197.394,213.822L198.593,214.607L199.777,215.383L200.947,216.15L202.104,216.907L203.246,217.656L204.376,218.396L205.493,219.128L206.597,219.851L207.689,220.566L208.768,221.273L209.836,221.973L210.892,222.665L211.938,223.349L212.972,224.027L213.995,224.697L215.007,225.36L216.009,226.017L217.001,226.667L217.983,227.31L218.956,227.947L219.918,228.578L220.872,229.202L221.816,229.821L222.751,230.433L223.677,231.04L224.594,231.641L225.503,232.236L226.404,232.826L227.296,233.411L228.181,233.99L229.057,234.564L229.925,235.133L230.786,235.697L231.64,236.256L232.486,236.81L233.324,237.36L234.156,237.905L234.981,238.445L235.798,238.98L236.609,239.512L237.413,240.038L238.211,240.561L239.002,241.079L239.787,241.593L240.566,242.104L241.338,242.61L242.104,243.112L242.865,243.61L243.619,244.104L244.368,244.594L245.111,245.081L245.849,245.564L246.581,246.044L247.307,246.52L248.028,246.992L248.744,247.461L249.455,247.927L250.16,248.389L250.861,248.848L251.556,249.303L252.247,249.756L252.932,250.205L253.613,250.651L254.289,251.094L254.961,251.534L255.628,251.971L256.29,252.405L256.948,252.836L257.602,253.264L258.251,253.689L258.896,254.112L259.537,254.532L260.174,254.949L260.806,255.363L261.434,255.775L262.059,256.184L262.679,256.59L263.296,256.994L263.908,257.395L264.517,257.794L265.122,258.19L265.723,258.584L266.321,258.976L266.915,259.365L267.506,259.752L268.092,260.136L268.676,260.518L269.256,260.898L269.832,261.276L270.405,261.651L270.975,262.024L271.541,262.396L272.105,262.764L272.665,263.131L273.221,263.496L273.775,263.859L274.325,264.219L274.873,264.578L275.417,264.935L275.959,265.289L276.497,265.642L277.032,265.993L277.565,266.341L278.094,266.688L278.621,267.033L279.145,267.377L279.666,267.718L280.185,268.058L280.7,268.395L281.213,268.731L281.724,269.066L282.231,269.398L282.736,269.729L283.238,270.058L283.738,270.386L284.236,270.711L284.73,271.035L285.223,271.358L285.712,271.679L286.2,271.998L286.685,272.316L287.167,272.632L287.647,272.946L288.125,273.259L288.601,273.571L289.074,273.881L289.545,274.189L290.013,274.496L290.48,274.802" stroke="firebrick" stroke-width="2"/></g><g class="mark-group role-title"><g transform="translate(225,-22)"><path class="background" aria-hidden="true" d="M0,0h0v0h0Z" pointer-events="none"/><g><g class="mark-text role-title-text" role="graphics-symbol" aria-roledescription="title" aria-label="Title text 'Log-log demand curve with OLS fit'" pointer-events="none"><text text-anchor="middle" transform="translate(0,10)" font-family="sans-serif" font-size="13px" font-weight="bold" fill="#000" opacity="1">Log-log demand curve with OLS fit</text></g></g><path class="foreground" aria-hidden="true" d="" pointer-events="none" display="none"/></g></g></g><path class="foreground" aria-hidden="true" d="" display="none"/></g></g></g></svg>