<svg xmlns="http://www.w3.org/2000/svg" shape-rendering="geometricPrecision" text-rendering="geometricPrecision" image-rendering="optimizeQuality" fill-rule="evenodd" clip-rule="evenodd" viewBox="0 0 512 512.03"><path fill-rule="nonzero" d="M249.5.03C111.25 3.53 0 116.93 0 256.03c0 141.31 114.69 256 256 256s256-114.69 256-256S397.31.03 256 .03c-2.22 0-4.31-.06-6.5 0zm-31.78 421.5h76.56v-123h23.15s-.03-87.94 0-101.78c-.03-3.66.32-10.91-4.96-16.22-5.32-5.28-12.47-4.97-16.22-4.97-3.78.03-76.72.03-80.5 0-3.75 0-10.91-.31-16.22 4.97-5.28 5.31-4.94 12.56-4.97 16.22.03 13.84 0 101.78 0 101.78h23.16v123zm75.28-294c0 20.41-16.57 37-37 37-20.44 0-37-16.59-37-37 0-20.44 16.56-37 37-37 20.43 0 37 16.56 37 37zm-43.75-83.5c2.28-.06 4.47 0 6.75 0 117.03 0 212 94.97 212 212s-94.97 212-212 212-212-94.97-212-212c0-114.75 91.38-208.38 205.25-212z"/></svg>