<svg xmlns="http://www.w3.org/2000/svg" shape-rendering="geometricPrecision" text-rendering="geometricPrecision" image-rendering="optimizeQuality" fill-rule="evenodd" clip-rule="evenodd" viewBox="0 0 414 512.01"><path d="M35.95 0h213.36v146.7c0 5.51 4.47 9.98 9.98 9.98H414v319.39c0 9.83-4.04 18.81-10.55 25.34l-.08.08c-6.53 6.49-15.49 10.52-25.31 10.52H35.95c-9.9 0-18.89-4.04-25.4-10.55C4.04 494.95 0 485.96 0 476.07V35.94c0-9.89 4.04-18.88 10.55-25.39C17.06 4.04 26.05 0 35.95 0zm233.33 2.23a13.2 13.2 0 012.49 2.17l136.55 132.31H269.28V2.23zM91.31 419.73c-5.52 0-9.99-4.47-9.99-9.98 0-5.51 4.47-9.99 9.99-9.99h231.38c5.52 0 9.99 4.48 9.99 9.99s-4.47 9.98-9.99 9.98H91.31zm0-76.35c-5.52 0-9.99-4.47-9.99-9.98 0-5.52 4.47-9.99 9.99-9.99h227.78c5.52 0 9.99 4.47 9.99 9.99 0 5.51-4.47 9.98-9.99 9.98H91.31zm0-76.35c-5.52 0-9.99-4.47-9.99-9.99 0-5.51 4.47-9.98 9.99-9.98h184.31c5.51 0 9.99 4.47 9.99 9.98 0 5.52-4.48 9.99-9.99 9.99H91.31zm0-76.36c-5.52 0-9.99-4.47-9.99-9.98 0-5.52 4.47-9.99 9.99-9.99h102.9c5.52 0 9.99 4.47 9.99 9.99 0 5.51-4.47 9.98-9.99 9.98H91.31zm0-76.35c-5.52 0-9.99-4.47-9.99-9.99 0-5.51 4.47-9.98 9.99-9.98h55.41c5.52 0 9.99 4.47 9.99 9.98 0 5.52-4.47 9.99-9.99 9.99H91.31z"/></svg>