<svg xmlns="http://www.w3.org/2000/svg" width="64" height="64" shape-rendering="geometricPrecision" text-rendering="geometricPrecision" image-rendering="optimizeQuality" fill-rule="evenodd" clip-rule="evenodd" viewBox="0 0 640 640"><path d="M633.468 192.038s-6.248-44.115-25.477-63.485c-24.366-25.477-51.65-25.642-64.123-27.118-89.493-6.52-223.904-6.52-223.904-6.52h-.236s-134.352 0-223.893 6.52c-12.52 1.523-39.768 1.63-64.123 27.118-19.24 19.37-25.358 63.485-25.358 63.485S-.012 243.806-.012 295.681v48.509c0 51.768 6.366 103.643 6.366 103.643s6.248 44.114 25.358 63.52c24.355 25.477 56.363 24.65 70.655 27.367 51.237 4.89 217.644 6.366 217.644 6.366s134.529-.237 224.022-6.638c12.52-1.477 39.756-1.63 64.123-27.119 19.24-19.37 25.476-63.532 25.476-63.532S640 396.03 640 344.154v-48.508c-.13-51.769-6.497-103.643-6.497-103.643l-.035.035zm-379.8 211.007V223.173L426.56 313.41l-172.892 89.635z"/></svg>