<svg xmlns="http://www.w3.org/2000/svg" xmlns:xlink="http://www.w3.org/1999/xlink" version="1.1" class="marks" width="534" height="364" viewBox="0 0 534 364"><rect width="534" height="364" fill="white"/><g fill="none" stroke-miterlimit="10" transform="translate(44,27)"><g class="mark-group role-frame root" role="graphics-object" aria-roledescription="group mark container"><g transform="translate(0,0)"><path class="background" aria-hidden="true" d="M0.5,0.5h480v300h-480Z" stroke="#ddd"/><g><g class="mark-group role-axis" aria-hidden="true"><g transform="translate(0.5,300.5)"><path class="background" aria-hidden="true" d="M0,0h0v0h0Z" pointer-events="none"/><g><g class="mark-rule role-axis-grid" pointer-events="none"><line transform="translate(0,-300)" x2="0" y2="300" stroke="#ddd" stroke-width="1" opacity="1"/><line transform="translate(30,-300)" x2="0" y2="300" stroke="#ddd" stroke-width="1" opacity="1"/><line transform="translate(60,-300)" x2="0" y2="300" stroke="#ddd" stroke-width="1" opacity="1"/><line transform="translate(90,-300)" x2="0" y2="300" stroke="#ddd" stroke-width="1" opacity="1"/><line transform="translate(120,-300)" x2="0" y2="300" stroke="#ddd" stroke-width="1" opacity="1"/><line transform="translate(150,-300)" x2="0" y2="300" stroke="#ddd" stroke-width="1" opacity="1"/><line transform="translate(180,-300)" x2="0" y2="300" stroke="#ddd" stroke-width="1" opacity="1"/><line transform="translate(210,-300)" x2="0" y2="300" stroke="#ddd" stroke-width="1" opacity="1"/><line transform="translate(240,-300)" x2="0" y2="300" stroke="#ddd" stroke-width="1" opacity="1"/><line transform="translate(270,-300)" x2="0" y2="300" stroke="#ddd" stroke-width="1" opacity="1"/><line transform="translate(300,-300)" x2="0" y2="300" stroke="#ddd" stroke-width="1" opacity="1"/><line transform="translate(330,-300)" x2="0" y2="300" stroke="#ddd" stroke-width="1" opacity="1"/><line transform="translate(360,-300)" x2="0" y2="300" stroke="#ddd" stroke-width="1" opacity="1"/><line transform="translate(390,-300)" x2="0" y2="300" stroke="#ddd" stroke-width="1" opacity="1"/><line transform="translate(420,-300)" x2="0" y2="300" stroke="#ddd" stroke-width="1" opacity="1"/><line transform="translate(450,-300)" x2="0" y2="300" stroke="#ddd" stroke-width="1" opacity="1"/><line transform="translate(480,-300)" x2="0" y2="300" stroke="#ddd" stroke-width="1" opacity="1"/></g></g><path class="foreground" aria-hidden="true" d="" pointer-events="none" display="none"/></g></g><g class="mark-group role-axis" aria-hidden="true"><g transform="translate(0.5,0.5)"><path class="background" aria-hidden="true" d="M0,0h0v0h0Z" pointer-events="none"/><g><g class="mark-rule role-axis-grid" pointer-events="none"><line transform="translate(0,300)" x2="480" y2="0" stroke="#ddd" stroke-width="1" opacity="1"/><line transform="translate(0,273)" x2="480" y2="0" stroke="#ddd" stroke-width="1" opacity="1"/><line transform="translate(0,245)" x2="480" y2="0" stroke="#ddd" stroke-width="1" opacity="1"/><line transform="translate(0,218)" x2="480" y2="0" stroke="#ddd" stroke-width="1" opacity="1"/><line transform="translate(0,191)" x2="480" y2="0" stroke="#ddd" stroke-width="1" opacity="1"/><line transform="translate(0,164)" x2="480" y2="0" stroke="#ddd" stroke-width="1" opacity="1"/><line transform="translate(0,136)" x2="480" y2="0" stroke="#ddd" stroke-width="1" opacity="1"/><line transform="translate(0,109)" x2="480" y2="0" stroke="#ddd" stroke-width="1" opacity="1"/><line transform="translate(0,82)" x2="480" y2="0" stroke="#ddd" stroke-width="1" opacity="1"/><line transform="translate(0,55)" x2="480" y2="0" stroke="#ddd" stroke-width="1" opacity="1"/><line transform="translate(0,27)" x2="480" y2="0" stroke="#ddd" stroke-width="1" opacity="1"/><line transform="translate(0,0)" x2="480" y2="0" stroke="#ddd" stroke-width="1" opacity="1"/></g></g><path class="foreground" aria-hidden="true" d="" pointer-events="none" display="none"/></g></g><g class="mark-group role-axis" role="graphics-symbol" aria-roledescription="axis" aria-label="X-axis titled 'Trial number' for a linear scale with values from 0 to 80"><g transform="translate(0.5,300.5)"><path class="background" aria-hidden="true" d="M0,0h0v0h0Z" pointer-events="none"/><g><g class="mark-rule role-axis-tick" pointer-events="none"><line transform="translate(0,0)" x2="0" y2="5" stroke="#888" stroke-width="1" opacity="1"/><line transform="translate(30,0)" x2="0" y2="5" stroke="#888" stroke-width="1" opacity="1"/><line transform="translate(60,0)" x2="0" y2="5" stroke="#888" stroke-width="1" opacity="1"/><line transform="translate(90,0)" x2="0" y2="5" stroke="#888" stroke-width="1" opacity="1"/><line transform="translate(120,0)" x2="0" y2="5" stroke="#888" stroke-width="1" opacity="1"/><line transform="translate(150,0)" x2="0" y2="5" stroke="#888" stroke-width="1" opacity="1"/><line transform="translate(180,0)" x2="0" y2="5" stroke="#888" stroke-width="1" opacity="1"/><line transform="translate(210,0)" x2="0" y2="5" stroke="#888" stroke-width="1" opacity="1"/><line transform="translate(240,0)" x2="0" y2="5" stroke="#888" stroke-width="1" opacity="1"/><line transform="translate(270,0)" x2="0" y2="5" stroke="#888" stroke-width="1" opacity="1"/><line transform="translate(300,0)" x2="0" y2="5" stroke="#888" stroke-width="1" opacity="1"/><line transform="translate(330,0)" x2="0" y2="5" stroke="#888" stroke-width="1" opacity="1"/><line transform="translate(360,0)" x2="0" y2="5" stroke="#888" stroke-width="1" opacity="1"/><line transform="translate(390,0)" x2="0" y2="5" stroke="#888" stroke-width="1" opacity="1"/><line transform="translate(420,0)" x2="0" y2="5" stroke="#888" stroke-width="1" opacity="1"/><line transform="translate(450,0)" x2="0" y2="5" stroke="#888" stroke-width="1" opacity="1"/><line transform="translate(480,0)" x2="0" y2="5" stroke="#888" stroke-width="1" opacity="1"/></g><g class="mark-text role-axis-label" pointer-events="none"><text text-anchor="start" transform="translate(0,15)" font-family="sans-serif" font-size="10px" fill="#000" opacity="1">0</text><text text-anchor="middle" transform="translate(30,15)" font-family="sans-serif" font-size="10px" fill="#000" opacity="1">5</text><text text-anchor="middle" transform="translate(60,15)" font-family="sans-serif" font-size="10px" fill="#000" opacity="1">10</text><text text-anchor="middle" transform="translate(90,15)" font-family="sans-serif" font-size="10px" fill="#000" opacity="1">15</text><text text-anchor="middle" transform="translate(120,15)" font-family="sans-serif" font-size="10px" fill="#000" opacity="1">20</text><text text-anchor="middle" transform="translate(150,15)" font-family="sans-serif" font-size="10px" fill="#000" opacity="1">25</text><text text-anchor="middle" transform="translate(180,15)" font-family="sans-serif" font-size="10px" fill="#000" opacity="1">30</text><text text-anchor="middle" transform="translate(210,15)" font-family="sans-serif" font-size="10px" fill="#000" opacity="1">35</text><text text-anchor="middle" transform="translate(240,15)" font-family="sans-serif" font-size="10px" fill="#000" opacity="1">40</text><text text-anchor="middle" transform="translate(270,15)" font-family="sans-serif" font-size="10px" fill="#000" opacity="1">45</text><text text-anchor="middle" transform="translate(300,15)" font-family="sans-serif" font-size="10px" fill="#000" opacity="1">50</text><text text-anchor="middle" transform="translate(330,15)" font-family="sans-serif" font-size="10px" fill="#000" opacity="1">55</text><text text-anchor="middle" transform="translate(360,15)" font-family="sans-serif" font-size="10px" fill="#000" opacity="1">60</text><text text-anchor="middle" transform="translate(390,15)" font-family="sans-serif" font-size="10px" fill="#000" opacity="1">65</text><text text-anchor="middle" transform="translate(420,15)" font-family="sans-serif" font-size="10px" fill="#000" opacity="1">70</text><text text-anchor="middle" transform="translate(450,15)" font-family="sans-serif" font-size="10px" fill="#000" opacity="1">75</text><text text-anchor="end" transform="translate(480,15)" font-family="sans-serif" font-size="10px" fill="#000" opacity="1">80</text></g><g class="mark-rule role-axis-domain" pointer-events="none"><line transform="translate(0,0)" x2="480" y2="0" stroke="#888" stroke-width="1" opacity="1"/></g><g class="mark-text role-axis-title" pointer-events="none"><text text-anchor="middle" transform="translate(240,30)" font-family="sans-serif" font-size="11px" font-weight="bold" fill="#000" opacity="1">Trial number</text></g></g><path class="foreground" aria-hidden="true" d="" pointer-events="none" display="none"/></g></g><g class="mark-group role-axis" role="graphics-symbol" aria-roledescription="axis" aria-label="Y-axis titled 'Reaction time (ms)' for a linear scale with values from 0 to 550"><g transform="translate(0.5,0.5)"><path class="background" aria-hidden="true" d="M0,0h0v0h0Z" pointer-events="none"/><g><g class="mark-rule role-axis-tick" pointer-events="none"><line transform="translate(0,300)" x2="-5" y2="0" stroke="#888" stroke-width="1" opacity="1"/><line transform="translate(0,273)" x2="-5" y2="0" stroke="#888" stroke-width="1" opacity="1"/><line transform="translate(0,245)" x2="-5" y2="0" stroke="#888" stroke-width="1" opacity="1"/><line transform="translate(0,218)" x2="-5" y2="0" stroke="#888" stroke-width="1" opacity="1"/><line transform="translate(0,191)" x2="-5" y2="0" stroke="#888" stroke-width="1" opacity="1"/><line transform="translate(0,164)" x2="-5" y2="0" stroke="#888" stroke-width="1" opacity="1"/><line transform="translate(0,136)" x2="-5" y2="0" stroke="#888" stroke-width="1" opacity="1"/><line transform="translate(0,109)" x2="-5" y2="0" stroke="#888" stroke-width="1" opacity="1"/><line transform="translate(0,82)" x2="-5" y2="0" stroke="#888" stroke-width="1" opacity="1"/><line transform="translate(0,55)" x2="-5" y2="0" stroke="#888" stroke-width="1" opacity="1"/><line transform="translate(0,27)" x2="-5" y2="0" stroke="#888" stroke-width="1" opacity="1"/><line transform="translate(0,0)" x2="-5" y2="0" stroke="#888" stroke-width="1" opacity="1"/></g><g class="mark-text role-axis-label" pointer-events="none"><text text-anchor="end" transform="translate(-7,303)" font-family="sans-serif" font-size="10px" fill="#000" opacity="1">0</text><text text-anchor="end" transform="translate(-7,275.7272727272727)" font-family="sans-serif" font-size="10px" fill="#000" opacity="1">50</text><text text-anchor="end" transform="translate(-7,248.45454545454544)" font-family="sans-serif" font-size="10px" fill="#000" opacity="1">100</text><text text-anchor="end" transform="translate(-7,221.1818181818182)" font-family="sans-serif" font-size="10px" fill="#000" opacity="1">150</text><text text-anchor="end" transform="translate(-7,193.9090909090909)" font-family="sans-serif" font-size="10px" fill="#000" opacity="1">200</text><text text-anchor="end" transform="translate(-7,166.63636363636363)" font-family="sans-serif" font-size="10px" fill="#000" opacity="1">250</text><text text-anchor="end" transform="translate(-7,139.36363636363637)" font-family="sans-serif" font-size="10px" fill="#000" opacity="1">300</text><text text-anchor="end" transform="translate(-7,112.0909090909091)" font-family="sans-serif" font-size="10px" fill="#000" opacity="1">350</text><text text-anchor="end" transform="translate(-7,84.81818181818181)" font-family="sans-serif" font-size="10px" fill="#000" opacity="1">400</text><text text-anchor="end" transform="translate(-7,57.54545454545453)" font-family="sans-serif" font-size="10px" fill="#000" opacity="1">450</text><text text-anchor="end" transform="translate(-7,30.27272727272728)" font-family="sans-serif" font-size="10px" fill="#000" opacity="1">500</text><text text-anchor="end" transform="translate(-7,3)" font-family="sans-serif" font-size="10px" fill="#000" opacity="1">550</text></g><g class="mark-rule role-axis-domain" pointer-events="none"><line transform="translate(0,300)" x2="0" y2="-300" stroke="#888" stroke-width="1" opacity="1"/></g><g class="mark-text role-axis-title" pointer-events="none"><text text-anchor="middle" transform="translate(-27.6845703125,150) rotate(-90) translate(0,-2)" font-family="sans-serif" font-size="11px" font-weight="bold" fill="#000" opacity="1">Reaction time (ms)</text></g></g><path class="foreground" aria-hidden="true" d="" pointer-events="none" display="none"/></g></g><g class="mark-symbol role-mark layer_0_marks" role="graphics-object" aria-roledescription="symbol mark container"><path aria-label="Trial number: 1; Reaction time (ms): 529.241212305" role="graphics-symbol" aria-roledescription="point" transform="translate(6,11.322975106173338)" d="M2.739,0A2.739,2.739,0,1,1,-2.739,0A2.739,2.739,0,1,1,2.739,0" stroke="steelblue" stroke-width="2" opacity="0.6"/><path aria-label="Trial number: 2; Reaction time (ms): 414.678619438" role="graphics-symbol" aria-roledescription="point" transform="translate(12,73.81166212450157)" d="M2.739,0A2.739,2.739,0,1,1,-2.739,0A2.739,2.739,0,1,1,2.739,0" stroke="steelblue" stroke-width="2" opacity="0.6"/><path aria-label="Trial number: 3; Reaction time (ms): 348.536445357" role="graphics-symbol" aria-roledescription="point" transform="translate(18,109.88921162356692)" d="M2.739,0A2.739,2.739,0,1,1,-2.739,0A2.739,2.739,0,1,1,2.739,0" stroke="steelblue" stroke-width="2" opacity="0.6"/><path aria-label="Trial number: 4; Reaction time (ms): 288.523342321" role="graphics-symbol" aria-roledescription="point" transform="translate(24,142.62363146146512)" d="M2.739,0A2.739,2.739,0,1,1,-2.739,0A2.739,2.739,0,1,1,2.739,0" stroke="steelblue" stroke-width="2" opacity="0.6"/><path aria-label="Trial number: 5; Reaction time (ms): 299.610908928" role="graphics-symbol" aria-roledescription="point" transform="translate(30,136.57586785760364)" d="M2.739,0A2.739,2.739,0,1,1,-2.739,0A2.739,2.739,0,1,1,2.739,0" stroke="steelblue" stroke-width="2" opacity="0.6"/><path aria-label="Trial number: 6; Reaction time (ms): 303.837519074" role="graphics-symbol" aria-roledescription="point" transform="translate(36,134.27044414149753)" d="M2.739,0A2.739,2.739,0,1,1,-2.739,0A2.739,2.739,0,1,1,2.739,0" stroke="steelblue" stroke-width="2" opacity="0.6"/><path aria-label="Trial number: 7; Reaction time (ms): 251.516155012" role="graphics-symbol" aria-roledescription="point" transform="translate(42,162.8093699936376)" d="M2.739,0A2.739,2.739,0,1,1,-2.739,0A2.739,2.739,0,1,1,2.739,0" stroke="steelblue" stroke-width="2" opacity="0.6"/><path aria-label="Trial number: 8; Reaction time (ms): 312.31870297" role="graphics-symbol" aria-roledescription="point" transform="translate(48,129.64434383479818)" d="M2.739,0A2.739,2.739,0,1,1,-2.739,0A2.739,2.739,0,1,1,2.739,0" stroke="steelblue" stroke-width="2" opacity="0.6"/><path aria-label="Trial number: 9; Reaction time (ms): 269.327140569" role="graphics-symbol" aria-roledescription="point" transform="translate(54,153.0942869625718)" d="M2.739,0A2.739,2.739,0,1,1,-2.739,0A2.739,2.739,0,1,1,2.739,0" stroke="steelblue" stroke-width="2" opacity="0.6"/><path aria-label="Trial number: 10; Reaction time (ms): 235.931908201" role="graphics-symbol" aria-roledescription="point" transform="translate(60,171.30986825416215)" d="M2.739,0A2.739,2.739,0,1,1,-2.739,0A2.739,2.739,0,1,1,2.739,0" stroke="steelblue" stroke-width="2" opacity="0.6"/><path aria-label="Trial number: 11; Reaction time (ms): 232.557504985" role="graphics-symbol" aria-roledescription="point" transform="translate(66,173.15045182619838)" d="M2.739,0A2.739,2.739,0,1,1,-2.739,0A2.739,2.739,0,1,1,2.739,0" stroke="steelblue" stroke-width="2" opacity="0.6"/><path aria-label="Trial number: 12; Reaction time (ms): 253.014704998" role="graphics-symbol" aria-roledescription="point" transform="translate(72,161.9919790921723)" d="M2.739,0A2.739,2.739,0,1,1,-2.739,0A2.739,2.739,0,1,1,2.739,0" stroke="steelblue" stroke-width="2" opacity="0.6"/><path aria-label="Trial number: 13; Reaction time (ms): 232.078967461" role="graphics-symbol" aria-roledescription="point" transform="translate(78,173.41147229393718)" d="M2.739,0A2.739,2.739,0,1,1,-2.739,0A2.739,2.739,0,1,1,2.739,0" stroke="steelblue" stroke-width="2" opacity="0.6"/><path aria-label="Trial number: 14; Reaction time (ms): 259.650094084" role="graphics-symbol" aria-roledescription="point" transform="translate(84,158.37267595438573)" d="M2.739,0A2.739,2.739,0,1,1,-2.739,0A2.739,2.739,0,1,1,2.739,0" stroke="steelblue" stroke-width="2" opacity="0.6"/><path aria-label="Trial number: 15; Reaction time (ms): 205.644407921" role="graphics-symbol" aria-roledescription="point" transform="translate(90,187.8303229521112)" d="M2.739,0A2.739,2.739,0,1,1,-2.739,0A2.739,2.739,0,1,1,2.739,0" stroke="steelblue" stroke-width="2" opacity="0.6"/><path aria-label="Trial number: 16; Reaction time (ms): 257.443290397" role="graphics-symbol" aria-roledescription="point" transform="translate(96,159.5763870560649)" d="M2.739,0A2.739,2.739,0,1,1,-2.739,0A2.739,2.739,0,1,1,2.739,0" stroke="steelblue" stroke-width="2" opacity="0.6"/><path aria-label="Trial number: 17; Reaction time (ms): 192.371515182" role="graphics-symbol" aria-roledescription="point" transform="translate(102,195.07008262807787)" d="M2.739,0A2.739,2.739,0,1,1,-2.739,0A2.739,2.739,0,1,1,2.739,0" stroke="steelblue" stroke-width="2" opacity="0.6"/><path aria-label="Trial number: 18; Reaction time (ms): 235.565804436" role="graphics-symbol" aria-roledescription="point" transform="translate(108,171.50956121696598)" d="M2.739,0A2.739,2.739,0,1,1,-2.739,0A2.739,2.739,0,1,1,2.739,0" stroke="steelblue" stroke-width="2" opacity="0.6"/><path aria-label="Trial number: 19; Reaction time (ms): 218.651933675" role="graphics-symbol" aria-roledescription="point" transform="translate(114,180.73530890444027)" d="M2.739,0A2.739,2.739,0,1,1,-2.739,0A2.739,2.739,0,1,1,2.739,0" stroke="steelblue" stroke-width="2" opacity="0.6"/><path aria-label="Trial number: 20; Reaction time (ms): 214.696114435" role="graphics-symbol" aria-roledescription="point" transform="translate(120,182.89302848992205)" d="M2.739,0A2.739,2.739,0,1,1,-2.739,0A2.739,2.739,0,1,1,2.739,0" stroke="steelblue" stroke-width="2" opacity="0.6"/><path aria-label="Trial number: 21; Reaction time (ms): 194.471986753" role="graphics-symbol" aria-roledescription="point" transform="translate(126,193.92437086182923)" d="M2.739,0A2.739,2.739,0,1,1,-2.739,0A2.739,2.739,0,1,1,2.739,0" stroke="steelblue" stroke-width="2" opacity="0.6"/><path aria-label="Trial number: 22; Reaction time (ms): 202.000747252" role="graphics-symbol" aria-roledescription="point" transform="translate(132,189.8177742260354)" d="M2.739,0A2.739,2.739,0,1,1,-2.739,0A2.739,2.739,0,1,1,2.739,0" stroke="steelblue" stroke-width="2" opacity="0.6"/><path aria-label="Trial number: 23; Reaction time (ms): 188.725289603" role="graphics-symbol" aria-roledescription="point" transform="translate(138,197.0589329437101)" d="M2.739,0A2.739,2.739,0,1,1,-2.739,0A2.739,2.739,0,1,1,2.739,0" stroke="steelblue" stroke-width="2" opacity="0.6"/><path aria-label="Trial number: 24; Reaction time (ms): 219.573777093" role="graphics-symbol" aria-roledescription="point" transform="translate(144,180.2324852218707)" d="M2.739,0A2.739,2.739,0,1,1,-2.739,0A2.739,2.739,0,1,1,2.739,0" stroke="steelblue" stroke-width="2" opacity="0.6"/><path aria-label="Trial number: 25; Reaction time (ms): 174.770208339" role="graphics-symbol" aria-roledescription="point" transform="translate(150,204.67079545120419)" d="M2.739,0A2.739,2.739,0,1,1,-2.739,0A2.739,2.739,0,1,1,2.739,0" stroke="steelblue" stroke-width="2" opacity="0.6"/><path aria-label="Trial number: 26; Reaction time (ms): 182.930930503" role="graphics-symbol" aria-roledescription="point" transform="translate(156,200.21949245265503)" d="M2.739,0A2.739,2.739,0,1,1,-2.739,0A2.739,2.739,0,1,1,2.739,0" stroke="steelblue" stroke-width="2" opacity="0.6"/><path aria-label="Trial number: 27; Reaction time (ms): 272.621247866" role="graphics-symbol" aria-roledescription="point" transform="translate(162,151.2975011637635)" d="M2.739,0A2.739,2.739,0,1,1,-2.739,0A2.739,2.739,0,1,1,2.739,0" stroke="steelblue" stroke-width="2" opacity="0.6"/><path aria-label="Trial number: 28; Reaction time (ms): 191.174205031" role="graphics-symbol" aria-roledescription="point" transform="translate(168,195.72316089232237)" d="M2.739,0A2.739,2.739,0,1,1,-2.739,0A2.739,2.739,0,1,1,2.739,0" stroke="steelblue" stroke-width="2" opacity="0.6"/><path aria-label="Trial number: 29; Reaction time (ms): 181.907411719" role="graphics-symbol" aria-roledescription="point" transform="translate(174,200.77777542591946)" d="M2.739,0A2.739,2.739,0,1,1,-2.739,0A2.739,2.739,0,1,1,2.739,0" stroke="steelblue" stroke-width="2" opacity="0.6"/><path aria-label="Trial number: 30; Reaction time (ms): 184.923445181" role="graphics-symbol" aria-roledescription="point" transform="translate(180,199.1326662650962)" d="M2.739,0A2.739,2.739,0,1,1,-2.739,0A2.739,2.739,0,1,1,2.739,0" stroke="steelblue" stroke-width="2" opacity="0.6"/><path aria-label="Trial number: 31; Reaction time (ms): 186.15518701" role="graphics-symbol" aria-roledescription="point" transform="translate(186,198.46080708533856)" d="M2.739,0A2.739,2.739,0,1,1,-2.739,0A2.739,2.739,0,1,1,2.739,0" stroke="steelblue" stroke-width="2" opacity="0.6"/><path aria-label="Trial number: 32; Reaction time (ms): 149.373363037" role="graphics-symbol" aria-roledescription="point" transform="translate(192,218.5236201617876)" d="M2.739,0A2.739,2.739,0,1,1,-2.739,0A2.739,2.739,0,1,1,2.739,0" stroke="steelblue" stroke-width="2" opacity="0.6"/><path aria-label="Trial number: 33; Reaction time (ms): 188.501591123" role="graphics-symbol" aria-roledescription="point" transform="translate(198,197.1809502962871)" d="M2.739,0A2.739,2.739,0,1,1,-2.739,0A2.739,2.739,0,1,1,2.739,0" stroke="steelblue" stroke-width="2" opacity="0.6"/><path aria-label="Trial number: 34; Reaction time (ms): 173.525910452" role="graphics-symbol" aria-roledescription="point" transform="translate(204,205.34950338959393)" d="M2.739,0A2.739,2.739,0,1,1,-2.739,0A2.739,2.739,0,1,1,2.739,0" stroke="steelblue" stroke-width="2" opacity="0.6"/><path aria-label="Trial number: 35; Reaction time (ms): 186.009654276" role="graphics-symbol" aria-roledescription="point" transform="translate(210,198.54018857663223)" d="M2.739,0A2.739,2.739,0,1,1,-2.739,0A2.739,2.739,0,1,1,2.739,0" stroke="steelblue" stroke-width="2" opacity="0.6"/><path aria-label="Trial number: 36; Reaction time (ms): 156.210212068" role="graphics-symbol" aria-roledescription="point" transform="translate(216,214.79442978087692)" d="M2.739,0A2.739,2.739,0,1,1,-2.739,0A2.739,2.739,0,1,1,2.739,0" stroke="steelblue" stroke-width="2" opacity="0.6"/><path aria-label="Trial number: 37; Reaction time (ms): 190.533766365" role="graphics-symbol" aria-roledescription="point" transform="translate(222,196.07249107385024)" d="M2.739,0A2.739,2.739,0,1,1,-2.739,0A2.739,2.739,0,1,1,2.739,0" stroke="steelblue" stroke-width="2" opacity="0.6"/><path aria-label="Trial number: 38; Reaction time (ms): 169.780554128" role="graphics-symbol" aria-roledescription="point" transform="translate(228,207.39242502128974)" d="M2.739,0A2.739,2.739,0,1,1,-2.739,0A2.739,2.739,0,1,1,2.739,0" stroke="steelblue" stroke-width="2" opacity="0.6"/><path aria-label="Trial number: 39; Reaction time (ms): 135.656843175" role="graphics-symbol" aria-roledescription="point" transform="translate(234,226.00535826807305)" d="M2.739,0A2.739,2.739,0,1,1,-2.739,0A2.739,2.739,0,1,1,2.739,0" stroke="steelblue" stroke-width="2" opacity="0.6"/><path aria-label="Trial number: 40; Reaction time (ms): 205.182252673" role="graphics-symbol" aria-roledescription="point" transform="translate(240,188.08240763271067)" d="M2.739,0A2.739,2.739,0,1,1,-2.739,0A2.739,2.739,0,1,1,2.739,0" stroke="steelblue" stroke-width="2" opacity="0.6"/><path aria-label="Trial number: 41; Reaction time (ms): 152.300414042" role="graphics-symbol" aria-roledescription="point" transform="translate(245.99999999999997,216.92704688642215)" d="M2.739,0A2.739,2.739,0,1,1,-2.739,0A2.739,2.739,0,1,1,2.739,0" stroke="steelblue" stroke-width="2" opacity="0.6"/><path aria-label="Trial number: 42; Reaction time (ms): 143.492834364" role="graphics-symbol" aria-roledescription="point" transform="translate(252,221.73118125606086)" d="M2.739,0A2.739,2.739,0,1,1,-2.739,0A2.739,2.739,0,1,1,2.739,0" stroke="steelblue" stroke-width="2" opacity="0.6"/><path aria-label="Trial number: 43; Reaction time (ms): 114.567586416" role="graphics-symbol" aria-roledescription="point" transform="translate(258,237.50858922783604)" d="M2.739,0A2.739,2.739,0,1,1,-2.739,0A2.739,2.739,0,1,1,2.739,0" stroke="steelblue" stroke-width="2" opacity="0.6"/><path aria-label="Trial number: 44; Reaction time (ms): 163.809061002" role="graphics-symbol" aria-roledescription="point" transform="translate(264,210.64960308980588)" d="M2.739,0A2.739,2.739,0,1,1,-2.739,0A2.739,2.739,0,1,1,2.739,0" stroke="steelblue" stroke-width="2" opacity="0.6"/><path aria-label="Trial number: 45; Reaction time (ms): 224.770833977" role="graphics-symbol" aria-roledescription="point" transform="translate(270,177.397726921527)" d="M2.739,0A2.739,2.739,0,1,1,-2.739,0A2.739,2.739,0,1,1,2.739,0" stroke="steelblue" stroke-width="2" opacity="0.6"/><path aria-label="Trial number: 46; Reaction time (ms): 127.142299181" role="graphics-symbol" aria-roledescription="point" transform="translate(276,230.6496549923958)" d="M2.739,0A2.739,2.739,0,1,1,-2.739,0A2.739,2.739,0,1,1,2.739,0" stroke="steelblue" stroke-width="2" opacity="0.6"/><path aria-label="Trial number: 47; Reaction time (ms): 177.455904437" role="graphics-symbol" aria-roledescription="point" transform="translate(282,203.20587030705687)" d="M2.739,0A2.739,2.739,0,1,1,-2.739,0A2.739,2.739,0,1,1,2.739,0" stroke="steelblue" stroke-width="2" opacity="0.6"/><path aria-label="Trial number: 48; Reaction time (ms): 194.523526211" role="graphics-symbol" aria-roledescription="point" transform="translate(288,193.89625843010327)" d="M2.739,0A2.739,2.739,0,1,1,-2.739,0A2.739,2.739,0,1,1,2.739,0" stroke="steelblue" stroke-width="2" opacity="0.6"/><path aria-label="Trial number: 49; Reaction time (ms): 156.36022487" role="graphics-symbol" aria-roledescription="point" transform="translate(294,214.71260461630212)" d="M2.739,0A2.739,2.739,0,1,1,-2.739,0A2.739,2.739,0,1,1,2.739,0" stroke="steelblue" stroke-width="2" opacity="0.6"/><path aria-label="Trial number: 50; Reaction time (ms): 149.320443103" role="graphics-symbol" aria-roledescription="point" transform="translate(300,218.5524855801544)" d="M2.739,0A2.739,2.739,0,1,1,-2.739,0A2.739,2.739,0,1,1,2.739,0" stroke="steelblue" stroke-width="2" opacity="0.6"/><path aria-label="Trial number: 51; Reaction time (ms): 126.579390218" role="graphics-symbol" aria-roledescription="point" transform="translate(306,230.95669624472976)" d="M2.739,0A2.739,2.739,0,1,1,-2.739,0A2.739,2.739,0,1,1,2.739,0" stroke="steelblue" stroke-width="2" opacity="0.6"/><path aria-label="Trial number: 52; Reaction time (ms): 137.690840359" role="graphics-symbol" aria-roledescription="point" transform="translate(312,224.89590525867126)" d="M2.739,0A2.739,2.739,0,1,1,-2.739,0A2.739,2.739,0,1,1,2.739,0" stroke="steelblue" stroke-width="2" opacity="0.6"/><path aria-label="Trial number: 53; Reaction time (ms): 142.485854658" role="graphics-symbol" aria-roledescription="point" transform="translate(318,222.28044291355252)" d="M2.739,0A2.739,2.739,0,1,1,-2.739,0A2.739,2.739,0,1,1,2.739,0" stroke="steelblue" stroke-width="2" opacity="0.6"/><path aria-label="Trial number: 54; Reaction time (ms): 167.333793539" role="graphics-symbol" aria-roledescription="point" transform="translate(324,208.7270217057786)" d="M2.739,0A2.739,2.739,0,1,1,-2.739,0A2.739,2.739,0,1,1,2.739,0" stroke="steelblue" stroke-width="2" opacity="0.6"/><path aria-label="Trial number: 55; Reaction time (ms): 162.735914473" role="graphics-symbol" aria-roledescription="point" transform="translate(330,211.23495574191895)" d="M2.739,0A2.739,2.739,0,1,1,-2.739,0A2.739,2.739,0,1,1,2.739,0" stroke="steelblue" stroke-width="2" opacity="0.6"/><path aria-label="Trial number: 56; Reaction time (ms): 140.844402844" role="graphics-symbol" aria-roledescription="point" transform="translate(336,223.17578026665572)" d="M2.739,0A2.739,2.739,0,1,1,-2.739,0A2.739,2.739,0,1,1,2.739,0" stroke="steelblue" stroke-width="2" opacity="0.6"/><path aria-label="Trial number: 57; Reaction time (ms): 137.645403144" role="graphics-symbol" aria-roledescription="point" transform="translate(342,224.92068919419842)" d="M2.739,0A2.739,2.739,0,1,1,-2.739,0A2.739,2.739,0,1,1,2.739,0" stroke="steelblue" stroke-width="2" opacity="0.6"/><path aria-label="Trial number: 58; Reaction time (ms): 188.071721089" role="graphics-symbol" aria-roledescription="point" transform="translate(348,197.41542486061675)" d="M2.739,0A2.739,2.739,0,1,1,-2.739,0A2.739,2.739,0,1,1,2.739,0" stroke="steelblue" stroke-width="2" opacity="0.6"/><path aria-label="Trial number: 59; Reaction time (ms): 148.849844279" role="graphics-symbol" aria-roledescription="point" transform="translate(354,218.80917584785377)" d="M2.739,0A2.739,2.739,0,1,1,-2.739,0A2.739,2.739,0,1,1,2.739,0" stroke="steelblue" stroke-width="2" opacity="0.6"/><path aria-label="Trial number: 60; Reaction time (ms): 145.612955812" role="graphics-symbol" aria-roledescription="point" transform="translate(360,220.5747513752012)" d="M2.739,0A2.739,2.739,0,1,1,-2.739,0A2.739,2.739,0,1,1,2.739,0" stroke="steelblue" stroke-width="2" opacity="0.6"/><path aria-label="Trial number: 61; Reaction time (ms): 142.870612227" role="graphics-symbol" aria-roledescription="point" transform="translate(366,222.07057514898895)" d="M2.739,0A2.739,2.739,0,1,1,-2.739,0A2.739,2.739,0,1,1,2.739,0" stroke="steelblue" stroke-width="2" opacity="0.6"/><path aria-label="Trial number: 62; Reaction time (ms): 160.21464777" role="graphics-symbol" aria-roledescription="point" transform="translate(372,212.61019212528512)" d="M2.739,0A2.739,2.739,0,1,1,-2.739,0A2.739,2.739,0,1,1,2.739,0" stroke="steelblue" stroke-width="2" opacity="0.6"/><path aria-label="Trial number: 63; Reaction time (ms): 139.220166991" role="graphics-symbol" aria-roledescription="point" transform="translate(378,224.06172709567045)" d="M2.739,0A2.739,2.739,0,1,1,-2.739,0A2.739,2.739,0,1,1,2.739,0" stroke="steelblue" stroke-width="2" opacity="0.6"/><path aria-label="Trial number: 64; Reaction time (ms): 175.551468878" role="graphics-symbol" aria-roledescription="point" transform="translate(384,204.2446533392595)" d="M2.739,0A2.739,2.739,0,1,1,-2.739,0A2.739,2.739,0,1,1,2.739,0" stroke="steelblue" stroke-width="2" opacity="0.6"/><path aria-label="Trial number: 65; Reaction time (ms): 151.29305545" role="graphics-symbol" aria-roledescription="point" transform="translate(390,217.4765152090918)" d="M2.739,0A2.739,2.739,0,1,1,-2.739,0A2.739,2.739,0,1,1,2.739,0" stroke="steelblue" stroke-width="2" opacity="0.6"/><path aria-label="Trial number: 66; Reaction time (ms): 150.453559869" role="graphics-symbol" aria-roledescription="point" transform="translate(396,217.93442188989675)" d="M2.739,0A2.739,2.739,0,1,1,-2.739,0A2.739,2.739,0,1,1,2.739,0" stroke="steelblue" stroke-width="2" opacity="0.6"/><path aria-label="Trial number: 67; Reaction time (ms): 127.397914017" role="graphics-symbol" aria-roledescription="point" transform="translate(402,230.51022871792173)" d="M2.739,0A2.739,2.739,0,1,1,-2.739,0A2.739,2.739,0,1,1,2.739,0" stroke="steelblue" stroke-width="2" opacity="0.6"/><path aria-label="Trial number: 68; Reaction time (ms): 160.420492961" role="graphics-symbol" aria-roledescription="point" transform="translate(408,212.49791293017438)" d="M2.739,0A2.739,2.739,0,1,1,-2.739,0A2.739,2.739,0,1,1,2.739,0" stroke="steelblue" stroke-width="2" opacity="0.6"/><path aria-label="Trial number: 69; Reaction time (ms): 138.182817485" role="graphics-symbol" aria-roledescription="point" transform="translate(414,224.62755409919748)" d="M2.739,0A2.739,2.739,0,1,1,-2.739,0A2.739,2.739,0,1,1,2.739,0" stroke="steelblue" stroke-width="2" opacity="0.6"/><path aria-label="Trial number: 70; Reaction time (ms): 139.664363234" role="graphics-symbol" aria-roledescription="point" transform="translate(420,223.81943823622117)" d="M2.739,0A2.739,2.739,0,1,1,-2.739,0A2.739,2.739,0,1,1,2.739,0" stroke="steelblue" stroke-width="2" opacity="0.6"/><path aria-label="Trial number: 71; Reaction time (ms): 165.03298279" role="graphics-symbol" aria-roledescription="point" transform="translate(426,209.98200938701277)" d="M2.739,0A2.739,2.739,0,1,1,-2.739,0A2.739,2.739,0,1,1,2.739,0" stroke="steelblue" stroke-width="2" opacity="0.6"/><path aria-label="Trial number: 72; Reaction time (ms): 118.906985224" role="graphics-symbol" aria-roledescription="point" transform="translate(432,235.14164442313748)" d="M2.739,0A2.739,2.739,0,1,1,-2.739,0A2.739,2.739,0,1,1,2.739,0" stroke="steelblue" stroke-width="2" opacity="0.6"/><path aria-label="Trial number: 73; Reaction time (ms): 143.348995199" role="graphics-symbol" aria-roledescription="point" transform="translate(438,221.80963898215126)" d="M2.739,0A2.739,2.739,0,1,1,-2.739,0A2.739,2.739,0,1,1,2.739,0" stroke="steelblue" stroke-width="2" opacity="0.6"/><path aria-label="Trial number: 74; Reaction time (ms): 130.25697243" role="graphics-symbol" aria-roledescription="point" transform="translate(444,228.95074231109018)" d="M2.739,0A2.739,2.739,0,1,1,-2.739,0A2.739,2.739,0,1,1,2.739,0" stroke="steelblue" stroke-width="2" opacity="0.6"/><path aria-label="Trial number: 75; Reaction time (ms): 101.677698858" role="graphics-symbol" aria-roledescription="point" transform="translate(450,244.53943698642863)" d="M2.739,0A2.739,2.739,0,1,1,-2.739,0A2.739,2.739,0,1,1,2.739,0" stroke="steelblue" stroke-width="2" opacity="0.6"/><path aria-label="Trial number: 76; Reaction time (ms): 172.774382543" role="graphics-symbol" aria-roledescription="point" transform="translate(456,205.7594277039631)" d="M2.739,0A2.739,2.739,0,1,1,-2.739,0A2.739,2.739,0,1,1,2.739,0" stroke="steelblue" stroke-width="2" opacity="0.6"/><path aria-label="Trial number: 77; Reaction time (ms): 148.452016709" role="graphics-symbol" aria-roledescription="point" transform="translate(462,219.0261727039126)" d="M2.739,0A2.739,2.739,0,1,1,-2.739,0A2.739,2.739,0,1,1,2.739,0" stroke="steelblue" stroke-width="2" opacity="0.6"/><path aria-label="Trial number: 78; Reaction time (ms): 160.852707734" role="graphics-symbol" aria-roledescription="point" transform="translate(468,212.2621594177377)" d="M2.739,0A2.739,2.739,0,1,1,-2.739,0A2.739,2.739,0,1,1,2.739,0" stroke="steelblue" stroke-width="2" opacity="0.6"/><path aria-label="Trial number: 79; Reaction time (ms): 112.59314747" role="graphics-symbol" aria-roledescription="point" transform="translate(474,238.5855559252172)" d="M2.739,0A2.739,2.739,0,1,1,-2.739,0A2.739,2.739,0,1,1,2.739,0" stroke="steelblue" stroke-width="2" opacity="0.6"/><path aria-label="Trial number: 80; Reaction time (ms): 124.30403964" role="graphics-symbol" aria-roledescription="point" transform="translate(480,232.19779656004465)" d="M2.739,0A2.739,2.739,0,1,1,-2.739,0A2.739,2.739,0,1,1,2.739,0" stroke="steelblue" stroke-width="2" opacity="0.6"/></g><g class="mark-line role-mark layer_1_marks" role="graphics-object" aria-roledescription="line mark container"><path aria-label="trial: 1; rt: 506.02400241" role="graphics-symbol" aria-roledescription="line mark" d="M6,23.987L12,75.457L18,100.992L24,117.329L30,129.071L36,138.103L42,145.365L48,151.393L54,156.514L60,160.945L66,164.836L72,168.293L78,171.394L84,174.201L90,176.759L96,179.104L102,181.267L108,183.271L114,185.135L120,186.876L126,188.507L132,190.041L138,191.487L144,192.853L150,194.147L156,195.376L162,196.545L168,197.66L174,198.723L180,199.74L186,200.714L192,201.649L198,202.546L204,203.408L210,204.238L216,205.038L222,205.809L228,206.554L234,207.274L240,207.971L246,208.645L252,209.298L258,209.931L264,210.546L270,211.142L276,211.722L282,212.285L288,212.833L294,213.367L300,213.886L306,214.393L312,214.886L318,215.367L324,215.837L330,216.296L336,216.744L342,217.181L348,217.609L354,218.027L360,218.436L366,218.837L372,219.229L378,219.613L384,219.989L390,220.357L396,220.719L402,221.073L408,221.42L414,221.761L420,222.095L426,222.424L432,222.746L438,223.063L444,223.374L450,223.679L456,223.98L462,224.275L468,224.565L474,224.851L480,225.132" stroke="firebrick" stroke-width="2"/></g><g class="mark-group role-title"><g transform="translate(240,-22)"><path class="background" aria-hidden="true" d="M0,0h0v0h0Z" pointer-events="none"/><g><g class="mark-text role-title-text" role="graphics-symbol" aria-roledescription="title" aria-label="Title text 'Power-law fit: b = 0.298  (95% CI [0.278, 0.317])'" pointer-events="none"><text text-anchor="middle" transform="translate(0,10)" font-family="sans-serif" font-size="13px" font-weight="bold" fill="#000" opacity="1">Power-law fit: b = 0.298  (95% CI [0.278, 0.317])</text></g></g><path class="foreground" aria-hidden="true" d="" pointer-events="none" display="none"/></g></g></g><path class="foreground" aria-hidden="true" d="" display="none"/></g></g></g></svg>