<svg xmlns="http://www.w3.org/2000/svg" xmlns:xlink="http://www.w3.org/1999/xlink" version="1.1" class="marks" width="435" height="461" viewBox="0 0 435 461"><rect width="435" height="461" fill="white"/><g fill="none" stroke-miterlimit="10" transform="translate(44,22)"><g class="mark-group role-frame root" role="graphics-object" aria-roledescription="group mark container"><g transform="translate(0,0)"><path class="background" aria-hidden="true" d="M0.5,0.5h320v400h-320Z" stroke="#ddd"/><g><g class="mark-group role-axis" role="graphics-symbol" aria-roledescription="axis" aria-label="X-axis titled 'Hours Studied' for a discrete scale with 10 values: 1, 2, 3, 4, 5, ending with 10"><g transform="translate(0.5,400.5)"><path class="background" aria-hidden="true" d="M0,0h0v0h0Z" pointer-events="none"/><g><g class="mark-rule role-axis-tick" pointer-events="none"><line transform="translate(16,0)" x2="0" y2="5" stroke="#888" stroke-width="1" opacity="1"/><line transform="translate(48,0)" x2="0" y2="5" stroke="#888" stroke-width="1" opacity="1"/><line transform="translate(80,0)" x2="0" y2="5" stroke="#888" stroke-width="1" opacity="1"/><line transform="translate(112,0)" x2="0" y2="5" stroke="#888" stroke-width="1" opacity="1"/><line transform="translate(144,0)" x2="0" y2="5" stroke="#888" stroke-width="1" opacity="1"/><line transform="translate(176,0)" x2="0" y2="5" stroke="#888" stroke-width="1" opacity="1"/><line transform="translate(208,0)" x2="0" y2="5" stroke="#888" stroke-width="1" opacity="1"/><line transform="translate(240,0)" x2="0" y2="5" stroke="#888" stroke-width="1" opacity="1"/><line transform="translate(272,0)" x2="0" y2="5" stroke="#888" stroke-width="1" opacity="1"/><line transform="translate(304,0)" x2="0" y2="5" stroke="#888" stroke-width="1" opacity="1"/></g><g class="mark-text role-axis-label" pointer-events="none"><text text-anchor="end" transform="translate(16,7) rotate(270) translate(0,3)" font-family="sans-serif" font-size="10px" fill="#000" opacity="1">1</text><text text-anchor="end" transform="translate(48,7) rotate(270) translate(0,3)" font-family="sans-serif" font-size="10px" fill="#000" opacity="1">2</text><text text-anchor="end" transform="translate(80,7) rotate(270) translate(0,3)" font-family="sans-serif" font-size="10px" fill="#000" opacity="1">3</text><text text-anchor="end" transform="translate(112,7) rotate(270) translate(0,3)" font-family="sans-serif" font-size="10px" fill="#000" opacity="1">4</text><text text-anchor="end" transform="translate(144,7) rotate(270) translate(0,3)" font-family="sans-serif" font-size="10px" fill="#000" opacity="1">5</text><text text-anchor="end" transform="translate(176,7) rotate(270) translate(0,3)" font-family="sans-serif" font-size="10px" fill="#000" opacity="1">6</text><text text-anchor="end" transform="translate(208,7) rotate(270) translate(0,3)" font-family="sans-serif" font-size="10px" fill="#000" opacity="1">7</text><text text-anchor="end" transform="translate(240,7) rotate(270) translate(0,3)" font-family="sans-serif" font-size="10px" fill="#000" opacity="1">8</text><text text-anchor="end" transform="translate(272,7) rotate(270) translate(0,3)" font-family="sans-serif" font-size="10px" fill="#000" opacity="1">9</text><text text-anchor="end" transform="translate(304,7) rotate(270) translate(0,3)" font-family="sans-serif" font-size="10px" fill="#000" opacity="1">10</text></g><g class="mark-rule role-axis-domain" pointer-events="none"><line transform="translate(0,0)" x2="320" y2="0" stroke="#888" stroke-width="1" opacity="1"/></g><g class="mark-text role-axis-title" pointer-events="none"><text text-anchor="middle" transform="translate(160,31.123046875)" font-family="sans-serif" font-size="11px" font-weight="bold" fill="#000" opacity="1">Hours Studied</text></g></g><path class="foreground" aria-hidden="true" d="" pointer-events="none" display="none"/></g></g><g class="mark-group role-axis" role="graphics-symbol" aria-roledescription="axis" aria-label="Y-axis titled 'Exam Score' for a discrete scale with 21 values: 0, 5, 10, 15, 20, ending with 100"><g transform="translate(0.5,0.5)"><path class="background" aria-hidden="true" d="M0,0h0v0h0Z" pointer-events="none"/><g><g class="mark-rule role-axis-tick" pointer-events="none"><line transform="translate(0,10)" x2="-5" y2="0" stroke="#888" stroke-width="1" opacity="1"/><line transform="translate(0,29)" x2="-5" y2="0" stroke="#888" stroke-width="1" opacity="1"/><line transform="translate(0,48)" x2="-5" y2="0" stroke="#888" stroke-width="1" opacity="1"/><line transform="translate(0,67)" x2="-5" y2="0" stroke="#888" stroke-width="1" opacity="1"/><line transform="translate(0,86)" x2="-5" y2="0" stroke="#888" stroke-width="1" opacity="1"/><line transform="translate(0,105)" x2="-5" y2="0" stroke="#888" stroke-width="1" opacity="1"/><line transform="translate(0,124)" x2="-5" y2="0" stroke="#888" stroke-width="1" opacity="1"/><line transform="translate(0,143)" x2="-5" y2="0" stroke="#888" stroke-width="1" opacity="1"/><line transform="translate(0,162)" x2="-5" y2="0" stroke="#888" stroke-width="1" opacity="1"/><line transform="translate(0,181)" x2="-5" y2="0" stroke="#888" stroke-width="1" opacity="1"/><line transform="translate(0,200)" x2="-5" y2="0" stroke="#888" stroke-width="1" opacity="1"/><line transform="translate(0,219)" x2="-5" y2="0" stroke="#888" stroke-width="1" opacity="1"/><line transform="translate(0,238)" x2="-5" y2="0" stroke="#888" stroke-width="1" opacity="1"/><line transform="translate(0,257)" x2="-5" y2="0" stroke="#888" stroke-width="1" opacity="1"/><line transform="translate(0,276)" x2="-5" y2="0" stroke="#888" stroke-width="1" opacity="1"/><line transform="translate(0,295)" x2="-5" y2="0" stroke="#888" stroke-width="1" opacity="1"/><line transform="translate(0,314)" x2="-5" y2="0" stroke="#888" stroke-width="1" opacity="1"/><line transform="translate(0,333)" x2="-5" y2="0" stroke="#888" stroke-width="1" opacity="1"/><line transform="translate(0,352)" x2="-5" y2="0" stroke="#888" stroke-width="1" opacity="1"/><line transform="translate(0,371)" x2="-5" y2="0" stroke="#888" stroke-width="1" opacity="1"/><line transform="translate(0,390)" x2="-5" y2="0" stroke="#888" stroke-width="1" opacity="1"/></g><g class="mark-text role-axis-label" pointer-events="none"><text text-anchor="end" transform="translate(-7,12.523809523809518)" font-family="sans-serif" font-size="10px" fill="#000" opacity="1">0</text><text text-anchor="end" transform="translate(-7,31.571428571428566)" font-family="sans-serif" font-size="10px" fill="#000" opacity="1">5</text><text text-anchor="end" transform="translate(-7,50.61904761904761)" font-family="sans-serif" font-size="10px" fill="#000" opacity="1">10</text><text text-anchor="end" transform="translate(-7,69.66666666666666)" font-family="sans-serif" font-size="10px" fill="#000" opacity="1">15</text><text text-anchor="end" transform="translate(-7,88.71428571428571)" font-family="sans-serif" font-size="10px" fill="#000" opacity="1">20</text><text text-anchor="end" transform="translate(-7,107.76190476190476)" font-family="sans-serif" font-size="10px" fill="#000" opacity="1">25</text><text text-anchor="end" transform="translate(-7,126.8095238095238)" font-family="sans-serif" font-size="10px" fill="#000" opacity="1">30</text><text text-anchor="end" transform="translate(-7,145.85714285714286)" font-family="sans-serif" font-size="10px" fill="#000" opacity="1">35</text><text text-anchor="end" transform="translate(-7,164.9047619047619)" font-family="sans-serif" font-size="10px" fill="#000" opacity="1">40</text><text text-anchor="end" transform="translate(-7,183.95238095238093)" font-family="sans-serif" font-size="10px" fill="#000" opacity="1">45</text><text text-anchor="end" transform="translate(-7,203)" font-family="sans-serif" font-size="10px" fill="#000" opacity="1">50</text><text text-anchor="end" transform="translate(-7,222.04761904761904)" font-family="sans-serif" font-size="10px" fill="#000" opacity="1">55</text><text text-anchor="end" transform="translate(-7,241.09523809523807)" font-family="sans-serif" font-size="10px" fill="#000" opacity="1">60</text><text text-anchor="end" transform="translate(-7,260.1428571428571)" font-family="sans-serif" font-size="10px" fill="#000" opacity="1">65</text><text text-anchor="end" transform="translate(-7,279.1904761904762)" font-family="sans-serif" font-size="10px" fill="#000" opacity="1">70</text><text text-anchor="end" transform="translate(-7,298.23809523809524)" font-family="sans-serif" font-size="10px" fill="#000" opacity="1">75</text><text text-anchor="end" transform="translate(-7,317.2857142857143)" font-family="sans-serif" font-size="10px" fill="#000" opacity="1">80</text><text text-anchor="end" transform="translate(-7,336.3333333333333)" font-family="sans-serif" font-size="10px" fill="#000" opacity="1">85</text><text text-anchor="end" transform="translate(-7,355.38095238095235)" font-family="sans-serif" font-size="10px" fill="#000" opacity="1">90</text><text text-anchor="end" transform="translate(-7,374.42857142857144)" font-family="sans-serif" font-size="10px" fill="#000" opacity="1">95</text><text text-anchor="end" transform="translate(-7,393.4761904761905)" font-family="sans-serif" font-size="10px" fill="#000" opacity="1">100</text></g><g class="mark-rule role-axis-domain" pointer-events="none"><line transform="translate(0,0)" x2="0" y2="400" stroke="#888" stroke-width="1" opacity="1"/></g><g class="mark-text role-axis-title" pointer-events="none"><text text-anchor="middle" transform="translate(-27.6845703125,200) rotate(-90) translate(0,-2)" font-family="sans-serif" font-size="11px" font-weight="bold" fill="#000" opacity="1">Exam Score</text></g></g><path class="foreground" aria-hidden="true" d="" pointer-events="none" display="none"/></g></g><g class="mark-symbol role-mark marks" role="graphics-object" aria-roledescription="symbol mark container"><path aria-label="Hours Studied: 5; Exam Score: 85; Students: 2" role="graphics-symbol" aria-roledescription="circle" transform="translate(144,333.3333333333333)" d="M3.526,0A3.526,3.526,0,1,1,-3.526,0A3.526,3.526,0,1,1,3.526,0" fill="steelblue" stroke-width="2" opacity="0.7"/><path aria-label="Hours Studied: 6; Exam Score: 65; Students: 16" role="graphics-symbol" aria-roledescription="circle" transform="translate(176,257.1428571428571)" d="M8.03,0A8.03,8.03,0,1,1,-8.03,0A8.03,8.03,0,1,1,8.03,0" fill="steelblue" stroke-width="2" opacity="0.7"/><path aria-label="Hours Studied: 3; Exam Score: 60; Students: 13" role="graphics-symbol" aria-roledescription="circle" transform="translate(80,238.09523809523807)" d="M7.303,0A7.303,7.303,0,1,1,-7.303,0A7.303,7.303,0,1,1,7.303,0" fill="steelblue" stroke-width="2" opacity="0.7"/><path aria-label="Hours Studied: 5; Exam Score: 65; Students: 38" role="graphics-symbol" aria-roledescription="circle" transform="translate(144,257.1428571428571)" d="M12.095,0A12.095,12.095,0,1,1,-12.095,0A12.095,12.095,0,1,1,12.095,0" fill="steelblue" stroke-width="2" opacity="0.7"/><path aria-label="Hours Studied: 4; Exam Score: 80; Students: 6" role="graphics-symbol" aria-roledescription="circle" transform="translate(112,314.2857142857143)" d="M5.226,0A5.226,5.226,0,1,1,-5.226,0A5.226,5.226,0,1,1,5.226,0" fill="steelblue" stroke-width="2" opacity="0.7"/><path aria-label="Hours Studied: 4; Exam Score: 60; Students: 39" role="graphics-symbol" aria-roledescription="circle" transform="translate(112,238.09523809523807)" d="M12.247,0A12.247,12.247,0,1,1,-12.247,0A12.247,12.247,0,1,1,12.247,0" fill="steelblue" stroke-width="2" opacity="0.7"/><path aria-label="Hours Studied: 2; Exam Score: 65; Students: 3" role="graphics-symbol" aria-roledescription="circle" transform="translate(48,257.1428571428571)" d="M4.019,0A4.019,4.019,0,1,1,-4.019,0A4.019,4.019,0,1,1,4.019,0" fill="steelblue" stroke-width="2" opacity="0.7"/><path aria-label="Hours Studied: 3; Exam Score: 70; Students: 24" role="graphics-symbol" aria-roledescription="circle" transform="translate(80,276.1904761904762)" d="M9.707,0A9.707,9.707,0,1,1,-9.707,0A9.707,9.707,0,1,1,9.707,0" fill="steelblue" stroke-width="2" opacity="0.7"/><path aria-label="Hours Studied: 3; Exam Score: 85; Students: 2" role="graphics-symbol" aria-roledescription="circle" transform="translate(80,333.3333333333333)" d="M3.526,0A3.526,3.526,0,1,1,-3.526,0A3.526,3.526,0,1,1,3.526,0" fill="steelblue" stroke-width="2" opacity="0.7"/><path aria-label="Hours Studied: 5; Exam Score: 70; Students: 28" role="graphics-symbol" aria-roledescription="circle" transform="translate(144,276.1904761904762)" d="M10.445,0A10.445,10.445,0,1,1,-10.445,0A10.445,10.445,0,1,1,10.445,0" fill="steelblue" stroke-width="2" opacity="0.7"/><path aria-label="Hours Studied: 5; Exam Score: 75; Students: 19" role="graphics-symbol" aria-roledescription="circle" transform="translate(144,295.23809523809524)" d="M8.697,0A8.697,8.697,0,1,1,-8.697,0A8.697,8.697,0,1,1,8.697,0" fill="steelblue" stroke-width="2" opacity="0.7"/><path aria-label="Hours Studied: 4; Exam Score: 75; Students: 23" role="graphics-symbol" aria-roledescription="circle" transform="translate(112,295.23809523809524)" d="M9.514,0A9.514,9.514,0,1,1,-9.514,0A9.514,9.514,0,1,1,9.514,0" fill="steelblue" stroke-width="2" opacity="0.7"/><path aria-label="Hours Studied: 3; Exam Score: 50; Students: 2" role="graphics-symbol" aria-roledescription="circle" transform="translate(80,200)" d="M3.526,0A3.526,3.526,0,1,1,-3.526,0A3.526,3.526,0,1,1,3.526,0" fill="steelblue" stroke-width="2" opacity="0.7"/><path aria-label="Hours Studied: 5; Exam Score: 60; Students: 32" role="graphics-symbol" aria-roledescription="circle" transform="translate(144,238.09523809523807)" d="M11.134,0A11.134,11.134,0,1,1,-11.134,0A11.134,11.134,0,1,1,11.134,0" fill="steelblue" stroke-width="2" opacity="0.7"/><path aria-label="Hours Studied: 6; Exam Score: 60; Students: 17" role="graphics-symbol" aria-roledescription="circle" transform="translate(176,238.09523809523807)" d="M8.259,0A8.259,8.259,0,1,1,-8.259,0A8.259,8.259,0,1,1,8.259,0" fill="steelblue" stroke-width="2" opacity="0.7"/><path aria-label="Hours Studied: 3; Exam Score: 75; Students: 13" role="graphics-symbol" aria-roledescription="circle" transform="translate(80,295.23809523809524)" d="M7.303,0A7.303,7.303,0,1,1,-7.303,0A7.303,7.303,0,1,1,7.303,0" fill="steelblue" stroke-width="2" opacity="0.7"/><path aria-label="Hours Studied: 4; Exam Score: 70; Students: 30" role="graphics-symbol" aria-roledescription="circle" transform="translate(112,276.1904761904762)" d="M10.795,0A10.795,10.795,0,1,1,-10.795,0A10.795,10.795,0,1,1,10.795,0" fill="steelblue" stroke-width="2" opacity="0.7"/><path aria-label="Hours Studied: 4; Exam Score: 40; Students: 1" role="graphics-symbol" aria-roledescription="circle" transform="translate(112,161.9047619047619)" d="M2.953,0A2.953,2.953,0,1,1,-2.953,0A2.953,2.953,0,1,1,2.953,0" fill="steelblue" stroke-width="2" opacity="0.7"/><path aria-label="Hours Studied: 3; Exam Score: 40; Students: 1" role="graphics-symbol" aria-roledescription="circle" transform="translate(80,161.9047619047619)" d="M2.953,0A2.953,2.953,0,1,1,-2.953,0A2.953,2.953,0,1,1,2.953,0" fill="steelblue" stroke-width="2" opacity="0.7"/><path aria-label="Hours Studied: 6; Exam Score: 70; Students: 9" role="graphics-symbol" aria-roledescription="circle" transform="translate(176,276.1904761904762)" d="M6.202,0A6.202,6.202,0,1,1,-6.202,0A6.202,6.202,0,1,1,6.202,0" fill="steelblue" stroke-width="2" opacity="0.7"/><path aria-label="Hours Studied: 4; Exam Score: 50; Students: 7" role="graphics-symbol" aria-roledescription="circle" transform="translate(112,200)" d="M5.57,0A5.57,5.57,0,1,1,-5.57,0A5.57,5.57,0,1,1,5.57,0" fill="steelblue" stroke-width="2" opacity="0.7"/><path aria-label="Hours Studied: 5; Exam Score: 55; Students: 17" role="graphics-symbol" aria-roledescription="circle" transform="translate(144,219.04761904761904)" d="M8.259,0A8.259,8.259,0,1,1,-8.259,0A8.259,8.259,0,1,1,8.259,0" fill="steelblue" stroke-width="2" opacity="0.7"/><path aria-label="Hours Studied: 2; Exam Score: 60; Students: 2" role="graphics-symbol" aria-roledescription="circle" transform="translate(48,238.09523809523807)" d="M3.526,0A3.526,3.526,0,1,1,-3.526,0A3.526,3.526,0,1,1,3.526,0" fill="steelblue" stroke-width="2" opacity="0.7"/><path aria-label="Hours Studied: 2; Exam Score: 75; Students: 4" role="graphics-symbol" aria-roledescription="circle" transform="translate(48,295.23809523809524)" d="M4.458,0A4.458,4.458,0,1,1,-4.458,0A4.458,4.458,0,1,1,4.458,0" fill="steelblue" stroke-width="2" opacity="0.7"/><path aria-label="Hours Studied: 4; Exam Score: 45; Students: 3" role="graphics-symbol" aria-roledescription="circle" transform="translate(112,180.95238095238093)" d="M4.019,0A4.019,4.019,0,1,1,-4.019,0A4.019,4.019,0,1,1,4.019,0" fill="steelblue" stroke-width="2" opacity="0.7"/><path aria-label="Hours Studied: 6; Exam Score: 55; Students: 8" role="graphics-symbol" aria-roledescription="circle" transform="translate(176,219.04761904761904)" d="M5.894,0A5.894,5.894,0,1,1,-5.894,0A5.894,5.894,0,1,1,5.894,0" fill="steelblue" stroke-width="2" opacity="0.7"/><path aria-label="Hours Studied: 8; Exam Score: 70; Students: 2" role="graphics-symbol" aria-roledescription="circle" transform="translate(240,276.1904761904762)" d="M3.526,0A3.526,3.526,0,1,1,-3.526,0A3.526,3.526,0,1,1,3.526,0" fill="steelblue" stroke-width="2" opacity="0.7"/><path aria-label="Hours Studied: 3; Exam Score: 55; Students: 13" role="graphics-symbol" aria-roledescription="circle" transform="translate(80,219.04761904761904)" d="M7.303,0A7.303,7.303,0,1,1,-7.303,0A7.303,7.303,0,1,1,7.303,0" fill="steelblue" stroke-width="2" opacity="0.7"/><path aria-label="Hours Studied: 3; Exam Score: 65; Students: 15" role="graphics-symbol" aria-roledescription="circle" transform="translate(80,257.1428571428571)" d="M7.795,0A7.795,7.795,0,1,1,-7.795,0A7.795,7.795,0,1,1,7.795,0" fill="steelblue" stroke-width="2" opacity="0.7"/><path aria-label="Hours Studied: 3; Exam Score: 80; Students: 7" role="graphics-symbol" aria-roledescription="circle" transform="translate(80,314.2857142857143)" d="M5.57,0A5.57,5.57,0,1,1,-5.57,0A5.57,5.57,0,1,1,5.57,0" fill="steelblue" stroke-width="2" opacity="0.7"/><path aria-label="Hours Studied: 5; Exam Score: 50; Students: 5" role="graphics-symbol" aria-roledescription="circle" transform="translate(144,200)" d="M4.857,0A4.857,4.857,0,1,1,-4.857,0A4.857,4.857,0,1,1,4.857,0" fill="steelblue" stroke-width="2" opacity="0.7"/><path aria-label="Hours Studied: 6; Exam Score: 75; Students: 14" role="graphics-symbol" aria-roledescription="circle" transform="translate(176,295.23809523809524)" d="M7.553,0A7.553,7.553,0,1,1,-7.553,0A7.553,7.553,0,1,1,7.553,0" fill="steelblue" stroke-width="2" opacity="0.7"/><path aria-label="Hours Studied: 4; Exam Score: 55; Students: 13" role="graphics-symbol" aria-roledescription="circle" transform="translate(112,219.04761904761904)" d="M7.303,0A7.303,7.303,0,1,1,-7.303,0A7.303,7.303,0,1,1,7.303,0" fill="steelblue" stroke-width="2" opacity="0.7"/><path aria-label="Hours Studied: 7; Exam Score: 55; Students: 4" role="graphics-symbol" aria-roledescription="circle" transform="translate(208,219.04761904761904)" d="M4.458,0A4.458,4.458,0,1,1,-4.458,0A4.458,4.458,0,1,1,4.458,0" fill="steelblue" stroke-width="2" opacity="0.7"/><path aria-label="Hours Studied: 5; Exam Score: 80; Students: 10" role="graphics-symbol" aria-roledescription="circle" transform="translate(144,314.2857142857143)" d="M6.495,0A6.495,6.495,0,1,1,-6.495,0A6.495,6.495,0,1,1,6.495,0" fill="steelblue" stroke-width="2" opacity="0.7"/><path aria-label="Hours Studied: 4; Exam Score: 90; Students: 2" role="graphics-symbol" aria-roledescription="circle" transform="translate(112,352.38095238095235)" d="M3.526,0A3.526,3.526,0,1,1,-3.526,0A3.526,3.526,0,1,1,3.526,0" fill="steelblue" stroke-width="2" opacity="0.7"/><path aria-label="Hours Studied: 6; Exam Score: 80; Students: 1" role="graphics-symbol" aria-roledescription="circle" transform="translate(176,314.2857142857143)" d="M2.953,0A2.953,2.953,0,1,1,-2.953,0A2.953,2.953,0,1,1,2.953,0" fill="steelblue" stroke-width="2" opacity="0.7"/><path aria-label="Hours Studied: 2; Exam Score: 70; Students: 3" role="graphics-symbol" aria-roledescription="circle" transform="translate(48,276.1904761904762)" d="M4.019,0A4.019,4.019,0,1,1,-4.019,0A4.019,4.019,0,1,1,4.019,0" fill="steelblue" stroke-width="2" opacity="0.7"/><path aria-label="Hours Studied: 4; Exam Score: 65; Students: 35" role="graphics-symbol" aria-roledescription="circle" transform="translate(112,257.1428571428571)" d="M11.624,0A11.624,11.624,0,1,1,-11.624,0A11.624,11.624,0,1,1,11.624,0" fill="steelblue" stroke-width="2" opacity="0.7"/><path aria-label="Hours Studied: 7; Exam Score: 70; Students: 2" role="graphics-symbol" aria-roledescription="circle" transform="translate(208,276.1904761904762)" d="M3.526,0A3.526,3.526,0,1,1,-3.526,0A3.526,3.526,0,1,1,3.526,0" fill="steelblue" stroke-width="2" opacity="0.7"/><path aria-label="Hours Studied: 7; Exam Score: 65; Students: 5" role="graphics-symbol" aria-roledescription="circle" transform="translate(208,257.1428571428571)" d="M4.857,0A4.857,4.857,0,1,1,-4.857,0A4.857,4.857,0,1,1,4.857,0" fill="steelblue" stroke-width="2" opacity="0.7"/><path aria-label="Hours Studied: 6; Exam Score: 50; Students: 2" role="graphics-symbol" aria-roledescription="circle" transform="translate(176,200)" d="M3.526,0A3.526,3.526,0,1,1,-3.526,0A3.526,3.526,0,1,1,3.526,0" fill="steelblue" stroke-width="2" opacity="0.7"/><path aria-label="Hours Studied: 4; Exam Score: 85; Students: 2" role="graphics-symbol" aria-roledescription="circle" transform="translate(112,333.3333333333333)" d="M3.526,0A3.526,3.526,0,1,1,-3.526,0A3.526,3.526,0,1,1,3.526,0" fill="steelblue" stroke-width="2" opacity="0.7"/><path aria-label="Hours Studied: 6; Exam Score: 85; Students: 3" role="graphics-symbol" aria-roledescription="circle" transform="translate(176,333.3333333333333)" d="M4.019,0A4.019,4.019,0,1,1,-4.019,0A4.019,4.019,0,1,1,4.019,0" fill="steelblue" stroke-width="2" opacity="0.7"/><path aria-label="Hours Studied: 5; Exam Score: 45; Students: 3" role="graphics-symbol" aria-roledescription="circle" transform="translate(144,180.95238095238093)" d="M4.019,0A4.019,4.019,0,1,1,-4.019,0A4.019,4.019,0,1,1,4.019,0" fill="steelblue" stroke-width="2" opacity="0.7"/><path aria-label="Hours Studied: 9; Exam Score: 30; Students: 1" role="graphics-symbol" aria-roledescription="circle" transform="translate(272,123.8095238095238)" d="M2.953,0A2.953,2.953,0,1,1,-2.953,0A2.953,2.953,0,1,1,2.953,0" fill="steelblue" stroke-width="2" opacity="0.7"/><path aria-label="Hours Studied: 10; Exam Score: 10; Students: 1" role="graphics-symbol" aria-roledescription="circle" transform="translate(304,47.61904761904761)" d="M2.953,0A2.953,2.953,0,1,1,-2.953,0A2.953,2.953,0,1,1,2.953,0" fill="steelblue" stroke-width="2" opacity="0.7"/><path aria-label="Hours Studied: 2; Exam Score: 95; Students: 1" role="graphics-symbol" aria-roledescription="circle" transform="translate(48,371.42857142857144)" d="M2.953,0A2.953,2.953,0,1,1,-2.953,0A2.953,2.953,0,1,1,2.953,0" fill="steelblue" stroke-width="2" opacity="0.7"/><path aria-label="Hours Studied: 9; Exam Score: 35; Students: 2" role="graphics-symbol" aria-roledescription="circle" transform="translate(272,142.85714285714286)" d="M3.526,0A3.526,3.526,0,1,1,-3.526,0A3.526,3.526,0,1,1,3.526,0" fill="steelblue" stroke-width="2" opacity="0.7"/><path aria-label="Hours Studied: 10; Exam Score: 75; Students: 1" role="graphics-symbol" aria-roledescription="circle" transform="translate(304,295.23809523809524)" d="M2.953,0A2.953,2.953,0,1,1,-2.953,0A2.953,2.953,0,1,1,2.953,0" fill="steelblue" stroke-width="2" opacity="0.7"/><path aria-label="Hours Studied: 4; Exam Score: 95; Students: 2" role="graphics-symbol" aria-roledescription="circle" transform="translate(112,371.42857142857144)" d="M3.526,0A3.526,3.526,0,1,1,-3.526,0A3.526,3.526,0,1,1,3.526,0" fill="steelblue" stroke-width="2" opacity="0.7"/><path aria-label="Hours Studied: 2; Exam Score: 45; Students: 1" role="graphics-symbol" aria-roledescription="circle" transform="translate(48,180.95238095238093)" d="M2.953,0A2.953,2.953,0,1,1,-2.953,0A2.953,2.953,0,1,1,2.953,0" fill="steelblue" stroke-width="2" opacity="0.7"/><path aria-label="Hours Studied: 7; Exam Score: 60; Students: 1" role="graphics-symbol" aria-roledescription="circle" transform="translate(208,238.09523809523807)" d="M2.953,0A2.953,2.953,0,1,1,-2.953,0A2.953,2.953,0,1,1,2.953,0" fill="steelblue" stroke-width="2" opacity="0.7"/><path aria-label="Hours Studied: 5; Exam Score: 40; Students: 2" role="graphics-symbol" aria-roledescription="circle" transform="translate(144,161.9047619047619)" d="M3.526,0A3.526,3.526,0,1,1,-3.526,0A3.526,3.526,0,1,1,3.526,0" fill="steelblue" stroke-width="2" opacity="0.7"/><path aria-label="Hours Studied: 2; Exam Score: 5; Students: 1" role="graphics-symbol" aria-roledescription="circle" transform="translate(48,28.571428571428566)" d="M2.953,0A2.953,2.953,0,1,1,-2.953,0A2.953,2.953,0,1,1,2.953,0" fill="steelblue" stroke-width="2" opacity="0.7"/><path aria-label="Hours Studied: 8; Exam Score: 50; Students: 3" role="graphics-symbol" aria-roledescription="circle" transform="translate(240,200)" d="M4.019,0A4.019,4.019,0,1,1,-4.019,0A4.019,4.019,0,1,1,4.019,0" fill="steelblue" stroke-width="2" opacity="0.7"/><path aria-label="Hours Studied: 3; Exam Score: 0; Students: 2" role="graphics-symbol" aria-roledescription="circle" transform="translate(80,9.523809523809518)" d="M3.526,0A3.526,3.526,0,1,1,-3.526,0A3.526,3.526,0,1,1,3.526,0" fill="steelblue" stroke-width="2" opacity="0.7"/><path aria-label="Hours Studied: 8; Exam Score: 80; Students: 1" role="graphics-symbol" aria-roledescription="circle" transform="translate(240,314.2857142857143)" d="M2.953,0A2.953,2.953,0,1,1,-2.953,0A2.953,2.953,0,1,1,2.953,0" fill="steelblue" stroke-width="2" opacity="0.7"/><path aria-label="Hours Studied: 5; Exam Score: 5; Students: 1" role="graphics-symbol" aria-roledescription="circle" transform="translate(144,28.571428571428566)" d="M2.953,0A2.953,2.953,0,1,1,-2.953,0A2.953,2.953,0,1,1,2.953,0" fill="steelblue" stroke-width="2" opacity="0.7"/><path aria-label="Hours Studied: 6; Exam Score: 10; Students: 2" role="graphics-symbol" aria-roledescription="circle" transform="translate(176,47.61904761904761)" d="M3.526,0A3.526,3.526,0,1,1,-3.526,0A3.526,3.526,0,1,1,3.526,0" fill="steelblue" stroke-width="2" opacity="0.7"/><path aria-label="Hours Studied: 10; Exam Score: 80; Students: 2" role="graphics-symbol" aria-roledescription="circle" transform="translate(304,314.2857142857143)" d="M3.526,0A3.526,3.526,0,1,1,-3.526,0A3.526,3.526,0,1,1,3.526,0" fill="steelblue" stroke-width="2" opacity="0.7"/><path aria-label="Hours Studied: 3; Exam Score: 100; Students: 2" role="graphics-symbol" aria-roledescription="circle" transform="translate(80,390.4761904761905)" d="M3.526,0A3.526,3.526,0,1,1,-3.526,0A3.526,3.526,0,1,1,3.526,0" fill="steelblue" stroke-width="2" opacity="0.7"/><path aria-label="Hours Studied: 8; Exam Score: 35; Students: 1" role="graphics-symbol" aria-roledescription="circle" transform="translate(240,142.85714285714286)" d="M2.953,0A2.953,2.953,0,1,1,-2.953,0A2.953,2.953,0,1,1,2.953,0" fill="steelblue" stroke-width="2" opacity="0.7"/><path aria-label="Hours Studied: 8; Exam Score: 90; Students: 2" role="graphics-symbol" aria-roledescription="circle" transform="translate(240,352.38095238095235)" d="M3.526,0A3.526,3.526,0,1,1,-3.526,0A3.526,3.526,0,1,1,3.526,0" fill="steelblue" stroke-width="2" opacity="0.7"/><path aria-label="Hours Studied: 10; Exam Score: 0; Students: 1" role="graphics-symbol" aria-roledescription="circle" transform="translate(304,9.523809523809518)" d="M2.953,0A2.953,2.953,0,1,1,-2.953,0A2.953,2.953,0,1,1,2.953,0" fill="steelblue" stroke-width="2" opacity="0.7"/><path aria-label="Hours Studied: 6; Exam Score: 20; Students: 1" role="graphics-symbol" aria-roledescription="circle" transform="translate(176,85.71428571428571)" d="M2.953,0A2.953,2.953,0,1,1,-2.953,0A2.953,2.953,0,1,1,2.953,0" fill="steelblue" stroke-width="2" opacity="0.7"/><path aria-label="Hours Studied: 7; Exam Score: 50; Students: 1" role="graphics-symbol" aria-roledescription="circle" transform="translate(208,200)" d="M2.953,0A2.953,2.953,0,1,1,-2.953,0A2.953,2.953,0,1,1,2.953,0" fill="steelblue" stroke-width="2" opacity="0.7"/><path aria-label="Hours Studied: 10; Exam Score: 60; Students: 2" role="graphics-symbol" aria-roledescription="circle" transform="translate(304,238.09523809523807)" d="M3.526,0A3.526,3.526,0,1,1,-3.526,0A3.526,3.526,0,1,1,3.526,0" fill="steelblue" stroke-width="2" opacity="0.7"/><path aria-label="Hours Studied: 5; Exam Score: 0; Students: 1" role="graphics-symbol" aria-roledescription="circle" transform="translate(144,9.523809523809518)" d="M2.953,0A2.953,2.953,0,1,1,-2.953,0A2.953,2.953,0,1,1,2.953,0" fill="steelblue" stroke-width="2" opacity="0.7"/><path aria-label="Hours Studied: 8; Exam Score: 55; Students: 1" role="graphics-symbol" aria-roledescription="circle" transform="translate(240,219.04761904761904)" d="M2.953,0A2.953,2.953,0,1,1,-2.953,0A2.953,2.953,0,1,1,2.953,0" fill="steelblue" stroke-width="2" opacity="0.7"/><path aria-label="Hours Studied: 7; Exam Score: 85; Students: 1" role="graphics-symbol" aria-roledescription="circle" transform="translate(208,333.3333333333333)" d="M2.953,0A2.953,2.953,0,1,1,-2.953,0A2.953,2.953,0,1,1,2.953,0" fill="steelblue" stroke-width="2" opacity="0.7"/><path aria-label="Hours Studied: 4; Exam Score: 30; Students: 1" role="graphics-symbol" aria-roledescription="circle" transform="translate(112,123.8095238095238)" d="M2.953,0A2.953,2.953,0,1,1,-2.953,0A2.953,2.953,0,1,1,2.953,0" fill="steelblue" stroke-width="2" opacity="0.7"/><path aria-label="Hours Studied: 10; Exam Score: 70; Students: 1" role="graphics-symbol" aria-roledescription="circle" transform="translate(304,276.1904761904762)" d="M2.953,0A2.953,2.953,0,1,1,-2.953,0A2.953,2.953,0,1,1,2.953,0" fill="steelblue" stroke-width="2" opacity="0.7"/><path aria-label="Hours Studied: 8; Exam Score: 60; Students: 1" role="graphics-symbol" aria-roledescription="circle" transform="translate(240,238.09523809523807)" d="M2.953,0A2.953,2.953,0,1,1,-2.953,0A2.953,2.953,0,1,1,2.953,0" fill="steelblue" stroke-width="2" opacity="0.7"/><path aria-label="Hours Studied: 2; Exam Score: 80; Students: 1" role="graphics-symbol" aria-roledescription="circle" transform="translate(48,314.2857142857143)" d="M2.953,0A2.953,2.953,0,1,1,-2.953,0A2.953,2.953,0,1,1,2.953,0" fill="steelblue" stroke-width="2" opacity="0.7"/><path aria-label="Hours Studied: 6; Exam Score: 40; Students: 2" role="graphics-symbol" aria-roledescription="circle" transform="translate(176,161.9047619047619)" d="M3.526,0A3.526,3.526,0,1,1,-3.526,0A3.526,3.526,0,1,1,3.526,0" fill="steelblue" stroke-width="2" opacity="0.7"/><path aria-label="Hours Studied: 4; Exam Score: 0; Students: 1" role="graphics-symbol" aria-roledescription="circle" transform="translate(112,9.523809523809518)" d="M2.953,0A2.953,2.953,0,1,1,-2.953,0A2.953,2.953,0,1,1,2.953,0" fill="steelblue" stroke-width="2" opacity="0.7"/><path aria-label="Hours Studied: 4; Exam Score: 100; Students: 3" role="graphics-symbol" aria-roledescription="circle" transform="translate(112,390.4761904761905)" d="M4.019,0A4.019,4.019,0,1,1,-4.019,0A4.019,4.019,0,1,1,4.019,0" fill="steelblue" stroke-width="2" opacity="0.7"/><path aria-label="Hours Studied: 10; Exam Score: 20; Students: 2" role="graphics-symbol" aria-roledescription="circle" transform="translate(304,85.71428571428571)" d="M3.526,0A3.526,3.526,0,1,1,-3.526,0A3.526,3.526,0,1,1,3.526,0" fill="steelblue" stroke-width="2" opacity="0.7"/><path aria-label="Hours Studied: 5; Exam Score: 15; Students: 1" role="graphics-symbol" aria-roledescription="circle" transform="translate(144,66.66666666666666)" d="M2.953,0A2.953,2.953,0,1,1,-2.953,0A2.953,2.953,0,1,1,2.953,0" fill="steelblue" stroke-width="2" opacity="0.7"/><path aria-label="Hours Studied: 2; Exam Score: 0; Students: 2" role="graphics-symbol" aria-roledescription="circle" transform="translate(48,9.523809523809518)" d="M3.526,0A3.526,3.526,0,1,1,-3.526,0A3.526,3.526,0,1,1,3.526,0" fill="steelblue" stroke-width="2" opacity="0.7"/><path aria-label="Hours Studied: 1; Exam Score: 0; Students: 2" role="graphics-symbol" aria-roledescription="circle" transform="translate(16,9.523809523809518)" d="M3.526,0A3.526,3.526,0,1,1,-3.526,0A3.526,3.526,0,1,1,3.526,0" fill="steelblue" stroke-width="2" opacity="0.7"/><path aria-label="Hours Studied: 3; Exam Score: 90; Students: 1" role="graphics-symbol" aria-roledescription="circle" transform="translate(80,352.38095238095235)" d="M2.953,0A2.953,2.953,0,1,1,-2.953,0A2.953,2.953,0,1,1,2.953,0" fill="steelblue" stroke-width="2" opacity="0.7"/><path aria-label="Hours Studied: 7; Exam Score: 95; Students: 1" role="graphics-symbol" aria-roledescription="circle" transform="translate(208,371.42857142857144)" d="M2.953,0A2.953,2.953,0,1,1,-2.953,0A2.953,2.953,0,1,1,2.953,0" fill="steelblue" stroke-width="2" opacity="0.7"/><path aria-label="Hours Studied: 7; Exam Score: 35; Students: 1" role="graphics-symbol" aria-roledescription="circle" transform="translate(208,142.85714285714286)" d="M2.953,0A2.953,2.953,0,1,1,-2.953,0A2.953,2.953,0,1,1,2.953,0" fill="steelblue" stroke-width="2" opacity="0.7"/><path aria-label="Hours Studied: 10; Exam Score: 40; Students: 3" role="graphics-symbol" aria-roledescription="circle" transform="translate(304,161.9047619047619)" d="M4.019,0A4.019,4.019,0,1,1,-4.019,0A4.019,4.019,0,1,1,4.019,0" fill="steelblue" stroke-width="2" opacity="0.7"/><path aria-label="Hours Studied: 9; Exam Score: 65; Students: 1" role="graphics-symbol" aria-roledescription="circle" transform="translate(272,257.1428571428571)" d="M2.953,0A2.953,2.953,0,1,1,-2.953,0A2.953,2.953,0,1,1,2.953,0" fill="steelblue" stroke-width="2" opacity="0.7"/><path aria-label="Hours Studied: 2; Exam Score: 30; Students: 1" role="graphics-symbol" aria-roledescription="circle" transform="translate(48,123.8095238095238)" d="M2.953,0A2.953,2.953,0,1,1,-2.953,0A2.953,2.953,0,1,1,2.953,0" fill="steelblue" stroke-width="2" opacity="0.7"/><path aria-label="Hours Studied: 6; Exam Score: 45; Students: 1" role="graphics-symbol" aria-roledescription="circle" transform="translate(176,180.95238095238093)" d="M2.953,0A2.953,2.953,0,1,1,-2.953,0A2.953,2.953,0,1,1,2.953,0" fill="steelblue" stroke-width="2" opacity="0.7"/><path aria-label="Hours Studied: 10; Exam Score: 65; Students: 1" role="graphics-symbol" aria-roledescription="circle" transform="translate(304,257.1428571428571)" d="M2.953,0A2.953,2.953,0,1,1,-2.953,0A2.953,2.953,0,1,1,2.953,0" fill="steelblue" stroke-width="2" opacity="0.7"/><path aria-label="Hours Studied: 9; Exam Score: 40; Students: 1" role="graphics-symbol" aria-roledescription="circle" transform="translate(272,161.9047619047619)" d="M2.953,0A2.953,2.953,0,1,1,-2.953,0A2.953,2.953,0,1,1,2.953,0" fill="steelblue" stroke-width="2" opacity="0.7"/><path aria-label="Hours Studied: 8; Exam Score: 20; Students: 1" role="graphics-symbol" aria-roledescription="circle" transform="translate(240,85.71428571428571)" d="M2.953,0A2.953,2.953,0,1,1,-2.953,0A2.953,2.953,0,1,1,2.953,0" fill="steelblue" stroke-width="2" opacity="0.7"/><path aria-label="Hours Studied: 4; Exam Score: 10; Students: 1" role="graphics-symbol" aria-roledescription="circle" transform="translate(112,47.61904761904761)" d="M2.953,0A2.953,2.953,0,1,1,-2.953,0A2.953,2.953,0,1,1,2.953,0" fill="steelblue" stroke-width="2" opacity="0.7"/><path aria-label="Hours Studied: 8; Exam Score: 0; Students: 2" role="graphics-symbol" aria-roledescription="circle" transform="translate(240,9.523809523809518)" d="M3.526,0A3.526,3.526,0,1,1,-3.526,0A3.526,3.526,0,1,1,3.526,0" fill="steelblue" stroke-width="2" opacity="0.7"/><path aria-label="Hours Studied: 8; Exam Score: 15; Students: 2" role="graphics-symbol" aria-roledescription="circle" transform="translate(240,66.66666666666666)" d="M3.526,0A3.526,3.526,0,1,1,-3.526,0A3.526,3.526,0,1,1,3.526,0" fill="steelblue" stroke-width="2" opacity="0.7"/><path aria-label="Hours Studied: 9; Exam Score: 70; Students: 1" role="graphics-symbol" aria-roledescription="circle" transform="translate(272,276.1904761904762)" d="M2.953,0A2.953,2.953,0,1,1,-2.953,0A2.953,2.953,0,1,1,2.953,0" fill="steelblue" stroke-width="2" opacity="0.7"/><path aria-label="Hours Studied: 5; Exam Score: 100; Students: 1" role="graphics-symbol" aria-roledescription="circle" transform="translate(144,390.4761904761905)" d="M2.953,0A2.953,2.953,0,1,1,-2.953,0A2.953,2.953,0,1,1,2.953,0" fill="steelblue" stroke-width="2" opacity="0.7"/><path aria-label="Hours Studied: 7; Exam Score: 15; Students: 3" role="graphics-symbol" aria-roledescription="circle" transform="translate(208,66.66666666666666)" d="M4.019,0A4.019,4.019,0,1,1,-4.019,0A4.019,4.019,0,1,1,4.019,0" fill="steelblue" stroke-width="2" opacity="0.7"/><path aria-label="Hours Studied: 10; Exam Score: 95; Students: 2" role="graphics-symbol" aria-roledescription="circle" transform="translate(304,371.42857142857144)" d="M3.526,0A3.526,3.526,0,1,1,-3.526,0A3.526,3.526,0,1,1,3.526,0" fill="steelblue" stroke-width="2" opacity="0.7"/><path aria-label="Hours Studied: 2; Exam Score: 15; Students: 3" role="graphics-symbol" aria-roledescription="circle" transform="translate(48,66.66666666666666)" d="M4.019,0A4.019,4.019,0,1,1,-4.019,0A4.019,4.019,0,1,1,4.019,0" fill="steelblue" stroke-width="2" opacity="0.7"/><path aria-label="Hours Studied: 6; Exam Score: 30; Students: 1" role="graphics-symbol" aria-roledescription="circle" transform="translate(176,123.8095238095238)" d="M2.953,0A2.953,2.953,0,1,1,-2.953,0A2.953,2.953,0,1,1,2.953,0" fill="steelblue" stroke-width="2" opacity="0.7"/><path aria-label="Hours Studied: 3; Exam Score: 5; Students: 1" role="graphics-symbol" aria-roledescription="circle" transform="translate(80,28.571428571428566)" d="M2.953,0A2.953,2.953,0,1,1,-2.953,0A2.953,2.953,0,1,1,2.953,0" fill="steelblue" stroke-width="2" opacity="0.7"/><path aria-label="Hours Studied: 9; Exam Score: 5; Students: 1" role="graphics-symbol" aria-roledescription="circle" transform="translate(272,28.571428571428566)" d="M2.953,0A2.953,2.953,0,1,1,-2.953,0A2.953,2.953,0,1,1,2.953,0" fill="steelblue" stroke-width="2" opacity="0.7"/><path aria-label="Hours Studied: 3; Exam Score: 20; Students: 1" role="graphics-symbol" aria-roledescription="circle" transform="translate(80,85.71428571428571)" d="M2.953,0A2.953,2.953,0,1,1,-2.953,0A2.953,2.953,0,1,1,2.953,0" fill="steelblue" stroke-width="2" opacity="0.7"/><path aria-label="Hours Studied: 7; Exam Score: 45; Students: 1" role="graphics-symbol" aria-roledescription="circle" transform="translate(208,180.95238095238093)" d="M2.953,0A2.953,2.953,0,1,1,-2.953,0A2.953,2.953,0,1,1,2.953,0" fill="steelblue" stroke-width="2" opacity="0.7"/><path aria-label="Hours Studied: 7; Exam Score: 40; Students: 1" role="graphics-symbol" aria-roledescription="circle" transform="translate(208,161.9047619047619)" d="M2.953,0A2.953,2.953,0,1,1,-2.953,0A2.953,2.953,0,1,1,2.953,0" fill="steelblue" stroke-width="2" opacity="0.7"/><path aria-label="Hours Studied: 1; Exam Score: 90; Students: 1" role="graphics-symbol" aria-roledescription="circle" transform="translate(16,352.38095238095235)" d="M2.953,0A2.953,2.953,0,1,1,-2.953,0A2.953,2.953,0,1,1,2.953,0" fill="steelblue" stroke-width="2" opacity="0.7"/><path aria-label="Hours Studied: 9; Exam Score: 75; Students: 1" role="graphics-symbol" aria-roledescription="circle" transform="translate(272,295.23809523809524)" d="M2.953,0A2.953,2.953,0,1,1,-2.953,0A2.953,2.953,0,1,1,2.953,0" fill="steelblue" stroke-width="2" opacity="0.7"/><path aria-label="Hours Studied: 1; Exam Score: 55; Students: 1" role="graphics-symbol" aria-roledescription="circle" transform="translate(16,219.04761904761904)" d="M2.953,0A2.953,2.953,0,1,1,-2.953,0A2.953,2.953,0,1,1,2.953,0" fill="steelblue" stroke-width="2" opacity="0.7"/><path aria-label="Hours Studied: 3; Exam Score: 35; Students: 1" role="graphics-symbol" aria-roledescription="circle" transform="translate(80,142.85714285714286)" d="M2.953,0A2.953,2.953,0,1,1,-2.953,0A2.953,2.953,0,1,1,2.953,0" fill="steelblue" stroke-width="2" opacity="0.7"/><path aria-label="Hours Studied: 7; Exam Score: 75; Students: 1" role="graphics-symbol" aria-roledescription="circle" transform="translate(208,295.23809523809524)" d="M2.953,0A2.953,2.953,0,1,1,-2.953,0A2.953,2.953,0,1,1,2.953,0" fill="steelblue" stroke-width="2" opacity="0.7"/><path aria-label="Hours Studied: 8; Exam Score: 85; Students: 1" role="graphics-symbol" aria-roledescription="circle" transform="translate(240,333.3333333333333)" d="M2.953,0A2.953,2.953,0,1,1,-2.953,0A2.953,2.953,0,1,1,2.953,0" fill="steelblue" stroke-width="2" opacity="0.7"/><path aria-label="Hours Studied: 1; Exam Score: 60; Students: 1" role="graphics-symbol" aria-roledescription="circle" transform="translate(16,238.09523809523807)" d="M2.953,0A2.953,2.953,0,1,1,-2.953,0A2.953,2.953,0,1,1,2.953,0" fill="steelblue" stroke-width="2" opacity="0.7"/><path aria-label="Hours Studied: 5; Exam Score: 35; Students: 1" role="graphics-symbol" aria-roledescription="circle" transform="translate(144,142.85714285714286)" d="M2.953,0A2.953,2.953,0,1,1,-2.953,0A2.953,2.953,0,1,1,2.953,0" fill="steelblue" stroke-width="2" opacity="0.7"/><path aria-label="Hours Studied: 1; Exam Score: 70; Students: 1" role="graphics-symbol" aria-roledescription="circle" transform="translate(16,276.1904761904762)" d="M2.953,0A2.953,2.953,0,1,1,-2.953,0A2.953,2.953,0,1,1,2.953,0" fill="steelblue" stroke-width="2" opacity="0.7"/><path aria-label="Hours Studied: 8; Exam Score: 5; Students: 1" role="graphics-symbol" aria-roledescription="circle" transform="translate(240,28.571428571428566)" d="M2.953,0A2.953,2.953,0,1,1,-2.953,0A2.953,2.953,0,1,1,2.953,0" fill="steelblue" stroke-width="2" opacity="0.7"/><path aria-label="Hours Studied: 2; Exam Score: 100; Students: 1" role="graphics-symbol" aria-roledescription="circle" transform="translate(48,390.4761904761905)" d="M2.953,0A2.953,2.953,0,1,1,-2.953,0A2.953,2.953,0,1,1,2.953,0" fill="steelblue" stroke-width="2" opacity="0.7"/><path aria-label="Hours Studied: 9; Exam Score: 25; Students: 1" role="graphics-symbol" aria-roledescription="circle" transform="translate(272,104.76190476190476)" d="M2.953,0A2.953,2.953,0,1,1,-2.953,0A2.953,2.953,0,1,1,2.953,0" fill="steelblue" stroke-width="2" opacity="0.7"/><path aria-label="Hours Studied: 4; Exam Score: 35; Students: 1" role="graphics-symbol" aria-roledescription="circle" transform="translate(112,142.85714285714286)" d="M2.953,0A2.953,2.953,0,1,1,-2.953,0A2.953,2.953,0,1,1,2.953,0" fill="steelblue" stroke-width="2" opacity="0.7"/></g><g class="mark-group role-legend" role="graphics-symbol" aria-roledescription="legend" aria-label="Symbol legend titled 'Students' for size with values from 0 to 39"><g transform="translate(338,0)"><path class="background" aria-hidden="true" d="M0,0h48v97h-48Z" pointer-events="none"/><g><g class="mark-group role-legend-entry"><g transform="translate(0,16)"><path class="background" aria-hidden="true" d="M0,0h0v0h0Z" pointer-events="none"/><g><g class="mark-group role-scope" role="graphics-object" aria-roledescription="group mark container"><g transform="translate(0,0)"><path class="background" aria-hidden="true" d="M0,0h39.123046875v10h-39.123046875Z" pointer-events="none" opacity="1"/><g><g class="mark-symbol role-legend-symbol" pointer-events="none"><path transform="translate(12,5)" d="M2.236,0A2.236,2.236,0,1,1,-2.236,0A2.236,2.236,0,1,1,2.236,0" fill="steelblue" stroke-width="1.5" opacity="0.7"/></g><g class="mark-text role-legend-label" pointer-events="none"><text text-anchor="start" transform="translate(28,8)" font-family="sans-serif" font-size="10px" fill="#000" opacity="1">0</text></g></g><path class="foreground" aria-hidden="true" d="" pointer-events="none" display="none"/></g><g transform="translate(0,13)"><path class="background" aria-hidden="true" d="M0,0h39.123046875v15.494573671880794h-39.123046875Z" pointer-events="none" opacity="1"/><g><g class="mark-symbol role-legend-symbol" pointer-events="none"><path transform="translate(12,7.5)" d="M6.495,0A6.495,6.495,0,1,1,-6.495,0A6.495,6.495,0,1,1,6.495,0" fill="steelblue" stroke-width="1.5" opacity="0.7"/></g><g class="mark-text role-legend-label" pointer-events="none"><text text-anchor="start" transform="translate(28,10.5)" font-family="sans-serif" font-size="10px" fill="#000" opacity="1">10</text></g></g><path class="foreground" aria-hidden="true" d="" pointer-events="none" display="none"/></g><g transform="translate(0,32)"><path class="background" aria-hidden="true" d="M0,0h39.123046875v20.408365414540107h-39.123046875Z" pointer-events="none" opacity="1"/><g><g class="mark-symbol role-legend-symbol" pointer-events="none"><path transform="translate(12,10)" d="M8.908,0A8.908,8.908,0,1,1,-8.908,0A8.908,8.908,0,1,1,8.908,0" fill="steelblue" stroke-width="1.5" opacity="0.7"/></g><g class="mark-text role-legend-label" pointer-events="none"><text text-anchor="start" transform="translate(28,13)" font-family="sans-serif" font-size="10px" fill="#000" opacity="1">20</text></g></g><path class="foreground" aria-hidden="true" d="" pointer-events="none" display="none"/></g><g transform="translate(0,56)"><path class="background" aria-hidden="true" d="M0,0h39.123046875v24.295298121796435h-39.123046875Z" pointer-events="none" opacity="1"/><g><g class="mark-symbol role-legend-symbol" pointer-events="none"><path transform="translate(12,12)" d="M10.795,0A10.795,10.795,0,1,1,-10.795,0A10.795,10.795,0,1,1,10.795,0" fill="steelblue" stroke-width="1.5" opacity="0.7"/></g><g class="mark-text role-legend-label" pointer-events="none"><text text-anchor="start" transform="translate(28,15)" font-family="sans-serif" font-size="10px" fill="#000" opacity="1">30</text></g></g><path class="foreground" aria-hidden="true" d="" pointer-events="none" display="none"/></g></g></g><path class="foreground" aria-hidden="true" d="" pointer-events="none" display="none"/></g></g><g class="mark-text role-legend-title" pointer-events="none"><text text-anchor="start" transform="translate(0,9)" font-family="sans-serif" font-size="11px" font-weight="bold" fill="#000" opacity="1">Students</text></g></g><path class="foreground" aria-hidden="true" d="" pointer-events="none" display="none"/></g></g><g class="mark-group role-title"><g transform="translate(160,-17)"><path class="background" aria-hidden="true" d="M0,0h0v0h0Z" pointer-events="none"/><g><g class="mark-text role-title-text" role="graphics-symbol" aria-roledescription="title" aria-label="Title text 'Exam Scores by Study Hours — Bubble Size Shows Count'" pointer-events="none"><text text-anchor="middle" transform="translate(0,10)" font-family="sans-serif" font-size="13px" font-weight="bold" fill="#000" opacity="1">Exam Scores by Study Hours — Bubble Size Shows Count</text></g></g><path class="foreground" aria-hidden="true" d="" pointer-events="none" display="none"/></g></g></g><path class="foreground" aria-hidden="true" d="" display="none"/></g></g></g></svg>