<svg xmlns="http://www.w3.org/2000/svg" xmlns:xlink="http://www.w3.org/1999/xlink" version="1.1" class="marks" width="299" height="361" viewBox="0 0 299 361"><rect width="299" height="361" fill="white"/><g fill="none" stroke-miterlimit="10" transform="translate(44,27)"><g class="mark-group role-frame root" role="graphics-object" aria-roledescription="group mark container"><g transform="translate(0,0)"><path class="background" aria-hidden="true" d="M0.5,0.5h250v300h-250Z" stroke="#ddd"/><g><g class="mark-group role-axis" aria-hidden="true"><g transform="translate(0.5,0.5)"><path class="background" aria-hidden="true" d="M0,0h0v0h0Z" pointer-events="none"/><g><g class="mark-rule role-axis-grid" pointer-events="none"><line transform="translate(0,300)" x2="250" y2="0" stroke="#ddd" stroke-width="1" opacity="1"/><line transform="translate(0,270)" x2="250" y2="0" stroke="#ddd" stroke-width="1" opacity="1"/><line transform="translate(0,240)" x2="250" y2="0" stroke="#ddd" stroke-width="1" opacity="1"/><line transform="translate(0,210)" x2="250" y2="0" stroke="#ddd" stroke-width="1" opacity="1"/><line transform="translate(0,180)" x2="250" y2="0" stroke="#ddd" stroke-width="1" opacity="1"/><line transform="translate(0,150)" x2="250" y2="0" stroke="#ddd" stroke-width="1" opacity="1"/><line transform="translate(0,120)" x2="250" y2="0" stroke="#ddd" stroke-width="1" opacity="1"/><line transform="translate(0,90)" x2="250" y2="0" stroke="#ddd" stroke-width="1" opacity="1"/><line transform="translate(0,60)" x2="250" y2="0" stroke="#ddd" stroke-width="1" opacity="1"/><line transform="translate(0,30)" x2="250" y2="0" stroke="#ddd" stroke-width="1" opacity="1"/><line transform="translate(0,0)" x2="250" y2="0" stroke="#ddd" stroke-width="1" opacity="1"/></g></g><path class="foreground" aria-hidden="true" d="" pointer-events="none" display="none"/></g></g><g class="mark-group role-axis" role="graphics-symbol" aria-roledescription="axis" aria-label="X-axis titled 'Group' for a discrete scale with 2 values: A, B"><g transform="translate(0.5,300.5)"><path class="background" aria-hidden="true" d="M0,0h0v0h0Z" pointer-events="none"/><g><g class="mark-rule role-axis-tick" pointer-events="none"><line transform="translate(62,0)" x2="0" y2="5" stroke="#888" stroke-width="1" opacity="1"/><line transform="translate(187,0)" x2="0" y2="5" stroke="#888" stroke-width="1" opacity="1"/></g><g class="mark-text role-axis-label" pointer-events="none"><text text-anchor="end" transform="translate(62,7) rotate(270) translate(0,3)" font-family="sans-serif" font-size="10px" fill="#000" opacity="1">A</text><text text-anchor="end" transform="translate(187,7) rotate(270) translate(0,3)" font-family="sans-serif" font-size="10px" fill="#000" opacity="1">B</text></g><g class="mark-rule role-axis-domain" pointer-events="none"><line transform="translate(0,0)" x2="250" y2="0" stroke="#888" stroke-width="1" opacity="1"/></g><g class="mark-text role-axis-title" pointer-events="none"><text text-anchor="middle" transform="translate(125,26.669921875)" font-family="sans-serif" font-size="11px" font-weight="bold" fill="#000" opacity="1">Group</text></g></g><path class="foreground" aria-hidden="true" d="" pointer-events="none" display="none"/></g></g><g class="mark-group role-axis" role="graphics-symbol" aria-roledescription="axis" aria-label="Y-axis titled 'Score' for a linear scale with values from 0 to 100"><g transform="translate(0.5,0.5)"><path class="background" aria-hidden="true" d="M0,0h0v0h0Z" pointer-events="none"/><g><g class="mark-rule role-axis-tick" pointer-events="none"><line transform="translate(0,300)" x2="-5" y2="0" stroke="#888" stroke-width="1" opacity="1"/><line transform="translate(0,270)" x2="-5" y2="0" stroke="#888" stroke-width="1" opacity="1"/><line transform="translate(0,240)" x2="-5" y2="0" stroke="#888" stroke-width="1" opacity="1"/><line transform="translate(0,210)" x2="-5" y2="0" stroke="#888" stroke-width="1" opacity="1"/><line transform="translate(0,180)" x2="-5" y2="0" stroke="#888" stroke-width="1" opacity="1"/><line transform="translate(0,150)" x2="-5" y2="0" stroke="#888" stroke-width="1" opacity="1"/><line transform="translate(0,120)" x2="-5" y2="0" stroke="#888" stroke-width="1" opacity="1"/><line transform="translate(0,90)" x2="-5" y2="0" stroke="#888" stroke-width="1" opacity="1"/><line transform="translate(0,60)" x2="-5" y2="0" stroke="#888" stroke-width="1" opacity="1"/><line transform="translate(0,30)" x2="-5" y2="0" stroke="#888" stroke-width="1" opacity="1"/><line transform="translate(0,0)" x2="-5" y2="0" stroke="#888" stroke-width="1" opacity="1"/></g><g class="mark-text role-axis-label" pointer-events="none"><text text-anchor="end" transform="translate(-7,303)" font-family="sans-serif" font-size="10px" fill="#000" opacity="1">0</text><text text-anchor="end" transform="translate(-7,273)" font-family="sans-serif" font-size="10px" fill="#000" opacity="1">10</text><text text-anchor="end" transform="translate(-7,243)" font-family="sans-serif" font-size="10px" fill="#000" opacity="1">20</text><text text-anchor="end" transform="translate(-7,213)" font-family="sans-serif" font-size="10px" fill="#000" opacity="1">30</text><text text-anchor="end" transform="translate(-7,183)" font-family="sans-serif" font-size="10px" fill="#000" opacity="1">40</text><text text-anchor="end" transform="translate(-7,153)" font-family="sans-serif" font-size="10px" fill="#000" opacity="1">50</text><text text-anchor="end" transform="translate(-7,123)" font-family="sans-serif" font-size="10px" fill="#000" opacity="1">60</text><text text-anchor="end" transform="translate(-7,93.00000000000001)" font-family="sans-serif" font-size="10px" fill="#000" opacity="1">70</text><text text-anchor="end" transform="translate(-7,62.999999999999986)" font-family="sans-serif" font-size="10px" fill="#000" opacity="1">80</text><text text-anchor="end" transform="translate(-7,32.99999999999999)" font-family="sans-serif" font-size="10px" fill="#000" opacity="1">90</text><text text-anchor="end" transform="translate(-7,3)" font-family="sans-serif" font-size="10px" fill="#000" opacity="1">100</text></g><g class="mark-rule role-axis-domain" pointer-events="none"><line transform="translate(0,300)" x2="0" y2="-300" stroke="#888" stroke-width="1" opacity="1"/></g><g class="mark-text role-axis-title" pointer-events="none"><text text-anchor="middle" transform="translate(-27.6845703125,150) rotate(-90) translate(0,-2)" font-family="sans-serif" font-size="11px" font-weight="bold" fill="#000" opacity="1">Score</text></g></g><path class="foreground" aria-hidden="true" d="" pointer-events="none" display="none"/></g></g><g class="mark-rect role-mark marks" role="graphics-object" aria-roledescription="rect mark container"><path aria-label="Group: A; Score: 68.3; group: A" role="graphics-symbol" aria-roledescription="tick" d="M15.625,94.60000000000002h93.75v1h-93.75Z" fill="#4c78a8" opacity="0.4"/><path aria-label="Group: A; Score: 82.5; group: A" role="graphics-symbol" aria-roledescription="tick" d="M15.625,52.000000000000014h93.75v1h-93.75Z" fill="#4c78a8" opacity="0.4"/><path aria-label="Group: A; Score: 72.7; group: A" role="graphics-symbol" aria-roledescription="tick" d="M15.625,81.4h93.75v1h-93.75Z" fill="#4c78a8" opacity="0.4"/><path aria-label="Group: A; Score: 60.1; group: A" role="graphics-symbol" aria-roledescription="tick" d="M15.625,119.2h93.75v1h-93.75Z" fill="#4c78a8" opacity="0.4"/><path aria-label="Group: A; Score: 53.2; group: A" role="graphics-symbol" aria-roledescription="tick" d="M15.625,139.89999999999998h93.75v1h-93.75Z" fill="#4c78a8" opacity="0.4"/><path aria-label="Group: A; Score: 55.5; group: A" role="graphics-symbol" aria-roledescription="tick" d="M15.625,132.99999999999997h93.75v1h-93.75Z" fill="#4c78a8" opacity="0.4"/><path aria-label="Group: A; Score: 63.4; group: A" role="graphics-symbol" aria-roledescription="tick" d="M15.625,109.3h93.75v1h-93.75Z" fill="#4c78a8" opacity="0.4"/><path aria-label="Group: A; Score: 59.6; group: A" role="graphics-symbol" aria-roledescription="tick" d="M15.625,120.7h93.75v1h-93.75Z" fill="#4c78a8" opacity="0.4"/><path aria-label="Group: A; Score: 58.7; group: A" role="graphics-symbol" aria-roledescription="tick" d="M15.625,123.39999999999998h93.75v1h-93.75Z" fill="#4c78a8" opacity="0.4"/><path aria-label="Group: A; Score: 75.4; group: A" role="graphics-symbol" aria-roledescription="tick" d="M15.625,73.3h93.75v1h-93.75Z" fill="#4c78a8" opacity="0.4"/><path aria-label="Group: A; Score: 58.9; group: A" role="graphics-symbol" aria-roledescription="tick" d="M15.625,122.80000000000001h93.75v1h-93.75Z" fill="#4c78a8" opacity="0.4"/><path aria-label="Group: A; Score: 55.2; group: A" role="graphics-symbol" aria-roledescription="tick" d="M15.625,133.89999999999998h93.75v1h-93.75Z" fill="#4c78a8" opacity="0.4"/><path aria-label="Group: A; Score: 44.8; group: A" role="graphics-symbol" aria-roledescription="tick" d="M15.625,165.10000000000002h93.75v1h-93.75Z" fill="#4c78a8" opacity="0.4"/><path aria-label="Group: A; Score: 60.9; group: A" role="graphics-symbol" aria-roledescription="tick" d="M15.625,116.80000000000001h93.75v1h-93.75Z" fill="#4c78a8" opacity="0.4"/><path aria-label="Group: A; Score: 63.3; group: A" role="graphics-symbol" aria-roledescription="tick" d="M15.625,109.6h93.75v1h-93.75Z" fill="#4c78a8" opacity="0.4"/><path aria-label="Group: A; Score: 61.1; group: A" role="graphics-symbol" aria-roledescription="tick" d="M15.625,116.2h93.75v1h-93.75Z" fill="#4c78a8" opacity="0.4"/><path aria-label="Group: A; Score: 49.5; group: A" role="graphics-symbol" aria-roledescription="tick" d="M15.625,151h93.75v1h-93.75Z" fill="#4c78a8" opacity="0.4"/><path aria-label="Group: A; Score: 64.7; group: A" role="graphics-symbol" aria-roledescription="tick" d="M15.625,105.39999999999999h93.75v1h-93.75Z" fill="#4c78a8" opacity="0.4"/><path aria-label="Group: A; Score: 48.4; group: A" role="graphics-symbol" aria-roledescription="tick" d="M15.625,154.3h93.75v1h-93.75Z" fill="#4c78a8" opacity="0.4"/><path aria-label="Group: A; Score: 79.8; group: A" role="graphics-symbol" aria-roledescription="tick" d="M15.625,60.10000000000002h93.75v1h-93.75Z" fill="#4c78a8" opacity="0.4"/><path aria-label="Group: A; Score: 65.8; group: A" role="graphics-symbol" aria-roledescription="tick" d="M15.625,102.10000000000002h93.75v1h-93.75Z" fill="#4c78a8" opacity="0.4"/><path aria-label="Group: A; Score: 64.9; group: A" role="graphics-symbol" aria-roledescription="tick" d="M15.625,104.8h93.75v1h-93.75Z" fill="#4c78a8" opacity="0.4"/><path aria-label="Group: A; Score: 68.9; group: A" role="graphics-symbol" aria-roledescription="tick" d="M15.625,92.79999999999998h93.75v1h-93.75Z" fill="#4c78a8" opacity="0.4"/><path aria-label="Group: A; Score: 72.2; group: A" role="graphics-symbol" aria-roledescription="tick" d="M15.625,82.9h93.75v1h-93.75Z" fill="#4c78a8" opacity="0.4"/><path aria-label="Group: A; Score: 63.3; group: A" role="graphics-symbol" aria-roledescription="tick" d="M15.625,109.6h93.75v1h-93.75Z" fill="#4c78a8" opacity="0.4"/><path aria-label="Group: A; Score: 68.8; group: A" role="graphics-symbol" aria-roledescription="tick" d="M15.625,93.10000000000002h93.75v1h-93.75Z" fill="#4c78a8" opacity="0.4"/><path aria-label="Group: A; Score: 56.9; group: A" role="graphics-symbol" aria-roledescription="tick" d="M15.625,128.8h93.75v1h-93.75Z" fill="#4c78a8" opacity="0.4"/><path aria-label="Group: A; Score: 57.4; group: A" role="graphics-symbol" aria-roledescription="tick" d="M15.625,127.30000000000001h93.75v1h-93.75Z" fill="#4c78a8" opacity="0.4"/><path aria-label="Group: A; Score: 58.9; group: A" role="graphics-symbol" aria-roledescription="tick" d="M15.625,122.80000000000001h93.75v1h-93.75Z" fill="#4c78a8" opacity="0.4"/><path aria-label="Group: A; Score: 58.2; group: A" role="graphics-symbol" aria-roledescription="tick" d="M15.625,124.89999999999998h93.75v1h-93.75Z" fill="#4c78a8" opacity="0.4"/><path aria-label="Group: A; Score: 69.9; group: A" role="graphics-symbol" aria-roledescription="tick" d="M15.625,89.79999999999998h93.75v1h-93.75Z" fill="#4c78a8" opacity="0.4"/><path aria-label="Group: A; Score: 68.9; group: A" role="graphics-symbol" aria-roledescription="tick" d="M15.625,92.79999999999998h93.75v1h-93.75Z" fill="#4c78a8" opacity="0.4"/><path aria-label="Group: A; Score: 50.6; group: A" role="graphics-symbol" aria-roledescription="tick" d="M15.625,147.7h93.75v1h-93.75Z" fill="#4c78a8" opacity="0.4"/><path aria-label="Group: A; Score: 57.3; group: A" role="graphics-symbol" aria-roledescription="tick" d="M15.625,127.60000000000002h93.75v1h-93.75Z" fill="#4c78a8" opacity="0.4"/><path aria-label="Group: A; Score: 61.4; group: A" role="graphics-symbol" aria-roledescription="tick" d="M15.625,115.3h93.75v1h-93.75Z" fill="#4c78a8" opacity="0.4"/><path aria-label="Group: A; Score: 72.7; group: A" role="graphics-symbol" aria-roledescription="tick" d="M15.625,81.4h93.75v1h-93.75Z" fill="#4c78a8" opacity="0.4"/><path aria-label="Group: A; Score: 50.9; group: A" role="graphics-symbol" aria-roledescription="tick" d="M15.625,146.8h93.75v1h-93.75Z" fill="#4c78a8" opacity="0.4"/><path aria-label="Group: A; Score: 47.2; group: A" role="graphics-symbol" aria-roledescription="tick" d="M15.625,157.9h93.75v1h-93.75Z" fill="#4c78a8" opacity="0.4"/><path aria-label="Group: A; Score: 65.6; group: A" role="graphics-symbol" aria-roledescription="tick" d="M15.625,102.70000000000003h93.75v1h-93.75Z" fill="#4c78a8" opacity="0.4"/><path aria-label="Group: A; Score: 56; group: A" role="graphics-symbol" aria-roledescription="tick" d="M15.625,131.49999999999997h93.75v1h-93.75Z" fill="#4c78a8" opacity="0.4"/><path aria-label="Group: A; Score: 57.7; group: A" role="graphics-symbol" aria-roledescription="tick" d="M15.625,126.39999999999998h93.75v1h-93.75Z" fill="#4c78a8" opacity="0.4"/><path aria-label="Group: A; Score: 56.5; group: A" role="graphics-symbol" aria-roledescription="tick" d="M15.625,130.00000000000003h93.75v1h-93.75Z" fill="#4c78a8" opacity="0.4"/><path aria-label="Group: A; Score: 60.5; group: A" role="graphics-symbol" aria-roledescription="tick" d="M15.625,118h93.75v1h-93.75Z" fill="#4c78a8" opacity="0.4"/><path aria-label="Group: A; Score: 71.7; group: A" role="graphics-symbol" aria-roledescription="tick" d="M15.625,84.39999999999998h93.75v1h-93.75Z" fill="#4c78a8" opacity="0.4"/><path aria-label="Group: A; Score: 70.7; group: A" role="graphics-symbol" aria-roledescription="tick" d="M15.625,87.39999999999998h93.75v1h-93.75Z" fill="#4c78a8" opacity="0.4"/><path aria-label="Group: A; Score: 58.2; group: A" role="graphics-symbol" aria-roledescription="tick" d="M15.625,124.89999999999998h93.75v1h-93.75Z" fill="#4c78a8" opacity="0.4"/><path aria-label="Group: A; Score: 62.2; group: A" role="graphics-symbol" aria-roledescription="tick" d="M15.625,112.9h93.75v1h-93.75Z" fill="#4c78a8" opacity="0.4"/><path aria-label="Group: A; Score: 69.8; group: A" role="graphics-symbol" aria-roledescription="tick" d="M15.625,90.10000000000001h93.75v1h-93.75Z" fill="#4c78a8" opacity="0.4"/><path aria-label="Group: A; Score: 63.3; group: A" role="graphics-symbol" aria-roledescription="tick" d="M15.625,109.6h93.75v1h-93.75Z" fill="#4c78a8" opacity="0.4"/><path aria-label="Group: A; Score: 69.1; group: A" role="graphics-symbol" aria-roledescription="tick" d="M15.625,92.20000000000002h93.75v1h-93.75Z" fill="#4c78a8" opacity="0.4"/><path aria-label="Group: A; Score: 51.7; group: A" role="graphics-symbol" aria-roledescription="tick" d="M15.625,144.4h93.75v1h-93.75Z" fill="#4c78a8" opacity="0.4"/><path aria-label="Group: A; Score: 69.5; group: A" role="graphics-symbol" aria-roledescription="tick" d="M15.625,91.00000000000001h93.75v1h-93.75Z" fill="#4c78a8" opacity="0.4"/><path aria-label="Group: A; Score: 72.6; group: A" role="graphics-symbol" aria-roledescription="tick" d="M15.625,81.7h93.75v1h-93.75Z" fill="#4c78a8" opacity="0.4"/><path aria-label="Group: A; Score: 58.9; group: A" role="graphics-symbol" aria-roledescription="tick" d="M15.625,122.80000000000001h93.75v1h-93.75Z" fill="#4c78a8" opacity="0.4"/><path aria-label="Group: A; Score: 64.3; group: A" role="graphics-symbol" aria-roledescription="tick" d="M15.625,106.6h93.75v1h-93.75Z" fill="#4c78a8" opacity="0.4"/><path aria-label="Group: A; Score: 63.7; group: A" role="graphics-symbol" aria-roledescription="tick" d="M15.625,108.39999999999999h93.75v1h-93.75Z" fill="#4c78a8" opacity="0.4"/><path aria-label="Group: A; Score: 65.9; group: A" role="graphics-symbol" aria-roledescription="tick" d="M15.625,101.8h93.75v1h-93.75Z" fill="#4c78a8" opacity="0.4"/><path aria-label="Group: A; Score: 62.5; group: A" role="graphics-symbol" aria-roledescription="tick" d="M15.625,112h93.75v1h-93.75Z" fill="#4c78a8" opacity="0.4"/><path aria-label="Group: A; Score: 59.6; group: A" role="graphics-symbol" aria-roledescription="tick" d="M15.625,120.7h93.75v1h-93.75Z" fill="#4c78a8" opacity="0.4"/><path aria-label="Group: A; Score: 67; group: A" role="graphics-symbol" aria-roledescription="tick" d="M15.625,98.49999999999999h93.75v1h-93.75Z" fill="#4c78a8" opacity="0.4"/><path aria-label="Group: A; Score: 58.4; group: A" role="graphics-symbol" aria-roledescription="tick" d="M15.625,124.30000000000001h93.75v1h-93.75Z" fill="#4c78a8" opacity="0.4"/><path aria-label="Group: A; Score: 37.8; group: A" role="graphics-symbol" aria-roledescription="tick" d="M15.625,186.10000000000002h93.75v1h-93.75Z" fill="#4c78a8" opacity="0.4"/><path aria-label="Group: A; Score: 51.6; group: A" role="graphics-symbol" aria-roledescription="tick" d="M15.625,144.7h93.75v1h-93.75Z" fill="#4c78a8" opacity="0.4"/><path aria-label="Group: A; Score: 38.1; group: A" role="graphics-symbol" aria-roledescription="tick" d="M15.625,185.2h93.75v1h-93.75Z" fill="#4c78a8" opacity="0.4"/><path aria-label="Group: A; Score: 70.1; group: A" role="graphics-symbol" aria-roledescription="tick" d="M15.625,89.20000000000002h93.75v1h-93.75Z" fill="#4c78a8" opacity="0.4"/><path aria-label="Group: A; Score: 65; group: A" role="graphics-symbol" aria-roledescription="tick" d="M15.625,104.5h93.75v1h-93.75Z" fill="#4c78a8" opacity="0.4"/><path aria-label="Group: A; Score: 66.8; group: A" role="graphics-symbol" aria-roledescription="tick" d="M15.625,99.10000000000002h93.75v1h-93.75Z" fill="#4c78a8" opacity="0.4"/><path aria-label="Group: A; Score: 63; group: A" role="graphics-symbol" aria-roledescription="tick" d="M15.625,110.5h93.75v1h-93.75Z" fill="#4c78a8" opacity="0.4"/><path aria-label="Group: A; Score: 55.2; group: A" role="graphics-symbol" aria-roledescription="tick" d="M15.625,133.89999999999998h93.75v1h-93.75Z" fill="#4c78a8" opacity="0.4"/><path aria-label="Group: A; Score: 49.4; group: A" role="graphics-symbol" aria-roledescription="tick" d="M15.625,151.3h93.75v1h-93.75Z" fill="#4c78a8" opacity="0.4"/><path aria-label="Group: A; Score: 76.6; group: A" role="graphics-symbol" aria-roledescription="tick" d="M15.625,69.70000000000003h93.75v1h-93.75Z" fill="#4c78a8" opacity="0.4"/><path aria-label="Group: A; Score: 60.8; group: A" role="graphics-symbol" aria-roledescription="tick" d="M15.625,117.10000000000001h93.75v1h-93.75Z" fill="#4c78a8" opacity="0.4"/><path aria-label="Group: A; Score: 54.8; group: A" role="graphics-symbol" aria-roledescription="tick" d="M15.625,135.10000000000002h93.75v1h-93.75Z" fill="#4c78a8" opacity="0.4"/><path aria-label="Group: A; Score: 70.7; group: A" role="graphics-symbol" aria-roledescription="tick" d="M15.625,87.39999999999998h93.75v1h-93.75Z" fill="#4c78a8" opacity="0.4"/><path aria-label="Group: A; Score: 63.9; group: A" role="graphics-symbol" aria-roledescription="tick" d="M15.625,107.8h93.75v1h-93.75Z" fill="#4c78a8" opacity="0.4"/><path aria-label="Group: A; Score: 50.6; group: A" role="graphics-symbol" aria-roledescription="tick" d="M15.625,147.7h93.75v1h-93.75Z" fill="#4c78a8" opacity="0.4"/><path aria-label="Group: A; Score: 58.8; group: A" role="graphics-symbol" aria-roledescription="tick" d="M15.625,123.10000000000001h93.75v1h-93.75Z" fill="#4c78a8" opacity="0.4"/><path aria-label="Group: A; Score: 56.5; group: A" role="graphics-symbol" aria-roledescription="tick" d="M15.625,130.00000000000003h93.75v1h-93.75Z" fill="#4c78a8" opacity="0.4"/><path aria-label="Group: A; Score: 63.5; group: A" role="graphics-symbol" aria-roledescription="tick" d="M15.625,109h93.75v1h-93.75Z" fill="#4c78a8" opacity="0.4"/><path aria-label="Group: A; Score: 52.2; group: A" role="graphics-symbol" aria-roledescription="tick" d="M15.625,142.9h93.75v1h-93.75Z" fill="#4c78a8" opacity="0.4"/><path aria-label="Group: B; Score: 25.5; group: B" role="graphics-symbol" aria-roledescription="tick" d="M140.625,223h93.75v1h-93.75Z" fill="#f58518" opacity="0.4"/><path aria-label="Group: B; Score: 22.1; group: B" role="graphics-symbol" aria-roledescription="tick" d="M140.625,233.20000000000002h93.75v1h-93.75Z" fill="#f58518" opacity="0.4"/><path aria-label="Group: B; Score: 9.8; group: B" role="graphics-symbol" aria-roledescription="tick" d="M140.625,270.1h93.75v1h-93.75Z" fill="#f58518" opacity="0.4"/><path aria-label="Group: B; Score: 21.5; group: B" role="graphics-symbol" aria-roledescription="tick" d="M140.625,235h93.75v1h-93.75Z" fill="#f58518" opacity="0.4"/><path aria-label="Group: B; Score: 19.5; group: B" role="graphics-symbol" aria-roledescription="tick" d="M140.625,240.99999999999997h93.75v1h-93.75Z" fill="#f58518" opacity="0.4"/><path aria-label="Group: B; Score: 20.6; group: B" role="graphics-symbol" aria-roledescription="tick" d="M140.625,237.70000000000002h93.75v1h-93.75Z" fill="#f58518" opacity="0.4"/><path aria-label="Group: B; Score: 28.6; group: B" role="graphics-symbol" aria-roledescription="tick" d="M140.625,213.7h93.75v1h-93.75Z" fill="#f58518" opacity="0.4"/><path aria-label="Group: B; Score: 24.6; group: B" role="graphics-symbol" aria-roledescription="tick" d="M140.625,225.7h93.75v1h-93.75Z" fill="#f58518" opacity="0.4"/><path aria-label="Group: B; Score: 10.9; group: B" role="graphics-symbol" aria-roledescription="tick" d="M140.625,266.8h93.75v1h-93.75Z" fill="#f58518" opacity="0.4"/><path aria-label="Group: B; Score: 33.6; group: B" role="graphics-symbol" aria-roledescription="tick" d="M140.625,198.7h93.75v1h-93.75Z" fill="#f58518" opacity="0.4"/><path aria-label="Group: B; Score: 23.3; group: B" role="graphics-symbol" aria-roledescription="tick" d="M140.625,229.6h93.75v1h-93.75Z" fill="#f58518" opacity="0.4"/><path aria-label="Group: B; Score: 10.9; group: B" role="graphics-symbol" aria-roledescription="tick" d="M140.625,266.8h93.75v1h-93.75Z" fill="#f58518" opacity="0.4"/><path aria-label="Group: B; Score: 23.3; group: B" role="graphics-symbol" aria-roledescription="tick" d="M140.625,229.6h93.75v1h-93.75Z" fill="#f58518" opacity="0.4"/><path aria-label="Group: B; Score: 21.2; group: B" role="graphics-symbol" aria-roledescription="tick" d="M140.625,235.9h93.75v1h-93.75Z" fill="#f58518" opacity="0.4"/><path aria-label="Group: B; Score: 35.4; group: B" role="graphics-symbol" aria-roledescription="tick" d="M140.625,193.3h93.75v1h-93.75Z" fill="#f58518" opacity="0.4"/><path aria-label="Group: B; Score: 19.1; group: B" role="graphics-symbol" aria-roledescription="tick" d="M140.625,242.2h93.75v1h-93.75Z" fill="#f58518" opacity="0.4"/><path aria-label="Group: B; Score: 31.6; group: B" role="graphics-symbol" aria-roledescription="tick" d="M140.625,204.7h93.75v1h-93.75Z" fill="#f58518" opacity="0.4"/><path aria-label="Group: B; Score: 24.7; group: B" role="graphics-symbol" aria-roledescription="tick" d="M140.625,225.4h93.75v1h-93.75Z" fill="#f58518" opacity="0.4"/><path aria-label="Group: B; Score: 44.3; group: B" role="graphics-symbol" aria-roledescription="tick" d="M140.625,166.60000000000002h93.75v1h-93.75Z" fill="#f58518" opacity="0.4"/><path aria-label="Group: B; Score: 30.3; group: B" role="graphics-symbol" aria-roledescription="tick" d="M140.625,208.60000000000002h93.75v1h-93.75Z" fill="#f58518" opacity="0.4"/><path aria-label="Group: B; Score: 31; group: B" role="graphics-symbol" aria-roledescription="tick" d="M140.625,206.49999999999997h93.75v1h-93.75Z" fill="#f58518" opacity="0.4"/><path aria-label="Group: B; Score: 30.3; group: B" role="graphics-symbol" aria-roledescription="tick" d="M140.625,208.60000000000002h93.75v1h-93.75Z" fill="#f58518" opacity="0.4"/><path aria-label="Group: B; Score: 34.7; group: B" role="graphics-symbol" aria-roledescription="tick" d="M140.625,195.4h93.75v1h-93.75Z" fill="#f58518" opacity="0.4"/><path aria-label="Group: B; Score: 21.6; group: B" role="graphics-symbol" aria-roledescription="tick" d="M140.625,234.70000000000002h93.75v1h-93.75Z" fill="#f58518" opacity="0.4"/><path aria-label="Group: B; Score: 32.6; group: B" role="graphics-symbol" aria-roledescription="tick" d="M140.625,201.7h93.75v1h-93.75Z" fill="#f58518" opacity="0.4"/><path aria-label="Group: B; Score: 26.6; group: B" role="graphics-symbol" aria-roledescription="tick" d="M140.625,219.7h93.75v1h-93.75Z" fill="#f58518" opacity="0.4"/><path aria-label="Group: B; Score: 25.4; group: B" role="graphics-symbol" aria-roledescription="tick" d="M140.625,223.3h93.75v1h-93.75Z" fill="#f58518" opacity="0.4"/><path aria-label="Group: B; Score: 22.2; group: B" role="graphics-symbol" aria-roledescription="tick" d="M140.625,232.9h93.75v1h-93.75Z" fill="#f58518" opacity="0.4"/><path aria-label="Group: B; Score: 25.4; group: B" role="graphics-symbol" aria-roledescription="tick" d="M140.625,223.3h93.75v1h-93.75Z" fill="#f58518" opacity="0.4"/><path aria-label="Group: B; Score: 21.7; group: B" role="graphics-symbol" aria-roledescription="tick" d="M140.625,234.4h93.75v1h-93.75Z" fill="#f58518" opacity="0.4"/><path aria-label="Group: B; Score: 15.5; group: B" role="graphics-symbol" aria-roledescription="tick" d="M140.625,253h93.75v1h-93.75Z" fill="#f58518" opacity="0.4"/><path aria-label="Group: B; Score: 18.2; group: B" role="graphics-symbol" aria-roledescription="tick" d="M140.625,244.9h93.75v1h-93.75Z" fill="#f58518" opacity="0.4"/><path aria-label="Group: B; Score: 23.1; group: B" role="graphics-symbol" aria-roledescription="tick" d="M140.625,230.20000000000002h93.75v1h-93.75Z" fill="#f58518" opacity="0.4"/><path aria-label="Group: B; Score: 28.9; group: B" role="graphics-symbol" aria-roledescription="tick" d="M140.625,212.8h93.75v1h-93.75Z" fill="#f58518" opacity="0.4"/><path aria-label="Group: B; Score: 14.7; group: B" role="graphics-symbol" aria-roledescription="tick" d="M140.625,255.4h93.75v1h-93.75Z" fill="#f58518" opacity="0.4"/><path aria-label="Group: B; Score: 26.8; group: B" role="graphics-symbol" aria-roledescription="tick" d="M140.625,219.1h93.75v1h-93.75Z" fill="#f58518" opacity="0.4"/><path aria-label="Group: B; Score: 25.8; group: B" role="graphics-symbol" aria-roledescription="tick" d="M140.625,222.1h93.75v1h-93.75Z" fill="#f58518" opacity="0.4"/><path aria-label="Group: B; Score: 26; group: B" role="graphics-symbol" aria-roledescription="tick" d="M140.625,221.5h93.75v1h-93.75Z" fill="#f58518" opacity="0.4"/><path aria-label="Group: B; Score: 14.1; group: B" role="graphics-symbol" aria-roledescription="tick" d="M140.625,257.2h93.75v1h-93.75Z" fill="#f58518" opacity="0.4"/><path aria-label="Group: B; Score: 24.9; group: B" role="graphics-symbol" aria-roledescription="tick" d="M140.625,224.8h93.75v1h-93.75Z" fill="#f58518" opacity="0.4"/><path aria-label="Group: B; Score: 98.2; group: B" role="graphics-symbol" aria-roledescription="tick" d="M140.625,4.900000000000005h93.75v1h-93.75Z" fill="#f58518" opacity="0.4"/><path aria-label="Group: B; Score: 83; group: B" role="graphics-symbol" aria-roledescription="tick" d="M140.625,50.500000000000014h93.75v1h-93.75Z" fill="#f58518" opacity="0.4"/><path aria-label="Group: B; Score: 80.8; group: B" role="graphics-symbol" aria-roledescription="tick" d="M140.625,57.100000000000016h93.75v1h-93.75Z" fill="#f58518" opacity="0.4"/><path aria-label="Group: B; Score: 95.1; group: B" role="graphics-symbol" aria-roledescription="tick" d="M140.625,14.200000000000014h93.75v1h-93.75Z" fill="#f58518" opacity="0.4"/><path aria-label="Group: B; Score: 82.6; group: B" role="graphics-symbol" aria-roledescription="tick" d="M140.625,51.70000000000001h93.75v1h-93.75Z" fill="#f58518" opacity="0.4"/><path aria-label="Group: B; Score: 100; group: B" role="graphics-symbol" aria-roledescription="tick" d="M140.625,-0.5h93.75v1h-93.75Z" fill="#f58518" opacity="0.4"/><path aria-label="Group: B; Score: 87.8; group: B" role="graphics-symbol" aria-roledescription="tick" d="M140.625,36.1h93.75v1h-93.75Z" fill="#f58518" opacity="0.4"/><path aria-label="Group: B; Score: 93.1; group: B" role="graphics-symbol" aria-roledescription="tick" d="M140.625,20.200000000000017h93.75v1h-93.75Z" fill="#f58518" opacity="0.4"/><path aria-label="Group: B; Score: 95.9; group: B" role="graphics-symbol" aria-roledescription="tick" d="M140.625,11.799999999999978h93.75v1h-93.75Z" fill="#f58518" opacity="0.4"/><path aria-label="Group: B; Score: 86.5; group: B" role="graphics-symbol" aria-roledescription="tick" d="M140.625,40h93.75v1h-93.75Z" fill="#f58518" opacity="0.4"/><path aria-label="Group: B; Score: 90.5; group: B" role="graphics-symbol" aria-roledescription="tick" d="M140.625,27.999999999999993h93.75v1h-93.75Z" fill="#f58518" opacity="0.4"/><path aria-label="Group: B; Score: 94.1; group: B" role="graphics-symbol" aria-roledescription="tick" d="M140.625,17.200000000000017h93.75v1h-93.75Z" fill="#f58518" opacity="0.4"/><path aria-label="Group: B; Score: 78.1; group: B" role="graphics-symbol" aria-roledescription="tick" d="M140.625,65.20000000000003h93.75v1h-93.75Z" fill="#f58518" opacity="0.4"/><path aria-label="Group: B; Score: 86; group: B" role="graphics-symbol" aria-roledescription="tick" d="M140.625,41.50000000000001h93.75v1h-93.75Z" fill="#f58518" opacity="0.4"/><path aria-label="Group: B; Score: 92.1; group: B" role="graphics-symbol" aria-roledescription="tick" d="M140.625,23.20000000000002h93.75v1h-93.75Z" fill="#f58518" opacity="0.4"/><path aria-label="Group: B; Score: 96.9; group: B" role="graphics-symbol" aria-roledescription="tick" d="M140.625,8.799999999999976h93.75v1h-93.75Z" fill="#f58518" opacity="0.4"/><path aria-label="Group: B; Score: 93.4; group: B" role="graphics-symbol" aria-roledescription="tick" d="M140.625,19.299999999999983h93.75v1h-93.75Z" fill="#f58518" opacity="0.4"/><path aria-label="Group: B; Score: 79.1; group: B" role="graphics-symbol" aria-roledescription="tick" d="M140.625,62.200000000000024h93.75v1h-93.75Z" fill="#f58518" opacity="0.4"/><path aria-label="Group: B; Score: 81.2; group: B" role="graphics-symbol" aria-roledescription="tick" d="M140.625,55.899999999999984h93.75v1h-93.75Z" fill="#f58518" opacity="0.4"/><path aria-label="Group: B; Score: 81.3; group: B" role="graphics-symbol" aria-roledescription="tick" d="M140.625,55.600000000000016h93.75v1h-93.75Z" fill="#f58518" opacity="0.4"/><path aria-label="Group: B; Score: 76.6; group: B" role="graphics-symbol" aria-roledescription="tick" d="M140.625,69.70000000000003h93.75v1h-93.75Z" fill="#f58518" opacity="0.4"/><path aria-label="Group: B; Score: 89.9; group: B" role="graphics-symbol" aria-roledescription="tick" d="M140.625,29.799999999999994h93.75v1h-93.75Z" fill="#f58518" opacity="0.4"/><path aria-label="Group: B; Score: 87.8; group: B" role="graphics-symbol" aria-roledescription="tick" d="M140.625,36.1h93.75v1h-93.75Z" fill="#f58518" opacity="0.4"/><path aria-label="Group: B; Score: 97.7; group: B" role="graphics-symbol" aria-roledescription="tick" d="M140.625,6.400000000000006h93.75v1h-93.75Z" fill="#f58518" opacity="0.4"/><path aria-label="Group: B; Score: 92.5; group: B" role="graphics-symbol" aria-roledescription="tick" d="M140.625,21.999999999999986h93.75v1h-93.75Z" fill="#f58518" opacity="0.4"/><path aria-label="Group: B; Score: 94.2; group: B" role="graphics-symbol" aria-roledescription="tick" d="M140.625,16.89999999999998h93.75v1h-93.75Z" fill="#f58518" opacity="0.4"/><path aria-label="Group: B; Score: 100; group: B" role="graphics-symbol" aria-roledescription="tick" d="M140.625,-0.5h93.75v1h-93.75Z" fill="#f58518" opacity="0.4"/><path aria-label="Group: B; Score: 96.1; group: B" role="graphics-symbol" aria-roledescription="tick" d="M140.625,11.20000000000001h93.75v1h-93.75Z" fill="#f58518" opacity="0.4"/><path aria-label="Group: B; Score: 93; group: B" role="graphics-symbol" aria-roledescription="tick" d="M140.625,20.499999999999986h93.75v1h-93.75Z" fill="#f58518" opacity="0.4"/><path aria-label="Group: B; Score: 88.6; group: B" role="graphics-symbol" aria-roledescription="tick" d="M140.625,33.70000000000003h93.75v1h-93.75Z" fill="#f58518" opacity="0.4"/><path aria-label="Group: B; Score: 86.7; group: B" role="graphics-symbol" aria-roledescription="tick" d="M140.625,39.400000000000006h93.75v1h-93.75Z" fill="#f58518" opacity="0.4"/><path aria-label="Group: B; Score: 80.9; group: B" role="graphics-symbol" aria-roledescription="tick" d="M140.625,56.79999999999998h93.75v1h-93.75Z" fill="#f58518" opacity="0.4"/><path aria-label="Group: B; Score: 94.1; group: B" role="graphics-symbol" aria-roledescription="tick" d="M140.625,17.200000000000017h93.75v1h-93.75Z" fill="#f58518" opacity="0.4"/><path aria-label="Group: B; Score: 85.6; group: B" role="graphics-symbol" aria-roledescription="tick" d="M140.625,42.7h93.75v1h-93.75Z" fill="#f58518" opacity="0.4"/><path aria-label="Group: B; Score: 100; group: B" role="graphics-symbol" aria-roledescription="tick" d="M140.625,-0.5h93.75v1h-93.75Z" fill="#f58518" opacity="0.4"/><path aria-label="Group: B; Score: 81.1; group: B" role="graphics-symbol" aria-roledescription="tick" d="M140.625,56.20000000000002h93.75v1h-93.75Z" fill="#f58518" opacity="0.4"/><path aria-label="Group: B; Score: 87.9; group: B" role="graphics-symbol" aria-roledescription="tick" d="M140.625,35.8h93.75v1h-93.75Z" fill="#f58518" opacity="0.4"/><path aria-label="Group: B; Score: 92.3; group: B" role="graphics-symbol" aria-roledescription="tick" d="M140.625,22.60000000000002h93.75v1h-93.75Z" fill="#f58518" opacity="0.4"/><path aria-label="Group: B; Score: 84.6; group: B" role="graphics-symbol" aria-roledescription="tick" d="M140.625,45.70000000000001h93.75v1h-93.75Z" fill="#f58518" opacity="0.4"/><path aria-label="Group: B; Score: 87.2; group: B" role="graphics-symbol" aria-roledescription="tick" d="M140.625,37.9h93.75v1h-93.75Z" fill="#f58518" opacity="0.4"/></g><g class="mark-group role-title"><g transform="translate(125,-22)"><path class="background" aria-hidden="true" d="M0,0h0v0h0Z" pointer-events="none"/><g><g class="mark-text role-title-text" role="graphics-symbol" aria-roledescription="title" aria-label="Title text 'Score Distribution by Group (Strip Plot)'" pointer-events="none"><text text-anchor="middle" transform="translate(0,10)" font-family="sans-serif" font-size="13px" font-weight="bold" fill="#000" opacity="1">Score Distribution by Group (Strip Plot)</text></g></g><path class="foreground" aria-hidden="true" d="" pointer-events="none" display="none"/></g></g></g><path class="foreground" aria-hidden="true" d="" display="none"/></g></g></g></svg>