<svg xmlns="http://www.w3.org/2000/svg" xmlns:xlink="http://www.w3.org/1999/xlink" version="1.1" class="marks" width="445" height="364" viewBox="0 0 445 364"><rect width="445" height="364" fill="white"/><g fill="none" stroke-miterlimit="10" transform="translate(39,27)"><g class="mark-group role-frame root" role="graphics-object" aria-roledescription="group mark container"><g transform="translate(0,0)"><path class="background" aria-hidden="true" d="M0.5,0.5h400v300h-400Z" stroke="#ddd"/><g><g class="mark-group role-axis" aria-hidden="true"><g transform="translate(0.5,300.5)"><path class="background" aria-hidden="true" d="M0,0h0v0h0Z" pointer-events="none"/><g><g class="mark-rule role-axis-grid" pointer-events="none"><line transform="translate(0,-300)" x2="0" y2="300" stroke="#ddd" stroke-width="1" opacity="1"/><line transform="translate(50,-300)" x2="0" y2="300" stroke="#ddd" stroke-width="1" opacity="1"/><line transform="translate(100,-300)" x2="0" y2="300" stroke="#ddd" stroke-width="1" opacity="1"/><line transform="translate(150,-300)" x2="0" y2="300" stroke="#ddd" stroke-width="1" opacity="1"/><line transform="translate(200,-300)" x2="0" y2="300" stroke="#ddd" stroke-width="1" opacity="1"/><line transform="translate(250,-300)" x2="0" y2="300" stroke="#ddd" stroke-width="1" opacity="1"/><line transform="translate(300,-300)" x2="0" y2="300" stroke="#ddd" stroke-width="1" opacity="1"/><line transform="translate(350,-300)" x2="0" y2="300" stroke="#ddd" stroke-width="1" opacity="1"/><line transform="translate(400,-300)" x2="0" y2="300" stroke="#ddd" stroke-width="1" opacity="1"/></g></g><path class="foreground" aria-hidden="true" d="" pointer-events="none" display="none"/></g></g><g class="mark-group role-axis" aria-hidden="true"><g transform="translate(0.5,0.5)"><path class="background" aria-hidden="true" d="M0,0h0v0h0Z" pointer-events="none"/><g><g class="mark-rule role-axis-grid" pointer-events="none"><line transform="translate(0,300)" x2="400" y2="0" stroke="#ddd" stroke-width="1" opacity="1"/><line transform="translate(0,267)" x2="400" y2="0" stroke="#ddd" stroke-width="1" opacity="1"/><line transform="translate(0,233)" x2="400" y2="0" stroke="#ddd" stroke-width="1" opacity="1"/><line transform="translate(0,200)" x2="400" y2="0" stroke="#ddd" stroke-width="1" opacity="1"/><line transform="translate(0,167)" x2="400" y2="0" stroke="#ddd" stroke-width="1" opacity="1"/><line transform="translate(0,133)" x2="400" y2="0" stroke="#ddd" stroke-width="1" opacity="1"/><line transform="translate(0,100)" x2="400" y2="0" stroke="#ddd" stroke-width="1" opacity="1"/><line transform="translate(0,67)" x2="400" y2="0" stroke="#ddd" stroke-width="1" opacity="1"/><line transform="translate(0,33)" x2="400" y2="0" stroke="#ddd" stroke-width="1" opacity="1"/><line transform="translate(0,0)" x2="400" y2="0" stroke="#ddd" stroke-width="1" opacity="1"/></g></g><path class="foreground" aria-hidden="true" d="" pointer-events="none" display="none"/></g></g><g class="mark-group role-axis" role="graphics-symbol" aria-roledescription="axis" aria-label="X-axis titled 'Hours Studied per Week' for a linear scale with values from 0 to 8"><g transform="translate(0.5,300.5)"><path class="background" aria-hidden="true" d="M0,0h0v0h0Z" pointer-events="none"/><g><g class="mark-rule role-axis-tick" pointer-events="none"><line transform="translate(0,0)" x2="0" y2="5" stroke="#888" stroke-width="1" opacity="1"/><line transform="translate(50,0)" x2="0" y2="5" stroke="#888" stroke-width="1" opacity="1"/><line transform="translate(100,0)" x2="0" y2="5" stroke="#888" stroke-width="1" opacity="1"/><line transform="translate(150,0)" x2="0" y2="5" stroke="#888" stroke-width="1" opacity="1"/><line transform="translate(200,0)" x2="0" y2="5" stroke="#888" stroke-width="1" opacity="1"/><line transform="translate(250,0)" x2="0" y2="5" stroke="#888" stroke-width="1" opacity="1"/><line transform="translate(300,0)" x2="0" y2="5" stroke="#888" stroke-width="1" opacity="1"/><line transform="translate(350,0)" x2="0" y2="5" stroke="#888" stroke-width="1" opacity="1"/><line transform="translate(400,0)" x2="0" y2="5" stroke="#888" stroke-width="1" opacity="1"/></g><g class="mark-text role-axis-label" pointer-events="none"><text text-anchor="start" transform="translate(0,15)" font-family="sans-serif" font-size="10px" fill="#000" opacity="1">0</text><text text-anchor="middle" transform="translate(50,15)" font-family="sans-serif" font-size="10px" fill="#000" opacity="1">1</text><text text-anchor="middle" transform="translate(100,15)" font-family="sans-serif" font-size="10px" fill="#000" opacity="1">2</text><text text-anchor="middle" transform="translate(150,15)" font-family="sans-serif" font-size="10px" fill="#000" opacity="1">3</text><text text-anchor="middle" transform="translate(200,15)" font-family="sans-serif" font-size="10px" fill="#000" opacity="1">4</text><text text-anchor="middle" transform="translate(250,15)" font-family="sans-serif" font-size="10px" fill="#000" opacity="1">5</text><text text-anchor="middle" transform="translate(300,15)" font-family="sans-serif" font-size="10px" fill="#000" opacity="1">6</text><text text-anchor="middle" transform="translate(350,15)" font-family="sans-serif" font-size="10px" fill="#000" opacity="1">7</text><text text-anchor="end" transform="translate(400,15)" font-family="sans-serif" font-size="10px" fill="#000" opacity="1">8</text></g><g class="mark-rule role-axis-domain" pointer-events="none"><line transform="translate(0,0)" x2="400" y2="0" stroke="#888" stroke-width="1" opacity="1"/></g><g class="mark-text role-axis-title" pointer-events="none"><text text-anchor="middle" transform="translate(200,30)" font-family="sans-serif" font-size="11px" font-weight="bold" fill="#000" opacity="1">Hours Studied per Week</text></g></g><path class="foreground" aria-hidden="true" d="" pointer-events="none" display="none"/></g></g><g class="mark-group role-axis" role="graphics-symbol" aria-roledescription="axis" aria-label="Y-axis titled 'Exam Score' for a linear scale with values from 0 to 90"><g transform="translate(0.5,0.5)"><path class="background" aria-hidden="true" d="M0,0h0v0h0Z" pointer-events="none"/><g><g class="mark-rule role-axis-tick" pointer-events="none"><line transform="translate(0,300)" x2="-5" y2="0" stroke="#888" stroke-width="1" opacity="1"/><line transform="translate(0,267)" x2="-5" y2="0" stroke="#888" stroke-width="1" opacity="1"/><line transform="translate(0,233)" x2="-5" y2="0" stroke="#888" stroke-width="1" opacity="1"/><line transform="translate(0,200)" x2="-5" y2="0" stroke="#888" stroke-width="1" opacity="1"/><line transform="translate(0,167)" x2="-5" y2="0" stroke="#888" stroke-width="1" opacity="1"/><line transform="translate(0,133)" x2="-5" y2="0" stroke="#888" stroke-width="1" opacity="1"/><line transform="translate(0,100)" x2="-5" y2="0" stroke="#888" stroke-width="1" opacity="1"/><line transform="translate(0,67)" x2="-5" y2="0" stroke="#888" stroke-width="1" opacity="1"/><line transform="translate(0,33)" x2="-5" y2="0" stroke="#888" stroke-width="1" opacity="1"/><line transform="translate(0,0)" x2="-5" y2="0" stroke="#888" stroke-width="1" opacity="1"/></g><g class="mark-text role-axis-label" pointer-events="none"><text text-anchor="end" transform="translate(-7,303)" font-family="sans-serif" font-size="10px" fill="#000" opacity="1">0</text><text text-anchor="end" transform="translate(-7,269.66666666666663)" font-family="sans-serif" font-size="10px" fill="#000" opacity="1">10</text><text text-anchor="end" transform="translate(-7,236.33333333333334)" font-family="sans-serif" font-size="10px" fill="#000" opacity="1">20</text><text text-anchor="end" transform="translate(-7,203.00000000000003)" font-family="sans-serif" font-size="10px" fill="#000" opacity="1">30</text><text text-anchor="end" transform="translate(-7,169.66666666666669)" font-family="sans-serif" font-size="10px" fill="#000" opacity="1">40</text><text text-anchor="end" transform="translate(-7,136.33333333333331)" font-family="sans-serif" font-size="10px" fill="#000" opacity="1">50</text><text text-anchor="end" transform="translate(-7,103.00000000000001)" font-family="sans-serif" font-size="10px" fill="#000" opacity="1">60</text><text text-anchor="end" transform="translate(-7,69.66666666666666)" font-family="sans-serif" font-size="10px" fill="#000" opacity="1">70</text><text text-anchor="end" transform="translate(-7,36.33333333333335)" font-family="sans-serif" font-size="10px" fill="#000" opacity="1">80</text><text text-anchor="end" transform="translate(-7,3)" font-family="sans-serif" font-size="10px" fill="#000" opacity="1">90</text></g><g class="mark-rule role-axis-domain" pointer-events="none"><line transform="translate(0,300)" x2="0" y2="-300" stroke="#888" stroke-width="1" opacity="1"/></g><g class="mark-text role-axis-title" pointer-events="none"><text text-anchor="middle" transform="translate(-22.123046875,150) rotate(-90) translate(0,-2)" font-family="sans-serif" font-size="11px" font-weight="bold" fill="#000" opacity="1">Exam Score</text></g></g><path class="foreground" aria-hidden="true" d="" pointer-events="none" display="none"/></g></g><g class="mark-symbol role-mark layer_0_marks" role="graphics-object" aria-roledescription="symbol mark container"><path aria-label="Hours Studied per Week: 2.4; Exam Score: 87.6" role="graphics-symbol" aria-roledescription="circle" transform="translate(120,8.000000000000018)" d="M3.162,0A3.162,3.162,0,1,1,-3.162,0A3.162,3.162,0,1,1,3.162,0" fill="steelblue" stroke-width="2" opacity="0.6"/><path aria-label="Hours Studied per Week: 3.2; Exam Score: 79.2" role="graphics-symbol" aria-roledescription="circle" transform="translate(160,36)" d="M3.162,0A3.162,3.162,0,1,1,-3.162,0A3.162,3.162,0,1,1,3.162,0" fill="steelblue" stroke-width="2" opacity="0.6"/><path aria-label="Hours Studied per Week: 3.2; Exam Score: 75" role="graphics-symbol" aria-roledescription="circle" transform="translate(160,49.999999999999986)" d="M3.162,0A3.162,3.162,0,1,1,-3.162,0A3.162,3.162,0,1,1,3.162,0" fill="steelblue" stroke-width="2" opacity="0.6"/><path aria-label="Hours Studied per Week: 2.12; Exam Score: 70.9" role="graphics-symbol" aria-roledescription="circle" transform="translate(106,63.66666666666666)" d="M3.162,0A3.162,3.162,0,1,1,-3.162,0A3.162,3.162,0,1,1,3.162,0" fill="steelblue" stroke-width="2" opacity="0.6"/><path aria-label="Hours Studied per Week: 2.58; Exam Score: 78.8" role="graphics-symbol" aria-roledescription="circle" transform="translate(129,37.33333333333334)" d="M3.162,0A3.162,3.162,0,1,1,-3.162,0A3.162,3.162,0,1,1,3.162,0" fill="steelblue" stroke-width="2" opacity="0.6"/><path aria-label="Hours Studied per Week: 2.7; Exam Score: 72.5" role="graphics-symbol" aria-roledescription="circle" transform="translate(135,58.33333333333333)" d="M3.162,0A3.162,3.162,0,1,1,-3.162,0A3.162,3.162,0,1,1,3.162,0" fill="steelblue" stroke-width="2" opacity="0.6"/><path aria-label="Hours Studied per Week: 3.02; Exam Score: 87.2" role="graphics-symbol" aria-roledescription="circle" transform="translate(151,9.333333333333327)" d="M3.162,0A3.162,3.162,0,1,1,-3.162,0A3.162,3.162,0,1,1,3.162,0" fill="steelblue" stroke-width="2" opacity="0.6"/><path aria-label="Hours Studied per Week: 2.04; Exam Score: 70.1" role="graphics-symbol" aria-roledescription="circle" transform="translate(102,66.33333333333334)" d="M3.162,0A3.162,3.162,0,1,1,-3.162,0A3.162,3.162,0,1,1,3.162,0" fill="steelblue" stroke-width="2" opacity="0.6"/><path aria-label="Hours Studied per Week: 2.93; Exam Score: 78.9" role="graphics-symbol" aria-roledescription="circle" transform="translate(146.5,36.999999999999986)" d="M3.162,0A3.162,3.162,0,1,1,-3.162,0A3.162,3.162,0,1,1,3.162,0" fill="steelblue" stroke-width="2" opacity="0.6"/><path aria-label="Hours Studied per Week: 3.96; Exam Score: 81.1" role="graphics-symbol" aria-roledescription="circle" transform="translate(198,29.666666666666675)" d="M3.162,0A3.162,3.162,0,1,1,-3.162,0A3.162,3.162,0,1,1,3.162,0" fill="steelblue" stroke-width="2" opacity="0.6"/><path aria-label="Hours Studied per Week: 2.21; Exam Score: 77.2" role="graphics-symbol" aria-roledescription="circle" transform="translate(110.5,42.66666666666664)" d="M3.162,0A3.162,3.162,0,1,1,-3.162,0A3.162,3.162,0,1,1,3.162,0" fill="steelblue" stroke-width="2" opacity="0.6"/><path aria-label="Hours Studied per Week: 3.39; Exam Score: 83.9" role="graphics-symbol" aria-roledescription="circle" transform="translate(169.5,20.333333333333314)" d="M3.162,0A3.162,3.162,0,1,1,-3.162,0A3.162,3.162,0,1,1,3.162,0" fill="steelblue" stroke-width="2" opacity="0.6"/><path aria-label="Hours Studied per Week: 2.44; Exam Score: 75.1" role="graphics-symbol" aria-roledescription="circle" transform="translate(122,49.66666666666667)" d="M3.162,0A3.162,3.162,0,1,1,-3.162,0A3.162,3.162,0,1,1,3.162,0" fill="steelblue" stroke-width="2" opacity="0.6"/><path aria-label="Hours Studied per Week: 2.61; Exam Score: 83.2" role="graphics-symbol" aria-roledescription="circle" transform="translate(130.5,22.666666666666647)" d="M3.162,0A3.162,3.162,0,1,1,-3.162,0A3.162,3.162,0,1,1,3.162,0" fill="steelblue" stroke-width="2" opacity="0.6"/><path aria-label="Hours Studied per Week: 3.28; Exam Score: 82.4" role="graphics-symbol" aria-roledescription="circle" transform="translate(164,25.33333333333333)" d="M3.162,0A3.162,3.162,0,1,1,-3.162,0A3.162,3.162,0,1,1,3.162,0" fill="steelblue" stroke-width="2" opacity="0.6"/><path aria-label="Hours Studied per Week: 3.15; Exam Score: 82.5" role="graphics-symbol" aria-roledescription="circle" transform="translate(157.5,25.00000000000001)" d="M3.162,0A3.162,3.162,0,1,1,-3.162,0A3.162,3.162,0,1,1,3.162,0" fill="steelblue" stroke-width="2" opacity="0.6"/><path aria-label="Hours Studied per Week: 3.12; Exam Score: 79.6" role="graphics-symbol" aria-roledescription="circle" transform="translate(156,34.66666666666669)" d="M3.162,0A3.162,3.162,0,1,1,-3.162,0A3.162,3.162,0,1,1,3.162,0" fill="steelblue" stroke-width="2" opacity="0.6"/><path aria-label="Hours Studied per Week: 3.19; Exam Score: 78" role="graphics-symbol" aria-roledescription="circle" transform="translate(159.5,39.99999999999999)" d="M3.162,0A3.162,3.162,0,1,1,-3.162,0A3.162,3.162,0,1,1,3.162,0" fill="steelblue" stroke-width="2" opacity="0.6"/><path aria-label="Hours Studied per Week: 3.3; Exam Score: 88.4" role="graphics-symbol" aria-roledescription="circle" transform="translate(165,5.333333333333301)" d="M3.162,0A3.162,3.162,0,1,1,-3.162,0A3.162,3.162,0,1,1,3.162,0" fill="steelblue" stroke-width="2" opacity="0.6"/><path aria-label="Hours Studied per Week: 2.64; Exam Score: 75" role="graphics-symbol" aria-roledescription="circle" transform="translate(132,49.999999999999986)" d="M3.162,0A3.162,3.162,0,1,1,-3.162,0A3.162,3.162,0,1,1,3.162,0" fill="steelblue" stroke-width="2" opacity="0.6"/><path aria-label="Hours Studied per Week: 3.29; Exam Score: 80.2" role="graphics-symbol" aria-roledescription="circle" transform="translate(164.5,32.66666666666664)" d="M3.162,0A3.162,3.162,0,1,1,-3.162,0A3.162,3.162,0,1,1,3.162,0" fill="steelblue" stroke-width="2" opacity="0.6"/><path aria-label="Hours Studied per Week: 3.05; Exam Score: 83.2" role="graphics-symbol" aria-roledescription="circle" transform="translate(152.5,22.666666666666647)" d="M3.162,0A3.162,3.162,0,1,1,-3.162,0A3.162,3.162,0,1,1,3.162,0" fill="steelblue" stroke-width="2" opacity="0.6"/><path aria-label="Hours Studied per Week: 3.87; Exam Score: 81.3" role="graphics-symbol" aria-roledescription="circle" transform="translate(193.5,29.000000000000004)" d="M3.162,0A3.162,3.162,0,1,1,-3.162,0A3.162,3.162,0,1,1,3.162,0" fill="steelblue" stroke-width="2" opacity="0.6"/><path aria-label="Hours Studied per Week: 2.75; Exam Score: 78.7" role="graphics-symbol" aria-roledescription="circle" transform="translate(137.5,37.66666666666666)" d="M3.162,0A3.162,3.162,0,1,1,-3.162,0A3.162,3.162,0,1,1,3.162,0" fill="steelblue" stroke-width="2" opacity="0.6"/><path aria-label="Hours Studied per Week: 2.44; Exam Score: 75.2" role="graphics-symbol" aria-roledescription="circle" transform="translate(122,49.333333333333314)" d="M3.162,0A3.162,3.162,0,1,1,-3.162,0A3.162,3.162,0,1,1,3.162,0" fill="steelblue" stroke-width="2" opacity="0.6"/><path aria-label="Hours Studied per Week: 3.44; Exam Score: 85.7" role="graphics-symbol" aria-roledescription="circle" transform="translate(172,14.333333333333309)" d="M3.162,0A3.162,3.162,0,1,1,-3.162,0A3.162,3.162,0,1,1,3.162,0" fill="steelblue" stroke-width="2" opacity="0.6"/><path aria-label="Hours Studied per Week: 3.91; Exam Score: 83.2" role="graphics-symbol" aria-roledescription="circle" transform="translate(195.5,22.666666666666647)" d="M3.162,0A3.162,3.162,0,1,1,-3.162,0A3.162,3.162,0,1,1,3.162,0" fill="steelblue" stroke-width="2" opacity="0.6"/><path aria-label="Hours Studied per Week: 2.12; Exam Score: 74.4" role="graphics-symbol" aria-roledescription="circle" transform="translate(106,51.99999999999997)" d="M3.162,0A3.162,3.162,0,1,1,-3.162,0A3.162,3.162,0,1,1,3.162,0" fill="steelblue" stroke-width="2" opacity="0.6"/><path aria-label="Hours Studied per Week: 2.04; Exam Score: 77.9" role="graphics-symbol" aria-roledescription="circle" transform="translate(102,40.33333333333331)" d="M3.162,0A3.162,3.162,0,1,1,-3.162,0A3.162,3.162,0,1,1,3.162,0" fill="steelblue" stroke-width="2" opacity="0.6"/><path aria-label="Hours Studied per Week: 2.43; Exam Score: 79.4" role="graphics-symbol" aria-roledescription="circle" transform="translate(121.50000000000001,35.33333333333333)" d="M3.162,0A3.162,3.162,0,1,1,-3.162,0A3.162,3.162,0,1,1,3.162,0" fill="steelblue" stroke-width="2" opacity="0.6"/><path aria-label="Hours Studied per Week: 3.45; Exam Score: 88.3" role="graphics-symbol" aria-roledescription="circle" transform="translate(172.5,5.6666666666666865)" d="M3.162,0A3.162,3.162,0,1,1,-3.162,0A3.162,3.162,0,1,1,3.162,0" fill="steelblue" stroke-width="2" opacity="0.6"/><path aria-label="Hours Studied per Week: 3.99; Exam Score: 84.6" role="graphics-symbol" aria-roledescription="circle" transform="translate(199.5,18.000000000000014)" d="M3.162,0A3.162,3.162,0,1,1,-3.162,0A3.162,3.162,0,1,1,3.162,0" fill="steelblue" stroke-width="2" opacity="0.6"/><path aria-label="Hours Studied per Week: 2.11; Exam Score: 74.6" role="graphics-symbol" aria-roledescription="circle" transform="translate(105.5,51.333333333333364)" d="M3.162,0A3.162,3.162,0,1,1,-3.162,0A3.162,3.162,0,1,1,3.162,0" fill="steelblue" stroke-width="2" opacity="0.6"/><path aria-label="Hours Studied per Week: 2.35; Exam Score: 77.1" role="graphics-symbol" aria-roledescription="circle" transform="translate(117.5,43.00000000000003)" d="M3.162,0A3.162,3.162,0,1,1,-3.162,0A3.162,3.162,0,1,1,3.162,0" fill="steelblue" stroke-width="2" opacity="0.6"/><path aria-label="Hours Studied per Week: 3.34; Exam Score: 85.2" role="graphics-symbol" aria-roledescription="circle" transform="translate(167,16.000000000000004)" d="M3.162,0A3.162,3.162,0,1,1,-3.162,0A3.162,3.162,0,1,1,3.162,0" fill="steelblue" stroke-width="2" opacity="0.6"/><path aria-label="Hours Studied per Week: 3.63; Exam Score: 71.8" role="graphics-symbol" aria-roledescription="circle" transform="translate(181.5,60.66666666666669)" d="M3.162,0A3.162,3.162,0,1,1,-3.162,0A3.162,3.162,0,1,1,3.162,0" fill="steelblue" stroke-width="2" opacity="0.6"/><path aria-label="Hours Studied per Week: 2.72; Exam Score: 73.9" role="graphics-symbol" aria-roledescription="circle" transform="translate(136,53.666666666666664)" d="M3.162,0A3.162,3.162,0,1,1,-3.162,0A3.162,3.162,0,1,1,3.162,0" fill="steelblue" stroke-width="2" opacity="0.6"/><path aria-label="Hours Studied per Week: 3.3; Exam Score: 76.4" role="graphics-symbol" aria-roledescription="circle" transform="translate(165,45.33333333333333)" d="M3.162,0A3.162,3.162,0,1,1,-3.162,0A3.162,3.162,0,1,1,3.162,0" fill="steelblue" stroke-width="2" opacity="0.6"/><path aria-label="Hours Studied per Week: 3.33; Exam Score: 80.7" role="graphics-symbol" aria-roledescription="circle" transform="translate(166.5,30.999999999999982)" d="M3.162,0A3.162,3.162,0,1,1,-3.162,0A3.162,3.162,0,1,1,3.162,0" fill="steelblue" stroke-width="2" opacity="0.6"/><path aria-label="Hours Studied per Week: 3.07; Exam Score: 87.2" role="graphics-symbol" aria-roledescription="circle" transform="translate(153.5,9.333333333333327)" d="M3.162,0A3.162,3.162,0,1,1,-3.162,0A3.162,3.162,0,1,1,3.162,0" fill="steelblue" stroke-width="2" opacity="0.6"/><path aria-label="Hours Studied per Week: 5.56; Exam Score: 66.6" role="graphics-symbol" aria-roledescription="circle" transform="translate(278,78)" d="M3.162,0A3.162,3.162,0,1,1,-3.162,0A3.162,3.162,0,1,1,3.162,0" fill="steelblue" stroke-width="2" opacity="0.6"/><path aria-label="Hours Studied per Week: 5.93; Exam Score: 67.8" role="graphics-symbol" aria-roledescription="circle" transform="translate(296.5,74.00000000000001)" d="M3.162,0A3.162,3.162,0,1,1,-3.162,0A3.162,3.162,0,1,1,3.162,0" fill="steelblue" stroke-width="2" opacity="0.6"/><path aria-label="Hours Studied per Week: 5.22; Exam Score: 49.8" role="graphics-symbol" aria-roledescription="circle" transform="translate(261,134)" d="M3.162,0A3.162,3.162,0,1,1,-3.162,0A3.162,3.162,0,1,1,3.162,0" fill="steelblue" stroke-width="2" opacity="0.6"/><path aria-label="Hours Studied per Week: 4.33; Exam Score: 56.8" role="graphics-symbol" aria-roledescription="circle" transform="translate(216.5,110.66666666666669)" d="M3.162,0A3.162,3.162,0,1,1,-3.162,0A3.162,3.162,0,1,1,3.162,0" fill="steelblue" stroke-width="2" opacity="0.6"/><path aria-label="Hours Studied per Week: 4.83; Exam Score: 65.5" role="graphics-symbol" aria-roledescription="circle" transform="translate(241.5,81.66666666666667)" d="M3.162,0A3.162,3.162,0,1,1,-3.162,0A3.162,3.162,0,1,1,3.162,0" fill="steelblue" stroke-width="2" opacity="0.6"/><path aria-label="Hours Studied per Week: 5.88; Exam Score: 63.5" role="graphics-symbol" aria-roledescription="circle" transform="translate(294,88.33333333333331)" d="M3.162,0A3.162,3.162,0,1,1,-3.162,0A3.162,3.162,0,1,1,3.162,0" fill="steelblue" stroke-width="2" opacity="0.6"/><path aria-label="Hours Studied per Week: 5.36; Exam Score: 63.9" role="graphics-symbol" aria-roledescription="circle" transform="translate(268,87.00000000000001)" d="M3.162,0A3.162,3.162,0,1,1,-3.162,0A3.162,3.162,0,1,1,3.162,0" fill="steelblue" stroke-width="2" opacity="0.6"/><path aria-label="Hours Studied per Week: 5.73; Exam Score: 72.3" role="graphics-symbol" aria-roledescription="circle" transform="translate(286.5,59)" d="M3.162,0A3.162,3.162,0,1,1,-3.162,0A3.162,3.162,0,1,1,3.162,0" fill="steelblue" stroke-width="2" opacity="0.6"/><path aria-label="Hours Studied per Week: 5.99; Exam Score: 63.8" role="graphics-symbol" aria-roledescription="circle" transform="translate(299.5,87.33333333333333)" d="M3.162,0A3.162,3.162,0,1,1,-3.162,0A3.162,3.162,0,1,1,3.162,0" fill="steelblue" stroke-width="2" opacity="0.6"/><path aria-label="Hours Studied per Week: 5.99; Exam Score: 65.3" role="graphics-symbol" aria-roledescription="circle" transform="translate(299.5,82.33333333333334)" d="M3.162,0A3.162,3.162,0,1,1,-3.162,0A3.162,3.162,0,1,1,3.162,0" fill="steelblue" stroke-width="2" opacity="0.6"/><path aria-label="Hours Studied per Week: 4.23; Exam Score: 48" role="graphics-symbol" aria-roledescription="circle" transform="translate(211.50000000000003,140)" d="M3.162,0A3.162,3.162,0,1,1,-3.162,0A3.162,3.162,0,1,1,3.162,0" fill="steelblue" stroke-width="2" opacity="0.6"/><path aria-label="Hours Studied per Week: 5.54; Exam Score: 57.5" role="graphics-symbol" aria-roledescription="circle" transform="translate(277,108.33333333333334)" d="M3.162,0A3.162,3.162,0,1,1,-3.162,0A3.162,3.162,0,1,1,3.162,0" fill="steelblue" stroke-width="2" opacity="0.6"/><path aria-label="Hours Studied per Week: 4.07; Exam Score: 49" role="graphics-symbol" aria-roledescription="circle" transform="translate(203.5,136.66666666666669)" d="M3.162,0A3.162,3.162,0,1,1,-3.162,0A3.162,3.162,0,1,1,3.162,0" fill="steelblue" stroke-width="2" opacity="0.6"/><path aria-label="Hours Studied per Week: 4.21; Exam Score: 53.4" role="graphics-symbol" aria-roledescription="circle" transform="translate(210.5,122.00000000000001)" d="M3.162,0A3.162,3.162,0,1,1,-3.162,0A3.162,3.162,0,1,1,3.162,0" fill="steelblue" stroke-width="2" opacity="0.6"/><path aria-label="Hours Studied per Week: 5.54; Exam Score: 66.1" role="graphics-symbol" aria-roledescription="circle" transform="translate(277,79.6666666666667)" d="M3.162,0A3.162,3.162,0,1,1,-3.162,0A3.162,3.162,0,1,1,3.162,0" fill="steelblue" stroke-width="2" opacity="0.6"/><path aria-label="Hours Studied per Week: 5.7; Exam Score: 67.7" role="graphics-symbol" aria-roledescription="circle" transform="translate(285,74.33333333333333)" d="M3.162,0A3.162,3.162,0,1,1,-3.162,0A3.162,3.162,0,1,1,3.162,0" fill="steelblue" stroke-width="2" opacity="0.6"/><path aria-label="Hours Studied per Week: 4.64; Exam Score: 58.7" role="graphics-symbol" aria-roledescription="circle" transform="translate(231.99999999999997,104.33333333333333)" d="M3.162,0A3.162,3.162,0,1,1,-3.162,0A3.162,3.162,0,1,1,3.162,0" fill="steelblue" stroke-width="2" opacity="0.6"/><path aria-label="Hours Studied per Week: 5.56; Exam Score: 67.3" role="graphics-symbol" aria-roledescription="circle" transform="translate(278,75.66666666666667)" d="M3.162,0A3.162,3.162,0,1,1,-3.162,0A3.162,3.162,0,1,1,3.162,0" fill="steelblue" stroke-width="2" opacity="0.6"/><path aria-label="Hours Studied per Week: 4.28; Exam Score: 61.1" role="graphics-symbol" aria-roledescription="circle" transform="translate(214,96.33333333333334)" d="M3.162,0A3.162,3.162,0,1,1,-3.162,0A3.162,3.162,0,1,1,3.162,0" fill="steelblue" stroke-width="2" opacity="0.6"/><path aria-label="Hours Studied per Week: 5.62; Exam Score: 63.8" role="graphics-symbol" aria-roledescription="circle" transform="translate(281,87.33333333333333)" d="M3.162,0A3.162,3.162,0,1,1,-3.162,0A3.162,3.162,0,1,1,3.162,0" fill="steelblue" stroke-width="2" opacity="0.6"/><path aria-label="Hours Studied per Week: 5.77; Exam Score: 65.1" role="graphics-symbol" aria-roledescription="circle" transform="translate(288.5,83.00000000000001)" d="M3.162,0A3.162,3.162,0,1,1,-3.162,0A3.162,3.162,0,1,1,3.162,0" fill="steelblue" stroke-width="2" opacity="0.6"/><path aria-label="Hours Studied per Week: 5.57; Exam Score: 58.9" role="graphics-symbol" aria-roledescription="circle" transform="translate(278.5,103.66666666666669)" d="M3.162,0A3.162,3.162,0,1,1,-3.162,0A3.162,3.162,0,1,1,3.162,0" fill="steelblue" stroke-width="2" opacity="0.6"/><path aria-label="Hours Studied per Week: 4.7; Exam Score: 61.3" role="graphics-symbol" aria-roledescription="circle" transform="translate(235,95.66666666666667)" d="M3.162,0A3.162,3.162,0,1,1,-3.162,0A3.162,3.162,0,1,1,3.162,0" fill="steelblue" stroke-width="2" opacity="0.6"/><path aria-label="Hours Studied per Week: 4.36; Exam Score: 54.3" role="graphics-symbol" aria-roledescription="circle" transform="translate(218.00000000000003,119.00000000000001)" d="M3.162,0A3.162,3.162,0,1,1,-3.162,0A3.162,3.162,0,1,1,3.162,0" fill="steelblue" stroke-width="2" opacity="0.6"/><path aria-label="Hours Studied per Week: 5.83; Exam Score: 61.3" role="graphics-symbol" aria-roledescription="circle" transform="translate(291.5,95.66666666666667)" d="M3.162,0A3.162,3.162,0,1,1,-3.162,0A3.162,3.162,0,1,1,3.162,0" fill="steelblue" stroke-width="2" opacity="0.6"/><path aria-label="Hours Studied per Week: 4.43; Exam Score: 57.5" role="graphics-symbol" aria-roledescription="circle" transform="translate(221.5,108.33333333333334)" d="M3.162,0A3.162,3.162,0,1,1,-3.162,0A3.162,3.162,0,1,1,3.162,0" fill="steelblue" stroke-width="2" opacity="0.6"/><path aria-label="Hours Studied per Week: 5.1; Exam Score: 62.6" role="graphics-symbol" aria-roledescription="circle" transform="translate(254.99999999999997,91.33333333333333)" d="M3.162,0A3.162,3.162,0,1,1,-3.162,0A3.162,3.162,0,1,1,3.162,0" fill="steelblue" stroke-width="2" opacity="0.6"/><path aria-label="Hours Studied per Week: 5.03; Exam Score: 58.4" role="graphics-symbol" aria-roledescription="circle" transform="translate(251.5,105.33333333333334)" d="M3.162,0A3.162,3.162,0,1,1,-3.162,0A3.162,3.162,0,1,1,3.162,0" fill="steelblue" stroke-width="2" opacity="0.6"/><path aria-label="Hours Studied per Week: 5.6; Exam Score: 65.8" role="graphics-symbol" aria-roledescription="circle" transform="translate(280,80.66666666666669)" d="M3.162,0A3.162,3.162,0,1,1,-3.162,0A3.162,3.162,0,1,1,3.162,0" fill="steelblue" stroke-width="2" opacity="0.6"/><path aria-label="Hours Studied per Week: 5.76; Exam Score: 59" role="graphics-symbol" aria-roledescription="circle" transform="translate(288,103.33333333333333)" d="M3.162,0A3.162,3.162,0,1,1,-3.162,0A3.162,3.162,0,1,1,3.162,0" fill="steelblue" stroke-width="2" opacity="0.6"/><path aria-label="Hours Studied per Week: 5; Exam Score: 62.9" role="graphics-symbol" aria-roledescription="circle" transform="translate(250,90.33333333333333)" d="M3.162,0A3.162,3.162,0,1,1,-3.162,0A3.162,3.162,0,1,1,3.162,0" fill="steelblue" stroke-width="2" opacity="0.6"/><path aria-label="Hours Studied per Week: 5.18; Exam Score: 59.2" role="graphics-symbol" aria-roledescription="circle" transform="translate(259,102.66666666666666)" d="M3.162,0A3.162,3.162,0,1,1,-3.162,0A3.162,3.162,0,1,1,3.162,0" fill="steelblue" stroke-width="2" opacity="0.6"/><path aria-label="Hours Studied per Week: 4.33; Exam Score: 56.3" role="graphics-symbol" aria-roledescription="circle" transform="translate(216.5,112.33333333333334)" d="M3.162,0A3.162,3.162,0,1,1,-3.162,0A3.162,3.162,0,1,1,3.162,0" fill="steelblue" stroke-width="2" opacity="0.6"/><path aria-label="Hours Studied per Week: 5.73; Exam Score: 65.3" role="graphics-symbol" aria-roledescription="circle" transform="translate(286.5,82.33333333333334)" d="M3.162,0A3.162,3.162,0,1,1,-3.162,0A3.162,3.162,0,1,1,3.162,0" fill="steelblue" stroke-width="2" opacity="0.6"/><path aria-label="Hours Studied per Week: 5.86; Exam Score: 68.2" role="graphics-symbol" aria-roledescription="circle" transform="translate(293,72.66666666666667)" d="M3.162,0A3.162,3.162,0,1,1,-3.162,0A3.162,3.162,0,1,1,3.162,0" fill="steelblue" stroke-width="2" opacity="0.6"/><path aria-label="Hours Studied per Week: 5.45; Exam Score: 67" role="graphics-symbol" aria-roledescription="circle" transform="translate(272.5,76.66666666666666)" d="M3.162,0A3.162,3.162,0,1,1,-3.162,0A3.162,3.162,0,1,1,3.162,0" fill="steelblue" stroke-width="2" opacity="0.6"/><path aria-label="Hours Studied per Week: 5.74; Exam Score: 56.9" role="graphics-symbol" aria-roledescription="circle" transform="translate(287,110.33333333333333)" d="M3.162,0A3.162,3.162,0,1,1,-3.162,0A3.162,3.162,0,1,1,3.162,0" fill="steelblue" stroke-width="2" opacity="0.6"/><path aria-label="Hours Studied per Week: 5.92; Exam Score: 69.9" role="graphics-symbol" aria-roledescription="circle" transform="translate(296,66.99999999999999)" d="M3.162,0A3.162,3.162,0,1,1,-3.162,0A3.162,3.162,0,1,1,3.162,0" fill="steelblue" stroke-width="2" opacity="0.6"/><path aria-label="Hours Studied per Week: 4.73; Exam Score: 62.4" role="graphics-symbol" aria-roledescription="circle" transform="translate(236.50000000000003,92)" d="M3.162,0A3.162,3.162,0,1,1,-3.162,0A3.162,3.162,0,1,1,3.162,0" fill="steelblue" stroke-width="2" opacity="0.6"/><path aria-label="Hours Studied per Week: 4.79; Exam Score: 62.6" role="graphics-symbol" aria-roledescription="circle" transform="translate(239.5,91.33333333333333)" d="M3.162,0A3.162,3.162,0,1,1,-3.162,0A3.162,3.162,0,1,1,3.162,0" fill="steelblue" stroke-width="2" opacity="0.6"/><path aria-label="Hours Studied per Week: 6.79; Exam Score: 40.9" role="graphics-symbol" aria-roledescription="circle" transform="translate(339.5,163.66666666666669)" d="M3.162,0A3.162,3.162,0,1,1,-3.162,0A3.162,3.162,0,1,1,3.162,0" fill="steelblue" stroke-width="2" opacity="0.6"/><path aria-label="Hours Studied per Week: 7.37; Exam Score: 40.9" role="graphics-symbol" aria-roledescription="circle" transform="translate(368.5,163.66666666666669)" d="M3.162,0A3.162,3.162,0,1,1,-3.162,0A3.162,3.162,0,1,1,3.162,0" fill="steelblue" stroke-width="2" opacity="0.6"/><path aria-label="Hours Studied per Week: 6.82; Exam Score: 33.8" role="graphics-symbol" aria-roledescription="circle" transform="translate(341,187.33333333333334)" d="M3.162,0A3.162,3.162,0,1,1,-3.162,0A3.162,3.162,0,1,1,3.162,0" fill="steelblue" stroke-width="2" opacity="0.6"/><path aria-label="Hours Studied per Week: 6.19; Exam Score: 31.5" role="graphics-symbol" aria-roledescription="circle" transform="translate(309.5,195)" d="M3.162,0A3.162,3.162,0,1,1,-3.162,0A3.162,3.162,0,1,1,3.162,0" fill="steelblue" stroke-width="2" opacity="0.6"/><path aria-label="Hours Studied per Week: 6.27; Exam Score: 37.6" role="graphics-symbol" aria-roledescription="circle" transform="translate(313.5,174.66666666666666)" d="M3.162,0A3.162,3.162,0,1,1,-3.162,0A3.162,3.162,0,1,1,3.162,0" fill="steelblue" stroke-width="2" opacity="0.6"/><path aria-label="Hours Studied per Week: 6.59; Exam Score: 38.9" role="graphics-symbol" aria-roledescription="circle" transform="translate(329.5,170.33333333333331)" d="M3.162,0A3.162,3.162,0,1,1,-3.162,0A3.162,3.162,0,1,1,3.162,0" fill="steelblue" stroke-width="2" opacity="0.6"/><path aria-label="Hours Studied per Week: 6.62; Exam Score: 37.4" role="graphics-symbol" aria-roledescription="circle" transform="translate(331,175.33333333333334)" d="M3.162,0A3.162,3.162,0,1,1,-3.162,0A3.162,3.162,0,1,1,3.162,0" fill="steelblue" stroke-width="2" opacity="0.6"/><path aria-label="Hours Studied per Week: 7.69; Exam Score: 40.9" role="graphics-symbol" aria-roledescription="circle" transform="translate(384.5,163.66666666666669)" d="M3.162,0A3.162,3.162,0,1,1,-3.162,0A3.162,3.162,0,1,1,3.162,0" fill="steelblue" stroke-width="2" opacity="0.6"/><path aria-label="Hours Studied per Week: 6.56; Exam Score: 41.3" role="graphics-symbol" aria-roledescription="circle" transform="translate(328,162.33333333333334)" d="M3.162,0A3.162,3.162,0,1,1,-3.162,0A3.162,3.162,0,1,1,3.162,0" fill="steelblue" stroke-width="2" opacity="0.6"/><path aria-label="Hours Studied per Week: 6.77; Exam Score: 38.8" role="graphics-symbol" aria-roledescription="circle" transform="translate(338.5,170.66666666666669)" d="M3.162,0A3.162,3.162,0,1,1,-3.162,0A3.162,3.162,0,1,1,3.162,0" fill="steelblue" stroke-width="2" opacity="0.6"/><path aria-label="Hours Studied per Week: 6.83; Exam Score: 33.2" role="graphics-symbol" aria-roledescription="circle" transform="translate(341.5,189.33333333333331)" d="M3.162,0A3.162,3.162,0,1,1,-3.162,0A3.162,3.162,0,1,1,3.162,0" fill="steelblue" stroke-width="2" opacity="0.6"/><path aria-label="Hours Studied per Week: 7.39; Exam Score: 47.1" role="graphics-symbol" aria-roledescription="circle" transform="translate(369.5,143)" d="M3.162,0A3.162,3.162,0,1,1,-3.162,0A3.162,3.162,0,1,1,3.162,0" fill="steelblue" stroke-width="2" opacity="0.6"/><path aria-label="Hours Studied per Week: 7; Exam Score: 41.1" role="graphics-symbol" aria-roledescription="circle" transform="translate(350,163)" d="M3.162,0A3.162,3.162,0,1,1,-3.162,0A3.162,3.162,0,1,1,3.162,0" fill="steelblue" stroke-width="2" opacity="0.6"/><path aria-label="Hours Studied per Week: 7.13; Exam Score: 32.1" role="graphics-symbol" aria-roledescription="circle" transform="translate(356.5,193)" d="M3.162,0A3.162,3.162,0,1,1,-3.162,0A3.162,3.162,0,1,1,3.162,0" fill="steelblue" stroke-width="2" opacity="0.6"/><path aria-label="Hours Studied per Week: 7.02; Exam Score: 41" role="graphics-symbol" aria-roledescription="circle" transform="translate(351,163.33333333333334)" d="M3.162,0A3.162,3.162,0,1,1,-3.162,0A3.162,3.162,0,1,1,3.162,0" fill="steelblue" stroke-width="2" opacity="0.6"/><path aria-label="Hours Studied per Week: 7.8; Exam Score: 41.8" role="graphics-symbol" aria-roledescription="circle" transform="translate(390,160.66666666666666)" d="M3.162,0A3.162,3.162,0,1,1,-3.162,0A3.162,3.162,0,1,1,3.162,0" fill="steelblue" stroke-width="2" opacity="0.6"/><path aria-label="Hours Studied per Week: 7.23; Exam Score: 42.9" role="graphics-symbol" aria-roledescription="circle" transform="translate(361.5,157.00000000000003)" d="M3.162,0A3.162,3.162,0,1,1,-3.162,0A3.162,3.162,0,1,1,3.162,0" fill="steelblue" stroke-width="2" opacity="0.6"/><path aria-label="Hours Studied per Week: 7.87; Exam Score: 40.5" role="graphics-symbol" aria-roledescription="circle" transform="translate(393.5,165)" d="M3.162,0A3.162,3.162,0,1,1,-3.162,0A3.162,3.162,0,1,1,3.162,0" fill="steelblue" stroke-width="2" opacity="0.6"/><path aria-label="Hours Studied per Week: 7.74; Exam Score: 39.5" role="graphics-symbol" aria-roledescription="circle" transform="translate(387,168.33333333333334)" d="M3.162,0A3.162,3.162,0,1,1,-3.162,0A3.162,3.162,0,1,1,3.162,0" fill="steelblue" stroke-width="2" opacity="0.6"/><path aria-label="Hours Studied per Week: 7.72; Exam Score: 42.8" role="graphics-symbol" aria-roledescription="circle" transform="translate(386,157.33333333333334)" d="M3.162,0A3.162,3.162,0,1,1,-3.162,0A3.162,3.162,0,1,1,3.162,0" fill="steelblue" stroke-width="2" opacity="0.6"/><path aria-label="Hours Studied per Week: 7.24; Exam Score: 39.7" role="graphics-symbol" aria-roledescription="circle" transform="translate(362,167.66666666666666)" d="M3.162,0A3.162,3.162,0,1,1,-3.162,0A3.162,3.162,0,1,1,3.162,0" fill="steelblue" stroke-width="2" opacity="0.6"/><path aria-label="Hours Studied per Week: 7.87; Exam Score: 41.1" role="graphics-symbol" aria-roledescription="circle" transform="translate(393.5,163)" d="M3.162,0A3.162,3.162,0,1,1,-3.162,0A3.162,3.162,0,1,1,3.162,0" fill="steelblue" stroke-width="2" opacity="0.6"/><path aria-label="Hours Studied per Week: 6.21; Exam Score: 42.9" role="graphics-symbol" aria-roledescription="circle" transform="translate(310.5,157.00000000000003)" d="M3.162,0A3.162,3.162,0,1,1,-3.162,0A3.162,3.162,0,1,1,3.162,0" fill="steelblue" stroke-width="2" opacity="0.6"/><path aria-label="Hours Studied per Week: 7.26; Exam Score: 43" role="graphics-symbol" aria-roledescription="circle" transform="translate(363,156.66666666666663)" d="M3.162,0A3.162,3.162,0,1,1,-3.162,0A3.162,3.162,0,1,1,3.162,0" fill="steelblue" stroke-width="2" opacity="0.6"/><path aria-label="Hours Studied per Week: 6.93; Exam Score: 36.2" role="graphics-symbol" aria-roledescription="circle" transform="translate(346.5,179.33333333333331)" d="M3.162,0A3.162,3.162,0,1,1,-3.162,0A3.162,3.162,0,1,1,3.162,0" fill="steelblue" stroke-width="2" opacity="0.6"/><path aria-label="Hours Studied per Week: 6.29; Exam Score: 38.9" role="graphics-symbol" aria-roledescription="circle" transform="translate(314.5,170.33333333333331)" d="M3.162,0A3.162,3.162,0,1,1,-3.162,0A3.162,3.162,0,1,1,3.162,0" fill="steelblue" stroke-width="2" opacity="0.6"/><path aria-label="Hours Studied per Week: 6.44; Exam Score: 35" role="graphics-symbol" aria-roledescription="circle" transform="translate(322,183.33333333333334)" d="M3.162,0A3.162,3.162,0,1,1,-3.162,0A3.162,3.162,0,1,1,3.162,0" fill="steelblue" stroke-width="2" opacity="0.6"/><path aria-label="Hours Studied per Week: 7.13; Exam Score: 49.6" role="graphics-symbol" aria-roledescription="circle" transform="translate(356.5,134.66666666666666)" d="M3.162,0A3.162,3.162,0,1,1,-3.162,0A3.162,3.162,0,1,1,3.162,0" fill="steelblue" stroke-width="2" opacity="0.6"/><path aria-label="Hours Studied per Week: 7.62; Exam Score: 43.2" role="graphics-symbol" aria-roledescription="circle" transform="translate(381,156)" d="M3.162,0A3.162,3.162,0,1,1,-3.162,0A3.162,3.162,0,1,1,3.162,0" fill="steelblue" stroke-width="2" opacity="0.6"/><path aria-label="Hours Studied per Week: 7.18; Exam Score: 41.7" role="graphics-symbol" aria-roledescription="circle" transform="translate(359,161)" d="M3.162,0A3.162,3.162,0,1,1,-3.162,0A3.162,3.162,0,1,1,3.162,0" fill="steelblue" stroke-width="2" opacity="0.6"/><path aria-label="Hours Studied per Week: 7.72; Exam Score: 41.3" role="graphics-symbol" aria-roledescription="circle" transform="translate(386,162.33333333333334)" d="M3.162,0A3.162,3.162,0,1,1,-3.162,0A3.162,3.162,0,1,1,3.162,0" fill="steelblue" stroke-width="2" opacity="0.6"/><path aria-label="Hours Studied per Week: 7.17; Exam Score: 32.5" role="graphics-symbol" aria-roledescription="circle" transform="translate(358.5,191.66666666666666)" d="M3.162,0A3.162,3.162,0,1,1,-3.162,0A3.162,3.162,0,1,1,3.162,0" fill="steelblue" stroke-width="2" opacity="0.6"/><path aria-label="Hours Studied per Week: 6.99; Exam Score: 44.6" role="graphics-symbol" aria-roledescription="circle" transform="translate(349.5,151.33333333333334)" d="M3.162,0A3.162,3.162,0,1,1,-3.162,0A3.162,3.162,0,1,1,3.162,0" fill="steelblue" stroke-width="2" opacity="0.6"/><path aria-label="Hours Studied per Week: 6.71; Exam Score: 44.1" role="graphics-symbol" aria-roledescription="circle" transform="translate(335.5,153)" d="M3.162,0A3.162,3.162,0,1,1,-3.162,0A3.162,3.162,0,1,1,3.162,0" fill="steelblue" stroke-width="2" opacity="0.6"/><path aria-label="Hours Studied per Week: 7.01; Exam Score: 42" role="graphics-symbol" aria-roledescription="circle" transform="translate(350.5,160)" d="M3.162,0A3.162,3.162,0,1,1,-3.162,0A3.162,3.162,0,1,1,3.162,0" fill="steelblue" stroke-width="2" opacity="0.6"/><path aria-label="Hours Studied per Week: 7.6; Exam Score: 39.8" role="graphics-symbol" aria-roledescription="circle" transform="translate(380,167.33333333333334)" d="M3.162,0A3.162,3.162,0,1,1,-3.162,0A3.162,3.162,0,1,1,3.162,0" fill="steelblue" stroke-width="2" opacity="0.6"/><path aria-label="Hours Studied per Week: 7.85; Exam Score: 45" role="graphics-symbol" aria-roledescription="circle" transform="translate(392.5,150)" d="M3.162,0A3.162,3.162,0,1,1,-3.162,0A3.162,3.162,0,1,1,3.162,0" fill="steelblue" stroke-width="2" opacity="0.6"/><path aria-label="Hours Studied per Week: 7; Exam Score: 34" role="graphics-symbol" aria-roledescription="circle" transform="translate(350,186.66666666666666)" d="M3.162,0A3.162,3.162,0,1,1,-3.162,0A3.162,3.162,0,1,1,3.162,0" fill="steelblue" stroke-width="2" opacity="0.6"/><path aria-label="Hours Studied per Week: 6.38; Exam Score: 32.7" role="graphics-symbol" aria-roledescription="circle" transform="translate(319,191)" d="M3.162,0A3.162,3.162,0,1,1,-3.162,0A3.162,3.162,0,1,1,3.162,0" fill="steelblue" stroke-width="2" opacity="0.6"/><path aria-label="Hours Studied per Week: 6.97; Exam Score: 39.7" role="graphics-symbol" aria-roledescription="circle" transform="translate(348.5,167.66666666666666)" d="M3.162,0A3.162,3.162,0,1,1,-3.162,0A3.162,3.162,0,1,1,3.162,0" fill="steelblue" stroke-width="2" opacity="0.6"/></g><g class="mark-line role-mark layer_1_marks" role="graphics-object" aria-roledescription="line mark container"><path aria-label="hours: 2.04; score: 85.3078939147" role="graphics-symbol" aria-roledescription="line mark" d="M102,15.64L393.5,175.074" stroke="red" stroke-width="2"/></g><g class="mark-group role-title"><g transform="translate(200,-22)"><path class="background" aria-hidden="true" d="M0,0h0v0h0Z" pointer-events="none"/><g><g class="mark-text role-title-text" role="graphics-symbol" aria-roledescription="title" aria-label="Title text 'Study Hours vs Exam Score'" pointer-events="none"><text text-anchor="middle" transform="translate(0,10)" font-family="sans-serif" font-size="13px" font-weight="bold" fill="#000" opacity="1">Study Hours vs Exam Score</text></g></g><path class="foreground" aria-hidden="true" d="" pointer-events="none" display="none"/></g></g></g><path class="foreground" aria-hidden="true" d="" display="none"/></g></g></g></svg>