<svg xmlns="http://www.w3.org/2000/svg" xmlns:xlink="http://www.w3.org/1999/xlink" version="1.1" class="marks" width="430" height="364" viewBox="0 0 430 364"><rect width="430" height="364" fill="white"/><g fill="none" stroke-miterlimit="10" transform="translate(44,27)"><g class="mark-group role-frame root" role="graphics-object" aria-roledescription="group mark container"><g transform="translate(0,0)"><path class="background" aria-hidden="true" d="M0.5,0.5h380v300h-380Z" stroke="#ddd"/><g><g class="mark-group role-axis" aria-hidden="true"><g transform="translate(0.5,300.5)"><path class="background" aria-hidden="true" d="M0,0h0v0h0Z" pointer-events="none"/><g><g class="mark-rule role-axis-grid" pointer-events="none"><line transform="translate(0,-300)" x2="0" y2="300" stroke="#ddd" stroke-width="1" opacity="1"/><line transform="translate(48,-300)" x2="0" y2="300" stroke="#ddd" stroke-width="1" opacity="1"/><line transform="translate(95,-300)" x2="0" y2="300" stroke="#ddd" stroke-width="1" opacity="1"/><line transform="translate(143,-300)" x2="0" y2="300" stroke="#ddd" stroke-width="1" opacity="1"/><line transform="translate(190,-300)" x2="0" y2="300" stroke="#ddd" stroke-width="1" opacity="1"/><line transform="translate(238,-300)" x2="0" y2="300" stroke="#ddd" stroke-width="1" opacity="1"/><line transform="translate(285,-300)" x2="0" y2="300" stroke="#ddd" stroke-width="1" opacity="1"/><line transform="translate(333,-300)" x2="0" y2="300" stroke="#ddd" stroke-width="1" opacity="1"/><line transform="translate(380,-300)" x2="0" y2="300" stroke="#ddd" stroke-width="1" opacity="1"/></g></g><path class="foreground" aria-hidden="true" d="" pointer-events="none" display="none"/></g></g><g class="mark-group role-axis" aria-hidden="true"><g transform="translate(0.5,0.5)"><path class="background" aria-hidden="true" d="M0,0h0v0h0Z" pointer-events="none"/><g><g class="mark-rule role-axis-grid" pointer-events="none"><line transform="translate(0,300)" x2="380" y2="0" stroke="#ddd" stroke-width="1" opacity="1"/><line transform="translate(0,263)" x2="380" y2="0" stroke="#ddd" stroke-width="1" opacity="1"/><line transform="translate(0,225)" x2="380" y2="0" stroke="#ddd" stroke-width="1" opacity="1"/><line transform="translate(0,188)" x2="380" y2="0" stroke="#ddd" stroke-width="1" opacity="1"/><line transform="translate(0,150)" x2="380" y2="0" stroke="#ddd" stroke-width="1" opacity="1"/><line transform="translate(0,113)" x2="380" y2="0" stroke="#ddd" stroke-width="1" opacity="1"/><line transform="translate(0,75)" x2="380" y2="0" stroke="#ddd" stroke-width="1" opacity="1"/><line transform="translate(0,38)" x2="380" y2="0" stroke="#ddd" stroke-width="1" opacity="1"/><line transform="translate(0,0)" x2="380" y2="0" stroke="#ddd" stroke-width="1" opacity="1"/></g></g><path class="foreground" aria-hidden="true" d="" pointer-events="none" display="none"/></g></g><g class="mark-group role-axis" role="graphics-symbol" aria-roledescription="axis" aria-label="X-axis titled 'Coffee Bags per Month' for a linear scale with values from 0 to 80"><g transform="translate(0.5,300.5)"><path class="background" aria-hidden="true" d="M0,0h0v0h0Z" pointer-events="none"/><g><g class="mark-rule role-axis-tick" pointer-events="none"><line transform="translate(0,0)" x2="0" y2="5" stroke="#888" stroke-width="1" opacity="1"/><line transform="translate(48,0)" x2="0" y2="5" stroke="#888" stroke-width="1" opacity="1"/><line transform="translate(95,0)" x2="0" y2="5" stroke="#888" stroke-width="1" opacity="1"/><line transform="translate(143,0)" x2="0" y2="5" stroke="#888" stroke-width="1" opacity="1"/><line transform="translate(190,0)" x2="0" y2="5" stroke="#888" stroke-width="1" opacity="1"/><line transform="translate(238,0)" x2="0" y2="5" stroke="#888" stroke-width="1" opacity="1"/><line transform="translate(285,0)" x2="0" y2="5" stroke="#888" stroke-width="1" opacity="1"/><line transform="translate(333,0)" x2="0" y2="5" stroke="#888" stroke-width="1" opacity="1"/><line transform="translate(380,0)" x2="0" y2="5" stroke="#888" stroke-width="1" opacity="1"/></g><g class="mark-text role-axis-label" pointer-events="none"><text text-anchor="start" transform="translate(0,15)" font-family="sans-serif" font-size="10px" fill="#000" opacity="1">0</text><text text-anchor="middle" transform="translate(47.5,15)" font-family="sans-serif" font-size="10px" fill="#000" opacity="1">10</text><text text-anchor="middle" transform="translate(95,15)" font-family="sans-serif" font-size="10px" fill="#000" opacity="1">20</text><text text-anchor="middle" transform="translate(142.5,15)" font-family="sans-serif" font-size="10px" fill="#000" opacity="1">30</text><text text-anchor="middle" transform="translate(190,15)" font-family="sans-serif" font-size="10px" fill="#000" opacity="1">40</text><text text-anchor="middle" transform="translate(237.5,15)" font-family="sans-serif" font-size="10px" fill="#000" opacity="1">50</text><text text-anchor="middle" transform="translate(285,15)" font-family="sans-serif" font-size="10px" fill="#000" opacity="1">60</text><text text-anchor="middle" transform="translate(332.5,15)" font-family="sans-serif" font-size="10px" fill="#000" opacity="1">70</text><text text-anchor="end" transform="translate(380,15)" font-family="sans-serif" font-size="10px" fill="#000" opacity="1">80</text></g><g class="mark-rule role-axis-domain" pointer-events="none"><line transform="translate(0,0)" x2="380" y2="0" stroke="#888" stroke-width="1" opacity="1"/></g><g class="mark-text role-axis-title" pointer-events="none"><text text-anchor="middle" transform="translate(190,30)" font-family="sans-serif" font-size="11px" font-weight="bold" fill="#000" opacity="1">Coffee Bags per Month</text></g></g><path class="foreground" aria-hidden="true" d="" pointer-events="none" display="none"/></g></g><g class="mark-group role-axis" role="graphics-symbol" aria-roledescription="axis" aria-label="Y-axis titled 'Code Commits per Month' for a linear scale with values from 0 to 400"><g transform="translate(0.5,0.5)"><path class="background" aria-hidden="true" d="M0,0h0v0h0Z" pointer-events="none"/><g><g class="mark-rule role-axis-tick" pointer-events="none"><line transform="translate(0,300)" x2="-5" y2="0" stroke="#888" stroke-width="1" opacity="1"/><line transform="translate(0,263)" x2="-5" y2="0" stroke="#888" stroke-width="1" opacity="1"/><line transform="translate(0,225)" x2="-5" y2="0" stroke="#888" stroke-width="1" opacity="1"/><line transform="translate(0,188)" x2="-5" y2="0" stroke="#888" stroke-width="1" opacity="1"/><line transform="translate(0,150)" x2="-5" y2="0" stroke="#888" stroke-width="1" opacity="1"/><line transform="translate(0,113)" x2="-5" y2="0" stroke="#888" stroke-width="1" opacity="1"/><line transform="translate(0,75)" x2="-5" y2="0" stroke="#888" stroke-width="1" opacity="1"/><line transform="translate(0,38)" x2="-5" y2="0" stroke="#888" stroke-width="1" opacity="1"/><line transform="translate(0,0)" x2="-5" y2="0" stroke="#888" stroke-width="1" opacity="1"/></g><g class="mark-text role-axis-label" pointer-events="none"><text text-anchor="end" transform="translate(-7,303)" font-family="sans-serif" font-size="10px" fill="#000" opacity="1">0</text><text text-anchor="end" transform="translate(-7,265.5)" font-family="sans-serif" font-size="10px" fill="#000" opacity="1">50</text><text text-anchor="end" transform="translate(-7,228)" font-family="sans-serif" font-size="10px" fill="#000" opacity="1">100</text><text text-anchor="end" transform="translate(-7,190.5)" font-family="sans-serif" font-size="10px" fill="#000" opacity="1">150</text><text text-anchor="end" transform="translate(-7,153)" font-family="sans-serif" font-size="10px" fill="#000" opacity="1">200</text><text text-anchor="end" transform="translate(-7,115.5)" font-family="sans-serif" font-size="10px" fill="#000" opacity="1">250</text><text text-anchor="end" transform="translate(-7,78)" font-family="sans-serif" font-size="10px" fill="#000" opacity="1">300</text><text text-anchor="end" transform="translate(-7,40.5)" font-family="sans-serif" font-size="10px" fill="#000" opacity="1">350</text><text text-anchor="end" transform="translate(-7,3)" font-family="sans-serif" font-size="10px" fill="#000" opacity="1">400</text></g><g class="mark-rule role-axis-domain" pointer-events="none"><line transform="translate(0,300)" x2="0" y2="-300" stroke="#888" stroke-width="1" opacity="1"/></g><g class="mark-text role-axis-title" pointer-events="none"><text text-anchor="middle" transform="translate(-27.6845703125,150) rotate(-90) translate(0,-2)" font-family="sans-serif" font-size="11px" font-weight="bold" fill="#000" opacity="1">Code Commits per Month</text></g></g><path class="foreground" aria-hidden="true" d="" pointer-events="none" display="none"/></g></g><g class="mark-symbol role-mark layer_0_marks" role="graphics-object" aria-roledescription="symbol mark container"><path aria-label="Coffee Bags per Month: 20; Code Commits per Month: 112" role="graphics-symbol" aria-roledescription="circle" transform="translate(95,216)" d="M3.536,0A3.536,3.536,0,1,1,-3.536,0A3.536,3.536,0,1,1,3.536,0" fill="steelblue" stroke-width="2" opacity="0.8"/><path aria-label="Coffee Bags per Month: 24; Code Commits per Month: 144" role="graphics-symbol" aria-roledescription="circle" transform="translate(114,192)" d="M3.536,0A3.536,3.536,0,1,1,-3.536,0A3.536,3.536,0,1,1,3.536,0" fill="steelblue" stroke-width="2" opacity="0.8"/><path aria-label="Coffee Bags per Month: 18; Code Commits per Month: 130" role="graphics-symbol" aria-roledescription="circle" transform="translate(85.5,202.5)" d="M3.536,0A3.536,3.536,0,1,1,-3.536,0A3.536,3.536,0,1,1,3.536,0" fill="steelblue" stroke-width="2" opacity="0.8"/><path aria-label="Coffee Bags per Month: 26; Code Commits per Month: 111" role="graphics-symbol" aria-roledescription="circle" transform="translate(123.5,216.74999999999997)" d="M3.536,0A3.536,3.536,0,1,1,-3.536,0A3.536,3.536,0,1,1,3.536,0" fill="steelblue" stroke-width="2" opacity="0.8"/><path aria-label="Coffee Bags per Month: 28; Code Commits per Month: 104" role="graphics-symbol" aria-roledescription="circle" transform="translate(133,222)" d="M3.536,0A3.536,3.536,0,1,1,-3.536,0A3.536,3.536,0,1,1,3.536,0" fill="steelblue" stroke-width="2" opacity="0.8"/><path aria-label="Coffee Bags per Month: 24; Code Commits per Month: 113" role="graphics-symbol" aria-roledescription="circle" transform="translate(114,215.25)" d="M3.536,0A3.536,3.536,0,1,1,-3.536,0A3.536,3.536,0,1,1,3.536,0" fill="steelblue" stroke-width="2" opacity="0.8"/><path aria-label="Coffee Bags per Month: 27; Code Commits per Month: 133" role="graphics-symbol" aria-roledescription="circle" transform="translate(128.25,200.25)" d="M3.536,0A3.536,3.536,0,1,1,-3.536,0A3.536,3.536,0,1,1,3.536,0" fill="steelblue" stroke-width="2" opacity="0.8"/><path aria-label="Coffee Bags per Month: 28; Code Commits per Month: 130" role="graphics-symbol" aria-roledescription="circle" transform="translate(133,202.5)" d="M3.536,0A3.536,3.536,0,1,1,-3.536,0A3.536,3.536,0,1,1,3.536,0" fill="steelblue" stroke-width="2" opacity="0.8"/><path aria-label="Coffee Bags per Month: 29; Code Commits per Month: 134" role="graphics-symbol" aria-roledescription="circle" transform="translate(137.75,199.5)" d="M3.536,0A3.536,3.536,0,1,1,-3.536,0A3.536,3.536,0,1,1,3.536,0" fill="steelblue" stroke-width="2" opacity="0.8"/><path aria-label="Coffee Bags per Month: 29; Code Commits per Month: 170" role="graphics-symbol" aria-roledescription="circle" transform="translate(137.75,172.5)" d="M3.536,0A3.536,3.536,0,1,1,-3.536,0A3.536,3.536,0,1,1,3.536,0" fill="steelblue" stroke-width="2" opacity="0.8"/><path aria-label="Coffee Bags per Month: 29; Code Commits per Month: 144" role="graphics-symbol" aria-roledescription="circle" transform="translate(137.75,192)" d="M3.536,0A3.536,3.536,0,1,1,-3.536,0A3.536,3.536,0,1,1,3.536,0" fill="steelblue" stroke-width="2" opacity="0.8"/><path aria-label="Coffee Bags per Month: 33; Code Commits per Month: 142" role="graphics-symbol" aria-roledescription="circle" transform="translate(156.75,193.5)" d="M3.536,0A3.536,3.536,0,1,1,-3.536,0A3.536,3.536,0,1,1,3.536,0" fill="steelblue" stroke-width="2" opacity="0.8"/><path aria-label="Coffee Bags per Month: 31; Code Commits per Month: 128" role="graphics-symbol" aria-roledescription="circle" transform="translate(147.25,203.99999999999997)" d="M3.536,0A3.536,3.536,0,1,1,-3.536,0A3.536,3.536,0,1,1,3.536,0" fill="steelblue" stroke-width="2" opacity="0.8"/><path aria-label="Coffee Bags per Month: 24; Code Commits per Month: 163" role="graphics-symbol" aria-roledescription="circle" transform="translate(114,177.75)" d="M3.536,0A3.536,3.536,0,1,1,-3.536,0A3.536,3.536,0,1,1,3.536,0" fill="steelblue" stroke-width="2" opacity="0.8"/><path aria-label="Coffee Bags per Month: 30; Code Commits per Month: 172" role="graphics-symbol" aria-roledescription="circle" transform="translate(142.5,171.00000000000003)" d="M3.536,0A3.536,3.536,0,1,1,-3.536,0A3.536,3.536,0,1,1,3.536,0" fill="steelblue" stroke-width="2" opacity="0.8"/><path aria-label="Coffee Bags per Month: 26; Code Commits per Month: 173" role="graphics-symbol" aria-roledescription="circle" transform="translate(123.5,170.25)" d="M3.536,0A3.536,3.536,0,1,1,-3.536,0A3.536,3.536,0,1,1,3.536,0" fill="steelblue" stroke-width="2" opacity="0.8"/><path aria-label="Coffee Bags per Month: 39; Code Commits per Month: 157" role="graphics-symbol" aria-roledescription="circle" transform="translate(185.25,182.24999999999997)" d="M3.536,0A3.536,3.536,0,1,1,-3.536,0A3.536,3.536,0,1,1,3.536,0" fill="steelblue" stroke-width="2" opacity="0.8"/><path aria-label="Coffee Bags per Month: 38; Code Commits per Month: 190" role="graphics-symbol" aria-roledescription="circle" transform="translate(180.5,157.5)" d="M3.536,0A3.536,3.536,0,1,1,-3.536,0A3.536,3.536,0,1,1,3.536,0" fill="steelblue" stroke-width="2" opacity="0.8"/><path aria-label="Coffee Bags per Month: 40; Code Commits per Month: 164" role="graphics-symbol" aria-roledescription="circle" transform="translate(190,177.00000000000003)" d="M3.536,0A3.536,3.536,0,1,1,-3.536,0A3.536,3.536,0,1,1,3.536,0" fill="steelblue" stroke-width="2" opacity="0.8"/><path aria-label="Coffee Bags per Month: 39; Code Commits per Month: 228" role="graphics-symbol" aria-roledescription="circle" transform="translate(185.25,129.00000000000003)" d="M3.536,0A3.536,3.536,0,1,1,-3.536,0A3.536,3.536,0,1,1,3.536,0" fill="steelblue" stroke-width="2" opacity="0.8"/><path aria-label="Coffee Bags per Month: 37; Code Commits per Month: 207" role="graphics-symbol" aria-roledescription="circle" transform="translate(175.75,144.75)" d="M3.536,0A3.536,3.536,0,1,1,-3.536,0A3.536,3.536,0,1,1,3.536,0" fill="steelblue" stroke-width="2" opacity="0.8"/><path aria-label="Coffee Bags per Month: 36; Code Commits per Month: 210" role="graphics-symbol" aria-roledescription="circle" transform="translate(171,142.5)" d="M3.536,0A3.536,3.536,0,1,1,-3.536,0A3.536,3.536,0,1,1,3.536,0" fill="steelblue" stroke-width="2" opacity="0.8"/><path aria-label="Coffee Bags per Month: 47; Code Commits per Month: 223" role="graphics-symbol" aria-roledescription="circle" transform="translate(223.25,132.75)" d="M3.536,0A3.536,3.536,0,1,1,-3.536,0A3.536,3.536,0,1,1,3.536,0" fill="steelblue" stroke-width="2" opacity="0.8"/><path aria-label="Coffee Bags per Month: 43; Code Commits per Month: 234" role="graphics-symbol" aria-roledescription="circle" transform="translate(204.25,124.50000000000001)" d="M3.536,0A3.536,3.536,0,1,1,-3.536,0A3.536,3.536,0,1,1,3.536,0" fill="steelblue" stroke-width="2" opacity="0.8"/><path aria-label="Coffee Bags per Month: 41; Code Commits per Month: 222" role="graphics-symbol" aria-roledescription="circle" transform="translate(194.74999999999997,133.49999999999997)" d="M3.536,0A3.536,3.536,0,1,1,-3.536,0A3.536,3.536,0,1,1,3.536,0" fill="steelblue" stroke-width="2" opacity="0.8"/><path aria-label="Coffee Bags per Month: 48; Code Commits per Month: 238" role="graphics-symbol" aria-roledescription="circle" transform="translate(228,121.50000000000001)" d="M3.536,0A3.536,3.536,0,1,1,-3.536,0A3.536,3.536,0,1,1,3.536,0" fill="steelblue" stroke-width="2" opacity="0.8"/><path aria-label="Coffee Bags per Month: 47; Code Commits per Month: 220" role="graphics-symbol" aria-roledescription="circle" transform="translate(223.25,135)" d="M3.536,0A3.536,3.536,0,1,1,-3.536,0A3.536,3.536,0,1,1,3.536,0" fill="steelblue" stroke-width="2" opacity="0.8"/><path aria-label="Coffee Bags per Month: 43; Code Commits per Month: 226" role="graphics-symbol" aria-roledescription="circle" transform="translate(204.25,130.50000000000003)" d="M3.536,0A3.536,3.536,0,1,1,-3.536,0A3.536,3.536,0,1,1,3.536,0" fill="steelblue" stroke-width="2" opacity="0.8"/><path aria-label="Coffee Bags per Month: 47; Code Commits per Month: 234" role="graphics-symbol" aria-roledescription="circle" transform="translate(223.25,124.50000000000001)" d="M3.536,0A3.536,3.536,0,1,1,-3.536,0A3.536,3.536,0,1,1,3.536,0" fill="steelblue" stroke-width="2" opacity="0.8"/><path aria-label="Coffee Bags per Month: 47; Code Commits per Month: 238" role="graphics-symbol" aria-roledescription="circle" transform="translate(223.25,121.50000000000001)" d="M3.536,0A3.536,3.536,0,1,1,-3.536,0A3.536,3.536,0,1,1,3.536,0" fill="steelblue" stroke-width="2" opacity="0.8"/><path aria-label="Coffee Bags per Month: 51; Code Commits per Month: 265" role="graphics-symbol" aria-roledescription="circle" transform="translate(242.24999999999997,101.25)" d="M3.536,0A3.536,3.536,0,1,1,-3.536,0A3.536,3.536,0,1,1,3.536,0" fill="steelblue" stroke-width="2" opacity="0.8"/><path aria-label="Coffee Bags per Month: 47; Code Commits per Month: 268" role="graphics-symbol" aria-roledescription="circle" transform="translate(223.25,98.99999999999999)" d="M3.536,0A3.536,3.536,0,1,1,-3.536,0A3.536,3.536,0,1,1,3.536,0" fill="steelblue" stroke-width="2" opacity="0.8"/><path aria-label="Coffee Bags per Month: 52; Code Commits per Month: 239" role="graphics-symbol" aria-roledescription="circle" transform="translate(247,120.74999999999999)" d="M3.536,0A3.536,3.536,0,1,1,-3.536,0A3.536,3.536,0,1,1,3.536,0" fill="steelblue" stroke-width="2" opacity="0.8"/><path aria-label="Coffee Bags per Month: 52; Code Commits per Month: 256" role="graphics-symbol" aria-roledescription="circle" transform="translate(247,108)" d="M3.536,0A3.536,3.536,0,1,1,-3.536,0A3.536,3.536,0,1,1,3.536,0" fill="steelblue" stroke-width="2" opacity="0.8"/><path aria-label="Coffee Bags per Month: 46; Code Commits per Month: 269" role="graphics-symbol" aria-roledescription="circle" transform="translate(218.49999999999997,98.25)" d="M3.536,0A3.536,3.536,0,1,1,-3.536,0A3.536,3.536,0,1,1,3.536,0" fill="steelblue" stroke-width="2" opacity="0.8"/><path aria-label="Coffee Bags per Month: 53; Code Commits per Month: 295" role="graphics-symbol" aria-roledescription="circle" transform="translate(251.75,78.74999999999999)" d="M3.536,0A3.536,3.536,0,1,1,-3.536,0A3.536,3.536,0,1,1,3.536,0" fill="steelblue" stroke-width="2" opacity="0.8"/><path aria-label="Coffee Bags per Month: 53; Code Commits per Month: 259" role="graphics-symbol" aria-roledescription="circle" transform="translate(251.75,105.75000000000001)" d="M3.536,0A3.536,3.536,0,1,1,-3.536,0A3.536,3.536,0,1,1,3.536,0" fill="steelblue" stroke-width="2" opacity="0.8"/><path aria-label="Coffee Bags per Month: 55; Code Commits per Month: 257" role="graphics-symbol" aria-roledescription="circle" transform="translate(261.25,107.25000000000001)" d="M3.536,0A3.536,3.536,0,1,1,-3.536,0A3.536,3.536,0,1,1,3.536,0" fill="steelblue" stroke-width="2" opacity="0.8"/><path aria-label="Coffee Bags per Month: 60; Code Commits per Month: 297" role="graphics-symbol" aria-roledescription="circle" transform="translate(285,77.24999999999999)" d="M3.536,0A3.536,3.536,0,1,1,-3.536,0A3.536,3.536,0,1,1,3.536,0" fill="steelblue" stroke-width="2" opacity="0.8"/><path aria-label="Coffee Bags per Month: 59; Code Commits per Month: 284" role="graphics-symbol" aria-roledescription="circle" transform="translate(280.25,87.00000000000001)" d="M3.536,0A3.536,3.536,0,1,1,-3.536,0A3.536,3.536,0,1,1,3.536,0" fill="steelblue" stroke-width="2" opacity="0.8"/><path aria-label="Coffee Bags per Month: 53; Code Commits per Month: 292" role="graphics-symbol" aria-roledescription="circle" transform="translate(251.75,81)" d="M3.536,0A3.536,3.536,0,1,1,-3.536,0A3.536,3.536,0,1,1,3.536,0" fill="steelblue" stroke-width="2" opacity="0.8"/><path aria-label="Coffee Bags per Month: 65; Code Commits per Month: 295" role="graphics-symbol" aria-roledescription="circle" transform="translate(308.75,78.74999999999999)" d="M3.536,0A3.536,3.536,0,1,1,-3.536,0A3.536,3.536,0,1,1,3.536,0" fill="steelblue" stroke-width="2" opacity="0.8"/><path aria-label="Coffee Bags per Month: 61; Code Commits per Month: 307" role="graphics-symbol" aria-roledescription="circle" transform="translate(289.75,69.75000000000001)" d="M3.536,0A3.536,3.536,0,1,1,-3.536,0A3.536,3.536,0,1,1,3.536,0" fill="steelblue" stroke-width="2" opacity="0.8"/><path aria-label="Coffee Bags per Month: 56; Code Commits per Month: 333" role="graphics-symbol" aria-roledescription="circle" transform="translate(266,50.24999999999999)" d="M3.536,0A3.536,3.536,0,1,1,-3.536,0A3.536,3.536,0,1,1,3.536,0" fill="steelblue" stroke-width="2" opacity="0.8"/><path aria-label="Coffee Bags per Month: 63; Code Commits per Month: 336" role="graphics-symbol" aria-roledescription="circle" transform="translate(299.25,48.00000000000001)" d="M3.536,0A3.536,3.536,0,1,1,-3.536,0A3.536,3.536,0,1,1,3.536,0" fill="steelblue" stroke-width="2" opacity="0.8"/><path aria-label="Coffee Bags per Month: 63; Code Commits per Month: 318" role="graphics-symbol" aria-roledescription="circle" transform="translate(299.25,61.499999999999986)" d="M3.536,0A3.536,3.536,0,1,1,-3.536,0A3.536,3.536,0,1,1,3.536,0" fill="steelblue" stroke-width="2" opacity="0.8"/><path aria-label="Coffee Bags per Month: 71; Code Commits per Month: 330" role="graphics-symbol" aria-roledescription="circle" transform="translate(337.25,52.500000000000014)" d="M3.536,0A3.536,3.536,0,1,1,-3.536,0A3.536,3.536,0,1,1,3.536,0" fill="steelblue" stroke-width="2" opacity="0.8"/><path aria-label="Coffee Bags per Month: 64; Code Commits per Month: 350" role="graphics-symbol" aria-roledescription="circle" transform="translate(304,37.5)" d="M3.536,0A3.536,3.536,0,1,1,-3.536,0A3.536,3.536,0,1,1,3.536,0" fill="steelblue" stroke-width="2" opacity="0.8"/></g><g class="mark-line role-mark layer_1_marks" role="graphics-object" aria-roledescription="line mark container"><path aria-label="coffee: 18; commits: 99.2955684186" role="graphics-symbol" aria-roledescription="line mark" d="M85.5,225.528L337.25,33.938" stroke="red" stroke-width="2"/></g><g class="mark-group role-title"><g transform="translate(190,-22)"><path class="background" aria-hidden="true" d="M0,0h0v0h0Z" pointer-events="none"/><g><g class="mark-text role-title-text" role="graphics-symbol" aria-roledescription="title" aria-label="Title text 'Coffee Consumption vs Code Commits (48 months)'" pointer-events="none"><text text-anchor="middle" transform="translate(0,10)" font-family="sans-serif" font-size="13px" font-weight="bold" fill="#000" opacity="1">Coffee Consumption vs Code Commits (48 months)</text></g></g><path class="foreground" aria-hidden="true" d="" pointer-events="none" display="none"/></g></g></g><path class="foreground" aria-hidden="true" d="" display="none"/></g></g></g></svg>