<svg xmlns="http://www.w3.org/2000/svg" xmlns:xlink="http://www.w3.org/1999/xlink" version="1.1" class="marks" width="480" height="364" viewBox="0 0 480 364"><rect width="480" height="364" fill="white"/><g fill="none" stroke-miterlimit="10" transform="translate(44,27)"><g class="mark-group role-frame root" role="graphics-object" aria-roledescription="group mark container"><g transform="translate(0,0)"><path class="background" aria-hidden="true" d="M0.5,0.5h380v300h-380Z" stroke="#ddd"/><g><g class="mark-group role-axis" aria-hidden="true"><g transform="translate(0.5,300.5)"><path class="background" aria-hidden="true" d="M0,0h0v0h0Z" pointer-events="none"/><g><g class="mark-rule role-axis-grid" pointer-events="none"><line transform="translate(0,-300)" x2="0" y2="300" stroke="#ddd" stroke-width="1" opacity="1"/><line transform="translate(48,-300)" x2="0" y2="300" stroke="#ddd" stroke-width="1" opacity="1"/><line transform="translate(95,-300)" x2="0" y2="300" stroke="#ddd" stroke-width="1" opacity="1"/><line transform="translate(143,-300)" x2="0" y2="300" stroke="#ddd" stroke-width="1" opacity="1"/><line transform="translate(190,-300)" x2="0" y2="300" stroke="#ddd" stroke-width="1" opacity="1"/><line transform="translate(238,-300)" x2="0" y2="300" stroke="#ddd" stroke-width="1" opacity="1"/><line transform="translate(285,-300)" x2="0" y2="300" stroke="#ddd" stroke-width="1" opacity="1"/><line transform="translate(333,-300)" x2="0" y2="300" stroke="#ddd" stroke-width="1" opacity="1"/><line transform="translate(380,-300)" x2="0" y2="300" stroke="#ddd" stroke-width="1" opacity="1"/></g></g><path class="foreground" aria-hidden="true" d="" pointer-events="none" display="none"/></g></g><g class="mark-group role-axis" aria-hidden="true"><g transform="translate(0.5,0.5)"><path class="background" aria-hidden="true" d="M0,0h0v0h0Z" pointer-events="none"/><g><g class="mark-rule role-axis-grid" pointer-events="none"><line transform="translate(0,300)" x2="380" y2="0" stroke="#ddd" stroke-width="1" opacity="1"/><line transform="translate(0,257)" x2="380" y2="0" stroke="#ddd" stroke-width="1" opacity="1"/><line transform="translate(0,214)" x2="380" y2="0" stroke="#ddd" stroke-width="1" opacity="1"/><line transform="translate(0,171)" x2="380" y2="0" stroke="#ddd" stroke-width="1" opacity="1"/><line transform="translate(0,129)" x2="380" y2="0" stroke="#ddd" stroke-width="1" opacity="1"/><line transform="translate(0,86)" x2="380" y2="0" stroke="#ddd" stroke-width="1" opacity="1"/><line transform="translate(0,43)" x2="380" y2="0" stroke="#ddd" stroke-width="1" opacity="1"/><line transform="translate(0,0)" x2="380" y2="0" stroke="#ddd" stroke-width="1" opacity="1"/></g></g><path class="foreground" aria-hidden="true" d="" pointer-events="none" display="none"/></g></g><g class="mark-group role-axis" role="graphics-symbol" aria-roledescription="axis" aria-label="X-axis titled 'Coffee Bags per Month' for a linear scale with values from 0 to 80"><g transform="translate(0.5,300.5)"><path class="background" aria-hidden="true" d="M0,0h0v0h0Z" pointer-events="none"/><g><g class="mark-rule role-axis-tick" pointer-events="none"><line transform="translate(0,0)" x2="0" y2="5" stroke="#888" stroke-width="1" opacity="1"/><line transform="translate(48,0)" x2="0" y2="5" stroke="#888" stroke-width="1" opacity="1"/><line transform="translate(95,0)" x2="0" y2="5" stroke="#888" stroke-width="1" opacity="1"/><line transform="translate(143,0)" x2="0" y2="5" stroke="#888" stroke-width="1" opacity="1"/><line transform="translate(190,0)" x2="0" y2="5" stroke="#888" stroke-width="1" opacity="1"/><line transform="translate(238,0)" x2="0" y2="5" stroke="#888" stroke-width="1" opacity="1"/><line transform="translate(285,0)" x2="0" y2="5" stroke="#888" stroke-width="1" opacity="1"/><line transform="translate(333,0)" x2="0" y2="5" stroke="#888" stroke-width="1" opacity="1"/><line transform="translate(380,0)" x2="0" y2="5" stroke="#888" stroke-width="1" opacity="1"/></g><g class="mark-text role-axis-label" pointer-events="none"><text text-anchor="start" transform="translate(0,15)" font-family="sans-serif" font-size="10px" fill="#000" opacity="1">0</text><text text-anchor="middle" transform="translate(47.5,15)" font-family="sans-serif" font-size="10px" fill="#000" opacity="1">10</text><text text-anchor="middle" transform="translate(95,15)" font-family="sans-serif" font-size="10px" fill="#000" opacity="1">20</text><text text-anchor="middle" transform="translate(142.5,15)" font-family="sans-serif" font-size="10px" fill="#000" opacity="1">30</text><text text-anchor="middle" transform="translate(190,15)" font-family="sans-serif" font-size="10px" fill="#000" opacity="1">40</text><text text-anchor="middle" transform="translate(237.5,15)" font-family="sans-serif" font-size="10px" fill="#000" opacity="1">50</text><text text-anchor="middle" transform="translate(285,15)" font-family="sans-serif" font-size="10px" fill="#000" opacity="1">60</text><text text-anchor="middle" transform="translate(332.5,15)" font-family="sans-serif" font-size="10px" fill="#000" opacity="1">70</text><text text-anchor="end" transform="translate(380,15)" font-family="sans-serif" font-size="10px" fill="#000" opacity="1">80</text></g><g class="mark-rule role-axis-domain" pointer-events="none"><line transform="translate(0,0)" x2="380" y2="0" stroke="#888" stroke-width="1" opacity="1"/></g><g class="mark-text role-axis-title" pointer-events="none"><text text-anchor="middle" transform="translate(190,30)" font-family="sans-serif" font-size="11px" font-weight="bold" fill="#000" opacity="1">Coffee Bags per Month</text></g></g><path class="foreground" aria-hidden="true" d="" pointer-events="none" display="none"/></g></g><g class="mark-group role-axis" role="graphics-symbol" aria-roledescription="axis" aria-label="Y-axis titled 'Code Commits per Month' for a linear scale with values from 0 to 350"><g transform="translate(0.5,0.5)"><path class="background" aria-hidden="true" d="M0,0h0v0h0Z" pointer-events="none"/><g><g class="mark-rule role-axis-tick" pointer-events="none"><line transform="translate(0,300)" x2="-5" y2="0" stroke="#888" stroke-width="1" opacity="1"/><line transform="translate(0,257)" x2="-5" y2="0" stroke="#888" stroke-width="1" opacity="1"/><line transform="translate(0,214)" x2="-5" y2="0" stroke="#888" stroke-width="1" opacity="1"/><line transform="translate(0,171)" x2="-5" y2="0" stroke="#888" stroke-width="1" opacity="1"/><line transform="translate(0,129)" x2="-5" y2="0" stroke="#888" stroke-width="1" opacity="1"/><line transform="translate(0,86)" x2="-5" y2="0" stroke="#888" stroke-width="1" opacity="1"/><line transform="translate(0,43)" x2="-5" y2="0" stroke="#888" stroke-width="1" opacity="1"/><line transform="translate(0,0)" x2="-5" y2="0" stroke="#888" stroke-width="1" opacity="1"/></g><g class="mark-text role-axis-label" pointer-events="none"><text text-anchor="end" transform="translate(-7,303)" font-family="sans-serif" font-size="10px" fill="#000" opacity="1">0</text><text text-anchor="end" transform="translate(-7,260.14285714285717)" font-family="sans-serif" font-size="10px" fill="#000" opacity="1">50</text><text text-anchor="end" transform="translate(-7,217.28571428571428)" font-family="sans-serif" font-size="10px" fill="#000" opacity="1">100</text><text text-anchor="end" transform="translate(-7,174.42857142857142)" font-family="sans-serif" font-size="10px" fill="#000" opacity="1">150</text><text text-anchor="end" transform="translate(-7,131.57142857142858)" font-family="sans-serif" font-size="10px" fill="#000" opacity="1">200</text><text text-anchor="end" transform="translate(-7,88.71428571428571)" font-family="sans-serif" font-size="10px" fill="#000" opacity="1">250</text><text text-anchor="end" transform="translate(-7,45.85714285714287)" font-family="sans-serif" font-size="10px" fill="#000" opacity="1">300</text><text text-anchor="end" transform="translate(-7,3)" font-family="sans-serif" font-size="10px" fill="#000" opacity="1">350</text></g><g class="mark-rule role-axis-domain" pointer-events="none"><line transform="translate(0,300)" x2="0" y2="-300" stroke="#888" stroke-width="1" opacity="1"/></g><g class="mark-text role-axis-title" pointer-events="none"><text text-anchor="middle" transform="translate(-27.6845703125,150) rotate(-90) translate(0,-2)" font-family="sans-serif" font-size="11px" font-weight="bold" fill="#000" opacity="1">Code Commits per Month</text></g></g><path class="foreground" aria-hidden="true" d="" pointer-events="none" display="none"/></g></g><g class="mark-symbol role-mark marks" role="graphics-object" aria-roledescription="symbol mark container"><path aria-label="Coffee Bags per Month: 20; Code Commits per Month: 112; Month: 1" role="graphics-symbol" aria-roledescription="circle" transform="translate(95,203.99999999999997)" d="M3.873,0A3.873,3.873,0,1,1,-3.873,0A3.873,3.873,0,1,1,3.873,0" fill="rgb(68, 1, 84)" stroke-width="2" opacity="0.85"/><path aria-label="Coffee Bags per Month: 24; Code Commits per Month: 144; Month: 2" role="graphics-symbol" aria-roledescription="circle" transform="translate(114,176.57142857142856)" d="M3.873,0A3.873,3.873,0,1,1,-3.873,0A3.873,3.873,0,1,1,3.873,0" fill="rgb(70, 9, 92)" stroke-width="2" opacity="0.85"/><path aria-label="Coffee Bags per Month: 18; Code Commits per Month: 130; Month: 3" role="graphics-symbol" aria-roledescription="circle" transform="translate(85.5,188.57142857142856)" d="M3.873,0A3.873,3.873,0,1,1,-3.873,0A3.873,3.873,0,1,1,3.873,0" fill="rgb(71, 17, 100)" stroke-width="2" opacity="0.85"/><path aria-label="Coffee Bags per Month: 26; Code Commits per Month: 111; Month: 4" role="graphics-symbol" aria-roledescription="circle" transform="translate(123.5,204.85714285714286)" d="M3.873,0A3.873,3.873,0,1,1,-3.873,0A3.873,3.873,0,1,1,3.873,0" fill="rgb(72, 25, 107)" stroke-width="2" opacity="0.85"/><path aria-label="Coffee Bags per Month: 28; Code Commits per Month: 104; Month: 5" role="graphics-symbol" aria-roledescription="circle" transform="translate(133,210.85714285714286)" d="M3.873,0A3.873,3.873,0,1,1,-3.873,0A3.873,3.873,0,1,1,3.873,0" fill="rgb(72, 32, 113)" stroke-width="2" opacity="0.85"/><path aria-label="Coffee Bags per Month: 24; Code Commits per Month: 113; Month: 6" role="graphics-symbol" aria-roledescription="circle" transform="translate(114,203.14285714285714)" d="M3.873,0A3.873,3.873,0,1,1,-3.873,0A3.873,3.873,0,1,1,3.873,0" fill="rgb(72, 39, 119)" stroke-width="2" opacity="0.85"/><path aria-label="Coffee Bags per Month: 27; Code Commits per Month: 133; Month: 7" role="graphics-symbol" aria-roledescription="circle" transform="translate(128.25,186)" d="M3.873,0A3.873,3.873,0,1,1,-3.873,0A3.873,3.873,0,1,1,3.873,0" fill="rgb(71, 45, 124)" stroke-width="2" opacity="0.85"/><path aria-label="Coffee Bags per Month: 28; Code Commits per Month: 130; Month: 8" role="graphics-symbol" aria-roledescription="circle" transform="translate(133,188.57142857142856)" d="M3.873,0A3.873,3.873,0,1,1,-3.873,0A3.873,3.873,0,1,1,3.873,0" fill="rgb(70, 52, 128)" stroke-width="2" opacity="0.85"/><path aria-label="Coffee Bags per Month: 29; Code Commits per Month: 134; Month: 9" role="graphics-symbol" aria-roledescription="circle" transform="translate(137.75,185.14285714285717)" d="M3.873,0A3.873,3.873,0,1,1,-3.873,0A3.873,3.873,0,1,1,3.873,0" fill="rgb(68, 59, 131)" stroke-width="2" opacity="0.85"/><path aria-label="Coffee Bags per Month: 29; Code Commits per Month: 170; Month: 10" role="graphics-symbol" aria-roledescription="circle" transform="translate(137.75,154.28571428571428)" d="M3.873,0A3.873,3.873,0,1,1,-3.873,0A3.873,3.873,0,1,1,3.873,0" fill="rgb(66, 65, 134)" stroke-width="2" opacity="0.85"/><path aria-label="Coffee Bags per Month: 29; Code Commits per Month: 144; Month: 11" role="graphics-symbol" aria-roledescription="circle" transform="translate(137.75,176.57142857142856)" d="M3.873,0A3.873,3.873,0,1,1,-3.873,0A3.873,3.873,0,1,1,3.873,0" fill="rgb(63, 72, 136)" stroke-width="2" opacity="0.85"/><path aria-label="Coffee Bags per Month: 33; Code Commits per Month: 142; Month: 12" role="graphics-symbol" aria-roledescription="circle" transform="translate(156.75,178.28571428571428)" d="M3.873,0A3.873,3.873,0,1,1,-3.873,0A3.873,3.873,0,1,1,3.873,0" fill="rgb(61, 78, 138)" stroke-width="2" opacity="0.85"/><path aria-label="Coffee Bags per Month: 31; Code Commits per Month: 128; Month: 13" role="graphics-symbol" aria-roledescription="circle" transform="translate(147.25,190.2857142857143)" d="M3.873,0A3.873,3.873,0,1,1,-3.873,0A3.873,3.873,0,1,1,3.873,0" fill="rgb(58, 83, 139)" stroke-width="2" opacity="0.85"/><path aria-label="Coffee Bags per Month: 24; Code Commits per Month: 163; Month: 14" role="graphics-symbol" aria-roledescription="circle" transform="translate(114,160.28571428571428)" d="M3.873,0A3.873,3.873,0,1,1,-3.873,0A3.873,3.873,0,1,1,3.873,0" fill="rgb(56, 89, 140)" stroke-width="2" opacity="0.85"/><path aria-label="Coffee Bags per Month: 30; Code Commits per Month: 172; Month: 15" role="graphics-symbol" aria-roledescription="circle" transform="translate(142.5,152.57142857142856)" d="M3.873,0A3.873,3.873,0,1,1,-3.873,0A3.873,3.873,0,1,1,3.873,0" fill="rgb(53, 95, 141)" stroke-width="2" opacity="0.85"/><path aria-label="Coffee Bags per Month: 26; Code Commits per Month: 173; Month: 16" role="graphics-symbol" aria-roledescription="circle" transform="translate(123.5,151.71428571428572)" d="M3.873,0A3.873,3.873,0,1,1,-3.873,0A3.873,3.873,0,1,1,3.873,0" fill="rgb(51, 101, 142)" stroke-width="2" opacity="0.85"/><path aria-label="Coffee Bags per Month: 39; Code Commits per Month: 157; Month: 17" role="graphics-symbol" aria-roledescription="circle" transform="translate(185.25,165.42857142857142)" d="M3.873,0A3.873,3.873,0,1,1,-3.873,0A3.873,3.873,0,1,1,3.873,0" fill="rgb(48, 106, 142)" stroke-width="2" opacity="0.85"/><path aria-label="Coffee Bags per Month: 38; Code Commits per Month: 190; Month: 18" role="graphics-symbol" aria-roledescription="circle" transform="translate(180.5,137.14285714285717)" d="M3.873,0A3.873,3.873,0,1,1,-3.873,0A3.873,3.873,0,1,1,3.873,0" fill="rgb(46, 111, 142)" stroke-width="2" opacity="0.85"/><path aria-label="Coffee Bags per Month: 40; Code Commits per Month: 164; Month: 19" role="graphics-symbol" aria-roledescription="circle" transform="translate(190,159.42857142857142)" d="M3.873,0A3.873,3.873,0,1,1,-3.873,0A3.873,3.873,0,1,1,3.873,0" fill="rgb(44, 116, 142)" stroke-width="2" opacity="0.85"/><path aria-label="Coffee Bags per Month: 39; Code Commits per Month: 228; Month: 20" role="graphics-symbol" aria-roledescription="circle" transform="translate(185.25,104.57142857142856)" d="M3.873,0A3.873,3.873,0,1,1,-3.873,0A3.873,3.873,0,1,1,3.873,0" fill="rgb(42, 121, 142)" stroke-width="2" opacity="0.85"/><path aria-label="Coffee Bags per Month: 37; Code Commits per Month: 207; Month: 21" role="graphics-symbol" aria-roledescription="circle" transform="translate(175.75,122.57142857142857)" d="M3.873,0A3.873,3.873,0,1,1,-3.873,0A3.873,3.873,0,1,1,3.873,0" fill="rgb(40, 127, 142)" stroke-width="2" opacity="0.85"/><path aria-label="Coffee Bags per Month: 36; Code Commits per Month: 210; Month: 22" role="graphics-symbol" aria-roledescription="circle" transform="translate(171,120)" d="M3.873,0A3.873,3.873,0,1,1,-3.873,0A3.873,3.873,0,1,1,3.873,0" fill="rgb(37, 132, 142)" stroke-width="2" opacity="0.85"/><path aria-label="Coffee Bags per Month: 47; Code Commits per Month: 223; Month: 23" role="graphics-symbol" aria-roledescription="circle" transform="translate(223.25,108.85714285714286)" d="M3.873,0A3.873,3.873,0,1,1,-3.873,0A3.873,3.873,0,1,1,3.873,0" fill="rgb(35, 136, 142)" stroke-width="2" opacity="0.85"/><path aria-label="Coffee Bags per Month: 43; Code Commits per Month: 234; Month: 24" role="graphics-symbol" aria-roledescription="circle" transform="translate(204.25,99.42857142857142)" d="M3.873,0A3.873,3.873,0,1,1,-3.873,0A3.873,3.873,0,1,1,3.873,0" fill="rgb(34, 142, 141)" stroke-width="2" opacity="0.85"/><path aria-label="Coffee Bags per Month: 41; Code Commits per Month: 222; Month: 25" role="graphics-symbol" aria-roledescription="circle" transform="translate(194.74999999999997,109.71428571428574)" d="M3.873,0A3.873,3.873,0,1,1,-3.873,0A3.873,3.873,0,1,1,3.873,0" fill="rgb(32, 147, 140)" stroke-width="2" opacity="0.85"/><path aria-label="Coffee Bags per Month: 48; Code Commits per Month: 238; Month: 26" role="graphics-symbol" aria-roledescription="circle" transform="translate(228,95.99999999999999)" d="M3.873,0A3.873,3.873,0,1,1,-3.873,0A3.873,3.873,0,1,1,3.873,0" fill="rgb(31, 152, 139)" stroke-width="2" opacity="0.85"/><path aria-label="Coffee Bags per Month: 47; Code Commits per Month: 220; Month: 27" role="graphics-symbol" aria-roledescription="circle" transform="translate(223.25,111.42857142857143)" d="M3.873,0A3.873,3.873,0,1,1,-3.873,0A3.873,3.873,0,1,1,3.873,0" fill="rgb(31, 157, 137)" stroke-width="2" opacity="0.85"/><path aria-label="Coffee Bags per Month: 43; Code Commits per Month: 226; Month: 28" role="graphics-symbol" aria-roledescription="circle" transform="translate(204.25,106.28571428571429)" d="M3.873,0A3.873,3.873,0,1,1,-3.873,0A3.873,3.873,0,1,1,3.873,0" fill="rgb(32, 162, 135)" stroke-width="2" opacity="0.85"/><path aria-label="Coffee Bags per Month: 47; Code Commits per Month: 234; Month: 29" role="graphics-symbol" aria-roledescription="circle" transform="translate(223.25,99.42857142857142)" d="M3.873,0A3.873,3.873,0,1,1,-3.873,0A3.873,3.873,0,1,1,3.873,0" fill="rgb(34, 167, 133)" stroke-width="2" opacity="0.85"/><path aria-label="Coffee Bags per Month: 47; Code Commits per Month: 238; Month: 30" role="graphics-symbol" aria-roledescription="circle" transform="translate(223.25,95.99999999999999)" d="M3.873,0A3.873,3.873,0,1,1,-3.873,0A3.873,3.873,0,1,1,3.873,0" fill="rgb(38, 172, 129)" stroke-width="2" opacity="0.85"/><path aria-label="Coffee Bags per Month: 51; Code Commits per Month: 265; Month: 31" role="graphics-symbol" aria-roledescription="circle" transform="translate(242.24999999999997,72.85714285714286)" d="M3.873,0A3.873,3.873,0,1,1,-3.873,0A3.873,3.873,0,1,1,3.873,0" fill="rgb(44, 177, 126)" stroke-width="2" opacity="0.85"/><path aria-label="Coffee Bags per Month: 47; Code Commits per Month: 268; Month: 32" role="graphics-symbol" aria-roledescription="circle" transform="translate(223.25,70.28571428571429)" d="M3.873,0A3.873,3.873,0,1,1,-3.873,0A3.873,3.873,0,1,1,3.873,0" fill="rgb(51, 182, 122)" stroke-width="2" opacity="0.85"/><path aria-label="Coffee Bags per Month: 52; Code Commits per Month: 239; Month: 33" role="graphics-symbol" aria-roledescription="circle" transform="translate(247,95.14285714285715)" d="M3.873,0A3.873,3.873,0,1,1,-3.873,0A3.873,3.873,0,1,1,3.873,0" fill="rgb(59, 186, 118)" stroke-width="2" opacity="0.85"/><path aria-label="Coffee Bags per Month: 52; Code Commits per Month: 256; Month: 34" role="graphics-symbol" aria-roledescription="circle" transform="translate(247,80.57142857142857)" d="M3.873,0A3.873,3.873,0,1,1,-3.873,0A3.873,3.873,0,1,1,3.873,0" fill="rgb(68, 191, 112)" stroke-width="2" opacity="0.85"/><path aria-label="Coffee Bags per Month: 46; Code Commits per Month: 269; Month: 35" role="graphics-symbol" aria-roledescription="circle" transform="translate(218.49999999999997,69.42857142857143)" d="M3.873,0A3.873,3.873,0,1,1,-3.873,0A3.873,3.873,0,1,1,3.873,0" fill="rgb(79, 195, 107)" stroke-width="2" opacity="0.85"/><path aria-label="Coffee Bags per Month: 53; Code Commits per Month: 295; Month: 36" role="graphics-symbol" aria-roledescription="circle" transform="translate(251.75,47.14285714285714)" d="M3.873,0A3.873,3.873,0,1,1,-3.873,0A3.873,3.873,0,1,1,3.873,0" fill="rgb(90, 199, 100)" stroke-width="2" opacity="0.85"/><path aria-label="Coffee Bags per Month: 53; Code Commits per Month: 259; Month: 37" role="graphics-symbol" aria-roledescription="circle" transform="translate(251.75,78)" d="M3.873,0A3.873,3.873,0,1,1,-3.873,0A3.873,3.873,0,1,1,3.873,0" fill="rgb(102, 204, 93)" stroke-width="2" opacity="0.85"/><path aria-label="Coffee Bags per Month: 55; Code Commits per Month: 257; Month: 38" role="graphics-symbol" aria-roledescription="circle" transform="translate(261.25,79.71428571428571)" d="M3.873,0A3.873,3.873,0,1,1,-3.873,0A3.873,3.873,0,1,1,3.873,0" fill="rgb(114, 207, 86)" stroke-width="2" opacity="0.85"/><path aria-label="Coffee Bags per Month: 60; Code Commits per Month: 297; Month: 39" role="graphics-symbol" aria-roledescription="circle" transform="translate(285,45.42857142857144)" d="M3.873,0A3.873,3.873,0,1,1,-3.873,0A3.873,3.873,0,1,1,3.873,0" fill="rgb(127, 211, 78)" stroke-width="2" opacity="0.85"/><path aria-label="Coffee Bags per Month: 59; Code Commits per Month: 284; Month: 40" role="graphics-symbol" aria-roledescription="circle" transform="translate(280.25,56.571428571428584)" d="M3.873,0A3.873,3.873,0,1,1,-3.873,0A3.873,3.873,0,1,1,3.873,0" fill="rgb(141, 214, 69)" stroke-width="2" opacity="0.85"/><path aria-label="Coffee Bags per Month: 53; Code Commits per Month: 292; Month: 41" role="graphics-symbol" aria-roledescription="circle" transform="translate(251.75,49.71428571428571)" d="M3.873,0A3.873,3.873,0,1,1,-3.873,0A3.873,3.873,0,1,1,3.873,0" fill="rgb(155, 217, 61)" stroke-width="2" opacity="0.85"/><path aria-label="Coffee Bags per Month: 65; Code Commits per Month: 295; Month: 42" role="graphics-symbol" aria-roledescription="circle" transform="translate(308.75,47.14285714285714)" d="M3.873,0A3.873,3.873,0,1,1,-3.873,0A3.873,3.873,0,1,1,3.873,0" fill="rgb(169, 220, 51)" stroke-width="2" opacity="0.85"/><path aria-label="Coffee Bags per Month: 61; Code Commits per Month: 307; Month: 43" role="graphics-symbol" aria-roledescription="circle" transform="translate(289.75,36.85714285714287)" d="M3.873,0A3.873,3.873,0,1,1,-3.873,0A3.873,3.873,0,1,1,3.873,0" fill="rgb(184, 222, 42)" stroke-width="2" opacity="0.85"/><path aria-label="Coffee Bags per Month: 56; Code Commits per Month: 333; Month: 44" role="graphics-symbol" aria-roledescription="circle" transform="translate(266,14.57142857142858)" d="M3.873,0A3.873,3.873,0,1,1,-3.873,0A3.873,3.873,0,1,1,3.873,0" fill="rgb(198, 224, 34)" stroke-width="2" opacity="0.85"/><path aria-label="Coffee Bags per Month: 63; Code Commits per Month: 336; Month: 45" role="graphics-symbol" aria-roledescription="circle" transform="translate(299.25,12.00000000000001)" d="M3.873,0A3.873,3.873,0,1,1,-3.873,0A3.873,3.873,0,1,1,3.873,0" fill="rgb(212, 226, 27)" stroke-width="2" opacity="0.85"/><path aria-label="Coffee Bags per Month: 63; Code Commits per Month: 318; Month: 46" role="graphics-symbol" aria-roledescription="circle" transform="translate(299.25,27.428571428571423)" d="M3.873,0A3.873,3.873,0,1,1,-3.873,0A3.873,3.873,0,1,1,3.873,0" fill="rgb(227, 228, 26)" stroke-width="2" opacity="0.85"/><path aria-label="Coffee Bags per Month: 71; Code Commits per Month: 330; Month: 47" role="graphics-symbol" aria-roledescription="circle" transform="translate(337.25,17.14285714285715)" d="M3.873,0A3.873,3.873,0,1,1,-3.873,0A3.873,3.873,0,1,1,3.873,0" fill="rgb(240, 230, 30)" stroke-width="2" opacity="0.85"/><path aria-label="Coffee Bags per Month: 64; Code Commits per Month: 350; Month: 48" role="graphics-symbol" aria-roledescription="circle" transform="translate(304,0)" d="M3.873,0A3.873,3.873,0,1,1,-3.873,0A3.873,3.873,0,1,1,3.873,0" fill="rgb(253, 231, 37)" stroke-width="2" opacity="0.85"/></g><g class="mark-group role-legend" role="graphics-symbol" aria-roledescription="legend" aria-label="Gradient legend titled 'Month' for fill color with values from 1 to 48"><g transform="translate(398,0)"><path class="background" aria-hidden="true" d="M0,0h33v216h-33Z" pointer-events="none"/><g><g class="mark-group role-legend-entry"><g transform="translate(0,16)"><path class="background" aria-hidden="true" d="M0,0h0v0h0Z" pointer-events="none"/><g><g class="mark-rect role-legend-gradient" pointer-events="none"><path d="M0,0h16v200h-16Z" fill="url(#gradient_0)" stroke="#ddd" stroke-width="0" opacity="0.85"/></g><g class="mark-text role-legend-label" pointer-events="none"><text text-anchor="start" transform="translate(18,164.70212765957447)" font-family="sans-serif" font-size="10px" fill="#000" opacity="1">10</text><text text-anchor="start" transform="translate(18,122.14893617021276)" font-family="sans-serif" font-size="10px" fill="#000" opacity="1">20</text><text text-anchor="start" transform="translate(18,79.59574468085107)" font-family="sans-serif" font-size="10px" fill="#000" opacity="1">30</text><text text-anchor="start" transform="translate(18,37.04255319148937)" font-family="sans-serif" font-size="10px" fill="#000" opacity="1">40</text></g></g><path class="foreground" aria-hidden="true" d="" pointer-events="none" display="none"/></g></g><g class="mark-text role-legend-title" pointer-events="none"><text text-anchor="start" transform="translate(0,9)" font-family="sans-serif" font-size="11px" font-weight="bold" fill="#000" opacity="1">Month</text></g></g><path class="foreground" aria-hidden="true" d="" pointer-events="none" display="none"/></g></g><g class="mark-group role-title"><g transform="translate(190,-22)"><path class="background" aria-hidden="true" d="M0,0h0v0h0Z" pointer-events="none"/><g><g class="mark-text role-title-text" role="graphics-symbol" aria-roledescription="title" aria-label="Title text 'Coffee vs Commits — Colored by Month'" pointer-events="none"><text text-anchor="middle" transform="translate(0,10)" font-family="sans-serif" font-size="13px" font-weight="bold" fill="#000" opacity="1">Coffee vs Commits — Colored by Month</text></g></g><path class="foreground" aria-hidden="true" d="" pointer-events="none" display="none"/></g></g></g><path class="foreground" aria-hidden="true" d="" display="none"/></g></g></g><defs><linearGradient id="gradient_0" x1="0" x2="0" y1="1" y2="0"><stop offset="0" stop-color="rgb(68, 1, 84)"/><stop offset="0.02127659574468085" stop-color="rgb(70, 9, 92)"/><stop offset="0.06382978723404255" stop-color="rgb(72, 25, 107)"/><stop offset="0.10638297872340426" stop-color="rgb(72, 39, 119)"/><stop offset="0.14893617021276595" stop-color="rgb(70, 52, 128)"/><stop offset="0.19148936170212766" stop-color="rgb(66, 65, 134)"/><stop offset="0.23404255319148937" stop-color="rgb(61, 78, 138)"/><stop offset="0.2765957446808511" stop-color="rgb(56, 89, 140)"/><stop offset="0.3191489361702128" stop-color="rgb(51, 101, 142)"/><stop offset="0.3617021276595745" stop-color="rgb(46, 111, 142)"/><stop offset="0.40425531914893614" stop-color="rgb(42, 121, 142)"/><stop offset="0.44680851063829785" stop-color="rgb(37, 132, 142)"/><stop offset="0.48936170212765956" stop-color="rgb(34, 142, 141)"/><stop offset="0.5319148936170213" stop-color="rgb(31, 152, 139)"/><stop offset="0.574468085106383" stop-color="rgb(32, 162, 135)"/><stop offset="0.6170212765957447" stop-color="rgb(38, 172, 129)"/><stop offset="0.6595744680851063" stop-color="rgb(51, 182, 122)"/><stop offset="0.7021276595744681" stop-color="rgb(68, 191, 112)"/><stop offset="0.7446808510638298" stop-color="rgb(90, 199, 100)"/><stop offset="0.7872340425531915" stop-color="rgb(114, 207, 86)"/><stop offset="0.8297872340425532" stop-color="rgb(141, 214, 69)"/><stop offset="0.8723404255319149" stop-color="rgb(169, 220, 51)"/><stop offset="0.9148936170212766" stop-color="rgb(198, 224, 34)"/><stop offset="0.9574468085106383" stop-color="rgb(227, 228, 26)"/><stop offset="1" stop-color="rgb(253, 231, 37)"/></linearGradient></defs></svg>