<?xml version="1.0" encoding="UTF-8" standalone="no"?>
<svg
   xmlns:ooo="http://xml.openoffice.org/svg/export"
   xmlns:dc="http://purl.org/dc/elements/1.1/"
   xmlns:cc="http://creativecommons.org/ns#"
   xmlns:rdf="http://www.w3.org/1999/02/22-rdf-syntax-ns#"
   xmlns:svg="http://www.w3.org/2000/svg"
   xmlns="http://www.w3.org/2000/svg"
   xmlns:sodipodi="http://sodipodi.sourceforge.net/DTD/sodipodi-0.dtd"
   xmlns:inkscape="http://www.inkscape.org/namespaces/inkscape"
   version="1.2"
   width="916.83069"
   height="420.95709"
   viewBox="0 0 25874.999 11880.345"
   preserveAspectRatio="xMidYMid"
   clip-path="url(#presentation_clip_path)"
   xml:space="preserve"
   id="svg2"
   inkscape:version="0.48.5 r10040"
   sodipodi:docname="logo-source.svg"
   style="fill-rule:evenodd;stroke-width:28.22200012;stroke-linejoin:round"><metadata
     id="metadata153"><rdf:RDF><cc:Work
         rdf:about=""><dc:format>image/svg+xml</dc:format><dc:type
           rdf:resource="http://purl.org/dc/dcmitype/StillImage" /></cc:Work></rdf:RDF></metadata><sodipodi:namedview
     pagecolor="#ffffff"
     bordercolor="#666666"
     borderopacity="1"
     objecttolerance="10"
     gridtolerance="10"
     guidetolerance="10"
     inkscape:pageopacity="0"
     inkscape:pageshadow="2"
     inkscape:window-width="1095"
     inkscape:window-height="685"
     id="namedview151"
     showgrid="false"
     inkscape:zoom="0.30849673"
     inkscape:cx="740.90926"
     inkscape:cy="374.09101"
     inkscape:window-x="0"
     inkscape:window-y="0"
     inkscape:window-maximized="0"
     inkscape:current-layer="svg2"
     fit-margin-top="0"
     fit-margin-left="0"
     fit-margin-right="0"
     fit-margin-bottom="0" /><defs
     class="ClipPathGroup"
     id="defs4"><clipPath
       id="presentation_clip_path"
       clipPathUnits="userSpaceOnUse"><rect
         x="0"
         y="0"
         width="27940"
         height="21590"
         id="rect7" /></clipPath></defs><defs
     class="TextShapeIndex"
     id="defs9"><g
       ooo:slide="id1"
       ooo:id-list="id3 id4 id5 id6 id7 id8 id9 id10 id11 id12 id13 id14 id15 id16 id17 id18 id19 id20 id21"
       id="g11" /></defs><defs
     class="EmbeddedBulletChars"
     id="defs13"><g
       id="bullet-char-template(57356)"
       transform="scale(4.8828125e-4,-4.8828125e-4)"><path
         d="M 580,1141 1163,571 580,0 -4,571 580,1141 z"
         id="path16"
         inkscape:connector-curvature="0" /></g><g
       id="bullet-char-template(57354)"
       transform="scale(4.8828125e-4,-4.8828125e-4)"><path
         d="m 8,1128 1129,0 L 1137,0 8,0 8,1128 z"
         id="path19"
         inkscape:connector-curvature="0" /></g><g
       id="bullet-char-template(10146)"
       transform="scale(4.8828125e-4,-4.8828125e-4)"><path
         d="M 174,0 602,739 174,1481 1456,739 174,0 z m 1184,739 -1049,607 350,-607 699,0 z"
         id="path22"
         inkscape:connector-curvature="0" /></g><g
       id="bullet-char-template(10132)"
       transform="scale(4.8828125e-4,-4.8828125e-4)"><path
         d="M 2015,739 1276,0 717,0 l 543,543 -1086,0 0,393 1086,0 -543,545 557,0 741,-742 z"
         id="path25"
         inkscape:connector-curvature="0" /></g><g
       id="bullet-char-template(10007)"
       transform="scale(4.8828125e-4,-4.8828125e-4)"><path
         d="m 0,-2 c -7,16 -16,29 -25,39 l 381,530 c -94,256 -141,385 -141,387 0,25 13,38 40,38 9,0 21,-2 34,-5 21,4 42,12 65,25 l 27,-13 111,-251 280,301 64,-25 24,25 c 21,-10 41,-24 62,-43 C 886,937 835,863 770,784 769,783 710,716 594,584 L 774,223 c 0,-27 -21,-55 -63,-84 l 16,-20 C 717,90 699,76 672,76 641,76 570,178 457,381 L 164,-76 c -22,-34 -53,-51 -92,-51 -42,0 -63,17 -64,51 -7,9 -10,24 -10,44 0,9 1,19 2,30 z"
         id="path28"
         inkscape:connector-curvature="0" /></g><g
       id="bullet-char-template(10004)"
       transform="scale(4.8828125e-4,-4.8828125e-4)"><path
         d="M 285,-33 C 182,-33 111,30 74,156 52,228 41,333 41,471 c 0,78 14,145 41,201 34,71 87,106 158,106 53,0 88,-31 106,-94 l 23,-176 c 8,-64 28,-97 59,-98 l 735,706 c 11,11 33,17 66,17 42,0 63,-15 63,-46 l 0,-122 c 0,-36 -10,-64 -30,-84 L 442,47 C 390,-6 338,-33 285,-33 z"
         id="path31"
         inkscape:connector-curvature="0" /></g><g
       id="bullet-char-template(9679)"
       transform="scale(4.8828125e-4,-4.8828125e-4)"><path
         d="M 813,0 C 632,0 489,54 383,161 276,268 223,411 223,592 c 0,181 53,324 160,431 106,107 249,161 430,161 179,0 323,-54 432,-161 108,-107 162,-251 162,-431 0,-180 -54,-324 -162,-431 C 1136,54 992,0 813,0 z"
         id="path34"
         inkscape:connector-curvature="0" /></g><g
       id="bullet-char-template(8226)"
       transform="scale(4.8828125e-4,-4.8828125e-4)"><path
         d="m 346,457 c -73,0 -137,26 -191,78 -54,51 -81,114 -81,188 0,73 27,136 81,188 54,52 118,78 191,78 73,0 134,-26 185,-79 51,-51 77,-114 77,-187 0,-75 -25,-137 -76,-188 -50,-52 -112,-78 -186,-78 z"
         id="path37"
         inkscape:connector-curvature="0" /></g><g
       id="bullet-char-template(8211)"
       transform="scale(4.8828125e-4,-4.8828125e-4)"><path
         d="m -4,459 1139,0 0,147 -1139,0 0,-147 z"
         id="path40"
         inkscape:connector-curvature="0" /></g></defs><defs
     class="TextEmbeddedBitmaps"
     id="defs42" /><g
     id="g44"
     transform="translate(-356.1441,-395.08089)"><g
       id="id2"
       class="Master_Slide"><g
         id="bg-id2"
         class="Background" /><g
         id="bo-id2"
         class="BackgroundObjects" /></g></g><g
     class="SlideGroup"
     id="g49"
     transform="matrix(2.5,0,0,2.5,-2000,-749.65556)"><g
       id="g51"><g
         id="id1"
         class="Slide"
         clip-path="url(#presentation_clip_path)"><g
           class="Page"
           id="g54"><g
             class="com.sun.star.drawing.ClosedBezierShape"
             id="g56"><g
               id="id3"><path
                 d="m 1617,3199 c 33,-50 50,-110 50,-179 0,-45 -13,-86 -38,-122 -25,-35 -63,-67 -112,-93 -49,-26 -116,-50 -194,-69 -68,-17 -120,-30 -158,-41 -39,-12 -70,-27 -93,-45 -24,-18 -37,-42 -37,-71 0,-31 17,-58 49,-78 32,-21 72,-31 119,-31 46,0 84,8 111,24 27,15 50,36 70,61 24,30 45,52 63,67 17,14 39,21 63,21 34,0 61,-9 80,-26 18,-18 27,-40 27,-69 0,-25 -9,-52 -27,-79 -17,-27 -44,-52 -78,-75 -35,-23 -79,-41 -131,-54 -52,-14 -112,-21 -178,-21 -83,0 -155,14 -214,40 -58,27 -103,63 -133,108 -30,44 -45,92 -45,142 0,56 17,104 48,141 33,39 77,70 132,94 54,24 127,47 214,69 78,18 136,38 170,60 37,21 55,56 55,104 0,31 -18,59 -52,84 -34,23 -78,35 -131,35 -64,0 -115,-12 -153,-35 -37,-23 -70,-58 -97,-105 -12,-22 -26,-41 -40,-54 -13,-11 -32,-18 -57,-18 -30,0 -53,9 -72,29 -19,18 -28,41 -28,67 0,42 15,83 46,124 30,41 78,76 142,104 65,27 145,42 235,42 95,0 178,-13 244,-39 65,-26 116,-63 150,-112 z"
                 id="path59"
                 inkscape:connector-curvature="0"
                 style="fill:#2b3990;stroke:none" /></g></g><g
             class="com.sun.star.drawing.ClosedBezierShape"
             id="g61"><g
               id="id4"><path
                 d="m 3438,1938 c -83,0 -150,11 -197,32 -47,20 -80,54 -100,100 -20,46 -30,110 -30,189 l 0,83 -68,0 c -82,0 -122,28 -122,86 0,26 9,46 29,62 19,16 48,24 84,24 l 77,0 0,686 c 0,49 12,87 34,112 23,25 51,38 87,38 36,0 65,-13 88,-38 23,-25 35,-63 35,-112 l 0,-686 69,0 c 44,0 80,-5 105,-16 24,-10 35,-35 35,-74 0,-55 -46,-82 -140,-82 l -69,0 0,-67 c 0,-52 6,-92 20,-120 14,-30 47,-44 95,-44 17,0 38,2 63,5 24,4 41,6 51,6 19,0 36,-8 51,-24 14,-16 21,-34 21,-56 0,-69 -73,-104 -218,-104 z"
                 id="path64"
                 inkscape:connector-curvature="0"
                 style="fill:#2b3990;stroke:none" /></g></g><g
             class="com.sun.star.drawing.ClosedBezierShape"
             id="g66"><g
               id="id5"><path
                 d="m 4330,3229 c 0,-23 -8,-42 -23,-57 -16,-16 -32,-23 -52,-23 -13,0 -33,3 -58,7 -26,6 -48,9 -63,9 -29,0 -51,-8 -64,-22 -13,-14 -22,-34 -24,-57 -3,-21 -5,-53 -5,-93 l 0,-478 55,0 c 49,0 88,-7 114,-20 25,-13 37,-35 37,-67 0,-25 -9,-46 -26,-61 -18,-16 -45,-25 -79,-25 l -101,0 0,-181 c 0,-42 -2,-76 -6,-99 -5,-22 -15,-41 -32,-56 -25,-23 -53,-35 -84,-35 -22,0 -42,6 -60,16 -18,10 -32,23 -41,40 -9,16 -15,36 -18,58 -2,23 -2,56 -2,97 l 0,160 -35,0 c -37,0 -65,9 -85,25 -20,16 -28,36 -28,61 0,26 9,46 27,62 18,16 45,25 81,25 l 40,0 0,498 c 0,79 6,143 18,190 13,45 39,82 79,108 40,26 101,39 179,39 83,0 148,-11 192,-32 43,-21 64,-50 64,-89 z"
                 id="path69"
                 inkscape:connector-curvature="0"
                 style="fill:#2b3990;stroke:none" /></g></g><g
             class="com.sun.star.drawing.ClosedBezierShape"
             id="g71"><g
               id="id6"><path
                 d="m 5587,3152 210,-615 c 19,-52 29,-92 29,-117 0,-27 -11,-51 -32,-71 -21,-20 -47,-30 -75,-30 -29,0 -52,7 -67,19 -16,14 -27,29 -33,47 -7,18 -16,48 -27,89 l -176,595 -158,-555 c -15,-53 -28,-90 -36,-111 -9,-20 -23,-40 -44,-58 -20,-17 -49,-26 -86,-26 -36,0 -64,9 -85,26 -20,18 -34,37 -42,56 -7,20 -20,58 -36,113 l -158,555 -174,-595 c -16,-57 -32,-98 -47,-122 -13,-22 -40,-33 -80,-33 -31,0 -56,10 -77,31 -21,21 -31,44 -31,70 0,21 10,61 30,117 l 208,615 c 6,16 14,38 24,66 10,28 21,51 34,71 13,19 28,34 47,45 19,11 42,16 69,16 53,0 89,-18 110,-51 21,-34 42,-87 61,-155 l 147,-521 153,520 c 12,45 24,82 34,110 11,27 27,50 48,69 22,18 51,28 88,28 36,0 64,-9 85,-27 21,-18 36,-37 45,-59 10,-23 24,-61 42,-112 z"
                 id="path74"
                 inkscape:connector-curvature="0"
                 style="fill:#2b3990;stroke:none" /></g></g><g
             class="com.sun.star.drawing.ClosedBezierShape"
             id="g76"><g
               id="id7"><path
                 d="m 6870,3152 c -16,-53 -25,-104 -25,-153 1,-51 1,-98 2,-139 0,-42 0,-94 0,-154 0,-94 -13,-169 -40,-226 -25,-56 -70,-97 -133,-124 -63,-27 -152,-39 -263,-39 -100,0 -184,14 -250,41 -66,27 -116,62 -147,103 -32,41 -47,85 -47,128 0,27 10,48 29,66 20,18 44,26 71,26 30,0 49,-5 58,-15 9,-11 26,-36 49,-71 24,-37 54,-65 87,-84 33,-19 84,-28 150,-28 77,0 129,17 155,49 25,34 39,85 42,153 l 0,5 -5,2 c -52,15 -103,28 -150,40 -45,10 -101,23 -166,36 -68,14 -105,22 -121,25 -76,17 -137,49 -180,98 -43,48 -65,107 -65,175 0,50 13,98 39,142 26,44 65,78 113,103 49,26 106,38 170,38 72,0 136,-12 193,-35 57,-24 117,-60 179,-108 l 5,-5 4,7 c 28,46 56,82 81,106 24,23 49,35 73,35 30,0 57,-10 80,-31 24,-20 35,-42 35,-67 0,-14 -8,-48 -23,-99 z m -262,-276 c 0,90 -12,156 -35,196 -21,35 -54,65 -98,88 -43,22 -91,34 -143,34 -49,0 -89,-15 -120,-43 -31,-28 -46,-63 -46,-104 0,-39 13,-70 39,-92 27,-22 54,-37 82,-44 28,-7 78,-18 150,-34 71,-15 125,-30 163,-44 l 8,-2 0,45 z"
                 id="path79"
                 inkscape:connector-curvature="0"
                 style="fill:#2b3990;stroke:none" /></g></g><g
             class="com.sun.star.drawing.ClosedBezierShape"
             id="g81"><g
               id="id8"><path
                 d="m 7666,2359 c -49,-27 -101,-40 -154,-40 -51,0 -94,13 -125,39 -31,27 -62,66 -93,118 l -11,18 -1,-21 c -2,-51 -11,-90 -29,-116 -18,-26 -47,-38 -87,-38 -80,0 -119,55 -119,166 l 0,715 c 0,50 12,87 35,112 22,25 51,38 86,38 35,0 65,-13 88,-38 23,-24 35,-62 35,-112 l 0,-214 c 0,-77 2,-144 7,-197 5,-54 15,-101 28,-140 14,-40 32,-70 57,-91 43,-35 107,-42 194,-13 44,14 60,17 66,17 23,0 45,-10 66,-29 20,-19 30,-43 30,-72 0,-43 -24,-76 -73,-102 z"
                 id="path84"
                 inkscape:connector-curvature="0"
                 style="fill:#2b3990;stroke:none" /></g></g><g
             class="com.sun.star.drawing.ClosedBezierShape"
             id="g86"><g
               id="id9"><path
                 d="m 8672,3164 c 18,-30 27,-57 27,-78 0,-25 -8,-43 -23,-57 -14,-13 -34,-20 -59,-20 -23,0 -40,5 -53,16 -32,30 -58,53 -78,71 -20,18 -42,34 -66,50 -24,16 -50,28 -75,35 -27,7 -55,11 -87,11 -46,0 -89,-12 -128,-35 -39,-23 -70,-58 -94,-103 -23,-45 -35,-98 -36,-157 l 0,-6 508,0 c 67,0 118,-10 154,-29 34,-17 52,-58 52,-119 0,-68 -18,-136 -53,-202 -35,-66 -88,-120 -159,-162 -71,-42 -156,-62 -255,-62 -76,0 -145,12 -208,37 -62,24 -115,59 -158,105 -42,45 -74,100 -97,165 -22,63 -33,133 -33,208 0,159 46,286 135,378 89,92 218,139 380,139 71,0 135,-9 189,-28 54,-19 101,-42 137,-70 36,-28 63,-57 80,-87 z m -672,-413 c 9,-88 35,-155 77,-200 42,-46 96,-68 162,-68 68,0 124,22 166,67 43,45 67,112 73,201 l 1,6 -479,0 0,-6 z"
                 id="path89"
                 inkscape:connector-curvature="0"
                 style="fill:#2b3990;stroke:none" /></g></g><g
             class="com.sun.star.drawing.ClosedBezierShape"
             id="g91"><g
               id="id10"><path
                 d="m 3325,4460 c 19,-36 28,-69 28,-100 0,-25 -10,-49 -29,-72 -19,-22 -44,-33 -73,-33 -25,0 -46,7 -63,23 -17,16 -34,38 -49,65 -29,50 -62,88 -100,111 -38,25 -83,38 -136,38 -38,0 -75,-8 -107,-23 -32,-15 -61,-38 -85,-67 -22,-29 -40,-64 -52,-106 -12,-41 -18,-85 -18,-134 0,-104 24,-187 70,-248 48,-60 112,-91 189,-91 54,0 99,13 134,38 34,24 68,60 99,109 18,23 33,40 47,51 14,11 29,15 49,15 31,0 57,-10 79,-30 21,-20 32,-45 32,-74 0,-29 -10,-60 -30,-93 -19,-34 -49,-67 -86,-97 -38,-31 -85,-55 -140,-74 -54,-19 -115,-29 -181,-29 -105,0 -197,22 -272,66 -76,42 -135,105 -174,185 -41,79 -61,171 -61,275 0,153 44,277 132,368 87,90 210,137 366,137 74,0 141,-11 199,-31 59,-19 108,-45 147,-78 38,-32 67,-66 85,-101 z"
                 id="path94"
                 inkscape:connector-curvature="0"
                 style="fill:#2b3990;stroke:none" /></g></g><g
             class="com.sun.star.drawing.ClosedBezierShape"
             id="g96"><g
               id="id11"><path
                 d="m 4455,4474 c -17,-53 -25,-104 -25,-153 1,-51 1,-98 2,-139 0,-42 0,-94 0,-154 0,-94 -13,-169 -40,-226 -25,-56 -70,-97 -133,-124 -63,-26 -152,-39 -263,-39 -100,0 -184,14 -250,41 -66,27 -116,62 -147,103 -32,41 -47,85 -47,128 0,27 9,48 29,66 20,18 44,26 71,26 30,0 49,-5 58,-15 9,-11 26,-36 49,-71 24,-37 53,-65 87,-84 34,-19 84,-28 150,-28 77,0 129,17 155,49 25,33 38,85 42,153 l 0,5 -5,2 c -52,15 -103,28 -150,39 -45,11 -101,24 -166,37 -68,14 -106,21 -121,25 -76,16 -137,49 -180,98 -43,48 -65,107 -65,175 0,50 13,98 39,142 26,44 65,78 113,103 49,25 106,38 170,38 72,0 136,-12 193,-36 57,-23 117,-59 179,-107 l 5,-5 4,7 c 28,46 56,82 81,106 24,23 49,35 73,35 29,0 57,-10 80,-31 24,-20 35,-42 35,-67 0,-14 -8,-48 -23,-99 z m -262,-276 c 0,90 -12,156 -36,196 -20,35 -53,65 -97,88 -43,22 -91,34 -143,34 -49,0 -89,-15 -120,-43 -31,-28 -47,-63 -47,-104 0,-39 14,-70 40,-92 26,-22 54,-37 82,-44 28,-7 78,-18 149,-34 72,-15 126,-30 164,-44 l 8,-2 0,45 z"
                 id="path99"
                 inkscape:connector-curvature="0"
                 style="fill:#2b3990;stroke:none" /></g></g><g
             class="com.sun.star.drawing.ClosedBezierShape"
             id="g101"><g
               id="id12"><path
                 d="m 5251,3681 c -49,-27 -101,-40 -154,-40 -51,0 -94,13 -125,39 -31,27 -62,66 -93,118 l -11,18 -1,-21 c -2,-51 -11,-90 -29,-116 -18,-26 -47,-38 -87,-38 -80,0 -119,55 -119,167 l 0,714 c 0,50 12,88 34,112 23,25 51,38 87,38 35,0 65,-13 88,-38 23,-24 35,-62 35,-112 l 0,-214 c 0,-77 2,-144 7,-197 5,-54 15,-101 28,-140 14,-39 33,-70 57,-90 43,-36 107,-42 194,-14 44,14 60,17 66,17 23,0 45,-10 66,-29 20,-19 30,-43 30,-72 0,-43 -24,-76 -73,-102 z"
                 id="path104"
                 inkscape:connector-curvature="0"
                 style="fill:#2b3990;stroke:none" /></g></g><g
             class="com.sun.star.drawing.ClosedBezierShape"
             id="g106"><g
               id="id13"><path
                 d="m 6299,4534 c 38,-44 69,-99 91,-164 22,-66 33,-138 33,-215 0,-106 -19,-199 -57,-276 -38,-77 -90,-136 -155,-176 -66,-40 -137,-60 -215,-60 -65,0 -123,14 -174,41 -51,27 -100,71 -148,130 l -11,13 0,-49 c 0,-44 -11,-78 -33,-102 -22,-23 -50,-35 -84,-35 -35,0 -63,12 -83,34 -20,23 -30,59 -30,105 l 0,1107 c 0,55 8,97 23,124 14,28 44,41 90,41 79,0 117,-53 117,-163 l 0,-403 11,14 c 45,56 92,99 141,128 48,29 110,44 181,44 60,0 116,-13 168,-36 52,-23 97,-58 135,-102 z m -154,-201 c -22,51 -53,89 -90,114 -37,26 -78,39 -122,39 -73,0 -135,-30 -185,-88 -48,-57 -73,-138 -73,-242 0,-109 25,-193 74,-250 50,-57 111,-86 184,-86 46,0 88,14 125,41 38,26 67,64 89,114 21,49 31,109 31,177 0,70 -11,132 -33,181 z"
                 id="path109"
                 inkscape:connector-curvature="0"
                 style="fill:#2b3990;stroke:none" /></g></g><g
             class="com.sun.star.drawing.ClosedBezierShape"
             id="g111"><g
               id="id14"><path
                 d="m 7460,4486 c 17,-30 26,-57 26,-78 0,-25 -8,-43 -22,-57 -15,-13 -35,-20 -60,-20 -23,0 -40,6 -53,16 -32,30 -57,53 -77,71 -21,18 -43,35 -67,50 -24,16 -50,28 -75,35 -26,7 -55,11 -87,11 -46,0 -89,-12 -128,-35 -39,-23 -70,-58 -93,-103 -24,-45 -36,-98 -36,-157 l -1,-6 508,0 c 67,0 118,-9 154,-29 34,-17 52,-58 52,-119 0,-68 -18,-136 -53,-202 -35,-66 -88,-120 -159,-162 -71,-42 -156,-62 -255,-62 -76,0 -145,12 -207,37 -62,25 -116,59 -158,105 -43,45 -75,100 -97,165 -23,63 -34,133 -34,208 0,159 46,286 135,378 89,92 218,139 380,139 71,0 135,-9 190,-28 54,-18 100,-42 136,-70 36,-28 63,-57 81,-87 z m -672,-413 c 8,-87 34,-155 76,-200 42,-46 96,-68 162,-68 68,0 125,22 166,67 43,45 67,112 74,201 l 0,6 -479,0 1,-6 z"
                 id="path114"
                 inkscape:connector-curvature="0"
                 style="fill:#2b3990;stroke:none" /></g></g><g
             class="com.sun.star.drawing.ClosedBezierShape"
             id="g116"><g
               id="id15"><path
                 d="m 8562,4044 c 0,-55 -3,-102 -8,-138 -5,-35 -16,-69 -32,-99 -26,-53 -65,-94 -117,-123 -52,-29 -112,-43 -178,-43 -69,0 -129,14 -182,41 -52,27 -101,71 -145,130 l -12,15 0,-51 c 0,-29 -5,-54 -16,-74 -10,-20 -24,-36 -41,-46 -17,-10 -37,-15 -58,-15 -35,0 -63,12 -83,34 -20,23 -30,59 -30,105 l 0,742 c 0,48 12,85 34,111 23,26 52,39 86,39 37,0 66,-13 89,-38 23,-24 35,-62 35,-112 l 0,-322 c 0,-106 6,-177 19,-216 18,-49 46,-88 85,-115 39,-28 82,-42 128,-42 73,0 122,23 147,70 24,46 36,112 36,198 l 0,427 c 0,48 11,85 34,111 22,26 52,39 88,39 36,0 65,-13 87,-38 23,-25 34,-62 34,-112 l 0,-478 z"
                 id="path119"
                 inkscape:connector-curvature="0"
                 style="fill:#2b3990;stroke:none" /></g></g><g
             class="com.sun.star.drawing.ClosedBezierShape"
             id="g121"><g
               id="id16"><path
                 d="m 9365,4550 c 0,-23 -8,-42 -23,-57 -16,-16 -32,-23 -52,-23 -13,0 -33,2 -58,7 -27,6 -47,9 -63,9 -29,0 -50,-8 -64,-22 -13,-15 -22,-34 -24,-57 -3,-22 -5,-53 -5,-93 l 0,-478 55,0 c 50,0 88,-7 114,-20 25,-13 37,-35 37,-67 0,-25 -9,-46 -26,-61 -18,-16 -45,-25 -79,-25 l -101,0 0,-181 c 0,-43 -2,-76 -6,-99 -5,-21 -16,-41 -32,-56 -25,-23 -53,-35 -84,-35 -22,0 -42,6 -60,16 -18,10 -32,23 -41,40 -9,16 -15,36 -18,58 -2,23 -2,56 -2,97 l 0,160 -35,0 c -37,0 -65,9 -85,25 -20,16 -28,36 -28,61 0,26 9,46 27,62 18,16 45,25 81,25 l 40,0 0,498 c 0,79 6,143 18,190 13,45 40,82 79,108 40,26 101,39 179,39 83,0 148,-11 192,-32 43,-21 64,-51 64,-89 z"
                 id="path124"
                 inkscape:connector-curvature="0"
                 style="fill:#2b3990;stroke:none" /></g></g><g
             class="com.sun.star.drawing.ClosedBezierShape"
             id="g126"><g
               id="id17"><path
                 d="m 10101,3681 c -49,-27 -101,-40 -154,-40 -51,0 -94,13 -125,39 -31,27 -62,66 -93,118 l -11,18 -1,-21 c -2,-51 -11,-90 -29,-116 -18,-26 -47,-38 -87,-38 -80,0 -119,55 -119,167 l 0,714 c 0,50 12,88 34,112 23,25 51,38 87,38 35,0 65,-13 88,-38 23,-24 35,-62 35,-112 l 0,-214 c 0,-77 2,-144 7,-197 5,-54 15,-101 28,-140 14,-39 33,-70 57,-90 43,-36 107,-42 194,-14 44,14 60,17 66,17 23,0 45,-10 66,-29 20,-19 30,-43 30,-72 0,-43 -24,-76 -73,-102 z"
                 id="path129"
                 inkscape:connector-curvature="0"
                 style="fill:#2b3990;stroke:none" /></g></g><g
             class="com.sun.star.drawing.ClosedBezierShape"
             id="g131"><g
               id="id18"><path
                 d="m 10699,4919 c 27,-44 56,-104 84,-180 l 335,-876 c 8,-23 14,-45 20,-66 5,-22 9,-39 12,-51 0,-17 -5,-35 -14,-51 -9,-16 -22,-30 -39,-40 -17,-9 -34,-14 -52,-14 -26,0 -46,4 -60,13 -13,9 -27,26 -39,52 -13,27 -28,64 -44,111 l -212,605 -223,-649 c -14,-43 -31,-77 -49,-99 -18,-22 -43,-33 -78,-33 -20,0 -40,6 -59,16 -19,11 -33,25 -44,43 -10,18 -16,37 -16,58 0,20 10,52 29,97 l 316,797 -24,60 c -18,43 -33,75 -47,96 -14,23 -30,39 -48,49 -18,9 -42,13 -72,13 -12,0 -28,-2 -44,-6 -13,-3 -26,-5 -39,-5 -34,0 -59,7 -75,23 -17,14 -25,35 -25,63 0,41 17,68 52,83 37,16 93,24 168,24 75,0 136,-12 180,-34 44,-23 80,-56 107,-99 z"
                 id="path134"
                 inkscape:connector-curvature="0"
                 style="fill:#2b3990;stroke:none" /></g></g><g
             class="com.sun.star.drawing.ClosedBezierShape"
             id="g136"><g
               id="id19"><path
                 d="m 2144,2072 c 0,0 -12,38 0,51 11,13 71,17 71,17 l 0,736 117,85 99,-93 0,-722 30,-6 c 47,12 59,-30 59,-30 l 0,-38 -376,0 z m 247,788 -33,12 0,-721 33,-11 0,720 z m 88,-752 c -35,2 -259,-23 -259,-23 l 259,0 c 0,0 35,21 0,23 z"
                 id="path139"
                 inkscape:connector-curvature="0"
                 style="fill:#2b3990;stroke:none" /></g></g><g
             class="com.sun.star.drawing.ClosedBezierShape"
             id="g141"><g
               id="id20"><path
                 d="m 2695,2393 0,0 -3,-2 c -20,-19 -46,-30 -73,-30 -59,0 -107,48 -107,106 0,29 11,55 30,75 l 2,2 c 4,3 7,6 11,9 73,66 115,159 115,255 0,189 -153,342 -341,342 -188,0 -341,-153 -341,-342 0,-95 40,-187 111,-252 30,-20 48,-53 48,-89 0,-58 -48,-106 -106,-106 -29,0 -55,11 -75,30 l -3,3 0,-1 c -120,105 -188,257 -188,415 0,306 249,555 554,555 305,0 554,-249 554,-555 0,-158 -68,-310 -188,-415 z"
                 id="path144"
                 inkscape:connector-curvature="0"
                 style="fill:#2b3990;stroke:none" /></g></g><g
             class="com.sun.star.drawing.ClosedBezierShape"
             id="g146"><g
               id="id21"><path
                 d="m 5821,1067 c -55,-60 -330,-54 -407,-54 -417,-4 -1196,21 -1584,20 -16,0 -70,27 -61,49 -276,0 -424,0 -757,-2 -180,-2 -612,19 -623,-300 -5,-160 141,-301 314,-472 -111,-33 -222,41 -333,103 -54,53 -91,89 -137,134 -168,247 -234,495 -194,744 152,-29 265,179 158,277 l -96,2 c -44,0 -80,46 -79,103 l 3,220 c 1,56 38,94 83,94 l 479,0 c 46,-1 81,-47 80,-103 l -3,-222 c -1,-56 -38,-101 -82,-100 l -60,1 c -106,-298 235,-258 427,-256 363,3 483,2 803,2 18,22 9,63 59,83 31,13 1950,9 1984,0 35,-7 25,-24 38,-36 16,-67 54,-215 -12,-287 z m -3236,536 0,233 c 0,0 -6,-152 -69,-162 -63,-10 -27,-71 -27,-71 l 96,0 z m 3214,-432 c 0,0 -56,-19 -102,-48 -98,-63 -1837,-7 -1837,-7 l 49,-41 c 0,0 1773,-31 1834,0 61,30 56,96 56,96 z"
                 id="path149"
                 inkscape:connector-curvature="0"
                 style="fill:#2b3990;stroke:none" /></g></g></g></g></g></g></svg>