<?xml version="1.0" encoding="UTF-8" standalone="no"?>
<!DOCTYPE svg PUBLIC "-//W3C//DTD SVG 1.1//EN"
 "http://www.w3.org/Graphics/SVG/1.1/DTD/svg11.dtd">
<!-- Generated by graphviz version 2.40.1 (20161225.0304)
 -->
<!-- Title: G Pages: 1 -->
<svg width="1725pt" height="547pt"
 viewBox="0.00 0.00 1724.76 547.00" xmlns="http://www.w3.org/2000/svg" xmlns:xlink="http://www.w3.org/1999/xlink">
<g id="graph0" class="graph" transform="scale(1 1) rotate(0) translate(4 543)">
<title>G</title>
<polygon fill="#ffffff" stroke="transparent" points="-4,4 -4,-543 1720.7642,-543 1720.7642,4 -4,4"/>
<!-- Data Modeling -->
<g id="node1" class="node">
<title>Data Modeling</title>
<polygon fill="none" stroke="#000000" points="397.8957,-294 297.1561,-294 297.1561,-258 397.8957,-258 397.8957,-294"/>
<text text-anchor="middle" x="347.5259" y="-271.8" font-family="Times,serif" font-size="14.00" fill="#000000">Data Modeling</text>
</g>
<!-- Data Transform -->
<g id="node2" class="node">
<title>Data Transform</title>
<polygon fill="none" stroke="#000000" points="693.8124,-208 589.2394,-208 589.2394,-172 693.8124,-172 693.8124,-208"/>
<text text-anchor="middle" x="641.5259" y="-185.8" font-family="Times,serif" font-size="14.00" fill="#000000">Data Transform</text>
</g>
<!-- Data Modeling&#45;&gt;Data Transform -->
<g id="edge1" class="edge">
<title>Data Modeling&#45;&gt;Data Transform</title>
<path fill="none" stroke="#000000" d="M407.5064,-263.2081C429.9636,-257.4363 455.3854,-249.7048 477.5259,-240 488.3224,-235.2676 489.1416,-230.4605 500.0532,-226 531.3273,-213.2157 543.1785,-216.5164 579.5456,-208.0654"/>
<polygon fill="#000000" stroke="#000000" points="406.607,-259.8251 397.7517,-265.6418 408.3015,-266.617 406.607,-259.8251"/>
<polygon fill="#000000" stroke="#000000" points="580.4762,-211.4408 589.3464,-205.6467 578.799,-204.6447 580.4762,-211.4408"/>
<text text-anchor="middle" x="561.7622" y="-228.8" font-family="Times,serif" font-size="14.00" fill="#000000">turns one into another</text>
</g>
<!-- Missing Data -->
<g id="node3" class="node">
<title>Missing Data</title>
<polygon fill="none" stroke="#000000" points="91.0777,-208 -.0259,-208 -.0259,-172 91.0777,-172 91.0777,-208"/>
<text text-anchor="middle" x="45.5259" y="-185.8" font-family="Times,serif" font-size="14.00" fill="#000000">Missing Data</text>
</g>
<!-- Data Modeling&#45;&gt;Missing Data -->
<g id="edge2" class="edge">
<title>Data Modeling&#45;&gt;Missing Data</title>
<path fill="none" stroke="#000000" d="M297.3107,-268.1596C276.3662,-264.9364 251.7796,-261.2135 229.5259,-258 170.8879,-249.5326 150.7647,-265.8243 97.4429,-240 85.6526,-234.2898 74.8232,-224.8884 66.1406,-215.7696"/>
<polygon fill="#000000" stroke="#000000" points="68.6719,-213.3504 59.3781,-208.2636 63.4713,-218.0358 68.6719,-213.3504"/>
<text text-anchor="middle" x="144.5674" y="-228.8" font-family="Times,serif" font-size="14.00" fill="#000000">must account for</text>
</g>
<!-- Versioning -->
<g id="node4" class="node">
<title>Versioning</title>
<polygon fill="none" stroke="#000000" points="571.6887,-208 495.363,-208 495.363,-172 571.6887,-172 571.6887,-208"/>
<text text-anchor="middle" x="533.5259" y="-185.8" font-family="Times,serif" font-size="14.00" fill="#000000">Versioning</text>
</g>
<!-- Data Modeling&#45;&gt;Versioning -->
<g id="edge3" class="edge">
<title>Data Modeling&#45;&gt;Versioning</title>
<path fill="none" stroke="#000000" d="M355.1319,-257.9487C360.7097,-246.9627 369.3642,-233.6206 381.1255,-226 420.6406,-200.3966 440.0817,-220.3207 485.5259,-208 485.6252,-207.9731 485.7246,-207.946 485.8241,-207.9188"/>
<polygon fill="#000000" stroke="#000000" points="486.6559,-211.3237 495.2219,-205.0889 484.6374,-204.621 486.6559,-211.3237"/>
<text text-anchor="middle" x="429.7261" y="-228.8" font-family="Times,serif" font-size="14.00" fill="#000000">change over time</text>
</g>
<!-- Data Structures -->
<g id="node5" class="node">
<title>Data Structures</title>
<polygon fill="none" stroke="#000000" points="225.7197,-208 123.3321,-208 123.3321,-172 225.7197,-172 225.7197,-208"/>
<text text-anchor="middle" x="174.5259" y="-185.8" font-family="Times,serif" font-size="14.00" fill="#000000">Data Structures</text>
</g>
<!-- Data Modeling&#45;&gt;Data Structures -->
<g id="edge4" class="edge">
<title>Data Modeling&#45;&gt;Data Structures</title>
<path fill="none" stroke="#000000" d="M297.0838,-266.7472C263.5873,-259.885 223.2392,-250.0199 208.936,-240 200.4808,-234.0768 193.4576,-225.3645 188.0087,-216.8653"/>
<polygon fill="#000000" stroke="#000000" points="191.0002,-215.0477 182.9062,-208.2112 184.9702,-218.603 191.0002,-215.0477"/>
<text text-anchor="middle" x="254.8208" y="-228.8" font-family="Times,serif" font-size="14.00" fill="#000000">implemented by</text>
</g>
<!-- Approximate Numbers -->
<g id="node6" class="node">
<title>Approximate Numbers</title>
<polygon fill="none" stroke="#000000" points="476.7196,-208 332.3322,-208 332.3322,-172 476.7196,-172 476.7196,-208"/>
<text text-anchor="middle" x="404.5259" y="-185.8" font-family="Times,serif" font-size="14.00" fill="#000000">Approximate Numbers</text>
</g>
<!-- Data Modeling&#45;&gt;Approximate Numbers -->
<g id="edge5" class="edge">
<title>Data Modeling&#45;&gt;Approximate Numbers</title>
<path fill="none" stroke="#000000" d="M352.2387,-247.9152C354.3175,-240.4053 357.2898,-232.5599 361.5259,-226 363.9687,-222.2172 366.9323,-218.6262 370.1489,-215.2812"/>
<polygon fill="#000000" stroke="#000000" points="348.7973,-247.2608 349.9232,-257.7957 355.6127,-248.8581 348.7973,-247.2608"/>
<polygon fill="#000000" stroke="#000000" points="372.6067,-217.7744 377.4905,-208.3723 367.8094,-212.6767 372.6067,-217.7744"/>
</g>
<!-- Program Design -->
<g id="node7" class="node">
<title>Program Design</title>
<polygon fill="none" stroke="#000000" points="819.4025,-208 711.6492,-208 711.6492,-172 819.4025,-172 819.4025,-208"/>
<text text-anchor="middle" x="765.5259" y="-185.8" font-family="Times,serif" font-size="14.00" fill="#000000">Program Design</text>
</g>
<!-- Data Modeling&#45;&gt;Program Design -->
<g id="edge6" class="edge">
<title>Data Modeling&#45;&gt;Program Design</title>
<path fill="none" stroke="#000000" d="M397.7662,-272.549C453.3323,-268.0115 545.2294,-258.365 622.5259,-240 652.7216,-232.8258 685.4651,-221.6411 711.9911,-211.6679"/>
<polygon fill="#000000" stroke="#000000" points="713.3676,-214.889 721.4664,-208.058 710.8755,-208.3476 713.3676,-214.889"/>
<text text-anchor="middle" x="707.645" y="-228.8" font-family="Times,serif" font-size="14.00" fill="#000000">necessary for</text>
</g>
<!-- Abstraction -->
<g id="node8" class="node">
<title>Abstraction</title>
<polygon fill="none" stroke="#000000" points="568.3439,-122 486.7079,-122 486.7079,-86 568.3439,-86 568.3439,-122"/>
<text text-anchor="middle" x="527.5259" y="-99.8" font-family="Times,serif" font-size="14.00" fill="#000000">Abstraction</text>
</g>
<!-- Data Modeling&#45;&gt;Abstraction -->
<g id="edge7" class="edge">
<title>Data Modeling&#45;&gt;Abstraction</title>
<path fill="none" stroke="#000000" d="M335.2008,-257.7069C321.8972,-235.4486 304.9477,-197.6687 323.5259,-172 365.2225,-114.3895 408.144,-144.7433 475.5259,-122 475.9785,-121.8472 476.4332,-121.6936 476.8898,-121.5391"/>
<polygon fill="#000000" stroke="#000000" points="478.3323,-124.7454 486.6705,-118.2089 476.0761,-118.1189 478.3323,-124.7454"/>
</g>
<!-- Refactoring -->
<g id="node11" class="node">
<title>Refactoring</title>
<polygon fill="none" stroke="#000000" points="1007.6089,-122 925.4428,-122 925.4428,-86 1007.6089,-86 1007.6089,-122"/>
<text text-anchor="middle" x="966.5259" y="-99.8" font-family="Times,serif" font-size="14.00" fill="#000000">Refactoring</text>
</g>
<!-- Versioning&#45;&gt;Refactoring -->
<g id="edge11" class="edge">
<title>Versioning&#45;&gt;Refactoring</title>
<path fill="none" stroke="#000000" d="M571.7764,-174.5701C574.7132,-173.6259 577.6524,-172.7544 580.5259,-172 584.6971,-170.9049 858.1516,-130.9987 915.2777,-121.4131"/>
<polygon fill="#000000" stroke="#000000" points="916.0523,-124.8293 925.2502,-119.571 914.7807,-117.9458 916.0523,-124.8293"/>
<text text-anchor="middle" x="846.645" y="-142.8" font-family="Times,serif" font-size="14.00" fill="#000000">adjust code to reflect</text>
</g>
<!-- Computational Complexity -->
<g id="node10" class="node">
<title>Computational Complexity</title>
<polygon fill="none" stroke="#000000" points="466.8502,-122 298.2016,-122 298.2016,-86 466.8502,-86 466.8502,-122"/>
<text text-anchor="middle" x="382.5259" y="-99.8" font-family="Times,serif" font-size="14.00" fill="#000000">Computational Complexity</text>
</g>
<!-- Data Structures&#45;&gt;Computational Complexity -->
<g id="edge10" class="edge">
<title>Data Structures&#45;&gt;Computational Complexity</title>
<path fill="none" stroke="#000000" d="M160.1238,-171.7114C153.8768,-161.4485 149.5379,-148.9485 157.1704,-140 165.9932,-129.656 230.1391,-120.0551 287.7469,-113.3741"/>
<polygon fill="#000000" stroke="#000000" points="288.4993,-116.8112 298.0394,-112.2028 287.7077,-109.8561 288.4993,-116.8112"/>
<text text-anchor="middle" x="224.2036" y="-142.8" font-family="Times,serif" font-size="14.00" fill="#000000">choice of DS influences</text>
</g>
<!-- Program Design&#45;&gt;Abstraction -->
<g id="edge13" class="edge">
<title>Program Design&#45;&gt;Abstraction</title>
<path fill="none" stroke="#000000" d="M715.6333,-171.9716C675.1261,-157.3345 618.2701,-136.7899 577.6901,-122.1266"/>
<polygon fill="#000000" stroke="#000000" points="578.8552,-118.8262 568.2609,-118.7194 576.4763,-125.4095 578.8552,-118.8262"/>
<text text-anchor="middle" x="678.8276" y="-142.8" font-family="Times,serif" font-size="14.00" fill="#000000">key to</text>
</g>
<!-- Programs as Data -->
<g id="node12" class="node">
<title>Programs as Data</title>
<polygon fill="none" stroke="#000000" points="584.7781,-36 470.2737,-36 470.2737,0 584.7781,0 584.7781,-36"/>
<text text-anchor="middle" x="527.5259" y="-13.8" font-family="Times,serif" font-size="14.00" fill="#000000">Programs as Data</text>
</g>
<!-- Abstraction&#45;&gt;Programs as Data -->
<g id="edge12" class="edge">
<title>Abstraction&#45;&gt;Programs as Data</title>
<path fill="none" stroke="#000000" d="M527.5259,-85.7616C527.5259,-74.3597 527.5259,-59.4342 527.5259,-46.494"/>
<polygon fill="#000000" stroke="#000000" points="531.026,-46.2121 527.5259,-36.2121 524.026,-46.2121 531.026,-46.2121"/>
<text text-anchor="middle" x="565.2329" y="-56.8" font-family="Times,serif" font-size="14.00" fill="#000000">interpretation</text>
</g>
<!-- Data Representation -->
<g id="node9" class="node">
<title>Data Representation</title>
<polygon fill="none" stroke="#000000" points="753.4263,-380 623.6255,-380 623.6255,-344 753.4263,-344 753.4263,-380"/>
<text text-anchor="middle" x="688.5259" y="-357.8" font-family="Times,serif" font-size="14.00" fill="#000000">Data Representation</text>
</g>
<!-- Data Representation&#45;&gt;Data Modeling -->
<g id="edge9" class="edge">
<title>Data Representation&#45;&gt;Data Modeling</title>
<path fill="none" stroke="#000000" d="M623.5837,-345.6216C561.3474,-329.9257 468.1749,-306.4276 407.6132,-291.154"/>
<polygon fill="#000000" stroke="#000000" points="408.3653,-287.7341 397.813,-288.6824 406.6534,-294.5216 408.3653,-287.7341"/>
</g>
<!-- Data Representation&#45;&gt;Data Transform -->
<g id="edge8" class="edge">
<title>Data Representation&#45;&gt;Data Transform</title>
<path fill="none" stroke="#000000" d="M700.7537,-343.7847C717.5903,-316.2019 743.28,-263.1255 719.5259,-226 715.2305,-219.2867 709.3297,-213.8074 702.6809,-209.3396"/>
<polygon fill="#000000" stroke="#000000" points="704.3203,-206.2436 693.9235,-204.2044 700.7794,-212.282 704.3203,-206.2436"/>
</g>
<!-- Modularization -->
<g id="node13" class="node">
<title>Modularization</title>
<polygon fill="none" stroke="#000000" points="1357.8369,-294 1255.2149,-294 1255.2149,-258 1357.8369,-258 1357.8369,-294"/>
<text text-anchor="middle" x="1306.5259" y="-271.8" font-family="Times,serif" font-size="14.00" fill="#000000">Modularization</text>
</g>
<!-- Modularization&#45;&gt;Program Design -->
<g id="edge14" class="edge">
<title>Modularization&#45;&gt;Program Design</title>
<path fill="none" stroke="#000000" d="M1255.3552,-264.9193C1243.0042,-262.4476 1229.8217,-259.9767 1217.5259,-258 1151.1283,-247.3258 1133.8474,-249.6112 1067.2876,-240 1030.365,-234.6684 1021.3232,-232.1367 984.5259,-226 932.3416,-217.2972 873.1358,-207.5738 829.4522,-200.4281"/>
<polygon fill="#000000" stroke="#000000" points="829.971,-196.9665 819.5372,-198.8069 828.8414,-203.8748 829.971,-196.9665"/>
<text text-anchor="middle" x="1103.645" y="-228.8" font-family="Times,serif" font-size="14.00" fill="#000000">necessary for</text>
</g>
<!-- Modularization&#45;&gt;Refactoring -->
<g id="edge15" class="edge">
<title>Modularization&#45;&gt;Refactoring</title>
<path fill="none" stroke="#000000" d="M1357.9241,-267.4931C1388.1841,-260.1098 1417.7988,-247.1901 1402.5259,-226 1357.2137,-163.1327 1123.033,-124.7317 1017.8185,-110.4049"/>
<polygon fill="#000000" stroke="#000000" points="1018.1251,-106.9148 1007.7484,-109.0537 1017.1941,-113.8526 1018.1251,-106.9148"/>
<text text-anchor="middle" x="1424.3276" y="-185.8" font-family="Times,serif" font-size="14.00" fill="#000000">undisturbed by</text>
</g>
<!-- Usability -->
<g id="node14" class="node">
<title>Usability</title>
<polygon fill="none" stroke="#000000" points="1231.3578,-208 1163.694,-208 1163.694,-172 1231.3578,-172 1231.3578,-208"/>
<text text-anchor="middle" x="1197.5259" y="-185.8" font-family="Times,serif" font-size="14.00" fill="#000000">Usability</text>
</g>
<!-- Modularization&#45;&gt;Usability -->
<g id="edge16" class="edge">
<title>Modularization&#45;&gt;Usability</title>
<path fill="none" stroke="#000000" d="M1272.397,-257.9158C1263.4367,-252.5969 1254.0014,-246.4584 1245.8325,-240 1236.7917,-232.8522 1227.7748,-224.0806 1220.0216,-215.8908"/>
<polygon fill="#000000" stroke="#000000" points="1222.3665,-213.2706 1213.0159,-208.289 1217.2191,-218.0144 1222.3665,-213.2706"/>
<text text-anchor="middle" x="1323.8726" y="-228.8" font-family="Times,serif" font-size="14.00" fill="#000000">improves comprehensibility</text>
</g>
<!-- Verification &amp; Validation -->
<g id="node15" class="node">
<title>Verification &amp; Validation</title>
<polygon fill="none" stroke="#000000" points="1414.5325,-380 1258.5192,-380 1258.5192,-344 1414.5325,-344 1414.5325,-380"/>
<text text-anchor="middle" x="1336.5259" y="-357.8" font-family="Times,serif" font-size="14.00" fill="#000000">Verification &amp; Validation</text>
</g>
<!-- Verification &amp; Validation&#45;&gt;Modularization -->
<g id="edge17" class="edge">
<title>Verification &amp; Validation&#45;&gt;Modularization</title>
<path fill="none" stroke="#000000" d="M1318.0898,-343.6427C1313.8949,-338.368 1309.9998,-332.3196 1307.6978,-326 1305.2218,-319.2029 1304.2333,-311.5344 1304.0263,-304.2815"/>
<polygon fill="#000000" stroke="#000000" points="1307.5288,-304.1607 1304.2,-294.1024 1300.5298,-304.0412 1307.5288,-304.1607"/>
<text text-anchor="middle" x="1368.9399" y="-314.8" font-family="Times,serif" font-size="14.00" fill="#000000">done against interface</text>
</g>
<!-- Exceptional Cases -->
<g id="node16" class="node">
<title>Exceptional Cases</title>
<polygon fill="none" stroke="#000000" points="1015.0503,-539 896.0015,-539 896.0015,-503 1015.0503,-503 1015.0503,-539"/>
<text text-anchor="middle" x="955.5259" y="-516.8" font-family="Times,serif" font-size="14.00" fill="#000000">Exceptional Cases</text>
</g>
<!-- Exceptional Cases&#45;&gt;Missing Data -->
<g id="edge21" class="edge">
<title>Exceptional Cases&#45;&gt;Missing Data</title>
<path fill="none" stroke="#000000" d="M895.6764,-519.4093C691.1445,-513.5837 32.5259,-491.451 32.5259,-448 32.5259,-448 32.5259,-448 32.5259,-276 32.5259,-256.5526 35.8161,-234.9066 39.086,-218.1961"/>
<polygon fill="#000000" stroke="#000000" points="42.5967,-218.5024 41.1971,-208.0004 35.7421,-217.083 42.5967,-218.5024"/>
</g>
<!-- Exceptional Cases&#45;&gt;Program Design -->
<g id="edge18" class="edge">
<title>Exceptional Cases&#45;&gt;Program Design</title>
<path fill="none" stroke="#000000" d="M895.5961,-506.492C848.0474,-493.1761 789.5259,-471.9271 789.5259,-448 789.5259,-448 789.5259,-448 789.5259,-276 789.5259,-255.9746 783.414,-234.2596 777.3589,-217.6599"/>
<polygon fill="#000000" stroke="#000000" points="780.5151,-216.1169 773.6512,-208.0462 773.984,-218.6358 780.5151,-216.1169"/>
<text text-anchor="middle" x="807.9897" y="-357.8" font-family="Times,serif" font-size="14.00" fill="#000000">part of</text>
</g>
<!-- Exceptional Cases&#45;&gt;Verification &amp; Validation -->
<g id="edge20" class="edge">
<title>Exceptional Cases&#45;&gt;Verification &amp; Validation</title>
<path fill="none" stroke="#000000" d="M998.8605,-502.9155C1069.1871,-473.5666 1207.9313,-415.6654 1283.8462,-383.9844"/>
<polygon fill="#000000" stroke="#000000" points="1285.3511,-387.149 1293.2318,-380.0676 1282.6552,-380.689 1285.3511,-387.149"/>
</g>
<!-- Debugging -->
<g id="node17" class="node">
<title>Debugging</title>
<polygon fill="none" stroke="#000000" points="1357.74,-466 1279.3117,-466 1279.3117,-430 1357.74,-430 1357.74,-466"/>
<text text-anchor="middle" x="1318.5259" y="-443.8" font-family="Times,serif" font-size="14.00" fill="#000000">Debugging</text>
</g>
<!-- Exceptional Cases&#45;&gt;Debugging -->
<g id="edge19" class="edge">
<title>Exceptional Cases&#45;&gt;Debugging</title>
<path fill="none" stroke="#000000" d="M1015.1585,-514.6413C1064.4227,-508.7889 1135.9997,-498.9017 1197.5259,-485 1221.5885,-479.5631 1247.8246,-471.7761 1269.6966,-464.7472"/>
<polygon fill="#000000" stroke="#000000" points="1270.9907,-468.0068 1279.4154,-461.5822 1268.8231,-461.3508 1270.9907,-468.0068"/>
</g>
<!-- Debugging&#45;&gt;Verification &amp; Validation -->
<g id="edge28" class="edge">
<title>Debugging&#45;&gt;Verification &amp; Validation</title>
<path fill="none" stroke="#000000" d="M1322.3432,-429.7616C1324.7535,-418.2456 1327.9162,-403.1353 1330.6431,-390.1064"/>
<polygon fill="#000000" stroke="#000000" points="1334.0911,-390.7171 1332.714,-380.2121 1327.2396,-389.283 1334.0911,-390.7171"/>
<text text-anchor="middle" x="1382.7656" y="-400.8" font-family="Times,serif" font-size="14.00" fill="#000000">done in response to</text>
</g>
<!-- Divide &amp; Conquer -->
<g id="node18" class="node">
<title>Divide &amp; Conquer</title>
<polygon fill="none" stroke="#000000" points="1614.7331,-380 1494.3187,-380 1494.3187,-344 1614.7331,-344 1614.7331,-380"/>
<text text-anchor="middle" x="1554.5259" y="-357.8" font-family="Times,serif" font-size="14.00" fill="#000000">Divide &amp; Conquer</text>
</g>
<!-- Divide &amp; Conquer&#45;&gt;Modularization -->
<g id="edge22" class="edge">
<title>Divide &amp; Conquer&#45;&gt;Modularization</title>
<path fill="none" stroke="#000000" d="M1494.3708,-345.0813C1479.2235,-339.8457 1463.2722,-333.4564 1449.1772,-326 1440.0153,-321.1532 1439.7985,-316.6314 1430.5259,-312 1410.9651,-302.2299 1388.309,-294.6788 1367.7559,-289.074"/>
<polygon fill="#000000" stroke="#000000" points="1368.4188,-285.6295 1357.858,-286.4777 1366.6427,-292.4004 1368.4188,-285.6295"/>
<text text-anchor="middle" x="1518.7002" y="-314.8" font-family="Times,serif" font-size="14.00" fill="#000000">when applied to program</text>
</g>
<!-- Recursion -->
<g id="node19" class="node">
<title>Recursion</title>
<polygon fill="none" stroke="#000000" points="1651.7919,-294 1579.2599,-294 1579.2599,-258 1651.7919,-258 1651.7919,-294"/>
<text text-anchor="middle" x="1615.5259" y="-271.8" font-family="Times,serif" font-size="14.00" fill="#000000">Recursion</text>
</g>
<!-- Divide &amp; Conquer&#45;&gt;Recursion -->
<g id="edge23" class="edge">
<title>Divide &amp; Conquer&#45;&gt;Recursion</title>
<path fill="none" stroke="#000000" d="M1577.1883,-343.9913C1583.0099,-338.6289 1588.9219,-332.4498 1593.5259,-326 1598.4073,-319.1616 1602.5449,-311.0681 1605.8689,-303.4072"/>
<polygon fill="#000000" stroke="#000000" points="1609.1436,-304.6451 1609.6389,-294.0618 1602.6519,-302.0262 1609.1436,-304.6451"/>
<text text-anchor="middle" x="1658.645" y="-314.8" font-family="Times,serif" font-size="14.00" fill="#000000">when applied to data</text>
</g>
<!-- Indirection &amp; Aliasing -->
<g id="node20" class="node">
<title>Indirection &amp; Aliasing</title>
<polygon fill="none" stroke="#000000" points="294.5122,-380 152.5396,-380 152.5396,-344 294.5122,-344 294.5122,-380"/>
<text text-anchor="middle" x="223.5259" y="-357.8" font-family="Times,serif" font-size="14.00" fill="#000000">Indirection &amp; Aliasing</text>
</g>
<!-- Indirection &amp; Aliasing&#45;&gt;Data Modeling -->
<g id="edge25" class="edge">
<title>Indirection &amp; Aliasing&#45;&gt;Data Modeling</title>
<path fill="none" stroke="#000000" d="M249.5203,-343.9716C268.0381,-331.1286 293.1135,-313.7376 313.2645,-299.7619"/>
<polygon fill="#000000" stroke="#000000" points="315.3431,-302.5797 321.5656,-294.0047 311.3538,-296.8277 315.3431,-302.5797"/>
<text text-anchor="middle" x="355.5313" y="-314.8" font-family="Times,serif" font-size="14.00" fill="#000000">must be accounted for</text>
</g>
<!-- Indirection &amp; Aliasing&#45;&gt;Data Structures -->
<g id="edge24" class="edge">
<title>Indirection &amp; Aliasing&#45;&gt;Data Structures</title>
<path fill="none" stroke="#000000" d="M218.3746,-343.9181C209.8093,-313.852 192.5814,-253.3787 182.457,-217.84"/>
<polygon fill="#000000" stroke="#000000" points="185.7876,-216.7561 179.6816,-208.0977 179.0555,-218.6741 185.7876,-216.7561"/>
<text text-anchor="middle" x="229.9897" y="-271.8" font-family="Times,serif" font-size="14.00" fill="#000000">occurs in</text>
</g>
<!-- Caching -->
<g id="node21" class="node">
<title>Caching</title>
<polygon fill="none" stroke="#000000" points="955.6821,-294 893.3697,-294 893.3697,-258 955.6821,-258 955.6821,-294"/>
<text text-anchor="middle" x="924.5259" y="-271.8" font-family="Times,serif" font-size="14.00" fill="#000000">Caching</text>
</g>
<!-- Caching&#45;&gt;Program Design -->
<g id="edge27" class="edge">
<title>Caching&#45;&gt;Program Design</title>
<path fill="none" stroke="#000000" d="M893.1694,-266.9863C873.8608,-260.7786 848.9764,-251.5688 828.5259,-240 816.0323,-232.9324 803.414,-223.4787 792.7857,-214.6947"/>
<polygon fill="#000000" stroke="#000000" points="794.971,-211.9588 785.0811,-208.1587 790.4426,-217.2968 794.971,-211.9588"/>
</g>
<!-- Concurrency -->
<g id="node22" class="node">
<title>Concurrency</title>
<polygon fill="none" stroke="#000000" points="996.8301,-208 908.2216,-208 908.2216,-172 996.8301,-172 996.8301,-208"/>
<text text-anchor="middle" x="952.5259" y="-185.8" font-family="Times,serif" font-size="14.00" fill="#000000">Concurrency</text>
</g>
<!-- Caching&#45;&gt;Concurrency -->
<g id="edge26" class="edge">
<title>Caching&#45;&gt;Concurrency</title>
<path fill="none" stroke="#000000" d="M955.9344,-263.6071C965.9428,-257.9858 975.8762,-250.2504 981.5259,-240 985.7038,-232.42 983.7746,-224.272 979.3794,-216.7992"/>
<polygon fill="#000000" stroke="#000000" points="982.0052,-214.4578 973.305,-208.4115 976.3357,-218.5636 982.0052,-214.4578"/>
</g>
<!-- Data Flow -->
<g id="node27" class="node">
<title>Data Flow</title>
<polygon fill="none" stroke="#000000" points="907.7403,-122 833.3115,-122 833.3115,-86 907.7403,-86 907.7403,-122"/>
<text text-anchor="middle" x="870.5259" y="-99.8" font-family="Times,serif" font-size="14.00" fill="#000000">Data Flow</text>
</g>
<!-- Concurrency&#45;&gt;Data Flow -->
<g id="edge37" class="edge">
<title>Concurrency&#45;&gt;Data Flow</title>
<path fill="none" stroke="#000000" d="M945.4341,-171.9735C940.8202,-161.798 934.0702,-149.298 925.5259,-140 921.5684,-135.6935 916.9912,-131.6684 912.2009,-127.9847"/>
<polygon fill="#000000" stroke="#000000" points="914.1779,-125.0956 904.01,-122.1182 910.1019,-130.7865 914.1779,-125.0956"/>
<text text-anchor="middle" x="972.2588" y="-142.8" font-family="Times,serif" font-size="14.00" fill="#000000">facilitated by</text>
</g>
<!-- Automation -->
<g id="node23" class="node">
<title>Automation</title>
<polygon fill="none" stroke="#000000" points="1071.9088,-466 989.143,-466 989.143,-430 1071.9088,-430 1071.9088,-466"/>
<text text-anchor="middle" x="1030.5259" y="-443.8" font-family="Times,serif" font-size="14.00" fill="#000000">Automation</text>
</g>
<!-- Automation&#45;&gt;Data Representation -->
<g id="edge31" class="edge">
<title>Automation&#45;&gt;Data Representation</title>
<path fill="none" stroke="#000000" d="M988.9319,-437.5407C933.0255,-423.4824 832.6775,-398.2487 763.4423,-380.8386"/>
<polygon fill="#000000" stroke="#000000" points="764.0137,-377.3734 753.462,-378.329 762.3065,-384.1621 764.0137,-377.3734"/>
</g>
<!-- Automation&#45;&gt;Verification &amp; Validation -->
<g id="edge29" class="edge">
<title>Automation&#45;&gt;Verification &amp; Validation</title>
<path fill="none" stroke="#000000" d="M1055.1309,-429.8548C1071.3495,-418.8313 1093.5124,-405.4827 1115.1118,-398 1169.1719,-379.2719 1188.1745,-388.9909 1248.3053,-380.0547"/>
<polygon fill="#000000" stroke="#000000" points="1248.9989,-383.4883 1258.3208,-378.4531 1247.8935,-376.5761 1248.9989,-383.4883"/>
<text text-anchor="middle" x="1141.7329" y="-400.8" font-family="Times,serif" font-size="14.00" fill="#000000">facilitates</text>
</g>
<!-- Human Performance -->
<g id="node24" class="node">
<title>Human Performance</title>
<polygon fill="none" stroke="#000000" points="1208.7575,-294 1076.2942,-294 1076.2942,-258 1208.7575,-258 1208.7575,-294"/>
<text text-anchor="middle" x="1142.5259" y="-271.8" font-family="Times,serif" font-size="14.00" fill="#000000">Human Performance</text>
</g>
<!-- Automation&#45;&gt;Human Performance -->
<g id="edge30" class="edge">
<title>Automation&#45;&gt;Human Performance</title>
<path fill="none" stroke="#000000" d="M1026.1987,-429.7818C1021.9291,-406.8953 1018.6601,-367.7502 1039.1118,-344 1061.8793,-317.5605 1087.8236,-347.2129 1115.5259,-326 1123.0379,-320.2477 1128.7109,-311.7879 1132.8684,-303.4566"/>
<polygon fill="#000000" stroke="#000000" points="1136.0936,-304.8173 1136.9358,-294.256 1129.6913,-301.987 1136.0936,-304.8173"/>
<text text-anchor="middle" x="1065.7329" y="-357.8" font-family="Times,serif" font-size="14.00" fill="#000000">facilitates</text>
</g>
<!-- Human Performance&#45;&gt;Usability -->
<g id="edge39" class="edge">
<title>Human Performance&#45;&gt;Usability</title>
<path fill="none" stroke="#000000" d="M1142.6212,-257.7766C1143.4113,-247.778 1145.6434,-235.5169 1151.3706,-226 1153.7335,-222.0736 1156.696,-218.4134 1159.9737,-215.0476"/>
<polygon fill="#000000" stroke="#000000" points="1162.5017,-217.4793 1167.5418,-208.16 1157.7902,-212.3022 1162.5017,-217.4793"/>
<text text-anchor="middle" x="1186.1035" y="-228.8" font-family="Times,serif" font-size="14.00" fill="#000000">improved by</text>
</g>
<!-- Machine Performance -->
<g id="node25" class="node">
<title>Machine Performance</title>
<polygon fill="none" stroke="#000000" points="994.5229,-380 854.5288,-380 854.5288,-344 994.5229,-344 994.5229,-380"/>
<text text-anchor="middle" x="924.5259" y="-357.8" font-family="Times,serif" font-size="14.00" fill="#000000">Machine Performance</text>
</g>
<!-- Machine Performance&#45;&gt;Computational Complexity -->
<g id="edge35" class="edge">
<title>Machine Performance&#45;&gt;Computational Complexity</title>
<path fill="none" stroke="#000000" d="M909.7047,-343.7117C891.8435,-320.7967 862.1014,-279.6988 844.9634,-240 832.64,-211.4538 851.538,-192.9093 828.5259,-172 821.2369,-165.3771 487.2416,-123.6116 477.5259,-122 477.3085,-121.9639 477.0909,-121.9278 476.873,-121.8915"/>
<polygon fill="#000000" stroke="#000000" points="477.3669,-118.4253 466.9215,-120.1982 476.1926,-125.3262 477.3669,-118.4253"/>
<text text-anchor="middle" x="910.8071" y="-228.8" font-family="Times,serif" font-size="14.00" fill="#000000">related but not identical</text>
</g>
<!-- Machine Performance&#45;&gt;Caching -->
<g id="edge33" class="edge">
<title>Machine Performance&#45;&gt;Caching</title>
<path fill="none" stroke="#000000" d="M924.5259,-343.7616C924.5259,-332.3597 924.5259,-317.4342 924.5259,-304.494"/>
<polygon fill="#000000" stroke="#000000" points="928.026,-304.2121 924.5259,-294.2121 921.026,-304.2121 928.026,-304.2121"/>
<text text-anchor="middle" x="960.1035" y="-314.8" font-family="Times,serif" font-size="14.00" fill="#000000">improved by</text>
</g>
<!-- Machine Performance&#45;&gt;Human Performance -->
<g id="edge32" class="edge">
<title>Machine Performance&#45;&gt;Human Performance</title>
<path fill="none" stroke="#000000" d="M992.0271,-340.4287C1003.7037,-336.0619 1015.5957,-331.1989 1026.5259,-326 1037.2996,-320.8755 1038.7328,-317.2839 1049.4292,-312 1059.5232,-307.0137 1070.4898,-302.2397 1081.236,-297.8913"/>
<polygon fill="#000000" stroke="#000000" points="990.4916,-337.263 982.2952,-343.9764 992.8892,-343.8397 990.4916,-337.263"/>
<polygon fill="#000000" stroke="#000000" points="1082.5866,-301.121 1090.5955,-294.185 1080.0093,-294.6127 1082.5866,-301.121"/>
<text text-anchor="middle" x="1081.5742" y="-314.8" font-family="Times,serif" font-size="14.00" fill="#000000">not equal to</text>
</g>
<!-- Imperative -->
<g id="node26" class="node">
<title>Imperative</title>
<polygon fill="none" stroke="#000000" points="1031.6615,-36 955.3902,-36 955.3902,0 1031.6615,0 1031.6615,-36"/>
<text text-anchor="middle" x="993.5259" y="-13.8" font-family="Times,serif" font-size="14.00" fill="#000000">Imperative</text>
</g>
<!-- Machine Performance&#45;&gt;Imperative -->
<g id="edge34" class="edge">
<title>Machine Performance&#45;&gt;Imperative</title>
<path fill="none" stroke="#000000" d="M980.0805,-343.7871C987.6534,-339.0973 994.5279,-333.2555 999.5259,-326 1029.857,-281.9689 1025.2066,-138.7576 1016.5259,-86 1014.2812,-72.3578 1009.6628,-57.7694 1005.1494,-45.6168"/>
<polygon fill="#000000" stroke="#000000" points="1008.3195,-44.1111 1001.4374,-36.0558 1001.794,-46.6446 1008.3195,-44.1111"/>
</g>
<!-- Data Flow&#45;&gt;Imperative -->
<g id="edge36" class="edge">
<title>Data Flow&#45;&gt;Imperative</title>
<path fill="none" stroke="#000000" d="M904.5479,-80.2122C921.5745,-68.3075 942.1382,-53.9296 959.2057,-41.9962"/>
<polygon fill="#000000" stroke="#000000" points="902.5006,-77.373 896.3107,-85.9716 906.5117,-83.1098 902.5006,-77.373"/>
<polygon fill="#000000" stroke="#000000" points="961.5851,-44.6033 967.775,-36.0047 957.574,-38.8665 961.5851,-44.6033"/>
<text text-anchor="middle" x="968.064" y="-56.8" font-family="Times,serif" font-size="14.00" fill="#000000">alternative</text>
</g>
<!-- Development Process -->
<g id="node28" class="node">
<title>Development Process</title>
<polygon fill="none" stroke="#000000" points="1240.2196,-380 1102.8322,-380 1102.8322,-344 1240.2196,-344 1240.2196,-380"/>
<text text-anchor="middle" x="1171.5259" y="-357.8" font-family="Times,serif" font-size="14.00" fill="#000000">Development Process</text>
</g>
<!-- Development Process&#45;&gt;Human Performance -->
<g id="edge38" class="edge">
<title>Development Process&#45;&gt;Human Performance</title>
<path fill="none" stroke="#000000" d="M1165.3757,-343.7616C1161.454,-332.1316 1156.2961,-316.8357 1151.8733,-303.72"/>
<polygon fill="#000000" stroke="#000000" points="1155.1791,-302.5695 1148.6672,-294.2121 1148.546,-304.8062 1155.1791,-302.5695"/>
<text text-anchor="middle" x="1184.5776" y="-314.8" font-family="Times,serif" font-size="14.00" fill="#000000">improves</text>
</g>
</g>
</svg>
