<?xml version="1.0" encoding="UTF-8" standalone="no"?>
<!DOCTYPE svg PUBLIC "-//W3C//DTD SVG 1.1//EN"
 "http://www.w3.org/Graphics/SVG/1.1/DTD/svg11.dtd">
<!-- Generated by graphviz version 2.40.1 (20161225.0304)
 -->
<!-- Title: conda_concepts Pages: 1 -->
<svg width="826pt" height="638pt"
 viewBox="0.00 0.00 826.00 638.00" xmlns="http://www.w3.org/2000/svg" xmlns:xlink="http://www.w3.org/1999/xlink">
<g id="graph0" class="graph" transform="scale(1 1) rotate(0) translate(4 634)">
<title>conda_concepts</title>
<polygon fill="#ffffff" stroke="transparent" points="-4,4 -4,-634 822.002,-634 822.002,4 -4,4"/>
<!-- algorithms -->
<g id="node1" class="node">
<title>algorithms</title>
<polygon fill="none" stroke="#000000" points="433.8175,-630 358.0517,-630 358.0517,-594 433.8175,-594 433.8175,-630"/>
<text text-anchor="middle" x="395.9346" y="-607.8" font-family="Times,serif" font-size="14.00" fill="#000000">algorithms</text>
</g>
<!-- data structures -->
<g id="node4" class="node">
<title>data structures</title>
<polygon fill="none" stroke="#000000" points="606.68,-630 509.1891,-630 509.1891,-594 606.68,-594 606.68,-630"/>
<text text-anchor="middle" x="557.9346" y="-607.8" font-family="Times,serif" font-size="14.00" fill="#000000">data structures</text>
</g>
<!-- algorithms&#45;&gt;data structures -->
<g id="edge1" class="edge">
<title>algorithms&#45;&gt;data structures</title>
<path fill="none" stroke="#000000" d="M444.0049,-612C461.2585,-612 480.9146,-612 498.9856,-612"/>
<polygon fill="#000000" stroke="#000000" points="443.9164,-608.5001 433.9164,-612 443.9163,-615.5001 443.9164,-608.5001"/>
<polygon fill="#000000" stroke="#000000" points="499.1233,-615.5001 509.1233,-612 499.1232,-608.5001 499.1233,-615.5001"/>
<text text-anchor="middle" x="471.594" y="-617.8" font-family="Times,serif" font-size="14.00" fill="#000000">depend on</text>
</g>
<!-- machine performance -->
<g id="node10" class="node">
<title>machine performance</title>
<polygon fill="none" stroke="#000000" points="504.5874,-530 367.2818,-530 367.2818,-494 504.5874,-494 504.5874,-530"/>
<text text-anchor="middle" x="435.9346" y="-507.8" font-family="Times,serif" font-size="14.00" fill="#000000">machine performance</text>
</g>
<!-- algorithms&#45;&gt;machine performance -->
<g id="edge2" class="edge">
<title>algorithms&#45;&gt;machine performance</title>
<path fill="none" stroke="#000000" d="M398.3478,-593.7597C400.5268,-580.6253 404.4212,-562.7036 410.9619,-548 412.3222,-544.942 413.9526,-541.8718 415.7201,-538.8838"/>
<polygon fill="#000000" stroke="#000000" points="418.8056,-540.5579 421.3008,-530.2611 412.929,-536.7545 418.8056,-540.5579"/>
<text text-anchor="middle" x="439.9209" y="-557.8" font-family="Times,serif" font-size="14.00" fill="#000000">determine</text>
</g>
<!-- archives -->
<g id="node2" class="node">
<title>archives</title>
<polygon fill="none" stroke="#000000" points="746.0772,-322 683.7919,-322 683.7919,-286 746.0772,-286 746.0772,-322"/>
<text text-anchor="middle" x="714.9346" y="-299.8" font-family="Times,serif" font-size="14.00" fill="#000000">archives</text>
</g>
<!-- data -->
<g id="node5" class="node">
<title>data</title>
<polygon fill="none" stroke="#000000" points="666.9346,-222 612.9346,-222 612.9346,-186 666.9346,-186 666.9346,-222"/>
<text text-anchor="middle" x="639.9346" y="-199.8" font-family="Times,serif" font-size="14.00" fill="#000000">data</text>
</g>
<!-- archives&#45;&gt;data -->
<g id="edge4" class="edge">
<title>archives&#45;&gt;data</title>
<path fill="none" stroke="#000000" d="M701.1784,-285.6585C689.549,-270.1526 672.7441,-247.746 659.6782,-230.3249"/>
<polygon fill="#000000" stroke="#000000" points="662.4036,-228.1253 653.6035,-222.2253 656.8036,-232.3253 662.4036,-228.1253"/>
<text text-anchor="middle" x="699.5415" y="-249.8" font-family="Times,serif" font-size="14.00" fill="#000000">store</text>
</g>
<!-- data format -->
<g id="node18" class="node">
<title>data format</title>
<polygon fill="none" stroke="#000000" points="818.0694,-222 737.7997,-222 737.7997,-186 818.0694,-186 818.0694,-222"/>
<text text-anchor="middle" x="777.9346" y="-199.8" font-family="Times,serif" font-size="14.00" fill="#000000">data format</text>
</g>
<!-- archives&#45;&gt;data format -->
<g id="edge3" class="edge">
<title>archives&#45;&gt;data format</title>
<path fill="none" stroke="#000000" d="M726.4897,-285.6585C736.1696,-270.2935 750.1183,-248.1529 761.0498,-230.8012"/>
<polygon fill="#000000" stroke="#000000" points="764.0836,-232.5518 766.4527,-222.2253 758.1609,-228.8205 764.0836,-232.5518"/>
<text text-anchor="middle" x="779.3726" y="-256.8" font-family="Times,serif" font-size="14.00" fill="#000000">conforms</text>
<text text-anchor="middle" x="779.3726" y="-242.8" font-family="Times,serif" font-size="14.00" fill="#000000">to</text>
</g>
<!-- craft -->
<g id="node3" class="node">
<title>craft</title>
<polygon fill="none" stroke="#000000" points="165.9346,-430 111.9346,-430 111.9346,-394 165.9346,-394 165.9346,-430"/>
<text text-anchor="middle" x="138.9346" y="-407.8" font-family="Times,serif" font-size="14.00" fill="#000000">craft</text>
</g>
<!-- modularization -->
<g id="node12" class="node">
<title>modularization</title>
<polygon fill="none" stroke="#000000" points="189.1868,-322 88.6823,-322 88.6823,-286 189.1868,-286 189.1868,-322"/>
<text text-anchor="middle" x="138.9346" y="-299.8" font-family="Times,serif" font-size="14.00" fill="#000000">modularization</text>
</g>
<!-- craft&#45;&gt;modularization -->
<g id="edge5" class="edge">
<title>craft&#45;&gt;modularization</title>
<path fill="none" stroke="#000000" d="M138.9346,-393.6793C138.9346,-376.821 138.9346,-351.5651 138.9346,-332.147"/>
<polygon fill="#000000" stroke="#000000" points="142.4347,-332.0501 138.9346,-322.0502 135.4347,-332.0502 142.4347,-332.0501"/>
<text text-anchor="middle" x="159.1484" y="-360.8" font-family="Times,serif" font-size="14.00" fill="#000000">depend</text>
<text text-anchor="middle" x="159.1484" y="-346.8" font-family="Times,serif" font-size="14.00" fill="#000000">on</text>
</g>
<!-- tools -->
<g id="node17" class="node">
<title>tools</title>
<polygon fill="none" stroke="#000000" points="279.9346,-430 225.9346,-430 225.9346,-394 279.9346,-394 279.9346,-430"/>
<text text-anchor="middle" x="252.9346" y="-407.8" font-family="Times,serif" font-size="14.00" fill="#000000">tools</text>
</g>
<!-- craft&#45;&gt;tools -->
<g id="edge6" class="edge">
<title>craft&#45;&gt;tools</title>
<path fill="none" stroke="#000000" d="M176.154,-412C188.7751,-412 202.8732,-412 215.5101,-412"/>
<polygon fill="#000000" stroke="#000000" points="175.951,-408.5001 165.951,-412 175.9509,-415.5001 175.951,-408.5001"/>
<polygon fill="#000000" stroke="#000000" points="215.7171,-415.5001 225.717,-412 215.717,-408.5001 215.7171,-415.5001"/>
<text text-anchor="middle" x="195.9346" y="-417.8" font-family="Times,serif" font-size="14.00" fill="#000000">support</text>
</g>
<!-- data structures&#45;&gt;archives -->
<g id="edge7" class="edge">
<title>data structures&#45;&gt;archives</title>
<path fill="none" stroke="#000000" d="M606.8337,-600.4972C630.7211,-593.9049 656.0084,-585.1404 663.9346,-576 724.744,-505.8751 722.8181,-386.6866 718.2125,-332.4221"/>
<polygon fill="#000000" stroke="#000000" points="721.6688,-331.7941 717.2421,-322.1684 714.7,-332.4537 721.6688,-331.7941"/>
<text text-anchor="middle" x="739.8174" y="-464.8" font-family="Times,serif" font-size="14.00" fill="#000000">persisted</text>
<text text-anchor="middle" x="739.8174" y="-450.8" font-family="Times,serif" font-size="14.00" fill="#000000">as</text>
</g>
<!-- data&#45;&gt;data structures -->
<g id="edge9" class="edge">
<title>data&#45;&gt;data structures</title>
<path fill="none" stroke="#000000" d="M642.827,-222.0111C645.7804,-241.991 649.9346,-275.2113 649.9346,-304 649.9346,-512 649.9346,-512 649.9346,-512 649.9346,-544.287 623.639,-570.6334 599.1643,-588.1628"/>
<polygon fill="#000000" stroke="#000000" points="596.9141,-585.4612 590.6294,-593.9908 600.8615,-591.2421 596.9141,-585.4612"/>
<text text-anchor="middle" x="668.5933" y="-414.8" font-family="Times,serif" font-size="14.00" fill="#000000">loaded</text>
<text text-anchor="middle" x="668.5933" y="-400.8" font-family="Times,serif" font-size="14.00" fill="#000000">as</text>
</g>
<!-- missing or\nincomplete -->
<g id="node11" class="node">
<title>missing or\nincomplete</title>
<polygon fill="none" stroke="#000000" points="679.135,-136 600.7341,-136 600.7341,-100 679.135,-100 679.135,-136"/>
<text text-anchor="middle" x="639.9346" y="-120.8" font-family="Times,serif" font-size="14.00" fill="#000000">missing or</text>
<text text-anchor="middle" x="639.9346" y="-106.8" font-family="Times,serif" font-size="14.00" fill="#000000">incomplete</text>
</g>
<!-- data&#45;&gt;missing or\nincomplete -->
<g id="edge10" class="edge">
<title>data&#45;&gt;missing or\nincomplete</title>
<path fill="none" stroke="#000000" d="M639.9346,-185.7616C639.9346,-174.3597 639.9346,-159.4342 639.9346,-146.494"/>
<polygon fill="#000000" stroke="#000000" points="643.4347,-146.2121 639.9346,-136.2121 636.4347,-146.2121 643.4347,-146.2121"/>
<text text-anchor="middle" x="654.3174" y="-156.8" font-family="Times,serif" font-size="14.00" fill="#000000">often</text>
</g>
<!-- data&#45;&gt;data format -->
<g id="edge8" class="edge">
<title>data&#45;&gt;data format</title>
<path fill="none" stroke="#000000" d="M667.1989,-204C684.4013,-204 707.1474,-204 727.5475,-204"/>
<polygon fill="#000000" stroke="#000000" points="727.6483,-207.5001 737.6483,-204 727.6482,-200.5001 727.6483,-207.5001"/>
<text text-anchor="middle" x="702.4009" y="-223.8" font-family="Times,serif" font-size="14.00" fill="#000000">conforms</text>
<text text-anchor="middle" x="702.4009" y="-209.8" font-family="Times,serif" font-size="14.00" fill="#000000">to</text>
</g>
<!-- experience -->
<g id="node6" class="node">
<title>experience</title>
<polygon fill="none" stroke="#000000" points="80.0566,-376 3.8125,-376 3.8125,-340 80.0566,-340 80.0566,-376"/>
<text text-anchor="middle" x="41.9346" y="-353.8" font-family="Times,serif" font-size="14.00" fill="#000000">experience</text>
</g>
<!-- libraries -->
<g id="node9" class="node">
<title>libraries</title>
<polygon fill="none" stroke="#000000" points="61.8038,-222 .0653,-222 .0653,-186 61.8038,-186 61.8038,-222"/>
<text text-anchor="middle" x="30.9346" y="-199.8" font-family="Times,serif" font-size="14.00" fill="#000000">libraries</text>
</g>
<!-- experience&#45;&gt;libraries -->
<g id="edge11" class="edge">
<title>experience&#45;&gt;libraries</title>
<path fill="none" stroke="#000000" d="M35.8107,-339.8865C34.1673,-334.2254 32.6073,-327.913 31.7412,-322 27.2872,-291.5898 27.7765,-256.2973 28.9449,-232.2887"/>
<polygon fill="#000000" stroke="#000000" points="32.4503,-232.2897 29.5142,-222.1098 25.4612,-231.8988 32.4503,-232.2897"/>
<text text-anchor="middle" x="56.0313" y="-306.8" font-family="Times,serif" font-size="14.00" fill="#000000">captured</text>
<text text-anchor="middle" x="56.0313" y="-292.8" font-family="Times,serif" font-size="14.00" fill="#000000">in</text>
</g>
<!-- hardware -->
<g id="node7" class="node">
<title>hardware</title>
<polygon fill="none" stroke="#000000" points="519.0108,-430 450.8584,-430 450.8584,-394 519.0108,-394 519.0108,-430"/>
<text text-anchor="middle" x="484.9346" y="-407.8" font-family="Times,serif" font-size="14.00" fill="#000000">hardware</text>
</g>
<!-- human performance -->
<g id="node8" class="node">
<title>human performance</title>
<polygon fill="none" stroke="#000000" points="203.27,-530 74.5992,-530 74.5992,-494 203.27,-494 203.27,-530"/>
<text text-anchor="middle" x="138.9346" y="-507.8" font-family="Times,serif" font-size="14.00" fill="#000000">human performance</text>
</g>
<!-- human performance&#45;&gt;craft -->
<g id="edge12" class="edge">
<title>human performance&#45;&gt;craft</title>
<path fill="none" stroke="#000000" d="M138.9346,-483.6219C138.9346,-470.0944 138.9346,-453.9516 138.9346,-440.4189"/>
<polygon fill="#000000" stroke="#000000" points="135.4347,-483.6584 138.9346,-493.6585 142.4347,-483.6585 135.4347,-483.6584"/>
<polygon fill="#000000" stroke="#000000" points="142.4347,-440.2252 138.9346,-430.2253 135.4347,-440.2253 142.4347,-440.2252"/>
<text text-anchor="middle" x="169.645" y="-457.8" font-family="Times,serif" font-size="14.00" fill="#000000">determines</text>
</g>
<!-- human performance&#45;&gt;experience -->
<g id="edge13" class="edge">
<title>human performance&#45;&gt;experience</title>
<path fill="none" stroke="#000000" d="M108.0803,-493.8989C101.1572,-488.7756 94.3153,-482.7345 89.0586,-476 68.0625,-449.1012 55.2344,-411.6258 48.3693,-386.1768"/>
<polygon fill="#000000" stroke="#000000" points="51.7375,-385.2207 45.8655,-376.4019 44.9564,-386.9577 51.7375,-385.2207"/>
<text text-anchor="middle" x="112.8726" y="-464.8" font-family="Times,serif" font-size="14.00" fill="#000000">depends</text>
<text text-anchor="middle" x="112.8726" y="-450.8" font-family="Times,serif" font-size="14.00" fill="#000000">on</text>
</g>
<!-- human performance&#45;&gt;machine performance -->
<g id="edge14" class="edge">
<title>human performance&#45;&gt;machine performance</title>
<path fill="none" stroke="#000000" d="M213.5358,-512C257.2967,-512 312.5483,-512 357.0324,-512"/>
<polygon fill="#000000" stroke="#000000" points="213.3792,-508.5001 203.3791,-512 213.3791,-515.5001 213.3792,-508.5001"/>
<polygon fill="#000000" stroke="#000000" points="357.2211,-515.5001 367.2211,-512 357.2211,-508.5001 357.2211,-515.5001"/>
<text text-anchor="middle" x="285.1052" y="-517.8" font-family="Times,serif" font-size="14.00" fill="#000000">traded off</text>
</g>
<!-- machine performance&#45;&gt;data structures -->
<g id="edge15" class="edge">
<title>machine performance&#45;&gt;data structures</title>
<path fill="none" stroke="#000000" d="M451.7261,-530.303C465.8927,-546.4923 485.8286,-568.6501 495.0586,-576 500.7411,-580.5251 507.0596,-584.8406 513.4378,-588.8108"/>
<polygon fill="#000000" stroke="#000000" points="511.7389,-591.8728 522.1184,-593.9979 515.3296,-585.8639 511.7389,-591.8728"/>
<text text-anchor="middle" x="518.8726" y="-564.8" font-family="Times,serif" font-size="14.00" fill="#000000">depends</text>
<text text-anchor="middle" x="518.8726" y="-550.8" font-family="Times,serif" font-size="14.00" fill="#000000">on</text>
</g>
<!-- machine performance&#45;&gt;hardware -->
<g id="edge16" class="edge">
<title>machine performance&#45;&gt;hardware</title>
<path fill="none" stroke="#000000" d="M451.3976,-493.6857C455.519,-488.227 459.7154,-482.0748 462.9346,-476 468.9767,-464.598 473.8837,-451.1998 477.5175,-439.6168"/>
<polygon fill="#000000" stroke="#000000" points="480.8814,-440.5838 480.3796,-430.0008 474.1722,-438.5868 480.8814,-440.5838"/>
<text text-anchor="middle" x="497.8726" y="-464.8" font-family="Times,serif" font-size="14.00" fill="#000000">depends</text>
<text text-anchor="middle" x="497.8726" y="-450.8" font-family="Times,serif" font-size="14.00" fill="#000000">on</text>
</g>
<!-- modularization&#45;&gt;libraries -->
<g id="edge17" class="edge">
<title>modularization&#45;&gt;libraries</title>
<path fill="none" stroke="#000000" d="M88.5085,-293.3257C73.6693,-287.9492 58.5869,-279.9273 47.9756,-268 39.2861,-258.2329 34.9538,-244.5178 32.8223,-232.2879"/>
<polygon fill="#000000" stroke="#000000" points="36.2498,-231.5104 31.4616,-222.0593 29.3109,-232.4335 36.2498,-231.5104"/>
<text text-anchor="middle" x="87.4141" y="-249.8" font-family="Times,serif" font-size="14.00" fill="#000000">used to create</text>
</g>
<!-- programs -->
<g id="node14" class="node">
<title>programs</title>
<polygon fill="none" stroke="#000000" points="372.3107,-222 303.5585,-222 303.5585,-186 372.3107,-186 372.3107,-222"/>
<text text-anchor="middle" x="337.9346" y="-199.8" font-family="Times,serif" font-size="14.00" fill="#000000">programs</text>
</g>
<!-- modularization&#45;&gt;programs -->
<g id="edge18" class="edge">
<title>modularization&#45;&gt;programs</title>
<path fill="none" stroke="#000000" d="M144.097,-285.7377C149.176,-271.1445 158.3894,-251.3212 173.4033,-240 192.006,-225.9726 251.2055,-215.4591 293.2499,-209.5204"/>
<polygon fill="#000000" stroke="#000000" points="293.8366,-212.9727 303.2677,-208.1453 292.8846,-206.0378 293.8366,-212.9727"/>
<text text-anchor="middle" x="220.2002" y="-249.8" font-family="Times,serif" font-size="14.00" fill="#000000">used to structure</text>
</g>
<!-- testing -->
<g id="node16" class="node">
<title>testing</title>
<polygon fill="none" stroke="#000000" points="252.9346,-36 198.9346,-36 198.9346,0 252.9346,0 252.9346,-36"/>
<text text-anchor="middle" x="225.9346" y="-13.8" font-family="Times,serif" font-size="14.00" fill="#000000">testing</text>
</g>
<!-- modularization&#45;&gt;testing -->
<g id="edge19" class="edge">
<title>modularization&#45;&gt;testing</title>
<path fill="none" stroke="#000000" d="M137.3301,-285.7983C134.3839,-242.2963 132.1222,-130.2494 177.9346,-54 181.2791,-48.4333 185.8414,-43.4429 190.83,-39.0782"/>
<polygon fill="#000000" stroke="#000000" points="193.1993,-41.668 198.9063,-32.7416 188.8783,-36.1608 193.1993,-41.668"/>
<text text-anchor="middle" x="155.2104" y="-156.8" font-family="Times,serif" font-size="14.00" fill="#000000">aids</text>
</g>
<!-- people -->
<g id="node13" class="node">
<title>people</title>
<polygon fill="none" stroke="#000000" points="432.9346,-430 378.9346,-430 378.9346,-394 432.9346,-394 432.9346,-430"/>
<text text-anchor="middle" x="405.9346" y="-407.8" font-family="Times,serif" font-size="14.00" fill="#000000">people</text>
</g>
<!-- people&#45;&gt;human performance -->
<g id="edge20" class="edge">
<title>people&#45;&gt;human performance</title>
<path fill="none" stroke="#000000" d="M378.6929,-424.2573C374.1209,-426.2287 369.409,-428.2083 364.9346,-430 310.1297,-451.9454 246.8966,-474.672 201.2778,-490.6177"/>
<polygon fill="#000000" stroke="#000000" points="200.1106,-487.318 191.82,-493.9147 202.4148,-493.9279 200.1106,-487.318"/>
<text text-anchor="middle" x="344.8882" y="-457.8" font-family="Times,serif" font-size="14.00" fill="#000000">care about</text>
</g>
<!-- people&#45;&gt;machine performance -->
<g id="edge21" class="edge">
<title>people&#45;&gt;machine performance</title>
<path fill="none" stroke="#000000" d="M402.2553,-430.2468C400.4133,-443.3844 399.5854,-461.3072 405.0273,-476 406.2665,-479.3457 407.9711,-482.5898 409.9482,-485.6709"/>
<polygon fill="#000000" stroke="#000000" points="407.2892,-487.9595 416.0812,-493.8716 412.8949,-483.7672 407.2892,-487.9595"/>
<text text-anchor="middle" x="434.8882" y="-457.8" font-family="Times,serif" font-size="14.00" fill="#000000">care about</text>
</g>
<!-- people&#45;&gt;programs -->
<g id="edge22" class="edge">
<title>people&#45;&gt;programs</title>
<path fill="none" stroke="#000000" d="M399.6682,-393.7595C393.4539,-375.5997 383.7045,-346.9158 375.5273,-322 365.4237,-291.2143 354.1884,-255.7831 346.655,-231.8439"/>
<polygon fill="#000000" stroke="#000000" points="349.9061,-230.5145 343.5694,-222.0235 343.228,-232.6128 349.9061,-230.5145"/>
<text text-anchor="middle" x="392.6382" y="-299.8" font-family="Times,serif" font-size="14.00" fill="#000000">create</text>
</g>
<!-- programs&#45;&gt;algorithms -->
<g id="edge23" class="edge">
<title>programs&#45;&gt;algorithms</title>
<path fill="none" stroke="#000000" d="M331.4528,-222.167C324.9634,-242.0062 315.9346,-274.8469 315.9346,-304 315.9346,-512 315.9346,-512 315.9346,-512 315.9346,-542.5574 338.9938,-569.1276 360.3522,-587.1839"/>
<polygon fill="#000000" stroke="#000000" points="358.4222,-590.1238 368.4031,-593.6779 362.817,-584.6753 358.4222,-590.1238"/>
<text text-anchor="middle" x="338.4863" y="-407.8" font-family="Times,serif" font-size="14.00" fill="#000000">embody</text>
</g>
<!-- programs&#45;&gt;data structures -->
<g id="edge24" class="edge">
<title>programs&#45;&gt;data structures</title>
<path fill="none" stroke="#000000" d="M372.3189,-212.2813C433.507,-228.0282 554.9346,-264.2815 554.9346,-304 554.9346,-512 554.9346,-512 554.9346,-512 554.9346,-536.2927 555.83,-563.8901 556.6425,-583.9301"/>
<polygon fill="#000000" stroke="#000000" points="553.1463,-584.0969 557.0668,-593.9396 560.1401,-583.8003 553.1463,-584.0969"/>
<text text-anchor="middle" x="584.2813" y="-407.8" font-family="Times,serif" font-size="14.00" fill="#000000">operate on</text>
</g>
<!-- programs&#45;&gt;data -->
<g id="edge25" class="edge">
<title>programs&#45;&gt;data</title>
<path fill="none" stroke="#000000" d="M372.5778,-204C429.7529,-204 543.4006,-204 602.4115,-204"/>
<polygon fill="#000000" stroke="#000000" points="602.7684,-207.5001 612.7684,-204 602.7683,-200.5001 602.7684,-207.5001"/>
<text text-anchor="middle" x="492.6536" y="-209.8" font-family="Times,serif" font-size="14.00" fill="#000000">are</text>
</g>
<!-- programs&#45;&gt;people -->
<g id="edge26" class="edge">
<title>programs&#45;&gt;people</title>
<path fill="none" stroke="#000000" d="M360.6765,-222.1394C377.5887,-237.1901 399.3315,-260.2384 408.9346,-286 420.8243,-317.8958 417.1559,-357.5555 412.4475,-383.7647"/>
<polygon fill="#000000" stroke="#000000" points="408.9741,-383.2892 410.4801,-393.7764 415.8427,-384.639 408.9741,-383.2892"/>
<text text-anchor="middle" x="437.7295" y="-299.8" font-family="Times,serif" font-size="14.00" fill="#000000">read by</text>
</g>
<!-- specifications -->
<g id="node15" class="node">
<title>specifications</title>
<polygon fill="none" stroke="#000000" points="302.1418,-136 209.7273,-136 209.7273,-100 302.1418,-100 302.1418,-136"/>
<text text-anchor="middle" x="255.9346" y="-113.8" font-family="Times,serif" font-size="14.00" fill="#000000">specifications</text>
</g>
<!-- programs&#45;&gt;specifications -->
<g id="edge27" class="edge">
<title>programs&#45;&gt;specifications</title>
<path fill="none" stroke="#000000" d="M303.1966,-195.6322C288.221,-190.2313 271.9251,-181.5867 262.1172,-168 257.612,-161.7591 255.4736,-153.9007 254.6071,-146.2741"/>
<polygon fill="#000000" stroke="#000000" points="258.0984,-146.0077 254.1112,-136.1918 251.1068,-146.3517 258.0984,-146.0077"/>
<text text-anchor="middle" x="293.8433" y="-156.8" font-family="Times,serif" font-size="14.00" fill="#000000">conform to</text>
</g>
<!-- specifications&#45;&gt;testing -->
<g id="edge28" class="edge">
<title>specifications&#45;&gt;testing</title>
<path fill="none" stroke="#000000" d="M209.7084,-103.1506C200.3783,-97.9609 191.7475,-91.0742 186.2207,-82 179.7474,-71.3717 181.1781,-65.377 186.2207,-54 187.8292,-50.3709 190.0043,-46.9517 192.5125,-43.7732"/>
<polygon fill="#000000" stroke="#000000" points="195.1117,-46.1174 199.3004,-36.3857 189.9572,-41.3812 195.1117,-46.1174"/>
<text text-anchor="middle" x="216.2915" y="-70.8" font-family="Times,serif" font-size="14.00" fill="#000000">can be</text>
<text text-anchor="middle" x="216.2915" y="-56.8" font-family="Times,serif" font-size="14.00" fill="#000000">defined by</text>
</g>
<!-- testing&#45;&gt;programs -->
<g id="edge29" class="edge">
<title>testing&#45;&gt;programs</title>
<path fill="none" stroke="#000000" d="M253.2129,-24.7439C269.3444,-30.0973 288.9088,-39.2063 300.9346,-54 329.3597,-88.9675 336.4111,-142.6436 337.9004,-175.4115"/>
<polygon fill="#000000" stroke="#000000" points="334.4099,-175.7774 338.215,-185.6654 341.4066,-175.5627 334.4099,-175.7774"/>
<text text-anchor="middle" x="352.9795" y="-113.8" font-family="Times,serif" font-size="14.00" fill="#000000">checks</text>
</g>
<!-- testing&#45;&gt;specifications -->
<g id="edge30" class="edge">
<title>testing&#45;&gt;specifications</title>
<path fill="none" stroke="#000000" d="M236.9568,-36.1846C239.9296,-41.7415 242.8861,-47.9786 244.9346,-54 248.8144,-65.4046 251.3718,-78.4385 253.0347,-89.7549"/>
<polygon fill="#000000" stroke="#000000" points="249.6031,-90.5066 254.3691,-99.969 256.5442,-89.5999 249.6031,-90.5066"/>
<text text-anchor="middle" x="274.4795" y="-63.8" font-family="Times,serif" font-size="14.00" fill="#000000">requires</text>
</g>
<!-- tools&#45;&gt;programs -->
<g id="edge31" class="edge">
<title>tools&#45;&gt;programs</title>
<path fill="none" stroke="#000000" d="M254.6423,-393.7587C258.4535,-360.7174 269.9883,-289.7796 301.9346,-240 304.2439,-236.4015 306.966,-232.8775 309.8623,-229.5283"/>
<polygon fill="#000000" stroke="#000000" points="312.554,-231.7742 316.8245,-222.0781 307.4395,-226.9948 312.554,-231.7742"/>
<text text-anchor="middle" x="288.4795" y="-299.8" font-family="Times,serif" font-size="14.00" fill="#000000">are</text>
</g>
</g>
</svg>
