<?xml version="1.0" encoding="UTF-8" standalone="no"?>
<svg
   xmlns:ooo="http://xml.openoffice.org/svg/export"
   xmlns:dc="http://purl.org/dc/elements/1.1/"
   xmlns:cc="http://creativecommons.org/ns#"
   xmlns:rdf="http://www.w3.org/1999/02/22-rdf-syntax-ns#"
   xmlns:svg="http://www.w3.org/2000/svg"
   xmlns="http://www.w3.org/2000/svg"
   xmlns:sodipodi="http://sodipodi.sourceforge.net/DTD/sodipodi-0.dtd"
   xmlns:inkscape="http://www.inkscape.org/namespaces/inkscape"
   version="1.2"
   width="121.25001mm"
   height="93.669731mm"
   viewBox="0 0 12125 9366.9734"
   preserveAspectRatio="xMidYMid"
   clip-path="url(#presentation_clip_path)"
   xml:space="preserve"
   id="svg3454"
   inkscape:version="0.91 r13725"
   sodipodi:docname="appear.in.svg"
   style="fill-rule:evenodd;stroke-width:28.22200012;stroke-linejoin:round"><metadata
     id="metadata3532"><rdf:RDF><cc:Work
         rdf:about=""><dc:format>image/svg+xml</dc:format><dc:type
           rdf:resource="http://purl.org/dc/dcmitype/StillImage" /><dc:title></dc:title></cc:Work></rdf:RDF></metadata><sodipodi:namedview
     pagecolor="#ffffff"
     bordercolor="#666666"
     borderopacity="1"
     objecttolerance="10"
     gridtolerance="10"
     guidetolerance="10"
     inkscape:pageopacity="0"
     inkscape:pageshadow="2"
     inkscape:window-width="867"
     inkscape:window-height="729"
     id="namedview3530"
     showgrid="false"
     fit-margin-top="0"
     fit-margin-left="0"
     fit-margin-right="0"
     fit-margin-bottom="0"
     inkscape:zoom="0.86407315"
     inkscape:cx="220.11025"
     inkscape:cy="243.36646"
     inkscape:window-x="0"
     inkscape:window-y="0"
     inkscape:window-maximized="0"
     inkscape:current-layer="svg3454" /><defs
     class="ClipPathGroup"
     id="defs3456"><clipPath
       id="presentation_clip_path"
       clipPathUnits="userSpaceOnUse"><rect
         x="0"
         y="0"
         width="26070"
         height="18062"
         id="rect3459" /></clipPath></defs><defs
     class="TextShapeIndex"
     id="defs3461"><g
       ooo:slide="id1"
       ooo:id-list="id3 id4 id5 id6"
       id="g3463" /></defs><defs
     class="EmbeddedBulletChars"
     id="defs3465"><g
       id="bullet-char-template(57356)"
       transform="scale(4.8828125e-4,-4.8828125e-4)"><path
         d="M 580,1141 1163,571 580,0 -4,571 580,1141 Z"
         id="path3468"
         inkscape:connector-curvature="0" /></g><g
       id="bullet-char-template(57354)"
       transform="scale(4.8828125e-4,-4.8828125e-4)"><path
         d="m 8,1128 1129,0 L 1137,0 8,0 8,1128 Z"
         id="path3471"
         inkscape:connector-curvature="0" /></g><g
       id="bullet-char-template(10146)"
       transform="scale(4.8828125e-4,-4.8828125e-4)"><path
         d="M 174,0 602,739 174,1481 1456,739 174,0 Z m 1184,739 -1049,607 350,-607 699,0 z"
         id="path3474"
         inkscape:connector-curvature="0" /></g><g
       id="bullet-char-template(10132)"
       transform="scale(4.8828125e-4,-4.8828125e-4)"><path
         d="M 2015,739 1276,0 717,0 l 543,543 -1086,0 0,393 1086,0 -543,545 557,0 741,-742 z"
         id="path3477"
         inkscape:connector-curvature="0" /></g><g
       id="bullet-char-template(10007)"
       transform="scale(4.8828125e-4,-4.8828125e-4)"><path
         d="m 0,-2 c -7,16 -16,29 -25,39 l 381,530 c -94,256 -141,385 -141,387 0,25 13,38 40,38 9,0 21,-2 34,-5 21,4 42,12 65,25 l 27,-13 111,-251 280,301 64,-25 24,25 c 21,-10 41,-24 62,-43 C 886,937 835,863 770,784 769,783 710,716 594,584 L 774,223 c 0,-27 -21,-55 -63,-84 l 16,-20 C 717,90 699,76 672,76 641,76 570,178 457,381 L 164,-76 c -22,-34 -53,-51 -92,-51 -42,0 -63,17 -64,51 -7,9 -10,24 -10,44 0,9 1,19 2,30 z"
         id="path3480"
         inkscape:connector-curvature="0" /></g><g
       id="bullet-char-template(10004)"
       transform="scale(4.8828125e-4,-4.8828125e-4)"><path
         d="M 285,-33 C 182,-33 111,30 74,156 52,228 41,333 41,471 c 0,78 14,145 41,201 34,71 87,106 158,106 53,0 88,-31 106,-94 l 23,-176 c 8,-64 28,-97 59,-98 l 735,706 c 11,11 33,17 66,17 42,0 63,-15 63,-46 l 0,-122 c 0,-36 -10,-64 -30,-84 L 442,47 C 390,-6 338,-33 285,-33 Z"
         id="path3483"
         inkscape:connector-curvature="0" /></g><g
       id="bullet-char-template(9679)"
       transform="scale(4.8828125e-4,-4.8828125e-4)"><path
         d="M 813,0 C 632,0 489,54 383,161 276,268 223,411 223,592 c 0,181 53,324 160,431 106,107 249,161 430,161 179,0 323,-54 432,-161 108,-107 162,-251 162,-431 0,-180 -54,-324 -162,-431 C 1136,54 992,0 813,0 Z"
         id="path3486"
         inkscape:connector-curvature="0" /></g><g
       id="bullet-char-template(8226)"
       transform="scale(4.8828125e-4,-4.8828125e-4)"><path
         d="m 346,457 c -73,0 -137,26 -191,78 -54,51 -81,114 -81,188 0,73 27,136 81,188 54,52 118,78 191,78 73,0 134,-26 185,-79 51,-51 77,-114 77,-187 0,-75 -25,-137 -76,-188 -50,-52 -112,-78 -186,-78 z"
         id="path3489"
         inkscape:connector-curvature="0" /></g><g
       id="bullet-char-template(8211)"
       transform="scale(4.8828125e-4,-4.8828125e-4)"><path
         d="m -4,459 1139,0 0,147 -1139,0 0,-147 z"
         id="path3492"
         inkscape:connector-curvature="0" /></g></defs><defs
     class="TextEmbeddedBitmaps"
     id="defs3494" /><g
     id="g3496"
     transform="translate(-6823,0)"><g
       id="id2"
       class="Master_Slide"><g
         id="bg-id2"
         class="Background" /><g
         id="bo-id2"
         class="BackgroundObjects" /></g></g><g
     class="SlideGroup"
     id="g3501"
     transform="translate(-6823,0)"><g
       id="g3503"><g
         id="id1"
         class="Slide"
         clip-path="url(#presentation_clip_path)"><g
           class="Page"
           id="g3506"><g
             class="com.sun.star.drawing.ClosedBezierShape"
             id="g3508"><g
               id="id3"><path
                 d="m 16978,5458 c 0,349 -318,667 -675,667 l -7443,0 c -356,0 -643,-318 -643,-667 l 0,-4861 C 8217,248 8512,0 8860,0 l 7443,0 c 357,0 675,248 675,597 l 0,4861 z"
                 id="path3511"
                 inkscape:connector-curvature="0"
                 style="fill:#000000;stroke:none" /></g></g><g
             class="com.sun.star.drawing.ClosedBezierShape"
             id="g3513"><g
               id="id4"><path
                 d="m 15016,1240 -7442,0 c -357,0 -675,271 -675,620 l 0,4861 c 0,349 318,644 675,644 l 2170,0 3125,1868 0,-1868 2147,0 c 357,0 644,-295 644,-644 l 0,-4861 c 0,-349 -287,-620 -644,-620 z"
                 id="path3516"
                 inkscape:connector-curvature="0"
                 style="fill:#000000;stroke:none" /><path
                 d="m 15016,1240 -7442,0 c -357,0 -675,271 -675,620 l 0,4861 c 0,349 318,644 675,644 l 2170,0 3125,1868 0,-1868 2147,0 c 357,0 644,-295 644,-644 l 0,-4861 c 0,-349 -287,-620 -644,-620 z"
                 id="path3518"
                 inkscape:connector-curvature="0"
                 style="fill:none;stroke:#ffffff;stroke-width:152;stroke-linejoin:miter" /></g></g><g
             class="com.sun.star.drawing.ClosedBezierShape"
             id="g3520"><g
               id="id5"><path
                 d="m 18646,5970 -939,-659 c -194,-139 -310,-356 -310,-581 l 0,-3396 c 0,-233 109,-442 303,-582 l 946,-659 c 116,-85 302,-7 302,132 l 0,5606 c 0,139 -186,217 -302,139 z"
                 id="path3523"
                 inkscape:connector-curvature="0"
                 style="fill:#000000;stroke:none" /></g></g><g
             class="com.sun.star.drawing.ClosedBezierShape"
             id="g3525"><g
               id="id6"><path
                 d="m 12869,5815 -620,0 0,-465 -8,0 c -233,310 -597,550 -1039,550 -931,0 -1458,-768 -1458,-1628 0,-822 551,-1590 1442,-1590 450,0 815,256 1055,566 l 8,0 0,-465 620,0 0,3032 z m -582,-1528 c 0,-581 -356,-1070 -992,-1070 -605,0 -962,520 -962,1070 0,566 349,1086 962,1086 644,0 992,-496 992,-1086 z"
                 id="path3528"
                 inkscape:connector-curvature="0"
                 style="fill:#ffffff;stroke:none" /></g></g></g></g></g></g></svg>